<?xml version="1.0" encoding="UTF-8" standalone="no"?>
<svg
   xmlns:dc="http://purl.org/dc/elements/1.1/"
   xmlns:cc="http://creativecommons.org/ns#"
   xmlns:rdf="http://www.w3.org/1999/02/22-rdf-syntax-ns#"
   xmlns:svg="http://www.w3.org/2000/svg"
   xmlns="http://www.w3.org/2000/svg"
   xmlns:xlink="http://www.w3.org/1999/xlink"
   xmlns:sodipodi="http://sodipodi.sourceforge.net/DTD/sodipodi-0.dtd"
   xmlns:inkscape="http://www.inkscape.org/namespaces/inkscape"
   sodipodi:docname="airfoil_deflected_arc.svg"
   inkscape:version="1.0 (4035a4fb49, 2020-05-01)"
   width="107.28072mm"
   height="24.342447mm"
   viewBox="0 0 107.28071 24.342447"
   version="1.1"
   id="svg877">
  <defs
     id="defs871">
    <clipPath
       id="pf479f2286a">
      <rect
         height="122.05749"
         width="357.12"
         x="57.599998"
         y="113.49925"
         id="rect389" />
    </clipPath>
    <clipPath
       id="clipPath1464">
      <rect
         height="122.05749"
         width="357.12"
         x="57.599998"
         y="113.49925"
         id="rect1462" />
    </clipPath>
    <clipPath
       id="clipPath1468">
      <rect
         height="122.05749"
         width="357.12"
         x="57.599998"
         y="113.49925"
         id="rect1466" />
    </clipPath>
    <marker
       inkscape:stockid="Arrow1Lstart"
       orient="auto"
       refY="0"
       refX="0"
       id="Arrow1Lstart"
       style="overflow:visible"
       inkscape:isstock="true">
      <path
         id="path1820"
         d="M 0,0 5,-5 -12.5,0 5,5 Z"
         style="fill:#000000;fill-opacity:1;fill-rule:evenodd;stroke:#000000;stroke-width:1pt;stroke-opacity:1"
         transform="matrix(0.8,0,0,0.8,10,0)" />
    </marker>
    <marker
       inkscape:stockid="Arrow1Lend"
       orient="auto"
       refY="0"
       refX="0"
       id="Arrow1Lend"
       style="overflow:visible"
       inkscape:isstock="true">
      <path
         id="path1823"
         d="M 0,0 5,-5 -12.5,0 5,5 Z"
         style="fill:#000000;fill-opacity:1;fill-rule:evenodd;stroke:#000000;stroke-width:1pt;stroke-opacity:1"
         transform="matrix(-0.8,0,0,-0.8,-10,0)" />
    </marker>
    <g
       id="g3502">
      <symbol
         id="symbol8473"
         overflow="visible">
        <path
           id="path1628"
           d=""
           style="stroke:none" />
      </symbol>
      <symbol
         id="symbol7738"
         overflow="visible">
        <path
           id="path7871"
           d="M 2.625,-4.359375 C 1.390625,-4.0625 0.421875,-2.765625 0.421875,-1.5625 0.421875,-0.59375 1.0625,0.125 2,0.125 c 1.15625,0 1.984375,-1.578125 1.984375,-2.953125 0,-0.90625 -0.390625,-1.40625 -0.734375,-1.84375 C 2.890625,-5.125 2.296875,-5.875 2.296875,-6.3125 c 0,-0.21875 0.203125,-0.453125 0.546875,-0.453125 0.3125,0 0.5,0.125 0.71875,0.265625 0.203125,0.125 0.390625,0.25 0.546875,0.25 C 4.359375,-6.25 4.5,-6.484375 4.5,-6.65625 4.5,-6.875 4.34375,-6.890625 3.984375,-6.984375 3.46875,-7.09375 3.328125,-7.09375 3.171875,-7.09375 c -0.78125,0 -1.140625,0.4375 -1.140625,1.03125 0,0.546875 0.296875,1.09375 0.59375,1.703125 z m 0.125,0.21875 c 0.25,0.46875 0.546875,1 0.546875,1.71875 0,0.65625 -0.375,2.328125 -1.296875,2.328125 -0.546875,0 -0.96875,-0.421875 -0.96875,-1.1875 0,-0.625 0.375,-2.5 1.71875,-2.859375 z m 0,0"
           style="stroke:none" />
      </symbol>
      <symbol
         id="symbol289"
         overflow="visible">
        <path
           id="path2717"
           d=""
           style="stroke:none" />
      </symbol>
      <symbol
         id="symbol2235"
         overflow="visible">
        <path
           id="path5733"
           d="M 2.84375,-2.75 H 3.515625 C 3.65625,-2.75 3.75,-2.75 3.75,-2.90625 3.75,-3 3.65625,-3 3.53125,-3 H 2.890625 c 0.15625,-0.890625 0.203125,-1.203125 0.265625,-1.40625 0.03125,-0.15625 0.1875,-0.296875 0.359375,-0.296875 0,0 0.1875,0 0.328125,0.078125 -0.296875,0.09375 -0.3125,0.34375 -0.3125,0.375 0,0.15625 0.125,0.265625 0.28125,0.265625 0.1875,0 0.390625,-0.15625 0.390625,-0.421875 0,-0.328125 -0.328125,-0.5 -0.6875,-0.5 -0.3125,0 -0.65625,0.171875 -0.84375,0.515625 C 2.53125,-4.125 2.484375,-3.8125 2.328125,-3 H 1.78125 c -0.140625,0 -0.234375,0 -0.234375,0.15625 0,0.09375 0.09375,0.09375 0.21875,0.09375 H 2.28125 c 0,0.046875 -0.4375,2.546875 -0.609375,3.296875 -0.03125,0.15625 -0.15625,0.671875 -0.484375,0.671875 -0.015625,0 -0.171875,0 -0.3125,-0.078125 0.28125,-0.09375 0.3125,-0.34375 0.3125,-0.375 C 1.1875,0.609375 1.0625,0.5 0.90625,0.5 c -0.1875,0 -0.390625,0.15625 -0.390625,0.421875 0,0.3125 0.328125,0.5 0.671875,0.5 0.4375,0 0.75,-0.453125 0.828125,-0.609375 0.25,-0.46875 0.421875,-1.328125 0.4375,-1.40625 z m 0,0"
           style="stroke:none" />
      </symbol>
    </g>
  </defs>
  <sodipodi:namedview
     inkscape:window-maximized="1"
     inkscape:window-y="27"
     inkscape:window-x="0"
     inkscape:window-height="1376"
     inkscape:window-width="2560"
     showgrid="false"
     inkscape:document-rotation="0"
     inkscape:current-layer="layer1"
     inkscape:document-units="mm"
     inkscape:cy="85.542005"
     inkscape:cx="228.04836"
     inkscape:zoom="2.8048569"
     inkscape:pageshadow="2"
     inkscape:pageopacity="0.0"
     borderopacity="1.0"
     bordercolor="#666666"
     pagecolor="#ffffff"
     id="base" />
  <metadata
     id="metadata874">
    <rdf:RDF>
      <cc:Work
         rdf:about="">
        <dc:format>image/svg+xml</dc:format>
        <dc:type
           rdf:resource="http://purl.org/dc/dcmitype/StillImage" />
        <dc:title></dc:title>
      </cc:Work>
    </rdf:RDF>
  </metadata>
  <g
     transform="translate(-238.04632,-215.14811)"
     id="layer1"
     inkscape:groupmode="layer"
     inkscape:label="Layer 1">
    <path
       style="fill:none;stroke:#999999;stroke-width:0.264583;stroke-linecap:butt;stroke-linejoin:miter;stroke-miterlimit:4;stroke-dasharray:1.05833, 0.264583;stroke-dashoffset:0;stroke-opacity:1"
       d="m 238.17749,226.40315 101.31679,12.95618"
       id="path1811" />
    <path
       id="path220"
       style="display:inline;fill:none;stroke:#999999;stroke-width:0.777297;stroke-linecap:butt;stroke-linejoin:round;stroke-miterlimit:4;stroke-dasharray:2.33189, 0.777297;stroke-dashoffset:0"
       d="m 87.36,173.18214 h 297.6"
       clip-path="url(#pf479f2286a)"
       transform="matrix(0.34043718,0,0,0.34034045,208.43931,167.41571)" />
    <path
       d="m 87.36,173.29897 c 0.04653,-4.81244 2.987263,-9.00347 6.245664,-12.30304 4.97629,-4.99394 11.191916,-8.5637 17.605876,-11.38522 7.64682,-3.2804 15.74711,-5.39522 23.94271,-6.75859 11.03806,-1.81696 22.24989,-2.27691 33.42193,-2.20798 11.77559,0.089 23.54315,0.70979 35.28063,1.64095 16.77488,1.31994 33.4895,3.31745 50.15099,5.65351 14.04973,2.00873 28.07067,4.21953 42.04407,6.70587 5.57425,0.99667 11.17606,1.88128 16.70338,3.1114 9.35082,2.1601 18.12685,6.6937 25.36146,12.99338 5.43677,4.714 9.91955,10.46825 13.35952,16.77867 3.85773,6.81182 7.41018,13.79584 10.68761,20.90497"
       style="fill:none;stroke:#0000ff;stroke-width:0.777297;stroke-linecap:square;stroke-linejoin:round"
       clip-path="url(#pf479f2286a)"
       id="path211"
       transform="matrix(0.34043718,0,0,0.34034045,208.43931,167.41571)" />
    <path
       d="m 87.36,173.29897 c -0.01138,3.2192 1.853481,6.15053 4.414072,7.99275 4.139847,2.93486 9.105838,4.38709 13.980588,5.57827 8.57166,2.05543 17.33523,3.15862 26.07552,4.21675 11.68022,1.29213 23.39429,2.31684 35.13423,2.8633 10.35755,0.53064 20.73375,0.6243 31.10233,0.47182 12.59384,-0.1945 25.1782,-0.80466 37.74358,-1.65643 13.37,-0.90489 26.71591,-2.13107 40.04353,-3.52209 11.89433,-1.27194 23.76763,-2.72732 35.63032,-4.26546 5.11823,-0.59224 10.22678,-1.58174 15.40164,-1.3003 7.56774,0.26415 15.11957,2.6568 21.20133,7.22514 6.12492,4.50806 10.67415,10.79334 14.0767,17.5301"
       style="fill:none;stroke:#ff0000;stroke-width:0.777297;stroke-linecap:square;stroke-linejoin:round"
       clip-path="url(#pf479f2286a)"
       id="path214"
       transform="matrix(0.34043718,0,0,0.34034045,208.43931,167.41571)" />
    <path
       style="fill:none;stroke:#000000;stroke-width:0.264583;stroke-linecap:butt;stroke-linejoin:round;stroke-miterlimit:4;stroke-dasharray:none;stroke-dashoffset:0;marker-start:url(#Arrow1Lstart);marker-end:url(#Arrow1Lend);stop-color:#000000"
       id="path1818"
       sodipodi:type="arc"
       sodipodi:cx="238.17749"
       sodipodi:cy="226.40315"
       sodipodi:rx="100.31395"
       sodipodi:ry="100.28544"
       sodipodi:start="0.0060804569"
       sodipodi:end="0.12042723"
       sodipodi:open="true"
       sodipodi:arc-type="arc"
       d="m 338.48959,227.01293 a 100.31395,100.28544 0 0 1 -0.72468,11.43815" />
    <g
       style="stroke-width:2"
       inkscape:label=""
       transform="matrix(0.5,0,0,0.5,295.04897,193.12986)"
       id="g1625">
      <g
         style="stroke-width:2"
         id="g3963">
        <g
           id="g4024"
           style="fill:#000000;fill-opacity:1;stroke-width:2">
          <use
             style="stroke-width:2"
             height="100%"
             width="100%"
             id="use1042"
             y="81.962997"
             x="91.925003"
             xlink:href="#symbol7738" />
        </g>
        <g
           id="g8406"
           style="fill:#000000;fill-opacity:1;stroke-width:2">
          <use
             style="stroke-width:2"
             height="100%"
             width="100%"
             id="use4329"
             y="83.457001"
             x="96.352997"
             xlink:href="#symbol2235" />
        </g>
      </g>
    </g>
  </g>
</svg>
