<?xml version="1.0" encoding="UTF-8" standalone="no"?>
<svg
   height="32.303001mm"
   version="1.1"
   viewBox="0 0 300.83003 91.567555"
   width="106.12615mm"
   id="svg360"
   sodipodi:docname="deflected_airfoil_rotation.svg"
   inkscape:version="1.1.2 (0a00cf5339, 2022-02-04)"
   xmlns:inkscape="http://www.inkscape.org/namespaces/inkscape"
   xmlns:sodipodi="http://sodipodi.sourceforge.net/DTD/sodipodi-0.dtd"
   xmlns:xlink="http://www.w3.org/1999/xlink"
   xmlns="http://www.w3.org/2000/svg"
   xmlns:svg="http://www.w3.org/2000/svg"
   xmlns:rdf="http://www.w3.org/1999/02/22-rdf-syntax-ns#"
   xmlns:cc="http://creativecommons.org/ns#"
   xmlns:dc="http://purl.org/dc/elements/1.1/"
   xmlns:ns1="http://www.iki.fi/pav/software/textext/">
  <metadata
     id="metadata364">
    <rdf:RDF>
      <cc:Work
         rdf:about="">
        <dc:format>image/svg+xml</dc:format>
        <dc:type
           rdf:resource="http://purl.org/dc/dcmitype/StillImage" />
      </cc:Work>
    </rdf:RDF>
  </metadata>
  <sodipodi:namedview
     pagecolor="#ffffff"
     bordercolor="#666666"
     borderopacity="1"
     objecttolerance="10"
     gridtolerance="10"
     guidetolerance="10"
     inkscape:pageopacity="0"
     inkscape:pageshadow="2"
     inkscape:window-width="2560"
     inkscape:window-height="1371"
     id="namedview362"
     showgrid="false"
     inkscape:document-units="mm"
     units="mm"
     inkscape:pagecheckerboard="true"
     inkscape:showpageshadow="false"
     inkscape:zoom="3.1912573"
     inkscape:cx="236.58387"
     inkscape:cy="67.371565"
     inkscape:window-x="0"
     inkscape:window-y="32"
     inkscape:window-maximized="1"
     inkscape:current-layer="svg360"
     showguides="true"
     inkscape:guide-bbox="true"
     inkscape:document-rotation="0"
     inkscape:object-paths="true"
     inkscape:snap-page="true" />
  <defs
     id="defs4">
    <marker
       inkscape:isstock="true"
       style="overflow:visible"
       id="marker3072"
       refX="0"
       refY="0"
       orient="auto"
       inkscape:stockid="Arrow1Lstart">
      <path
         inkscape:connector-curvature="0"
         transform="matrix(0.8,0,0,0.8,10,0)"
         style="fill:#000000;fill-opacity:1;fill-rule:evenodd;stroke:#000000;stroke-width:1pt;stroke-opacity:1"
         d="M 0,0 5,-5 -12.5,0 5,5 Z"
         id="path3070" />
    </marker>
    <marker
       inkscape:isstock="true"
       style="overflow:visible"
       id="marker3038"
       refX="0"
       refY="0"
       orient="auto"
       inkscape:stockid="Arrow1Lend">
      <path
         inkscape:connector-curvature="0"
         transform="matrix(-0.8,0,0,-0.8,-10,0)"
         style="fill:#000000;fill-opacity:1;fill-rule:evenodd;stroke:#000000;stroke-width:1pt;stroke-opacity:1"
         d="M 0,0 5,-5 -12.5,0 5,5 Z"
         id="path3036" />
    </marker>
    <style
       type="text/css"
       id="style2">
*{stroke-linecap:butt;stroke-linejoin:round;}
  </style>
    <clipPath
       id="p0783994ea3-3">
      <rect
         id="rect355-6"
         y="196.01785"
         x="118.71"
         width="736.00201"
         height="199.90509" />
    </clipPath>
    <clipPath
       id="clipPath1204">
      <rect
         id="rect1202"
         y="196.01785"
         x="118.71"
         width="736.00201"
         height="199.90509" />
    </clipPath>
    <clipPath
       id="clipPath1208">
      <rect
         id="rect1206"
         y="196.01785"
         x="118.71"
         width="736.00201"
         height="199.90509" />
    </clipPath>
    <path
       inkscape:connector-curvature="0"
       id="DejaVuSans-109-9"
       d="M 52,44.1875 Q 55.375,50.25 60.0625,53.125 64.75,56 71.09375,56 q 8.546875,0 13.1875,-5.984375 4.640625,-5.96875 4.640625,-17 V 0 h -9.03125 v 32.71875 q 0,7.859375 -2.796875,11.65625 -2.78125,3.8125 -8.484375,3.8125 -6.984375,0 -11.046875,-4.640625 -4.046875,-4.625 -4.046875,-12.640625 V 0 h -9.03125 v 32.71875 q 0,7.90625 -2.78125,11.6875 -2.78125,3.78125 -8.59375,3.78125 -6.890625,0 -10.953125,-4.65625 -4.046875,-4.65625 -4.046875,-12.625 V 0 h -9.03125 v 54.6875 h 9.03125 v -8.5 q 3.078125,5.03125 7.375,7.421875 Q 29.78125,56 35.6875,56 41.65625,56 45.828125,52.96875 50,49.953125 52,44.1875 Z" />
    <path
       inkscape:connector-curvature="0"
       id="DejaVuSans-101-3"
       d="m 56.203125,29.59375 v -4.390625 h -41.3125 q 0.59375,-9.28125 5.59375,-14.140625 5,-4.859375 13.9375,-4.859375 5.171875,0 10.03125,1.265625 4.859375,1.265625 9.65625,3.8125 v -8.5 q -4.84375,-2.046875 -9.921875,-3.125 -5.078125,-1.078125 -10.296875,-1.078125 -13.09375,0 -20.734375,7.609375 -7.640625,7.625 -7.640625,20.625 0,13.421875 7.25,21.296875 Q 20.015625,56 32.328125,56 q 11.03125,0 17.453125,-7.109375 6.421875,-7.09375 6.421875,-19.296875 z m -8.984375,2.640625 q -0.09375,7.359375 -4.125,11.75 -4.03125,4.40625 -10.671875,4.40625 -7.515625,0 -12.03125,-4.25 -4.515625,-4.25 -5.203125,-11.96875 z" />
    <path
       inkscape:connector-curvature="0"
       id="DejaVuSans-97-6"
       d="m 34.28125,27.484375 q -10.890625,0 -15.09375,-2.484375 -4.203125,-2.484375 -4.203125,-8.5 0,-4.78125 3.15625,-7.59375 3.15625,-2.796875 8.5625,-2.796875 7.484375,0 12,5.296875 4.515625,5.296875 4.515625,14.078125 v 2 z m 17.921875,3.71875 V 0 H 43.21875 v 8.296875 q -3.078125,-4.96875 -7.671875,-7.34375 -4.59375,-2.375 -11.234375,-2.375 -8.390625,0 -13.359375,4.71875 Q 6,8.015625 6,15.921875 q 0,9.21875 6.171875,13.90625 6.1875,4.6875 18.4375,4.6875 H 43.21875 v 0.890625 q 0,6.203125 -4.078125,9.59375 -4.078125,3.390625 -11.453125,3.390625 -4.6875,0 -9.140625,-1.125 -4.4375,-1.125 -8.53125,-3.375 v 8.3125 q 4.921875,1.90625 9.5625,2.84375 Q 24.21875,56 28.609375,56 q 11.875,0 17.734375,-6.15625 5.859375,-6.140625 5.859375,-18.640625 z" />
    <path
       inkscape:connector-curvature="0"
       id="DejaVuSans-110-0"
       d="M 54.890625,33.015625 V 0 H 45.90625 v 32.71875 q 0,7.765625 -3.03125,11.609375 -3.03125,3.859375 -9.078125,3.859375 -7.28125,0 -11.484375,-4.640625 -4.203125,-4.625 -4.203125,-12.640625 V 0 h -9.03125 v 54.6875 h 9.03125 v -8.5 q 3.234375,4.9375 7.59375,7.375 4.375,2.4375 10.09375,2.4375 9.421875,0 14.25,-5.828125 4.84375,-5.828125 4.84375,-17.15625 z" />
    <path
       inkscape:connector-curvature="0"
       d=""
       id="DejaVuSans-32-6" />
    <path
       inkscape:connector-curvature="0"
       id="DejaVuSans-99-2"
       d="M 48.78125,52.59375 V 44.1875 q -3.8125,2.109375 -7.640625,3.15625 -3.828125,1.046875 -7.734375,1.046875 -8.75,0 -13.59375,-5.546875 -4.828125,-5.53125 -4.828125,-15.546875 0,-10.015625 4.828125,-15.5625 4.84375,-5.53125 13.59375,-5.53125 3.90625,0 7.734375,1.046875 3.828125,1.046875 7.640625,3.15625 v -8.3125 q -3.765625,-1.75 -7.796875,-2.625 -4.015625,-0.890625 -8.5625,-0.890625 -12.359375,0 -19.640625,7.765625 -7.265625,7.765625 -7.265625,20.953125 0,13.375 7.34375,21.03125 Q 20.21875,56 33.015625,56 q 4.140625,0 8.09375,-0.859375 3.953125,-0.84375 7.671875,-2.546875 z" />
    <path
       inkscape:connector-curvature="0"
       id="DejaVuSans-98-6"
       d="m 48.6875,27.296875 q 0,9.90625 -4.078125,15.546875 -4.078125,5.640625 -11.203125,5.640625 -7.140625,0 -11.21875,-5.640625 -4.078125,-5.640625 -4.078125,-15.546875 0,-9.90625 4.078125,-15.546875 4.078125,-5.640625 11.21875,-5.640625 7.125,0 11.203125,5.640625 4.078125,5.640625 4.078125,15.546875 z m -30.578125,19.09375 q 2.84375,4.875 7.15625,7.234375 Q 29.59375,56 35.59375,56 q 9.96875,0 16.1875,-7.90625 6.234375,-7.90625 6.234375,-20.796875 0,-12.890625 -6.234375,-20.8125 -6.21875,-7.90625 -16.1875,-7.90625 -6,0 -10.328125,2.375 -4.3125,2.375 -7.15625,7.25 V 0 h -9.03125 v 75.984375 h 9.03125 z" />
    <path
       inkscape:connector-curvature="0"
       id="DejaVuSans-114-1"
       d="m 41.109375,46.296875 q -1.515625,0.875 -3.296875,1.28125 Q 36.03125,48 33.890625,48 26.265625,48 22.1875,43.046875 18.109375,38.09375 18.109375,28.8125 V 0 h -9.03125 v 54.6875 h 9.03125 v -8.5 q 2.84375,4.984375 7.375,7.390625 Q 30.03125,56 36.53125,56 q 0.921875,0 2.046875,-0.125 1.125,-0.109375 2.484375,-0.359375 z" />
    <path
       inkscape:connector-curvature="0"
       id="DejaVuSans-108-8"
       d="M 9.421875,75.984375 H 18.40625 V 0 H 9.421875 Z" />
    <path
       inkscape:connector-curvature="0"
       id="DejaVuSans-105-7"
       d="M 9.421875,54.6875 H 18.40625 V 0 H 9.421875 Z m 0,21.296875 H 18.40625 V 64.59375 H 9.421875 Z" />
    <clipPath
       id="p0783994ea3-3-9">
      <rect
         height="199.90509"
         width="736.00201"
         x="118.71"
         y="196.01785"
         id="rect355-6-3" />
    </clipPath>
    <clipPath
       id="p0783994ea3-3-94">
      <rect
         height="199.90509"
         width="736.00201"
         x="118.71"
         y="196.01785"
         id="rect355-6-7" />
    </clipPath>
    <defs
       id="defs315-0">
      <path
         inkscape:connector-curvature="0"
         id="path1320"
         d="M 52,44.1875 Q 55.375,50.25 60.0625,53.125 64.75,56 71.09375,56 q 8.546875,0 13.1875,-5.984375 4.640625,-5.96875 4.640625,-17 V 0 h -9.03125 v 32.71875 q 0,7.859375 -2.796875,11.65625 -2.78125,3.8125 -8.484375,3.8125 -6.984375,0 -11.046875,-4.640625 -4.046875,-4.625 -4.046875,-12.640625 V 0 h -9.03125 v 32.71875 q 0,7.90625 -2.78125,11.6875 -2.78125,3.78125 -8.59375,3.78125 -6.890625,0 -10.953125,-4.65625 -4.046875,-4.65625 -4.046875,-12.625 V 0 h -9.03125 v 54.6875 h 9.03125 v -8.5 q 3.078125,5.03125 7.375,7.421875 Q 29.78125,56 35.6875,56 41.65625,56 45.828125,52.96875 50,49.953125 52,44.1875 Z" />
      <path
         inkscape:connector-curvature="0"
         id="path1322"
         d="m 56.203125,29.59375 v -4.390625 h -41.3125 q 0.59375,-9.28125 5.59375,-14.140625 5,-4.859375 13.9375,-4.859375 5.171875,0 10.03125,1.265625 4.859375,1.265625 9.65625,3.8125 v -8.5 q -4.84375,-2.046875 -9.921875,-3.125 -5.078125,-1.078125 -10.296875,-1.078125 -13.09375,0 -20.734375,7.609375 -7.640625,7.625 -7.640625,20.625 0,13.421875 7.25,21.296875 Q 20.015625,56 32.328125,56 q 11.03125,0 17.453125,-7.109375 6.421875,-7.09375 6.421875,-19.296875 z m -8.984375,2.640625 q -0.09375,7.359375 -4.125,11.75 -4.03125,4.40625 -10.671875,4.40625 -7.515625,0 -12.03125,-4.25 -4.515625,-4.25 -5.203125,-11.96875 z" />
      <path
         inkscape:connector-curvature="0"
         id="path1324"
         d="m 34.28125,27.484375 q -10.890625,0 -15.09375,-2.484375 -4.203125,-2.484375 -4.203125,-8.5 0,-4.78125 3.15625,-7.59375 3.15625,-2.796875 8.5625,-2.796875 7.484375,0 12,5.296875 4.515625,5.296875 4.515625,14.078125 v 2 z m 17.921875,3.71875 V 0 H 43.21875 v 8.296875 q -3.078125,-4.96875 -7.671875,-7.34375 -4.59375,-2.375 -11.234375,-2.375 -8.390625,0 -13.359375,4.71875 Q 6,8.015625 6,15.921875 q 0,9.21875 6.171875,13.90625 6.1875,4.6875 18.4375,4.6875 H 43.21875 v 0.890625 q 0,6.203125 -4.078125,9.59375 -4.078125,3.390625 -11.453125,3.390625 -4.6875,0 -9.140625,-1.125 -4.4375,-1.125 -8.53125,-3.375 v 8.3125 q 4.921875,1.90625 9.5625,2.84375 Q 24.21875,56 28.609375,56 q 11.875,0 17.734375,-6.15625 5.859375,-6.140625 5.859375,-18.640625 z" />
      <path
         inkscape:connector-curvature="0"
         id="path1326"
         d="M 54.890625,33.015625 V 0 H 45.90625 v 32.71875 q 0,7.765625 -3.03125,11.609375 -3.03125,3.859375 -9.078125,3.859375 -7.28125,0 -11.484375,-4.640625 -4.203125,-4.625 -4.203125,-12.640625 V 0 h -9.03125 v 54.6875 h 9.03125 v -8.5 q 3.234375,4.9375 7.59375,7.375 4.375,2.4375 10.09375,2.4375 9.421875,0 14.25,-5.828125 4.84375,-5.828125 4.84375,-17.15625 z" />
      <path
         inkscape:connector-curvature="0"
         d=""
         id="path1328" />
      <path
         inkscape:connector-curvature="0"
         id="path1330"
         d="M 48.78125,52.59375 V 44.1875 q -3.8125,2.109375 -7.640625,3.15625 -3.828125,1.046875 -7.734375,1.046875 -8.75,0 -13.59375,-5.546875 -4.828125,-5.53125 -4.828125,-15.546875 0,-10.015625 4.828125,-15.5625 4.84375,-5.53125 13.59375,-5.53125 3.90625,0 7.734375,1.046875 3.828125,1.046875 7.640625,3.15625 v -8.3125 q -3.765625,-1.75 -7.796875,-2.625 -4.015625,-0.890625 -8.5625,-0.890625 -12.359375,0 -19.640625,7.765625 -7.265625,7.765625 -7.265625,20.953125 0,13.375 7.34375,21.03125 Q 20.21875,56 33.015625,56 q 4.140625,0 8.09375,-0.859375 3.953125,-0.84375 7.671875,-2.546875 z" />
      <path
         inkscape:connector-curvature="0"
         id="path1332"
         d="m 48.6875,27.296875 q 0,9.90625 -4.078125,15.546875 -4.078125,5.640625 -11.203125,5.640625 -7.140625,0 -11.21875,-5.640625 -4.078125,-5.640625 -4.078125,-15.546875 0,-9.90625 4.078125,-15.546875 4.078125,-5.640625 11.21875,-5.640625 7.125,0 11.203125,5.640625 4.078125,5.640625 4.078125,15.546875 z m -30.578125,19.09375 q 2.84375,4.875 7.15625,7.234375 Q 29.59375,56 35.59375,56 q 9.96875,0 16.1875,-7.90625 6.234375,-7.90625 6.234375,-20.796875 0,-12.890625 -6.234375,-20.8125 -6.21875,-7.90625 -16.1875,-7.90625 -6,0 -10.328125,2.375 -4.3125,2.375 -7.15625,7.25 V 0 h -9.03125 v 75.984375 h 9.03125 z" />
      <path
         inkscape:connector-curvature="0"
         id="path1334"
         d="m 41.109375,46.296875 q -1.515625,0.875 -3.296875,1.28125 Q 36.03125,48 33.890625,48 26.265625,48 22.1875,43.046875 18.109375,38.09375 18.109375,28.8125 V 0 h -9.03125 v 54.6875 h 9.03125 v -8.5 q 2.84375,4.984375 7.375,7.390625 Q 30.03125,56 36.53125,56 q 0.921875,0 2.046875,-0.125 1.125,-0.109375 2.484375,-0.359375 z" />
      <path
         inkscape:connector-curvature="0"
         id="path1336"
         d="M 9.421875,75.984375 H 18.40625 V 0 H 9.421875 Z" />
      <path
         inkscape:connector-curvature="0"
         id="path1338"
         d="M 9.421875,54.6875 H 18.40625 V 0 H 9.421875 Z m 0,21.296875 H 18.40625 V 64.59375 H 9.421875 Z" />
    </defs>
    <g
       id="g4178">
      <symbol
         overflow="visible"
         id="symbol7402">
        <path
           style="stroke:none"
           d=""
           id="path281" />
      </symbol>
      <symbol
         overflow="visible"
         id="symbol1691">
        <path
           style="stroke:none"
           d="M 2.625,-4.359375 C 1.390625,-4.0625 0.421875,-2.765625 0.421875,-1.5625 0.421875,-0.59375 1.0625,0.125 2,0.125 c 1.15625,0 1.984375,-1.578125 1.984375,-2.953125 0,-0.90625 -0.390625,-1.40625 -0.734375,-1.84375 C 2.890625,-5.125 2.296875,-5.875 2.296875,-6.3125 c 0,-0.21875 0.203125,-0.453125 0.546875,-0.453125 0.3125,0 0.5,0.125 0.71875,0.265625 0.203125,0.125 0.390625,0.25 0.546875,0.25 C 4.359375,-6.25 4.5,-6.484375 4.5,-6.65625 4.5,-6.875 4.34375,-6.890625 3.984375,-6.984375 3.46875,-7.09375 3.328125,-7.09375 3.171875,-7.09375 c -0.78125,0 -1.140625,0.4375 -1.140625,1.03125 0,0.546875 0.296875,1.09375 0.59375,1.703125 z m 0.125,0.21875 c 0.25,0.46875 0.546875,1 0.546875,1.71875 0,0.65625 -0.375,2.328125 -1.296875,2.328125 -0.546875,0 -0.96875,-0.421875 -0.96875,-1.1875 0,-0.625 0.375,-2.5 1.71875,-2.859375 z m 0,0"
           id="path7568" />
      </symbol>
      <symbol
         overflow="visible"
         id="symbol9242">
        <path
           style="stroke:none"
           d=""
           id="path4418" />
      </symbol>
      <symbol
         overflow="visible"
         id="symbol3626">
        <path
           style="stroke:none"
           d="M 2.84375,-2.75 H 3.515625 C 3.65625,-2.75 3.75,-2.75 3.75,-2.90625 3.75,-3 3.65625,-3 3.53125,-3 H 2.890625 c 0.15625,-0.890625 0.203125,-1.203125 0.265625,-1.40625 0.03125,-0.15625 0.1875,-0.296875 0.359375,-0.296875 0,0 0.1875,0 0.328125,0.078125 -0.296875,0.09375 -0.3125,0.34375 -0.3125,0.375 0,0.15625 0.125,0.265625 0.28125,0.265625 0.1875,0 0.390625,-0.15625 0.390625,-0.421875 0,-0.328125 -0.328125,-0.5 -0.6875,-0.5 -0.3125,0 -0.65625,0.171875 -0.84375,0.515625 C 2.53125,-4.125 2.484375,-3.8125 2.328125,-3 H 1.78125 c -0.140625,0 -0.234375,0 -0.234375,0.15625 0,0.09375 0.09375,0.09375 0.21875,0.09375 H 2.28125 c 0,0.046875 -0.4375,2.546875 -0.609375,3.296875 -0.03125,0.15625 -0.15625,0.671875 -0.484375,0.671875 -0.015625,0 -0.171875,0 -0.3125,-0.078125 0.28125,-0.09375 0.3125,-0.34375 0.3125,-0.375 C 1.1875,0.609375 1.0625,0.5 0.90625,0.5 c -0.1875,0 -0.390625,0.15625 -0.390625,0.421875 0,0.3125 0.328125,0.5 0.671875,0.5 0.4375,0 0.75,-0.453125 0.828125,-0.609375 0.25,-0.46875 0.421875,-1.328125 0.4375,-1.40625 z m 0,0"
           id="path8274" />
      </symbol>
    </g>
    <g
       id="g2125">
      <symbol
         overflow="visible"
         id="symbol311">
        <path
           style="stroke:none"
           d=""
           id="path8686" />
      </symbol>
      <symbol
         overflow="visible"
         id="symbol8467">
        <path
           style="stroke:none"
           d="M 2.625,-4.359375 C 1.390625,-4.0625 0.421875,-2.765625 0.421875,-1.5625 0.421875,-0.59375 1.0625,0.125 2,0.125 c 1.15625,0 1.984375,-1.578125 1.984375,-2.953125 0,-0.90625 -0.390625,-1.40625 -0.734375,-1.84375 C 2.890625,-5.125 2.296875,-5.875 2.296875,-6.3125 c 0,-0.21875 0.203125,-0.453125 0.546875,-0.453125 0.3125,0 0.5,0.125 0.71875,0.265625 0.203125,0.125 0.390625,0.25 0.546875,0.25 C 4.359375,-6.25 4.5,-6.484375 4.5,-6.65625 4.5,-6.875 4.34375,-6.890625 3.984375,-6.984375 3.46875,-7.09375 3.328125,-7.09375 3.171875,-7.09375 c -0.78125,0 -1.140625,0.4375 -1.140625,1.03125 0,0.546875 0.296875,1.09375 0.59375,1.703125 z m 0.125,0.21875 c 0.25,0.46875 0.546875,1 0.546875,1.71875 0,0.65625 -0.375,2.328125 -1.296875,2.328125 -0.546875,0 -0.96875,-0.421875 -0.96875,-1.1875 0,-0.625 0.375,-2.5 1.71875,-2.859375 z m 0,0"
           id="path1710" />
      </symbol>
      <symbol
         overflow="visible"
         id="symbol4258">
        <path
           style="stroke:none"
           d=""
           id="path6708" />
      </symbol>
      <symbol
         overflow="visible"
         id="symbol6092">
        <path
           style="stroke:none"
           d="M 2.84375,-2.75 H 3.515625 C 3.65625,-2.75 3.75,-2.75 3.75,-2.90625 3.75,-3 3.65625,-3 3.53125,-3 H 2.890625 c 0.15625,-0.890625 0.203125,-1.203125 0.265625,-1.40625 0.03125,-0.15625 0.1875,-0.296875 0.359375,-0.296875 0,0 0.1875,0 0.328125,0.078125 -0.296875,0.09375 -0.3125,0.34375 -0.3125,0.375 0,0.15625 0.125,0.265625 0.28125,0.265625 0.1875,0 0.390625,-0.15625 0.390625,-0.421875 0,-0.328125 -0.328125,-0.5 -0.6875,-0.5 -0.3125,0 -0.65625,0.171875 -0.84375,0.515625 C 2.53125,-4.125 2.484375,-3.8125 2.328125,-3 H 1.78125 c -0.140625,0 -0.234375,0 -0.234375,0.15625 0,0.09375 0.09375,0.09375 0.21875,0.09375 H 2.28125 c 0,0.046875 -0.4375,2.546875 -0.609375,3.296875 -0.03125,0.15625 -0.15625,0.671875 -0.484375,0.671875 -0.015625,0 -0.171875,0 -0.3125,-0.078125 0.28125,-0.09375 0.3125,-0.34375 0.3125,-0.375 C 1.1875,0.609375 1.0625,0.5 0.90625,0.5 c -0.1875,0 -0.390625,0.15625 -0.390625,0.421875 0,0.3125 0.328125,0.5 0.671875,0.5 0.4375,0 0.75,-0.453125 0.828125,-0.609375 0.25,-0.46875 0.421875,-1.328125 0.4375,-1.40625 z m 0,0"
           id="path1509" />
      </symbol>
    </g>
    <marker
       id="Arrow1Lstart"
       overflow="visible"
       orient="auto">
      <path
         transform="matrix(0.8,0,0,0.8,10,0)"
         d="M 0,0 5,-5 -12.5,0 5,5 Z"
         fill-rule="evenodd"
         stroke="#000000"
         stroke-width="1pt"
         id="path5" />
    </marker>
    <marker
       id="Arrow1Lend"
       overflow="visible"
       orient="auto">
      <path
         transform="matrix(-0.8,0,0,-0.8,-10,0)"
         d="M 0,0 5,-5 -12.5,0 5,5 Z"
         fill-rule="evenodd"
         stroke="#000000"
         stroke-width="1pt"
         id="path8" />
    </marker>
    <clipPath
       id="pf479f2286a">
      <rect
         x="57.599998"
         y="113.5"
         width="357.12"
         height="122.06"
         id="rect2" />
    </clipPath>
    <clipPath
       id="p0783994ea3-3-1">
      <rect
         id="rect355-6-77"
         y="196.01785"
         x="118.71"
         width="736.00201"
         height="199.90509" />
    </clipPath>
    <clipPath
       id="clipPath956">
      <rect
         id="rect954"
         y="196.01785"
         x="118.71"
         width="736.00201"
         height="199.90509" />
    </clipPath>
    <clipPath
       id="pf479f2286a-5">
      <rect
         x="57.599998"
         y="113.5"
         width="357.12"
         height="122.06"
         id="rect2-9" />
    </clipPath>
  </defs>
  <rect
     style="fill:#ffffff;stroke-width:0.75;stroke-linecap:round"
     id="rect961"
     width="300.83002"
     height="91.567558"
     x="0"
     y="0" />
  <path
     transform="matrix(0.96502675,0,0,0.96474328,-83.898904,-132.18195)"
     d="m 87.36,173.18 h 297.6"
     clip-path="url(#pf479f2286a)"
     stroke="#999999"
     stroke-dasharray="2.33189, 0.777297"
     id="path24"
     style="fill:none;stroke-width:0.777295;stroke-linejoin:round;stroke-miterlimit:4;stroke-dasharray:4.66377, 0.777295;stroke-dashoffset:0" />
  <path
     inkscape:connector-curvature="0"
     d="m 180.0435,307.54582 c 1.79747,-20.90509 21.61346,-34.01913 38.33547,-43.41321 51.3385,-26.14812 110.86733,-24.81296 166.94485,-22.54104 113.0746,6.33469 224.93144,26.14244 335.6216,49.35151 24.21944,5.1986 48.36483,10.74377 72.43304,16.60275"
     style="fill:none;stroke:#4d4d4d;stroke-width:1.63808;stroke-linecap:square;stroke-linejoin:round;stroke-miterlimit:4;stroke-dasharray:none;stroke-dashoffset:0"
     clip-path="url(#p0783994ea3-3)"
     id="path277-7"
     transform="matrix(0.45795134,0,0,0.45775387,-82.045329,-105.888)" />
  <path
     transform="matrix(0.93214426,0.2497673,-0.24969393,0.93187045,-35.394097,-166.32636)"
     d="m 87.36,173.18 h 297.6"
     clip-path="url(#pf479f2286a-5)"
     stroke="#999999"
     stroke-dasharray="2.33189, 0.777297"
     id="path24-7"
     style="fill:none;stroke-width:0.777295;stroke-linecap:butt;stroke-linejoin:round;stroke-miterlimit:4;stroke-dasharray:4.66377, 0.777295;stroke-dashoffset:0" />
  <path
     inkscape:connector-curvature="0"
     d="m 180.0435,307.54582 c 0.62834,17.6992 20.82232,23.68397 34.98458,27.52237 47.95809,10.74554 97.30202,13.83915 146.28888,15.99328 109.95541,2.46064 219.59818,-10.30766 328.25275,-25.93912 34.70945,-5.20767 69.32617,-11.03058 103.80876,-17.57658"
     style="fill:none;stroke:#4d4d4d;stroke-width:1.63808;stroke-linecap:square;stroke-linejoin:round;stroke-miterlimit:4;stroke-dasharray:none;stroke-dashoffset:0"
     clip-path="url(#p0783994ea3-3)"
     id="path280-5"
     transform="matrix(0.45795134,0,0,0.45775387,-82.045329,-105.888)" />
  <g
     id="line2d_29-2"
     transform="translate(-346.41687,-278.3113)" />
  <defs
     id="defs358">
    <clipPath
       id="p0783994ea3">
      <rect
         height="199.90509"
         width="736.00201"
         x="118.71"
         y="196.01785"
         id="rect355" />
    </clipPath>
  </defs>
  <g
     id="g3313"
     ns1:jacobian_sqrt="1.0"
     transform="matrix(1.1135013,0,0,1.1130212,95.66898,4.0638375)"
     ns1:inkscapeversion="1.0rc1"
     ns1:alignment="middle center"
     ns1:scale="1.0"
     ns1:preamble="/home/peter/.config/inkscape/extensions/textext/default_packages.tex"
     ns1:text="\\(t\\)"
     ns1:pdfconverter="inkscape"
     ns1:texconverter="xelatex"
     ns1:version="1.0.0-dev.4"
     style="stroke-width:0.898262">
    <defs
       id="id-cfc49e12-5543-451d-abc1-08320158bca5">
      <g
         id="id-2a60de4c-ef47-4688-a27e-06cd07f06feb">
        <symbol
           overflow="visible"
           id="id-86fe78f8-6f13-4107-8255-f62f5dd8568c">
          <path
             style="stroke:none"
             d=""
             id="id-114aa544-6be3-40fc-8778-59c8a0dbafeb"
             inkscape:connector-curvature="0" />
        </symbol>
        <symbol
           overflow="visible"
           id="id-80594642-4875-41d1-b69f-8a42a093e6c9">
          <path
             style="stroke:none"
             d="m 2.046875,-3.984375 h 0.9375 c 0.203125,0 0.3125,0 0.3125,-0.203125 0,-0.109375 -0.109375,-0.109375 -0.28125,-0.109375 h -0.875 C 2.5,-5.71875 2.546875,-5.90625 2.546875,-5.96875 c 0,-0.171875 -0.125,-0.265625 -0.296875,-0.265625 -0.03125,0 -0.3125,0 -0.390625,0.359375 L 1.46875,-4.296875 h -0.9375 c -0.203125,0 -0.296875,0 -0.296875,0.1875 0,0.125 0.078125,0.125 0.28125,0.125 h 0.875 C 0.671875,-1.15625 0.625,-0.984375 0.625,-0.8125 0.625,-0.265625 1,0.109375 1.546875,0.109375 2.5625,0.109375 3.125,-1.34375 3.125,-1.421875 3.125,-1.53125 3.046875,-1.53125 3.015625,-1.53125 2.921875,-1.53125 2.90625,-1.5 2.859375,-1.390625 2.4375,-0.34375 1.90625,-0.109375 1.5625,-0.109375 c -0.203125,0 -0.3125,-0.125 -0.3125,-0.453125 0,-0.25 0.03125,-0.3125 0.0625,-0.484375 z m 0,0"
             id="id-ee05e1fe-96fc-41fc-b28d-c659de386074"
             inkscape:connector-curvature="0" />
        </symbol>
      </g>
    </defs>
    <g
       id="id-b5cd6666-dfe6-4ba4-af43-a0ccbfbaa628"
       transform="translate(-148.946,-128.531)"
       style="stroke-width:0.898262">
      <g
         style="fill:#000000;fill-opacity:1;stroke-width:0.898262"
         id="id-50453d23-91d1-44f4-883c-f7ff280b71c9">
        <g
           id="g3309"
           transform="translate(148.712,134.765)"
           style="stroke-width:0.898262" />
      </g>
    </g>
  </g>
  <g
     inkscape:label=""
     transform="matrix(1.5,0,0,1.5,149.99583,-52.171882)"
     id="g1094">
    <g
       id="g1539">
      <g
         style="fill:#000000;fill-opacity:1"
         id="g5529">
        <use
           xlink:href="#symbol1691"
           x="91.925003"
           y="81.962997"
           id="use4472"
           width="100%"
           height="100%" />
      </g>
      <g
         style="fill:#000000;fill-opacity:1"
         id="g4374">
        <use
           xlink:href="#symbol3626"
           x="96.352997"
           y="83.457001"
           id="use3865"
           width="100%"
           height="100%" />
      </g>
    </g>
  </g>
  <path
     inkscape:connector-curvature="0"
     d="m 180.0435,307.54582 c 1.79747,-20.90509 21.61346,-34.01913 38.33547,-43.41321 51.3385,-26.14812 110.86733,-24.81296 166.94485,-22.54104 113.0746,6.33469 224.93144,26.14244 335.6216,49.35151 24.21944,5.1986 48.36483,10.74377 72.43304,16.60275"
     style="fill:none;stroke:#0000ff;stroke-width:1.06717;stroke-linecap:square;stroke-linejoin:round;stroke-miterlimit:4;stroke-dasharray:none"
     clip-path="url(#p0783994ea3-3-1)"
     id="path277-7-1"
     transform="matrix(0.44553355,0.11938035,-0.11932888,0.44534144,-40.720292,-141.58192)" />
  <path
     inkscape:connector-curvature="0"
     d="m 180.0435,307.54582 c 0.62834,17.6992 20.82232,23.68397 34.98458,27.52237 47.95809,10.74554 97.30202,13.83915 146.28888,15.99328 109.95541,2.46064 219.59818,-10.30766 328.25275,-25.93912 34.70945,-5.20767 69.32617,-11.03058 103.80876,-17.57658"
     style="fill:none;stroke:#ff0000;stroke-width:1.06717;stroke-linecap:square;stroke-linejoin:round;stroke-miterlimit:4;stroke-dasharray:none"
     clip-path="url(#p0783994ea3-3-1)"
     id="path280-5-1"
     transform="matrix(0.44553355,0.11938035,-0.11932888,0.44534144,-40.720292,-141.58192)" />
  <circle
     style="fill:#000000;stroke:none;stroke-width:0.75;stroke-linecap:round;stroke-miterlimit:4;stroke-dasharray:none;stroke-dashoffset:0"
     id="path1323"
     cx="71.051979"
     cy="34.8923"
     r="1.7963228" />
  <path
     style="fill:none;stroke:#000000;stroke-width:0.788031;stroke-linecap:round;stroke-miterlimit:4;stroke-dasharray:none;marker-start:url(#marker3072);marker-end:url(#marker3038)"
     id="path951"
     d="m 286.5438,35.730214 a 215.51164,215.51164 0 0 1 -7.13324,54.419584"
     sodipodi:type="arc"
     sodipodi:arc-type="arc"
     sodipodi:start="0.0026520948"
     sodipodi:end="0.25801889"
     sodipodi:ry="215.51164"
     sodipodi:rx="215.51164"
     sodipodi:cy="35.158657"
     sodipodi:cx="71.032913"
     sodipodi:open="true" />
</svg>
