<?xml version="1.0" encoding="UTF-8" standalone="no"?>
<svg
   xmlns:dc="http://purl.org/dc/elements/1.1/"
   xmlns:cc="http://creativecommons.org/ns#"
   xmlns:rdf="http://www.w3.org/1999/02/22-rdf-syntax-ns#"
   xmlns:svg="http://www.w3.org/2000/svg"
   xmlns="http://www.w3.org/2000/svg"
   xmlns:sodipodi="http://sodipodi.sourceforge.net/DTD/sodipodi-0.dtd"
   xmlns:inkscape="http://www.inkscape.org/namespaces/inkscape"
   height="47.500851pt"
   version="1.1"
   viewBox="0 0 366.83201 47.50085"
   width="366.832pt"
   id="svg22"
   sodipodi:docname="NACA-4412.svg"
   inkscape:version="1.0 (4035a4fb49, 2020-05-01)">
  <metadata
     id="metadata26">
    <rdf:RDF>
      <cc:Work
         rdf:about="">
        <dc:format>image/svg+xml</dc:format>
        <dc:type
           rdf:resource="http://purl.org/dc/dcmitype/StillImage" />
      </cc:Work>
    </rdf:RDF>
  </metadata>
  <sodipodi:namedview
     inkscape:document-rotation="0"
     pagecolor="#ffffff"
     bordercolor="#666666"
     borderopacity="1"
     objecttolerance="10"
     gridtolerance="10"
     guidetolerance="10"
     inkscape:pageopacity="0"
     inkscape:pageshadow="2"
     inkscape:window-width="2560"
     inkscape:window-height="1376"
     id="namedview24"
     showgrid="false"
     inkscape:zoom="1.6564988"
     inkscape:cx="209.38032"
     inkscape:cy="-24.86337"
     inkscape:window-x="0"
     inkscape:window-y="27"
     inkscape:window-maximized="1"
     inkscape:current-layer="svg22" />
  <defs
     id="defs4">
    <style
       type="text/css"
       id="style2">
*{stroke-linecap:butt;stroke-linejoin:round;}
  </style>
  </defs>
  <g
     id="axes_1"
     transform="translate(-47.029462,-149.05221)"
     style="stroke:#1a1a1a;stroke-width:1.12499998;stroke-miterlimit:4;stroke-dasharray:none">
    <g
       id="line2d_1"
       style="stroke:#1a1a1a;stroke-width:1.12499998;stroke-miterlimit:4;stroke-dasharray:none">
      <path
         id="path9"
         clip-path="url(#p751789db9b)"
         style="fill:none;stroke:#1a1a1a;stroke-width:1.12499998;stroke-linecap:square;stroke-miterlimit:4;stroke-dasharray:none"
         d="m 47.508264,185.57684 c -0.622372,-3.8276 2.31484,-7.023 5.017166,-9.30492 6.440089,-5.28625 14.210169,-8.61074 21.927515,-11.57005 18.501022,-6.78939 37.991425,-10.47642 57.515715,-12.79157 22.78604,-2.61183 45.78457,-3.00586 68.68058,-1.89986 24.72519,1.18531 49.38932,3.53938 73.91863,6.84896 24.35366,3.26791 48.58174,7.46708 72.631,12.50447 22.2427,4.65243 44.32425,10.06612 66.20113,16.21297" />
    </g>
    <g
       id="line2d_2"
       style="stroke:#1a1a1a;stroke-width:1.12499998;stroke-miterlimit:4;stroke-dasharray:none">
      <path
         id="path12"
         clip-path="url(#p751789db9b)"
         style="fill:none;stroke:#1a1a1a;stroke-width:1.12499998;stroke-linecap:square;stroke-miterlimit:4;stroke-dasharray:none"
         d="m 47.508264,185.57684 c 0.942748,3.85964 4.971379,5.6855 8.401397,6.85557 8.07761,2.58539 16.635667,3.05058 25.050442,3.5003 22.107567,0.77773 44.210617,-0.60401 66.290117,-1.57263 25.22178,-1.20391 50.44271,-2.4272 75.67506,-3.39174 30.0822,-1.20609 60.16119,-2.5063 90.25413,-3.42056 32.08258,-0.9679 64.17537,-1.56349 96.27037,-1.92027 1.31674,-0.0169 2.63348,-0.0338 3.95022,-0.0507" />
    </g>
  </g>
  <defs
     id="defs20">
    <clipPath
       id="p751789db9b">
      <rect
         height="84.19223"
         width="439.20001"
         x="10.8"
         y="130.70389"
         id="rect17" />
    </clipPath>
  </defs>
</svg>
