<?xml version="1.0" encoding="UTF-8" standalone="no"?>
<svg
   xmlns:dc="http://purl.org/dc/elements/1.1/"
   xmlns:cc="http://creativecommons.org/ns#"
   xmlns:rdf="http://www.w3.org/1999/02/22-rdf-syntax-ns#"
   xmlns:svg="http://www.w3.org/2000/svg"
   xmlns="http://www.w3.org/2000/svg"
   xmlns:xlink="http://www.w3.org/1999/xlink"
   xmlns:sodipodi="http://sodipodi.sourceforge.net/DTD/sodipodi-0.dtd"
   xmlns:inkscape="http://www.inkscape.org/namespaces/inkscape"
   inkscape:version="1.0 (4035a4fb49, 2020-05-01)"
   sodipodi:docname="NACA-6412-vertical-curves.svg"
   id="svg403"
   width="432.00201pt"
   viewBox="0 0 432.00204 120.77651"
   version="1.1"
   height="120.7765pt">
  <metadata
     id="metadata407">
    <rdf:RDF>
      <cc:Work
         rdf:about="">
        <dc:format>image/svg+xml</dc:format>
        <dc:type
           rdf:resource="http://purl.org/dc/dcmitype/StillImage" />
      </cc:Work>
    </rdf:RDF>
  </metadata>
  <sodipodi:namedview
     inkscape:current-layer="axes_1"
     inkscape:window-maximized="1"
     inkscape:window-y="27"
     inkscape:window-x="0"
     inkscape:cy="112.17818"
     inkscape:cx="304.42196"
     inkscape:zoom="2.1282049"
     showgrid="false"
     id="namedview405"
     inkscape:window-height="1376"
     inkscape:window-width="2560"
     inkscape:pageshadow="2"
     inkscape:pageopacity="0"
     guidetolerance="10"
     gridtolerance="10"
     objecttolerance="10"
     borderopacity="1"
     bordercolor="#666666"
     pagecolor="#ffffff"
     inkscape:document-rotation="0" />
  <defs
     id="defs4">
    <style
       id="style2"
       type="text/css">
*{stroke-linecap:butt;stroke-linejoin:round;}
  </style>
  </defs>
  <g
     transform="translate(-398.40187,-26.459178)"
     id="figure_1">
    <g
       id="axes_1">
      <g
         id="line2d_12"
         transform="matrix(0.64251867,0,0,0.64012145,272.24315,36.903656)"
         style="stroke-width:1.55929">
        <path
           d="m 196.9695,157.22908 c 0.47906,-7.86017 6.69214,-13.68797 12.15053,-18.68323 16.03702,-13.35112 35.1634,-22.32023 54.37177,-30.11981 C 311.65784,89.6 363.25182,80.700241 414.76587,78.234075 c 39.88338,-1.841981 79.80888,0.857055 119.50996,4.563011 88.73291,8.872928 176.46127,26.785434 262.06026,51.658554 24.05572,7.01465 47.92959,14.63535 71.62841,22.77344"
           style="fill:none;stroke:#0000ff;stroke-width:1.16946;stroke-linecap:square"
           clip-path="url(#p36ec1c1d0d)"
           id="path220" />
      </g>
      <g
         id="line2d_13"
         transform="matrix(0.64251867,0,0,0.64012145,272.24315,36.903656)"
         style="stroke-width:1.55929">
        <path
           d="m 196.9695,157.22908 c -0.0911,6.03037 5.78965,9.56725 10.87504,11.16198 13.16013,3.84111 27.06382,3.45882 40.63724,3.28271 32.14728,-1.00749 64.1346,-4.62263 96.16485,-7.34068 44.85749,-4.22742 89.81247,-7.56804 134.85448,-8.96125 77.5169,-2.91561 155.09871,-4.74877 232.67266,-3.60135 51.96288,0.69743 103.90046,2.65743 155.79073,5.45857"
           style="fill:none;stroke:#ff0000;stroke-width:1.16946;stroke-linecap:square"
           clip-path="url(#p36ec1c1d0d)"
           id="path223" />
      </g>
      <g
         id="line2d_14"
         transform="matrix(0.64251867,0,0,0.64012145,272.24315,36.903656)"
         style="stroke-width:1.55929">
        <path
           d="m 196.9695,157.22908 c 77.87371,-23.36629 158.68937,-37.26363 239.99471,-39.79133 34.53344,-0.97095 69.09442,-0.24062 103.61318,0.95972 109.94339,4.06692 219.51025,17.29037 327.38711,38.83158"
           style="fill:none;stroke:#000000;stroke-width:1.16946;stroke-dasharray:4.32702, 1.87114;stroke-dashoffset:0"
           clip-path="url(#p36ec1c1d0d)"
           id="path226" />
      </g>
      <g
         id="line2d_15"
         transform="matrix(0.64251867,0,0,0.64012145,272.24315,36.903656)"
         style="stroke-width:1.55929">
        <path
           d="m 196.9695,157.22908 c 223.665,0 447.33,0 670.995,0"
           style="fill:none;stroke:#808080;stroke-width:1.55929;stroke-dasharray:9.9794, 2.49487, 1.55929, 2.49487;stroke-dashoffset:0"
           clip-path="url(#p36ec1c1d0d)"
           id="path229" />
      </g>
      <g
         id="legend_1"
         transform="matrix(1.0103754,0,0,1.0104222,-110.05887,-18.441414)"
         style="stroke-width:0.98971">
        <g
           id="patch_7"
           style="stroke-width:0.98971">
          <path
             id="path244"
             style="opacity:0.8;fill:#ffffff;stroke:#cccccc;stroke-width:0.98971;stroke-linejoin:miter"
             d="M 805.32181,106.64481 H 928.064 q 2,0 2,-2 V 46.932311 q 0,-2 -2,-2 H 805.32181 q -2,0 -2,2 v 57.712499 q 0,2 2,2 z" />
        </g>
        <g
           id="line2d_16"
           style="stroke-width:0.98971">
          <path
             id="path247"
             style="fill:none;stroke:#0000ff;stroke-width:0.742279;stroke-linecap:square"
             d="m 807.32181,53.030748 h 20" />
        </g>
        <g
           id="line2d_17"
           style="stroke-width:0.98971" />
        <g
           id="text_12"
           style="stroke-width:0.98971">
          <!-- upper surface -->
          <defs
             id="defs260">
            <path
               id="DejaVuSans-117"
               d="M 8.5,21.578125 V 54.6875 h 8.984375 V 21.921875 q 0,-7.765625 3.015625,-11.65625 3.03125,-3.875 9.09375,-3.875 7.265625,0 11.484375,4.640625 4.234375,4.640625 4.234375,12.65625 v 31 h 8.984375 V 0 H 45.3125 V 8.40625 Q 42.046875,3.421875 37.71875,1 33.40625,-1.421875 27.6875,-1.421875 18.265625,-1.421875 13.375,4.4375 8.5,10.296875 8.5,21.578125 Z M 31.109375,56 Z" />
            <path
               id="DejaVuSans-112"
               d="m 18.109375,8.203125 v -29 H 9.078125 V 54.6875 h 9.03125 v -8.296875 q 2.84375,4.875 7.15625,7.234375 Q 29.59375,56 35.59375,56 q 9.96875,0 16.1875,-7.90625 6.234375,-7.90625 6.234375,-20.796875 0,-12.890625 -6.234375,-20.8125 -6.21875,-7.90625 -16.1875,-7.90625 -6,0 -10.328125,2.375 -4.3125,2.375 -7.15625,7.25 z M 48.6875,27.296875 q 0,9.90625 -4.078125,15.546875 -4.078125,5.640625 -11.203125,5.640625 -7.140625,0 -11.21875,-5.640625 -4.078125,-5.640625 -4.078125,-15.546875 0,-9.90625 4.078125,-15.546875 4.078125,-5.640625 11.21875,-5.640625 7.125,0 11.203125,5.640625 4.078125,5.640625 4.078125,15.546875 z" />
            <path
               id="DejaVuSans-101"
               d="m 56.203125,29.59375 v -4.390625 h -41.3125 q 0.59375,-9.28125 5.59375,-14.140625 5,-4.859375 13.9375,-4.859375 5.171875,0 10.03125,1.265625 4.859375,1.265625 9.65625,3.8125 v -8.5 q -4.84375,-2.046875 -9.921875,-3.125 -5.078125,-1.078125 -10.296875,-1.078125 -13.09375,0 -20.734375,7.609375 -7.640625,7.625 -7.640625,20.625 0,13.421875 7.25,21.296875 Q 20.015625,56 32.328125,56 q 11.03125,0 17.453125,-7.109375 6.421875,-7.09375 6.421875,-19.296875 z m -8.984375,2.640625 q -0.09375,7.359375 -4.125,11.75 -4.03125,4.40625 -10.671875,4.40625 -7.515625,0 -12.03125,-4.25 -4.515625,-4.25 -5.203125,-11.96875 z" />
            <path
               id="DejaVuSans-114"
               d="m 41.109375,46.296875 q -1.515625,0.875 -3.296875,1.28125 Q 36.03125,48 33.890625,48 26.265625,48 22.1875,43.046875 18.109375,38.09375 18.109375,28.8125 V 0 h -9.03125 v 54.6875 h 9.03125 v -8.5 q 2.84375,4.984375 7.375,7.390625 Q 30.03125,56 36.53125,56 q 0.921875,0 2.046875,-0.125 1.125,-0.109375 2.484375,-0.359375 z" />
            <path
               d=""
               id="DejaVuSans-32" />
            <path
               id="DejaVuSans-115"
               d="m 44.28125,53.078125 v -8.5 Q 40.484375,46.53125 36.375,47.5 q -4.09375,0.984375 -8.5,0.984375 -6.6875,0 -10.03125,-2.046875 Q 14.5,44.390625 14.5,40.28125 q 0,-3.125 2.390625,-4.90625 2.390625,-1.78125 9.625,-3.390625 l 3.078125,-0.6875 Q 39.15625,29.25 43.1875,25.515625 47.21875,21.78125 47.21875,15.09375 q 0,-7.625 -6.03125,-12.078125 -6.03125,-4.4375 -16.578125,-4.4375 -4.390625,0 -9.15625,0.859375 Q 10.6875,0.296875 5.421875,2 v 9.28125 q 4.984375,-2.59375 9.8125,-3.890625 4.828125,-1.28125 9.578125,-1.28125 6.34375,0 9.75,2.171875 3.421875,2.171875 3.421875,6.125 0,3.65625 -2.46875,5.609375 -2.453125,1.953125 -10.8125,3.765625 l -3.125,0.734375 q -8.34375,1.75 -12.0625,5.390625 -3.703125,3.640625 -3.703125,9.984375 0,7.71875 5.46875,11.90625 Q 16.75,56 26.8125,56 q 4.96875,0 9.359375,-0.734375 4.40625,-0.71875 8.109375,-2.1875 z" />
            <path
               id="DejaVuSans-102"
               d="M 37.109375,75.984375 V 68.5 h -8.59375 q -4.828125,0 -6.71875,-1.953125 -1.875,-1.953125 -1.875,-7.03125 V 54.6875 H 34.71875 V 47.703125 H 19.921875 V 0 h -9.03125 V 47.703125 H 2.296875 V 54.6875 h 8.59375 V 58.5 q 0,9.125 4.25,13.296875 4.25,4.1875 13.46875,4.1875 z" />
            <path
               id="DejaVuSans-97"
               d="m 34.28125,27.484375 q -10.890625,0 -15.09375,-2.484375 -4.203125,-2.484375 -4.203125,-8.5 0,-4.78125 3.15625,-7.59375 3.15625,-2.796875 8.5625,-2.796875 7.484375,0 12,5.296875 4.515625,5.296875 4.515625,14.078125 v 2 z m 17.921875,3.71875 V 0 H 43.21875 v 8.296875 q -3.078125,-4.96875 -7.671875,-7.34375 -4.59375,-2.375 -11.234375,-2.375 -8.390625,0 -13.359375,4.71875 Q 6,8.015625 6,15.921875 q 0,9.21875 6.171875,13.90625 6.1875,4.6875 18.4375,4.6875 H 43.21875 v 0.890625 q 0,6.203125 -4.078125,9.59375 -4.078125,3.390625 -11.453125,3.390625 -4.6875,0 -9.140625,-1.125 -4.4375,-1.125 -8.53125,-3.375 v 8.3125 q 4.921875,1.90625 9.5625,2.84375 Q 24.21875,56 28.609375,56 q 11.875,0 17.734375,-6.15625 5.859375,-6.140625 5.859375,-18.640625 z" />
            <path
               id="DejaVuSans-99"
               d="M 48.78125,52.59375 V 44.1875 q -3.8125,2.109375 -7.640625,3.15625 -3.828125,1.046875 -7.734375,1.046875 -8.75,0 -13.59375,-5.546875 -4.828125,-5.53125 -4.828125,-15.546875 0,-10.015625 4.828125,-15.5625 4.84375,-5.53125 13.59375,-5.53125 3.90625,0 7.734375,1.046875 3.828125,1.046875 7.640625,3.15625 v -8.3125 q -3.765625,-1.75 -7.796875,-2.625 -4.015625,-0.890625 -8.5625,-0.890625 -12.359375,0 -19.640625,7.765625 -7.265625,7.765625 -7.265625,20.953125 0,13.375 7.34375,21.03125 Q 20.21875,56 33.015625,56 q 4.140625,0 8.09375,-0.859375 3.953125,-0.84375 7.671875,-2.546875 z" />
          </defs>
          <g
             id="g288"
             transform="matrix(0.1,0,0,-0.1,835.32181,56.530748)"
             style="stroke-width:0.98971">
            <use
               height="100%"
               width="100%"
               y="0"
               x="0"
               id="use262"
               xlink:href="#DejaVuSans-117"
               style="stroke-width:0.98971" />
            <use
               height="100%"
               width="100%"
               y="0"
               id="use264"
               xlink:href="#DejaVuSans-112"
               x="63.378906"
               style="stroke-width:0.98971" />
            <use
               height="100%"
               width="100%"
               y="0"
               id="use266"
               xlink:href="#DejaVuSans-112"
               x="126.85547"
               style="stroke-width:0.98971" />
            <use
               height="100%"
               width="100%"
               y="0"
               id="use268"
               xlink:href="#DejaVuSans-101"
               x="190.33203"
               style="stroke-width:0.98971" />
            <use
               height="100%"
               width="100%"
               y="0"
               id="use270"
               xlink:href="#DejaVuSans-114"
               x="251.85547"
               style="stroke-width:0.98971" />
            <use
               height="100%"
               width="100%"
               y="0"
               id="use272"
               xlink:href="#DejaVuSans-32"
               x="292.96875"
               style="stroke-width:0.98971" />
            <use
               height="100%"
               width="100%"
               y="0"
               id="use274"
               xlink:href="#DejaVuSans-115"
               x="324.75586"
               style="stroke-width:0.98971" />
            <use
               height="100%"
               width="100%"
               y="0"
               id="use276"
               xlink:href="#DejaVuSans-117"
               x="376.85547"
               style="stroke-width:0.98971" />
            <use
               height="100%"
               width="100%"
               y="0"
               id="use278"
               xlink:href="#DejaVuSans-114"
               x="440.23438"
               style="stroke-width:0.98971" />
            <use
               height="100%"
               width="100%"
               y="0"
               id="use280"
               xlink:href="#DejaVuSans-102"
               x="481.34766"
               style="stroke-width:0.98971" />
            <use
               height="100%"
               width="100%"
               y="0"
               id="use282"
               xlink:href="#DejaVuSans-97"
               x="516.55273"
               style="stroke-width:0.98971" />
            <use
               height="100%"
               width="100%"
               y="0"
               id="use284"
               xlink:href="#DejaVuSans-99"
               x="577.83203"
               style="stroke-width:0.98971" />
            <use
               height="100%"
               width="100%"
               y="0"
               id="use286"
               xlink:href="#DejaVuSans-101"
               x="632.8125"
               style="stroke-width:0.98971" />
          </g>
        </g>
        <g
           id="line2d_18"
           style="stroke-width:0.98971">
          <path
             id="path291"
             style="fill:none;stroke:#ff0000;stroke-width:0.742279;stroke-linecap:square"
             d="m 807.32181,67.708873 h 20" />
        </g>
        <g
           id="line2d_19"
           style="stroke-width:0.98971" />
        <g
           id="text_13"
           style="stroke-width:0.98971">
          <!-- lower surface -->
          <defs
             id="defs298">
            <path
               id="DejaVuSans-108"
               d="M 9.421875,75.984375 H 18.40625 V 0 H 9.421875 Z" />
            <path
               id="DejaVuSans-111"
               d="m 30.609375,48.390625 q -7.21875,0 -11.421875,-5.640625 -4.203125,-5.640625 -4.203125,-15.453125 0,-9.8125 4.171875,-15.453125 4.1875,-5.640625 11.453125,-5.640625 7.1875,0 11.375,5.65625 4.203125,5.671875 4.203125,15.4375 0,9.71875 -4.203125,15.40625 -4.1875,5.6875 -11.375,5.6875 z m 0,7.609375 q 11.71875,0 18.40625,-7.625 6.703125,-7.609375 6.703125,-21.078125 0,-13.421875 -6.703125,-21.078125 -6.6875,-7.640625 -18.40625,-7.640625 -11.765625,0 -18.4375,7.640625 -6.65625,7.65625 -6.65625,21.078125 0,13.46875 6.65625,21.078125 Q 18.84375,56 30.609375,56 Z" />
            <path
               id="DejaVuSans-119"
               d="M 4.203125,54.6875 H 13.1875 L 24.421875,12.015625 35.59375,54.6875 H 46.1875 L 57.421875,12.015625 68.609375,54.6875 H 77.59375 L 63.28125,0 H 52.6875 L 40.921875,44.828125 29.109375,0 H 18.5 Z" />
          </defs>
          <g
             id="g326"
             transform="matrix(0.1,0,0,-0.1,835.32181,71.208873)"
             style="stroke-width:0.98971">
            <use
               height="100%"
               width="100%"
               y="0"
               x="0"
               id="use300"
               xlink:href="#DejaVuSans-108"
               style="stroke-width:0.98971" />
            <use
               height="100%"
               width="100%"
               y="0"
               id="use302"
               xlink:href="#DejaVuSans-111"
               x="27.783203"
               style="stroke-width:0.98971" />
            <use
               height="100%"
               width="100%"
               y="0"
               id="use304"
               xlink:href="#DejaVuSans-119"
               x="88.964844"
               style="stroke-width:0.98971" />
            <use
               height="100%"
               width="100%"
               y="0"
               id="use306"
               xlink:href="#DejaVuSans-101"
               x="170.75195"
               style="stroke-width:0.98971" />
            <use
               height="100%"
               width="100%"
               y="0"
               id="use308"
               xlink:href="#DejaVuSans-114"
               x="232.27539"
               style="stroke-width:0.98971" />
            <use
               height="100%"
               width="100%"
               y="0"
               id="use310"
               xlink:href="#DejaVuSans-32"
               x="273.38867"
               style="stroke-width:0.98971" />
            <use
               height="100%"
               width="100%"
               y="0"
               id="use312"
               xlink:href="#DejaVuSans-115"
               x="305.17578"
               style="stroke-width:0.98971" />
            <use
               height="100%"
               width="100%"
               y="0"
               id="use314"
               xlink:href="#DejaVuSans-117"
               x="357.27539"
               style="stroke-width:0.98971" />
            <use
               height="100%"
               width="100%"
               y="0"
               id="use316"
               xlink:href="#DejaVuSans-114"
               x="420.6543"
               style="stroke-width:0.98971" />
            <use
               height="100%"
               width="100%"
               y="0"
               id="use318"
               xlink:href="#DejaVuSans-102"
               x="461.76758"
               style="stroke-width:0.98971" />
            <use
               height="100%"
               width="100%"
               y="0"
               id="use320"
               xlink:href="#DejaVuSans-97"
               x="496.97266"
               style="stroke-width:0.98971" />
            <use
               height="100%"
               width="100%"
               y="0"
               id="use322"
               xlink:href="#DejaVuSans-99"
               x="558.25195"
               style="stroke-width:0.98971" />
            <use
               height="100%"
               width="100%"
               y="0"
               id="use324"
               xlink:href="#DejaVuSans-101"
               x="613.23242"
               style="stroke-width:0.98971" />
          </g>
        </g>
        <g
           id="line2d_20"
           style="stroke-width:0.98971">
          <path
             id="path329"
             style="fill:none;stroke:#000000;stroke-width:0.742279;stroke-dasharray:2.74644, 1.18765;stroke-dashoffset:0"
             d="m 807.32181,82.386998 h 20" />
        </g>
        <g
           id="line2d_21"
           style="stroke-width:0.98971" />
        <g
           id="text_14"
           style="stroke-width:0.98971">
          <!-- mean camber line -->
          <defs
             id="defs337">
            <path
               id="DejaVuSans-109"
               d="M 52,44.1875 Q 55.375,50.25 60.0625,53.125 64.75,56 71.09375,56 q 8.546875,0 13.1875,-5.984375 4.640625,-5.96875 4.640625,-17 V 0 h -9.03125 v 32.71875 q 0,7.859375 -2.796875,11.65625 -2.78125,3.8125 -8.484375,3.8125 -6.984375,0 -11.046875,-4.640625 -4.046875,-4.625 -4.046875,-12.640625 V 0 h -9.03125 v 32.71875 q 0,7.90625 -2.78125,11.6875 -2.78125,3.78125 -8.59375,3.78125 -6.890625,0 -10.953125,-4.65625 -4.046875,-4.65625 -4.046875,-12.625 V 0 h -9.03125 v 54.6875 h 9.03125 v -8.5 q 3.078125,5.03125 7.375,7.421875 Q 29.78125,56 35.6875,56 41.65625,56 45.828125,52.96875 50,49.953125 52,44.1875 Z" />
            <path
               id="DejaVuSans-110"
               d="M 54.890625,33.015625 V 0 H 45.90625 v 32.71875 q 0,7.765625 -3.03125,11.609375 -3.03125,3.859375 -9.078125,3.859375 -7.28125,0 -11.484375,-4.640625 -4.203125,-4.625 -4.203125,-12.640625 V 0 h -9.03125 v 54.6875 h 9.03125 v -8.5 q 3.234375,4.9375 7.59375,7.375 4.375,2.4375 10.09375,2.4375 9.421875,0 14.25,-5.828125 4.84375,-5.828125 4.84375,-17.15625 z" />
            <path
               id="DejaVuSans-98"
               d="m 48.6875,27.296875 q 0,9.90625 -4.078125,15.546875 -4.078125,5.640625 -11.203125,5.640625 -7.140625,0 -11.21875,-5.640625 -4.078125,-5.640625 -4.078125,-15.546875 0,-9.90625 4.078125,-15.546875 4.078125,-5.640625 11.21875,-5.640625 7.125,0 11.203125,5.640625 4.078125,5.640625 4.078125,15.546875 z m -30.578125,19.09375 q 2.84375,4.875 7.15625,7.234375 Q 29.59375,56 35.59375,56 q 9.96875,0 16.1875,-7.90625 6.234375,-7.90625 6.234375,-20.796875 0,-12.890625 -6.234375,-20.8125 -6.21875,-7.90625 -16.1875,-7.90625 -6,0 -10.328125,2.375 -4.3125,2.375 -7.15625,7.25 V 0 h -9.03125 v 75.984375 h 9.03125 z" />
            <path
               id="DejaVuSans-105"
               d="M 9.421875,54.6875 H 18.40625 V 0 H 9.421875 Z m 0,21.296875 H 18.40625 V 64.59375 H 9.421875 Z" />
          </defs>
          <g
             id="g371"
             transform="matrix(0.1,0,0,-0.1,835.32181,85.886998)"
             style="stroke-width:0.98971">
            <use
               height="100%"
               width="100%"
               y="0"
               x="0"
               id="use339"
               xlink:href="#DejaVuSans-109"
               style="stroke-width:0.98971" />
            <use
               height="100%"
               width="100%"
               y="0"
               id="use341"
               xlink:href="#DejaVuSans-101"
               x="97.412109"
               style="stroke-width:0.98971" />
            <use
               height="100%"
               width="100%"
               y="0"
               id="use343"
               xlink:href="#DejaVuSans-97"
               x="158.93555"
               style="stroke-width:0.98971" />
            <use
               height="100%"
               width="100%"
               y="0"
               id="use345"
               xlink:href="#DejaVuSans-110"
               x="220.21484"
               style="stroke-width:0.98971" />
            <use
               height="100%"
               width="100%"
               y="0"
               id="use347"
               xlink:href="#DejaVuSans-32"
               x="283.59375"
               style="stroke-width:0.98971" />
            <use
               height="100%"
               width="100%"
               y="0"
               id="use349"
               xlink:href="#DejaVuSans-99"
               x="315.38086"
               style="stroke-width:0.98971" />
            <use
               height="100%"
               width="100%"
               y="0"
               id="use351"
               xlink:href="#DejaVuSans-97"
               x="370.36133"
               style="stroke-width:0.98971" />
            <use
               height="100%"
               width="100%"
               y="0"
               id="use353"
               xlink:href="#DejaVuSans-109"
               x="431.64062"
               style="stroke-width:0.98971" />
            <use
               height="100%"
               width="100%"
               y="0"
               id="use355"
               xlink:href="#DejaVuSans-98"
               x="529.05273"
               style="stroke-width:0.98971" />
            <use
               height="100%"
               width="100%"
               y="0"
               id="use357"
               xlink:href="#DejaVuSans-101"
               x="592.5293"
               style="stroke-width:0.98971" />
            <use
               height="100%"
               width="100%"
               y="0"
               id="use359"
               xlink:href="#DejaVuSans-114"
               x="654.05273"
               style="stroke-width:0.98971" />
            <use
               height="100%"
               width="100%"
               y="0"
               id="use361"
               xlink:href="#DejaVuSans-32"
               x="695.16602"
               style="stroke-width:0.98971" />
            <use
               height="100%"
               width="100%"
               y="0"
               id="use363"
               xlink:href="#DejaVuSans-108"
               x="726.95312"
               style="stroke-width:0.98971" />
            <use
               height="100%"
               width="100%"
               y="0"
               id="use365"
               xlink:href="#DejaVuSans-105"
               x="754.73633"
               style="stroke-width:0.98971" />
            <use
               height="100%"
               width="100%"
               y="0"
               id="use367"
               xlink:href="#DejaVuSans-110"
               x="782.51953"
               style="stroke-width:0.98971" />
            <use
               height="100%"
               width="100%"
               y="0"
               id="use369"
               xlink:href="#DejaVuSans-101"
               x="845.89844"
               style="stroke-width:0.98971" />
          </g>
        </g>
        <g
           id="line2d_22"
           style="stroke-width:0.98971">
          <path
             id="path374"
             style="fill:none;stroke:#808080;stroke-width:0.98971;stroke-dasharray:6.33411, 1.58354, 0.98971, 1.58354;stroke-dashoffset:0"
             d="m 807.32181,97.065123 h 20" />
        </g>
        <g
           id="line2d_23"
           style="stroke-width:0.98971" />
        <g
           id="text_15"
           style="stroke-width:0.98971">
          <!-- chord -->
          <defs
             id="defs380">
            <path
               id="DejaVuSans-104"
               d="M 54.890625,33.015625 V 0 H 45.90625 v 32.71875 q 0,7.765625 -3.03125,11.609375 -3.03125,3.859375 -9.078125,3.859375 -7.28125,0 -11.484375,-4.640625 -4.203125,-4.625 -4.203125,-12.640625 V 0 h -9.03125 v 75.984375 h 9.03125 V 46.1875 q 3.234375,4.9375 7.59375,7.375 4.375,2.4375 10.09375,2.4375 9.421875,0 14.25,-5.828125 4.84375,-5.828125 4.84375,-17.15625 z" />
            <path
               id="DejaVuSans-100"
               d="m 45.40625,46.390625 v 29.59375 h 8.984375 V 0 H 45.40625 v 8.203125 q -2.828125,-4.875 -7.15625,-7.25 -4.3125,-2.375 -10.375,-2.375 -9.90625,0 -16.140625,7.90625 -6.21875,7.921875 -6.21875,20.8125 0,12.890625 6.21875,20.796875 Q 17.96875,56 27.875,56 q 6.0625,0 10.375,-2.375 4.328125,-2.359375 7.15625,-7.234375 z M 14.796875,27.296875 q 0,-9.90625 4.078125,-15.546875 4.078125,-5.640625 11.203125,-5.640625 7.125,0 11.21875,5.640625 4.109375,5.640625 4.109375,15.546875 0,9.90625 -4.109375,15.546875 -4.09375,5.640625 -11.21875,5.640625 -7.125,0 -11.203125,-5.640625 -4.078125,-5.640625 -4.078125,-15.546875 z" />
          </defs>
          <g
             id="g392"
             transform="matrix(0.1,0,0,-0.1,835.32181,100.56512)"
             style="stroke-width:0.98971">
            <use
               height="100%"
               width="100%"
               y="0"
               x="0"
               id="use382"
               xlink:href="#DejaVuSans-99"
               style="stroke-width:0.98971" />
            <use
               height="100%"
               width="100%"
               y="0"
               id="use384"
               xlink:href="#DejaVuSans-104"
               x="54.980469"
               style="stroke-width:0.98971" />
            <use
               height="100%"
               width="100%"
               y="0"
               id="use386"
               xlink:href="#DejaVuSans-111"
               x="118.35938"
               style="stroke-width:0.98971" />
            <use
               height="100%"
               width="100%"
               y="0"
               id="use388"
               xlink:href="#DejaVuSans-114"
               x="179.54102"
               style="stroke-width:0.98971" />
            <use
               height="100%"
               width="100%"
               y="0"
               id="use390"
               xlink:href="#DejaVuSans-100"
               x="218.9043"
               style="stroke-width:0.98971" />
          </g>
        </g>
      </g>
    </g>
  </g>
  <defs
     id="defs401">
    <clipPath
       id="p36ec1c1d0d">
      <rect
         id="rect398"
         y="39.932312"
         x="129.87"
         width="805.19397"
         height="169.56497" />
    </clipPath>
  </defs>
</svg>
