<?xml version="1.0" encoding="UTF-8" standalone="no"?>
<svg
   xmlns:dc="http://purl.org/dc/elements/1.1/"
   xmlns:cc="http://creativecommons.org/ns#"
   xmlns:rdf="http://www.w3.org/1999/02/22-rdf-syntax-ns#"
   xmlns:svg="http://www.w3.org/2000/svg"
   xmlns="http://www.w3.org/2000/svg"
   xmlns:xlink="http://www.w3.org/1999/xlink"
   xmlns:sodipodi="http://sodipodi.sourceforge.net/DTD/sodipodi-0.dtd"
   xmlns:inkscape="http://www.inkscape.org/namespaces/inkscape"
   height="157.69673pt"
   version="1.1"
   viewBox="0 0 439.19813 157.69673"
   width="439.19812pt"
   id="svg96"
   sodipodi:docname="vario_gnss_bias.svg"
   inkscape:version="1.0 (4035a4fb49, 2020-05-01)">
  <metadata
     id="metadata100">
    <rdf:RDF>
      <cc:Work
         rdf:about="">
        <dc:format>image/svg+xml</dc:format>
        <dc:type
           rdf:resource="http://purl.org/dc/dcmitype/StillImage" />
      </cc:Work>
    </rdf:RDF>
  </metadata>
  <sodipodi:namedview
     inkscape:document-rotation="0"
     pagecolor="#ffffff"
     bordercolor="#666666"
     borderopacity="1"
     objecttolerance="10"
     gridtolerance="10"
     guidetolerance="10"
     inkscape:pageopacity="0"
     inkscape:pageshadow="2"
     inkscape:window-width="2560"
     inkscape:window-height="1376"
     id="namedview98"
     showgrid="false"
     inkscape:zoom="1.7402398"
     inkscape:cx="320.08015"
     inkscape:cy="35.135608"
     inkscape:window-x="0"
     inkscape:window-y="27"
     inkscape:window-maximized="1"
     inkscape:current-layer="axes_1" />
  <defs
     id="defs4">
    <marker
       inkscape:isstock="true"
       style="overflow:visible;"
       id="Arrow1Mend"
       refX="0.0"
       refY="0.0"
       orient="auto"
       inkscape:stockid="Arrow1Mend">
      <path
         transform="scale(0.4) rotate(180) translate(10,0)"
         style="fill-rule:evenodd;stroke:#000000;stroke-width:1pt;stroke-opacity:1;fill:#000000;fill-opacity:1"
         d="M 0.0,0.0 L 5.0,-5.0 L -12.5,0.0 L 5.0,5.0 L 0.0,0.0 z "
         id="path894" />
    </marker>
    <marker
       inkscape:isstock="true"
       style="overflow:visible"
       id="Arrow1Mstart"
       refX="0.0"
       refY="0.0"
       orient="auto"
       inkscape:stockid="Arrow1Mstart">
      <path
         transform="scale(0.4) translate(10,0)"
         style="fill-rule:evenodd;stroke:#000000;stroke-width:1pt;stroke-opacity:1;fill:#000000;fill-opacity:1"
         d="M 0.0,0.0 L 5.0,-5.0 L -12.5,0.0 L 5.0,5.0 L 0.0,0.0 z "
         id="path891" />
    </marker>
    <marker
       inkscape:isstock="true"
       style="overflow:visible"
       id="Arrow1Lstart"
       refX="0.0"
       refY="0.0"
       orient="auto"
       inkscape:stockid="Arrow1Lstart">
      <path
         transform="scale(0.8) translate(12.5,0)"
         style="fill-rule:evenodd;stroke:#000000;stroke-width:1pt;stroke-opacity:1;fill:#000000;fill-opacity:1"
         d="M 0.0,0.0 L 5.0,-5.0 L -12.5,0.0 L 5.0,5.0 L 0.0,0.0 z "
         id="path885" />
    </marker>
    <style
       type="text/css"
       id="style2">
*{stroke-linecap:butt;stroke-linejoin:round;}
  </style>
  </defs>
  <g
     id="axes_1"
     transform="translate(-11.201876,-174.7639)">
    <g
       id="matplotlib.axis_1">
      <g
         id="xtick_1" />
      <g
         id="xtick_2" />
      <g
         id="xtick_3" />
      <g
         id="xtick_4" />
      <g
         id="xtick_5" />
      <g
         id="xtick_6" />
      <g
         id="xtick_7" />
      <g
         id="text_1">
        <!-- Time -->
        <defs
           id="defs23">
          <path
             id="DejaVuSans-84"
             d="M -0.296875,72.90625 H 61.375 v -8.3125 H 35.5 V 0 H 25.59375 V 64.59375 H -0.296875 Z" />
          <path
             id="DejaVuSans-105"
             d="M 9.421875,54.6875 H 18.40625 V 0 H 9.421875 Z m 0,21.296875 H 18.40625 V 64.59375 H 9.421875 Z" />
          <path
             id="DejaVuSans-109"
             d="M 52,44.1875 Q 55.375,50.25 60.0625,53.125 64.75,56 71.09375,56 q 8.546875,0 13.1875,-5.984375 4.640625,-5.96875 4.640625,-17 V 0 h -9.03125 v 32.71875 q 0,7.859375 -2.796875,11.65625 -2.78125,3.8125 -8.484375,3.8125 -6.984375,0 -11.046875,-4.640625 -4.046875,-4.625 -4.046875,-12.640625 V 0 h -9.03125 v 32.71875 q 0,7.90625 -2.78125,11.6875 -2.78125,3.78125 -8.59375,3.78125 -6.890625,0 -10.953125,-4.65625 -4.046875,-4.65625 -4.046875,-12.625 V 0 h -9.03125 v 54.6875 h 9.03125 v -8.5 q 3.078125,5.03125 7.375,7.421875 Q 29.78125,56 35.6875,56 41.65625,56 45.828125,52.96875 50,49.953125 52,44.1875 Z" />
          <path
             id="DejaVuSans-101"
             d="m 56.203125,29.59375 v -4.390625 h -41.3125 q 0.59375,-9.28125 5.59375,-14.140625 5,-4.859375 13.9375,-4.859375 5.171875,0 10.03125,1.265625 4.859375,1.265625 9.65625,3.8125 v -8.5 q -4.84375,-2.046875 -9.921875,-3.125 -5.078125,-1.078125 -10.296875,-1.078125 -13.09375,0 -20.734375,7.609375 -7.640625,7.625 -7.640625,20.625 0,13.421875 7.25,21.296875 Q 20.015625,56 32.328125,56 q 11.03125,0 17.453125,-7.109375 6.421875,-7.09375 6.421875,-19.296875 z m -8.984375,2.640625 q -0.09375,7.359375 -4.125,11.75 -4.03125,4.40625 -10.671875,4.40625 -7.515625,0 -12.03125,-4.25 -4.515625,-4.25 -5.203125,-11.96875 z" />
        </defs>
        <g
           id="g33"
           transform="matrix(0.1,0,0,-0.1,225.20641,332.31844)">
          <use
             height="100%"
             width="100%"
             y="0"
             x="0"
             id="use25"
             xlink:href="#DejaVuSans-84" />
          <use
             height="100%"
             width="100%"
             y="0"
             id="use27"
             xlink:href="#DejaVuSans-105"
             x="57.958984" />
          <use
             height="100%"
             width="100%"
             y="0"
             id="use29"
             xlink:href="#DejaVuSans-109"
             x="85.742188" />
          <use
             height="100%"
             width="100%"
             y="0"
             id="use31"
             xlink:href="#DejaVuSans-101"
             x="183.1543" />
        </g>
      </g>
    </g>
    <g
       id="matplotlib.axis_2"
       transform="translate(0,87.553097)">
      <g
         id="ytick_1" />
      <g
         id="ytick_2" />
      <g
         id="ytick_3" />
      <g
         id="ytick_4" />
      <g
         id="ytick_5" />
      <g
         id="ytick_6" />
      <g
         id="ytick_7" />
      <g
         id="text_2">
        <!-- Altitude -->
        <defs
           id="defs49">
          <path
             id="DejaVuSans-65"
             d="M 34.1875,63.1875 20.796875,26.90625 h 26.8125 z m -5.578125,9.71875 h 11.1875 L 67.578125,0 h -10.25 L 50.6875,18.703125 H 17.828125 L 11.1875,0 H 0.78125 Z" />
          <path
             id="DejaVuSans-108"
             d="M 9.421875,75.984375 H 18.40625 V 0 H 9.421875 Z" />
          <path
             id="DejaVuSans-116"
             d="M 18.3125,70.21875 V 54.6875 h 18.5 v -6.984375 h -18.5 v -29.6875 q 0,-6.6875 1.828125,-8.59375 1.828125,-1.90625 7.453125,-1.90625 H 36.8125 V 0 H 27.59375 Q 17.1875,0 13.234375,3.875 9.28125,7.765625 9.28125,18.015625 v 29.6875 H 2.6875 V 54.6875 h 6.59375 v 15.53125 z" />
          <path
             id="DejaVuSans-117"
             d="M 8.5,21.578125 V 54.6875 h 8.984375 V 21.921875 q 0,-7.765625 3.015625,-11.65625 3.03125,-3.875 9.09375,-3.875 7.265625,0 11.484375,4.640625 4.234375,4.640625 4.234375,12.65625 v 31 h 8.984375 V 0 H 45.3125 V 8.40625 Q 42.046875,3.421875 37.71875,1 33.40625,-1.421875 27.6875,-1.421875 18.265625,-1.421875 13.375,4.4375 8.5,10.296875 8.5,21.578125 Z M 31.109375,56 Z" />
          <path
             id="DejaVuSans-100"
             d="m 45.40625,46.390625 v 29.59375 h 8.984375 V 0 H 45.40625 v 8.203125 q -2.828125,-4.875 -7.15625,-7.25 -4.3125,-2.375 -10.375,-2.375 -9.90625,0 -16.140625,7.90625 -6.21875,7.921875 -6.21875,20.8125 0,12.890625 6.21875,20.796875 Q 17.96875,56 27.875,56 q 6.0625,0 10.375,-2.375 4.328125,-2.359375 7.15625,-7.234375 z M 14.796875,27.296875 q 0,-9.90625 4.078125,-15.546875 4.078125,-5.640625 11.203125,-5.640625 7.125,0 11.21875,5.640625 4.109375,5.640625 4.109375,15.546875 0,9.90625 -4.109375,15.546875 -4.09375,5.640625 -11.21875,5.640625 -7.125,0 -11.203125,-5.640625 -4.078125,-5.640625 -4.078125,-15.546875 z" />
        </defs>
        <g
           id="g67"
           transform="matrix(0,-0.1,-0.1,0,18.800313,185.29828)">
          <use
             height="100%"
             width="100%"
             y="0"
             x="0"
             id="use51"
             xlink:href="#DejaVuSans-65" />
          <use
             height="100%"
             width="100%"
             y="0"
             id="use53"
             xlink:href="#DejaVuSans-108"
             x="68.408203" />
          <use
             height="100%"
             width="100%"
             y="0"
             id="use55"
             xlink:href="#DejaVuSans-116"
             x="96.191406" />
          <use
             height="100%"
             width="100%"
             y="0"
             id="use57"
             xlink:href="#DejaVuSans-105"
             x="135.40039" />
          <use
             height="100%"
             width="100%"
             y="0"
             id="use59"
             xlink:href="#DejaVuSans-116"
             x="163.18359" />
          <use
             height="100%"
             width="100%"
             y="0"
             id="use61"
             xlink:href="#DejaVuSans-117"
             x="202.39258" />
          <use
             height="100%"
             width="100%"
             y="0"
             id="use63"
             xlink:href="#DejaVuSans-100"
             x="265.77148" />
          <use
             height="100%"
             width="100%"
             y="0"
             id="use65"
             xlink:href="#DejaVuSans-101"
             x="329.24805" />
        </g>
      </g>
    </g>
    <g
       id="line2d_1"
       transform="matrix(1.85108,0,0,0.8592673,-263.53267,104.42784)"
       style="stroke-width:0.594682;stroke-miterlimit:4;stroke-dasharray:none">
      <path
         d="m 162.64749,196.86177 c 1.34211,2.8702 1.4289,6.10273 2.14891,9.15471 0.65204,3.18503 1.55842,6.31452 2.03057,9.54175 0.67609,4.64319 1.19798,9.31101 2.23905,13.8949 0.7099,1.71769 0.24194,5.19136 1.49686,5.96678 0.3135,-2.03152 1.11744,1.15895 1.90628,1.42084 0.9055,1.02315 1.21528,3.4645 2.41354,3.58836 1.17485,-1.89296 1.06961,-4.46666 2.14105,-6.50155 0.46135,-2.59314 1.79181,-4.71961 2.62,-7.17557 0.85183,-3.51543 2.17863,-6.91647 3.62714,-10.21483 1.75623,1.06769 1.22147,-3.25483 3.05378,-1.99199 1.04636,-0.26171 2.03633,-0.8483 2.2717,-1.63568 1.23281,2.51778 1.44705,-2.58319 1.75603,-3.60701 0.70193,-1.81994 2.0527,-3.17208 2.22612,-5.31012 0.76436,-2.5567 2.34564,-4.67127 2.53812,-7.44465 0.61123,-2.47447 2.30388,-4.48142 2.29586,-7.17781 0.73145,-4.33828 2.03749,-8.56244 2.72644,-12.91816 0.51754,-2.36743 1.05827,-4.76668 2.40978,-6.81202 1.28786,-2.39464 0.93426,-5.24189 1.91786,-7.73785 0.53621,-2.16332 1.8639,-4.09939 2.10819,-6.3832 0.84609,-3.88618 1.73497,-7.7666 2.96299,-11.54523 0.55916,-2.72442 1.52983,-5.32253 2.54743,-7.89503 0.87787,-2.22091 2.00511,-4.34947 2.96538,-6.54283 1.63106,-1.03564 1.83206,-3.43972 3.65219,-3.95435 0.52417,-1.14478 2.35539,1.54447 3.12166,-0.69018 1.60323,-0.39318 2.08523,1.20071 2.426,2.77818 0.63289,1.58458 0.66575,3.33104 1.48016,4.83282 0.22433,1.8293 1.28178,3.26913 1.8779,4.96963 1.05607,2.54423 1.80596,5.3281 2.92718,7.74847 1.53121,4.26564 2.25132,8.77309 3.44798,13.12155 1.02474,2.91911 1.42858,6.14689 3.02867,8.87586 1.04111,2.58419 1.41407,5.41551 2.05871,8.12511 0.45205,2.48299 0.95116,5.00692 1.69845,7.40205 0.22958,1.79849 0.69128,2.97088 2.35609,2.37382 0.60357,0.91317 0.47663,2.64803 1.31916,2.60493 0.42925,1.21145 1.12151,-2.0009 1.3814,0.10311 1.1356,3.0159 1.41414,6.31283 2.77663,9.25856 0.75494,2.09353 0.97665,5.74384 1.79288,6.93535 -0.11025,-1.73704 1.54025,-2.24827 1.77057,-0.33062 1.87531,1.21697 1.40021,-2.5641 2.25241,-3.76334 0.63772,-1.64127 0.90791,-3.4579 1.72576,-4.16985 0.40665,-1.68035 1.05565,-2.81428 2.1344,-3.85029 1.01999,-1.52579 0.99703,-3.51336 2.76754,-4.46873 0.31431,-1.23461 1.83749,-1.46387 1.5949,-3.20122 0.91425,-3.20193 1.64386,-6.43913 2.53698,-9.63931 1.40787,-7.64999 2.57425,-15.34185 4.05682,-22.97831 0.97656,-2.69148 1.45741,0.27485 1.76229,1.57852 0.50959,-1.49565 0.514,-4.66743 1.42395,-5.07518 0.24649,1.02131 0.64018,3.11287 0.94725,0.96454 0.31329,-1.19383 1.04377,-4.5062 2.36349,-3.61757 1.22826,1.9134 2.37737,3.52756 2.80357,5.93222 0.59775,1.49734 0.40424,4.18969 1.64305,4.93349 0.9313,-1.90146 1.89555,-0.47708 2.12862,1.01527 2.11802,-1.94349 1.53052,2.72629 2.4575,3.84073 0.36959,1.80528 1.60958,2.65273 2.66528,0.8593 0.84625,1.35302 0.7907,3.63987 1.58716,4.90159 1.46327,1.77455 1.50814,4.41319 2.27238,6.58773 1.17605,4.08851 1.84013,8.34502 2.25826,12.58915 0.29434,2.00519 1.71726,3.5755 2.13403,5.51927 0.72412,0.91899 1.57761,3.65267 2.16592,3.51659 1.06411,0.1357 1.58808,2.708 3.36596,1.84446 0.91759,1.05086 0.93776,3.81393 2.6219,2.05481 0.61333,-1.63458 1.44475,-3.07172 2.06371,-4.78956 1.58025,-1.39666 2.63411,-3.11244 3.19217,-5.28243 0.50645,-1.62155 1.30224,-2.5772 2.81449,-2.58175 0.95231,-1.87701 1.86316,-3.70743 2.42248,-5.94782 0.49612,-1.85525 2.49561,-1.75694 2.62972,-3.98837 0.57373,-1.18602 0.59638,-2.95046 1.59441,-3.00638 0.69568,-2.21397 1.39649,-4.41572 2.1632,-6.60968 1.50056,-0.89964 1.4806,-3.43365 2.26449,-5.04506 1.0022,-1.06355 3.02449,-2.51689 2.93119,-4.75592 0.16249,-1.09243 1.13912,-2.39009 1.59562,-1.64729 0.30318,-1.13447 0.75455,-3.07099 0.97892,-0.76608 0.57698,1.25471 1.54823,-0.86428 1.92417,1.09135 1.38671,1.53581 1.23902,3.71037 1.83909,5.5866 1.14842,4.92381 1.28636,10.01584 2.59322,14.90924 1.01105,4.34731 1.20238,8.83772 2.44661,13.13817 0.69377,2.54007 0.96244,5.22427 2.08451,7.60747 1.12252,6.14689 2.28355,12.2988 3.49243,18.43407 -0.12588,1.4302 1.2654,2.19732 1.06205,0.33378 0.4257,-1.16406 1.02452,-3.73209 1.39154,-3.95183 0.60789,1.05676 1.33402,2.16991 1.58989,0.3656 1.61272,-3.57955 2.07967,-7.53328 3.32182,-11.24203 0.74882,-2.6285 1.53431,-5.29637 2.64387,-7.75327 0.91903,-2.20161 1.34573,-4.66018 2.56111,-6.72893 1.21416,-1.74161 1.572,-3.88011 2.47434,-5.77971 0.44254,-2.05267 2.13154,-2.73559 2.92193,-4.40531 0.41385,-1.35548 1.43567,-2.26649 2.38322,-0.97806 0.19119,-1.64737 1.20161,-1.81631 2.14422,-2.92747 0.71121,0.2526 0.8994,-1.10261 0.99088,0.62182 0.98636,0.37572 1.08613,2.04177 2.37598,1.56692 1.22863,1.76691 1.32146,-2.67037 1.91604,-3.65283 0.8366,-1.29776 0.91121,-3.83911 2.51257,-4.76661 1.31917,-1.48479 0.87572,-4.20455 1.7426,-5.52473 1.38645,-1.62252 1.25852,-4.11695 1.91411,-6.12385 0.65205,-2.93705 1.46458,-5.84447 2.33577,-8.71571 0.50656,-1.09516 0.36645,-2.42849 0.95081,-3.5279"
         style="fill:none;stroke:#1f77b4;stroke-width:0.594682;stroke-linecap:square;stroke-miterlimit:4;stroke-dasharray:none"
         clip-path="url(#pe2c94bca5b)"
         id="path71" />
    </g>
    <g
       id="line2d_2"
       transform="matrix(1.85108,0,0,0.8592673,-263.53267,104.42784)"
       style="stroke-width:0.792909">
      <path
         d="m 162.64749,168.07739 c 1.48831,3.3272 1.52728,7.05867 2.44516,10.55045 1.00415,4.79736 2.08926,9.58149 2.57064,14.46559 0.68152,4.41628 1.62955,8.78389 2.28031,13.20592 -0.0301,1.32874 0.59928,1.27613 1.22533,0.72646 0.78678,1.92974 2.5105,3.30254 3.19142,5.41544 0.97024,1.7277 1.19042,-2.06575 1.56617,-2.91927 1.27005,-2.04588 1.36267,-4.70591 2.33973,-6.73467 1.33335,-2.18573 1.76258,-4.80583 2.50157,-7.23857 0.81055,-2.22525 1.5707,-4.55641 2.70363,-6.60963 1.42897,0.59101 1.20286,-3.39175 3.47488,-2.72761 0.7288,-0.52066 1.16501,0.19462 1.76893,-0.96784 1.10424,1.91055 1.33523,-2.21813 1.61878,-3.03406 0.55902,-2.21122 1.76776,-3.15603 2.15989,-5.52759 0.28612,-1.90922 1.27523,-3.5096 2.01316,-5.22348 0.69181,-2.24643 0.71025,-4.84356 2.14358,-6.69152 0.85871,-2.51635 0.8356,-5.23296 1.69,-7.74681 1.07975,-3.86699 1.55518,-7.8627 2.4791,-11.76222 0.58966,-2.65304 2.5752,-4.81305 2.70752,-7.58135 0.3356,-2.71123 1.00532,-5.34115 2.2337,-7.76037 1.24993,-5.17095 2.31347,-10.3907 3.82821,-15.49378 0.7485,-2.98134 1.59638,-5.92655 2.86703,-8.73039 0.82579,-1.94922 1.50494,-4.00653 2.66219,-5.783195 1.95719,-1.051506 1.27102,-3.880438 3.69304,-3.892752 1.21472,-0.75114 2.33292,1.190124 3.19211,-0.6115 2.77181,-0.671504 2.08215,3.167415 3.03397,4.786227 0.58944,2.4517 1.36886,4.73575 2.44015,6.95055 0.87401,2.49792 2.05773,4.90627 2.60655,7.5141 1.14583,1.57229 1.38539,3.71892 1.96036,5.5804 1.00778,4.7736 2.22441,9.49679 3.62204,14.16996 0.4846,2.57054 2.05055,4.81339 2.30566,7.45431 1.23073,5.06477 2.31563,10.1633 3.49458,15.2401 0.79607,0.32954 2.06617,-1.38796 2.13493,0.56539 -0.0179,1.36814 1.63289,2.35007 1.71773,0.48296 1.49604,1.80951 1.5347,4.89738 2.26819,7.24546 0.85326,1.91138 1.02053,4.07129 1.55678,6.09713 0.37593,1.70797 0.75187,3.41593 1.1278,5.1239 0.54377,-1.24812 0.0529,-3.18111 1.51014,-2.10109 0.89771,1.77336 1.93919,1.19818 1.9635,-0.62714 0.82621,-1.96865 1.41466,-4.06494 2.39009,-5.98749 0.17242,-1.61831 1.08237,-2.89054 1.64969,-3.07786 1.54133,-1.6442 1.03277,-4.68473 3.30193,-5.41845 1.39027,-1.73187 1.55005,-3.9415 2.31778,-5.98453 0.67364,-2.64851 1.33152,-5.27892 1.93583,-7.94168 1.24781,-7.22798 2.28664,-14.49171 3.75042,-21.68046 -0.21532,-1.08868 1.25543,-3.72438 1.51557,-1.36265 0.67459,3.05216 0.77251,-1.28913 1.17861,-2.32228 0.15862,-1.22993 0.90577,-2.24438 1.01845,-0.3406 1.00755,1.35482 0.55834,-3.31819 1.93069,-3.75022 1.38711,-1.35446 1.83491,2.18311 2.82164,2.82037 1.13,2.6366 1.52485,5.4971 2.24609,8.25518 1.07273,-0.89797 2.22647,-1.19748 2.37723,0.60918 0.27423,0.87608 1.80792,-0.93953 1.71584,0.94061 0.27526,1.95816 0.86561,3.90336 1.90753,5.56076 1.07678,0.0344 1.76352,-2.09573 2.08016,-0.0669 0.46256,2.04873 0.84431,3.71676 2.01102,5.13163 1.21777,4.64715 2.73576,9.2363 3.19704,14.04475 0.3945,2.94534 0.4542,6.09225 2.21905,8.62867 0.1805,1.99115 1.92612,3.16317 2.14945,5.17323 1.33212,-0.46984 1.73331,2.80826 3.6565,1.63711 0.98262,0.98395 1.19832,4.15941 2.81194,1.74198 1.66965,-1.72514 1.27588,-5.36096 3.66762,-6.22365 0.97616,-1.53919 1.20428,-3.56496 2.14184,-5.18177 0.66618,-1.69754 2.42035,0.2817 2.54913,-1.84288 1.73496,-1.07733 1.29136,-3.88712 2.36371,-5.57302 0.27192,-1.76457 2.2822,-1.16203 2.21634,-3.24628 0.27969,-2.4275 1.89684,-3.60923 2.51692,-5.82399 0.61047,-1.45166 0.55686,-3.92391 1.96011,-4.61802 1.27788,-1.87483 1.0242,-4.83143 2.66793,-6.18621 2.29809,-0.60387 1.37378,-4.14687 2.81048,-5.47307 1.42364,1.24952 1.00198,-3.52698 1.6717,-0.65371 0.17601,1.80233 1.83451,-0.76836 2.18849,1.30579 0.94312,2.20449 1.35976,4.58067 1.85773,6.91998 0.8484,5.85605 1.86163,11.68594 2.9416,17.50164 0.80584,5.83644 1.96907,11.62906 3.5939,17.29097 1.11842,2.82348 1.12166,5.95664 1.80247,8.90868 0.72052,3.89664 1.46931,7.79409 2.32663,11.65991 0.72553,1.63502 0.70623,-1.83858 1.50038,-2.19897 0.0438,-1.08751 0.333,-3.36613 1.31021,-1.36046 1.21848,0.11 1.57664,-2.97894 2.11299,-4.22123 0.36832,-2.67096 1.40213,-5.17699 2.01016,-7.79331 0.76593,-2.02197 0.90429,-4.30559 1.91846,-6.26073 0.49146,-2.0325 1.64899,-3.81455 2.07288,-5.89444 0.28859,-2.25522 2.19936,-3.59017 2.53014,-5.77752 0.80953,-2.04788 1.68145,-4.16053 2.72284,-6.28075 1.26917,0.005 1.67982,-4.08402 3.15094,-3.34718 1.34737,1.44975 0.79901,-1.67554 2.0957,-1.7416 0.78788,-1.51034 1.88594,-1.32005 2.49081,0.22208 0.42582,1.32725 1.65415,0.4125 2.3175,1.25725 0.72806,-1.96156 1.05273,-4.29068 1.78949,-5.24931 0.25114,-1.09514 0.55272,-2.18057 0.81745,-3.27418 1.94156,0.28768 1.99079,-2.92987 2.333,-4.41565 0.26695,-1.89825 1.9552,-3.08698 1.85805,-5.40341 0.22743,-2.00629 1.01666,-3.83644 1.37182,-5.82205 0.61937,-1.8173 0.9634,-3.71473 1.41705,-5.58128 0.84091,-0.7914 0.4473,-2.41202 1.07383,-3.41509"
         style="fill:none;stroke:#ff7f0e;stroke-width:0.594681;stroke-linecap:square;stroke-miterlimit:4;stroke-dasharray:none"
         clip-path="url(#pe2c94bca5b)"
         id="path74" />
    </g>
    <path
       d="M 24.88,175.1639 V 320.93186"
       style="fill:none;stroke:#000000;stroke-width:0.999751;stroke-linecap:square;stroke-linejoin:miter;stroke-miterlimit:4;stroke-dasharray:none;marker-start:url(#Arrow1Mstart)"
       id="path77" />
    <path
       d="M 24.880001,320.72 H 450"
       style="fill:none;stroke:#000000;stroke-width:0.8;stroke-linecap:square;stroke-linejoin:miter;marker-end:url(#Arrow1Mend)"
       id="path83" />
  </g>
  <defs
     id="defs94">
    <clipPath
       id="pe2c94bca5b">
      <rect
         height="309.92001"
         width="425.12"
         x="24.879999"
         y="10.8"
         id="rect91" />
    </clipPath>
  </defs>
</svg>
