<?xml version="1.0" encoding="UTF-8" standalone="no"?>
<svg
   height="24.7862mm"
   version="1.1"
   viewBox="0 0 333.34001 70.26009"
   width="117.59495mm"
   id="svg206"
   sodipodi:docname="air_intakes.svg"
   inkscape:version="1.1.2 (0a00cf5339, 2022-02-04)"
   xmlns:inkscape="http://www.inkscape.org/namespaces/inkscape"
   xmlns:sodipodi="http://sodipodi.sourceforge.net/DTD/sodipodi-0.dtd"
   xmlns="http://www.w3.org/2000/svg"
   xmlns:svg="http://www.w3.org/2000/svg"
   xmlns:rdf="http://www.w3.org/1999/02/22-rdf-syntax-ns#"
   xmlns:cc="http://creativecommons.org/ns#"
   xmlns:dc="http://purl.org/dc/elements/1.1/">
  <sodipodi:namedview
     id="namedview208"
     pagecolor="#ffffff"
     bordercolor="#666666"
     borderopacity="1.0"
     inkscape:pageshadow="2"
     inkscape:pageopacity="0"
     inkscape:pagecheckerboard="true"
     inkscape:document-units="mm"
     showgrid="false"
     inkscape:zoom="2.6792717"
     inkscape:cx="219.83586"
     inkscape:cy="109.73131"
     inkscape:window-width="2560"
     inkscape:window-height="1371"
     inkscape:window-x="0"
     inkscape:window-y="32"
     inkscape:window-maximized="1"
     inkscape:current-layer="svg206"
     inkscape:snap-page="true"
     showborder="true"
     inkscape:showpageshadow="false"
     units="mm"
     showguides="true"
     inkscape:guide-bbox="true" />
  <metadata
     id="metadata2">
    <rdf:RDF>
      <cc:Work>
        <dc:type
           rdf:resource="http://purl.org/dc/dcmitype/StillImage" />
        <dc:date>2021-08-24T09:56:33.966909</dc:date>
        <dc:format>image/svg+xml</dc:format>
        <dc:creator>
          <cc:Agent>
            <dc:title>Matplotlib v3.4.3, https://matplotlib.org/</dc:title>
          </cc:Agent>
        </dc:creator>
      </cc:Work>
    </rdf:RDF>
  </metadata>
  <defs
     id="defs6">
    <style
       type="text/css"
       id="style4">*{stroke-linecap:butt;stroke-linejoin:round;}</style>
  </defs>
  <rect
     style="fill:#ffffff;stroke-width:1.55808;stroke-linecap:round"
     id="rect930"
     width="333.34"
     height="70.260094"
     x="0"
     y="0" />
  <path
     clip-path="url(#pff421ac0fb)"
     d="m 391.02809,191.18511 c 6.33255,-2.66195 9.53832,-10.43991 5.9958,-16.55631 -7.78762,-13.71426 -23.56217,-20.1204 -38.00482,-24.35235 -30.05826,-7.66047 -61.45751,-5.16995 -92.04857,-2.95806 -61.8827,5.66445 -123.13891,17.02449 -183.628463,31.07577 -3.168963,0.75715 -6.34427,1.48817 -9.50926,2.26176"
     style="fill:none;stroke:#000000;stroke-width:0.75;stroke-linecap:square;stroke-miterlimit:4;stroke-dasharray:none"
     id="path181"
     transform="translate(-69.453577,-139.35767)" />
  <path
     clip-path="url(#pff421ac0fb)"
     d="m 375.2332,196.34295 c -30.66668,5.62439 -61.94866,7.66208 -93.10138,7.53495 -58.19004,-0.83774 -116.10913,-7.96325 -173.52041,-17.0983 -11.62099,-1.87659 -23.21024,-3.94761 -34.778683,-6.12369"
     style="fill:none;stroke:#000000;stroke-width:0.75;stroke-linecap:square;stroke-miterlimit:4;stroke-dasharray:none"
     id="path184"
     transform="translate(-69.453577,-139.35767)" />
  <defs
     id="defs204">
    <clipPath
       id="pff421ac0fb">
      <rect
         height="64.657288"
         width="357.12"
         x="57.599998"
         y="142.19936"
         id="rect201" />
    </clipPath>
  </defs>
  <g
     id="path1790">
    <path
       style="color:#000000;fill:#000000;-inkscape-stroke:none"
       d="m 310.04297,36.113281 -0.17578,0.728516 17.05468,4.126953 0.17579,-0.730469 z"
       id="path1721" />
    <g
       id="g1711">
      <g
         id="path1713">
        <path
           style="color:#000000;fill:#000000;fill-rule:evenodd;stroke-width:0.3pt;stroke-linejoin:round;-inkscape-stroke:none"
           d="m 324.09396,39.89806 -1.81066,1.105212 5.45551,-0.223396 -4.75006,-2.692481 z"
           id="path1717" />
        <path
           style="color:#000000;fill:#000000;fill-rule:evenodd;stroke-linejoin:round;-inkscape-stroke:none"
           d="m 323.08789,37.914062 a 0.20002,0.20002 0 0 0 -0.26953,0.277344 l 1.00195,1.638672 -1.64062,1.001953 a 0.20002,0.20002 0 0 0 0.11133,0.371094 l 5.45507,-0.222656 a 0.20002,0.20002 0 0 0 0.0918,-0.375 z m 0.47461,0.728516 3.4707,1.966797 -3.98633,0.162109 1.1504,-0.703125 a 0.20002,0.20002 0 0 0 0.0684,-0.27539 z"
           id="path1719" />
      </g>
    </g>
  </g>
  <g
     inkscape:label=""
     transform="matrix(0.975,0,0,0.975,198.26172,-44.601922)"
     id="g2209">
    <g
       id="g680">
      <g
         style="fill:#000000;fill-opacity:1"
         id="g6012">
        <g
           id="use6525"
           transform="translate(91.925003,81.962997)">
          <path
             style="stroke:none"
             d="m 0.875,-0.59375 c -0.03125,0.15625 -0.09375,0.390625 -0.09375,0.4375 0,0.171875 0.140625,0.265625 0.296875,0.265625 0.125,0 0.296875,-0.078125 0.375,-0.28125 C 1.46875,-0.203125 1.796875,-1.5625 1.84375,-1.75 c 0.078125,-0.328125 0.265625,-1.015625 0.3125,-1.296875 0.046875,-0.125 0.328125,-0.59375 0.5625,-0.8125 0.078125,-0.0625 0.375,-0.328125 0.796875,-0.328125 0.265625,0 0.40625,0.125 0.421875,0.125 -0.296875,0.046875 -0.515625,0.28125 -0.515625,0.546875 0,0.15625 0.109375,0.34375 0.375,0.34375 0.265625,0 0.546875,-0.234375 0.546875,-0.59375 0,-0.34375 -0.3125,-0.640625 -0.828125,-0.640625 C 2.875,-4.40625 2.4375,-3.921875 2.25,-3.640625 2.15625,-4.09375 1.796875,-4.40625 1.328125,-4.40625 0.875,-4.40625 0.6875,-4.015625 0.59375,-3.84375 0.421875,-3.5 0.296875,-2.90625 0.296875,-2.875 c 0,0.109375 0.09375,0.109375 0.109375,0.109375 0.109375,0 0.109375,-0.015625 0.171875,-0.234375 0.171875,-0.703125 0.375,-1.1875 0.734375,-1.1875 0.15625,0 0.296875,0.078125 0.296875,0.453125 0,0.21875 -0.03125,0.328125 -0.15625,0.84375 z m 0,0"
             id="path1291" />
        </g>
      </g>
      <g
         style="fill:#000000;fill-opacity:1"
         id="g3438">
        <g
           id="use2340"
           transform="translate(99.463997,81.962997)">
          <path
             style="stroke:none"
             d="m 6.84375,-3.265625 c 0.15625,0 0.34375,0 0.34375,-0.1875 C 7.1875,-3.65625 7,-3.65625 6.859375,-3.65625 h -5.96875 c -0.140625,0 -0.328125,0 -0.328125,0.203125 0,0.1875 0.1875,0.1875 0.328125,0.1875 z m 0.015625,1.9375 c 0.140625,0 0.328125,0 0.328125,-0.203125 0,-0.1875 -0.1875,-0.1875 -0.34375,-0.1875 H 0.890625 c -0.140625,0 -0.328125,0 -0.328125,0.1875 0,0.203125 0.1875,0.203125 0.328125,0.203125 z m 0,0"
             id="path1295" />
        </g>
      </g>
      <g
         style="fill:#000000;fill-opacity:1"
         id="g4518">
        <g
           id="use4484"
           transform="translate(109.98251,81.962997)">
          <path
             style="stroke:none"
             d="m 4.578125,-3.1875 c 0,-0.796875 -0.046875,-1.59375 -0.390625,-2.328125 -0.453125,-0.96875 -1.28125,-1.125 -1.6875,-1.125 -0.609375,0 -1.328125,0.265625 -1.75,1.1875 -0.3125,0.6875 -0.359375,1.46875 -0.359375,2.265625 0,0.75 0.03125,1.640625 0.453125,2.40625 0.421875,0.796875 1.15625,1 1.640625,1 0.53125,0 1.296875,-0.203125 1.734375,-1.15625 0.3125,-0.6875 0.359375,-1.46875 0.359375,-2.25 z M 2.484375,0 C 2.09375,0 1.5,-0.25 1.328125,-1.203125 1.21875,-1.796875 1.21875,-2.71875 1.21875,-3.3125 c 0,-0.640625 0,-1.296875 0.078125,-1.828125 0.1875,-1.1875 0.9375,-1.28125 1.1875,-1.28125 0.328125,0 0.984375,0.1875 1.171875,1.171875 0.109375,0.5625 0.109375,1.3125 0.109375,1.9375 0,0.75 0,1.421875 -0.109375,2.0625 C 3.5,-0.296875 2.9375,0 2.484375,0 Z m 0,0"
             id="path1299" />
        </g>
      </g>
    </g>
  </g>
  <g
     inkscape:label=""
     transform="matrix(0.975,0,0,0.975,-75.968619,-64.733548)"
     id="g2350">
    <g
       id="g508">
      <g
         style="fill:#000000;fill-opacity:1"
         id="g8235">
        <g
           id="use6870"
           transform="translate(91.925003,81.962997)">
          <path
             style="stroke:none"
             d="m 0.875,-0.59375 c -0.03125,0.15625 -0.09375,0.390625 -0.09375,0.4375 0,0.171875 0.140625,0.265625 0.296875,0.265625 0.125,0 0.296875,-0.078125 0.375,-0.28125 C 1.46875,-0.203125 1.796875,-1.5625 1.84375,-1.75 c 0.078125,-0.328125 0.265625,-1.015625 0.3125,-1.296875 0.046875,-0.125 0.328125,-0.59375 0.5625,-0.8125 0.078125,-0.0625 0.375,-0.328125 0.796875,-0.328125 0.265625,0 0.40625,0.125 0.421875,0.125 -0.296875,0.046875 -0.515625,0.28125 -0.515625,0.546875 0,0.15625 0.109375,0.34375 0.375,0.34375 0.265625,0 0.546875,-0.234375 0.546875,-0.59375 0,-0.34375 -0.3125,-0.640625 -0.828125,-0.640625 C 2.875,-4.40625 2.4375,-3.921875 2.25,-3.640625 2.15625,-4.09375 1.796875,-4.40625 1.328125,-4.40625 0.875,-4.40625 0.6875,-4.015625 0.59375,-3.84375 0.421875,-3.5 0.296875,-2.90625 0.296875,-2.875 c 0,0.109375 0.09375,0.109375 0.109375,0.109375 0.109375,0 0.109375,-0.015625 0.171875,-0.234375 0.171875,-0.703125 0.375,-1.1875 0.734375,-1.1875 0.15625,0 0.296875,0.078125 0.296875,0.453125 0,0.21875 -0.03125,0.328125 -0.15625,0.84375 z m 0,0"
             id="path1223" />
        </g>
      </g>
      <g
         style="fill:#000000;fill-opacity:1"
         id="g3717">
        <g
           id="use671"
           transform="translate(99.463997,81.962997)">
          <path
             style="stroke:none"
             d="m 6.84375,-3.265625 c 0.15625,0 0.34375,0 0.34375,-0.1875 C 7.1875,-3.65625 7,-3.65625 6.859375,-3.65625 h -5.96875 c -0.140625,0 -0.328125,0 -0.328125,0.203125 0,0.1875 0.1875,0.1875 0.328125,0.1875 z m 0.015625,1.9375 c 0.140625,0 0.328125,0 0.328125,-0.203125 0,-0.1875 -0.1875,-0.1875 -0.34375,-0.1875 H 0.890625 c -0.140625,0 -0.328125,0 -0.328125,0.1875 0,0.203125 0.1875,0.203125 0.328125,0.203125 z m 0,0"
             id="path1227" />
        </g>
      </g>
      <g
         style="fill:#000000;fill-opacity:1"
         id="g4731">
        <g
           id="use6850"
           transform="translate(109.98251,81.962997)">
          <path
             style="stroke:none"
             d="m 2.9375,-6.375 c 0,-0.25 0,-0.265625 -0.234375,-0.265625 C 2.078125,-6 1.203125,-6 0.890625,-6 v 0.3125 c 0.203125,0 0.78125,0 1.296875,-0.265625 v 5.171875 c 0,0.359375 -0.03125,0.46875 -0.921875,0.46875 h -0.3125 V 0 c 0.34375,-0.03125 1.203125,-0.03125 1.609375,-0.03125 0.390625,0 1.265625,0 1.609375,0.03125 v -0.3125 h -0.3125 c -0.90625,0 -0.921875,-0.109375 -0.921875,-0.46875 z m 0,0"
             id="path1231" />
        </g>
      </g>
      <g
         style="fill:#000000;fill-opacity:1"
         id="g3174">
        <g
           id="use939"
           transform="translate(117.73341,81.962997)">
          <path
             style="stroke:none"
             d="m 6.84375,-3.265625 c 0.15625,0 0.34375,0 0.34375,-0.1875 C 7.1875,-3.65625 7,-3.65625 6.859375,-3.65625 h -5.96875 c -0.140625,0 -0.328125,0 -0.328125,0.203125 0,0.1875 0.1875,0.1875 0.328125,0.1875 z m 0.015625,1.9375 c 0.140625,0 0.328125,0 0.328125,-0.203125 0,-0.1875 -0.1875,-0.1875 -0.34375,-0.1875 H 0.890625 c -0.140625,0 -0.328125,0 -0.328125,0.1875 0,0.203125 0.1875,0.203125 0.328125,0.203125 z m 0,0"
             id="path1235" />
        </g>
      </g>
      <g
         style="fill:#000000;fill-opacity:1"
         id="g6283">
        <g
           id="use8940"
           transform="translate(128.245,81.962997)">
          <path
             style="stroke:none"
             d="m 6.5625,-2.296875 c 0.171875,0 0.359375,0 0.359375,-0.203125 0,-0.1875 -0.1875,-0.1875 -0.359375,-0.1875 H 1.171875 c -0.171875,0 -0.34375,0 -0.34375,0.1875 0,0.203125 0.171875,0.203125 0.34375,0.203125 z m 0,0"
             id="path1239" />
        </g>
      </g>
      <g
         style="fill:#000000;fill-opacity:1"
         id="g7162">
        <g
           id="use8177"
           transform="translate(135.994,81.962997)">
          <path
             style="stroke:none"
             d="m 2.9375,-6.375 c 0,-0.25 0,-0.265625 -0.234375,-0.265625 C 2.078125,-6 1.203125,-6 0.890625,-6 v 0.3125 c 0.203125,0 0.78125,0 1.296875,-0.265625 v 5.171875 c 0,0.359375 -0.03125,0.46875 -0.921875,0.46875 h -0.3125 V 0 c 0.34375,-0.03125 1.203125,-0.03125 1.609375,-0.03125 0.390625,0 1.265625,0 1.609375,0.03125 v -0.3125 h -0.3125 c -0.90625,0 -0.921875,-0.109375 -0.921875,-0.46875 z m 0,0"
             id="path1243" />
        </g>
      </g>
    </g>
  </g>
  <g
     inkscape:label=""
     transform="matrix(0.975,0,0,0.975,187.14194,-38.626932)"
     id="g2556">
    <g
       id="g1604">
      <g
         style="fill:#000000;fill-opacity:1"
         id="g8284">
        <g
           id="use9647"
           transform="translate(91.925003,81.962997)">
          <path
             style="stroke:none"
             d="m 0.875,-0.59375 c -0.03125,0.15625 -0.09375,0.390625 -0.09375,0.4375 0,0.171875 0.140625,0.265625 0.296875,0.265625 0.125,0 0.296875,-0.078125 0.375,-0.28125 C 1.46875,-0.203125 1.796875,-1.5625 1.84375,-1.75 c 0.078125,-0.328125 0.265625,-1.015625 0.3125,-1.296875 0.046875,-0.125 0.328125,-0.59375 0.5625,-0.8125 0.078125,-0.0625 0.375,-0.328125 0.796875,-0.328125 0.265625,0 0.40625,0.125 0.421875,0.125 -0.296875,0.046875 -0.515625,0.28125 -0.515625,0.546875 0,0.15625 0.109375,0.34375 0.375,0.34375 0.265625,0 0.546875,-0.234375 0.546875,-0.59375 0,-0.34375 -0.3125,-0.640625 -0.828125,-0.640625 C 2.875,-4.40625 2.4375,-3.921875 2.25,-3.640625 2.15625,-4.09375 1.796875,-4.40625 1.328125,-4.40625 0.875,-4.40625 0.6875,-4.015625 0.59375,-3.84375 0.421875,-3.5 0.296875,-2.90625 0.296875,-2.875 c 0,0.109375 0.09375,0.109375 0.109375,0.109375 0.109375,0 0.109375,-0.015625 0.171875,-0.234375 0.171875,-0.703125 0.375,-1.1875 0.734375,-1.1875 0.15625,0 0.296875,0.078125 0.296875,0.453125 0,0.21875 -0.03125,0.328125 -0.15625,0.84375 z m 0,0"
             id="path1303" />
        </g>
      </g>
      <g
         style="fill:#000000;fill-opacity:1"
         id="g8317">
        <g
           id="use9363"
           transform="translate(96.419998,83.457001)">
          <path
             style="stroke:none"
             d="m 2.515625,-3 v 0.25 c 0.46875,0 0.515625,0.046875 0.515625,0.390625 v 1.203125 c 0,0.609375 -0.390625,1.03125 -0.921875,1.03125 -0.625,0 -0.65625,-0.296875 -0.65625,-0.65625 V -3.078125 L 0.375,-3 v 0.25 c 0.53125,0 0.53125,0.03125 0.53125,0.640625 V -1.0625 c 0,0.484375 0,1.125 1.15625,1.125 0.15625,0 0.65625,0 1,-0.578125 V 0.0625 L 4.109375,0 v -0.25 c -0.46875,0 -0.515625,-0.046875 -0.515625,-0.390625 v -2.4375 z m 0,0"
             id="path1307" />
        </g>
        <g
           id="use4340"
           transform="translate(100.82047,83.457001)">
          <path
             style="stroke:none"
             d="m 1.9375,1.09375 c -0.453125,0 -0.515625,0 -0.515625,-0.296875 v -1.125 C 1.453125,-0.296875 1.78125,0.0625 2.359375,0.0625 3.28125,0.0625 4.0625,-0.625 4.0625,-1.5 c 0,-0.859375 -0.703125,-1.578125 -1.59375,-1.578125 -0.390625,0 -0.796875,0.15625 -1.078125,0.4375 v -0.4375 L 0.34375,-3 v 0.25 c 0.484375,0 0.515625,0.046875 0.515625,0.328125 v 3.21875 c 0,0.296875 -0.0625,0.296875 -0.515625,0.296875 v 0.265625 c 0.015625,0 0.5,-0.03125 0.796875,-0.03125 0.25,0 0.734375,0.015625 0.796875,0.03125 z M 1.421875,-2.328125 C 1.625,-2.671875 2.03125,-2.84375 2.390625,-2.84375 c 0.59375,0 1.046875,0.609375 1.046875,1.34375 0,0.796875 -0.53125,1.375 -1.109375,1.375 -0.625,0 -0.890625,-0.53125 -0.90625,-0.578125 z m 0,0"
             id="path1311" />
        </g>
        <g
           id="use4610"
           transform="translate(105.22094,83.457001)">
          <path
             style="stroke:none"
             d="m 1.9375,1.09375 c -0.453125,0 -0.515625,0 -0.515625,-0.296875 v -1.125 C 1.453125,-0.296875 1.78125,0.0625 2.359375,0.0625 3.28125,0.0625 4.0625,-0.625 4.0625,-1.5 c 0,-0.859375 -0.703125,-1.578125 -1.59375,-1.578125 -0.390625,0 -0.796875,0.15625 -1.078125,0.4375 v -0.4375 L 0.34375,-3 v 0.25 c 0.484375,0 0.515625,0.046875 0.515625,0.328125 v 3.21875 c 0,0.296875 -0.0625,0.296875 -0.515625,0.296875 v 0.265625 c 0.015625,0 0.5,-0.03125 0.796875,-0.03125 0.25,0 0.734375,0.015625 0.796875,0.03125 z M 1.421875,-2.328125 C 1.625,-2.671875 2.03125,-2.84375 2.390625,-2.84375 c 0.59375,0 1.046875,0.609375 1.046875,1.34375 0,0.796875 -0.53125,1.375 -1.109375,1.375 -0.625,0 -0.890625,-0.53125 -0.90625,-0.578125 z m 0,0"
             id="path1315" />
        </g>
      </g>
      <g
         style="fill:#000000;fill-opacity:1"
         id="g775">
        <g
           id="use4825"
           transform="translate(109.83759,83.457001)">
          <path
             style="stroke:none"
             d="m 3.0625,-1.59375 c 0.15625,0 0.203125,0 0.203125,-0.140625 0,-0.625 -0.34375,-1.375 -1.390625,-1.375 -0.90625,0 -1.609375,0.71875 -1.609375,1.578125 0,0.890625 0.78125,1.59375 1.703125,1.59375 0.9375,0 1.296875,-0.75 1.296875,-0.90625 0,-0.015625 -0.015625,-0.09375 -0.125,-0.09375 -0.09375,0 -0.109375,0.046875 -0.125,0.109375 -0.21875,0.5625 -0.75,0.671875 -1,0.671875 C 1.6875,-0.15625 1.375,-0.296875 1.171875,-0.5625 0.90625,-0.890625 0.90625,-1.3125 0.90625,-1.59375 Z M 0.90625,-1.765625 C 0.984375,-2.75 1.609375,-2.90625 1.875,-2.90625 c 0.859375,0 0.890625,0.96875 0.90625,1.140625 z m 0,0"
             id="path1319" />
        </g>
        <g
           id="use1116"
           transform="translate(113.37959,83.457001)">
          <path
             style="stroke:none"
             d="m 1.390625,-1.59375 c 0,-0.578125 0.265625,-1.28125 0.9375,-1.28125 -0.0625,0.046875 -0.125,0.140625 -0.125,0.25 0,0.234375 0.1875,0.3125 0.3125,0.3125 0.171875,0 0.328125,-0.109375 0.328125,-0.3125 0,-0.234375 -0.234375,-0.453125 -0.5625,-0.453125 -0.34375,0 -0.734375,0.21875 -0.9375,0.75 v -0.75 L 0.34375,-3 v 0.25 c 0.46875,0 0.515625,0.046875 0.515625,0.390625 v 1.8125 C 0.859375,-0.25 0.796875,-0.25 0.34375,-0.25 V 0 c 0.03125,0 0.5,-0.03125 0.796875,-0.03125 0.296875,0 0.59375,0.015625 0.90625,0.03125 V -0.25 H 1.90625 c -0.515625,0 -0.515625,-0.078125 -0.515625,-0.3125 z m 0,0"
             id="path1323" />
        </g>
      </g>
    </g>
  </g>
  <g
     inkscape:label=""
     transform="matrix(0.975,0,0,0.975,171.71349,-31.078556)"
     id="g2814">
    <g
       id="g853">
      <g
         style="fill:#000000;fill-opacity:1"
         id="g5782">
        <g
           id="use7676"
           transform="translate(91.925003,81.962997)">
          <path
             style="stroke:none"
             d="m 0.875,-0.59375 c -0.03125,0.15625 -0.09375,0.390625 -0.09375,0.4375 0,0.171875 0.140625,0.265625 0.296875,0.265625 0.125,0 0.296875,-0.078125 0.375,-0.28125 C 1.46875,-0.203125 1.796875,-1.5625 1.84375,-1.75 c 0.078125,-0.328125 0.265625,-1.015625 0.3125,-1.296875 0.046875,-0.125 0.328125,-0.59375 0.5625,-0.8125 0.078125,-0.0625 0.375,-0.328125 0.796875,-0.328125 0.265625,0 0.40625,0.125 0.421875,0.125 -0.296875,0.046875 -0.515625,0.28125 -0.515625,0.546875 0,0.15625 0.109375,0.34375 0.375,0.34375 0.265625,0 0.546875,-0.234375 0.546875,-0.59375 0,-0.34375 -0.3125,-0.640625 -0.828125,-0.640625 C 2.875,-4.40625 2.4375,-3.921875 2.25,-3.640625 2.15625,-4.09375 1.796875,-4.40625 1.328125,-4.40625 0.875,-4.40625 0.6875,-4.015625 0.59375,-3.84375 0.421875,-3.5 0.296875,-2.90625 0.296875,-2.875 c 0,0.109375 0.09375,0.109375 0.109375,0.109375 0.109375,0 0.109375,-0.015625 0.171875,-0.234375 0.171875,-0.703125 0.375,-1.1875 0.734375,-1.1875 0.15625,0 0.296875,0.078125 0.296875,0.453125 0,0.21875 -0.03125,0.328125 -0.15625,0.84375 z m 0,0"
             id="path1327" />
        </g>
      </g>
      <g
         style="fill:#000000;fill-opacity:1"
         id="g8846">
        <g
           id="use580"
           transform="translate(96.419998,83.457001)">
          <path
             style="stroke:none"
             d="m 1.4375,-4.84375 -1.046875,0.078125 v 0.25 c 0.46875,0 0.515625,0.0625 0.515625,0.390625 v 3.578125 C 0.90625,-0.25 0.84375,-0.25 0.390625,-0.25 V 0 c 0.015625,0 0.5,-0.03125 0.78125,-0.03125 0.265625,0 0.515625,0.015625 0.78125,0.03125 V -0.25 C 1.5,-0.25 1.4375,-0.25 1.4375,-0.546875 Z m 0,0"
             id="path1331" />
        </g>
        <g
           id="use5834"
           transform="translate(98.675323,83.457001)">
          <path
             style="stroke:none"
             d="m 3.6875,-1.484375 c 0,-0.875 -0.75,-1.625 -1.703125,-1.625 -0.96875,0 -1.71875,0.75 -1.71875,1.625 0,0.859375 0.765625,1.546875 1.71875,1.546875 0.9375,0 1.703125,-0.6875 1.703125,-1.546875 z M 1.984375,-0.15625 c -0.265625,0 -0.640625,-0.078125 -0.875,-0.421875 -0.1875,-0.28125 -0.203125,-0.640625 -0.203125,-0.96875 0,-0.296875 0,-0.71875 0.25,-1.015625 0.171875,-0.203125 0.46875,-0.34375 0.828125,-0.34375 0.40625,0 0.703125,0.1875 0.859375,0.40625 0.1875,0.265625 0.203125,0.625 0.203125,0.953125 0,0.328125 -0.015625,0.703125 -0.21875,0.984375 -0.1875,0.265625 -0.5,0.40625 -0.84375,0.40625 z m 0,0"
             id="path1335" />
        </g>
      </g>
      <g
         style="fill:#000000;fill-opacity:1"
         id="g7687">
        <g
           id="use3447"
           transform="translate(102.43072,83.457001)">
          <path
             style="stroke:none"
             d="M 4.875,-2.328125 C 5.015625,-2.671875 5.25,-2.75 5.46875,-2.75 V -3 c -0.1875,0.015625 -0.3125,0.03125 -0.5,0.03125 C 4.75,-2.96875 4.484375,-2.984375 4.28125,-3 v 0.25 c 0.234375,0 0.359375,0.140625 0.359375,0.296875 0,0.0625 0,0.078125 -0.046875,0.171875 l -0.671875,1.734375 -0.75,-1.90625 c -0.015625,-0.03125 -0.03125,-0.078125 -0.03125,-0.125 0,-0.15625 0.171875,-0.171875 0.375,-0.171875 V -3 c -0.25,0.015625 -0.5,0.03125 -0.75,0.03125 -0.203125,0 -0.421875,-0.015625 -0.625,-0.03125 v 0.25 c 0.171875,0 0.3125,0 0.40625,0.046875 0.09375,0.078125 0.15625,0.3125 0.15625,0.3125 0,0.015625 -0.015625,0.0625 -0.03125,0.078125 l -0.65625,1.671875 -0.703125,-1.8125 c -0.03125,-0.09375 -0.03125,-0.09375 -0.03125,-0.125 0,-0.171875 0.25,-0.171875 0.375,-0.171875 V -3 c -0.015625,0 -0.515625,0.03125 -0.796875,0.03125 -0.21875,0 -0.4375,-0.015625 -0.65625,-0.03125 v 0.25 c 0.28125,0 0.4375,0 0.5,0.203125 l 0.96875,2.453125 C 1.71875,0.015625 1.734375,0.0625 1.875,0.0625 2,0.0625 2.015625,0.015625 2.046875,-0.078125 L 2.84375,-2.0625 3.609375,-0.09375 C 3.65625,0 3.671875,0.0625 3.8125,0.0625 3.9375,0.0625 3.953125,0.015625 4,-0.09375 Z m 0,0"
             id="path1339" />
        </g>
      </g>
      <g
         style="fill:#000000;fill-opacity:1"
         id="g8060">
        <g
           id="use2536"
           transform="translate(107.90166,83.457001)">
          <path
             style="stroke:none"
             d="m 3.0625,-1.59375 c 0.15625,0 0.203125,0 0.203125,-0.140625 0,-0.625 -0.34375,-1.375 -1.390625,-1.375 -0.90625,0 -1.609375,0.71875 -1.609375,1.578125 0,0.890625 0.78125,1.59375 1.703125,1.59375 0.9375,0 1.296875,-0.75 1.296875,-0.90625 0,-0.015625 -0.015625,-0.09375 -0.125,-0.09375 -0.09375,0 -0.109375,0.046875 -0.125,0.109375 -0.21875,0.5625 -0.75,0.671875 -1,0.671875 C 1.6875,-0.15625 1.375,-0.296875 1.171875,-0.5625 0.90625,-0.890625 0.90625,-1.3125 0.90625,-1.59375 Z M 0.90625,-1.765625 C 0.984375,-2.75 1.609375,-2.90625 1.875,-2.90625 c 0.859375,0 0.890625,0.96875 0.90625,1.140625 z m 0,0"
             id="path1343" />
        </g>
        <g
           id="use9086"
           transform="translate(111.44366,83.457001)">
          <path
             style="stroke:none"
             d="m 1.390625,-1.59375 c 0,-0.578125 0.265625,-1.28125 0.9375,-1.28125 -0.0625,0.046875 -0.125,0.140625 -0.125,0.25 0,0.234375 0.1875,0.3125 0.3125,0.3125 0.171875,0 0.328125,-0.109375 0.328125,-0.3125 0,-0.234375 -0.234375,-0.453125 -0.5625,-0.453125 -0.34375,0 -0.734375,0.21875 -0.9375,0.75 v -0.75 L 0.34375,-3 v 0.25 c 0.46875,0 0.515625,0.046875 0.515625,0.390625 v 1.8125 C 0.859375,-0.25 0.796875,-0.25 0.34375,-0.25 V 0 c 0.03125,0 0.5,-0.03125 0.796875,-0.03125 0.296875,0 0.59375,0.015625 0.90625,0.03125 V -0.25 H 1.90625 c -0.515625,0 -0.515625,-0.078125 -0.515625,-0.3125 z m 0,0"
             id="path1347" />
        </g>
      </g>
    </g>
  </g>
  <g
     id="path3006">
    <path
       style="color:#000000;fill:#000000;-inkscape-stroke:none"
       d="m 302.67773,43.009766 -0.29882,0.6875 15.1289,6.601562 0.29883,-0.685547 z"
       id="path1707" />
    <g
       id="g1697">
      <g
         id="path1699">
        <path
           style="color:#000000;fill:#000000;fill-rule:evenodd;stroke-width:0.3pt;stroke-linejoin:round;-inkscape-stroke:none"
           d="m 314.90764,48.756258 -1.97472,0.774893 5.41174,0.724897 -4.21191,-3.474516 z"
           id="path1703" />
        <path
           style="color:#000000;fill:#000000;fill-rule:evenodd;stroke-linejoin:round;-inkscape-stroke:none"
           d="m 314.01562,46.619141 a 0.20002,0.20002 0 0 0 -0.0684,0.236328 l 0.70117,1.787109 -1.78907,0.703125 a 0.20002,0.20002 0 0 0 0.0469,0.382813 l 5.41211,0.726562 a 0.20002,0.20002 0 0 0 0.1543,-0.353516 l -4.21289,-3.474609 a 0.20002,0.20002 0 0 0 -0.24415,-0.0078 z m 0.58399,0.80664 3.07812,2.539063 -3.95312,-0.529297 1.25586,-0.492188 a 0.20002,0.20002 0 0 0 0.11328,-0.259765 z"
           id="path1705" />
      </g>
    </g>
  </g>
  <g
     id="path3041">
    <path
       style="color:#000000;fill:#000000;-inkscape-stroke:none"
       d="m 286.15039,49.052734 -0.25391,0.707032 16.95313,6.052734 0.25195,-0.707031 z"
       id="path1693" />
    <g
       id="g1683">
      <g
         id="path1685">
        <path
           style="color:#000000;fill:#000000;fill-rule:evenodd;stroke-width:0.3pt;stroke-linejoin:round;-inkscape-stroke:none"
           d="m 300.15018,54.449693 -1.91703,0.908285 5.44868,0.352651 -4.43993,-3.177969 z"
           id="path1689" />
        <path
           style="color:#000000;fill:#000000;fill-rule:evenodd;stroke-linejoin:round;-inkscape-stroke:none"
           d="m 299.35742,52.369141 a 0.20002,0.20002 0 0 0 -0.29687,0.25 l 0.82226,1.736328 -1.73437,0.822265 a 0.20002,0.20002 0 0 0 0.0723,0.378907 l 5.44727,0.353515 a 0.20002,0.20002 0 0 0 0.13086,-0.361328 z m 0.39453,0.77539 3.24414,2.322266 -3.97851,-0.257813 1.21875,-0.578125 a 0.20002,0.20002 0 0 0 0.0937,-0.267578 z"
           id="path1691" />
      </g>
    </g>
  </g>
  <g
     id="path3326">
    <path
       style="color:#000000;fill:#000000;-inkscape-stroke:none"
       d="m 16.484375,21.554687 -10.7675781,16.355469 0.625,0.41211 10.7695311,-16.355469 z"
       id="path1651" />
    <g
       id="g1641">
      <g
         id="path1643">
        <path
           style="color:#000000;fill:#000000;fill-rule:evenodd;stroke-width:0.3pt;stroke-linejoin:round;-inkscape-stroke:none"
           d="M 7.6791103,35.61113 7.2510487,33.533448 5.6170847,38.74331 9.7567925,35.183069 Z"
           id="path1647" />
        <path
           style="color:#000000;fill:#000000;fill-rule:evenodd;stroke-linejoin:round;-inkscape-stroke:none"
           d="m 7.2617187,33.333984 a 0.20002,0.20002 0 0 0 -0.2011718,0.138672 l -1.6347657,5.210938 a 0.20002,0.20002 0 0 0 0.3222657,0.210937 L 9.8867188,35.333984 A 0.20002,0.20002 0 0 0 9.7167969,34.986328 L 7.8339844,35.375 7.4472656,33.492187 A 0.20002,0.20002 0 0 0 7.2617187,33.333984 Z m -0.050781,0.996094 0.2714844,1.322266 A 0.20002,0.20002 0 0 0 7.71875,35.806641 l 1.3222656,-0.271485 -3.0234375,2.59961 z"
           id="path1649" />
      </g>
    </g>
  </g>
  <g
     inkscape:label=""
     transform="matrix(0.975,0,0,0.975,86.137442,-44.133535)"
     id="g3718">
    <g
       id="g662">
      <g
         style="fill:#000000;fill-opacity:1"
         id="g9864">
        <g
           id="use9540"
           transform="translate(91.925003,81.962997)">
          <path
             style="stroke:none"
             d="m 0.875,-0.59375 c -0.03125,0.15625 -0.09375,0.390625 -0.09375,0.4375 0,0.171875 0.140625,0.265625 0.296875,0.265625 0.125,0 0.296875,-0.078125 0.375,-0.28125 C 1.46875,-0.203125 1.796875,-1.5625 1.84375,-1.75 c 0.078125,-0.328125 0.265625,-1.015625 0.3125,-1.296875 0.046875,-0.125 0.328125,-0.59375 0.5625,-0.8125 0.078125,-0.0625 0.375,-0.328125 0.796875,-0.328125 0.265625,0 0.40625,0.125 0.421875,0.125 -0.296875,0.046875 -0.515625,0.28125 -0.515625,0.546875 0,0.15625 0.109375,0.34375 0.375,0.34375 0.265625,0 0.546875,-0.234375 0.546875,-0.59375 0,-0.34375 -0.3125,-0.640625 -0.828125,-0.640625 C 2.875,-4.40625 2.4375,-3.921875 2.25,-3.640625 2.15625,-4.09375 1.796875,-4.40625 1.328125,-4.40625 0.875,-4.40625 0.6875,-4.015625 0.59375,-3.84375 0.421875,-3.5 0.296875,-2.90625 0.296875,-2.875 c 0,0.109375 0.09375,0.109375 0.109375,0.109375 0.109375,0 0.109375,-0.015625 0.171875,-0.234375 0.171875,-0.703125 0.375,-1.1875 0.734375,-1.1875 0.15625,0 0.296875,0.078125 0.296875,0.453125 0,0.21875 -0.03125,0.328125 -0.15625,0.84375 z m 0,0"
             id="path1247" />
        </g>
      </g>
      <g
         style="fill:#000000;fill-opacity:1"
         id="g3191">
        <g
           id="use1249"
           transform="translate(99.463997,81.962997)">
          <path
             style="stroke:none"
             d="m 6.84375,-3.265625 c 0.15625,0 0.34375,0 0.34375,-0.1875 C 7.1875,-3.65625 7,-3.65625 6.859375,-3.65625 h -5.96875 c -0.140625,0 -0.328125,0 -0.328125,0.203125 0,0.1875 0.1875,0.1875 0.328125,0.1875 z m 0.015625,1.9375 c 0.140625,0 0.328125,0 0.328125,-0.203125 0,-0.1875 -0.1875,-0.1875 -0.34375,-0.1875 H 0.890625 c -0.140625,0 -0.328125,0 -0.328125,0.1875 0,0.203125 0.1875,0.203125 0.328125,0.203125 z m 0,0"
             id="path1251" />
        </g>
      </g>
      <g
         style="fill:#000000;fill-opacity:1"
         id="g3838">
        <g
           id="use3534"
           transform="translate(109.98251,81.962997)">
          <path
             style="stroke:none"
             d="m 4.578125,-3.1875 c 0,-0.796875 -0.046875,-1.59375 -0.390625,-2.328125 -0.453125,-0.96875 -1.28125,-1.125 -1.6875,-1.125 -0.609375,0 -1.328125,0.265625 -1.75,1.1875 -0.3125,0.6875 -0.359375,1.46875 -0.359375,2.265625 0,0.75 0.03125,1.640625 0.453125,2.40625 0.421875,0.796875 1.15625,1 1.640625,1 0.53125,0 1.296875,-0.203125 1.734375,-1.15625 0.3125,-0.6875 0.359375,-1.46875 0.359375,-2.25 z M 2.484375,0 C 2.09375,0 1.5,-0.25 1.328125,-1.203125 1.21875,-1.796875 1.21875,-2.71875 1.21875,-3.3125 c 0,-0.640625 0,-1.296875 0.078125,-1.828125 0.1875,-1.1875 0.9375,-1.28125 1.1875,-1.28125 0.328125,0 0.984375,0.1875 1.171875,1.171875 0.109375,0.5625 0.109375,1.3125 0.109375,1.9375 0,0.75 0,1.421875 -0.109375,2.0625 C 3.5,-0.296875 2.9375,0 2.484375,0 Z m 0,0"
             id="path1255" />
        </g>
      </g>
      <g
         style="fill:#000000;fill-opacity:1"
         id="g2564">
        <g
           id="use7050"
           transform="translate(114.961,81.962997)">
          <path
             style="stroke:none"
             d="m 1.90625,-0.53125 c 0,-0.28125 -0.234375,-0.53125 -0.515625,-0.53125 -0.296875,0 -0.53125,0.25 -0.53125,0.53125 C 0.859375,-0.234375 1.09375,0 1.390625,0 1.671875,0 1.90625,-0.234375 1.90625,-0.53125 Z m 0,0"
             id="path1259" />
        </g>
      </g>
      <g
         style="fill:#000000;fill-opacity:1"
         id="g9926">
        <g
           id="use4130"
           transform="translate(117.729,81.962997)">
          <path
             style="stroke:none"
             d="m 4.46875,-2 c 0,-1.1875 -0.8125,-2.1875 -1.890625,-2.1875 -0.46875,0 -0.90625,0.15625 -1.265625,0.515625 V -5.625 c 0.203125,0.0625 0.53125,0.125 0.84375,0.125 1.234375,0 1.9375,-0.90625 1.9375,-1.03125 0,-0.0625 -0.03125,-0.109375 -0.109375,-0.109375 0,0 -0.03125,0 -0.078125,0.03125 C 3.703125,-6.515625 3.21875,-6.3125 2.546875,-6.3125 2.15625,-6.3125 1.6875,-6.390625 1.21875,-6.59375 1.140625,-6.625 1.125,-6.625 1.109375,-6.625 1,-6.625 1,-6.546875 1,-6.390625 V -3.4375 c 0,0.171875 0,0.25 0.140625,0.25 0.078125,0 0.09375,-0.015625 0.140625,-0.078125 C 1.390625,-3.421875 1.75,-3.96875 2.5625,-3.96875 c 0.515625,0 0.765625,0.453125 0.84375,0.640625 0.15625,0.375 0.1875,0.75 0.1875,1.25 0,0.359375 0,0.953125 -0.25,1.375 C 3.109375,-0.3125 2.734375,-0.0625 2.28125,-0.0625 c -0.71875,0 -1.296875,-0.53125 -1.46875,-1.109375 0.03125,0 0.0625,0.015625 0.171875,0.015625 0.328125,0 0.5,-0.25 0.5,-0.484375 0,-0.25 -0.171875,-0.5 -0.5,-0.5 C 0.84375,-2.140625 0.5,-2.0625 0.5,-1.609375 0.5,-0.75 1.1875,0.21875 2.296875,0.21875 3.453125,0.21875 4.46875,-0.734375 4.46875,-2 Z m 0,0"
             id="path1263" />
        </g>
      </g>
    </g>
  </g>
  <g
     inkscape:label=""
     transform="matrix(0.975,0,0,0.975,86.09091,-35.207886)"
     id="g4107">
    <g
       id="g8520">
      <g
         style="fill:#000000;fill-opacity:1"
         id="g2888">
        <g
           id="use9791"
           transform="translate(91.925003,81.962997)">
          <path
             style="stroke:none"
             d="m 0.875,-0.59375 c -0.03125,0.15625 -0.09375,0.390625 -0.09375,0.4375 0,0.171875 0.140625,0.265625 0.296875,0.265625 0.125,0 0.296875,-0.078125 0.375,-0.28125 C 1.46875,-0.203125 1.796875,-1.5625 1.84375,-1.75 c 0.078125,-0.328125 0.265625,-1.015625 0.3125,-1.296875 0.046875,-0.125 0.328125,-0.59375 0.5625,-0.8125 0.078125,-0.0625 0.375,-0.328125 0.796875,-0.328125 0.265625,0 0.40625,0.125 0.421875,0.125 -0.296875,0.046875 -0.515625,0.28125 -0.515625,0.546875 0,0.15625 0.109375,0.34375 0.375,0.34375 0.265625,0 0.546875,-0.234375 0.546875,-0.59375 0,-0.34375 -0.3125,-0.640625 -0.828125,-0.640625 C 2.875,-4.40625 2.4375,-3.921875 2.25,-3.640625 2.15625,-4.09375 1.796875,-4.40625 1.328125,-4.40625 0.875,-4.40625 0.6875,-4.015625 0.59375,-3.84375 0.421875,-3.5 0.296875,-2.90625 0.296875,-2.875 c 0,0.109375 0.09375,0.109375 0.109375,0.109375 0.109375,0 0.109375,-0.015625 0.171875,-0.234375 0.171875,-0.703125 0.375,-1.1875 0.734375,-1.1875 0.15625,0 0.296875,0.078125 0.296875,0.453125 0,0.21875 -0.03125,0.328125 -0.15625,0.84375 z m 0,0"
             id="path1267" />
        </g>
      </g>
      <g
         style="fill:#000000;fill-opacity:1"
         id="g549">
        <g
           id="use3077"
           transform="translate(99.463997,81.962997)">
          <path
             style="stroke:none"
             d="m 6.84375,-3.265625 c 0.15625,0 0.34375,0 0.34375,-0.1875 C 7.1875,-3.65625 7,-3.65625 6.859375,-3.65625 h -5.96875 c -0.140625,0 -0.328125,0 -0.328125,0.203125 0,0.1875 0.1875,0.1875 0.328125,0.1875 z m 0.015625,1.9375 c 0.140625,0 0.328125,0 0.328125,-0.203125 0,-0.1875 -0.1875,-0.1875 -0.34375,-0.1875 H 0.890625 c -0.140625,0 -0.328125,0 -0.328125,0.1875 0,0.203125 0.1875,0.203125 0.328125,0.203125 z m 0,0"
             id="path1271" />
        </g>
      </g>
      <g
         style="fill:#000000;fill-opacity:1"
         id="g393">
        <g
           id="use4234"
           transform="translate(109.98,81.962997)">
          <path
             style="stroke:none"
             d="m 6.5625,-2.296875 c 0.171875,0 0.359375,0 0.359375,-0.203125 0,-0.1875 -0.1875,-0.1875 -0.359375,-0.1875 H 1.171875 c -0.171875,0 -0.34375,0 -0.34375,0.1875 0,0.203125 0.171875,0.203125 0.34375,0.203125 z m 0,0"
             id="path1275" />
        </g>
      </g>
      <g
         style="fill:#000000;fill-opacity:1"
         id="g7778">
        <g
           id="use621"
           transform="translate(117.729,81.962997)">
          <path
             style="stroke:none"
             d="m 4.578125,-3.1875 c 0,-0.796875 -0.046875,-1.59375 -0.390625,-2.328125 -0.453125,-0.96875 -1.28125,-1.125 -1.6875,-1.125 -0.609375,0 -1.328125,0.265625 -1.75,1.1875 -0.3125,0.6875 -0.359375,1.46875 -0.359375,2.265625 0,0.75 0.03125,1.640625 0.453125,2.40625 0.421875,0.796875 1.15625,1 1.640625,1 0.53125,0 1.296875,-0.203125 1.734375,-1.15625 0.3125,-0.6875 0.359375,-1.46875 0.359375,-2.25 z M 2.484375,0 C 2.09375,0 1.5,-0.25 1.328125,-1.203125 1.21875,-1.796875 1.21875,-2.71875 1.21875,-3.3125 c 0,-0.640625 0,-1.296875 0.078125,-1.828125 0.1875,-1.1875 0.9375,-1.28125 1.1875,-1.28125 0.328125,0 0.984375,0.1875 1.171875,1.171875 0.109375,0.5625 0.109375,1.3125 0.109375,1.9375 0,0.75 0,1.421875 -0.109375,2.0625 C 3.5,-0.296875 2.9375,0 2.484375,0 Z m 0,0"
             id="path1279" />
        </g>
      </g>
      <g
         style="fill:#000000;fill-opacity:1"
         id="g7272">
        <g
           id="use2091"
           transform="translate(122.71,81.962997)">
          <path
             style="stroke:none"
             d="m 1.90625,-0.53125 c 0,-0.28125 -0.234375,-0.53125 -0.515625,-0.53125 -0.296875,0 -0.53125,0.25 -0.53125,0.53125 C 0.859375,-0.234375 1.09375,0 1.390625,0 1.671875,0 1.90625,-0.234375 1.90625,-0.53125 Z m 0,0"
             id="path1283" />
        </g>
      </g>
      <g
         style="fill:#000000;fill-opacity:1"
         id="g4295">
        <g
           id="use7859"
           transform="translate(125.478,81.962997)">
          <path
             style="stroke:none"
             d="m 4.46875,-2 c 0,-1.1875 -0.8125,-2.1875 -1.890625,-2.1875 -0.46875,0 -0.90625,0.15625 -1.265625,0.515625 V -5.625 c 0.203125,0.0625 0.53125,0.125 0.84375,0.125 1.234375,0 1.9375,-0.90625 1.9375,-1.03125 0,-0.0625 -0.03125,-0.109375 -0.109375,-0.109375 0,0 -0.03125,0 -0.078125,0.03125 C 3.703125,-6.515625 3.21875,-6.3125 2.546875,-6.3125 2.15625,-6.3125 1.6875,-6.390625 1.21875,-6.59375 1.140625,-6.625 1.125,-6.625 1.109375,-6.625 1,-6.625 1,-6.546875 1,-6.390625 V -3.4375 c 0,0.171875 0,0.25 0.140625,0.25 0.078125,0 0.09375,-0.015625 0.140625,-0.078125 C 1.390625,-3.421875 1.75,-3.96875 2.5625,-3.96875 c 0.515625,0 0.765625,0.453125 0.84375,0.640625 0.15625,0.375 0.1875,0.75 0.1875,1.25 0,0.359375 0,0.953125 -0.25,1.375 C 3.109375,-0.3125 2.734375,-0.0625 2.28125,-0.0625 c -0.71875,0 -1.296875,-0.53125 -1.46875,-1.109375 0.03125,0 0.0625,0.015625 0.171875,0.015625 0.328125,0 0.5,-0.25 0.5,-0.484375 0,-0.25 -0.171875,-0.5 -0.5,-0.5 C 0.84375,-2.140625 0.5,-2.0625 0.5,-1.609375 0.5,-0.75 1.1875,0.21875 2.296875,0.21875 3.453125,0.21875 4.46875,-0.734375 4.46875,-2 Z m 0,0"
             id="path1287" />
        </g>
      </g>
    </g>
  </g>
  <g
     id="path4389">
    <path
       style="color:#000000;fill:#000000;-inkscape-stroke:none"
       d="m 190.98437,46.164062 v 14.791016 h 0.75 V 46.164062 Z"
       id="path1679" />
    <g
       id="g1669">
      <g
         id="path1671">
        <path
           style="color:#000000;fill:#000000;fill-rule:evenodd;stroke-width:0.3pt;stroke-linejoin:round;-inkscape-stroke:none"
           d="m 191.35879,57.955631 -1.5,-1.5 1.5,5.25 1.5,-5.25 z"
           id="path1675" />
        <path
           style="color:#000000;fill:#000000;fill-rule:evenodd;stroke-linejoin:round;-inkscape-stroke:none"
           d="m 192.87695,56.255859 a 0.20002,0.20002 0 0 0 -0.16015,0.05859 L 191.35937,57.671875 190,56.314453 a 0.20002,0.20002 0 0 0 -0.33398,0.195313 l 1.5,5.25 a 0.20002,0.20002 0 0 0 0.38476,0 l 1.5,-5.25 a 0.20002,0.20002 0 0 0 -0.17383,-0.253907 z m -2.61328,0.888672 0.95313,0.953125 a 0.20002,0.20002 0 0 0 0.2832,0 l 0.95312,-0.953125 -1.09375,3.832031 z"
           id="path1677" />
      </g>
    </g>
  </g>
  <g
     id="path1633">
    <path
       style="color:#000000;fill:#000000;-inkscape-stroke:none"
       d="m 190.98437,12.125 v 14.792969 h 0.75 V 12.125 Z"
       id="path1665" />
    <g
       id="g1655">
      <g
         id="path1657">
        <path
           style="color:#000000;fill:#000000;fill-rule:evenodd;stroke-width:0.3pt;stroke-linejoin:round;-inkscape-stroke:none"
           d="m 191.35879,15.125361 1.5,1.5 -1.5,-5.25 -1.5,5.25 z"
           id="path1661" />
        <path
           style="color:#000000;fill:#000000;fill-rule:evenodd;stroke-linejoin:round;-inkscape-stroke:none"
           d="m 191.35937,11.175781 a 0.20002,0.20002 0 0 0 -0.19335,0.144532 l -1.5,5.249999 A 0.20002,0.20002 0 0 0 190,16.767578 l 1.35937,-1.357422 1.35743,1.357422 a 0.20002,0.20002 0 0 0 0.33398,-0.197266 l -1.5,-5.249999 a 0.20002,0.20002 0 0 0 -0.19141,-0.144532 z m 0,0.927735 1.09571,3.835937 L 191.5,14.984375 a 0.20002,0.20002 0 0 0 -0.2832,0 l -0.95508,0.955078 z"
           id="path1663" />
      </g>
    </g>
  </g>
</svg>
