<?xml version="1.0" encoding="UTF-8" standalone="no"?>
<svg
   xmlns:dc="http://purl.org/dc/elements/1.1/"
   xmlns:cc="http://creativecommons.org/ns#"
   xmlns:rdf="http://www.w3.org/1999/02/22-rdf-syntax-ns#"
   xmlns:svg="http://www.w3.org/2000/svg"
   xmlns="http://www.w3.org/2000/svg"
   xmlns:xlink="http://www.w3.org/1999/xlink"
   xmlns:sodipodi="http://sodipodi.sourceforge.net/DTD/sodipodi-0.dtd"
   xmlns:inkscape="http://www.inkscape.org/namespaces/inkscape"
   sodipodi:docname="brake_deflections_anhedra33_Bl025_Br1.svg"
   inkscape:version="1.0 (4035a4fb49, 2020-05-01)"
   id="svg1136"
   version="1.1"
   viewBox="0 0 126.98734 41.482967"
   height="41.482967mm"
   width="126.98734mm">
  <defs
     id="defs1130">
    <g
       id="g4531">
      <symbol
         id="symbol7516"
         overflow="visible">
        <path
           id="path3202"
           d=""
           style="stroke:none" />
      </symbol>
      <symbol
         id="symbol6528"
         overflow="visible">
        <path
           id="path1579"
           d="m 4.84375,-3.796875 c 0.046875,-0.140625 0.046875,-0.15625 0.046875,-0.234375 0,-0.171875 -0.140625,-0.265625 -0.296875,-0.265625 -0.09375,0 -0.25,0.0625 -0.34375,0.203125 -0.015625,0.0625 -0.109375,0.359375 -0.140625,0.546875 -0.078125,0.25 -0.140625,0.53125 -0.203125,0.796875 l -0.453125,1.796875 c -0.03125,0.140625 -0.46875,0.84375 -1.125,0.84375 -0.5,0 -0.609375,-0.4375 -0.609375,-0.8125 C 1.71875,-1.375 1.890625,-2 2.21875,-2.875 2.375,-3.28125 2.421875,-3.390625 2.421875,-3.59375 c 0,-0.4375 -0.3125,-0.8125 -0.8125,-0.8125 -0.953125,0 -1.3125,1.453125 -1.3125,1.53125 0,0.109375 0.09375,0.109375 0.109375,0.109375 0.109375,0 0.109375,-0.03125 0.15625,-0.1875 0.28125,-0.9375 0.671875,-1.234375 1.015625,-1.234375 0.078125,0 0.25,0 0.25,0.3125 0,0.25 -0.109375,0.515625 -0.171875,0.703125 -0.40625,1.0625 -0.578125,1.625 -0.578125,2.09375 0,0.890625 0.625,1.1875 1.21875,1.1875 0.390625,0 0.71875,-0.171875 1,-0.453125 -0.125,0.515625 -0.25,1.015625 -0.640625,1.546875 -0.265625,0.328125 -0.640625,0.625 -1.09375,0.625 -0.140625,0 -0.59375,-0.03125 -0.765625,-0.421875 0.15625,0 0.296875,0 0.421875,-0.125 C 1.328125,1.203125 1.421875,1.0625 1.421875,0.875 1.421875,0.5625 1.15625,0.53125 1.0625,0.53125 0.828125,0.53125 0.5,0.6875 0.5,1.171875 c 0,0.5 0.4375,0.875 1.0625,0.875 1.015625,0 2.046875,-0.90625 2.328125,-2.03125 z m 0,0"
           style="stroke:none" />
      </symbol>
    </g>
    <g
       id="g5037">
      <symbol
         id="symbol8888"
         overflow="visible">
        <path
           id="path7739"
           d=""
           style="stroke:none" />
      </symbol>
      <symbol
         id="symbol6519"
         overflow="visible">
        <path
           id="path6281"
           d="m 1.328125,-0.828125 c 0.53125,-0.578125 0.828125,-0.828125 1.1875,-1.140625 0,0 0.609375,-0.53125 0.96875,-0.890625 C 4.4375,-3.78125 4.65625,-4.265625 4.65625,-4.3125 c 0,-0.09375 -0.09375,-0.09375 -0.109375,-0.09375 -0.078125,0 -0.09375,0.015625 -0.15625,0.109375 -0.296875,0.484375 -0.5,0.640625 -0.734375,0.640625 -0.25,0 -0.359375,-0.15625 -0.515625,-0.328125 -0.1875,-0.21875 -0.359375,-0.421875 -0.6875,-0.421875 -0.75,0 -1.203125,0.921875 -1.203125,1.140625 0,0.046875 0.03125,0.109375 0.109375,0.109375 0.09375,0 0.109375,-0.046875 0.140625,-0.109375 0.1875,-0.46875 0.765625,-0.46875 0.84375,-0.46875 0.203125,0 0.390625,0.0625 0.625,0.140625 0.40625,0.15625 0.515625,0.15625 0.765625,0.15625 -0.359375,0.421875 -1.1875,1.140625 -1.375,1.296875 l -0.90625,0.84375 C 0.78125,-0.625 0.421875,-0.0625 0.421875,0.015625 c 0,0.09375 0.109375,0.09375 0.125,0.09375 0.078125,0 0.09375,-0.015625 0.15625,-0.125 0.234375,-0.359375 0.53125,-0.625 0.859375,-0.625 0.21875,0 0.328125,0.09375 0.578125,0.375 0.15625,0.21875 0.34375,0.375 0.625,0.375 1,0 1.578125,-1.265625 1.578125,-1.53125 0,-0.046875 -0.046875,-0.109375 -0.125,-0.109375 -0.09375,0 -0.109375,0.0625 -0.140625,0.140625 C 3.84375,-0.75 3.203125,-0.5625 2.875,-0.5625 c -0.1875,0 -0.375,-0.0625 -0.578125,-0.125 -0.34375,-0.125 -0.5,-0.171875 -0.703125,-0.171875 -0.015625,0 -0.171875,0 -0.265625,0.03125 z m 0,0"
           style="stroke:none" />
      </symbol>
    </g>
    <clipPath
       id="pda947e81e9">
      <rect
         height="842.40002"
         width="842.40002"
         x="10.8"
         y="10.8"
         id="rect1163" />
    </clipPath>
    <clipPath
       id="pda947e81e9-3">
      <rect
         height="842.40002"
         width="842.40002"
         x="10.8"
         y="10.8"
         id="rect1163-6" />
    </clipPath>
    <marker
       inkscape:isstock="true"
       style="overflow:visible"
       id="Arrow1Lstart"
       refX="0"
       refY="0"
       orient="auto"
       inkscape:stockid="Arrow1Lstart">
      <path
         transform="matrix(0.8,0,0,0.8,10,0)"
         style="fill:#000000;fill-opacity:1;fill-rule:evenodd;stroke:#000000;stroke-width:1pt;stroke-opacity:1"
         d="M 0,0 5,-5 -12.5,0 5,5 Z"
         id="path2855" />
    </marker>
    <marker
       inkscape:isstock="true"
       style="overflow:visible"
       id="Arrow1Lend"
       refX="0"
       refY="0"
       orient="auto"
       inkscape:stockid="Arrow1Lend">
      <path
         transform="matrix(-0.8,0,0,-0.8,-10,0)"
         style="fill:#000000;fill-opacity:1;fill-rule:evenodd;stroke:#000000;stroke-width:1pt;stroke-opacity:1"
         d="M 0,0 5,-5 -12.5,0 5,5 Z"
         id="path2858" />
    </marker>
    <clipPath
       id="pe7d02b36b0">
      <rect
         height="842.40002"
         width="842.40002"
         x="10.8"
         y="10.8"
         id="rect1139" />
    </clipPath>
    <clipPath
       id="pe7d02b36b0-7">
      <rect
         height="842.40002"
         width="842.40002"
         x="10.8"
         y="10.8"
         id="rect1139-5" />
    </clipPath>
  </defs>
  <sodipodi:namedview
     inkscape:window-maximized="1"
     inkscape:window-y="27"
     inkscape:window-x="0"
     inkscape:window-height="1376"
     inkscape:window-width="2560"
     showgrid="false"
     inkscape:document-rotation="0"
     inkscape:current-layer="layer1"
     inkscape:document-units="mm"
     inkscape:cy="64.350993"
     inkscape:cx="223.56817"
     inkscape:zoom="3"
     inkscape:pageshadow="2"
     inkscape:pageopacity="0.0"
     borderopacity="1.0"
     bordercolor="#666666"
     pagecolor="#ffffff"
     id="base" />
  <metadata
     id="metadata1133">
    <rdf:RDF>
      <cc:Work
         rdf:about="">
        <dc:format>image/svg+xml</dc:format>
        <dc:type
           rdf:resource="http://purl.org/dc/dcmitype/StillImage" />
        <dc:title></dc:title>
      </cc:Work>
    </rdf:RDF>
  </metadata>
  <g
     transform="translate(-53.622665,-192.51675)"
     id="layer1"
     inkscape:groupmode="layer"
     inkscape:label="Layer 1">
    <g
       style="stroke-width:2"
       inkscape:label=""
       transform="matrix(0.5,0,0,0.5,17.996326,153.73838)"
       id="g1710">
      <g
         style="stroke-width:2"
         id="g8680">
        <g
           id="g4591"
           style="fill:#000000;fill-opacity:1;stroke-width:2">
          <use
             style="stroke-width:2"
             height="100%"
             width="100%"
             id="use149"
             y="81.962997"
             x="91.925003"
             xlink:href="#symbol6528" />
        </g>
      </g>
    </g>
    <g
       style="stroke-width:2"
       inkscape:label=""
       transform="matrix(0.5,0,0,0.5,7.57325,164.26635)"
       id="g1743">
      <g
         style="stroke-width:2"
         id="g9683">
        <g
           id="g513"
           style="fill:#000000;fill-opacity:1;stroke-width:2">
          <use
             style="stroke-width:2"
             height="100%"
             width="100%"
             id="use63"
             y="81.962997"
             x="91.925003"
             xlink:href="#symbol6519" />
        </g>
      </g>
    </g>
    <path
       d="m 62.98564,193.98051 h -8.019358 v 8.01936"
       style="fill:none;stroke:#000000;stroke-width:0.264583px;stroke-linecap:butt;stroke-linejoin:miter;stroke-opacity:1;marker-start:url(#Arrow1Lstart);marker-end:url(#Arrow1Lend)"
       id="path2851" />
    <path
       transform="matrix(0.31156333,0,0,0.31145747,-21.019245,80.301007)"
       id="path1021"
       clip-path="url(#pe7d02b36b0)"
       style="fill:none;stroke:#999999;stroke-width:0.90598;stroke-linecap:butt;stroke-linejoin:round;stroke-dasharray:3.35213, 1.44957;stroke-dashoffset:0"
       d="m 239.98754,493.22557 c 7.12915,-16.44876 15.93065,-32.22658 26.87872,-46.45056 15.91501,-20.76314 35.65821,-38.55753 57.88219,-52.35022 21.47031,-13.33256 45.22894,-22.96787 69.91618,-28.37435 24.78374,-5.49324 50.49377,-6.70552 75.69657,-3.70535 24.7359,2.98102 48.99076,10.03214 71.40326,20.92726 24.99577,12.09334 47.68818,28.94959 66.39761,49.47487 12.38396,13.53833 22.95372,28.72458 31.31912,45.05627 2.61761,5.05082 4.99658,10.22082 7.29884,15.42208" />
    <path
       transform="matrix(0.31156333,0,0,0.31145747,-21.019245,80.301007)"
       id="path1036"
       clip-path="url(#pe7d02b36b0-7)"
       style="fill:none;stroke:#000000;stroke-width:0.90598;stroke-linecap:butt;stroke-linejoin:round;stroke-dasharray:3.35213, 1.44957;stroke-dashoffset:0"
       d="m 239.98754,493.22557 c 8.34824,-16.59169 19.32943,-31.74329 31.54116,-45.69267 18.99208,-21.50369 40.78955,-40.66533 65.18605,-55.8267 17.06246,-10.6101 35.51333,-19.0861 54.89886,-24.45025 12.27112,-3.35731 24.89742,-5.33226 37.59484,-6.06378 14.65418,-0.90371 29.41625,-0.46805 43.96113,1.56678 16.05786,2.50355 31.10842,9.36207 44.78327,17.95806 14.49379,9.14654 27.74433,20.0737 41.07422,30.80296 16.1149,12.99904 32.08961,26.19983 47.1611,40.40899 10.05293,9.43761 20.10849,18.88363 29.81428,28.67906 3.89269,3.9375 7.65523,8.03076 10.77758,12.61755" />
  </g>
</svg>
