<?xml version="1.0" encoding="UTF-8" standalone="no"?>
<svg
   xmlns:dc="http://purl.org/dc/elements/1.1/"
   xmlns:cc="http://creativecommons.org/ns#"
   xmlns:rdf="http://www.w3.org/1999/02/22-rdf-syntax-ns#"
   xmlns:svg="http://www.w3.org/2000/svg"
   xmlns="http://www.w3.org/2000/svg"
   xmlns:xlink="http://www.w3.org/1999/xlink"
   xmlns:sodipodi="http://sodipodi.sourceforge.net/DTD/sodipodi-0.dtd"
   xmlns:inkscape="http://www.inkscape.org/namespaces/inkscape"
   sodipodi:docname="brake_deflections_anhedra23_Bl025_Br1.svg"
   inkscape:version="1.0 (4035a4fb49, 2020-05-01)"
   id="svg1136"
   version="1.1"
   viewBox="0 0 126.99975 27.22406"
   height="27.22406mm"
   width="126.99976mm">
  <defs
     id="defs1130">
    <g
       id="g4531">
      <symbol
         id="symbol7516"
         overflow="visible">
        <path
           id="path3202"
           d=""
           style="stroke:none" />
      </symbol>
      <symbol
         id="symbol6528"
         overflow="visible">
        <path
           id="path1579"
           d="m 4.84375,-3.796875 c 0.046875,-0.140625 0.046875,-0.15625 0.046875,-0.234375 0,-0.171875 -0.140625,-0.265625 -0.296875,-0.265625 -0.09375,0 -0.25,0.0625 -0.34375,0.203125 -0.015625,0.0625 -0.109375,0.359375 -0.140625,0.546875 -0.078125,0.25 -0.140625,0.53125 -0.203125,0.796875 l -0.453125,1.796875 c -0.03125,0.140625 -0.46875,0.84375 -1.125,0.84375 -0.5,0 -0.609375,-0.4375 -0.609375,-0.8125 C 1.71875,-1.375 1.890625,-2 2.21875,-2.875 2.375,-3.28125 2.421875,-3.390625 2.421875,-3.59375 c 0,-0.4375 -0.3125,-0.8125 -0.8125,-0.8125 -0.953125,0 -1.3125,1.453125 -1.3125,1.53125 0,0.109375 0.09375,0.109375 0.109375,0.109375 0.109375,0 0.109375,-0.03125 0.15625,-0.1875 0.28125,-0.9375 0.671875,-1.234375 1.015625,-1.234375 0.078125,0 0.25,0 0.25,0.3125 0,0.25 -0.109375,0.515625 -0.171875,0.703125 -0.40625,1.0625 -0.578125,1.625 -0.578125,2.09375 0,0.890625 0.625,1.1875 1.21875,1.1875 0.390625,0 0.71875,-0.171875 1,-0.453125 -0.125,0.515625 -0.25,1.015625 -0.640625,1.546875 -0.265625,0.328125 -0.640625,0.625 -1.09375,0.625 -0.140625,0 -0.59375,-0.03125 -0.765625,-0.421875 0.15625,0 0.296875,0 0.421875,-0.125 C 1.328125,1.203125 1.421875,1.0625 1.421875,0.875 1.421875,0.5625 1.15625,0.53125 1.0625,0.53125 0.828125,0.53125 0.5,0.6875 0.5,1.171875 c 0,0.5 0.4375,0.875 1.0625,0.875 1.015625,0 2.046875,-0.90625 2.328125,-2.03125 z m 0,0"
           style="stroke:none" />
      </symbol>
    </g>
    <g
       id="g5037">
      <symbol
         id="symbol8888"
         overflow="visible">
        <path
           id="path7739"
           d=""
           style="stroke:none" />
      </symbol>
      <symbol
         id="symbol6519"
         overflow="visible">
        <path
           id="path6281"
           d="m 1.328125,-0.828125 c 0.53125,-0.578125 0.828125,-0.828125 1.1875,-1.140625 0,0 0.609375,-0.53125 0.96875,-0.890625 C 4.4375,-3.78125 4.65625,-4.265625 4.65625,-4.3125 c 0,-0.09375 -0.09375,-0.09375 -0.109375,-0.09375 -0.078125,0 -0.09375,0.015625 -0.15625,0.109375 -0.296875,0.484375 -0.5,0.640625 -0.734375,0.640625 -0.25,0 -0.359375,-0.15625 -0.515625,-0.328125 -0.1875,-0.21875 -0.359375,-0.421875 -0.6875,-0.421875 -0.75,0 -1.203125,0.921875 -1.203125,1.140625 0,0.046875 0.03125,0.109375 0.109375,0.109375 0.09375,0 0.109375,-0.046875 0.140625,-0.109375 0.1875,-0.46875 0.765625,-0.46875 0.84375,-0.46875 0.203125,0 0.390625,0.0625 0.625,0.140625 0.40625,0.15625 0.515625,0.15625 0.765625,0.15625 -0.359375,0.421875 -1.1875,1.140625 -1.375,1.296875 l -0.90625,0.84375 C 0.78125,-0.625 0.421875,-0.0625 0.421875,0.015625 c 0,0.09375 0.109375,0.09375 0.125,0.09375 0.078125,0 0.09375,-0.015625 0.15625,-0.125 0.234375,-0.359375 0.53125,-0.625 0.859375,-0.625 0.21875,0 0.328125,0.09375 0.578125,0.375 0.15625,0.21875 0.34375,0.375 0.625,0.375 1,0 1.578125,-1.265625 1.578125,-1.53125 0,-0.046875 -0.046875,-0.109375 -0.125,-0.109375 -0.09375,0 -0.109375,0.0625 -0.140625,0.140625 C 3.84375,-0.75 3.203125,-0.5625 2.875,-0.5625 c -0.1875,0 -0.375,-0.0625 -0.578125,-0.125 -0.34375,-0.125 -0.5,-0.171875 -0.703125,-0.171875 -0.015625,0 -0.171875,0 -0.265625,0.03125 z m 0,0"
           style="stroke:none" />
      </symbol>
    </g>
    <clipPath
       id="pda947e81e9">
      <rect
         height="842.40002"
         width="842.40002"
         x="10.8"
         y="10.8"
         id="rect1163" />
    </clipPath>
    <clipPath
       id="pda947e81e9-3">
      <rect
         height="842.40002"
         width="842.40002"
         x="10.8"
         y="10.8"
         id="rect1163-6" />
    </clipPath>
    <marker
       inkscape:isstock="true"
       style="overflow:visible"
       id="Arrow1Lstart"
       refX="0"
       refY="0"
       orient="auto"
       inkscape:stockid="Arrow1Lstart">
      <path
         transform="matrix(0.8,0,0,0.8,10,0)"
         style="fill:#000000;fill-opacity:1;fill-rule:evenodd;stroke:#000000;stroke-width:1pt;stroke-opacity:1"
         d="M 0,0 5,-5 -12.5,0 5,5 Z"
         id="path2855" />
    </marker>
    <marker
       inkscape:isstock="true"
       style="overflow:visible"
       id="Arrow1Lend"
       refX="0"
       refY="0"
       orient="auto"
       inkscape:stockid="Arrow1Lend">
      <path
         transform="matrix(-0.8,0,0,-0.8,-10,0)"
         style="fill:#000000;fill-opacity:1;fill-rule:evenodd;stroke:#000000;stroke-width:1pt;stroke-opacity:1"
         d="M 0,0 5,-5 -12.5,0 5,5 Z"
         id="path2858" />
    </marker>
  </defs>
  <sodipodi:namedview
     inkscape:window-maximized="1"
     inkscape:window-y="27"
     inkscape:window-x="0"
     inkscape:window-height="1376"
     inkscape:window-width="2560"
     showgrid="false"
     inkscape:document-rotation="0"
     inkscape:current-layer="layer1"
     inkscape:document-units="mm"
     inkscape:cy="18.335515"
     inkscape:cx="263.3048"
     inkscape:zoom="3"
     inkscape:pageshadow="2"
     inkscape:pageopacity="0.0"
     borderopacity="1.0"
     bordercolor="#666666"
     pagecolor="#ffffff"
     id="base" />
  <metadata
     id="metadata1133">
    <rdf:RDF>
      <cc:Work
         rdf:about="">
        <dc:format>image/svg+xml</dc:format>
        <dc:type
           rdf:resource="http://purl.org/dc/dcmitype/StillImage" />
        <dc:title></dc:title>
      </cc:Work>
    </rdf:RDF>
  </metadata>
  <g
     transform="translate(-43.109015,-204.69167)"
     id="layer1"
     inkscape:groupmode="layer"
     inkscape:label="Layer 1">
    <g
       style="stroke-width:2"
       inkscape:label=""
       transform="matrix(0.5,0,0,0.5,7.5727819,165.9133)"
       id="g1710">
      <g
         style="stroke-width:2"
         id="g8680">
        <g
           id="g4591"
           style="fill:#000000;fill-opacity:1;stroke-width:2">
          <use
             style="stroke-width:2"
             height="100%"
             width="100%"
             id="use149"
             y="81.962997"
             x="91.925003"
             xlink:href="#symbol6528" />
        </g>
      </g>
    </g>
    <g
       style="stroke-width:2"
       inkscape:label=""
       transform="matrix(0.5,0,0,0.5,-2.8502948,176.44127)"
       id="g1743">
      <g
         style="stroke-width:2"
         id="g9683">
        <g
           id="g513"
           style="fill:#000000;fill-opacity:1;stroke-width:2">
          <use
             style="stroke-width:2"
             height="100%"
             width="100%"
             id="use63"
             y="81.962997"
             x="91.925003"
             xlink:href="#symbol6519" />
        </g>
      </g>
    </g>
    <path
       transform="matrix(0.31103247,0,0,0.31079411,-31.297825,85.818166)"
       id="path1045"
       clip-path="url(#pda947e81e9)"
       style="fill:none;stroke:#000000;stroke-width:0.90772;stroke-linecap:butt;stroke-linejoin:round;stroke-dasharray:3.35856, 1.45235;stroke-dashoffset:0"
       d="m 239.64034,469.78753 c 5.42178,-12.37494 13.7672,-23.35929 23.86656,-32.29402 14.42406,-12.95902 31.52494,-22.6112 49.28798,-30.20457 27.16149,-11.49292 56.1576,-18.24234 85.39036,-21.7177 34.45817,-4.01596 69.46857,-3.46516 103.75965,1.82427 27.92201,4.35309 55.51922,11.84449 81.10509,23.9791 17.2742,8.29993 33.78011,18.78327 47.0324,32.75777 7.06725,7.52911 12.8775,16.20147 17.04485,25.65515" />
    <path
       transform="matrix(0.31103247,0,0,0.31079411,-31.297825,85.818166)"
       id="path1060"
       clip-path="url(#pda947e81e9-3)"
       style="fill:none;stroke:#000000;stroke-width:0.90772;stroke-linecap:butt;stroke-linejoin:round;stroke-dasharray:3.35856, 1.45235;stroke-dashoffset:0"
       d="m 239.64034,469.78753 c 6.56326,-12.01481 16.61708,-21.68972 27.28732,-30.07696 19.41875,-15.06353 41.28032,-26.78203 64.03152,-35.96247 28.6703,-11.46596 59.15862,-18.56894 90.02377,-20.15914 18.01475,-1.02263 36.11163,-0.86818 54.09186,0.67101 15.94718,1.57638 31.46271,6.19406 46.21021,12.34925 17.66753,7.36278 34.32862,16.85449 51.11441,25.99173 15.30204,8.41416 30.64712,16.77972 45.37647,26.17729 8.10784,5.1616 16.41102,10.0697 24.05669,15.91088 1.92473,1.52759 3.73439,3.19544 5.29464,5.09841" />
    <path
       d="m 52.562096,206.15543 h -8.019358 v 8.01936"
       style="fill:none;stroke:#000000;stroke-width:0.264583px;stroke-linecap:butt;stroke-linejoin:miter;stroke-opacity:1;marker-start:url(#Arrow1Lstart);marker-end:url(#Arrow1Lend)"
       id="path2851" />
  </g>
</svg>
