<?xml version="1.0" encoding="UTF-8" standalone="no"?>
<svg
   xmlns:dc="http://purl.org/dc/elements/1.1/"
   xmlns:cc="http://creativecommons.org/ns#"
   xmlns:rdf="http://www.w3.org/1999/02/22-rdf-syntax-ns#"
   xmlns:svg="http://www.w3.org/2000/svg"
   xmlns="http://www.w3.org/2000/svg"
   xmlns:sodipodi="http://sodipodi.sourceforge.net/DTD/sodipodi-0.dtd"
   xmlns:inkscape="http://www.inkscape.org/namespaces/inkscape"
   width="53.458786mm"
   height="20.089119mm"
   viewBox="0 0 53.458787 20.089119"
   version="1.1"
   id="svg8"
   inkscape:version="1.0 (4035a4fb49, 2020-05-01)"
   sodipodi:docname="chord_surface_yz.svg">
  <defs
     id="defs2">
    <marker
       inkscape:stockid="Arrow1Mend"
       orient="auto"
       refY="0"
       refX="0"
       id="marker1115"
       style="overflow:visible"
       inkscape:isstock="true">
      <path
         id="path1113"
         d="M 0,0 5,-5 -12.5,0 5,5 Z"
         style="fill:#000000;fill-opacity:1;fill-rule:evenodd;stroke:#000000;stroke-width:1pt;stroke-opacity:1"
         transform="matrix(-0.4,0,0,-0.4,-4,0)" />
    </marker>
    <marker
       inkscape:collect="always"
       inkscape:isstock="true"
       style="overflow:visible"
       id="Arrow1Mend"
       refX="0"
       refY="0"
       orient="auto"
       inkscape:stockid="Arrow1Mend">
      <path
         transform="matrix(-0.4,0,0,-0.4,-4,0)"
         style="fill:#000000;fill-opacity:1;fill-rule:evenodd;stroke:#000000;stroke-width:1pt;stroke-opacity:1"
         d="M 0,0 5,-5 -12.5,0 5,5 Z"
         id="path846" />
    </marker>
    <g
       id="g1759">
      <symbol
         id="symbol4355"
         overflow="visible">
        <path
           id="path2412"
           d=""
           style="stroke:none" />
      </symbol>
      <symbol
         id="symbol9682"
         overflow="visible">
        <path
           id="path3515"
           d="m 3.953125,-3.78125 c -0.171875,0 -0.296875,0 -0.4375,0.125 -0.171875,0.15625 -0.1875,0.328125 -0.1875,0.390625 0,0.25 0.1875,0.359375 0.375,0.359375 0.28125,0 0.546875,-0.25 0.546875,-0.640625 0,-0.484375 -0.46875,-0.859375 -1.171875,-0.859375 -1.34375,0 -2.671875,1.421875 -2.671875,2.828125 0,0.90625 0.578125,1.6875 1.625,1.6875 1.421875,0 2.25,-1.0625 2.25,-1.171875 0,-0.0625 -0.046875,-0.140625 -0.109375,-0.140625 -0.0625,0 -0.078125,0.03125 -0.140625,0.109375 -0.78125,0.984375 -1.875,0.984375 -1.984375,0.984375 -0.625,0 -0.90625,-0.484375 -0.90625,-1.09375 0,-0.40625 0.203125,-1.375 0.546875,-1.984375 0.3125,-0.578125 0.859375,-1 1.40625,-1 0.328125,0 0.71875,0.125 0.859375,0.40625 z m 0,0"
           style="stroke:none" />
      </symbol>
      <symbol
         id="symbol2418"
         overflow="visible">
        <path
           id="path9689"
           d="m 4.84375,-3.796875 c 0.046875,-0.140625 0.046875,-0.15625 0.046875,-0.234375 0,-0.171875 -0.140625,-0.265625 -0.296875,-0.265625 -0.09375,0 -0.25,0.0625 -0.34375,0.203125 -0.015625,0.0625 -0.109375,0.359375 -0.140625,0.546875 -0.078125,0.25 -0.140625,0.53125 -0.203125,0.796875 l -0.453125,1.796875 c -0.03125,0.140625 -0.46875,0.84375 -1.125,0.84375 -0.5,0 -0.609375,-0.4375 -0.609375,-0.8125 C 1.71875,-1.375 1.890625,-2 2.21875,-2.875 2.375,-3.28125 2.421875,-3.390625 2.421875,-3.59375 c 0,-0.4375 -0.3125,-0.8125 -0.8125,-0.8125 -0.953125,0 -1.3125,1.453125 -1.3125,1.53125 0,0.109375 0.09375,0.109375 0.109375,0.109375 0.109375,0 0.109375,-0.03125 0.15625,-0.1875 0.28125,-0.9375 0.671875,-1.234375 1.015625,-1.234375 0.078125,0 0.25,0 0.25,0.3125 0,0.25 -0.109375,0.515625 -0.171875,0.703125 -0.40625,1.0625 -0.578125,1.625 -0.578125,2.09375 0,0.890625 0.625,1.1875 1.21875,1.1875 0.390625,0 0.71875,-0.171875 1,-0.453125 -0.125,0.515625 -0.25,1.015625 -0.640625,1.546875 -0.265625,0.328125 -0.640625,0.625 -1.09375,0.625 -0.140625,0 -0.59375,-0.03125 -0.765625,-0.421875 0.15625,0 0.296875,0 0.421875,-0.125 C 1.328125,1.203125 1.421875,1.0625 1.421875,0.875 1.421875,0.5625 1.15625,0.53125 1.0625,0.53125 0.828125,0.53125 0.5,0.6875 0.5,1.171875 c 0,0.5 0.4375,0.875 1.0625,0.875 1.015625,0 2.046875,-0.90625 2.328125,-2.03125 z m 0,0"
           style="stroke:none" />
      </symbol>
    </g>
    <g
       id="g863">
      <symbol
         id="symbol4239"
         overflow="visible">
        <path
           id="path4039"
           d=""
           style="stroke:none" />
      </symbol>
      <symbol
         id="symbol1053"
         overflow="visible">
        <path
           id="path8324"
           d="M 2.75,-1.859375 V -2.4375 H 0.109375 v 0.578125 z m 0,0"
           style="stroke:none" />
      </symbol>
      <symbol
         id="symbol8619"
         overflow="visible">
        <path
           id="path892"
           d="m 2.9375,-6.375 c 0,-0.25 0,-0.265625 -0.234375,-0.265625 C 2.078125,-6 1.203125,-6 0.890625,-6 v 0.3125 c 0.203125,0 0.78125,0 1.296875,-0.265625 v 5.171875 c 0,0.359375 -0.03125,0.46875 -0.921875,0.46875 h -0.3125 V 0 c 0.34375,-0.03125 1.203125,-0.03125 1.609375,-0.03125 0.390625,0 1.265625,0 1.609375,0.03125 v -0.3125 h -0.3125 c -0.90625,0 -0.921875,-0.109375 -0.921875,-0.46875 z m 0,0"
           style="stroke:none" />
      </symbol>
    </g>
    <g
       id="g3182">
      <symbol
         overflow="visible"
         id="symbol4410">
        <path
           style="stroke:none"
           d=""
           id="path7125" />
      </symbol>
      <symbol
         overflow="visible"
         id="symbol8580">
        <path
           style="stroke:none"
           d="m 3.953125,-3.78125 c -0.171875,0 -0.296875,0 -0.4375,0.125 -0.171875,0.15625 -0.1875,0.328125 -0.1875,0.390625 0,0.25 0.1875,0.359375 0.375,0.359375 0.28125,0 0.546875,-0.25 0.546875,-0.640625 0,-0.484375 -0.46875,-0.859375 -1.171875,-0.859375 -1.34375,0 -2.671875,1.421875 -2.671875,2.828125 0,0.90625 0.578125,1.6875 1.625,1.6875 1.421875,0 2.25,-1.0625 2.25,-1.171875 0,-0.0625 -0.046875,-0.140625 -0.109375,-0.140625 -0.0625,0 -0.078125,0.03125 -0.140625,0.109375 -0.78125,0.984375 -1.875,0.984375 -1.984375,0.984375 -0.625,0 -0.90625,-0.484375 -0.90625,-1.09375 0,-0.40625 0.203125,-1.375 0.546875,-1.984375 0.3125,-0.578125 0.859375,-1 1.40625,-1 0.328125,0 0.71875,0.125 0.859375,0.40625 z m 0,0"
           id="path150" />
      </symbol>
      <symbol
         overflow="visible"
         id="symbol4199">
        <path
           style="stroke:none"
           d="M 3.890625,-3.734375 C 3.625,-3.71875 3.421875,-3.5 3.421875,-3.28125 c 0,0.140625 0.09375,0.296875 0.3125,0.296875 0.21875,0 0.453125,-0.171875 0.453125,-0.5625 C 4.1875,-4 3.765625,-4.40625 3,-4.40625 c -1.3125,0 -1.6875,1.015625 -1.6875,1.453125 0,0.78125 0.734375,0.921875 1.03125,0.984375 0.515625,0.109375 1.03125,0.21875 1.03125,0.765625 0,0.25 -0.21875,1.09375 -1.421875,1.09375 -0.140625,0 -0.90625,0 -1.140625,-0.53125 0.390625,0.046875 0.640625,-0.25 0.640625,-0.53125 0,-0.21875 -0.171875,-0.34375 -0.375,-0.34375 -0.265625,0 -0.5625,0.203125 -0.5625,0.65625 0,0.5625 0.578125,0.96875 1.421875,0.96875 1.625,0 2.015625,-1.203125 2.015625,-1.65625 0,-0.359375 -0.1875,-0.609375 -0.3125,-0.71875 -0.265625,-0.28125 -0.5625,-0.34375 -1,-0.421875 -0.359375,-0.078125 -0.75,-0.15625 -0.75,-0.609375 C 1.890625,-3.578125 2.125,-4.1875 3,-4.1875 c 0.25,0 0.75,0.078125 0.890625,0.453125 z m 0,0"
           id="path7595" />
      </symbol>
    </g>
    <g
       id="g6794">
      <symbol
         overflow="visible"
         id="symbol2882">
        <path
           style="stroke:none"
           d=""
           id="path7653" />
      </symbol>
      <symbol
         overflow="visible"
         id="symbol9215">
        <path
           style="stroke:none"
           d="m 3.953125,-3.78125 c -0.171875,0 -0.296875,0 -0.4375,0.125 -0.171875,0.15625 -0.1875,0.328125 -0.1875,0.390625 0,0.25 0.1875,0.359375 0.375,0.359375 0.28125,0 0.546875,-0.25 0.546875,-0.640625 0,-0.484375 -0.46875,-0.859375 -1.171875,-0.859375 -1.34375,0 -2.671875,1.421875 -2.671875,2.828125 0,0.90625 0.578125,1.6875 1.625,1.6875 1.421875,0 2.25,-1.0625 2.25,-1.171875 0,-0.0625 -0.046875,-0.140625 -0.109375,-0.140625 -0.0625,0 -0.078125,0.03125 -0.140625,0.109375 -0.78125,0.984375 -1.875,0.984375 -1.984375,0.984375 -0.625,0 -0.90625,-0.484375 -0.90625,-1.09375 0,-0.40625 0.203125,-1.375 0.546875,-1.984375 0.3125,-0.578125 0.859375,-1 1.40625,-1 0.328125,0 0.71875,0.125 0.859375,0.40625 z m 0,0"
           id="path1152" />
      </symbol>
      <symbol
         overflow="visible"
         id="symbol5879">
        <path
           style="stroke:none"
           d="M 3.890625,-3.734375 C 3.625,-3.71875 3.421875,-3.5 3.421875,-3.28125 c 0,0.140625 0.09375,0.296875 0.3125,0.296875 0.21875,0 0.453125,-0.171875 0.453125,-0.5625 C 4.1875,-4 3.765625,-4.40625 3,-4.40625 c -1.3125,0 -1.6875,1.015625 -1.6875,1.453125 0,0.78125 0.734375,0.921875 1.03125,0.984375 0.515625,0.109375 1.03125,0.21875 1.03125,0.765625 0,0.25 -0.21875,1.09375 -1.421875,1.09375 -0.140625,0 -0.90625,0 -1.140625,-0.53125 0.390625,0.046875 0.640625,-0.25 0.640625,-0.53125 0,-0.21875 -0.171875,-0.34375 -0.375,-0.34375 -0.265625,0 -0.5625,0.203125 -0.5625,0.65625 0,0.5625 0.578125,0.96875 1.421875,0.96875 1.625,0 2.015625,-1.203125 2.015625,-1.65625 0,-0.359375 -0.1875,-0.609375 -0.3125,-0.71875 -0.265625,-0.28125 -0.5625,-0.34375 -1,-0.421875 -0.359375,-0.078125 -0.75,-0.15625 -0.75,-0.609375 C 1.890625,-3.578125 2.125,-4.1875 3,-4.1875 c 0.25,0 0.75,0.078125 0.890625,0.453125 z m 0,0"
           id="path5322" />
      </symbol>
    </g>
    <g
       id="g7523">
      <symbol
         overflow="visible"
         id="symbol3732">
        <path
           style="stroke:none"
           d=""
           id="path9160" />
      </symbol>
      <symbol
         overflow="visible"
         id="symbol6764">
        <path
           style="stroke:none"
           d="m 6.5625,-2.296875 c 0.171875,0 0.359375,0 0.359375,-0.203125 0,-0.1875 -0.1875,-0.1875 -0.359375,-0.1875 H 1.171875 c -0.171875,0 -0.34375,0 -0.34375,0.1875 0,0.203125 0.171875,0.203125 0.34375,0.203125 z m 0,0"
           id="path6889" />
      </symbol>
      <symbol
         overflow="visible"
         id="symbol3668">
        <path
           style="stroke:none"
           d=""
           id="path7164" />
      </symbol>
      <symbol
         overflow="visible"
         id="symbol7960">
        <path
           style="stroke:none"
           d="m 2.9375,-6.375 c 0,-0.25 0,-0.265625 -0.234375,-0.265625 C 2.078125,-6 1.203125,-6 0.890625,-6 v 0.3125 c 0.203125,0 0.78125,0 1.296875,-0.265625 v 5.171875 c 0,0.359375 -0.03125,0.46875 -0.921875,0.46875 h -0.3125 V 0 c 0.34375,-0.03125 1.203125,-0.03125 1.609375,-0.03125 0.390625,0 1.265625,0 1.609375,0.03125 v -0.3125 h -0.3125 c -0.90625,0 -0.921875,-0.109375 -0.921875,-0.46875 z m 0,0"
           id="path1385" />
      </symbol>
    </g>
    <g
       id="g8495">
      <symbol
         id="symbol5797"
         overflow="visible">
        <path
           id="path9018"
           d=""
           style="stroke:none" />
      </symbol>
      <symbol
         id="symbol7289"
         overflow="visible">
        <path
           id="path3901"
           d="m 2.9375,-6.375 c 0,-0.25 0,-0.265625 -0.234375,-0.265625 C 2.078125,-6 1.203125,-6 0.890625,-6 v 0.3125 c 0.203125,0 0.78125,0 1.296875,-0.265625 v 5.171875 c 0,0.359375 -0.03125,0.46875 -0.921875,0.46875 h -0.3125 V 0 c 0.34375,-0.03125 1.203125,-0.03125 1.609375,-0.03125 0.390625,0 1.265625,0 1.609375,0.03125 v -0.3125 h -0.3125 c -0.90625,0 -0.921875,-0.109375 -0.921875,-0.46875 z m 0,0"
           style="stroke:none" />
      </symbol>
      <symbol
         id="symbol9801"
         overflow="visible">
        <path
           id="path1440"
           d=""
           style="stroke:none" />
      </symbol>
      <symbol
         id="symbol2879"
         overflow="visible">
        <path
           id="path221"
           d="m 6.5625,-2.296875 c 0.171875,0 0.359375,0 0.359375,-0.203125 0,-0.1875 -0.1875,-0.1875 -0.359375,-0.1875 H 1.171875 c -0.171875,0 -0.34375,0 -0.34375,0.1875 0,0.203125 0.171875,0.203125 0.34375,0.203125 z m 0,0"
           style="stroke:none" />
      </symbol>
    </g>
    <g
       id="g4333">
      <symbol
         overflow="visible"
         id="symbol4025">
        <path
           style="stroke:none"
           d=""
           id="path1442" />
      </symbol>
      <symbol
         overflow="visible"
         id="symbol3099">
        <path
           style="stroke:none"
           d="m 0.875,-0.59375 c -0.03125,0.15625 -0.09375,0.390625 -0.09375,0.4375 0,0.171875 0.140625,0.265625 0.296875,0.265625 0.125,0 0.296875,-0.078125 0.375,-0.28125 C 1.46875,-0.203125 1.796875,-1.5625 1.84375,-1.75 c 0.078125,-0.328125 0.265625,-1.015625 0.3125,-1.296875 0.046875,-0.125 0.328125,-0.59375 0.5625,-0.8125 0.078125,-0.0625 0.375,-0.328125 0.796875,-0.328125 0.265625,0 0.40625,0.125 0.421875,0.125 -0.296875,0.046875 -0.515625,0.28125 -0.515625,0.546875 0,0.15625 0.109375,0.34375 0.375,0.34375 0.265625,0 0.546875,-0.234375 0.546875,-0.59375 0,-0.34375 -0.3125,-0.640625 -0.828125,-0.640625 C 2.875,-4.40625 2.4375,-3.921875 2.25,-3.640625 2.15625,-4.09375 1.796875,-4.40625 1.328125,-4.40625 0.875,-4.40625 0.6875,-4.015625 0.59375,-3.84375 0.421875,-3.5 0.296875,-2.90625 0.296875,-2.875 c 0,0.109375 0.09375,0.109375 0.109375,0.109375 0.109375,0 0.109375,-0.015625 0.171875,-0.234375 0.171875,-0.703125 0.375,-1.1875 0.734375,-1.1875 0.15625,0 0.296875,0.078125 0.296875,0.453125 0,0.21875 -0.03125,0.328125 -0.15625,0.84375 z m 0,0"
           id="path4011" />
      </symbol>
      <symbol
         overflow="visible"
         id="symbol217">
        <path
           style="stroke:none"
           d=""
           id="path2713" />
      </symbol>
      <symbol
         overflow="visible"
         id="symbol9833">
        <path
           style="stroke:none"
           d="M 1.734375,-0.734375 C 1.671875,-0.5 1.4375,-0.125 1.078125,-0.125 c -0.015625,0 -0.234375,0 -0.375,-0.09375 0.28125,-0.09375 0.3125,-0.34375 0.3125,-0.390625 0,-0.15625 -0.125,-0.25 -0.28125,-0.25 -0.203125,0 -0.40625,0.15625 -0.40625,0.421875 0,0.34375 0.390625,0.5 0.734375,0.5 0.328125,0 0.609375,-0.1875 0.78125,-0.484375 C 2.015625,-0.0625 2.390625,0.0625 2.671875,0.0625 c 0.8125,0 1.234375,-0.859375 1.234375,-1.0625 0,-0.09375 -0.09375,-0.09375 -0.109375,-0.09375 -0.109375,0 -0.109375,0.046875 -0.140625,0.125 -0.140625,0.484375 -0.5625,0.84375 -0.953125,0.84375 -0.28125,0 -0.421875,-0.1875 -0.421875,-0.453125 0,-0.1875 0.171875,-0.8125 0.359375,-1.59375 C 2.78125,-2.703125 3.09375,-2.875 3.328125,-2.875 c 0.015625,0 0.21875,0 0.375,0.09375 -0.21875,0.0625 -0.3125,0.265625 -0.3125,0.390625 0,0.140625 0.125,0.25 0.28125,0.25 0.15625,0 0.390625,-0.125 0.390625,-0.421875 0,-0.390625 -0.453125,-0.515625 -0.71875,-0.515625 -0.359375,0 -0.640625,0.234375 -0.78125,0.5 -0.125,-0.28125 -0.453125,-0.5 -0.84375,-0.5 C 0.9375,-3.078125 0.5,-2.21875 0.5,-2 c 0,0.078125 0.09375,0.078125 0.109375,0.078125 0.09375,0 0.09375,-0.015625 0.140625,-0.109375 C 0.921875,-2.578125 1.359375,-2.875 1.703125,-2.875 1.9375,-2.875 2.125,-2.75 2.125,-2.421875 2.125,-2.28125 2.03125,-1.9375 1.96875,-1.6875 Z m 0,0"
           id="path6014" />
      </symbol>
      <symbol
         overflow="visible"
         id="symbol4191">
        <path
           style="stroke:none"
           d="M 3.875,-2.625 C 3.90625,-2.71875 3.90625,-2.734375 3.90625,-2.78125 3.90625,-2.921875 3.796875,-3 3.671875,-3 3.59375,-3 3.46875,-2.96875 3.390625,-2.84375 3.359375,-2.796875 3.3125,-2.578125 3.28125,-2.4375 L 3.125,-1.859375 c -0.03125,0.171875 -0.25,1.046875 -0.28125,1.125 0,0 -0.3125,0.609375 -0.84375,0.609375 -0.484375,0 -0.484375,-0.453125 -0.484375,-0.578125 0,-0.375 0.15625,-0.8125 0.375,-1.359375 C 1.96875,-2.28125 2,-2.359375 2,-2.484375 2,-2.8125 1.71875,-3.078125 1.34375,-3.078125 0.640625,-3.078125 0.328125,-2.125 0.328125,-2 c 0,0.078125 0.09375,0.078125 0.125,0.078125 0.09375,0 0.09375,-0.03125 0.125,-0.109375 C 0.75,-2.609375 1.046875,-2.875 1.328125,-2.875 1.4375,-2.875 1.5,-2.796875 1.5,-2.640625 c 0,0.171875 -0.0625,0.3125 -0.09375,0.40625 C 1.0625,-1.375 1,-1.125 1,-0.8125 1,-0.703125 1,-0.375 1.265625,-0.140625 1.484375,0.03125 1.78125,0.0625 1.96875,0.0625 2.25,0.0625 2.5,-0.03125 2.71875,-0.25 2.640625,0.140625 2.5625,0.4375 2.265625,0.78125 2.078125,1 1.796875,1.21875 1.421875,1.21875 c -0.046875,0 -0.375,0 -0.515625,-0.21875 0.375,-0.046875 0.375,-0.375 0.375,-0.390625 0,-0.21875 -0.203125,-0.265625 -0.265625,-0.265625 -0.171875,0 -0.40625,0.140625 -0.40625,0.46875 0,0.34375 0.328125,0.609375 0.828125,0.609375 C 2.140625,1.421875 3,0.875 3.21875,0 Z m 0,0"
           id="path4749" />
      </symbol>
    </g>
    <g
       id="g6365">
      <symbol
         overflow="visible"
         id="symbol5159">
        <path
           style="stroke:none"
           d=""
           id="path7744" />
      </symbol>
      <symbol
         overflow="visible"
         id="symbol412">
        <path
           style="stroke:none"
           d="m 0.875,-0.59375 c -0.03125,0.15625 -0.09375,0.390625 -0.09375,0.4375 0,0.171875 0.140625,0.265625 0.296875,0.265625 0.125,0 0.296875,-0.078125 0.375,-0.28125 C 1.46875,-0.203125 1.796875,-1.5625 1.84375,-1.75 c 0.078125,-0.328125 0.265625,-1.015625 0.3125,-1.296875 0.046875,-0.125 0.328125,-0.59375 0.5625,-0.8125 0.078125,-0.0625 0.375,-0.328125 0.796875,-0.328125 0.265625,0 0.40625,0.125 0.421875,0.125 -0.296875,0.046875 -0.515625,0.28125 -0.515625,0.546875 0,0.15625 0.109375,0.34375 0.375,0.34375 0.265625,0 0.546875,-0.234375 0.546875,-0.59375 0,-0.34375 -0.3125,-0.640625 -0.828125,-0.640625 C 2.875,-4.40625 2.4375,-3.921875 2.25,-3.640625 2.15625,-4.09375 1.796875,-4.40625 1.328125,-4.40625 0.875,-4.40625 0.6875,-4.015625 0.59375,-3.84375 0.421875,-3.5 0.296875,-2.90625 0.296875,-2.875 c 0,0.109375 0.09375,0.109375 0.109375,0.109375 0.109375,0 0.109375,-0.015625 0.171875,-0.234375 0.171875,-0.703125 0.375,-1.1875 0.734375,-1.1875 0.15625,0 0.296875,0.078125 0.296875,0.453125 0,0.21875 -0.03125,0.328125 -0.15625,0.84375 z m 0,0"
           id="path7705" />
      </symbol>
      <symbol
         overflow="visible"
         id="symbol2542">
        <path
           style="stroke:none"
           d=""
           id="path6053" />
      </symbol>
      <symbol
         overflow="visible"
         id="symbol9158">
        <path
           style="stroke:none"
           d="M 3.875,-2.625 C 3.90625,-2.71875 3.90625,-2.734375 3.90625,-2.78125 3.90625,-2.921875 3.796875,-3 3.671875,-3 3.59375,-3 3.46875,-2.96875 3.390625,-2.84375 3.359375,-2.796875 3.3125,-2.578125 3.28125,-2.4375 L 3.125,-1.859375 c -0.03125,0.171875 -0.25,1.046875 -0.28125,1.125 0,0 -0.3125,0.609375 -0.84375,0.609375 -0.484375,0 -0.484375,-0.453125 -0.484375,-0.578125 0,-0.375 0.15625,-0.8125 0.375,-1.359375 C 1.96875,-2.28125 2,-2.359375 2,-2.484375 2,-2.8125 1.71875,-3.078125 1.34375,-3.078125 0.640625,-3.078125 0.328125,-2.125 0.328125,-2 c 0,0.078125 0.09375,0.078125 0.125,0.078125 0.09375,0 0.09375,-0.03125 0.125,-0.109375 C 0.75,-2.609375 1.046875,-2.875 1.328125,-2.875 1.4375,-2.875 1.5,-2.796875 1.5,-2.640625 c 0,0.171875 -0.0625,0.3125 -0.09375,0.40625 C 1.0625,-1.375 1,-1.125 1,-0.8125 1,-0.703125 1,-0.375 1.265625,-0.140625 1.484375,0.03125 1.78125,0.0625 1.96875,0.0625 2.25,0.0625 2.5,-0.03125 2.71875,-0.25 2.640625,0.140625 2.5625,0.4375 2.265625,0.78125 2.078125,1 1.796875,1.21875 1.421875,1.21875 c -0.046875,0 -0.375,0 -0.515625,-0.21875 0.375,-0.046875 0.375,-0.375 0.375,-0.390625 0,-0.21875 -0.203125,-0.265625 -0.265625,-0.265625 -0.171875,0 -0.40625,0.140625 -0.40625,0.46875 0,0.34375 0.328125,0.609375 0.828125,0.609375 C 2.140625,1.421875 3,0.875 3.21875,0 Z m 0,0"
           id="path4728" />
      </symbol>
      <symbol
         overflow="visible"
         id="symbol1683">
        <path
           style="stroke:none"
           d="m 1.171875,-0.609375 c 0.1875,-0.1875 0.3125,-0.3125 0.890625,-0.796875 0.15625,-0.109375 0.671875,-0.53125 0.875,-0.71875 0.421875,-0.421875 0.6875,-0.78125 0.6875,-0.859375 0,-0.09375 -0.078125,-0.09375 -0.109375,-0.09375 -0.0625,0 -0.09375,0.015625 -0.125,0.078125 -0.21875,0.3125 -0.359375,0.421875 -0.53125,0.421875 -0.078125,0 -0.1875,0 -0.390625,-0.203125 -0.234375,-0.25 -0.390625,-0.296875 -0.546875,-0.296875 -0.5625,0 -0.9375,0.609375 -0.9375,0.8125 0,0.078125 0.0625,0.09375 0.109375,0.09375 0.09375,0 0.109375,-0.015625 0.125,-0.09375 0.109375,-0.25 0.5,-0.265625 0.609375,-0.265625 0.171875,0 0.34375,0.046875 0.4375,0.0625 0.390625,0.078125 0.4375,0.078125 0.609375,0.078125 -0.171875,0.203125 -0.296875,0.328125 -0.96875,0.84375 -0.546875,0.4375 -0.734375,0.609375 -0.859375,0.75 -0.421875,0.40625 -0.625,0.71875 -0.625,0.78125 0,0.078125 0.09375,0.078125 0.125,0.078125 0.0625,0 0.078125,0 0.109375,-0.0625 0.1875,-0.265625 0.40625,-0.421875 0.640625,-0.421875 0.09375,0 0.1875,0 0.375,0.171875 0.21875,0.21875 0.359375,0.3125 0.59375,0.3125 C 3,0.0625 3.46875,-0.78125 3.46875,-1.015625 3.46875,-1.09375 3.390625,-1.09375 3.359375,-1.09375 3.265625,-1.09375 3.25,-1.0625 3.21875,-0.984375 3.09375,-0.640625 2.6875,-0.46875 2.34375,-0.46875 2.1875,-0.46875 2,-0.515625 1.828125,-0.546875 1.515625,-0.625 1.453125,-0.625 1.328125,-0.625 c -0.015625,0 -0.109375,0 -0.15625,0.015625 z m 0,0"
           id="path2282" />
      </symbol>
    </g>
    <g
       id="g2614">
      <symbol
         id="symbol8172"
         overflow="visible">
        <path
           id="path4227"
           d=""
           style="stroke:none" />
      </symbol>
      <symbol
         id="symbol4012"
         overflow="visible">
        <path
           id="path5247"
           d="m 4.53125,-4.984375 c 0,-0.65625 -0.171875,-2.046875 -1.1875,-2.046875 -1.390625,0 -2.921875,2.8125 -2.921875,5.09375 0,0.9375 0.28125,2.046875 1.1875,2.046875 1.40625,0 2.921875,-2.859375 2.921875,-5.09375 z M 1.46875,-3.625 C 1.640625,-4.25 1.84375,-5.046875 2.25,-5.765625 2.515625,-6.25 2.875,-6.8125 3.328125,-6.8125 c 0.484375,0 0.546875,0.640625 0.546875,1.203125 0,0.5 -0.078125,1 -0.3125,1.984375 z m 2,0.328125 C 3.359375,-2.84375 3.15625,-2 2.765625,-1.28125 c -0.34375,0.6875 -0.71875,1.171875 -1.15625,1.171875 -0.328125,0 -0.53125,-0.296875 -0.53125,-1.21875 0,-0.421875 0.0625,-1 0.3125,-1.96875 z m 0,0"
           style="stroke:none" />
      </symbol>
    </g>
    <g
       id="g9322">
      <symbol
         id="symbol808"
         overflow="visible">
        <path
           id="path8830"
           d=""
           style="stroke:none" />
      </symbol>
      <symbol
         id="symbol1743"
         overflow="visible">
        <path
           id="path7383"
           d="m 4.84375,-3.796875 c 0.046875,-0.140625 0.046875,-0.15625 0.046875,-0.234375 0,-0.171875 -0.140625,-0.265625 -0.296875,-0.265625 -0.09375,0 -0.25,0.0625 -0.34375,0.203125 -0.015625,0.0625 -0.109375,0.359375 -0.140625,0.546875 -0.078125,0.25 -0.140625,0.53125 -0.203125,0.796875 l -0.453125,1.796875 c -0.03125,0.140625 -0.46875,0.84375 -1.125,0.84375 -0.5,0 -0.609375,-0.4375 -0.609375,-0.8125 C 1.71875,-1.375 1.890625,-2 2.21875,-2.875 2.375,-3.28125 2.421875,-3.390625 2.421875,-3.59375 c 0,-0.4375 -0.3125,-0.8125 -0.8125,-0.8125 -0.953125,0 -1.3125,1.453125 -1.3125,1.53125 0,0.109375 0.09375,0.109375 0.109375,0.109375 0.109375,0 0.109375,-0.03125 0.15625,-0.1875 0.28125,-0.9375 0.671875,-1.234375 1.015625,-1.234375 0.078125,0 0.25,0 0.25,0.3125 0,0.25 -0.109375,0.515625 -0.171875,0.703125 -0.40625,1.0625 -0.578125,1.625 -0.578125,2.09375 0,0.890625 0.625,1.1875 1.21875,1.1875 0.390625,0 0.71875,-0.171875 1,-0.453125 -0.125,0.515625 -0.25,1.015625 -0.640625,1.546875 -0.265625,0.328125 -0.640625,0.625 -1.09375,0.625 -0.140625,0 -0.59375,-0.03125 -0.765625,-0.421875 0.15625,0 0.296875,0 0.421875,-0.125 C 1.328125,1.203125 1.421875,1.0625 1.421875,0.875 1.421875,0.5625 1.15625,0.53125 1.0625,0.53125 0.828125,0.53125 0.5,0.6875 0.5,1.171875 c 0,0.5 0.4375,0.875 1.0625,0.875 1.015625,0 2.046875,-0.90625 2.328125,-2.03125 z m 0,0"
           style="stroke:none" />
      </symbol>
      <symbol
         id="symbol8369"
         overflow="visible">
        <path
           id="path4714"
           d="m 1.328125,-0.828125 c 0.53125,-0.578125 0.828125,-0.828125 1.1875,-1.140625 0,0 0.609375,-0.53125 0.96875,-0.890625 C 4.4375,-3.78125 4.65625,-4.265625 4.65625,-4.3125 c 0,-0.09375 -0.09375,-0.09375 -0.109375,-0.09375 -0.078125,0 -0.09375,0.015625 -0.15625,0.109375 -0.296875,0.484375 -0.5,0.640625 -0.734375,0.640625 -0.25,0 -0.359375,-0.15625 -0.515625,-0.328125 -0.1875,-0.21875 -0.359375,-0.421875 -0.6875,-0.421875 -0.75,0 -1.203125,0.921875 -1.203125,1.140625 0,0.046875 0.03125,0.109375 0.109375,0.109375 0.09375,0 0.109375,-0.046875 0.140625,-0.109375 0.1875,-0.46875 0.765625,-0.46875 0.84375,-0.46875 0.203125,0 0.390625,0.0625 0.625,0.140625 0.40625,0.15625 0.515625,0.15625 0.765625,0.15625 -0.359375,0.421875 -1.1875,1.140625 -1.375,1.296875 l -0.90625,0.84375 C 0.78125,-0.625 0.421875,-0.0625 0.421875,0.015625 c 0,0.09375 0.109375,0.09375 0.125,0.09375 0.078125,0 0.09375,-0.015625 0.15625,-0.125 0.234375,-0.359375 0.53125,-0.625 0.859375,-0.625 0.21875,0 0.328125,0.09375 0.578125,0.375 0.15625,0.21875 0.34375,0.375 0.625,0.375 1,0 1.578125,-1.265625 1.578125,-1.53125 0,-0.046875 -0.046875,-0.109375 -0.125,-0.109375 -0.09375,0 -0.109375,0.0625 -0.140625,0.140625 C 3.84375,-0.75 3.203125,-0.5625 2.875,-0.5625 c -0.1875,0 -0.375,-0.0625 -0.578125,-0.125 -0.34375,-0.125 -0.5,-0.171875 -0.703125,-0.171875 -0.015625,0 -0.171875,0 -0.265625,0.03125 z m 0,0"
           style="stroke:none" />
      </symbol>
    </g>
    <g
       id="g5138">
      <symbol
         id="symbol7819"
         overflow="visible">
        <path
           id="path8806"
           d=""
           style="stroke:none" />
      </symbol>
      <symbol
         id="symbol2433"
         overflow="visible">
        <path
           id="path4953"
           d="M 3.890625,-3.734375 C 3.625,-3.71875 3.421875,-3.5 3.421875,-3.28125 c 0,0.140625 0.09375,0.296875 0.3125,0.296875 0.21875,0 0.453125,-0.171875 0.453125,-0.5625 C 4.1875,-4 3.765625,-4.40625 3,-4.40625 c -1.3125,0 -1.6875,1.015625 -1.6875,1.453125 0,0.78125 0.734375,0.921875 1.03125,0.984375 0.515625,0.109375 1.03125,0.21875 1.03125,0.765625 0,0.25 -0.21875,1.09375 -1.421875,1.09375 -0.140625,0 -0.90625,0 -1.140625,-0.53125 0.390625,0.046875 0.640625,-0.25 0.640625,-0.53125 0,-0.21875 -0.171875,-0.34375 -0.375,-0.34375 -0.265625,0 -0.5625,0.203125 -0.5625,0.65625 0,0.5625 0.578125,0.96875 1.421875,0.96875 1.625,0 2.015625,-1.203125 2.015625,-1.65625 0,-0.359375 -0.1875,-0.609375 -0.3125,-0.71875 -0.265625,-0.28125 -0.5625,-0.34375 -1,-0.421875 -0.359375,-0.078125 -0.75,-0.15625 -0.75,-0.609375 C 1.890625,-3.578125 2.125,-4.1875 3,-4.1875 c 0.25,0 0.75,0.078125 0.890625,0.453125 z m 0,0"
           style="stroke:none" />
      </symbol>
      <symbol
         id="symbol5740"
         overflow="visible">
        <path
           id="path463"
           d=""
           style="stroke:none" />
      </symbol>
      <symbol
         id="symbol1455"
         overflow="visible">
        <path
           id="path8415"
           d="m 6.84375,-3.265625 c 0.15625,0 0.34375,0 0.34375,-0.1875 C 7.1875,-3.65625 7,-3.65625 6.859375,-3.65625 h -5.96875 c -0.140625,0 -0.328125,0 -0.328125,0.203125 0,0.1875 0.1875,0.1875 0.328125,0.1875 z m 0.015625,1.9375 c 0.140625,0 0.328125,0 0.328125,-0.203125 0,-0.1875 -0.1875,-0.1875 -0.34375,-0.1875 H 0.890625 c -0.140625,0 -0.328125,0 -0.328125,0.1875 0,0.203125 0.1875,0.203125 0.328125,0.203125 z m 0,0"
           style="stroke:none" />
      </symbol>
      <symbol
         id="symbol5534"
         overflow="visible">
        <path
           id="path8450"
           d="m 2.9375,-6.375 c 0,-0.25 0,-0.265625 -0.234375,-0.265625 C 2.078125,-6 1.203125,-6 0.890625,-6 v 0.3125 c 0.203125,0 0.78125,0 1.296875,-0.265625 v 5.171875 c 0,0.359375 -0.03125,0.46875 -0.921875,0.46875 h -0.3125 V 0 c 0.34375,-0.03125 1.203125,-0.03125 1.609375,-0.03125 0.390625,0 1.265625,0 1.609375,0.03125 v -0.3125 h -0.3125 c -0.90625,0 -0.921875,-0.109375 -0.921875,-0.46875 z m 0,0"
           style="stroke:none" />
      </symbol>
      <symbol
         id="symbol9979"
         overflow="visible">
        <path
           id="path193"
           d=""
           style="stroke:none" />
      </symbol>
      <symbol
         id="symbol668"
         overflow="visible">
        <path
           id="path9540"
           d="m 6.5625,-2.296875 c 0.171875,0 0.359375,0 0.359375,-0.203125 0,-0.1875 -0.1875,-0.1875 -0.359375,-0.1875 H 1.171875 c -0.171875,0 -0.34375,0 -0.34375,0.1875 0,0.203125 0.171875,0.203125 0.34375,0.203125 z m 0,0"
           style="stroke:none" />
      </symbol>
    </g>
  </defs>
  <sodipodi:namedview
     inkscape:window-maximized="1"
     inkscape:window-y="27"
     inkscape:window-x="0"
     inkscape:window-height="1376"
     inkscape:window-width="2560"
     showgrid="false"
     inkscape:document-rotation="0"
     inkscape:current-layer="layer1"
     inkscape:document-units="mm"
     inkscape:cy="36.124305"
     inkscape:cx="110.64058"
     inkscape:zoom="5.9213626"
     inkscape:pageshadow="2"
     inkscape:pageopacity="0.0"
     borderopacity="1.0"
     bordercolor="#666666"
     pagecolor="#ffffff"
     id="base"
     showguides="true"
     inkscape:guide-bbox="true" />
  <metadata
     id="metadata5">
    <rdf:RDF>
      <cc:Work
         rdf:about="">
        <dc:format>image/svg+xml</dc:format>
        <dc:type
           rdf:resource="http://purl.org/dc/dcmitype/StillImage" />
        <dc:title />
      </cc:Work>
    </rdf:RDF>
  </metadata>
  <g
     transform="translate(-70.112005,-157.32908)"
     id="layer1"
     inkscape:groupmode="layer"
     inkscape:label="Layer 1">
    <path
       id="path833"
       d="M 70.112005,162.42593 H 119.59598"
       style="fill:none;stroke:#000000;stroke-width:0.264583;stroke-linecap:butt;stroke-linejoin:miter;stroke-miterlimit:4;stroke-dasharray:none;stroke-opacity:1;marker-end:url(#marker1115)" />
    <path
       id="path835"
       d="m 95.096418,160.48772 v 16.40907"
       style="fill:none;stroke:#000000;stroke-width:0.264583;stroke-linecap:butt;stroke-linejoin:miter;stroke-miterlimit:4;stroke-dasharray:none;stroke-opacity:1;marker-end:url(#Arrow1Mend)" />
    <path
       sodipodi:nodetypes="czc"
       style="fill:none;stroke:#000000;stroke-width:0.264583px;stroke-linecap:butt;stroke-linejoin:miter;stroke-opacity:1"
       d="m 75.789066,171.78706 c 0,0 -0.218512,-9.34337 19.307347,-9.34337 19.525857,0 19.307347,9.34337 19.307347,9.34337"
       id="path985" />
    <path
       id="path1087"
       d="m 123.54729,161.1173 c 0.0235,-0.0703 0.0235,-0.0781 0.0235,-0.11718 0,-0.0859 -0.0703,-0.13282 -0.14843,-0.13282 -0.0469,0 -0.125,0.0312 -0.17188,0.10157 -0.008,0.0312 -0.0547,0.17968 -0.0703,0.27343 -0.0391,0.125 -0.0703,0.26563 -0.10156,0.39844 l -0.22657,0.89844 c -0.0156,0.0703 -0.23437,0.42187 -0.5625,0.42187 -0.25,0 -0.30468,-0.21875 -0.30468,-0.40625 0,-0.22656 0.0859,-0.53906 0.25,-0.97656 0.0781,-0.20312 0.10156,-0.25781 0.10156,-0.35937 0,-0.21875 -0.15625,-0.40625 -0.40625,-0.40625 -0.47656,0 -0.65625,0.72656 -0.65625,0.76562 0,0.0547 0.0468,0.0547 0.0547,0.0547 0.0547,0 0.0547,-0.0156 0.0781,-0.0937 0.14063,-0.46875 0.33594,-0.61719 0.50781,-0.61719 0.039,0 0.125,0 0.125,0.15625 0,0.125 -0.0547,0.25781 -0.0859,0.35156 -0.20313,0.53125 -0.28907,0.8125 -0.28907,1.04688 0,0.44531 0.3125,0.59375 0.60938,0.59375 0.19531,0 0.35937,-0.0859 0.5,-0.22656 -0.0625,0.25781 -0.125,0.50781 -0.32031,0.77343 -0.13282,0.16407 -0.32032,0.3125 -0.54688,0.3125 -0.0703,0 -0.29687,-0.0156 -0.38281,-0.21093 0.0781,0 0.14844,0 0.21094,-0.0625 0.0547,-0.0391 0.10156,-0.10938 0.10156,-0.20313 0,-0.15625 -0.13281,-0.17187 -0.17969,-0.17187 -0.11719,0 -0.28125,0.0781 -0.28125,0.32031 0,0.25 0.21875,0.4375 0.53125,0.4375 0.50781,0 1.02344,-0.45313 1.16406,-1.01563 z m 0,0"
       style="fill:#000000;fill-opacity:1;stroke:none;stroke-width:1" />
    <path
       id="path1091"
       d="m 94.490943,159.11807 c 0.26563,-0.28906 0.41406,-0.41406 0.59375,-0.57031 0,0 0.30469,-0.26563 0.48438,-0.44532 0.47656,-0.46093 0.58593,-0.70312 0.58593,-0.72656 0,-0.0468 -0.0468,-0.0468 -0.0547,-0.0468 -0.039,0 -0.0468,0.008 -0.0781,0.0547 -0.14844,0.24219 -0.25,0.32031 -0.36719,0.32031 -0.125,0 -0.17968,-0.0781 -0.25781,-0.16406 -0.0937,-0.10938 -0.17969,-0.21094 -0.34375,-0.21094 -0.375,0 -0.60156,0.46094 -0.60156,0.57031 0,0.0235 0.0156,0.0547 0.0547,0.0547 0.0469,0 0.0547,-0.0234 0.0703,-0.0547 0.0937,-0.23437 0.38281,-0.23437 0.42187,-0.23437 0.10157,0 0.19532,0.0312 0.3125,0.0703 0.20313,0.0781 0.25782,0.0781 0.38282,0.0781 -0.17969,0.21093 -0.59375,0.57031 -0.6875,0.64843 l -0.45313,0.42188 c -0.33594,0.33594 -0.51562,0.61719 -0.51562,0.65625 0,0.0469 0.0547,0.0469 0.0625,0.0469 0.0391,0 0.0469,-0.008 0.0781,-0.0625 0.11719,-0.17969 0.26563,-0.3125 0.42969,-0.3125 0.10937,0 0.16406,0.0468 0.28906,0.1875 0.0781,0.10937 0.17188,0.1875 0.3125,0.1875 0.5,0 0.78906,-0.63281 0.78906,-0.76563 0,-0.0234 -0.0234,-0.0547 -0.0625,-0.0547 -0.0468,0 -0.0547,0.0312 -0.0703,0.0703 -0.11719,0.32031 -0.4375,0.41406 -0.60156,0.41406 -0.0937,0 -0.1875,-0.0312 -0.28906,-0.0625 -0.17188,-0.0625 -0.25,-0.0859 -0.35157,-0.0859 -0.008,0 -0.0859,0 -0.13281,0.0156 z m 0,0"
       style="fill:#000000;fill-opacity:1;stroke:none;stroke-width:1" />
    <circle
       r="0.25"
       cy="171.99231"
       cx="75.790611"
       id="path1109"
       style="fill:none;stroke:#ff0000;stroke-width:0.132292;stroke-linecap:round;stroke-linejoin:round;stroke-miterlimit:4;stroke-dasharray:none;stop-color:#000000" />
    <circle
       style="fill:none;stroke:#ff0000;stroke-width:0.132292;stroke-linecap:round;stroke-linejoin:round;stroke-miterlimit:4;stroke-dasharray:none;stop-color:#000000"
       id="circle1119"
       cx="114.41129"
       cy="171.99231"
       r="0.25" />
    <g
       transform="translate(-66.202096,83.588173)"
       id="g1340">
      <path
         style="fill:#000000;fill-opacity:1;stroke:none;stroke-width:0.999999"
         d="m 139.30648,89.72621 c -0.093,0.0055 -0.16406,0.08203 -0.16406,0.158594 0,0.04922 0.0328,0.103906 0.10937,0.103906 0.0766,0 0.15859,-0.06016 0.15859,-0.196875 0,-0.158594 -0.14765,-0.300781 -0.41562,-0.300781 -0.45938,0 -0.59063,0.355468 -0.59063,0.508593 0,0.273438 0.25704,0.322657 0.36094,0.344531 0.18047,0.03828 0.36094,0.07656 0.36094,0.267969 0,0.0875 -0.0766,0.382813 -0.49766,0.382813 -0.0492,0 -0.31718,0 -0.39921,-0.185938 0.13671,0.01641 0.22421,-0.0875 0.22421,-0.185937 0,-0.07656 -0.0601,-0.120313 -0.13125,-0.120313 -0.093,0 -0.19687,0.07109 -0.19687,0.229688 0,0.196875 0.20234,0.339062 0.49765,0.339062 0.56875,0 0.70547,-0.421093 0.70547,-0.579687 0,-0.125781 -0.0656,-0.213282 -0.10937,-0.251563 -0.093,-0.09844 -0.19688,-0.120312 -0.35,-0.147656 -0.12578,-0.02734 -0.2625,-0.05469 -0.2625,-0.213281 0,-0.09844 0.082,-0.311719 0.38828,-0.311719 0.0875,0 0.2625,0.02734 0.31172,0.158594 z m 0,0"
         id="path1316" />
      <path
         style="fill:#000000;fill-opacity:1;stroke:none;stroke-width:0.999999"
         d="m 142.94337,89.890272 c 0.0547,0 0.12031,0 0.12031,-0.06562 0,-0.07109 -0.0656,-0.07109 -0.11484,-0.07109 h -2.08906 c -0.0492,0 -0.11485,0 -0.11485,0.07109 0,0.06562 0.0656,0.06562 0.11485,0.06562 z m 0.005,0.678125 c 0.0492,0 0.11484,0 0.11484,-0.07109 0,-0.06562 -0.0656,-0.06562 -0.12031,-0.06562 h -2.08359 c -0.0492,0 -0.11485,0 -0.11485,0.06562 0,0.07109 0.0656,0.07109 0.11485,0.07109 z m 0,0"
         id="path1320" />
      <path
         style="fill:#000000;fill-opacity:1;stroke:none;stroke-width:0.999999"
         d="m 146.52553,90.229335 c 0.0602,0 0.12579,0 0.12579,-0.07109 0,-0.06562 -0.0656,-0.06562 -0.12579,-0.06562 h -1.88671 c -0.0602,0 -0.12032,0 -0.12032,0.06562 0,0.07109 0.0602,0.07109 0.12032,0.07109 z m 0,0"
         id="path1324" />
      <path
         style="fill:#000000;fill-opacity:1;stroke:none;stroke-width:0.999999"
         d="m 147.96858,88.801991 c 0,-0.0875 0,-0.09297 -0.082,-0.09297 -0.21875,0.224219 -0.525,0.224219 -0.63437,0.224219 v 0.109375 c 0.0711,0 0.27344,0 0.4539,-0.09297 v 1.810157 c 0,0.125781 -0.0109,0.164062 -0.32265,0.164062 h -0.10938 v 0.109375 c 0.12032,-0.01094 0.4211,-0.01094 0.56328,-0.01094 0.13672,0 0.44297,0 0.56329,0.01094 v -0.109375 h -0.10938 c -0.31719,0 -0.32266,-0.03828 -0.32266,-0.164062 z m 0,0"
         id="path1328" />
    </g>
    <g
       transform="translate(-39.171107,83.588173)"
       id="g1360">
      <path
         style="fill:#000000;fill-opacity:1;stroke:none;stroke-width:0.999999"
         d="m 151.01433,89.72621 c -0.093,0.0055 -0.16406,0.08203 -0.16406,0.158594 0,0.04922 0.0328,0.103906 0.10937,0.103906 0.0766,0 0.15859,-0.06016 0.15859,-0.196875 0,-0.158594 -0.14765,-0.300781 -0.41562,-0.300781 -0.45938,0 -0.59063,0.355468 -0.59063,0.508593 0,0.273438 0.25704,0.322657 0.36094,0.344531 0.18047,0.03828 0.36094,0.07656 0.36094,0.267969 0,0.0875 -0.0766,0.382813 -0.49766,0.382813 -0.0492,0 -0.31718,0 -0.39921,-0.185938 0.13671,0.01641 0.22421,-0.0875 0.22421,-0.185937 0,-0.07656 -0.0602,-0.120313 -0.13125,-0.120313 -0.093,0 -0.19687,0.07109 -0.19687,0.229688 0,0.196875 0.20234,0.339062 0.49765,0.339062 0.56875,0 0.70547,-0.421093 0.70547,-0.579687 0,-0.125781 -0.0656,-0.213282 -0.10937,-0.251563 -0.093,-0.09844 -0.19688,-0.120312 -0.35,-0.147656 -0.12578,-0.02734 -0.2625,-0.05469 -0.2625,-0.213281 0,-0.09844 0.082,-0.311719 0.38828,-0.311719 0.0875,0 0.2625,0.02734 0.31172,0.158594 z m 0,0"
         id="path1342" />
      <path
         style="fill:#000000;fill-opacity:1;stroke:none;stroke-width:0.999999"
         d="m 154.65087,89.890272 c 0.0547,0 0.12031,0 0.12031,-0.06562 0,-0.07109 -0.0656,-0.07109 -0.11484,-0.07109 h -2.08906 c -0.0492,0 -0.11485,0 -0.11485,0.07109 0,0.06562 0.0656,0.06562 0.11485,0.06562 z m 0.005,0.678125 c 0.0492,0 0.11484,0 0.11484,-0.07109 0,-0.06562 -0.0656,-0.06562 -0.12031,-0.06562 h -2.08359 c -0.0492,0 -0.11485,0 -0.11485,0.06562 0,0.07109 0.0656,0.07109 0.11485,0.07109 z m 0,0"
         id="path1346" />
      <path
         style="fill:#000000;fill-opacity:1;stroke:none;stroke-width:0.999999"
         d="m 156.96516,88.801991 c 0,-0.0875 0,-0.09297 -0.082,-0.09297 -0.21875,0.224219 -0.525,0.224219 -0.63437,0.224219 v 0.109375 c 0.0711,0 0.27344,0 0.4539,-0.09297 v 1.810157 c 0,0.125781 -0.0109,0.164062 -0.32265,0.164062 h -0.10938 v 0.109375 c 0.12032,-0.01094 0.4211,-0.01094 0.56328,-0.01094 0.13672,0 0.44297,0 0.56329,0.01094 v -0.109375 h -0.10938 c -0.31719,0 -0.32266,-0.03828 -0.32266,-0.164062 z m 0,0"
         id="path1350" />
    </g>
  </g>
</svg>
