<?xml version="1.0" encoding="UTF-8" standalone="no"?>
<svg
   xmlns:dc="http://purl.org/dc/elements/1.1/"
   xmlns:cc="http://creativecommons.org/ns#"
   xmlns:rdf="http://www.w3.org/1999/02/22-rdf-syntax-ns#"
   xmlns:svg="http://www.w3.org/2000/svg"
   xmlns="http://www.w3.org/2000/svg"
   xmlns:xlink="http://www.w3.org/1999/xlink"
   xmlns:sodipodi="http://sodipodi.sourceforge.net/DTD/sodipodi-0.dtd"
   xmlns:inkscape="http://www.inkscape.org/namespaces/inkscape"
   sodipodi:docname="chord_surface_c.svg"
   inkscape:version="1.0 (4035a4fb49, 2020-05-01)"
   id="svg8"
   version="1.1"
   viewBox="0 0 53.497624 22.314058"
   height="22.314058mm"
   width="53.497623mm">
  <defs
     id="defs2">
    <marker
       inkscape:stockid="Arrow1Mend"
       orient="auto"
       refY="0"
       refX="0"
       id="marker1115"
       style="overflow:visible"
       inkscape:isstock="true">
      <path
         id="path1113"
         d="M 0,0 5,-5 -12.5,0 5,5 Z"
         style="fill:#000000;fill-opacity:1;fill-rule:evenodd;stroke:#000000;stroke-width:1pt;stroke-opacity:1"
         transform="matrix(-0.4,0,0,-0.4,-4,0)" />
    </marker>
    <marker
       inkscape:collect="always"
       inkscape:isstock="true"
       style="overflow:visible"
       id="Arrow1Mend"
       refX="0"
       refY="0"
       orient="auto"
       inkscape:stockid="Arrow1Mend">
      <path
         transform="matrix(-0.4,0,0,-0.4,-4,0)"
         style="fill:#000000;fill-opacity:1;fill-rule:evenodd;stroke:#000000;stroke-width:1pt;stroke-opacity:1"
         d="M 0,0 5,-5 -12.5,0 5,5 Z"
         id="path846" />
    </marker>
    <g
       id="g1759">
      <symbol
         id="symbol4355"
         overflow="visible">
        <path
           id="path2412"
           d=""
           style="stroke:none" />
      </symbol>
      <symbol
         id="symbol9682"
         overflow="visible">
        <path
           id="path3515"
           d="m 3.953125,-3.78125 c -0.171875,0 -0.296875,0 -0.4375,0.125 -0.171875,0.15625 -0.1875,0.328125 -0.1875,0.390625 0,0.25 0.1875,0.359375 0.375,0.359375 0.28125,0 0.546875,-0.25 0.546875,-0.640625 0,-0.484375 -0.46875,-0.859375 -1.171875,-0.859375 -1.34375,0 -2.671875,1.421875 -2.671875,2.828125 0,0.90625 0.578125,1.6875 1.625,1.6875 1.421875,0 2.25,-1.0625 2.25,-1.171875 0,-0.0625 -0.046875,-0.140625 -0.109375,-0.140625 -0.0625,0 -0.078125,0.03125 -0.140625,0.109375 -0.78125,0.984375 -1.875,0.984375 -1.984375,0.984375 -0.625,0 -0.90625,-0.484375 -0.90625,-1.09375 0,-0.40625 0.203125,-1.375 0.546875,-1.984375 0.3125,-0.578125 0.859375,-1 1.40625,-1 0.328125,0 0.71875,0.125 0.859375,0.40625 z m 0,0"
           style="stroke:none" />
      </symbol>
      <symbol
         id="symbol2418"
         overflow="visible">
        <path
           id="path9689"
           d="m 4.84375,-3.796875 c 0.046875,-0.140625 0.046875,-0.15625 0.046875,-0.234375 0,-0.171875 -0.140625,-0.265625 -0.296875,-0.265625 -0.09375,0 -0.25,0.0625 -0.34375,0.203125 -0.015625,0.0625 -0.109375,0.359375 -0.140625,0.546875 -0.078125,0.25 -0.140625,0.53125 -0.203125,0.796875 l -0.453125,1.796875 c -0.03125,0.140625 -0.46875,0.84375 -1.125,0.84375 -0.5,0 -0.609375,-0.4375 -0.609375,-0.8125 C 1.71875,-1.375 1.890625,-2 2.21875,-2.875 2.375,-3.28125 2.421875,-3.390625 2.421875,-3.59375 c 0,-0.4375 -0.3125,-0.8125 -0.8125,-0.8125 -0.953125,0 -1.3125,1.453125 -1.3125,1.53125 0,0.109375 0.09375,0.109375 0.109375,0.109375 0.109375,0 0.109375,-0.03125 0.15625,-0.1875 0.28125,-0.9375 0.671875,-1.234375 1.015625,-1.234375 0.078125,0 0.25,0 0.25,0.3125 0,0.25 -0.109375,0.515625 -0.171875,0.703125 -0.40625,1.0625 -0.578125,1.625 -0.578125,2.09375 0,0.890625 0.625,1.1875 1.21875,1.1875 0.390625,0 0.71875,-0.171875 1,-0.453125 -0.125,0.515625 -0.25,1.015625 -0.640625,1.546875 -0.265625,0.328125 -0.640625,0.625 -1.09375,0.625 -0.140625,0 -0.59375,-0.03125 -0.765625,-0.421875 0.15625,0 0.296875,0 0.421875,-0.125 C 1.328125,1.203125 1.421875,1.0625 1.421875,0.875 1.421875,0.5625 1.15625,0.53125 1.0625,0.53125 0.828125,0.53125 0.5,0.6875 0.5,1.171875 c 0,0.5 0.4375,0.875 1.0625,0.875 1.015625,0 2.046875,-0.90625 2.328125,-2.03125 z m 0,0"
           style="stroke:none" />
      </symbol>
    </g>
    <g
       id="g863">
      <symbol
         id="symbol4239"
         overflow="visible">
        <path
           id="path4039"
           d=""
           style="stroke:none" />
      </symbol>
      <symbol
         id="symbol1053"
         overflow="visible">
        <path
           id="path8324"
           d="M 2.75,-1.859375 V -2.4375 H 0.109375 v 0.578125 z m 0,0"
           style="stroke:none" />
      </symbol>
      <symbol
         id="symbol8619"
         overflow="visible">
        <path
           id="path892"
           d="m 2.9375,-6.375 c 0,-0.25 0,-0.265625 -0.234375,-0.265625 C 2.078125,-6 1.203125,-6 0.890625,-6 v 0.3125 c 0.203125,0 0.78125,0 1.296875,-0.265625 v 5.171875 c 0,0.359375 -0.03125,0.46875 -0.921875,0.46875 h -0.3125 V 0 c 0.34375,-0.03125 1.203125,-0.03125 1.609375,-0.03125 0.390625,0 1.265625,0 1.609375,0.03125 v -0.3125 h -0.3125 c -0.90625,0 -0.921875,-0.109375 -0.921875,-0.46875 z m 0,0"
           style="stroke:none" />
      </symbol>
    </g>
    <g
       id="g3182">
      <symbol
         overflow="visible"
         id="symbol4410">
        <path
           style="stroke:none"
           d=""
           id="path7125" />
      </symbol>
      <symbol
         overflow="visible"
         id="symbol8580">
        <path
           style="stroke:none"
           d="m 3.953125,-3.78125 c -0.171875,0 -0.296875,0 -0.4375,0.125 -0.171875,0.15625 -0.1875,0.328125 -0.1875,0.390625 0,0.25 0.1875,0.359375 0.375,0.359375 0.28125,0 0.546875,-0.25 0.546875,-0.640625 0,-0.484375 -0.46875,-0.859375 -1.171875,-0.859375 -1.34375,0 -2.671875,1.421875 -2.671875,2.828125 0,0.90625 0.578125,1.6875 1.625,1.6875 1.421875,0 2.25,-1.0625 2.25,-1.171875 0,-0.0625 -0.046875,-0.140625 -0.109375,-0.140625 -0.0625,0 -0.078125,0.03125 -0.140625,0.109375 -0.78125,0.984375 -1.875,0.984375 -1.984375,0.984375 -0.625,0 -0.90625,-0.484375 -0.90625,-1.09375 0,-0.40625 0.203125,-1.375 0.546875,-1.984375 0.3125,-0.578125 0.859375,-1 1.40625,-1 0.328125,0 0.71875,0.125 0.859375,0.40625 z m 0,0"
           id="path150" />
      </symbol>
      <symbol
         overflow="visible"
         id="symbol4199">
        <path
           style="stroke:none"
           d="M 3.890625,-3.734375 C 3.625,-3.71875 3.421875,-3.5 3.421875,-3.28125 c 0,0.140625 0.09375,0.296875 0.3125,0.296875 0.21875,0 0.453125,-0.171875 0.453125,-0.5625 C 4.1875,-4 3.765625,-4.40625 3,-4.40625 c -1.3125,0 -1.6875,1.015625 -1.6875,1.453125 0,0.78125 0.734375,0.921875 1.03125,0.984375 0.515625,0.109375 1.03125,0.21875 1.03125,0.765625 0,0.25 -0.21875,1.09375 -1.421875,1.09375 -0.140625,0 -0.90625,0 -1.140625,-0.53125 0.390625,0.046875 0.640625,-0.25 0.640625,-0.53125 0,-0.21875 -0.171875,-0.34375 -0.375,-0.34375 -0.265625,0 -0.5625,0.203125 -0.5625,0.65625 0,0.5625 0.578125,0.96875 1.421875,0.96875 1.625,0 2.015625,-1.203125 2.015625,-1.65625 0,-0.359375 -0.1875,-0.609375 -0.3125,-0.71875 -0.265625,-0.28125 -0.5625,-0.34375 -1,-0.421875 -0.359375,-0.078125 -0.75,-0.15625 -0.75,-0.609375 C 1.890625,-3.578125 2.125,-4.1875 3,-4.1875 c 0.25,0 0.75,0.078125 0.890625,0.453125 z m 0,0"
           id="path7595" />
      </symbol>
    </g>
    <g
       id="g6794">
      <symbol
         overflow="visible"
         id="symbol2882">
        <path
           style="stroke:none"
           d=""
           id="path7653" />
      </symbol>
      <symbol
         overflow="visible"
         id="symbol9215">
        <path
           style="stroke:none"
           d="m 3.953125,-3.78125 c -0.171875,0 -0.296875,0 -0.4375,0.125 -0.171875,0.15625 -0.1875,0.328125 -0.1875,0.390625 0,0.25 0.1875,0.359375 0.375,0.359375 0.28125,0 0.546875,-0.25 0.546875,-0.640625 0,-0.484375 -0.46875,-0.859375 -1.171875,-0.859375 -1.34375,0 -2.671875,1.421875 -2.671875,2.828125 0,0.90625 0.578125,1.6875 1.625,1.6875 1.421875,0 2.25,-1.0625 2.25,-1.171875 0,-0.0625 -0.046875,-0.140625 -0.109375,-0.140625 -0.0625,0 -0.078125,0.03125 -0.140625,0.109375 -0.78125,0.984375 -1.875,0.984375 -1.984375,0.984375 -0.625,0 -0.90625,-0.484375 -0.90625,-1.09375 0,-0.40625 0.203125,-1.375 0.546875,-1.984375 0.3125,-0.578125 0.859375,-1 1.40625,-1 0.328125,0 0.71875,0.125 0.859375,0.40625 z m 0,0"
           id="path1152" />
      </symbol>
      <symbol
         overflow="visible"
         id="symbol5879">
        <path
           style="stroke:none"
           d="M 3.890625,-3.734375 C 3.625,-3.71875 3.421875,-3.5 3.421875,-3.28125 c 0,0.140625 0.09375,0.296875 0.3125,0.296875 0.21875,0 0.453125,-0.171875 0.453125,-0.5625 C 4.1875,-4 3.765625,-4.40625 3,-4.40625 c -1.3125,0 -1.6875,1.015625 -1.6875,1.453125 0,0.78125 0.734375,0.921875 1.03125,0.984375 0.515625,0.109375 1.03125,0.21875 1.03125,0.765625 0,0.25 -0.21875,1.09375 -1.421875,1.09375 -0.140625,0 -0.90625,0 -1.140625,-0.53125 0.390625,0.046875 0.640625,-0.25 0.640625,-0.53125 0,-0.21875 -0.171875,-0.34375 -0.375,-0.34375 -0.265625,0 -0.5625,0.203125 -0.5625,0.65625 0,0.5625 0.578125,0.96875 1.421875,0.96875 1.625,0 2.015625,-1.203125 2.015625,-1.65625 0,-0.359375 -0.1875,-0.609375 -0.3125,-0.71875 -0.265625,-0.28125 -0.5625,-0.34375 -1,-0.421875 -0.359375,-0.078125 -0.75,-0.15625 -0.75,-0.609375 C 1.890625,-3.578125 2.125,-4.1875 3,-4.1875 c 0.25,0 0.75,0.078125 0.890625,0.453125 z m 0,0"
           id="path5322" />
      </symbol>
    </g>
    <g
       id="g7523">
      <symbol
         overflow="visible"
         id="symbol3732">
        <path
           style="stroke:none"
           d=""
           id="path9160" />
      </symbol>
      <symbol
         overflow="visible"
         id="symbol6764">
        <path
           style="stroke:none"
           d="m 6.5625,-2.296875 c 0.171875,0 0.359375,0 0.359375,-0.203125 0,-0.1875 -0.1875,-0.1875 -0.359375,-0.1875 H 1.171875 c -0.171875,0 -0.34375,0 -0.34375,0.1875 0,0.203125 0.171875,0.203125 0.34375,0.203125 z m 0,0"
           id="path6889" />
      </symbol>
      <symbol
         overflow="visible"
         id="symbol3668">
        <path
           style="stroke:none"
           d=""
           id="path7164" />
      </symbol>
      <symbol
         overflow="visible"
         id="symbol7960">
        <path
           style="stroke:none"
           d="m 2.9375,-6.375 c 0,-0.25 0,-0.265625 -0.234375,-0.265625 C 2.078125,-6 1.203125,-6 0.890625,-6 v 0.3125 c 0.203125,0 0.78125,0 1.296875,-0.265625 v 5.171875 c 0,0.359375 -0.03125,0.46875 -0.921875,0.46875 h -0.3125 V 0 c 0.34375,-0.03125 1.203125,-0.03125 1.609375,-0.03125 0.390625,0 1.265625,0 1.609375,0.03125 v -0.3125 h -0.3125 c -0.90625,0 -0.921875,-0.109375 -0.921875,-0.46875 z m 0,0"
           id="path1385" />
      </symbol>
    </g>
    <g
       id="g8495">
      <symbol
         id="symbol5797"
         overflow="visible">
        <path
           id="path9018"
           d=""
           style="stroke:none" />
      </symbol>
      <symbol
         id="symbol7289"
         overflow="visible">
        <path
           id="path3901"
           d="m 2.9375,-6.375 c 0,-0.25 0,-0.265625 -0.234375,-0.265625 C 2.078125,-6 1.203125,-6 0.890625,-6 v 0.3125 c 0.203125,0 0.78125,0 1.296875,-0.265625 v 5.171875 c 0,0.359375 -0.03125,0.46875 -0.921875,0.46875 h -0.3125 V 0 c 0.34375,-0.03125 1.203125,-0.03125 1.609375,-0.03125 0.390625,0 1.265625,0 1.609375,0.03125 v -0.3125 h -0.3125 c -0.90625,0 -0.921875,-0.109375 -0.921875,-0.46875 z m 0,0"
           style="stroke:none" />
      </symbol>
      <symbol
         id="symbol9801"
         overflow="visible">
        <path
           id="path1440"
           d=""
           style="stroke:none" />
      </symbol>
      <symbol
         id="symbol2879"
         overflow="visible">
        <path
           id="path221"
           d="m 6.5625,-2.296875 c 0.171875,0 0.359375,0 0.359375,-0.203125 0,-0.1875 -0.1875,-0.1875 -0.359375,-0.1875 H 1.171875 c -0.171875,0 -0.34375,0 -0.34375,0.1875 0,0.203125 0.171875,0.203125 0.34375,0.203125 z m 0,0"
           style="stroke:none" />
      </symbol>
    </g>
  </defs>
  <sodipodi:namedview
     inkscape:window-maximized="1"
     inkscape:window-y="27"
     inkscape:window-x="0"
     inkscape:window-height="1376"
     inkscape:window-width="2560"
     showgrid="false"
     inkscape:document-rotation="0"
     inkscape:current-layer="layer1"
     inkscape:document-units="mm"
     inkscape:cy="20.747191"
     inkscape:cx="102.77368"
     inkscape:zoom="4.1208118"
     inkscape:pageshadow="2"
     inkscape:pageopacity="0.0"
     borderopacity="1.0"
     bordercolor="#666666"
     pagecolor="#ffffff"
     id="base"
     showguides="true"
     inkscape:guide-bbox="true" />
  <metadata
     id="metadata5">
    <rdf:RDF>
      <cc:Work
         rdf:about="">
        <dc:format>image/svg+xml</dc:format>
        <dc:type
           rdf:resource="http://purl.org/dc/dcmitype/StillImage" />
        <dc:title />
      </cc:Work>
    </rdf:RDF>
  </metadata>
  <g
     transform="translate(-70.112005,-158.69184)"
     id="layer1"
     inkscape:groupmode="layer"
     inkscape:label="Layer 1">
    <path
       id="path833"
       d="M 70.112005,176.85727 H 119.59598"
       style="fill:none;stroke:#000000;stroke-width:0.264583;stroke-linecap:butt;stroke-linejoin:miter;stroke-miterlimit:4;stroke-dasharray:none;stroke-opacity:1;marker-end:url(#marker1115)" />
    <path
       id="path835"
       d="M 95.09642,178.79549 V 162.31892"
       style="fill:none;stroke:#000000;stroke-width:0.264583;stroke-linecap:butt;stroke-linejoin:miter;stroke-miterlimit:4;stroke-dasharray:none;stroke-opacity:1;marker-end:url(#Arrow1Mend)" />
    <path
       d="m 75.942274,176.72339 a 19.265505,9.3188744 0 0 1 19.265505,-9.31888 19.265505,9.3188744 0 0 1 19.265501,9.31888"
       style="fill:none;stroke:#000000;stroke-width:0.264583;stroke-linecap:round;stroke-linejoin:round;stroke-miterlimit:4;stroke-dasharray:none;stop-color:#000000"
       id="path1194" />
    <path
       style="fill:#000000;fill-opacity:1;stroke:none;stroke-width:1"
       d="m 95.916691,159.00434 c -0.08594,0 -0.148438,0 -0.21875,0.0625 -0.08594,0.0781 -0.09375,0.16406 -0.09375,0.19531 0,0.125 0.09375,0.17969 0.1875,0.17969 0.140625,0 0.273437,-0.125 0.273437,-0.32032 0,-0.24218 -0.234375,-0.42968 -0.585937,-0.42968 -0.671875,0 -1.335938,0.71093 -1.335938,1.41406 0,0.45312 0.289063,0.84375 0.8125,0.84375 0.710938,0 1.125,-0.53125 1.125,-0.58594 0,-0.0312 -0.02344,-0.0703 -0.05469,-0.0703 -0.03125,0 -0.03906,0.0156 -0.07031,0.0547 -0.390625,0.49218 -0.9375,0.49218 -0.992187,0.49218 -0.3125,0 -0.453125,-0.24218 -0.453125,-0.54687 0,-0.20313 0.101562,-0.6875 0.273437,-0.99219 0.15625,-0.28906 0.429688,-0.5 0.703125,-0.5 0.164063,0 0.359375,0.0625 0.429688,0.20313 z m 0,0"
       id="path1135" />
    <path
       style="fill:#000000;fill-opacity:1;stroke:none;stroke-width:1"
       d="m 123.46119,176.0643 c -0.13281,0.008 -0.23437,0.11719 -0.23437,0.22656 0,0.0703 0.0469,0.14844 0.15625,0.14844 0.10937,0 0.22656,-0.0859 0.22656,-0.28125 0,-0.22656 -0.21094,-0.42969 -0.59375,-0.42969 -0.65625,0 -0.84375,0.50782 -0.84375,0.72657 0,0.39062 0.36719,0.46093 0.51562,0.49218 0.25782,0.0547 0.51563,0.10938 0.51563,0.38282 0,0.125 -0.10938,0.54687 -0.71094,0.54687 -0.0703,0 -0.45312,0 -0.57031,-0.26562 0.19531,0.0234 0.32031,-0.125 0.32031,-0.26563 0,-0.10937 -0.0859,-0.17187 -0.1875,-0.17187 -0.13281,0 -0.28125,0.10156 -0.28125,0.32812 0,0.28125 0.28906,0.48438 0.71094,0.48438 0.8125,0 1.00781,-0.60157 1.00781,-0.82813 0,-0.17969 -0.0937,-0.30469 -0.15625,-0.35937 -0.13281,-0.14063 -0.28125,-0.17188 -0.5,-0.21094 -0.17969,-0.0391 -0.375,-0.0781 -0.375,-0.30469 0,-0.14062 0.11719,-0.44531 0.55469,-0.44531 0.125,0 0.375,0.0391 0.44531,0.22656 z m 0,0"
       id="path1139" />
    <use
       xlink:href="#symbol7289"
       x="91.925003"
       y="81.962997"
       id="use1684"
       width="100%"
       height="100%"
       transform="matrix(0.5,0,0,0.5,67.26948,140.0244)"
       style="fill:#000000;fill-opacity:1;stroke-width:2" />
    <g
       style="stroke-width:2"
       transform="matrix(0.5,0,0,0.5,19.769799,132.20835)"
       id="g1008">
      <path
         style="fill:#000000;fill-opacity:1;stroke:none;stroke-width:2"
         d="m 112.04124,95.298222 c 0.17188,0 0.35938,0 0.35938,-0.203125 0,-0.1875 -0.1875,-0.1875 -0.35938,-0.1875 h -5.39062 c -0.17188,0 -0.34375,0 -0.34375,0.1875 0,0.203125 0.17187,0.203125 0.34375,0.203125 z m 0,0"
         id="path996" />
      <path
         style="fill:#000000;fill-opacity:1;stroke:none;stroke-width:2"
         d="m 116.16424,91.220097 c 0,-0.25 0,-0.265625 -0.23437,-0.265625 -0.625,0.640625 -1.5,0.640625 -1.8125,0.640625 v 0.3125 c 0.20312,0 0.78125,0 1.29687,-0.265625 v 5.171875 c 0,0.359375 -0.0312,0.46875 -0.92187,0.46875 h -0.3125 v 0.3125 c 0.34375,-0.03125 1.20312,-0.03125 1.60937,-0.03125 0.39063,0 1.26563,0 1.60938,0.03125 v -0.3125 h -0.3125 c -0.90625,0 -0.92188,-0.109375 -0.92188,-0.46875 z m 0,0"
         id="path1000" />
    </g>
  </g>
</svg>
