<?xml version="1.0" encoding="UTF-8" standalone="no"?>
<svg
   xmlns:dc="http://purl.org/dc/elements/1.1/"
   xmlns:cc="http://creativecommons.org/ns#"
   xmlns:rdf="http://www.w3.org/1999/02/22-rdf-syntax-ns#"
   xmlns:svg="http://www.w3.org/2000/svg"
   xmlns="http://www.w3.org/2000/svg"
   xmlns:xlink="http://www.w3.org/1999/xlink"
   xmlns:sodipodi="http://sodipodi.sourceforge.net/DTD/sodipodi-0.dtd"
   xmlns:inkscape="http://www.inkscape.org/namespaces/inkscape"
   width="53.497623mm"
   height="23.930679mm"
   viewBox="0 0 53.497624 23.930679"
   version="1.1"
   id="svg8"
   inkscape:version="1.0 (4035a4fb49, 2020-05-01)"
   sodipodi:docname="chord_surface_ryz.svg">
  <defs
     id="defs2">
    <marker
       inkscape:isstock="true"
       style="overflow:visible"
       id="marker1115"
       refX="0"
       refY="0"
       orient="auto"
       inkscape:stockid="Arrow1Mend">
      <path
         transform="matrix(-0.4,0,0,-0.4,-4,0)"
         style="fill:#000000;fill-opacity:1;fill-rule:evenodd;stroke:#000000;stroke-width:1pt;stroke-opacity:1"
         d="M 0,0 5,-5 -12.5,0 5,5 Z"
         id="path1113" />
    </marker>
    <marker
       inkscape:stockid="Arrow1Mend"
       orient="auto"
       refY="0"
       refX="0"
       id="Arrow1Mend"
       style="overflow:visible"
       inkscape:isstock="true"
       inkscape:collect="always">
      <path
         id="path846"
         d="M 0,0 5,-5 -12.5,0 5,5 Z"
         style="fill:#000000;fill-opacity:1;fill-rule:evenodd;stroke:#000000;stroke-width:1pt;stroke-opacity:1"
         transform="matrix(-0.4,0,0,-0.4,-4,0)" />
    </marker>
    <g
       id="g1759">
      <symbol
         overflow="visible"
         id="symbol4355">
        <path
           style="stroke:none"
           d=""
           id="path2412" />
      </symbol>
      <symbol
         overflow="visible"
         id="symbol9682">
        <path
           style="stroke:none"
           d="m 3.953125,-3.78125 c -0.171875,0 -0.296875,0 -0.4375,0.125 -0.171875,0.15625 -0.1875,0.328125 -0.1875,0.390625 0,0.25 0.1875,0.359375 0.375,0.359375 0.28125,0 0.546875,-0.25 0.546875,-0.640625 0,-0.484375 -0.46875,-0.859375 -1.171875,-0.859375 -1.34375,0 -2.671875,1.421875 -2.671875,2.828125 0,0.90625 0.578125,1.6875 1.625,1.6875 1.421875,0 2.25,-1.0625 2.25,-1.171875 0,-0.0625 -0.046875,-0.140625 -0.109375,-0.140625 -0.0625,0 -0.078125,0.03125 -0.140625,0.109375 -0.78125,0.984375 -1.875,0.984375 -1.984375,0.984375 -0.625,0 -0.90625,-0.484375 -0.90625,-1.09375 0,-0.40625 0.203125,-1.375 0.546875,-1.984375 0.3125,-0.578125 0.859375,-1 1.40625,-1 0.328125,0 0.71875,0.125 0.859375,0.40625 z m 0,0"
           id="path3515" />
      </symbol>
      <symbol
         overflow="visible"
         id="symbol2418">
        <path
           style="stroke:none"
           d="m 4.84375,-3.796875 c 0.046875,-0.140625 0.046875,-0.15625 0.046875,-0.234375 0,-0.171875 -0.140625,-0.265625 -0.296875,-0.265625 -0.09375,0 -0.25,0.0625 -0.34375,0.203125 -0.015625,0.0625 -0.109375,0.359375 -0.140625,0.546875 -0.078125,0.25 -0.140625,0.53125 -0.203125,0.796875 l -0.453125,1.796875 c -0.03125,0.140625 -0.46875,0.84375 -1.125,0.84375 -0.5,0 -0.609375,-0.4375 -0.609375,-0.8125 C 1.71875,-1.375 1.890625,-2 2.21875,-2.875 2.375,-3.28125 2.421875,-3.390625 2.421875,-3.59375 c 0,-0.4375 -0.3125,-0.8125 -0.8125,-0.8125 -0.953125,0 -1.3125,1.453125 -1.3125,1.53125 0,0.109375 0.09375,0.109375 0.109375,0.109375 0.109375,0 0.109375,-0.03125 0.15625,-0.1875 0.28125,-0.9375 0.671875,-1.234375 1.015625,-1.234375 0.078125,0 0.25,0 0.25,0.3125 0,0.25 -0.109375,0.515625 -0.171875,0.703125 -0.40625,1.0625 -0.578125,1.625 -0.578125,2.09375 0,0.890625 0.625,1.1875 1.21875,1.1875 0.390625,0 0.71875,-0.171875 1,-0.453125 -0.125,0.515625 -0.25,1.015625 -0.640625,1.546875 -0.265625,0.328125 -0.640625,0.625 -1.09375,0.625 -0.140625,0 -0.59375,-0.03125 -0.765625,-0.421875 0.15625,0 0.296875,0 0.421875,-0.125 C 1.328125,1.203125 1.421875,1.0625 1.421875,0.875 1.421875,0.5625 1.15625,0.53125 1.0625,0.53125 0.828125,0.53125 0.5,0.6875 0.5,1.171875 c 0,0.5 0.4375,0.875 1.0625,0.875 1.015625,0 2.046875,-0.90625 2.328125,-2.03125 z m 0,0"
           id="path9689" />
      </symbol>
    </g>
    <g
       id="g863">
      <symbol
         overflow="visible"
         id="symbol4239">
        <path
           style="stroke:none"
           d=""
           id="path4039" />
      </symbol>
      <symbol
         overflow="visible"
         id="symbol1053">
        <path
           style="stroke:none"
           d="M 2.75,-1.859375 V -2.4375 H 0.109375 v 0.578125 z m 0,0"
           id="path8324" />
      </symbol>
      <symbol
         overflow="visible"
         id="symbol8619">
        <path
           style="stroke:none"
           d="m 2.9375,-6.375 c 0,-0.25 0,-0.265625 -0.234375,-0.265625 C 2.078125,-6 1.203125,-6 0.890625,-6 v 0.3125 c 0.203125,0 0.78125,0 1.296875,-0.265625 v 5.171875 c 0,0.359375 -0.03125,0.46875 -0.921875,0.46875 h -0.3125 V 0 c 0.34375,-0.03125 1.203125,-0.03125 1.609375,-0.03125 0.390625,0 1.265625,0 1.609375,0.03125 v -0.3125 h -0.3125 c -0.90625,0 -0.921875,-0.109375 -0.921875,-0.46875 z m 0,0"
           id="path892" />
      </symbol>
    </g>
    <g
       id="g3182">
      <symbol
         id="symbol4410"
         overflow="visible">
        <path
           id="path7125"
           d=""
           style="stroke:none" />
      </symbol>
      <symbol
         id="symbol8580"
         overflow="visible">
        <path
           id="path150"
           d="m 3.953125,-3.78125 c -0.171875,0 -0.296875,0 -0.4375,0.125 -0.171875,0.15625 -0.1875,0.328125 -0.1875,0.390625 0,0.25 0.1875,0.359375 0.375,0.359375 0.28125,0 0.546875,-0.25 0.546875,-0.640625 0,-0.484375 -0.46875,-0.859375 -1.171875,-0.859375 -1.34375,0 -2.671875,1.421875 -2.671875,2.828125 0,0.90625 0.578125,1.6875 1.625,1.6875 1.421875,0 2.25,-1.0625 2.25,-1.171875 0,-0.0625 -0.046875,-0.140625 -0.109375,-0.140625 -0.0625,0 -0.078125,0.03125 -0.140625,0.109375 -0.78125,0.984375 -1.875,0.984375 -1.984375,0.984375 -0.625,0 -0.90625,-0.484375 -0.90625,-1.09375 0,-0.40625 0.203125,-1.375 0.546875,-1.984375 0.3125,-0.578125 0.859375,-1 1.40625,-1 0.328125,0 0.71875,0.125 0.859375,0.40625 z m 0,0"
           style="stroke:none" />
      </symbol>
      <symbol
         id="symbol4199"
         overflow="visible">
        <path
           id="path7595"
           d="M 3.890625,-3.734375 C 3.625,-3.71875 3.421875,-3.5 3.421875,-3.28125 c 0,0.140625 0.09375,0.296875 0.3125,0.296875 0.21875,0 0.453125,-0.171875 0.453125,-0.5625 C 4.1875,-4 3.765625,-4.40625 3,-4.40625 c -1.3125,0 -1.6875,1.015625 -1.6875,1.453125 0,0.78125 0.734375,0.921875 1.03125,0.984375 0.515625,0.109375 1.03125,0.21875 1.03125,0.765625 0,0.25 -0.21875,1.09375 -1.421875,1.09375 -0.140625,0 -0.90625,0 -1.140625,-0.53125 0.390625,0.046875 0.640625,-0.25 0.640625,-0.53125 0,-0.21875 -0.171875,-0.34375 -0.375,-0.34375 -0.265625,0 -0.5625,0.203125 -0.5625,0.65625 0,0.5625 0.578125,0.96875 1.421875,0.96875 1.625,0 2.015625,-1.203125 2.015625,-1.65625 0,-0.359375 -0.1875,-0.609375 -0.3125,-0.71875 -0.265625,-0.28125 -0.5625,-0.34375 -1,-0.421875 -0.359375,-0.078125 -0.75,-0.15625 -0.75,-0.609375 C 1.890625,-3.578125 2.125,-4.1875 3,-4.1875 c 0.25,0 0.75,0.078125 0.890625,0.453125 z m 0,0"
           style="stroke:none" />
      </symbol>
    </g>
    <g
       id="g6794">
      <symbol
         id="symbol2882"
         overflow="visible">
        <path
           id="path7653"
           d=""
           style="stroke:none" />
      </symbol>
      <symbol
         id="symbol9215"
         overflow="visible">
        <path
           id="path1152"
           d="m 3.953125,-3.78125 c -0.171875,0 -0.296875,0 -0.4375,0.125 -0.171875,0.15625 -0.1875,0.328125 -0.1875,0.390625 0,0.25 0.1875,0.359375 0.375,0.359375 0.28125,0 0.546875,-0.25 0.546875,-0.640625 0,-0.484375 -0.46875,-0.859375 -1.171875,-0.859375 -1.34375,0 -2.671875,1.421875 -2.671875,2.828125 0,0.90625 0.578125,1.6875 1.625,1.6875 1.421875,0 2.25,-1.0625 2.25,-1.171875 0,-0.0625 -0.046875,-0.140625 -0.109375,-0.140625 -0.0625,0 -0.078125,0.03125 -0.140625,0.109375 -0.78125,0.984375 -1.875,0.984375 -1.984375,0.984375 -0.625,0 -0.90625,-0.484375 -0.90625,-1.09375 0,-0.40625 0.203125,-1.375 0.546875,-1.984375 0.3125,-0.578125 0.859375,-1 1.40625,-1 0.328125,0 0.71875,0.125 0.859375,0.40625 z m 0,0"
           style="stroke:none" />
      </symbol>
      <symbol
         id="symbol5879"
         overflow="visible">
        <path
           id="path5322"
           d="M 3.890625,-3.734375 C 3.625,-3.71875 3.421875,-3.5 3.421875,-3.28125 c 0,0.140625 0.09375,0.296875 0.3125,0.296875 0.21875,0 0.453125,-0.171875 0.453125,-0.5625 C 4.1875,-4 3.765625,-4.40625 3,-4.40625 c -1.3125,0 -1.6875,1.015625 -1.6875,1.453125 0,0.78125 0.734375,0.921875 1.03125,0.984375 0.515625,0.109375 1.03125,0.21875 1.03125,0.765625 0,0.25 -0.21875,1.09375 -1.421875,1.09375 -0.140625,0 -0.90625,0 -1.140625,-0.53125 0.390625,0.046875 0.640625,-0.25 0.640625,-0.53125 0,-0.21875 -0.171875,-0.34375 -0.375,-0.34375 -0.265625,0 -0.5625,0.203125 -0.5625,0.65625 0,0.5625 0.578125,0.96875 1.421875,0.96875 1.625,0 2.015625,-1.203125 2.015625,-1.65625 0,-0.359375 -0.1875,-0.609375 -0.3125,-0.71875 -0.265625,-0.28125 -0.5625,-0.34375 -1,-0.421875 -0.359375,-0.078125 -0.75,-0.15625 -0.75,-0.609375 C 1.890625,-3.578125 2.125,-4.1875 3,-4.1875 c 0.25,0 0.75,0.078125 0.890625,0.453125 z m 0,0"
           style="stroke:none" />
      </symbol>
    </g>
    <g
       id="g7523">
      <symbol
         id="symbol3732"
         overflow="visible">
        <path
           id="path9160"
           d=""
           style="stroke:none" />
      </symbol>
      <symbol
         id="symbol6764"
         overflow="visible">
        <path
           id="path6889"
           d="m 6.5625,-2.296875 c 0.171875,0 0.359375,0 0.359375,-0.203125 0,-0.1875 -0.1875,-0.1875 -0.359375,-0.1875 H 1.171875 c -0.171875,0 -0.34375,0 -0.34375,0.1875 0,0.203125 0.171875,0.203125 0.34375,0.203125 z m 0,0"
           style="stroke:none" />
      </symbol>
      <symbol
         id="symbol3668"
         overflow="visible">
        <path
           id="path7164"
           d=""
           style="stroke:none" />
      </symbol>
      <symbol
         id="symbol7960"
         overflow="visible">
        <path
           id="path1385"
           d="m 2.9375,-6.375 c 0,-0.25 0,-0.265625 -0.234375,-0.265625 C 2.078125,-6 1.203125,-6 0.890625,-6 v 0.3125 c 0.203125,0 0.78125,0 1.296875,-0.265625 v 5.171875 c 0,0.359375 -0.03125,0.46875 -0.921875,0.46875 h -0.3125 V 0 c 0.34375,-0.03125 1.203125,-0.03125 1.609375,-0.03125 0.390625,0 1.265625,0 1.609375,0.03125 v -0.3125 h -0.3125 c -0.90625,0 -0.921875,-0.109375 -0.921875,-0.46875 z m 0,0"
           style="stroke:none" />
      </symbol>
    </g>
    <g
       id="g8495">
      <symbol
         overflow="visible"
         id="symbol5797">
        <path
           style="stroke:none"
           d=""
           id="path9018" />
      </symbol>
      <symbol
         overflow="visible"
         id="symbol7289">
        <path
           style="stroke:none"
           d="m 2.9375,-6.375 c 0,-0.25 0,-0.265625 -0.234375,-0.265625 C 2.078125,-6 1.203125,-6 0.890625,-6 v 0.3125 c 0.203125,0 0.78125,0 1.296875,-0.265625 v 5.171875 c 0,0.359375 -0.03125,0.46875 -0.921875,0.46875 h -0.3125 V 0 c 0.34375,-0.03125 1.203125,-0.03125 1.609375,-0.03125 0.390625,0 1.265625,0 1.609375,0.03125 v -0.3125 h -0.3125 c -0.90625,0 -0.921875,-0.109375 -0.921875,-0.46875 z m 0,0"
           id="path3901" />
      </symbol>
      <symbol
         overflow="visible"
         id="symbol9801">
        <path
           style="stroke:none"
           d=""
           id="path1440" />
      </symbol>
      <symbol
         overflow="visible"
         id="symbol2879">
        <path
           style="stroke:none"
           d="m 6.5625,-2.296875 c 0.171875,0 0.359375,0 0.359375,-0.203125 0,-0.1875 -0.1875,-0.1875 -0.359375,-0.1875 H 1.171875 c -0.171875,0 -0.34375,0 -0.34375,0.1875 0,0.203125 0.171875,0.203125 0.34375,0.203125 z m 0,0"
           id="path221" />
      </symbol>
    </g>
    <g
       id="g4333">
      <symbol
         id="symbol4025"
         overflow="visible">
        <path
           id="path1442"
           d=""
           style="stroke:none" />
      </symbol>
      <symbol
         id="symbol3099"
         overflow="visible">
        <path
           id="path4011"
           d="m 0.875,-0.59375 c -0.03125,0.15625 -0.09375,0.390625 -0.09375,0.4375 0,0.171875 0.140625,0.265625 0.296875,0.265625 0.125,0 0.296875,-0.078125 0.375,-0.28125 C 1.46875,-0.203125 1.796875,-1.5625 1.84375,-1.75 c 0.078125,-0.328125 0.265625,-1.015625 0.3125,-1.296875 0.046875,-0.125 0.328125,-0.59375 0.5625,-0.8125 0.078125,-0.0625 0.375,-0.328125 0.796875,-0.328125 0.265625,0 0.40625,0.125 0.421875,0.125 -0.296875,0.046875 -0.515625,0.28125 -0.515625,0.546875 0,0.15625 0.109375,0.34375 0.375,0.34375 0.265625,0 0.546875,-0.234375 0.546875,-0.59375 0,-0.34375 -0.3125,-0.640625 -0.828125,-0.640625 C 2.875,-4.40625 2.4375,-3.921875 2.25,-3.640625 2.15625,-4.09375 1.796875,-4.40625 1.328125,-4.40625 0.875,-4.40625 0.6875,-4.015625 0.59375,-3.84375 0.421875,-3.5 0.296875,-2.90625 0.296875,-2.875 c 0,0.109375 0.09375,0.109375 0.109375,0.109375 0.109375,0 0.109375,-0.015625 0.171875,-0.234375 0.171875,-0.703125 0.375,-1.1875 0.734375,-1.1875 0.15625,0 0.296875,0.078125 0.296875,0.453125 0,0.21875 -0.03125,0.328125 -0.15625,0.84375 z m 0,0"
           style="stroke:none" />
      </symbol>
      <symbol
         id="symbol217"
         overflow="visible">
        <path
           id="path2713"
           d=""
           style="stroke:none" />
      </symbol>
      <symbol
         id="symbol9833"
         overflow="visible">
        <path
           id="path6014"
           d="M 1.734375,-0.734375 C 1.671875,-0.5 1.4375,-0.125 1.078125,-0.125 c -0.015625,0 -0.234375,0 -0.375,-0.09375 0.28125,-0.09375 0.3125,-0.34375 0.3125,-0.390625 0,-0.15625 -0.125,-0.25 -0.28125,-0.25 -0.203125,0 -0.40625,0.15625 -0.40625,0.421875 0,0.34375 0.390625,0.5 0.734375,0.5 0.328125,0 0.609375,-0.1875 0.78125,-0.484375 C 2.015625,-0.0625 2.390625,0.0625 2.671875,0.0625 c 0.8125,0 1.234375,-0.859375 1.234375,-1.0625 0,-0.09375 -0.09375,-0.09375 -0.109375,-0.09375 -0.109375,0 -0.109375,0.046875 -0.140625,0.125 -0.140625,0.484375 -0.5625,0.84375 -0.953125,0.84375 -0.28125,0 -0.421875,-0.1875 -0.421875,-0.453125 0,-0.1875 0.171875,-0.8125 0.359375,-1.59375 C 2.78125,-2.703125 3.09375,-2.875 3.328125,-2.875 c 0.015625,0 0.21875,0 0.375,0.09375 -0.21875,0.0625 -0.3125,0.265625 -0.3125,0.390625 0,0.140625 0.125,0.25 0.28125,0.25 0.15625,0 0.390625,-0.125 0.390625,-0.421875 0,-0.390625 -0.453125,-0.515625 -0.71875,-0.515625 -0.359375,0 -0.640625,0.234375 -0.78125,0.5 -0.125,-0.28125 -0.453125,-0.5 -0.84375,-0.5 C 0.9375,-3.078125 0.5,-2.21875 0.5,-2 c 0,0.078125 0.09375,0.078125 0.109375,0.078125 0.09375,0 0.09375,-0.015625 0.140625,-0.109375 C 0.921875,-2.578125 1.359375,-2.875 1.703125,-2.875 1.9375,-2.875 2.125,-2.75 2.125,-2.421875 2.125,-2.28125 2.03125,-1.9375 1.96875,-1.6875 Z m 0,0"
           style="stroke:none" />
      </symbol>
      <symbol
         id="symbol4191"
         overflow="visible">
        <path
           id="path4749"
           d="M 3.875,-2.625 C 3.90625,-2.71875 3.90625,-2.734375 3.90625,-2.78125 3.90625,-2.921875 3.796875,-3 3.671875,-3 3.59375,-3 3.46875,-2.96875 3.390625,-2.84375 3.359375,-2.796875 3.3125,-2.578125 3.28125,-2.4375 L 3.125,-1.859375 c -0.03125,0.171875 -0.25,1.046875 -0.28125,1.125 0,0 -0.3125,0.609375 -0.84375,0.609375 -0.484375,0 -0.484375,-0.453125 -0.484375,-0.578125 0,-0.375 0.15625,-0.8125 0.375,-1.359375 C 1.96875,-2.28125 2,-2.359375 2,-2.484375 2,-2.8125 1.71875,-3.078125 1.34375,-3.078125 0.640625,-3.078125 0.328125,-2.125 0.328125,-2 c 0,0.078125 0.09375,0.078125 0.125,0.078125 0.09375,0 0.09375,-0.03125 0.125,-0.109375 C 0.75,-2.609375 1.046875,-2.875 1.328125,-2.875 1.4375,-2.875 1.5,-2.796875 1.5,-2.640625 c 0,0.171875 -0.0625,0.3125 -0.09375,0.40625 C 1.0625,-1.375 1,-1.125 1,-0.8125 1,-0.703125 1,-0.375 1.265625,-0.140625 1.484375,0.03125 1.78125,0.0625 1.96875,0.0625 2.25,0.0625 2.5,-0.03125 2.71875,-0.25 2.640625,0.140625 2.5625,0.4375 2.265625,0.78125 2.078125,1 1.796875,1.21875 1.421875,1.21875 c -0.046875,0 -0.375,0 -0.515625,-0.21875 0.375,-0.046875 0.375,-0.375 0.375,-0.390625 0,-0.21875 -0.203125,-0.265625 -0.265625,-0.265625 -0.171875,0 -0.40625,0.140625 -0.40625,0.46875 0,0.34375 0.328125,0.609375 0.828125,0.609375 C 2.140625,1.421875 3,0.875 3.21875,0 Z m 0,0"
           style="stroke:none" />
      </symbol>
    </g>
    <g
       id="g6365">
      <symbol
         id="symbol5159"
         overflow="visible">
        <path
           id="path7744"
           d=""
           style="stroke:none" />
      </symbol>
      <symbol
         id="symbol412"
         overflow="visible">
        <path
           id="path7705"
           d="m 0.875,-0.59375 c -0.03125,0.15625 -0.09375,0.390625 -0.09375,0.4375 0,0.171875 0.140625,0.265625 0.296875,0.265625 0.125,0 0.296875,-0.078125 0.375,-0.28125 C 1.46875,-0.203125 1.796875,-1.5625 1.84375,-1.75 c 0.078125,-0.328125 0.265625,-1.015625 0.3125,-1.296875 0.046875,-0.125 0.328125,-0.59375 0.5625,-0.8125 0.078125,-0.0625 0.375,-0.328125 0.796875,-0.328125 0.265625,0 0.40625,0.125 0.421875,0.125 -0.296875,0.046875 -0.515625,0.28125 -0.515625,0.546875 0,0.15625 0.109375,0.34375 0.375,0.34375 0.265625,0 0.546875,-0.234375 0.546875,-0.59375 0,-0.34375 -0.3125,-0.640625 -0.828125,-0.640625 C 2.875,-4.40625 2.4375,-3.921875 2.25,-3.640625 2.15625,-4.09375 1.796875,-4.40625 1.328125,-4.40625 0.875,-4.40625 0.6875,-4.015625 0.59375,-3.84375 0.421875,-3.5 0.296875,-2.90625 0.296875,-2.875 c 0,0.109375 0.09375,0.109375 0.109375,0.109375 0.109375,0 0.109375,-0.015625 0.171875,-0.234375 0.171875,-0.703125 0.375,-1.1875 0.734375,-1.1875 0.15625,0 0.296875,0.078125 0.296875,0.453125 0,0.21875 -0.03125,0.328125 -0.15625,0.84375 z m 0,0"
           style="stroke:none" />
      </symbol>
      <symbol
         id="symbol2542"
         overflow="visible">
        <path
           id="path6053"
           d=""
           style="stroke:none" />
      </symbol>
      <symbol
         id="symbol9158"
         overflow="visible">
        <path
           id="path4728"
           d="M 3.875,-2.625 C 3.90625,-2.71875 3.90625,-2.734375 3.90625,-2.78125 3.90625,-2.921875 3.796875,-3 3.671875,-3 3.59375,-3 3.46875,-2.96875 3.390625,-2.84375 3.359375,-2.796875 3.3125,-2.578125 3.28125,-2.4375 L 3.125,-1.859375 c -0.03125,0.171875 -0.25,1.046875 -0.28125,1.125 0,0 -0.3125,0.609375 -0.84375,0.609375 -0.484375,0 -0.484375,-0.453125 -0.484375,-0.578125 0,-0.375 0.15625,-0.8125 0.375,-1.359375 C 1.96875,-2.28125 2,-2.359375 2,-2.484375 2,-2.8125 1.71875,-3.078125 1.34375,-3.078125 0.640625,-3.078125 0.328125,-2.125 0.328125,-2 c 0,0.078125 0.09375,0.078125 0.125,0.078125 0.09375,0 0.09375,-0.03125 0.125,-0.109375 C 0.75,-2.609375 1.046875,-2.875 1.328125,-2.875 1.4375,-2.875 1.5,-2.796875 1.5,-2.640625 c 0,0.171875 -0.0625,0.3125 -0.09375,0.40625 C 1.0625,-1.375 1,-1.125 1,-0.8125 1,-0.703125 1,-0.375 1.265625,-0.140625 1.484375,0.03125 1.78125,0.0625 1.96875,0.0625 2.25,0.0625 2.5,-0.03125 2.71875,-0.25 2.640625,0.140625 2.5625,0.4375 2.265625,0.78125 2.078125,1 1.796875,1.21875 1.421875,1.21875 c -0.046875,0 -0.375,0 -0.515625,-0.21875 0.375,-0.046875 0.375,-0.375 0.375,-0.390625 0,-0.21875 -0.203125,-0.265625 -0.265625,-0.265625 -0.171875,0 -0.40625,0.140625 -0.40625,0.46875 0,0.34375 0.328125,0.609375 0.828125,0.609375 C 2.140625,1.421875 3,0.875 3.21875,0 Z m 0,0"
           style="stroke:none" />
      </symbol>
      <symbol
         id="symbol1683"
         overflow="visible">
        <path
           id="path2282"
           d="m 1.171875,-0.609375 c 0.1875,-0.1875 0.3125,-0.3125 0.890625,-0.796875 0.15625,-0.109375 0.671875,-0.53125 0.875,-0.71875 0.421875,-0.421875 0.6875,-0.78125 0.6875,-0.859375 0,-0.09375 -0.078125,-0.09375 -0.109375,-0.09375 -0.0625,0 -0.09375,0.015625 -0.125,0.078125 -0.21875,0.3125 -0.359375,0.421875 -0.53125,0.421875 -0.078125,0 -0.1875,0 -0.390625,-0.203125 -0.234375,-0.25 -0.390625,-0.296875 -0.546875,-0.296875 -0.5625,0 -0.9375,0.609375 -0.9375,0.8125 0,0.078125 0.0625,0.09375 0.109375,0.09375 0.09375,0 0.109375,-0.015625 0.125,-0.09375 0.109375,-0.25 0.5,-0.265625 0.609375,-0.265625 0.171875,0 0.34375,0.046875 0.4375,0.0625 0.390625,0.078125 0.4375,0.078125 0.609375,0.078125 -0.171875,0.203125 -0.296875,0.328125 -0.96875,0.84375 -0.546875,0.4375 -0.734375,0.609375 -0.859375,0.75 -0.421875,0.40625 -0.625,0.71875 -0.625,0.78125 0,0.078125 0.09375,0.078125 0.125,0.078125 0.0625,0 0.078125,0 0.109375,-0.0625 0.1875,-0.265625 0.40625,-0.421875 0.640625,-0.421875 0.09375,0 0.1875,0 0.375,0.171875 0.21875,0.21875 0.359375,0.3125 0.59375,0.3125 C 3,0.0625 3.46875,-0.78125 3.46875,-1.015625 3.46875,-1.09375 3.390625,-1.09375 3.359375,-1.09375 3.265625,-1.09375 3.25,-1.0625 3.21875,-0.984375 3.09375,-0.640625 2.6875,-0.46875 2.34375,-0.46875 2.1875,-0.46875 2,-0.515625 1.828125,-0.546875 1.515625,-0.625 1.453125,-0.625 1.328125,-0.625 c -0.015625,0 -0.109375,0 -0.15625,0.015625 z m 0,0"
           style="stroke:none" />
      </symbol>
    </g>
  </defs>
  <sodipodi:namedview
     inkscape:guide-bbox="true"
     showguides="true"
     id="base"
     pagecolor="#ffffff"
     bordercolor="#666666"
     borderopacity="1.0"
     inkscape:pageopacity="0.0"
     inkscape:pageshadow="2"
     inkscape:zoom="4.1537917"
     inkscape:cx="81.659884"
     inkscape:cy="-12.762476"
     inkscape:document-units="mm"
     inkscape:current-layer="layer1"
     inkscape:document-rotation="0"
     showgrid="false"
     inkscape:window-width="2560"
     inkscape:window-height="1376"
     inkscape:window-x="0"
     inkscape:window-y="27"
     inkscape:window-maximized="1" />
  <metadata
     id="metadata5">
    <rdf:RDF>
      <cc:Work
         rdf:about="">
        <dc:format>image/svg+xml</dc:format>
        <dc:type
           rdf:resource="http://purl.org/dc/dcmitype/StillImage" />
        <dc:title />
      </cc:Work>
    </rdf:RDF>
  </metadata>
  <g
     inkscape:label="Layer 1"
     inkscape:groupmode="layer"
     id="layer1"
     transform="translate(-70.112005,-157.07522)">
    <path
       style="fill:none;stroke:#000000;stroke-width:0.264583;stroke-linecap:butt;stroke-linejoin:miter;stroke-miterlimit:4;stroke-dasharray:none;stroke-opacity:1;marker-end:url(#marker1115)"
       d="M 70.112005,176.85727 H 119.59598"
       id="path833" />
    <path
       style="fill:none;stroke:#000000;stroke-width:0.264583;stroke-linecap:butt;stroke-linejoin:miter;stroke-miterlimit:4;stroke-dasharray:none;stroke-opacity:1;marker-end:url(#Arrow1Mend)"
       d="M 95.096418,178.79548 V 162.38641"
       id="path835" />
    <path
       id="path1139"
       d="m 123.46119,176.0643 c -0.13281,0.008 -0.23437,0.11719 -0.23437,0.22656 0,0.0703 0.0469,0.14844 0.15625,0.14844 0.10937,0 0.22656,-0.0859 0.22656,-0.28125 0,-0.22656 -0.21094,-0.42969 -0.59375,-0.42969 -0.65625,0 -0.84375,0.50782 -0.84375,0.72657 0,0.39062 0.36719,0.46093 0.51562,0.49218 0.25782,0.0547 0.51563,0.10938 0.51563,0.38282 0,0.125 -0.10938,0.54687 -0.71094,0.54687 -0.0703,0 -0.45312,0 -0.57031,-0.26562 0.19531,0.0234 0.32031,-0.125 0.32031,-0.26563 0,-0.10937 -0.0859,-0.17187 -0.1875,-0.17187 -0.13281,0 -0.28125,0.10156 -0.28125,0.32812 0,0.28125 0.28906,0.48438 0.71094,0.48438 0.8125,0 1.00781,-0.60157 1.00781,-0.82813 0,-0.17969 -0.0937,-0.30469 -0.15625,-0.35937 -0.13281,-0.14063 -0.28125,-0.17188 -0.5,-0.21094 -0.17969,-0.0391 -0.375,-0.0781 -0.375,-0.30469 0,-0.14062 0.11719,-0.44531 0.55469,-0.44531 0.125,0 0.375,0.0391 0.44531,0.22656 z m 0,0"
       style="fill:#000000;fill-opacity:1;stroke:none;stroke-width:1" />
    <use
       style="fill:#000000;fill-opacity:1;stroke-width:2"
       transform="matrix(0.5,0,0,0.5,67.26948,140.0244)"
       height="100%"
       width="100%"
       id="use1684"
       y="81.962997"
       x="91.925003"
       xlink:href="#symbol7289" />
    <g
       id="g1008"
       transform="matrix(0.5,0,0,0.5,19.769799,132.20835)"
       style="stroke-width:2">
      <path
         id="path996"
         d="m 112.04124,95.298222 c 0.17188,0 0.35938,0 0.35938,-0.203125 0,-0.1875 -0.1875,-0.1875 -0.35938,-0.1875 h -5.39062 c -0.17188,0 -0.34375,0 -0.34375,0.1875 0,0.203125 0.17187,0.203125 0.34375,0.203125 z m 0,0"
         style="fill:#000000;fill-opacity:1;stroke:none;stroke-width:2" />
      <path
         id="path1000"
         d="m 116.16424,91.220097 c 0,-0.25 0,-0.265625 -0.23437,-0.265625 -0.625,0.640625 -1.5,0.640625 -1.8125,0.640625 v 0.3125 c 0.20312,0 0.78125,0 1.29687,-0.265625 v 5.171875 c 0,0.359375 -0.0312,0.46875 -0.92187,0.46875 h -0.3125 v 0.3125 c 0.34375,-0.03125 1.20312,-0.03125 1.60937,-0.03125 0.39063,0 1.26563,0 1.60938,0.03125 v -0.3125 h -0.3125 c -0.90625,0 -0.92188,-0.109375 -0.92188,-0.46875 z m 0,0"
         style="fill:#000000;fill-opacity:1;stroke:none;stroke-width:2" />
    </g>
    <path
       id="path985"
       d="M 75.789066,167.49614 H 114.40376"
       style="fill:none;stroke:#000000;stroke-width:0.264583px;stroke-linecap:butt;stroke-linejoin:miter;stroke-opacity:1" />
    <g
       transform="translate(0.1267975)"
       id="g1278">
      <path
         style="fill:#000000;fill-opacity:1;stroke:none;stroke-width:1"
         d="m 92.229981,158.98147 c -0.01563,0.0781 -0.04687,0.19532 -0.04687,0.21875 0,0.0859 0.07031,0.13282 0.148437,0.13282 0.0625,0 0.148438,-0.0391 0.1875,-0.14063 0.0078,-0.0156 0.171875,-0.69531 0.195313,-0.78906 0.03906,-0.16406 0.132812,-0.50781 0.15625,-0.64844 0.02344,-0.0625 0.164062,-0.29687 0.28125,-0.40625 0.03906,-0.0312 0.1875,-0.16406 0.398437,-0.16406 0.132813,0 0.203125,0.0625 0.210938,0.0625 -0.148438,0.0234 -0.257813,0.14062 -0.257813,0.27344 0,0.0781 0.05469,0.17187 0.1875,0.17187 0.132813,0 0.273438,-0.11719 0.273438,-0.29687 0,-0.17188 -0.15625,-0.32032 -0.414063,-0.32032 -0.320312,0 -0.539062,0.24219 -0.632812,0.38282 -0.04687,-0.22657 -0.226563,-0.38282 -0.460938,-0.38282 -0.226562,0 -0.320312,0.19532 -0.367187,0.28125 -0.08594,0.17188 -0.148438,0.46875 -0.148438,0.48438 0,0.0547 0.04687,0.0547 0.05469,0.0547 0.05469,0 0.05469,-0.008 0.08594,-0.11719 0.08594,-0.35156 0.1875,-0.59375 0.367188,-0.59375 0.07813,0 0.148437,0.0391 0.148437,0.22656 0,0.10938 -0.01563,0.16406 -0.07813,0.42188 z m 0,0"
         id="path1260" />
      <path
         style="fill:#000000;fill-opacity:1;stroke:none;stroke-width:1"
         d="m 95.977478,158.71285 c 0.01563,-0.0469 0.01563,-0.0547 0.01563,-0.0781 0,-0.0703 -0.05469,-0.10937 -0.117187,-0.10937 -0.03906,0 -0.101563,0.0156 -0.140625,0.0781 -0.01563,0.0234 -0.03906,0.13282 -0.05469,0.20313 l -0.07813,0.28906 c -0.01563,0.0859 -0.125,0.52344 -0.140625,0.5625 0,0 -0.15625,0.30469 -0.421875,0.30469 -0.242187,0 -0.242187,-0.22656 -0.242187,-0.28906 0,-0.1875 0.07813,-0.40625 0.1875,-0.67969 0.03906,-0.10938 0.05469,-0.14844 0.05469,-0.21094 0,-0.16406 -0.140625,-0.29687 -0.328125,-0.29687 -0.351562,0 -0.507812,0.47656 -0.507812,0.53906 0,0.0391 0.04687,0.0391 0.0625,0.0391 0.04687,0 0.04687,-0.0156 0.0625,-0.0547 0.08594,-0.28906 0.234375,-0.42187 0.375,-0.42187 0.05469,0 0.08594,0.0391 0.08594,0.11719 0,0.0859 -0.03125,0.15625 -0.04687,0.20312 -0.171875,0.42969 -0.203125,0.55469 -0.203125,0.71094 0,0.0547 0,0.21875 0.132813,0.33594 0.109375,0.0859 0.257812,0.10156 0.351562,0.10156 0.140625,0 0.265625,-0.0469 0.375,-0.15625 -0.03906,0.19531 -0.07813,0.34375 -0.226562,0.51562 -0.09375,0.10938 -0.234375,0.21875 -0.421875,0.21875 -0.02344,0 -0.1875,0 -0.257813,-0.10937 0.1875,-0.0234 0.1875,-0.1875 0.1875,-0.19531 0,-0.10938 -0.101562,-0.13282 -0.132812,-0.13282 -0.08594,0 -0.203125,0.0703 -0.203125,0.23438 0,0.17187 0.164062,0.30469 0.414062,0.30469 0.351563,0 0.78125,-0.27344 0.890625,-0.71094 z m 0,0"
         id="path1264" />
      <path
         style="fill:#000000;fill-opacity:1;stroke:none;stroke-width:1"
         d="m 96.771755,159.72066 c 0.09375,-0.0937 0.15625,-0.15625 0.445313,-0.39844 0.07813,-0.0547 0.335937,-0.26562 0.4375,-0.35937 0.210937,-0.21094 0.34375,-0.39063 0.34375,-0.42969 0,-0.0469 -0.03906,-0.0469 -0.05469,-0.0469 -0.03125,0 -0.04687,0.008 -0.0625,0.0391 -0.109375,0.15625 -0.179687,0.21094 -0.265625,0.21094 -0.03906,0 -0.09375,0 -0.195312,-0.10157 -0.117188,-0.125 -0.195313,-0.14843 -0.273438,-0.14843 -0.28125,0 -0.46875,0.30468 -0.46875,0.40625 0,0.0391 0.03125,0.0469 0.05469,0.0469 0.04687,0 0.05469,-0.008 0.0625,-0.0469 0.05469,-0.125 0.25,-0.13282 0.304687,-0.13282 0.08594,0 0.171875,0.0234 0.21875,0.0312 0.195313,0.0391 0.21875,0.0391 0.304688,0.0391 -0.08594,0.10156 -0.148438,0.16406 -0.484375,0.42187 -0.273438,0.21875 -0.367188,0.30469 -0.429688,0.375 -0.210937,0.20313 -0.3125,0.35938 -0.3125,0.39063 0,0.0391 0.04687,0.0391 0.0625,0.0391 0.03125,0 0.03906,0 0.05469,-0.0312 0.09375,-0.13281 0.203125,-0.21094 0.320312,-0.21094 0.04687,0 0.09375,0 0.1875,0.0859 0.109375,0.10937 0.179688,0.15625 0.296875,0.15625 0.367188,0 0.601563,-0.42188 0.601563,-0.53906 0,-0.0391 -0.03906,-0.0391 -0.05469,-0.0391 -0.04687,0 -0.05469,0.0156 -0.07031,0.0547 -0.0625,0.17188 -0.265625,0.25781 -0.4375,0.25781 -0.07813,0 -0.171875,-0.0234 -0.257813,-0.0391 -0.15625,-0.0391 -0.1875,-0.0391 -0.25,-0.0391 -0.0078,0 -0.05469,0 -0.07813,0.008 z m 0,0"
         id="path1268" />
    </g>
  </g>
</svg>
