<?xml version="1.0" encoding="UTF-8" standalone="no"?>
<svg
   width="158.27058mm"
   height="152.80859mm"
   viewBox="0 0 448.64101 433.15823"
   version="1.1"
   id="svg226"
   sodipodi:docname="deflected_Ascender_airfoil.svg"
   inkscape:version="1.1.2 (0a00cf5339, 2022-02-04)"
   xmlns:inkscape="http://www.inkscape.org/namespaces/inkscape"
   xmlns:sodipodi="http://sodipodi.sourceforge.net/DTD/sodipodi-0.dtd"
   xmlns:xlink="http://www.w3.org/1999/xlink"
   xmlns="http://www.w3.org/2000/svg"
   xmlns:svg="http://www.w3.org/2000/svg"
   xmlns:rdf="http://www.w3.org/1999/02/22-rdf-syntax-ns#"
   xmlns:cc="http://creativecommons.org/ns#"
   xmlns:dc="http://purl.org/dc/elements/1.1/">
  <sodipodi:namedview
     id="namedview228"
     pagecolor="#ffffff"
     bordercolor="#666666"
     borderopacity="1.0"
     inkscape:pageshadow="2"
     inkscape:pageopacity="0.0"
     inkscape:pagecheckerboard="0"
     inkscape:document-units="pt"
     showgrid="false"
     units="mm"
     inkscape:zoom="1.7056372"
     inkscape:cx="318.94239"
     inkscape:cy="301.35365"
     inkscape:window-width="2560"
     inkscape:window-height="1371"
     inkscape:window-x="0"
     inkscape:window-y="32"
     inkscape:window-maximized="1"
     inkscape:current-layer="svg226"
     inkscape:snap-page="true" />
  <metadata
     id="metadata2">
    <rdf:RDF>
      <cc:Work>
        <dc:type
           rdf:resource="http://purl.org/dc/dcmitype/StillImage" />
        <dc:date>2022-03-07T19:19:18.286940</dc:date>
        <dc:format>image/svg+xml</dc:format>
        <dc:creator>
          <cc:Agent>
            <dc:title>Matplotlib v3.5.1, https://matplotlib.org/</dc:title>
          </cc:Agent>
        </dc:creator>
      </cc:Work>
    </rdf:RDF>
  </metadata>
  <defs
     id="defs6">
    <style
       type="text/css"
       id="style4">*{stroke-linejoin: round; stroke-linecap: butt}</style>
  </defs>
  <rect
     style="fill:#ffffff;stroke-width:0.75;stroke-linecap:round"
     id="rect34143"
     width="448.64105"
     height="433.15823"
     x="0"
     y="0" />
  <g
     id="patch_1"
     transform="translate(-106.52076,-64.7456)" />
  <g
     id="axes_1"
     transform="translate(-106.52076,-64.7456)">
    <g
       id="patch_2">
      <path
         d="M 136.7442,483.1632 H 554.7618 V 65.1456 H 136.7442 Z"
         style="fill:#ffffff"
         id="path11" />
    </g>
    <g
       id="matplotlib.axis_1">
      <g
         id="xtick_1">
        <g
           id="line2d_1">
          <defs
             id="defs15">
            <path
               id="mdebe86a606"
               d="M 0,0 V 3.5"
               style="stroke:#000000;stroke-width:0.8" />
          </defs>
          <g
             id="g19">
            <use
               xlink:href="#mdebe86a606"
               x="140.82651"
               y="483.16321"
               style="stroke:#000000;stroke-width:0.8"
               id="use17"
               width="100%"
               height="100%" />
          </g>
        </g>
        <g
           id="text_1">
          <!-- 0.0 -->
          <g
             transform="matrix(0.1,0,0,-0.1,132.87495,497.76164)"
             id="g32">
            <defs
               id="defs24">
              <path
                 id="DejaVuSans-30"
                 d="m 2034,4250 q -487,0 -733,-480 -245,-479 -245,-1442 0,-959 245,-1439 246,-480 733,-480 491,0 736,480 246,480 246,1439 0,963 -246,1442 -245,480 -736,480 z m 0,500 q 785,0 1199,-621 414,-620 414,-1801 0,-1178 -414,-1799 -414,-620 -1199,-620 -784,0 -1198,620 -414,621 -414,1799 0,1181 414,1801 414,621 1198,621 z"
                 transform="scale(0.015625)" />
              <path
                 id="DejaVuSans-2e"
                 d="m 684,794 h 660 V 0 H 684 Z"
                 transform="scale(0.015625)" />
            </defs>
            <use
               xlink:href="#DejaVuSans-30"
               id="use26"
               x="0"
               y="0"
               width="100%"
               height="100%" />
            <use
               xlink:href="#DejaVuSans-2e"
               x="63.623047"
               id="use28"
               y="0"
               width="100%"
               height="100%" />
            <use
               xlink:href="#DejaVuSans-30"
               x="95.410156"
               id="use30"
               y="0"
               width="100%"
               height="100%" />
          </g>
        </g>
      </g>
      <g
         id="xtick_2">
        <g
           id="line2d_2">
          <g
             id="g38">
            <use
               xlink:href="#mdebe86a606"
               x="233.70363"
               y="483.16321"
               style="stroke:#000000;stroke-width:0.8"
               id="use36"
               width="100%"
               height="100%" />
          </g>
        </g>
        <g
           id="text_2">
          <!-- 0.2 -->
          <g
             transform="matrix(0.1,0,0,-0.1,225.75207,497.76164)"
             id="g50">
            <defs
               id="defs42">
              <path
                 id="DejaVuSans-32"
                 d="M 1228,531 H 3431 V 0 H 469 v 531 q 359,372 979,998 621,627 780,809 303,340 423,576 121,236 121,464 0,372 -261,606 -261,235 -680,235 -297,0 -627,-103 -329,-103 -704,-313 v 638 q 381,153 712,231 332,78 607,78 725,0 1156,-363 431,-362 431,-968 0,-288 -108,-546 -107,-257 -392,-607 -78,-91 -497,-524 Q 1991,1309 1228,531 Z"
                 transform="scale(0.015625)" />
            </defs>
            <use
               xlink:href="#DejaVuSans-30"
               id="use44"
               x="0"
               y="0"
               width="100%"
               height="100%" />
            <use
               xlink:href="#DejaVuSans-2e"
               x="63.623047"
               id="use46"
               y="0"
               width="100%"
               height="100%" />
            <use
               xlink:href="#DejaVuSans-32"
               x="95.410156"
               id="use48"
               y="0"
               width="100%"
               height="100%" />
          </g>
        </g>
      </g>
      <g
         id="xtick_3">
        <g
           id="line2d_3">
          <g
             id="g56">
            <use
               xlink:href="#mdebe86a606"
               x="326.58075"
               y="483.16321"
               style="stroke:#000000;stroke-width:0.8"
               id="use54"
               width="100%"
               height="100%" />
          </g>
        </g>
        <g
           id="text_3">
          <!-- 0.4 -->
          <g
             transform="matrix(0.1,0,0,-0.1,318.62919,497.76164)"
             id="g68">
            <defs
               id="defs60">
              <path
                 id="DejaVuSans-34"
                 d="M 2419,4116 825,1625 h 1594 z m -166,550 h 794 V 1625 h 666 V 1100 H 3047 V 0 H 2419 V 1100 H 313 v 609 z"
                 transform="scale(0.015625)" />
            </defs>
            <use
               xlink:href="#DejaVuSans-30"
               id="use62"
               x="0"
               y="0"
               width="100%"
               height="100%" />
            <use
               xlink:href="#DejaVuSans-2e"
               x="63.623047"
               id="use64"
               y="0"
               width="100%"
               height="100%" />
            <use
               xlink:href="#DejaVuSans-34"
               x="95.410156"
               id="use66"
               y="0"
               width="100%"
               height="100%" />
          </g>
        </g>
      </g>
      <g
         id="xtick_4">
        <g
           id="line2d_4">
          <g
             id="g74">
            <use
               xlink:href="#mdebe86a606"
               x="419.45789"
               y="483.16321"
               style="stroke:#000000;stroke-width:0.8"
               id="use72"
               width="100%"
               height="100%" />
          </g>
        </g>
        <g
           id="text_4">
          <!-- 0.6 -->
          <g
             transform="matrix(0.1,0,0,-0.1,411.50631,497.76164)"
             id="g86">
            <defs
               id="defs78">
              <path
                 id="DejaVuSans-36"
                 d="m 2113,2584 q -425,0 -674,-291 -248,-290 -248,-796 0,-503 248,-796 249,-292 674,-292 425,0 673,292 248,293 248,796 0,506 -248,796 -248,291 -673,291 z m 1253,1979 v -575 q -238,112 -480,171 -242,60 -480,60 -625,0 -955,-422 -329,-422 -376,-1275 184,272 462,417 279,145 613,145 703,0 1111,-427 408,-426 408,-1160 0,-719 -425,-1154 -425,-434 -1131,-434 -810,0 -1238,620 -428,621 -428,1799 0,1106 525,1764 525,658 1409,658 238,0 480,-47 242,-47 505,-140 z"
                 transform="scale(0.015625)" />
            </defs>
            <use
               xlink:href="#DejaVuSans-30"
               id="use80"
               x="0"
               y="0"
               width="100%"
               height="100%" />
            <use
               xlink:href="#DejaVuSans-2e"
               x="63.623047"
               id="use82"
               y="0"
               width="100%"
               height="100%" />
            <use
               xlink:href="#DejaVuSans-36"
               x="95.410156"
               id="use84"
               y="0"
               width="100%"
               height="100%" />
          </g>
        </g>
      </g>
      <g
         id="xtick_5">
        <g
           id="line2d_5">
          <g
             id="g92">
            <use
               xlink:href="#mdebe86a606"
               x="512.33502"
               y="483.16321"
               style="stroke:#000000;stroke-width:0.8"
               id="use90"
               width="100%"
               height="100%" />
          </g>
        </g>
        <g
           id="text_5">
          <!-- 0.8 -->
          <g
             transform="matrix(0.1,0,0,-0.1,504.38343,497.76164)"
             id="g104">
            <defs
               id="defs96">
              <path
                 id="DejaVuSans-38"
                 d="m 2034,2216 q -450,0 -708,-241 -257,-241 -257,-662 0,-422 257,-663 258,-241 708,-241 450,0 709,242 260,243 260,662 0,421 -258,662 -257,241 -711,241 z m -631,268 q -406,100 -633,378 -226,279 -226,679 0,559 398,884 399,325 1092,325 697,0 1094,-325 397,-325 397,-884 0,-400 -227,-679 -226,-278 -629,-378 456,-106 710,-416 255,-309 255,-755 Q 3634,634 3220,271 2806,-91 2034,-91 1263,-91 848,271 434,634 434,1313 q 0,446 256,755 257,310 713,416 z m -231,997 q 0,-362 226,-565 227,-203 636,-203 407,0 636,203 230,203 230,565 0,363 -230,566 -229,203 -636,203 -409,0 -636,-203 -226,-203 -226,-566 z"
                 transform="scale(0.015625)" />
            </defs>
            <use
               xlink:href="#DejaVuSans-30"
               id="use98"
               x="0"
               y="0"
               width="100%"
               height="100%" />
            <use
               xlink:href="#DejaVuSans-2e"
               x="63.623047"
               id="use100"
               y="0"
               width="100%"
               height="100%" />
            <use
               xlink:href="#DejaVuSans-38"
               x="95.410156"
               id="use102"
               y="0"
               width="100%"
               height="100%" />
          </g>
        </g>
      </g>
    </g>
    <g
       id="matplotlib.axis_2">
      <g
         id="ytick_1">
        <g
           id="line2d_6">
          <defs
             id="defs110">
            <path
               id="m3daa4648fa"
               d="M 0,0 H -3.5"
               style="stroke:#000000;stroke-width:0.8" />
          </defs>
          <g
             id="g114">
            <use
               xlink:href="#m3daa4648fa"
               x="136.7442"
               y="447.80823"
               style="stroke:#000000;stroke-width:0.8"
               id="use112"
               width="100%"
               height="100%" />
          </g>
        </g>
        <g
           id="text_6">
          <!-- &#8722;0.4 -->
          <g
             transform="matrix(0.1,0,0,-0.1,105.46139,451.60744)"
             id="g128">
            <defs
               id="defs118">
              <path
                 id="DejaVuSans-2212"
                 d="M 678,2272 H 4684 V 1741 H 678 Z"
                 transform="scale(0.015625)" />
            </defs>
            <use
               xlink:href="#DejaVuSans-2212"
               id="use120"
               x="0"
               y="0"
               width="100%"
               height="100%" />
            <use
               xlink:href="#DejaVuSans-30"
               x="83.789062"
               id="use122"
               y="0"
               width="100%"
               height="100%" />
            <use
               xlink:href="#DejaVuSans-2e"
               x="147.41211"
               id="use124"
               y="0"
               width="100%"
               height="100%" />
            <use
               xlink:href="#DejaVuSans-34"
               x="179.19922"
               id="use126"
               y="0"
               width="100%"
               height="100%" />
          </g>
        </g>
      </g>
      <g
         id="ytick_2">
        <g
           id="line2d_7">
          <g
             id="g134">
            <use
               xlink:href="#m3daa4648fa"
               x="136.7442"
               y="354.93109"
               style="stroke:#000000;stroke-width:0.8"
               id="use132"
               width="100%"
               height="100%" />
          </g>
        </g>
        <g
           id="text_7">
          <!-- &#8722;0.2 -->
          <g
             transform="matrix(0.1,0,0,-0.1,105.46139,358.73032)"
             id="g145">
            <use
               xlink:href="#DejaVuSans-2212"
               id="use137"
               x="0"
               y="0"
               width="100%"
               height="100%" />
            <use
               xlink:href="#DejaVuSans-30"
               x="83.789062"
               id="use139"
               y="0"
               width="100%"
               height="100%" />
            <use
               xlink:href="#DejaVuSans-2e"
               x="147.41211"
               id="use141"
               y="0"
               width="100%"
               height="100%" />
            <use
               xlink:href="#DejaVuSans-32"
               x="179.19922"
               id="use143"
               y="0"
               width="100%"
               height="100%" />
          </g>
        </g>
      </g>
      <g
         id="ytick_3">
        <g
           id="line2d_8">
          <g
             id="g151">
            <use
               xlink:href="#m3daa4648fa"
               x="136.7442"
               y="262.05399"
               style="stroke:#000000;stroke-width:0.8"
               id="use149"
               width="100%"
               height="100%" />
          </g>
        </g>
        <g
           id="text_8">
          <!-- 0.0 -->
          <g
             transform="matrix(0.1,0,0,-0.1,113.84108,265.8532)"
             id="g160">
            <use
               xlink:href="#DejaVuSans-30"
               id="use154"
               x="0"
               y="0"
               width="100%"
               height="100%" />
            <use
               xlink:href="#DejaVuSans-2e"
               x="63.623047"
               id="use156"
               y="0"
               width="100%"
               height="100%" />
            <use
               xlink:href="#DejaVuSans-30"
               x="95.410156"
               id="use158"
               y="0"
               width="100%"
               height="100%" />
          </g>
        </g>
      </g>
      <g
         id="ytick_4">
        <g
           id="line2d_9">
          <g
             id="g166">
            <use
               xlink:href="#m3daa4648fa"
               x="136.7442"
               y="169.17686"
               style="stroke:#000000;stroke-width:0.8"
               id="use164"
               width="100%"
               height="100%" />
          </g>
        </g>
        <g
           id="text_9">
          <!-- 0.2 -->
          <g
             transform="matrix(0.1,0,0,-0.1,113.84108,172.97609)"
             id="g175">
            <use
               xlink:href="#DejaVuSans-30"
               id="use169"
               x="0"
               y="0"
               width="100%"
               height="100%" />
            <use
               xlink:href="#DejaVuSans-2e"
               x="63.623047"
               id="use171"
               y="0"
               width="100%"
               height="100%" />
            <use
               xlink:href="#DejaVuSans-32"
               x="95.410156"
               id="use173"
               y="0"
               width="100%"
               height="100%" />
          </g>
        </g>
      </g>
      <g
         id="ytick_5">
        <g
           id="line2d_10">
          <g
             id="g181">
            <use
               xlink:href="#m3daa4648fa"
               x="136.7442"
               y="76.299751"
               style="stroke:#000000;stroke-width:0.8"
               id="use179"
               width="100%"
               height="100%" />
          </g>
        </g>
        <g
           id="text_10">
          <!-- 0.4 -->
          <g
             transform="matrix(0.1,0,0,-0.1,113.84108,80.098966)"
             id="g190">
            <use
               xlink:href="#DejaVuSans-30"
               id="use184"
               x="0"
               y="0"
               width="100%"
               height="100%" />
            <use
               xlink:href="#DejaVuSans-2e"
               x="63.623047"
               id="use186"
               y="0"
               width="100%"
               height="100%" />
            <use
               xlink:href="#DejaVuSans-34"
               x="95.410156"
               id="use188"
               y="0"
               width="100%"
               height="100%" />
          </g>
        </g>
      </g>
    </g>
    <g
       id="line2d_11">
      <path
         d="m 534.89058,361.40905 c -10.06552,-32.96548 -23.55245,-65.1981 -42.29914,-94.19746 -15.4308,-21.59499 -40.87809,-34.58971 -67.11421,-36.69888 -61.78869,-8.66575 -123.77384,-17.33422 -186.20411,-19.34368 -29.39866,-0.61086 -61.82258,2.78945 -84.35949,23.70702 -8.50273,8.08732 -17.50738,20.83728 -12.65058,33.01823"
         clip-path="url(#p83b7ddd59c)"
         style="fill:none;stroke:#0000ff;stroke-linecap:square"
         id="path195" />
    </g>
    <g
       id="line2d_12">
      <path
         d="m 142.26301,267.89427 c 8.12206,11.48213 22.80501,15.33476 35.57494,19.33175 41.63747,10.4666 85.0769,7.95067 127.52184,5.41919 50.72286,-3.37982 101.16072,-10.08043 151.65217,-15.61629 23.73567,0.20614 42.22501,18.59919 54.63199,37.09466 9.81639,14.63754 17.16091,30.78782 23.24663,47.28548"
         clip-path="url(#p83b7ddd59c)"
         style="fill:none;stroke:#ff0000;stroke-linecap:square"
         id="path198" />
    </g>
    <g
       id="line2d_13">
      <path
         d="m 509.75347,319.7396 -0.73042,-11.37691 -2.17928,-11.1901 -3.59233,-10.81956 -4.94643,-10.27135 -6.21928,-9.55449 -7.39002,-8.68074 -8.43942,-7.66445 -9.35024,-6.52233 -10.10753,-5.27309 -10.69886,-3.93728 -11.1145,-2.53681 -11.34766,-1.0947 -11.39448,0.3654 -11.25421,1.8195 -10.92913,3.24371 -10.42462,4.61466 -9.74891,5.90985 -8.91315,7.108 -7.93101,8.18942 -6.81866,9.13639 -5.59435,9.93332 -4.27817,10.56717 -2.89175,11.02749 -1.45784,11.30674 v 11.40033 l 1.45784,11.30674 2.89175,11.02749 4.27817,10.56717 5.59435,9.93332 6.81866,9.13639 7.93101,8.18942 8.91315,7.108 9.74891,5.90985 10.42462,4.61467 10.92913,3.2437 11.25421,1.8195 11.39448,0.3654 11.34766,-1.0947 11.1145,-2.53681 10.69886,-3.93728 10.10753,-5.27309 9.35024,-6.52233 8.43942,-7.66445 7.39002,-8.68074 6.21928,-9.55449 4.94643,-10.27135 3.59233,-10.81956 2.17928,-11.1901 0.73042,-11.37692"
         clip-path="url(#p83b7ddd59c)"
         style="fill:none;stroke:#000000;stroke-width:0.75;stroke-dasharray:2.775, 1.2;stroke-dashoffset:0;stroke-opacity:0.5"
         id="path201" />
    </g>
    <g
       id="line2d_14">
      <path
         d="m 551.4199,481.84958 c 1.03854,-75.75187 -19.57679,-151.6555 -59.40247,-216.149 C 443.24479,186.05635 365.69755,124.56876 276.91368,95.512615 234.40013,81.28579 189.49716,74.726252 144.70067,75.130349"
         clip-path="url(#p83b7ddd59c)"
         style="fill:none;stroke:#000000;stroke-width:0.75;stroke-dasharray:2.775, 1.2;stroke-dashoffset:0;stroke-opacity:0.5"
         id="path204"
         sodipodi:nodetypes="cccccccccccccccccccccccccc" />
    </g>
    <g
       id="patch_3">
      <path
         d="M 136.7442,483.1632 V 65.1456"
         style="fill:none;stroke:#000000;stroke-width:0.8;stroke-linecap:square;stroke-linejoin:miter"
         id="path207" />
    </g>
    <g
       id="patch_4">
      <path
         d="M 554.7618,483.1632 V 65.1456"
         style="fill:none;stroke:#000000;stroke-width:0.8;stroke-linecap:square;stroke-linejoin:miter"
         id="path210" />
    </g>
    <g
       id="patch_5">
      <path
         d="M 136.7442,483.1632 H 554.7618"
         style="fill:none;stroke:#000000;stroke-width:0.8;stroke-linecap:square;stroke-linejoin:miter"
         id="path213" />
    </g>
    <g
       id="patch_6">
      <path
         d="M 136.7442,65.1456 H 554.7618"
         style="fill:none;stroke:#000000;stroke-width:0.8;stroke-linecap:square;stroke-linejoin:miter"
         id="path216" />
    </g>
  </g>
  <defs
     id="defs224">
    <clipPath
       id="p83b7ddd59c">
      <rect
         x="136.7442"
         y="65.145599"
         width="418.01761"
         height="418.01761"
         id="rect221" />
    </clipPath>
  </defs>
  <path
     style="fill:none;stroke:#000000;stroke-width:0.75px;stroke-linecap:butt;stroke-linejoin:miter;stroke-opacity:1"
     d="m 331.67664,173.0771 2.40986,-10.42672"
     id="path1392"
     sodipodi:nodetypes="cc" />
  <path
     style="fill:none;stroke:#000000;stroke-width:0.75px;stroke-linecap:butt;stroke-linejoin:miter;stroke-opacity:1"
     d="m 385.16957,213.74174 11.28857,-7.07561"
     id="path1522"
     sodipodi:nodetypes="cc" />
  <g
     aria-label="b"
     id="text7664"
     style="font-size:15px;line-height:1.25;stroke-width:0.375">
    <path
       d="m 407.08459,204.5318 q 0,-1.48682 -0.61523,-2.3291 -0.60791,-0.84961 -1.67725,-0.84961 -1.06933,0 -1.68457,0.84961 -0.60791,0.84228 -0.60791,2.3291 0,1.48682 0.60791,2.33643 0.61524,0.84228 1.68457,0.84228 1.06934,0 1.67725,-0.84228 0.61523,-0.84961 0.61523,-2.33643 z m -4.58496,-2.86377 q 0.42481,-0.73242 1.06934,-1.08398 0.65186,-0.35889 1.55273,-0.35889 1.49414,0 2.42432,1.18652 0.9375,1.18653 0.9375,3.12012 0,1.93359 -0.9375,3.12012 -0.93018,1.18652 -2.42432,1.18652 -0.90087,0 -1.55273,-0.35156 -0.64453,-0.35889 -1.06934,-1.09131 v 1.23047 h -1.35498 v -11.39649 h 1.35498 z"
       id="path21237" />
  </g>
  <g
     aria-label="a"
     id="text10424"
     style="font-size:15px;line-height:1.25;stroke-width:0.375">
    <path
       d="m 336.02106,155.09137 q -1.6333,0 -2.26319,0.37353 -0.62988,0.37354 -0.62988,1.27442 0,0.71777 0.46875,1.14258 0.47607,0.41748 1.28906,0.41748 1.12061,0 1.79444,-0.79102 0.68115,-0.79834 0.68115,-2.1167 v -0.30029 z m 2.68799,-0.55664 v 4.68017 h -1.34766 v -1.24511 q -0.46143,0.74707 -1.1499,1.10595 -0.68848,0.35157 -1.68457,0.35157 -1.25977,0 -2.00684,-0.70313 -0.73975,-0.71045 -0.73975,-1.89697 0,-1.38428 0.92286,-2.0874 0.93017,-0.70313 2.76855,-0.70313 h 1.88965 v -0.13183 q 0,-0.93018 -0.61524,-1.43555 -0.60791,-0.5127 -1.71386,-0.5127 -0.70313,0 -1.36963,0.16846 -0.66651,0.16846 -1.28174,0.50537 v -1.24512 q 0.73975,-0.28564 1.43555,-0.4248 0.6958,-0.14648 1.35498,-0.14648 1.77978,0 2.65869,0.92285 0.87891,0.92285 0.87891,2.79785 z"
       id="path21258" />
  </g>
  <path
     style="fill:none;stroke:#000000;stroke-width:0.75px;stroke-linecap:butt;stroke-linejoin:miter;stroke-opacity:1"
     d="m 347.99398,208.24135 0.81018,9.12807"
     id="path11637" />
  <path
     style="fill:none;stroke:#000000;stroke-width:0.75px;stroke-linecap:butt;stroke-linejoin:miter;stroke-opacity:1"
     d="m 423.09111,298.80823 10.23558,-3.51371"
     id="path11639" />
  <g
     aria-label="c"
     id="text13183"
     style="font-size:15px;line-height:1.25;stroke-width:0.375"
     transform="translate(-118.09643,30.977564)">
    <path
       d="m 538.28491,264.92862 v 1.25977 q -0.57129,-0.31495 -1.1499,-0.46875 -0.57129,-0.16114 -1.15723,-0.16114 -1.31103,0 -2.03613,0.83496 -0.7251,0.82764 -0.7251,2.3291 0,1.50147 0.7251,2.33643 0.7251,0.82764 2.03613,0.82764 0.58594,0 1.15723,-0.15381 0.57861,-0.16113 1.1499,-0.47608 v 1.24512 q -0.56396,0.26367 -1.17187,0.39551 -0.60059,0.13184 -1.28174,0.13184 -1.85303,0 -2.94434,-1.16456 -1.09131,-1.16455 -1.09131,-3.14209 0,-2.00683 1.09864,-3.15673 1.10595,-1.14991 3.0249,-1.14991 0.62256,0 1.21582,0.13184 0.59326,0.12451 1.1499,0.38086 z"
       id="path13907" />
  </g>
  <g
     aria-label="d"
     id="text15734"
     style="font-size:15px;line-height:1.25;stroke-width:0.375"
     transform="translate(-8.912028,1.8364175)">
    <path
       d="m 361.09119,220.12564 v -4.43848 h 1.34765 v 11.39649 h -1.34765 v -1.23047 q -0.42481,0.73242 -1.07666,1.09131 -0.64453,0.35156 -1.55274,0.35156 -1.48681,0 -2.42431,-1.18652 -0.93018,-1.18653 -0.93018,-3.12012 0,-1.93359 0.93018,-3.12012 0.9375,-1.18652 2.42431,-1.18652 0.90821,0 1.55274,0.35889 0.65185,0.35156 1.07666,1.08398 z m -4.59229,2.86377 q 0,1.48682 0.60791,2.33643 0.61524,0.84228 1.68457,0.84228 1.06934,0 1.68457,-0.84228 0.61524,-0.84961 0.61524,-2.33643 0,-1.48682 -0.61524,-2.3291 -0.61523,-0.84961 -1.68457,-0.84961 -1.06933,0 -1.68457,0.84961 -0.60791,0.84228 -0.60791,2.3291 z"
       id="path21198" />
  </g>
  <g
     aria-label="C1"
     id="text26283"
     style="font-size:15px;line-height:1.25;stroke-width:0.375">
    <path
       d="m 261.77151,48.623562 c 0,0.520019 0,1.040039 0,1.560058 -1.40022,-1.386001 -3.71675,-1.837636 -5.47353,-0.889056 -1.37396,0.783628 -1.81228,2.484816 -1.78477,3.965228 -0.0254,1.477915 0.40926,3.181716 1.78477,3.961058 1.75851,0.943253 4.07314,0.494307 5.47353,-0.89221 0,0.515137 0,1.030273 0,1.54541 -1.81233,1.244866 -4.33175,1.419076 -6.2836,0.401752 -1.67982,-0.903035 -2.51413,-2.848186 -2.52917,-4.691656 -0.10319,-1.879518 0.48998,-3.948726 2.09795,-5.070791 1.61821,-1.121811 3.81579,-1.177607 5.61553,-0.480194 0.38641,0.156184 0.75521,0.355328 1.09929,0.590401 z"
       id="path33882" />
    <path
       d="m 263.79373,60.907009 c 0.52368,0 1.04737,0 1.57105,0 0,-1.807495 0,-3.61499 0,-5.422485 -0.5697,0.114258 -1.13941,0.228515 -1.70911,0.342773 0,-0.291992 0,-0.583984 0,-0.875976 0.62235,-0.104361 1.23635,-0.292321 1.86408,-0.342774 0.26573,0 0.53145,0 0.79718,0 0,2.099487 0,4.198975 0,6.298462 0.52368,0 1.04736,0 1.57104,0 0,0.269775 0,0.539551 0,0.809326 -1.36475,0 -2.72949,0 -4.09424,0 0,-0.269775 0,-0.539551 0,-0.809326 z"
       style="font-size:9.75px;baseline-shift:sub"
       id="path33884" />
  </g>
  <g
     aria-label="C2"
     id="text31897"
     style="font-size:15px;line-height:1.25;stroke-width:0.375">
    <path
       d="m 246.21394,327.88678 c 0,0.52002 0,1.04004 0,1.56006 -1.40022,-1.386 -3.71675,-1.83764 -5.47353,-0.88906 -1.37396,0.78363 -1.81228,2.48482 -1.78477,3.96523 -0.0254,1.47792 0.40926,3.18172 1.78477,3.96106 1.75851,0.94326 4.07314,0.4943 5.47353,-0.89221 0,0.51514 0,1.03027 0,1.54541 -1.81233,1.24485 -4.33174,1.41909 -6.2836,0.40175 -1.67982,-0.90304 -2.51414,-2.84818 -2.52918,-4.69166 -0.10319,-1.87952 0.48999,-3.94872 2.09796,-5.07079 1.61821,-1.12181 3.81579,-1.17761 5.61553,-0.48019 0.38641,0.15618 0.75521,0.35533 1.09929,0.5904 z"
       id="path33923" />
    <path
       d="m 248.8979,340.17023 c 1.11878,0 2.23755,0 3.35633,0 0,0.26977 0,0.53955 0,0.80932 -1.5044,0 -3.00879,0 -4.51319,0 0,-0.26977 0,-0.53955 0,-0.80932 1.03714,-1.12284 2.21473,-2.12247 3.14782,-3.33713 0.50481,-0.60727 0.51155,-1.67404 -0.2518,-2.0797 -0.92951,-0.47063 -2.00584,-0.0258 -2.84841,0.43233 0,-0.32373 0,-0.64746 0,-0.97119 1.17259,-0.49407 2.69341,-0.78036 3.77051,0.0809 0.90086,0.72439 0.81389,2.15301 0.0949,2.97487 -0.85058,1.02495 -1.83917,1.9338 -2.75617,2.89989 z"
       style="font-size:9.75px;baseline-shift:sub"
       id="path33925" />
  </g>
</svg>
