<?xml version="1.0" encoding="UTF-8" standalone="no"?>
<svg
   width="595.50958pt"
   height="143.12437pt"
   viewBox="0 0 595.50958 143.12437"
   version="1.1"
   id="svg471"
   sodipodi:docname="fig.svg"
   inkscape:version="1.1.2 (0a00cf5339, 2022-02-04)"
   xmlns:inkscape="http://www.inkscape.org/namespaces/inkscape"
   xmlns:sodipodi="http://sodipodi.sourceforge.net/DTD/sodipodi-0.dtd"
   xmlns:xlink="http://www.w3.org/1999/xlink"
   xmlns="http://www.w3.org/2000/svg"
   xmlns:svg="http://www.w3.org/2000/svg"
   xmlns:rdf="http://www.w3.org/1999/02/22-rdf-syntax-ns#"
   xmlns:cc="http://creativecommons.org/ns#"
   xmlns:dc="http://purl.org/dc/elements/1.1/">
  <sodipodi:namedview
     id="namedview473"
     pagecolor="#ffffff"
     bordercolor="#666666"
     borderopacity="1.0"
     inkscape:pageshadow="2"
     inkscape:pageopacity="0.0"
     inkscape:pagecheckerboard="0"
     inkscape:document-units="pt"
     showgrid="false"
     inkscape:zoom="2"
     inkscape:cx="371.5"
     inkscape:cy="16.5"
     inkscape:window-width="2560"
     inkscape:window-height="1371"
     inkscape:window-x="0"
     inkscape:window-y="32"
     inkscape:window-maximized="1"
     inkscape:current-layer="svg471" />
  <metadata
     id="metadata2">
    <rdf:RDF>
      <cc:Work>
        <dc:type
           rdf:resource="http://purl.org/dc/dcmitype/StillImage" />
        <dc:date>2022-02-21T17:36:45.752569</dc:date>
        <dc:format>image/svg+xml</dc:format>
        <dc:creator>
          <cc:Agent>
            <dc:title>Matplotlib v3.5.1, https://matplotlib.org/</dc:title>
          </cc:Agent>
        </dc:creator>
      </cc:Work>
    </rdf:RDF>
  </metadata>
  <defs
     id="defs6">
    <marker
       style="overflow:visible;"
       id="Arrow1Lend"
       refX="0.0"
       refY="0.0"
       orient="auto"
       inkscape:stockid="Arrow1Lend"
       inkscape:isstock="true">
      <path
         transform="scale(0.8) rotate(180) translate(12.5,0)"
         style="fill-rule:evenodd;fill:context-stroke;stroke:context-stroke;stroke-width:1.0pt;"
         d="M 0.0,0.0 L 5.0,-5.0 L -12.5,0.0 L 5.0,5.0 L 0.0,0.0 z "
         id="path3110" />
    </marker>
    <marker
       style="overflow:visible"
       id="Arrow1Lstart"
       refX="0.0"
       refY="0.0"
       orient="auto"
       inkscape:stockid="Arrow1Lstart"
       inkscape:isstock="true">
      <path
         transform="scale(0.8) translate(12.5,0)"
         style="fill-rule:evenodd;fill:context-stroke;stroke:context-stroke;stroke-width:1.0pt"
         d="M 0.0,0.0 L 5.0,-5.0 L -12.5,0.0 L 5.0,5.0 L 0.0,0.0 z "
         id="path3107" />
    </marker>
    <style
       type="text/css"
       id="style4">*{stroke-linejoin: round; stroke-linecap: butt}</style>
    <g
       id="g4882">
      <symbol
         overflow="visible"
         id="symbol4509">
        <path
           style="stroke:none;"
           d=""
           id="path7174" />
      </symbol>
      <symbol
         overflow="visible"
         id="symbol5589">
        <path
           style="stroke:none;"
           d="M 0.40625 -2.53125 C 0.796875 -3.671875 1.890625 -3.6875 2 -3.6875 C 3.5 -3.6875 3.609375 -1.9375 3.609375 -1.15625 C 3.609375 -0.546875 3.5625 -0.375 3.484375 -0.171875 C 3.265625 0.546875 2.96875 1.703125 2.96875 1.96875 C 2.96875 2.078125 3.015625 2.140625 3.09375 2.140625 C 3.234375 2.140625 3.3125 1.921875 3.421875 1.546875 C 3.65625 0.703125 3.75 0.140625 3.78125 -0.171875 C 3.8125 -0.296875 3.828125 -0.421875 3.875 -0.5625 C 4.1875 -1.546875 4.828125 -3.03125 5.21875 -3.8125 C 5.296875 -3.9375 5.40625 -4.15625 5.40625 -4.203125 C 5.40625 -4.296875 5.3125 -4.296875 5.296875 -4.296875 C 5.265625 -4.296875 5.203125 -4.296875 5.171875 -4.234375 C 4.65625 -3.28125 4.25 -2.28125 3.859375 -1.28125 C 3.84375 -1.578125 3.84375 -2.34375 3.453125 -3.3125 C 3.203125 -3.921875 2.8125 -4.40625 2.125 -4.40625 C 0.875 -4.40625 0.171875 -2.890625 0.171875 -2.578125 C 0.171875 -2.484375 0.265625 -2.484375 0.375 -2.484375 Z M 0.40625 -2.53125 "
           id="path1198" />
      </symbol>
      <symbol
         overflow="visible"
         id="symbol141">
        <path
           style="stroke:none;"
           d="M 1.90625 -0.53125 C 1.90625 -0.8125 1.671875 -1.0625 1.390625 -1.0625 C 1.09375 -1.0625 0.859375 -0.8125 0.859375 -0.53125 C 0.859375 -0.234375 1.09375 0 1.390625 0 C 1.671875 0 1.90625 -0.234375 1.90625 -0.53125 Z M 1.90625 -0.53125 "
           id="path5687" />
      </symbol>
      <symbol
         overflow="visible"
         id="symbol8296">
        <path
           style="stroke:none;"
           d=""
           id="path2174" />
      </symbol>
      <symbol
         overflow="visible"
         id="symbol327">
        <path
           style="stroke:none;"
           d="M 6.84375 -3.265625 C 7 -3.265625 7.1875 -3.265625 7.1875 -3.453125 C 7.1875 -3.65625 7 -3.65625 6.859375 -3.65625 L 0.890625 -3.65625 C 0.75 -3.65625 0.5625 -3.65625 0.5625 -3.453125 C 0.5625 -3.265625 0.75 -3.265625 0.890625 -3.265625 Z M 6.859375 -1.328125 C 7 -1.328125 7.1875 -1.328125 7.1875 -1.53125 C 7.1875 -1.71875 7 -1.71875 6.84375 -1.71875 L 0.890625 -1.71875 C 0.75 -1.71875 0.5625 -1.71875 0.5625 -1.53125 C 0.5625 -1.328125 0.75 -1.328125 0.890625 -1.328125 Z M 6.859375 -1.328125 "
           id="path4848" />
      </symbol>
      <symbol
         overflow="visible"
         id="symbol9450">
        <path
           style="stroke:none;"
           d="M 3.65625 -3.171875 L 3.65625 -2.84375 C 3.65625 -0.515625 2.625 -0.0625 2.046875 -0.0625 C 1.875 -0.0625 1.328125 -0.078125 1.0625 -0.421875 C 1.5 -0.421875 1.578125 -0.703125 1.578125 -0.875 C 1.578125 -1.1875 1.34375 -1.328125 1.125 -1.328125 C 0.96875 -1.328125 0.671875 -1.25 0.671875 -0.859375 C 0.671875 -0.1875 1.203125 0.21875 2.046875 0.21875 C 3.34375 0.21875 4.5625 -1.140625 4.5625 -3.28125 C 4.5625 -5.96875 3.40625 -6.640625 2.515625 -6.640625 C 1.96875 -6.640625 1.484375 -6.453125 1.0625 -6.015625 C 0.640625 -5.5625 0.421875 -5.140625 0.421875 -4.390625 C 0.421875 -3.15625 1.296875 -2.171875 2.40625 -2.171875 C 3.015625 -2.171875 3.421875 -2.59375 3.65625 -3.171875 Z M 2.421875 -2.40625 C 2.265625 -2.40625 1.796875 -2.40625 1.5 -3.03125 C 1.3125 -3.40625 1.3125 -3.890625 1.3125 -4.390625 C 1.3125 -4.921875 1.3125 -5.390625 1.53125 -5.765625 C 1.796875 -6.265625 2.171875 -6.390625 2.515625 -6.390625 C 2.984375 -6.390625 3.3125 -6.046875 3.484375 -5.609375 C 3.59375 -5.28125 3.640625 -4.65625 3.640625 -4.203125 C 3.640625 -3.375 3.296875 -2.40625 2.421875 -2.40625 Z M 2.421875 -2.40625 "
           id="path9166" />
      </symbol>
      <symbol
         overflow="visible"
         id="symbol546">
        <path
           style="stroke:none;"
           d="M 4.46875 -2 C 4.46875 -3.1875 3.65625 -4.1875 2.578125 -4.1875 C 2.109375 -4.1875 1.671875 -4.03125 1.3125 -3.671875 L 1.3125 -5.625 C 1.515625 -5.5625 1.84375 -5.5 2.15625 -5.5 C 3.390625 -5.5 4.09375 -6.40625 4.09375 -6.53125 C 4.09375 -6.59375 4.0625 -6.640625 3.984375 -6.640625 C 3.984375 -6.640625 3.953125 -6.640625 3.90625 -6.609375 C 3.703125 -6.515625 3.21875 -6.3125 2.546875 -6.3125 C 2.15625 -6.3125 1.6875 -6.390625 1.21875 -6.59375 C 1.140625 -6.625 1.125 -6.625 1.109375 -6.625 C 1 -6.625 1 -6.546875 1 -6.390625 L 1 -3.4375 C 1 -3.265625 1 -3.1875 1.140625 -3.1875 C 1.21875 -3.1875 1.234375 -3.203125 1.28125 -3.265625 C 1.390625 -3.421875 1.75 -3.96875 2.5625 -3.96875 C 3.078125 -3.96875 3.328125 -3.515625 3.40625 -3.328125 C 3.5625 -2.953125 3.59375 -2.578125 3.59375 -2.078125 C 3.59375 -1.71875 3.59375 -1.125 3.34375 -0.703125 C 3.109375 -0.3125 2.734375 -0.0625 2.28125 -0.0625 C 1.5625 -0.0625 0.984375 -0.59375 0.8125 -1.171875 C 0.84375 -1.171875 0.875 -1.15625 0.984375 -1.15625 C 1.3125 -1.15625 1.484375 -1.40625 1.484375 -1.640625 C 1.484375 -1.890625 1.3125 -2.140625 0.984375 -2.140625 C 0.84375 -2.140625 0.5 -2.0625 0.5 -1.609375 C 0.5 -0.75 1.1875 0.21875 2.296875 0.21875 C 3.453125 0.21875 4.46875 -0.734375 4.46875 -2 Z M 4.46875 -2 "
           id="path6455" />
      </symbol>
      <symbol
         overflow="visible"
         id="symbol6412">
        <path
           style="stroke:none;"
           d="M 2.890625 -3.515625 C 3.703125 -3.78125 4.28125 -4.46875 4.28125 -5.265625 C 4.28125 -6.078125 3.40625 -6.640625 2.453125 -6.640625 C 1.453125 -6.640625 0.6875 -6.046875 0.6875 -5.28125 C 0.6875 -4.953125 0.90625 -4.765625 1.203125 -4.765625 C 1.5 -4.765625 1.703125 -4.984375 1.703125 -5.28125 C 1.703125 -5.765625 1.234375 -5.765625 1.09375 -5.765625 C 1.390625 -6.265625 2.046875 -6.390625 2.40625 -6.390625 C 2.828125 -6.390625 3.375 -6.171875 3.375 -5.28125 C 3.375 -5.15625 3.34375 -4.578125 3.09375 -4.140625 C 2.796875 -3.65625 2.453125 -3.625 2.203125 -3.625 C 2.125 -3.609375 1.890625 -3.59375 1.8125 -3.59375 C 1.734375 -3.578125 1.671875 -3.5625 1.671875 -3.46875 C 1.671875 -3.359375 1.734375 -3.359375 1.90625 -3.359375 L 2.34375 -3.359375 C 3.15625 -3.359375 3.53125 -2.6875 3.53125 -1.703125 C 3.53125 -0.34375 2.84375 -0.0625 2.40625 -0.0625 C 1.96875 -0.0625 1.21875 -0.234375 0.875 -0.8125 C 1.21875 -0.765625 1.53125 -0.984375 1.53125 -1.359375 C 1.53125 -1.71875 1.265625 -1.921875 0.984375 -1.921875 C 0.734375 -1.921875 0.421875 -1.78125 0.421875 -1.34375 C 0.421875 -0.4375 1.34375 0.21875 2.4375 0.21875 C 3.65625 0.21875 4.5625 -0.6875 4.5625 -1.703125 C 4.5625 -2.515625 3.921875 -3.296875 2.890625 -3.515625 Z M 2.890625 -3.515625 "
           id="path1390" />
      </symbol>
    </g>
    <g
       id="g6227">
      <symbol
         overflow="visible"
         id="symbol3275">
        <path
           style="stroke:none;"
           d=""
           id="path2876" />
      </symbol>
      <symbol
         overflow="visible"
         id="symbol4">
        <path
           style="stroke:none;"
           d="M 0.40625 -2.53125 C 0.796875 -3.671875 1.890625 -3.6875 2 -3.6875 C 3.5 -3.6875 3.609375 -1.9375 3.609375 -1.15625 C 3.609375 -0.546875 3.5625 -0.375 3.484375 -0.171875 C 3.265625 0.546875 2.96875 1.703125 2.96875 1.96875 C 2.96875 2.078125 3.015625 2.140625 3.09375 2.140625 C 3.234375 2.140625 3.3125 1.921875 3.421875 1.546875 C 3.65625 0.703125 3.75 0.140625 3.78125 -0.171875 C 3.8125 -0.296875 3.828125 -0.421875 3.875 -0.5625 C 4.1875 -1.546875 4.828125 -3.03125 5.21875 -3.8125 C 5.296875 -3.9375 5.40625 -4.15625 5.40625 -4.203125 C 5.40625 -4.296875 5.3125 -4.296875 5.296875 -4.296875 C 5.265625 -4.296875 5.203125 -4.296875 5.171875 -4.234375 C 4.65625 -3.28125 4.25 -2.28125 3.859375 -1.28125 C 3.84375 -1.578125 3.84375 -2.34375 3.453125 -3.3125 C 3.203125 -3.921875 2.8125 -4.40625 2.125 -4.40625 C 0.875 -4.40625 0.171875 -2.890625 0.171875 -2.578125 C 0.171875 -2.484375 0.265625 -2.484375 0.375 -2.484375 Z M 0.40625 -2.53125 "
           id="path184" />
      </symbol>
      <symbol
         overflow="visible"
         id="symbol8873">
        <path
           style="stroke:none;"
           d="M 1.90625 -0.53125 C 1.90625 -0.8125 1.671875 -1.0625 1.390625 -1.0625 C 1.09375 -1.0625 0.859375 -0.8125 0.859375 -0.53125 C 0.859375 -0.234375 1.09375 0 1.390625 0 C 1.671875 0 1.90625 -0.234375 1.90625 -0.53125 Z M 1.90625 -0.53125 "
           id="path5580" />
      </symbol>
      <symbol
         overflow="visible"
         id="symbol3635">
        <path
           style="stroke:none;"
           d=""
           id="path8575" />
      </symbol>
      <symbol
         overflow="visible"
         id="symbol1648">
        <path
           style="stroke:none;"
           d="M 6.84375 -3.265625 C 7 -3.265625 7.1875 -3.265625 7.1875 -3.453125 C 7.1875 -3.65625 7 -3.65625 6.859375 -3.65625 L 0.890625 -3.65625 C 0.75 -3.65625 0.5625 -3.65625 0.5625 -3.453125 C 0.5625 -3.265625 0.75 -3.265625 0.890625 -3.265625 Z M 6.859375 -1.328125 C 7 -1.328125 7.1875 -1.328125 7.1875 -1.53125 C 7.1875 -1.71875 7 -1.71875 6.84375 -1.71875 L 0.890625 -1.71875 C 0.75 -1.71875 0.5625 -1.71875 0.5625 -1.53125 C 0.5625 -1.328125 0.75 -1.328125 0.890625 -1.328125 Z M 6.859375 -1.328125 "
           id="path4356" />
      </symbol>
      <symbol
         overflow="visible"
         id="symbol3794">
        <path
           style="stroke:none;"
           d="M 3.65625 -3.171875 L 3.65625 -2.84375 C 3.65625 -0.515625 2.625 -0.0625 2.046875 -0.0625 C 1.875 -0.0625 1.328125 -0.078125 1.0625 -0.421875 C 1.5 -0.421875 1.578125 -0.703125 1.578125 -0.875 C 1.578125 -1.1875 1.34375 -1.328125 1.125 -1.328125 C 0.96875 -1.328125 0.671875 -1.25 0.671875 -0.859375 C 0.671875 -0.1875 1.203125 0.21875 2.046875 0.21875 C 3.34375 0.21875 4.5625 -1.140625 4.5625 -3.28125 C 4.5625 -5.96875 3.40625 -6.640625 2.515625 -6.640625 C 1.96875 -6.640625 1.484375 -6.453125 1.0625 -6.015625 C 0.640625 -5.5625 0.421875 -5.140625 0.421875 -4.390625 C 0.421875 -3.15625 1.296875 -2.171875 2.40625 -2.171875 C 3.015625 -2.171875 3.421875 -2.59375 3.65625 -3.171875 Z M 2.421875 -2.40625 C 2.265625 -2.40625 1.796875 -2.40625 1.5 -3.03125 C 1.3125 -3.40625 1.3125 -3.890625 1.3125 -4.390625 C 1.3125 -4.921875 1.3125 -5.390625 1.53125 -5.765625 C 1.796875 -6.265625 2.171875 -6.390625 2.515625 -6.390625 C 2.984375 -6.390625 3.3125 -6.046875 3.484375 -5.609375 C 3.59375 -5.28125 3.640625 -4.65625 3.640625 -4.203125 C 3.640625 -3.375 3.296875 -2.40625 2.421875 -2.40625 Z M 2.421875 -2.40625 "
           id="path5616" />
      </symbol>
      <symbol
         overflow="visible"
         id="symbol3449">
        <path
           style="stroke:none;"
           d="M 4.46875 -2 C 4.46875 -3.1875 3.65625 -4.1875 2.578125 -4.1875 C 2.109375 -4.1875 1.671875 -4.03125 1.3125 -3.671875 L 1.3125 -5.625 C 1.515625 -5.5625 1.84375 -5.5 2.15625 -5.5 C 3.390625 -5.5 4.09375 -6.40625 4.09375 -6.53125 C 4.09375 -6.59375 4.0625 -6.640625 3.984375 -6.640625 C 3.984375 -6.640625 3.953125 -6.640625 3.90625 -6.609375 C 3.703125 -6.515625 3.21875 -6.3125 2.546875 -6.3125 C 2.15625 -6.3125 1.6875 -6.390625 1.21875 -6.59375 C 1.140625 -6.625 1.125 -6.625 1.109375 -6.625 C 1 -6.625 1 -6.546875 1 -6.390625 L 1 -3.4375 C 1 -3.265625 1 -3.1875 1.140625 -3.1875 C 1.21875 -3.1875 1.234375 -3.203125 1.28125 -3.265625 C 1.390625 -3.421875 1.75 -3.96875 2.5625 -3.96875 C 3.078125 -3.96875 3.328125 -3.515625 3.40625 -3.328125 C 3.5625 -2.953125 3.59375 -2.578125 3.59375 -2.078125 C 3.59375 -1.71875 3.59375 -1.125 3.34375 -0.703125 C 3.109375 -0.3125 2.734375 -0.0625 2.28125 -0.0625 C 1.5625 -0.0625 0.984375 -0.59375 0.8125 -1.171875 C 0.84375 -1.171875 0.875 -1.15625 0.984375 -1.15625 C 1.3125 -1.15625 1.484375 -1.40625 1.484375 -1.640625 C 1.484375 -1.890625 1.3125 -2.140625 0.984375 -2.140625 C 0.84375 -2.140625 0.5 -2.0625 0.5 -1.609375 C 0.5 -0.75 1.1875 0.21875 2.296875 0.21875 C 3.453125 0.21875 4.46875 -0.734375 4.46875 -2 Z M 4.46875 -2 "
           id="path1931" />
      </symbol>
      <symbol
         overflow="visible"
         id="symbol2102">
        <path
           style="stroke:none;"
           d="M 2.890625 -3.515625 C 3.703125 -3.78125 4.28125 -4.46875 4.28125 -5.265625 C 4.28125 -6.078125 3.40625 -6.640625 2.453125 -6.640625 C 1.453125 -6.640625 0.6875 -6.046875 0.6875 -5.28125 C 0.6875 -4.953125 0.90625 -4.765625 1.203125 -4.765625 C 1.5 -4.765625 1.703125 -4.984375 1.703125 -5.28125 C 1.703125 -5.765625 1.234375 -5.765625 1.09375 -5.765625 C 1.390625 -6.265625 2.046875 -6.390625 2.40625 -6.390625 C 2.828125 -6.390625 3.375 -6.171875 3.375 -5.28125 C 3.375 -5.15625 3.34375 -4.578125 3.09375 -4.140625 C 2.796875 -3.65625 2.453125 -3.625 2.203125 -3.625 C 2.125 -3.609375 1.890625 -3.59375 1.8125 -3.59375 C 1.734375 -3.578125 1.671875 -3.5625 1.671875 -3.46875 C 1.671875 -3.359375 1.734375 -3.359375 1.90625 -3.359375 L 2.34375 -3.359375 C 3.15625 -3.359375 3.53125 -2.6875 3.53125 -1.703125 C 3.53125 -0.34375 2.84375 -0.0625 2.40625 -0.0625 C 1.96875 -0.0625 1.21875 -0.234375 0.875 -0.8125 C 1.21875 -0.765625 1.53125 -0.984375 1.53125 -1.359375 C 1.53125 -1.71875 1.265625 -1.921875 0.984375 -1.921875 C 0.734375 -1.921875 0.421875 -1.78125 0.421875 -1.34375 C 0.421875 -0.4375 1.34375 0.21875 2.4375 0.21875 C 3.65625 0.21875 4.5625 -0.6875 4.5625 -1.703125 C 4.5625 -2.515625 3.921875 -3.296875 2.890625 -3.515625 Z M 2.890625 -3.515625 "
           id="path9352" />
      </symbol>
    </g>
    <g
       id="g8140">
      <symbol
         overflow="visible"
         id="symbol8080">
        <path
           style="stroke:none;"
           d=""
           id="path1498" />
      </symbol>
      <symbol
         overflow="visible"
         id="symbol337">
        <path
           style="stroke:none;"
           d="M 0.40625 -2.53125 C 0.796875 -3.671875 1.890625 -3.6875 2 -3.6875 C 3.5 -3.6875 3.609375 -1.9375 3.609375 -1.15625 C 3.609375 -0.546875 3.5625 -0.375 3.484375 -0.171875 C 3.265625 0.546875 2.96875 1.703125 2.96875 1.96875 C 2.96875 2.078125 3.015625 2.140625 3.09375 2.140625 C 3.234375 2.140625 3.3125 1.921875 3.421875 1.546875 C 3.65625 0.703125 3.75 0.140625 3.78125 -0.171875 C 3.8125 -0.296875 3.828125 -0.421875 3.875 -0.5625 C 4.1875 -1.546875 4.828125 -3.03125 5.21875 -3.8125 C 5.296875 -3.9375 5.40625 -4.15625 5.40625 -4.203125 C 5.40625 -4.296875 5.3125 -4.296875 5.296875 -4.296875 C 5.265625 -4.296875 5.203125 -4.296875 5.171875 -4.234375 C 4.65625 -3.28125 4.25 -2.28125 3.859375 -1.28125 C 3.84375 -1.578125 3.84375 -2.34375 3.453125 -3.3125 C 3.203125 -3.921875 2.8125 -4.40625 2.125 -4.40625 C 0.875 -4.40625 0.171875 -2.890625 0.171875 -2.578125 C 0.171875 -2.484375 0.265625 -2.484375 0.375 -2.484375 Z M 0.40625 -2.53125 "
           id="path372" />
      </symbol>
      <symbol
         overflow="visible"
         id="symbol1870">
        <path
           style="stroke:none;"
           d="M 1.90625 -0.53125 C 1.90625 -0.8125 1.671875 -1.0625 1.390625 -1.0625 C 1.09375 -1.0625 0.859375 -0.8125 0.859375 -0.53125 C 0.859375 -0.234375 1.09375 0 1.390625 0 C 1.671875 0 1.90625 -0.234375 1.90625 -0.53125 Z M 1.90625 -0.53125 "
           id="path6205" />
      </symbol>
      <symbol
         overflow="visible"
         id="symbol3272">
        <path
           style="stroke:none;"
           d=""
           id="path173" />
      </symbol>
      <symbol
         overflow="visible"
         id="symbol2918">
        <path
           style="stroke:none;"
           d="M 6.84375 -3.265625 C 7 -3.265625 7.1875 -3.265625 7.1875 -3.453125 C 7.1875 -3.65625 7 -3.65625 6.859375 -3.65625 L 0.890625 -3.65625 C 0.75 -3.65625 0.5625 -3.65625 0.5625 -3.453125 C 0.5625 -3.265625 0.75 -3.265625 0.890625 -3.265625 Z M 6.859375 -1.328125 C 7 -1.328125 7.1875 -1.328125 7.1875 -1.53125 C 7.1875 -1.71875 7 -1.71875 6.84375 -1.71875 L 0.890625 -1.71875 C 0.75 -1.71875 0.5625 -1.71875 0.5625 -1.53125 C 0.5625 -1.328125 0.75 -1.328125 0.890625 -1.328125 Z M 6.859375 -1.328125 "
           id="path7007" />
      </symbol>
      <symbol
         overflow="visible"
         id="symbol2971">
        <path
           style="stroke:none;"
           d="M 3.65625 -3.171875 L 3.65625 -2.84375 C 3.65625 -0.515625 2.625 -0.0625 2.046875 -0.0625 C 1.875 -0.0625 1.328125 -0.078125 1.0625 -0.421875 C 1.5 -0.421875 1.578125 -0.703125 1.578125 -0.875 C 1.578125 -1.1875 1.34375 -1.328125 1.125 -1.328125 C 0.96875 -1.328125 0.671875 -1.25 0.671875 -0.859375 C 0.671875 -0.1875 1.203125 0.21875 2.046875 0.21875 C 3.34375 0.21875 4.5625 -1.140625 4.5625 -3.28125 C 4.5625 -5.96875 3.40625 -6.640625 2.515625 -6.640625 C 1.96875 -6.640625 1.484375 -6.453125 1.0625 -6.015625 C 0.640625 -5.5625 0.421875 -5.140625 0.421875 -4.390625 C 0.421875 -3.15625 1.296875 -2.171875 2.40625 -2.171875 C 3.015625 -2.171875 3.421875 -2.59375 3.65625 -3.171875 Z M 2.421875 -2.40625 C 2.265625 -2.40625 1.796875 -2.40625 1.5 -3.03125 C 1.3125 -3.40625 1.3125 -3.890625 1.3125 -4.390625 C 1.3125 -4.921875 1.3125 -5.390625 1.53125 -5.765625 C 1.796875 -6.265625 2.171875 -6.390625 2.515625 -6.390625 C 2.984375 -6.390625 3.3125 -6.046875 3.484375 -5.609375 C 3.59375 -5.28125 3.640625 -4.65625 3.640625 -4.203125 C 3.640625 -3.375 3.296875 -2.40625 2.421875 -2.40625 Z M 2.421875 -2.40625 "
           id="path5112" />
      </symbol>
      <symbol
         overflow="visible"
         id="symbol8062">
        <path
           style="stroke:none;"
           d="M 4.46875 -2 C 4.46875 -3.1875 3.65625 -4.1875 2.578125 -4.1875 C 2.109375 -4.1875 1.671875 -4.03125 1.3125 -3.671875 L 1.3125 -5.625 C 1.515625 -5.5625 1.84375 -5.5 2.15625 -5.5 C 3.390625 -5.5 4.09375 -6.40625 4.09375 -6.53125 C 4.09375 -6.59375 4.0625 -6.640625 3.984375 -6.640625 C 3.984375 -6.640625 3.953125 -6.640625 3.90625 -6.609375 C 3.703125 -6.515625 3.21875 -6.3125 2.546875 -6.3125 C 2.15625 -6.3125 1.6875 -6.390625 1.21875 -6.59375 C 1.140625 -6.625 1.125 -6.625 1.109375 -6.625 C 1 -6.625 1 -6.546875 1 -6.390625 L 1 -3.4375 C 1 -3.265625 1 -3.1875 1.140625 -3.1875 C 1.21875 -3.1875 1.234375 -3.203125 1.28125 -3.265625 C 1.390625 -3.421875 1.75 -3.96875 2.5625 -3.96875 C 3.078125 -3.96875 3.328125 -3.515625 3.40625 -3.328125 C 3.5625 -2.953125 3.59375 -2.578125 3.59375 -2.078125 C 3.59375 -1.71875 3.59375 -1.125 3.34375 -0.703125 C 3.109375 -0.3125 2.734375 -0.0625 2.28125 -0.0625 C 1.5625 -0.0625 0.984375 -0.59375 0.8125 -1.171875 C 0.84375 -1.171875 0.875 -1.15625 0.984375 -1.15625 C 1.3125 -1.15625 1.484375 -1.40625 1.484375 -1.640625 C 1.484375 -1.890625 1.3125 -2.140625 0.984375 -2.140625 C 0.84375 -2.140625 0.5 -2.0625 0.5 -1.609375 C 0.5 -0.75 1.1875 0.21875 2.296875 0.21875 C 3.453125 0.21875 4.46875 -0.734375 4.46875 -2 Z M 4.46875 -2 "
           id="path9828" />
      </symbol>
      <symbol
         overflow="visible"
         id="symbol7770">
        <path
           style="stroke:none;"
           d="M 2.890625 -3.515625 C 3.703125 -3.78125 4.28125 -4.46875 4.28125 -5.265625 C 4.28125 -6.078125 3.40625 -6.640625 2.453125 -6.640625 C 1.453125 -6.640625 0.6875 -6.046875 0.6875 -5.28125 C 0.6875 -4.953125 0.90625 -4.765625 1.203125 -4.765625 C 1.5 -4.765625 1.703125 -4.984375 1.703125 -5.28125 C 1.703125 -5.765625 1.234375 -5.765625 1.09375 -5.765625 C 1.390625 -6.265625 2.046875 -6.390625 2.40625 -6.390625 C 2.828125 -6.390625 3.375 -6.171875 3.375 -5.28125 C 3.375 -5.15625 3.34375 -4.578125 3.09375 -4.140625 C 2.796875 -3.65625 2.453125 -3.625 2.203125 -3.625 C 2.125 -3.609375 1.890625 -3.59375 1.8125 -3.59375 C 1.734375 -3.578125 1.671875 -3.5625 1.671875 -3.46875 C 1.671875 -3.359375 1.734375 -3.359375 1.90625 -3.359375 L 2.34375 -3.359375 C 3.15625 -3.359375 3.53125 -2.6875 3.53125 -1.703125 C 3.53125 -0.34375 2.84375 -0.0625 2.40625 -0.0625 C 1.96875 -0.0625 1.21875 -0.234375 0.875 -0.8125 C 1.21875 -0.765625 1.53125 -0.984375 1.53125 -1.359375 C 1.53125 -1.71875 1.265625 -1.921875 0.984375 -1.921875 C 0.734375 -1.921875 0.421875 -1.78125 0.421875 -1.34375 C 0.421875 -0.4375 1.34375 0.21875 2.4375 0.21875 C 3.65625 0.21875 4.5625 -0.6875 4.5625 -1.703125 C 4.5625 -2.515625 3.921875 -3.296875 2.890625 -3.515625 Z M 2.890625 -3.515625 "
           id="path9591" />
      </symbol>
    </g>
  </defs>
  <g
     id="patch_2"
     transform="translate(-62.959374,-117.85687)">
    <path
       d="m 90,230.625 h 558 v -97.65 H 90 Z"
       style="fill:#ffffff"
       id="path11" />
  </g>
  <g
     id="matplotlib.axis_1"
     transform="translate(-62.959374,-117.85687)">
    <g
       id="xtick_1">
      <g
         id="line2d_1">
        <path
           d="m 90,230.625 v -97.65"
           clip-path="url(#p7be42d5238)"
           style="fill:none;stroke:#b0b0b0;stroke-width:0.8;stroke-linecap:square"
           id="path14" />
      </g>
      <g
         id="line2d_2">
        <defs
           id="defs18">
          <path
             id="m143a2aba60"
             d="M 0,0 V 3.5"
             style="stroke:#000000;stroke-width:0.8" />
        </defs>
        <g
           id="g22">
          <use
             xlink:href="#m143a2aba60"
             x="90"
             y="230.625"
             style="stroke:#000000;stroke-width:0.8"
             id="use20"
             width="100%"
             height="100%" />
        </g>
      </g>
      <g
         id="text_1">
        <!-- 0.0 -->
        <g
           transform="matrix(0.1,0,0,-0.1,82.048438,245.22344)"
           id="g35">
          <defs
             id="defs27">
            <path
               id="DejaVuSans-30"
               d="m 2034,4250 q -487,0 -733,-480 -245,-479 -245,-1442 0,-959 245,-1439 246,-480 733,-480 491,0 736,480 246,480 246,1439 0,963 -246,1442 -245,480 -736,480 z m 0,500 q 785,0 1199,-621 414,-620 414,-1801 0,-1178 -414,-1799 -414,-620 -1199,-620 -784,0 -1198,620 -414,621 -414,1799 0,1181 414,1801 414,621 1198,621 z"
               transform="scale(0.015625)" />
            <path
               id="DejaVuSans-2e"
               d="m 684,794 h 660 V 0 H 684 Z"
               transform="scale(0.015625)" />
          </defs>
          <use
             xlink:href="#DejaVuSans-30"
             id="use29"
             x="0"
             y="0"
             width="100%"
             height="100%" />
          <use
             xlink:href="#DejaVuSans-2e"
             x="63.623047"
             id="use31"
             y="0"
             width="100%"
             height="100%" />
          <use
             xlink:href="#DejaVuSans-30"
             x="95.410156"
             id="use33"
             y="0"
             width="100%"
             height="100%" />
        </g>
      </g>
    </g>
    <g
       id="xtick_2">
      <g
         id="line2d_3">
        <path
           d="m 159.75,230.625 v -97.65"
           clip-path="url(#p7be42d5238)"
           style="fill:none;stroke:#b0b0b0;stroke-width:0.8;stroke-linecap:square"
           id="path39" />
      </g>
      <g
         id="line2d_4">
        <g
           id="g44">
          <use
             xlink:href="#m143a2aba60"
             x="159.75"
             y="230.625"
             style="stroke:#000000;stroke-width:0.8"
             id="use42"
             width="100%"
             height="100%" />
        </g>
      </g>
      <g
         id="text_2">
        <!-- 2.5 -->
        <g
           transform="matrix(0.1,0,0,-0.1,151.79844,245.22344)"
           id="g57">
          <defs
             id="defs49">
            <path
               id="DejaVuSans-32"
               d="M 1228,531 H 3431 V 0 H 469 v 531 q 359,372 979,998 621,627 780,809 303,340 423,576 121,236 121,464 0,372 -261,606 -261,235 -680,235 -297,0 -627,-103 -329,-103 -704,-313 v 638 q 381,153 712,231 332,78 607,78 725,0 1156,-363 431,-362 431,-968 0,-288 -108,-546 -107,-257 -392,-607 -78,-91 -497,-524 Q 1991,1309 1228,531 Z"
               transform="scale(0.015625)" />
            <path
               id="DejaVuSans-35"
               d="M 691,4666 H 3169 V 4134 H 1269 V 2991 q 137,47 274,70 138,23 276,23 781,0 1237,-428 457,-428 457,-1159 Q 3513,744 3044,326 2575,-91 1722,-91 1428,-91 1123,-41 819,9 494,109 v 635 q 281,-153 581,-228 300,-75 634,-75 541,0 856,284 316,284 316,772 0,487 -316,771 -315,285 -856,285 -253,0 -505,-56 -251,-56 -513,-175 z"
               transform="scale(0.015625)" />
          </defs>
          <use
             xlink:href="#DejaVuSans-32"
             id="use51"
             x="0"
             y="0"
             width="100%"
             height="100%" />
          <use
             xlink:href="#DejaVuSans-2e"
             x="63.623047"
             id="use53"
             y="0"
             width="100%"
             height="100%" />
          <use
             xlink:href="#DejaVuSans-35"
             x="95.410156"
             id="use55"
             y="0"
             width="100%"
             height="100%" />
        </g>
      </g>
    </g>
    <g
       id="xtick_3">
      <g
         id="line2d_5">
        <path
           d="m 229.5,230.625 v -97.65"
           clip-path="url(#p7be42d5238)"
           style="fill:none;stroke:#b0b0b0;stroke-width:0.8;stroke-linecap:square"
           id="path61" />
      </g>
      <g
         id="line2d_6">
        <g
           id="g66">
          <use
             xlink:href="#m143a2aba60"
             x="229.5"
             y="230.625"
             style="stroke:#000000;stroke-width:0.8"
             id="use64"
             width="100%"
             height="100%" />
        </g>
      </g>
      <g
         id="text_3">
        <!-- 5.0 -->
        <g
           transform="matrix(0.1,0,0,-0.1,221.54844,245.22344)"
           id="g75">
          <use
             xlink:href="#DejaVuSans-35"
             id="use69"
             x="0"
             y="0"
             width="100%"
             height="100%" />
          <use
             xlink:href="#DejaVuSans-2e"
             x="63.623047"
             id="use71"
             y="0"
             width="100%"
             height="100%" />
          <use
             xlink:href="#DejaVuSans-30"
             x="95.410156"
             id="use73"
             y="0"
             width="100%"
             height="100%" />
        </g>
      </g>
    </g>
    <g
       id="xtick_4">
      <g
         id="line2d_7">
        <path
           d="m 299.25,230.625 v -97.65"
           clip-path="url(#p7be42d5238)"
           style="fill:none;stroke:#b0b0b0;stroke-width:0.8;stroke-linecap:square"
           id="path79" />
      </g>
      <g
         id="line2d_8">
        <g
           id="g84">
          <use
             xlink:href="#m143a2aba60"
             x="299.25"
             y="230.625"
             style="stroke:#000000;stroke-width:0.8"
             id="use82"
             width="100%"
             height="100%" />
        </g>
      </g>
      <g
         id="text_4">
        <!-- 7.5 -->
        <g
           transform="matrix(0.1,0,0,-0.1,291.29844,245.22344)"
           id="g96">
          <defs
             id="defs88">
            <path
               id="DejaVuSans-37"
               d="M 525,4666 H 3525 V 4397 L 1831,0 H 1172 L 2766,4134 H 525 Z"
               transform="scale(0.015625)" />
          </defs>
          <use
             xlink:href="#DejaVuSans-37"
             id="use90"
             x="0"
             y="0"
             width="100%"
             height="100%" />
          <use
             xlink:href="#DejaVuSans-2e"
             x="63.623047"
             id="use92"
             y="0"
             width="100%"
             height="100%" />
          <use
             xlink:href="#DejaVuSans-35"
             x="95.410156"
             id="use94"
             y="0"
             width="100%"
             height="100%" />
        </g>
      </g>
    </g>
    <g
       id="xtick_5">
      <g
         id="line2d_9">
        <path
           d="m 369,230.625 v -97.65"
           clip-path="url(#p7be42d5238)"
           style="fill:none;stroke:#b0b0b0;stroke-width:0.8;stroke-linecap:square"
           id="path100" />
      </g>
      <g
         id="line2d_10">
        <g
           id="g105">
          <use
             xlink:href="#m143a2aba60"
             x="369"
             y="230.625"
             style="stroke:#000000;stroke-width:0.8"
             id="use103"
             width="100%"
             height="100%" />
        </g>
      </g>
      <g
         id="text_5">
        <!-- 10.0 -->
        <g
           transform="matrix(0.1,0,0,-0.1,357.86719,245.22344)"
           id="g119">
          <defs
             id="defs109">
            <path
               id="DejaVuSans-31"
               d="M 794,531 H 1825 V 4091 L 703,3866 v 575 l 1116,225 h 631 V 531 H 3481 V 0 H 794 Z"
               transform="scale(0.015625)" />
          </defs>
          <use
             xlink:href="#DejaVuSans-31"
             id="use111"
             x="0"
             y="0"
             width="100%"
             height="100%" />
          <use
             xlink:href="#DejaVuSans-30"
             x="63.623047"
             id="use113"
             y="0"
             width="100%"
             height="100%" />
          <use
             xlink:href="#DejaVuSans-2e"
             x="127.24609"
             id="use115"
             y="0"
             width="100%"
             height="100%" />
          <use
             xlink:href="#DejaVuSans-30"
             x="159.0332"
             id="use117"
             y="0"
             width="100%"
             height="100%" />
        </g>
      </g>
    </g>
    <g
       id="xtick_6">
      <g
         id="line2d_11">
        <path
           d="m 438.75,230.625 v -97.65"
           clip-path="url(#p7be42d5238)"
           style="fill:none;stroke:#b0b0b0;stroke-width:0.8;stroke-linecap:square"
           id="path123" />
      </g>
      <g
         id="line2d_12">
        <g
           id="g128">
          <use
             xlink:href="#m143a2aba60"
             x="438.75"
             y="230.625"
             style="stroke:#000000;stroke-width:0.8"
             id="use126"
             width="100%"
             height="100%" />
        </g>
      </g>
      <g
         id="text_6">
        <!-- 12.5 -->
        <g
           transform="matrix(0.1,0,0,-0.1,427.61719,245.22344)"
           id="g139">
          <use
             xlink:href="#DejaVuSans-31"
             id="use131"
             x="0"
             y="0"
             width="100%"
             height="100%" />
          <use
             xlink:href="#DejaVuSans-32"
             x="63.623047"
             id="use133"
             y="0"
             width="100%"
             height="100%" />
          <use
             xlink:href="#DejaVuSans-2e"
             x="127.24609"
             id="use135"
             y="0"
             width="100%"
             height="100%" />
          <use
             xlink:href="#DejaVuSans-35"
             x="159.0332"
             id="use137"
             y="0"
             width="100%"
             height="100%" />
        </g>
      </g>
    </g>
    <g
       id="xtick_7">
      <g
         id="line2d_13">
        <path
           d="m 508.5,230.625 v -97.65"
           clip-path="url(#p7be42d5238)"
           style="fill:none;stroke:#b0b0b0;stroke-width:0.8;stroke-linecap:square"
           id="path143" />
      </g>
      <g
         id="line2d_14">
        <g
           id="g148">
          <use
             xlink:href="#m143a2aba60"
             x="508.5"
             y="230.625"
             style="stroke:#000000;stroke-width:0.8"
             id="use146"
             width="100%"
             height="100%" />
        </g>
      </g>
      <g
         id="text_7">
        <!-- 15.0 -->
        <g
           transform="matrix(0.1,0,0,-0.1,497.36719,245.22344)"
           id="g159">
          <use
             xlink:href="#DejaVuSans-31"
             id="use151"
             x="0"
             y="0"
             width="100%"
             height="100%" />
          <use
             xlink:href="#DejaVuSans-35"
             x="63.623047"
             id="use153"
             y="0"
             width="100%"
             height="100%" />
          <use
             xlink:href="#DejaVuSans-2e"
             x="127.24609"
             id="use155"
             y="0"
             width="100%"
             height="100%" />
          <use
             xlink:href="#DejaVuSans-30"
             x="159.0332"
             id="use157"
             y="0"
             width="100%"
             height="100%" />
        </g>
      </g>
    </g>
    <g
       id="xtick_8">
      <g
         id="line2d_15">
        <path
           d="m 578.25,230.625 v -97.65"
           clip-path="url(#p7be42d5238)"
           style="fill:none;stroke:#b0b0b0;stroke-width:0.8;stroke-linecap:square"
           id="path163" />
      </g>
      <g
         id="line2d_16">
        <g
           id="g168">
          <use
             xlink:href="#m143a2aba60"
             x="578.25"
             y="230.625"
             style="stroke:#000000;stroke-width:0.8"
             id="use166"
             width="100%"
             height="100%" />
        </g>
      </g>
      <g
         id="text_8">
        <!-- 17.5 -->
        <g
           transform="matrix(0.1,0,0,-0.1,567.11719,245.22344)"
           id="g179">
          <use
             xlink:href="#DejaVuSans-31"
             id="use171"
             x="0"
             y="0"
             width="100%"
             height="100%" />
          <use
             xlink:href="#DejaVuSans-37"
             x="63.623047"
             id="use173"
             y="0"
             width="100%"
             height="100%" />
          <use
             xlink:href="#DejaVuSans-2e"
             x="127.24609"
             id="use175"
             y="0"
             width="100%"
             height="100%" />
          <use
             xlink:href="#DejaVuSans-35"
             x="159.0332"
             id="use177"
             y="0"
             width="100%"
             height="100%" />
        </g>
      </g>
    </g>
    <g
       id="xtick_9">
      <g
         id="line2d_17">
        <path
           d="m 648,230.625 v -97.65"
           clip-path="url(#p7be42d5238)"
           style="fill:none;stroke:#b0b0b0;stroke-width:0.8;stroke-linecap:square"
           id="path183" />
      </g>
      <g
         id="line2d_18">
        <g
           id="g188">
          <use
             xlink:href="#m143a2aba60"
             x="648"
             y="230.625"
             style="stroke:#000000;stroke-width:0.8"
             id="use186"
             width="100%"
             height="100%" />
        </g>
      </g>
      <g
         id="text_9">
        <!-- 20.0 -->
        <g
           transform="matrix(0.1,0,0,-0.1,636.86719,245.22344)"
           id="g199">
          <use
             xlink:href="#DejaVuSans-32"
             id="use191"
             x="0"
             y="0"
             width="100%"
             height="100%" />
          <use
             xlink:href="#DejaVuSans-30"
             x="63.623047"
             id="use193"
             y="0"
             width="100%"
             height="100%" />
          <use
             xlink:href="#DejaVuSans-2e"
             x="127.24609"
             id="use195"
             y="0"
             width="100%"
             height="100%" />
          <use
             xlink:href="#DejaVuSans-30"
             x="159.0332"
             id="use197"
             y="0"
             width="100%"
             height="100%" />
        </g>
      </g>
    </g>
    <g
       id="text_10">
      <!-- Horizontal airspeed [m/s] -->
      <g
         transform="matrix(0.1,0,0,-0.1,305.61641,258.90156)"
         id="g273">
        <defs
           id="defs221">
          <path
             id="DejaVuSans-48"
             d="m 628,4666 h 631 V 2753 h 2294 v 1913 h 631 V 0 H 3553 V 2222 H 1259 V 0 H 628 Z"
             transform="scale(0.015625)" />
          <path
             id="DejaVuSans-6f"
             d="m 1959,3097 q -462,0 -731,-361 -269,-361 -269,-989 0,-628 267,-989 268,-361 733,-361 460,0 728,362 269,363 269,988 0,622 -269,986 -268,364 -728,364 z m 0,487 q 750,0 1178,-488 429,-487 429,-1349 Q 3566,888 3137,398 2709,-91 1959,-91 1206,-91 779,398 353,888 353,1747 q 0,862 426,1349 427,488 1180,488 z"
             transform="scale(0.015625)" />
          <path
             id="DejaVuSans-72"
             d="m 2631,2963 q -97,56 -211,82 -114,27 -251,27 -488,0 -749,-317 -261,-317 -261,-911 V 0 H 581 v 3500 h 578 v -544 q 182,319 472,473 291,155 707,155 59,0 131,-8 72,-7 159,-23 z"
             transform="scale(0.015625)" />
          <path
             id="DejaVuSans-69"
             d="m 603,3500 h 575 V 0 H 603 Z m 0,1363 h 575 V 4134 H 603 Z"
             transform="scale(0.015625)" />
          <path
             id="DejaVuSans-7a"
             d="M 353,3500 H 3084 V 2975 L 922,459 H 3084 V 0 H 275 V 525 L 2438,3041 H 353 Z"
             transform="scale(0.015625)" />
          <path
             id="DejaVuSans-6e"
             d="M 3513,2113 V 0 h -575 v 2094 q 0,497 -194,743 -194,247 -581,247 -466,0 -735,-297 -269,-296 -269,-809 V 0 H 581 v 3500 h 578 v -544 q 207,316 486,472 280,156 646,156 603,0 912,-373 310,-373 310,-1098 z"
             transform="scale(0.015625)" />
          <path
             id="DejaVuSans-74"
             d="M 1172,4494 V 3500 H 2356 V 3053 H 1172 V 1153 q 0,-428 117,-550 117,-122 477,-122 h 590 V 0 H 1766 Q 1100,0 847,248 594,497 594,1153 V 3053 H 172 v 447 h 422 v 994 z"
             transform="scale(0.015625)" />
          <path
             id="DejaVuSans-61"
             d="m 2194,1759 q -697,0 -966,-159 -269,-159 -269,-544 0,-306 202,-486 202,-179 548,-179 479,0 768,339 289,339 289,901 v 128 z m 1147,238 V 0 H 2766 V 531 Q 2569,213 2275,61 1981,-91 1556,-91 q -537,0 -855,302 -317,302 -317,808 0,590 395,890 396,300 1180,300 h 807 v 57 q 0,397 -261,614 -261,217 -733,217 -300,0 -585,-72 -284,-72 -546,-216 v 532 q 315,122 612,182 297,61 578,61 760,0 1135,-394 375,-393 375,-1193 z"
             transform="scale(0.015625)" />
          <path
             id="DejaVuSans-6c"
             d="m 603,4863 h 575 V 0 H 603 Z"
             transform="scale(0.015625)" />
          <path
             id="DejaVuSans-20"
             transform="scale(0.015625)"
             d="" />
          <path
             id="DejaVuSans-73"
             d="m 2834,3397 v -544 q -243,125 -506,187 -262,63 -544,63 -428,0 -642,-131 -214,-131 -214,-394 0,-200 153,-314 153,-114 616,-217 l 197,-44 q 612,-131 870,-370 258,-239 258,-667 0,-488 -386,-773 Q 2250,-91 1575,-91 1294,-91 989,-36 684,19 347,128 v 594 q 319,-166 628,-249 309,-82 613,-82 406,0 624,139 219,139 219,392 0,234 -158,359 -157,125 -692,241 l -200,47 q -534,112 -772,345 -237,233 -237,639 0,494 350,762 350,269 994,269 318,0 599,-47 282,-46 519,-140 z"
             transform="scale(0.015625)" />
          <path
             id="DejaVuSans-70"
             d="M 1159,525 V -1331 H 581 v 4831 h 578 v -531 q 182,312 458,463 277,152 661,152 638,0 1036,-506 399,-506 399,-1331 0,-825 -399,-1332 -398,-506 -1036,-506 -384,0 -661,152 -276,152 -458,464 z m 1957,1222 q 0,634 -261,995 -261,361 -717,361 -457,0 -718,-361 -261,-361 -261,-995 0,-634 261,-995 261,-361 718,-361 456,0 717,361 261,361 261,995 z"
             transform="scale(0.015625)" />
          <path
             id="DejaVuSans-65"
             d="M 3597,1894 V 1613 H 953 q 38,-594 358,-905 320,-311 892,-311 331,0 642,81 311,81 618,244 V 178 Q 3153,47 2828,-22 2503,-91 2169,-91 1331,-91 842,396 353,884 353,1716 q 0,859 464,1363 464,505 1252,505 706,0 1117,-455 411,-454 411,-1235 z m -575,169 q -6,471 -264,752 -258,282 -683,282 -481,0 -770,-272 -289,-272 -333,-766 z"
             transform="scale(0.015625)" />
          <path
             id="DejaVuSans-64"
             d="m 2906,2969 v 1894 h 575 V 0 H 2906 V 525 Q 2725,213 2448,61 2172,-91 1784,-91 1150,-91 751,415 353,922 353,1747 q 0,825 398,1331 399,506 1033,506 388,0 664,-152 277,-151 458,-463 z M 947,1747 q 0,-634 261,-995 261,-361 717,-361 456,0 718,361 263,361 263,995 0,634 -263,995 -262,361 -718,361 -456,0 -717,-361 -261,-361 -261,-995 z"
             transform="scale(0.015625)" />
          <path
             id="DejaVuSans-5b"
             d="M 550,4863 H 1875 V 4416 H 1125 V -397 h 750 V -844 H 550 Z"
             transform="scale(0.015625)" />
          <path
             id="DejaVuSans-6d"
             d="m 3328,2828 q 216,388 516,572 300,184 706,184 547,0 844,-383 297,-382 297,-1088 V 0 h -578 v 2094 q 0,503 -179,746 -178,244 -543,244 -447,0 -707,-297 -259,-296 -259,-809 V 0 h -578 v 2094 q 0,506 -178,748 -178,242 -550,242 -441,0 -701,-298 -259,-298 -259,-808 V 0 H 581 v 3500 h 578 v -544 q 197,322 472,475 275,153 653,153 382,0 649,-194 267,-193 395,-562 z"
             transform="scale(0.015625)" />
          <path
             id="DejaVuSans-2f"
             d="m 1625,4666 h 531 L 531,-594 H 0 Z"
             transform="scale(0.015625)" />
          <path
             id="DejaVuSans-5d"
             d="M 1947,4863 V -844 H 622 v 447 h 747 V 4416 H 622 v 447 z"
             transform="scale(0.015625)" />
        </defs>
        <use
           xlink:href="#DejaVuSans-48"
           id="use223"
           x="0"
           y="0"
           width="100%"
           height="100%" />
        <use
           xlink:href="#DejaVuSans-6f"
           x="75.195312"
           id="use225"
           y="0"
           width="100%"
           height="100%" />
        <use
           xlink:href="#DejaVuSans-72"
           x="136.37695"
           id="use227"
           y="0"
           width="100%"
           height="100%" />
        <use
           xlink:href="#DejaVuSans-69"
           x="177.49023"
           id="use229"
           y="0"
           width="100%"
           height="100%" />
        <use
           xlink:href="#DejaVuSans-7a"
           x="205.27344"
           id="use231"
           y="0"
           width="100%"
           height="100%" />
        <use
           xlink:href="#DejaVuSans-6f"
           x="257.76367"
           id="use233"
           y="0"
           width="100%"
           height="100%" />
        <use
           xlink:href="#DejaVuSans-6e"
           x="318.94531"
           id="use235"
           y="0"
           width="100%"
           height="100%" />
        <use
           xlink:href="#DejaVuSans-74"
           x="382.32422"
           id="use237"
           y="0"
           width="100%"
           height="100%" />
        <use
           xlink:href="#DejaVuSans-61"
           x="421.5332"
           id="use239"
           y="0"
           width="100%"
           height="100%" />
        <use
           xlink:href="#DejaVuSans-6c"
           x="482.8125"
           id="use241"
           y="0"
           width="100%"
           height="100%" />
        <use
           xlink:href="#DejaVuSans-20"
           x="510.5957"
           id="use243"
           y="0"
           width="100%"
           height="100%" />
        <use
           xlink:href="#DejaVuSans-61"
           x="542.38281"
           id="use245"
           y="0"
           width="100%"
           height="100%" />
        <use
           xlink:href="#DejaVuSans-69"
           x="603.66211"
           id="use247"
           y="0"
           width="100%"
           height="100%" />
        <use
           xlink:href="#DejaVuSans-72"
           x="631.44531"
           id="use249"
           y="0"
           width="100%"
           height="100%" />
        <use
           xlink:href="#DejaVuSans-73"
           x="672.55859"
           id="use251"
           y="0"
           width="100%"
           height="100%" />
        <use
           xlink:href="#DejaVuSans-70"
           x="724.6582"
           id="use253"
           y="0"
           width="100%"
           height="100%" />
        <use
           xlink:href="#DejaVuSans-65"
           x="788.13477"
           id="use255"
           y="0"
           width="100%"
           height="100%" />
        <use
           xlink:href="#DejaVuSans-65"
           x="849.6582"
           id="use257"
           y="0"
           width="100%"
           height="100%" />
        <use
           xlink:href="#DejaVuSans-64"
           x="911.18164"
           id="use259"
           y="0"
           width="100%"
           height="100%" />
        <use
           xlink:href="#DejaVuSans-20"
           x="974.6582"
           id="use261"
           y="0"
           width="100%"
           height="100%" />
        <use
           xlink:href="#DejaVuSans-5b"
           x="1006.4453"
           id="use263"
           y="0"
           width="100%"
           height="100%" />
        <use
           xlink:href="#DejaVuSans-6d"
           x="1045.459"
           id="use265"
           y="0"
           width="100%"
           height="100%" />
        <use
           xlink:href="#DejaVuSans-2f"
           x="1142.8711"
           id="use267"
           y="0"
           width="100%"
           height="100%" />
        <use
           xlink:href="#DejaVuSans-73"
           x="1176.5625"
           id="use269"
           y="0"
           width="100%"
           height="100%" />
        <use
           xlink:href="#DejaVuSans-5d"
           x="1228.6621"
           id="use271"
           y="0"
           width="100%"
           height="100%" />
      </g>
    </g>
  </g>
  <g
     id="matplotlib.axis_2"
     transform="translate(-62.959374,-117.85687)">
    <g
       id="ytick_1">
      <g
         id="line2d_19">
        <path
           d="M 90,132.975 H 648"
           clip-path="url(#p7be42d5238)"
           style="fill:none;stroke:#b0b0b0;stroke-width:0.8;stroke-linecap:square"
           id="path277" />
      </g>
      <g
         id="line2d_20">
        <defs
           id="defs281">
          <path
             id="mcb34216b68"
             d="M 0,0 H -3.5"
             style="stroke:#000000;stroke-width:0.8" />
        </defs>
        <g
           id="g285">
          <use
             xlink:href="#mcb34216b68"
             x="90"
             y="132.97501"
             style="stroke:#000000;stroke-width:0.8"
             id="use283"
             width="100%"
             height="100%" />
        </g>
      </g>
      <g
         id="text_11">
        <!-- 0 -->
        <g
           transform="matrix(0.1,0,0,-0.1,76.6375,136.77422)"
           id="g290">
          <use
             xlink:href="#DejaVuSans-30"
             id="use288"
             x="0"
             y="0"
             width="100%"
             height="100%" />
        </g>
      </g>
    </g>
    <g
       id="ytick_2">
      <g
         id="line2d_21">
        <path
           d="M 90,160.875 H 648"
           clip-path="url(#p7be42d5238)"
           style="fill:none;stroke:#b0b0b0;stroke-width:0.8;stroke-linecap:square"
           id="path294" />
      </g>
      <g
         id="line2d_22">
        <g
           id="g299">
          <use
             xlink:href="#mcb34216b68"
             x="90"
             y="160.875"
             style="stroke:#000000;stroke-width:0.8"
             id="use297"
             width="100%"
             height="100%" />
        </g>
      </g>
      <g
         id="text_12">
        <!-- 1 -->
        <g
           transform="matrix(0.1,0,0,-0.1,76.6375,164.67422)"
           id="g304">
          <use
             xlink:href="#DejaVuSans-31"
             id="use302"
             x="0"
             y="0"
             width="100%"
             height="100%" />
        </g>
      </g>
    </g>
    <g
       id="ytick_3">
      <g
         id="line2d_23">
        <path
           d="M 90,188.775 H 648"
           clip-path="url(#p7be42d5238)"
           style="fill:none;stroke:#b0b0b0;stroke-width:0.8;stroke-linecap:square"
           id="path308" />
      </g>
      <g
         id="line2d_24">
        <g
           id="g313">
          <use
             xlink:href="#mcb34216b68"
             x="90"
             y="188.77499"
             style="stroke:#000000;stroke-width:0.8"
             id="use311"
             width="100%"
             height="100%" />
        </g>
      </g>
      <g
         id="text_13">
        <!-- 2 -->
        <g
           transform="matrix(0.1,0,0,-0.1,76.6375,192.57422)"
           id="g318">
          <use
             xlink:href="#DejaVuSans-32"
             id="use316"
             x="0"
             y="0"
             width="100%"
             height="100%" />
        </g>
      </g>
    </g>
    <g
       id="ytick_4">
      <g
         id="line2d_25">
        <path
           d="M 90,216.675 H 648"
           clip-path="url(#p7be42d5238)"
           style="fill:none;stroke:#b0b0b0;stroke-width:0.8;stroke-linecap:square"
           id="path322" />
      </g>
      <g
         id="line2d_26">
        <g
           id="g327">
          <use
             xlink:href="#mcb34216b68"
             x="90"
             y="216.675"
             style="stroke:#000000;stroke-width:0.8"
             id="use325"
             width="100%"
             height="100%" />
        </g>
      </g>
      <g
         id="text_14">
        <!-- 3 -->
        <g
           transform="matrix(0.1,0,0,-0.1,76.6375,220.47422)"
           id="g335">
          <defs
             id="defs331">
            <path
               id="DejaVuSans-33"
               d="m 2597,2516 q 453,-97 707,-404 255,-306 255,-756 0,-690 -475,-1069 -475,-378 -1350,-378 -293,0 -604,58 -311,58 -642,174 v 609 q 262,-153 574,-231 313,-78 654,-78 593,0 904,234 311,234 311,681 0,413 -289,645 -289,233 -804,233 h -544 v 519 h 569 q 465,0 712,186 247,186 247,536 0,359 -255,551 -254,193 -729,193 -260,0 -557,-57 -297,-56 -653,-174 v 562 q 360,100 674,150 314,50 592,50 719,0 1137,-327 419,-326 419,-882 0,-388 -222,-655 -222,-267 -631,-370 z"
               transform="scale(0.015625)" />
          </defs>
          <use
             xlink:href="#DejaVuSans-33"
             id="use333"
             x="0"
             y="0"
             width="100%"
             height="100%" />
        </g>
      </g>
    </g>
    <g
       id="text_15">
      <!-- sink rate [m/s] -->
      <g
         transform="matrix(0,-0.1,-0.1,0,70.557812,218.25312)"
         id="g372">
        <defs
           id="defs340">
          <path
             id="DejaVuSans-6b"
             d="m 581,4863 h 578 V 1991 l 1716,1509 h 734 L 1753,1863 3688,0 H 2938 L 1159,1709 V 0 H 581 Z"
             transform="scale(0.015625)" />
        </defs>
        <use
           xlink:href="#DejaVuSans-73"
           id="use342"
           x="0"
           y="0"
           width="100%"
           height="100%" />
        <use
           xlink:href="#DejaVuSans-69"
           x="52.099609"
           id="use344"
           y="0"
           width="100%"
           height="100%" />
        <use
           xlink:href="#DejaVuSans-6e"
           x="79.882812"
           id="use346"
           y="0"
           width="100%"
           height="100%" />
        <use
           xlink:href="#DejaVuSans-6b"
           x="143.26172"
           id="use348"
           y="0"
           width="100%"
           height="100%" />
        <use
           xlink:href="#DejaVuSans-20"
           x="201.17188"
           id="use350"
           y="0"
           width="100%"
           height="100%" />
        <use
           xlink:href="#DejaVuSans-72"
           x="232.95898"
           id="use352"
           y="0"
           width="100%"
           height="100%" />
        <use
           xlink:href="#DejaVuSans-61"
           x="274.07227"
           id="use354"
           y="0"
           width="100%"
           height="100%" />
        <use
           xlink:href="#DejaVuSans-74"
           x="335.35156"
           id="use356"
           y="0"
           width="100%"
           height="100%" />
        <use
           xlink:href="#DejaVuSans-65"
           x="374.56055"
           id="use358"
           y="0"
           width="100%"
           height="100%" />
        <use
           xlink:href="#DejaVuSans-20"
           x="436.08398"
           id="use360"
           y="0"
           width="100%"
           height="100%" />
        <use
           xlink:href="#DejaVuSans-5b"
           x="467.87109"
           id="use362"
           y="0"
           width="100%"
           height="100%" />
        <use
           xlink:href="#DejaVuSans-6d"
           x="506.88477"
           id="use364"
           y="0"
           width="100%"
           height="100%" />
        <use
           xlink:href="#DejaVuSans-2f"
           x="604.29688"
           id="use366"
           y="0"
           width="100%"
           height="100%" />
        <use
           xlink:href="#DejaVuSans-73"
           x="637.98828"
           id="use368"
           y="0"
           width="100%"
           height="100%" />
        <use
           xlink:href="#DejaVuSans-5d"
           x="690.08789"
           id="use370"
           y="0"
           width="100%"
           height="100%" />
      </g>
    </g>
  </g>
  <g
     id="line2d_27"
     transform="translate(-62.959374,-117.85687)">
    <path
       d="m 372.27666,162.57797 4.01714,0.48269 4.19431,0.53859 4.37852,0.59775 4.57928,0.6656 4.78335,0.74005 5.0046,0.82186 5.26626,0.91526 5.53053,1.01736 5.78936,1.12995 6.0571,1.25172 6.33114,1.385 6.61627,1.52935 6.89889,1.68684 7.18286,1.85741 7.45064,2.03756 7.71296,2.2287 7.97823,2.43442 8.24939,2.65854 8.50681,2.89466 8.74617,3.14233"
       clip-path="url(#p7be42d5238)"
       style="fill:none;stroke:#008000;stroke-width:1.5;stroke-linecap:square"
       id="path376" />
  </g>
  <g
     id="line2d_28"
     transform="translate(-62.959374,-117.85687)">
    <path
       d="m 372.27666,162.57797 -2.28628,-0.16087 -2.71072,-0.14623 -3.1366,-0.12183 -3.89182,-0.0615 -4.33662,-8.6e-4 -4.67558,0.0729 -4.77576,0.14199 -4.84214,0.22029 -4.78395,0.28318 -4.77414,0.34758 -4.66882,0.39159 -4.4511,0.43953 -4.18848,0.48578 -4.02931,0.50336 -3.79196,0.55718 -3.54448,0.58046 -3.38539,0.6059 -3.13519,0.63496 -2.86598,0.61664 -2.65264,0.5941"
       clip-path="url(#p7be42d5238)"
       style="fill:none;stroke:#ff0000;stroke-width:1.5;stroke-linecap:square"
       id="path379" />
  </g>
  <path
     style="fill:none;stroke:#808080;stroke-width:0.75;stroke-linecap:butt;stroke-linejoin:miter;stroke-opacity:1;stroke-miterlimit:4;stroke-dasharray:3, 0.75;stroke-dashoffset:0"
     d="M 27.065699,15.357217 490.29468,63.937041"
     id="path1682" />
  <g
     id="line2d_29"
     transform="translate(-62.959374,-117.85687)">
    <defs
       id="defs383">
      <path
         id="mf3fd2e42a7"
         d="M 0,1.5 C 0.397805,1.5 0.77937,1.341951 1.06066,1.06066 1.341951,0.77937 1.5,0.397805 1.5,0 1.5,-0.397805 1.341951,-0.77937 1.06066,-1.06066 0.77937,-1.341951 0.397805,-1.5 0,-1.5 c -0.397805,0 -0.77937,0.158049 -1.06066,0.43934 C -1.341951,-0.77937 -1.5,-0.397805 -1.5,0 c 0,0.397805 0.158049,0.77937 0.43934,1.06066 C -0.77937,1.341951 -0.397805,1.5 0,1.5 Z"
         style="stroke:#000000" />
    </defs>
    <g
       clip-path="url(#p7be42d5238)"
       id="g387">
      <use
         xlink:href="#mf3fd2e42a7"
         x="347.23801"
         y="162.27"
         style="stroke:#000000"
         id="use385"
         width="100%"
         height="100%"
         transform="translate(-0.52113819)" />
      <use
         xlink:href="#mf3fd2e42a7"
         x="347.23801"
         y="162.27"
         style="fill:none;stroke:#000000;stroke-linecap:butt;stroke-linejoin:round"
         id="use385-3"
         width="100%"
         height="100%"
         transform="matrix(0.71965244,0,0,0.71965244,123.10344,46.073948)" />
    </g>
  </g>
  <g
     id="LineCollection_1"
     transform="translate(-62.959374,-117.85687)">
    <path
       d="m 276,146.925 v 69.75"
       clip-path="url(#p7be42d5238)"
       style="fill:none;stroke:#000000;stroke-dasharray:3.7, 1.6;stroke-dashoffset:0"
       id="path390" />
    <path
       d="m 346.68,146.925 v 69.75"
       clip-path="url(#p7be42d5238)"
       style="fill:none;stroke:#000000;stroke-dasharray:3.7, 1.6;stroke-dashoffset:0"
       id="path392" />
    <path
       d="m 384.5,146.925 v 69.75"
       clip-path="url(#p7be42d5238)"
       style="fill:none;stroke:#000000;stroke-dasharray:3.7, 1.6;stroke-dashoffset:0"
       id="path394" />
    <path
       d="m 493,146.925 v 69.75"
       clip-path="url(#p7be42d5238)"
       style="fill:none;stroke:#000000;stroke-dasharray:3.7, 1.6;stroke-dashoffset:0"
       id="path396" />
  </g>
  <g
     id="patch_3"
     transform="translate(-62.959374,-117.85687)">
    <path
       d="m 90,230.625 v -97.65"
       style="fill:none;stroke:#000000;stroke-width:0.8;stroke-linecap:square;stroke-linejoin:miter"
       id="path399" />
  </g>
  <g
     id="patch_4"
     transform="translate(-62.959374,-117.85687)">
    <path
       d="m 648,230.625 v -97.65"
       style="fill:none;stroke:#000000;stroke-width:0.8;stroke-linecap:square;stroke-linejoin:miter"
       id="path402" />
  </g>
  <g
     id="patch_5"
     transform="translate(-62.959374,-117.85687)">
    <path
       d="M 90,230.625 H 648"
       style="fill:none;stroke:#000000;stroke-width:0.8;stroke-linecap:square;stroke-linejoin:miter"
       id="path405" />
  </g>
  <g
     id="patch_6"
     transform="translate(-62.959374,-117.85687)">
    <path
       d="M 90,132.975 H 648"
       style="fill:none;stroke:#000000;stroke-width:0.8;stroke-linecap:square;stroke-linejoin:miter"
       id="path408" />
  </g>
  <g
     id="text_16"
     transform="translate(-62.959374,-117.85687)">
    <!-- Niviuk Hook 3, size 25 -->
    <g
       transform="matrix(0.12,0,0,-0.12,302.4,126.975)"
       id="g461">
      <defs
         id="defs415">
        <path
           id="DejaVuSans-4e"
           d="m 628,4666 h 850 L 3547,763 v 3903 h 612 V 0 H 3309 L 1241,3903 V 0 H 628 Z"
           transform="scale(0.015625)" />
        <path
           id="DejaVuSans-76"
           d="M 191,3500 H 800 L 1894,563 2988,3500 h 609 L 2284,0 h -781 z"
           transform="scale(0.015625)" />
        <path
           id="DejaVuSans-75"
           d="m 544,1381 v 2119 h 575 V 1403 q 0,-497 193,-746 194,-248 582,-248 465,0 735,297 271,297 271,810 v 1984 h 575 V 0 H 2900 V 538 Q 2691,219 2414,64 2138,-91 1772,-91 1169,-91 856,284 544,659 544,1381 Z m 1447,2203 z"
           transform="scale(0.015625)" />
        <path
           id="DejaVuSans-2c"
           d="m 750,794 h 659 V 256 L 897,-744 H 494 L 750,256 Z"
           transform="scale(0.015625)" />
      </defs>
      <use
         xlink:href="#DejaVuSans-4e"
         id="use417"
         x="0"
         y="0"
         width="100%"
         height="100%" />
      <use
         xlink:href="#DejaVuSans-69"
         x="74.804688"
         id="use419"
         y="0"
         width="100%"
         height="100%" />
      <use
         xlink:href="#DejaVuSans-76"
         x="102.58789"
         id="use421"
         y="0"
         width="100%"
         height="100%" />
      <use
         xlink:href="#DejaVuSans-69"
         x="161.76758"
         id="use423"
         y="0"
         width="100%"
         height="100%" />
      <use
         xlink:href="#DejaVuSans-75"
         x="189.55078"
         id="use425"
         y="0"
         width="100%"
         height="100%" />
      <use
         xlink:href="#DejaVuSans-6b"
         x="252.92969"
         id="use427"
         y="0"
         width="100%"
         height="100%" />
      <use
         xlink:href="#DejaVuSans-20"
         x="310.83984"
         id="use429"
         y="0"
         width="100%"
         height="100%" />
      <use
         xlink:href="#DejaVuSans-48"
         x="342.62695"
         id="use431"
         y="0"
         width="100%"
         height="100%" />
      <use
         xlink:href="#DejaVuSans-6f"
         x="417.82227"
         id="use433"
         y="0"
         width="100%"
         height="100%" />
      <use
         xlink:href="#DejaVuSans-6f"
         x="479.00391"
         id="use435"
         y="0"
         width="100%"
         height="100%" />
      <use
         xlink:href="#DejaVuSans-6b"
         x="540.18555"
         id="use437"
         y="0"
         width="100%"
         height="100%" />
      <use
         xlink:href="#DejaVuSans-20"
         x="598.0957"
         id="use439"
         y="0"
         width="100%"
         height="100%" />
      <use
         xlink:href="#DejaVuSans-33"
         x="629.88281"
         id="use441"
         y="0"
         width="100%"
         height="100%" />
      <use
         xlink:href="#DejaVuSans-2c"
         x="693.50586"
         id="use443"
         y="0"
         width="100%"
         height="100%" />
      <use
         xlink:href="#DejaVuSans-20"
         x="725.29297"
         id="use445"
         y="0"
         width="100%"
         height="100%" />
      <use
         xlink:href="#DejaVuSans-73"
         x="757.08008"
         id="use447"
         y="0"
         width="100%"
         height="100%" />
      <use
         xlink:href="#DejaVuSans-69"
         x="809.17969"
         id="use449"
         y="0"
         width="100%"
         height="100%" />
      <use
         xlink:href="#DejaVuSans-7a"
         x="836.96289"
         id="use451"
         y="0"
         width="100%"
         height="100%" />
      <use
         xlink:href="#DejaVuSans-65"
         x="889.45312"
         id="use453"
         y="0"
         width="100%"
         height="100%" />
      <use
         xlink:href="#DejaVuSans-20"
         x="950.97656"
         id="use455"
         y="0"
         width="100%"
         height="100%" />
      <use
         xlink:href="#DejaVuSans-32"
         x="982.76367"
         id="use457"
         y="0"
         width="100%"
         height="100%" />
      <use
         xlink:href="#DejaVuSans-35"
         x="1046.3867"
         id="use459"
         y="0"
         width="100%"
         height="100%" />
    </g>
  </g>
  <defs
     id="defs469">
    <clipPath
       id="p7be42d5238">
      <rect
         x="90"
         y="132.97501"
         width="558"
         height="97.650002"
         id="rect466" />
    </clipPath>
  </defs>
  <g
     inkscape:label=""
     transform="matrix(1.4566739,0,0,1.4566739,323.59508,-83.22953)"
     id="g2727">
    <g
       id="g6810">
      <g
         style="fill:#000000;fill-opacity:1"
         id="g1706">
        <use
           xlink:href="#symbol5589"
           x="91.925003"
           y="81.962997"
           id="use2633"
           width="100%"
           height="100%" />
      </g>
      <g
         style="fill:#000000;fill-opacity:1"
         id="g4789">
        <use
           xlink:href="#symbol327"
           x="100.404"
           y="81.962997"
           id="use5436"
           width="100%"
           height="100%" />
      </g>
      <g
         style="fill:#000000;fill-opacity:1"
         id="g4981">
        <use
           xlink:href="#symbol9450"
           x="110.92252"
           y="81.962997"
           id="use3456"
           width="100%"
           height="100%" />
      </g>
      <g
         style="fill:#000000;fill-opacity:1"
         id="g9689">
        <use
           xlink:href="#symbol141"
           x="115.901"
           y="81.962997"
           id="use1944"
           width="100%"
           height="100%" />
      </g>
      <g
         style="fill:#000000;fill-opacity:1"
         id="g260">
        <use
           xlink:href="#symbol546"
           x="118.669"
           y="81.962997"
           id="use9197"
           width="100%"
           height="100%" />
        <use
           xlink:href="#symbol6412"
           x="123.6503"
           y="81.962997"
           id="use3951"
           width="100%"
           height="100%" />
      </g>
    </g>
  </g>
  <path
     id="path2803"
     style="fill:#ffffff;stroke:#000000;stroke-width:0.75;stroke-linecap:round;stroke-miterlimit:4;stroke-dasharray:none;marker-start:url(#Arrow1Lstart);marker-end:url(#Arrow1Lend)"
     d="m 451.54167,15.816688 c 0,14.701331 -0.55382,28.546889 -2.08125,43.168656"
     sodipodi:nodetypes="cc" />
</svg>
