<?xml version="1.0" encoding="UTF-8" standalone="no"?>
<svg
   xmlns:dc="http://purl.org/dc/elements/1.1/"
   xmlns:cc="http://creativecommons.org/ns#"
   xmlns:rdf="http://www.w3.org/1999/02/22-rdf-syntax-ns#"
   xmlns:svg="http://www.w3.org/2000/svg"
   xmlns="http://www.w3.org/2000/svg"
   xmlns:sodipodi="http://sodipodi.sourceforge.net/DTD/sodipodi-0.dtd"
   xmlns:inkscape="http://www.inkscape.org/namespaces/inkscape"
   inkscape:version="1.0 (4035a4fb49, 2020-05-01)"
   sodipodi:docname="belloc_canopy_chords.svg"
   id="svg238"
   width="441.41013pt"
   viewBox="0 0 441.41013 414.19595"
   version="1.1"
   height="414.19595pt">
  <metadata
     id="metadata242">
    <rdf:RDF>
      <cc:Work
         rdf:about="">
        <dc:format>image/svg+xml</dc:format>
        <dc:type
           rdf:resource="http://purl.org/dc/dcmitype/StillImage" />
      </cc:Work>
    </rdf:RDF>
  </metadata>
  <sodipodi:namedview
     inkscape:current-layer="svg238"
     inkscape:window-maximized="0"
     inkscape:window-y="27"
     inkscape:window-x="0"
     inkscape:cy="310.28839"
     inkscape:cx="207.91423"
     inkscape:zoom="1.06875"
     showgrid="false"
     id="namedview240"
     inkscape:window-height="1198"
     inkscape:window-width="1396"
     inkscape:pageshadow="2"
     inkscape:pageopacity="0"
     guidetolerance="10"
     gridtolerance="10"
     objecttolerance="10"
     borderopacity="1"
     bordercolor="#666666"
     pagecolor="#ffffff" />
  <defs
     id="defs4">
    <style
       id="style2"
       type="text/css">
*{stroke-linecap:butt;stroke-linejoin:round;}
  </style>
  </defs>
  <g
     transform="translate(-204.06433,-127.28371)"
     id="axes_1">
    <g
       id="line2d_1">
      <path
         d="M 644.92804,445.60176 C 553.19527,392.63982 461.4625,339.67788 369.72973,286.71594"
         style="fill:none;stroke:#d3d3d3;stroke-width:0.8;stroke-linecap:square"
         clip-path="url(#p64e2bc2643)"
         id="path12" />
    </g>
    <g
       id="line2d_2">
      <path
         d="M 617.40821,461.49034 C 525.67544,408.5284 433.94267,355.56646 342.2099,302.60452"
         style="fill:none;stroke:#d3d3d3;stroke-width:0.8;stroke-linecap:square"
         clip-path="url(#p64e2bc2643)"
         id="path15" />
    </g>
    <g
       id="line2d_3">
      <path
         d="M 589.88838,477.37893 C 498.15561,424.41699 406.42284,371.45505 314.69007,318.49311"
         style="fill:none;stroke:#d3d3d3;stroke-width:0.8;stroke-linecap:square"
         clip-path="url(#p64e2bc2643)"
         id="path18" />
    </g>
    <g
       id="line2d_4">
      <path
         d="M 562.36855,493.26751 C 470.63578,440.30557 378.903,387.34363 287.17023,334.38169"
         style="fill:none;stroke:#d3d3d3;stroke-width:0.8;stroke-linecap:square"
         clip-path="url(#p64e2bc2643)"
         id="path21" />
    </g>
    <g
       id="line2d_5">
      <path
         d="M 534.84872,509.15609 C 443.11595,456.19415 351.38317,403.23221 259.6504,350.27027"
         style="fill:none;stroke:#d3d3d3;stroke-width:0.8;stroke-linecap:square"
         clip-path="url(#p64e2bc2643)"
         id="path24" />
    </g>
    <g
       id="line2d_6">
      <path
         d="M 507.32889,525.04467 C 415.59612,472.08273 323.86334,419.12079 232.13057,366.15885"
         style="fill:none;stroke:#d3d3d3;stroke-width:0.8;stroke-linecap:square"
         clip-path="url(#p64e2bc2643)"
         id="path27" />
    </g>
    <g
       id="line2d_7">
      <path
         d="M 479.80906,540.93326 C 388.07629,487.97132 296.34351,435.00937 204.61074,382.04743"
         style="fill:none;stroke:#d3d3d3;stroke-width:0.8;stroke-linecap:square"
         clip-path="url(#p64e2bc2643)"
         id="path30" />
    </g>
    <g
       id="line2d_8">
      <path
         d="m 644.92804,445.60176 c -55.03966,31.77717 -110.07932,63.55433 -165.11898,95.3315"
         style="fill:none;stroke:#d3d3d3;stroke-width:0.8;stroke-linecap:square"
         clip-path="url(#p64e2bc2643)"
         id="path33" />
    </g>
    <g
       id="line2d_9">
      <path
         d="m 644.92804,286.71594 c 0,52.96194 0,105.92388 0,158.88582"
         style="fill:none;stroke:#d3d3d3;stroke-width:0.8;stroke-linecap:square"
         clip-path="url(#p64e2bc2643)"
         id="path36" />
    </g>
    <g
       id="line2d_10">
      <path
         d="m 617.40821,429.71318 c -55.03966,31.77716 -110.07933,63.55433 -165.11899,95.33149"
         style="fill:none;stroke:#d3d3d3;stroke-width:0.8;stroke-linecap:square"
         clip-path="url(#p64e2bc2643)"
         id="path39" />
    </g>
    <g
       id="line2d_11">
      <path
         d="m 617.40821,270.82736 c 0,52.96194 0,105.92388 0,158.88582"
         style="fill:none;stroke:#d3d3d3;stroke-width:0.8;stroke-linecap:square"
         clip-path="url(#p64e2bc2643)"
         id="path42" />
    </g>
    <g
       id="line2d_12">
      <path
         d="m 589.88838,413.8246 c -55.03966,31.77716 -110.07933,63.55433 -165.11899,95.33149"
         style="fill:none;stroke:#d3d3d3;stroke-width:0.8;stroke-linecap:square"
         clip-path="url(#p64e2bc2643)"
         id="path45" />
    </g>
    <g
       id="line2d_13">
      <path
         d="m 589.88838,254.93878 c 0,52.96194 0,105.92388 0,158.88582"
         style="fill:none;stroke:#d3d3d3;stroke-width:0.8;stroke-linecap:square"
         clip-path="url(#p64e2bc2643)"
         id="path48" />
    </g>
    <g
       id="line2d_14">
      <path
         d="m 562.36855,397.93602 c -55.03966,31.77716 -110.07933,63.55433 -165.11899,95.33149"
         style="fill:none;stroke:#d3d3d3;stroke-width:0.8;stroke-linecap:square"
         clip-path="url(#p64e2bc2643)"
         id="path51" />
    </g>
    <g
       id="line2d_15">
      <path
         d="m 562.36855,239.05019 c 0,52.96194 0,105.92389 0,158.88583"
         style="fill:none;stroke:#d3d3d3;stroke-width:0.8;stroke-linecap:square"
         clip-path="url(#p64e2bc2643)"
         id="path54" />
    </g>
    <g
       id="line2d_16">
      <path
         d="m 534.84872,382.04743 c -55.03966,31.77717 -110.07933,63.55433 -165.11899,95.3315"
         style="fill:none;stroke:#d3d3d3;stroke-width:0.8;stroke-linecap:square"
         clip-path="url(#p64e2bc2643)"
         id="path57" />
    </g>
    <g
       id="line2d_17">
      <path
         d="m 534.84872,223.16161 c 0,52.96194 0,105.92388 0,158.88582"
         style="fill:none;stroke:#d3d3d3;stroke-width:0.8;stroke-linecap:square"
         clip-path="url(#p64e2bc2643)"
         id="path60" />
    </g>
    <g
       id="line2d_18">
      <path
         d="M 507.32889,366.15885 C 452.28923,397.93601 397.24956,429.71318 342.2099,461.49034"
         style="fill:none;stroke:#d3d3d3;stroke-width:0.8;stroke-linecap:square"
         clip-path="url(#p64e2bc2643)"
         id="path63" />
    </g>
    <g
       id="line2d_19">
      <path
         d="m 507.32889,207.27303 c 0,52.96194 0,105.92388 0,158.88582"
         style="fill:none;stroke:#d3d3d3;stroke-width:0.8;stroke-linecap:square"
         clip-path="url(#p64e2bc2643)"
         id="path66" />
    </g>
    <g
       id="line2d_20">
      <path
         d="M 479.80906,350.27027 C 424.7694,382.04743 369.72973,413.8246 314.69007,445.60176"
         style="fill:none;stroke:#d3d3d3;stroke-width:0.8;stroke-linecap:square"
         clip-path="url(#p64e2bc2643)"
         id="path69" />
    </g>
    <g
       id="line2d_21">
      <path
         d="m 479.80906,191.38445 c 0,52.96194 0,105.92388 0,158.88582"
         style="fill:none;stroke:#d3d3d3;stroke-width:0.8;stroke-linecap:square"
         clip-path="url(#p64e2bc2643)"
         id="path72" />
    </g>
    <g
       id="line2d_22">
      <path
         d="m 452.28922,334.38169 c -55.03966,31.77716 -110.07933,63.55433 -165.11899,95.33149"
         style="fill:none;stroke:#d3d3d3;stroke-width:0.8;stroke-linecap:square"
         clip-path="url(#p64e2bc2643)"
         id="path75" />
    </g>
    <g
       id="line2d_23">
      <path
         d="m 452.28922,175.49587 c 0,52.96194 0,105.92388 0,158.88582"
         style="fill:none;stroke:#d3d3d3;stroke-width:0.8;stroke-linecap:square"
         clip-path="url(#p64e2bc2643)"
         id="path78" />
    </g>
    <g
       id="line2d_24">
      <path
         d="M 424.76939,318.49311 C 369.72973,350.27027 314.69006,382.04744 259.6504,413.8246"
         style="fill:none;stroke:#d3d3d3;stroke-width:0.8;stroke-linecap:square"
         clip-path="url(#p64e2bc2643)"
         id="path81" />
    </g>
    <g
       id="line2d_25">
      <path
         d="m 424.76939,159.60728 c 0,52.96194 0,105.92389 0,158.88583"
         style="fill:none;stroke:#d3d3d3;stroke-width:0.8;stroke-linecap:square"
         clip-path="url(#p64e2bc2643)"
         id="path84" />
    </g>
    <g
       id="line2d_26">
      <path
         d="m 397.24956,302.60452 c -55.03966,31.77717 -110.07933,63.55433 -165.11899,95.3315"
         style="fill:none;stroke:#d3d3d3;stroke-width:0.8;stroke-linecap:square"
         clip-path="url(#p64e2bc2643)"
         id="path87" />
    </g>
    <g
       id="line2d_27">
      <path
         d="m 397.24956,143.7187 c 0,52.96194 0,105.92388 0,158.88582"
         style="fill:none;stroke:#d3d3d3;stroke-width:0.8;stroke-linecap:square"
         clip-path="url(#p64e2bc2643)"
         id="path90" />
    </g>
    <g
       id="line2d_28">
      <path
         d="M 369.72973,286.71594 C 314.69007,318.4931 259.6504,350.27027 204.61074,382.04743"
         style="fill:none;stroke:#d3d3d3;stroke-width:0.8;stroke-linecap:square"
         clip-path="url(#p64e2bc2643)"
         id="path93" />
    </g>
    <g
       id="line2d_29">
      <path
         d="m 369.72973,127.83012 c 0,52.96194 0,105.92388 0,158.88582"
         style="fill:none;stroke:#d3d3d3;stroke-width:0.8;stroke-linecap:square"
         clip-path="url(#p64e2bc2643)"
         id="path96" />
    </g>
    <g
       id="line2d_30">
      <path
         d="M 644.92804,286.71594 C 553.19527,233.754 461.4625,180.79206 369.72973,127.83012"
         style="fill:none;stroke:#d3d3d3;stroke-width:0.8;stroke-linecap:square"
         clip-path="url(#p64e2bc2643)"
         id="path99" />
    </g>
    <g
       id="line2d_31">
      <path
         d="M 644.92804,318.49311 C 553.19527,265.53117 461.4625,212.56922 369.72973,159.60728"
         style="fill:none;stroke:#d3d3d3;stroke-width:0.8;stroke-linecap:square"
         clip-path="url(#p64e2bc2643)"
         id="path102" />
    </g>
    <g
       id="line2d_32">
      <path
         d="M 644.92804,350.27027 C 553.19527,297.30833 461.4625,244.34639 369.72973,191.38445"
         style="fill:none;stroke:#d3d3d3;stroke-width:0.8;stroke-linecap:square"
         clip-path="url(#p64e2bc2643)"
         id="path105" />
    </g>
    <g
       id="line2d_33">
      <path
         d="M 644.92804,382.04743 C 553.19527,329.08549 461.4625,276.12355 369.72973,223.16161"
         style="fill:none;stroke:#d3d3d3;stroke-width:0.8;stroke-linecap:square"
         clip-path="url(#p64e2bc2643)"
         id="path108" />
    </g>
    <g
       id="line2d_34">
      <path
         d="M 644.92804,413.8246 C 553.19527,360.86266 461.4625,307.90072 369.72973,254.93878"
         style="fill:none;stroke:#d3d3d3;stroke-width:0.8;stroke-linecap:square"
         clip-path="url(#p64e2bc2643)"
         id="path111" />
    </g>
    <g
       id="line2d_35">
      <path
         d="m 490.84375,438.5102 c -4.35351,2.71805 -8.70675,5.43657 -13.06041,8.15435"
         style="fill:none;stroke:#000000;stroke-width:0.5;stroke-linecap:square"
         clip-path="url(#p64e2bc2643)"
         id="path114" />
    </g>
    <g
       id="line2d_36">
      <path
         d="m 489.97444,428.77426 c -5.06008,3.15931 -10.12004,6.3188 -15.18018,9.47802"
         style="fill:none;stroke:#000000;stroke-width:0.5;stroke-linecap:square"
         clip-path="url(#p64e2bc2643)"
         id="path117" />
    </g>
    <g
       id="line2d_37">
      <path
         d="m 488.71831,419.11904 c -5.98244,3.51719 -11.96452,7.035 -17.94717,10.55181"
         style="fill:none;stroke:#000000;stroke-width:0.5;stroke-linecap:square"
         clip-path="url(#p64e2bc2643)"
         id="path120" />
    </g>
    <g
       id="line2d_38">
      <path
         d="m 485.99261,408.88756 c -7.39955,4.30566 -14.79954,8.61058 -22.19884,12.91666"
         style="fill:none;stroke:#000000;stroke-width:0.5;stroke-linecap:square"
         clip-path="url(#p64e2bc2643)"
         id="path123" />
    </g>
    <g
       id="line2d_39">
      <path
         d="m 482.85927,398.90852 c -8.77815,5.06823 -17.55658,10.13598 -26.33457,15.2045"
         style="fill:none;stroke:#000000;stroke-width:0.5;stroke-linecap:square"
         clip-path="url(#p64e2bc2643)"
         id="path126" />
    </g>
    <g
       id="line2d_40">
      <path
         d="m 478.22253,389.80109 c -9.88524,5.70737 -19.77069,11.41437 -29.6558,17.12196"
         style="fill:none;stroke:#000000;stroke-width:0.5;stroke-linecap:square"
         clip-path="url(#p64e2bc2643)"
         id="path129" />
    </g>
    <g
       id="line2d_41">
      <path
         d="m 473.58579,380.69366 c -10.99231,6.34655 -21.98485,12.69269 -32.97701,19.03948"
         style="fill:none;stroke:#000000;stroke-width:0.5;stroke-linecap:square"
         clip-path="url(#p64e2bc2643)"
         id="path132" />
    </g>
    <g
       id="line2d_42">
      <path
         d="m 467.91864,372.8125 c -11.81057,6.81883 -23.62113,13.63766 -35.4317,20.4565"
         style="fill:none;stroke:#000000;stroke-width:0.5;stroke-linecap:square"
         clip-path="url(#p64e2bc2643)"
         id="path135" />
    </g>
    <g
       id="line2d_43">
      <path
         d="m 462.09729,365.11484 c -12.58558,7.26623 -25.17106,14.53264 -37.75671,21.79876"
         style="fill:none;stroke:#000000;stroke-width:0.5;stroke-linecap:square"
         clip-path="url(#p64e2bc2643)"
         id="path138" />
    </g>
    <g
       id="line2d_44">
      <path
         d="m 456.16217,357.62254 c -13.31303,7.68637 -26.62621,15.37248 -39.93915,23.059"
         style="fill:none;stroke:#000000;stroke-width:0.5;stroke-linecap:square"
         clip-path="url(#p64e2bc2643)"
         id="path141" />
    </g>
    <g
       id="line2d_45">
      <path
         d="m 449.56459,351.32596 c -13.76414,7.94671 -27.52826,15.89345 -41.2924,23.84017"
         style="fill:none;stroke:#000000;stroke-width:0.5;stroke-linecap:square"
         clip-path="url(#p64e2bc2643)"
         id="path144" />
    </g>
    <g
       id="line2d_46">
      <path
         d="m 442.967,345.02937 c -14.2152,8.2072 -28.43049,16.41426 -42.64564,24.62154"
         style="fill:none;stroke:#000000;stroke-width:0.5;stroke-linecap:square"
         clip-path="url(#p64e2bc2643)"
         id="path147" />
    </g>
    <g
       id="line2d_47">
      <path
         d="m 436.29197,338.9354 c -14.62155,8.44176 -29.2431,16.88352 -43.86466,25.32527"
         style="fill:none;stroke:#000000;stroke-width:0.5;stroke-linecap:square"
         clip-path="url(#p64e2bc2643)"
         id="path150" />
    </g>
    <g
       id="line2d_48">
      <path
         d="m 429.16918,334.0131 c -14.76927,8.52706 -29.53858,17.05404 -44.30781,25.58117"
         style="fill:none;stroke:#000000;stroke-width:0.5;stroke-linecap:square"
         clip-path="url(#p64e2bc2643)"
         id="path153" />
    </g>
    <g
       id="line2d_49">
      <path
         d="m 422.04638,329.0908 c -14.91696,8.61227 -29.83385,17.22466 -44.75085,25.83686"
         style="fill:none;stroke:#000000;stroke-width:0.5;stroke-linecap:square"
         clip-path="url(#p64e2bc2643)"
         id="path156" />
    </g>
    <g
       id="line2d_50">
      <path
         d="m 414.92359,324.17758 c -15.0646,8.69756 -30.12921,17.3951 -45.19381,26.09267"
         style="fill:none;stroke:#000000;stroke-width:0.5;stroke-linecap:square"
         clip-path="url(#p64e2bc2643)"
         id="path159" />
    </g>
    <g
       id="line2d_51">
      <path
         d="m 407.44635,320.66146 c -14.91692,8.61229 -29.83385,17.22457 -44.75076,25.83687"
         style="fill:none;stroke:#000000;stroke-width:0.5;stroke-linecap:square"
         clip-path="url(#p64e2bc2643)"
         id="path162" />
    </g>
    <g
       id="line2d_52">
      <path
         d="m 399.96911,317.15443 c -14.76928,8.527 -29.53849,17.05413 -44.30781,25.58107"
         style="fill:none;stroke:#000000;stroke-width:0.5;stroke-linecap:square"
         clip-path="url(#p64e2bc2643)"
         id="path165" />
    </g>
    <g
       id="line2d_53">
      <path
         d="m 392.49186,313.64739 c -14.62155,8.44176 -29.2431,16.88353 -43.86466,25.32527"
         style="fill:none;stroke:#000000;stroke-width:0.5;stroke-linecap:square"
         clip-path="url(#p64e2bc2643)"
         id="path168" />
    </g>
    <g
       id="line2d_54">
      <path
         d="m 384.84162,311.47067 c -14.21521,8.20719 -28.43049,16.41425 -42.64564,24.62154"
         style="fill:none;stroke:#000000;stroke-width:0.5;stroke-linecap:square"
         clip-path="url(#p64e2bc2643)"
         id="path171" />
    </g>
    <g
       id="line2d_55">
      <path
         d="m 377.16145,309.52399 c -13.76413,7.94672 -27.52826,15.89345 -41.29239,23.84017"
         style="fill:none;stroke:#000000;stroke-width:0.5;stroke-linecap:square"
         clip-path="url(#p64e2bc2643)"
         id="path174" />
    </g>
    <g
       id="line2d_56">
      <path
         d="m 369.48129,307.57731 c -13.31305,7.6863 -26.62612,15.37257 -39.93916,23.0589"
         style="fill:none;stroke:#000000;stroke-width:0.5;stroke-linecap:square"
         clip-path="url(#p64e2bc2643)"
         id="path177" />
    </g>
    <g
       id="line2d_57">
      <path
         d="m 361.80014,307.20825 c -12.58558,7.26624 -25.17107,14.53264 -37.75671,21.79877"
         style="fill:none;stroke:#000000;stroke-width:0.5;stroke-linecap:square"
         clip-path="url(#p64e2bc2643)"
         id="path180" />
    </g>
    <g
       id="line2d_58">
      <path
         d="m 354.11883,307.11015 c -11.81057,6.81883 -23.62113,13.63768 -35.4317,20.4565"
         style="fill:none;stroke:#000000;stroke-width:0.5;stroke-linecap:square"
         clip-path="url(#p64e2bc2643)"
         id="path183" />
    </g>
    <g
       id="line2d_59">
      <path
         d="m 346.48797,307.3137 c -10.9923,6.34655 -21.98485,12.69268 -32.977,19.03948"
         style="fill:none;stroke:#000000;stroke-width:0.5;stroke-linecap:square"
         clip-path="url(#p64e2bc2643)"
         id="path186" />
    </g>
    <g
       id="line2d_60">
      <path
         d="m 339.19423,309.53306 c -9.88522,5.70743 -19.77078,11.41428 -29.6558,17.12206"
         style="fill:none;stroke:#000000;stroke-width:0.5;stroke-linecap:square"
         clip-path="url(#p64e2bc2643)"
         id="path189" />
    </g>
    <g
       id="line2d_61">
      <path
         d="m 331.90048,311.75242 c -8.77815,5.06823 -17.55658,10.13599 -26.33457,15.2045"
         style="fill:none;stroke:#000000;stroke-width:0.5;stroke-linecap:square"
         clip-path="url(#p64e2bc2643)"
         id="path192" />
    </g>
    <g
       id="line2d_62">
      <path
         d="m 325.74593,316.36909 c -7.63919,4.16691 -15.27793,8.33468 -22.91739,12.50108"
         style="fill:none;stroke:#000000;stroke-width:0.5;stroke-linecap:square"
         clip-path="url(#p64e2bc2643)"
         id="path195" />
    </g>
    <g
       id="line2d_63">
      <path
         d="m 319.8797,321.64002 c -6.43917,3.25371 -12.87821,6.50769 -19.31746,9.76124"
         style="fill:none;stroke:#000000;stroke-width:0.5;stroke-linecap:square"
         clip-path="url(#p64e2bc2643)"
         id="path198" />
    </g>
    <g
       id="line2d_64">
      <path
         d="m 316.51337,328.62647 c -5.60337,2.84531 -11.20608,5.69202 -16.80981,8.53656"
         style="fill:none;stroke:#000000;stroke-width:0.5;stroke-linecap:square"
         clip-path="url(#p64e2bc2643)"
         id="path201" />
    </g>
    <g
       id="line2d_65">
      <path
         d="m 313.8573,336.32702 c -4.8205,2.44853 -9.6416,4.89597 -14.46177,7.34512"
         style="fill:none;stroke:#000000;stroke-width:0.5;stroke-linecap:square"
         clip-path="url(#p64e2bc2643)"
         id="path204" />
    </g>
    <g
       id="line2d_66">
      <path
         d="m 477.78361,446.6646 c -1.82967,-5.62105 -4.05432,-11.07978 -6.71537,-16.35916 -2.51439,-3.48636 -5.65949,-6.58152 -8.52177,-9.82134 -6.69572,-7.54792 -14.55278,-13.90811 -21.93777,-20.75111 -11.55361,-9.16617 -23.02971,-18.46286 -35.32073,-26.6369 -8.37183,-5.97919 -17.01848,-11.54237 -25.83609,-16.83844 -7.21056,-4.67459 -14.75043,-8.77777 -22.36064,-12.75723 -8.89211,-5.11276 -18.42395,-8.93993 -27.83936,-12.95018 -5.39642,-1.52861 -10.81047,-3.35891 -16.34457,-4.15135 -2.50893,0.30223 -5.17042,0.17726 -7.58945,0.73123 -1.86354,1.27054 -4.06006,2.72613 -4.84473,4.86992 -0.73214,3.86834 -0.95413,7.7436 -1.0781,11.67187"
         style="fill:none;stroke:#000000;stroke-width:0.8;stroke-dasharray:2.96, 1.28;stroke-dashoffset:0"
         clip-path="url(#p64e2bc2643)"
         id="path207" />
    </g>
    <g
       id="line2d_67">
      <path
         d="m 481.04865,444.626 c -1.57925,-6.0765 -3.46794,-12.0874 -5.96434,-17.84081 -5.39946,-7.69547 -10.65091,-15.57367 -17.33297,-22.23752 -4.93286,-5.3598 -9.81532,-10.7706 -15.39597,-15.4751 -7.87838,-6.98399 -15.62627,-14.15035 -24.24432,-20.22971 -7.62923,-5.7516 -15.2244,-11.56782 -23.45044,-16.45472 -6.91885,-4.32997 -13.64012,-9.00508 -21.04613,-12.48815 -7.20479,-3.66303 -14.21929,-7.74926 -21.88878,-10.39322 -5.89481,-2.1023 -11.58059,-4.90861 -17.818,-5.85697 -4.22404,-0.73701 -8.4831,-1.79803 -12.75001,-1.95942 -3.06436,0.59612 -6.27808,0.83192 -9.25364,1.64225 -2.44995,1.74987 -5.19369,3.59745 -6.6563,6.21633 -1.16242,4.02961 -1.76906,8.1264 -2.23715,12.28673"
         style="fill:none;stroke:#008000;stroke-width:0.8;stroke-dasharray:2.96, 1.28;stroke-dashoffset:0"
         clip-path="url(#p64e2bc2643)"
         id="path210" />
    </g>
    <g
       id="line2d_68">
      <path
         d="m 490.84375,438.5102 c -0.67453,-7.06336 -1.09038,-14.20705 -2.59291,-21.14589 -1.75922,-6.56872 -3.43377,-13.21944 -5.94083,-19.53464 -3.1925,-6.00988 -5.97748,-12.26803 -9.43099,-18.1189 -5.55609,-7.74197 -11.18652,-15.47446 -17.37369,-22.7151 -6.71825,-6.26314 -13.1216,-12.91241 -20.2093,-18.74853 -7.08732,-4.77885 -13.97721,-9.90074 -21.19409,-14.45594 -7.50731,-3.42762 -14.88639,-7.20208 -22.48338,-10.39229 -7.52041,-2.15648 -15.11675,-4.17224 -22.74188,-5.85065 -7.63872,-0.3655 -15.36473,-0.73791 -22.96781,-0.0584 -4.73336,1.51451 -9.59608,2.77401 -14.2505,4.44412 -4.18856,3.04478 -8.33423,6.26098 -11.91005,9.97865 -2.45006,4.62712 -4.32022,9.42502 -5.89102,14.41434"
         style="fill:none;stroke:#000000;stroke-width:0.8;stroke-dasharray:2.96, 1.28;stroke-dashoffset:0"
         clip-path="url(#p64e2bc2643)"
         id="path213" />
    </g>
    <g
       id="line2d_69">
      <path
         d="m 481.04865,484.12207 c -11.78313,-2.55749 -23.00304,-7.13992 -34.13111,-11.68387 -11.85991,-5.19627 -23.59797,-10.66142 -35.07492,-16.66051 -11.06969,-5.56572 -21.83831,-11.71224 -32.62917,-17.79232 -11.39044,-6.82331 -22.80521,-13.61104 -33.77932,-21.09596 -8.56558,-5.56559 -16.76721,-11.69071 -24.82812,-17.95409 -6.26124,-5.41962 -12.98621,-10.62215 -17.59541,-17.60356"
         style="fill:none;stroke:#008000;stroke-width:0.8;stroke-dasharray:2.96, 1.28;stroke-dashoffset:0"
         clip-path="url(#p64e2bc2643)"
         id="path216" />
    </g>
    <g
       id="line2d_70">
      <path
         d="M 485.61969,481.19964 C 426.43726,447.03064 367.25482,412.86165 308.07239,378.69266"
         style="fill:none;stroke:#ff0000;stroke-width:0.8;stroke-dasharray:2.96, 1.28;stroke-dashoffset:0"
         clip-path="url(#p64e2bc2643)"
         id="path219" />
    </g>
    <g
       id="line2d_71">
      <path
         d="m 596.34791,378.05794 c -1.10421,-6.44349 -2.34804,-12.90357 -4.35266,-19.1205 -3.3196,-6.67111 -6.43638,-13.51162 -10.59551,-19.70389 -4.88576,-6.50913 -9.06116,-13.59193 -14.79717,-19.41445 -5.66268,-6.07601 -11.22779,-12.2893 -17.32492,-17.92684 -7.26402,-5.93163 -14.20772,-12.29873 -21.81668,-17.78138 -7.0937,-4.56933 -13.99454,-9.47423 -21.21676,-13.82117 -7.33485,-3.52737 -14.52188,-7.41227 -21.96044,-10.69249 -6.91077,-2.37411 -13.87724,-4.67157 -20.89572,-6.66065 -6.59788,-0.87004 -13.25827,-1.6559 -19.90214,-1.72284 -3.94634,1.03672 -8.01344,1.80216 -11.88642,3.00369 -3.32536,2.17837 -6.66585,4.5422 -9.30738,7.47551 -1.81662,4.40791 -3.03866,8.90535 -3.98225,13.5747"
         style="fill:none;stroke:#008000;stroke-width:0.8;stroke-dasharray:2.96, 1.28;stroke-dashoffset:0"
         clip-path="url(#p64e2bc2643)"
         id="path222" />
    </g>
    <g
       id="line2d_72">
      <path
         d="m 596.10254,377.98466 c -1.17627,-6.47895 -2.35339,-13.01976 -4.47104,-19.25164 -3.0996,-6.42629 -6.0342,-12.99499 -9.87962,-19.00712 -4.14801,-5.5515 -7.83618,-11.47433 -12.29916,-16.77147 -6.49187,-7.09673 -12.95992,-14.25752 -19.94312,-20.86775 -7.34234,-5.9952 -14.36041,-12.43074 -22.04863,-17.9758 -7.0937,-4.56933 -13.99454,-9.47423 -21.21676,-13.82117 -7.33485,-3.52737 -14.52188,-7.41227 -21.96044,-10.69249 -6.91077,-2.37411 -13.87724,-4.67157 -20.89572,-6.66065 -6.59788,-0.87004 -13.25827,-1.6559 -19.90214,-1.72284 -3.94181,1.04309 -8.0223,1.78968 -11.87989,3.01289 -3.2534,2.30861 -6.49794,4.80092 -9.07389,7.81505 -1.78031,4.36078 -3.00321,8.83174 -3.97689,13.43601"
         style="fill:none;stroke:#ff0000;stroke-width:0.8;stroke-dasharray:2.96, 1.28;stroke-dashoffset:0"
         clip-path="url(#p64e2bc2643)"
         id="path225" />
    </g>
    <g
       id="Poly3DCollection_1">
      <path
         d="m 477.78361,486.20952 c -7.99159,-0.44272 -15.85143,-2.26944 -23.58547,-4.23327 -7.8002,-2.20068 -15.61014,-4.37685 -23.12599,-7.44208 -8.76264,-3.21916 -17.42344,-6.69501 -25.82521,-10.7728 -8.79166,-3.8598 -17.316,-8.2622 -25.71884,-12.90005 -7.12016,-3.62053 -13.9612,-7.72389 -20.68927,-12.02267 -7.44069,-4.42646 -14.61325,-9.26319 -21.54229,-14.45365 -8.5491,-5.78723 -16.1465,-12.79574 -23.78566,-19.70523 -4.27395,-5.04727 -9.04353,-9.76996 -12.01789,-15.75992 -1.07232,-1.73537 -1.84472,-3.6715 -2.09796,-5.70302 4.82076,-2.51343 9.64151,-5.02685 14.46227,-7.54028 10.67938,1.87476 20.91634,5.53105 31.01938,9.3725 12.1246,4.96486 24.14422,10.2297 35.80958,16.20823 12.11027,5.83528 23.79985,12.48863 35.53147,19.03615 11.1322,6.74119 22.35479,13.34391 33.02913,20.80409 8.77484,5.73364 17.07756,12.17032 25.23512,18.73679 6.03511,5.42484 12.40297,10.80797 16.36177,18.02541 -4.35338,2.78327 -8.70676,5.56653 -13.06014,8.3498 z"
         style="fill-opacity:0.25"
         clip-path="url(#p64e2bc2643)"
         id="path228" />
    </g>
  </g>
  <defs
     id="defs236">
    <clipPath
       id="p64e2bc2643">
      <rect
         id="rect233"
         y="0"
         x="0"
         width="720"
         height="720" />
    </clipPath>
  </defs>
</svg>
