<?xml version="1.0" encoding="UTF-8" standalone="no"?>
<svg
   height="2.1384315in"
   version="1.1"
   viewBox="0 0 431.99998 153.96708"
   width="6in"
   id="svg247"
   sodipodi:docname="braking_NACA24018.svg"
   inkscape:version="1.1.2 (0a00cf5339, 2022-02-04)"
   xmlns:inkscape="http://www.inkscape.org/namespaces/inkscape"
   xmlns:sodipodi="http://sodipodi.sourceforge.net/DTD/sodipodi-0.dtd"
   xmlns:xlink="http://www.w3.org/1999/xlink"
   xmlns="http://www.w3.org/2000/svg"
   xmlns:svg="http://www.w3.org/2000/svg"
   xmlns:rdf="http://www.w3.org/1999/02/22-rdf-syntax-ns#"
   xmlns:cc="http://creativecommons.org/ns#"
   xmlns:dc="http://purl.org/dc/elements/1.1/">
  <sodipodi:namedview
     pagecolor="#ffffff"
     bordercolor="#666666"
     borderopacity="1"
     objecttolerance="10"
     gridtolerance="10"
     guidetolerance="10"
     inkscape:pageopacity="0"
     inkscape:pageshadow="2"
     inkscape:window-width="2560"
     inkscape:window-height="1371"
     id="namedview249"
     showgrid="false"
     inkscape:zoom="1.4142136"
     inkscape:cx="437.6991"
     inkscape:cy="41.7193"
     inkscape:window-x="0"
     inkscape:window-y="32"
     inkscape:window-maximized="1"
     inkscape:current-layer="svg247"
     inkscape:document-rotation="0"
     units="in"
     inkscape:pagecheckerboard="true"
     inkscape:document-units="in"
     inkscape:snap-page="true"
     inkscape:showpageshadow="false" />
  <metadata
     id="metadata2">
    <rdf:RDF>
      <cc:Work>
        <dc:type
           rdf:resource="http://purl.org/dc/dcmitype/StillImage" />
        <dc:date>2021-05-27T17:18:01.931349</dc:date>
        <dc:format>image/svg+xml</dc:format>
        <dc:creator>
          <cc:Agent>
            <dc:title>Matplotlib v3.4.1, https://matplotlib.org/</dc:title>
          </cc:Agent>
        </dc:creator>
      </cc:Work>
    </rdf:RDF>
  </metadata>
  <defs
     id="defs6">
    <style
       type="text/css"
       id="style4">*{stroke-linecap:butt;stroke-linejoin:round;}</style>
    <g
       id="g428">
      <symbol
         overflow="visible"
         id="symbol6280">
        <path
           style="stroke:none"
           d=""
           id="path3857" />
      </symbol>
      <symbol
         overflow="visible"
         id="symbol6516">
        <path
           style="stroke:none"
           d="M 2.625,-4.359375 C 1.390625,-4.0625 0.421875,-2.765625 0.421875,-1.5625 0.421875,-0.59375 1.0625,0.125 2,0.125 c 1.15625,0 1.984375,-1.578125 1.984375,-2.953125 0,-0.90625 -0.390625,-1.40625 -0.734375,-1.84375 C 2.890625,-5.125 2.296875,-5.875 2.296875,-6.3125 c 0,-0.21875 0.203125,-0.453125 0.546875,-0.453125 0.3125,0 0.5,0.125 0.71875,0.265625 0.203125,0.125 0.390625,0.25 0.546875,0.25 C 4.359375,-6.25 4.5,-6.484375 4.5,-6.65625 4.5,-6.875 4.34375,-6.890625 3.984375,-6.984375 3.46875,-7.09375 3.328125,-7.09375 3.171875,-7.09375 c -0.78125,0 -1.140625,0.4375 -1.140625,1.03125 0,0.546875 0.296875,1.09375 0.59375,1.703125 z m 0.125,0.21875 c 0.25,0.46875 0.546875,1 0.546875,1.71875 0,0.65625 -0.375,2.328125 -1.296875,2.328125 -0.546875,0 -0.96875,-0.421875 -0.96875,-1.1875 0,-0.625 0.375,-2.5 1.71875,-2.859375 z m 0,0"
           id="path33" />
      </symbol>
      <symbol
         overflow="visible"
         id="symbol178">
        <path
           style="stroke:none"
           d="m 1.90625,-0.53125 c 0,-0.28125 -0.234375,-0.53125 -0.515625,-0.53125 -0.296875,0 -0.53125,0.25 -0.53125,0.53125 C 0.859375,-0.234375 1.09375,0 1.390625,0 1.671875,0 1.90625,-0.234375 1.90625,-0.53125 Z m 0,0"
           id="path1508" />
      </symbol>
      <symbol
         overflow="visible"
         id="symbol7652">
        <path
           style="stroke:none"
           d=""
           id="path7233" />
      </symbol>
      <symbol
         overflow="visible"
         id="symbol8601">
        <path
           style="stroke:none"
           d="M 3.984375,-4.625 C 3.984375,-4.640625 4,-4.734375 4,-4.734375 4,-4.78125 3.984375,-4.84375 3.890625,-4.84375 3.75,-4.84375 3.171875,-4.78125 3,-4.765625 c -0.046875,0 -0.15625,0.015625 -0.15625,0.15625 0,0.09375 0.109375,0.09375 0.1875,0.09375 0.328125,0 0.328125,0.0625 0.328125,0.109375 0,0.046875 0,0.09375 -0.015625,0.15625 L 2.9375,-2.65625 c -0.140625,-0.234375 -0.375,-0.421875 -0.71875,-0.421875 -0.890625,0 -1.796875,0.984375 -1.796875,1.984375 0,0.6875 0.453125,1.15625 1.0625,1.15625 0.375,0 0.703125,-0.203125 0.984375,-0.484375 C 2.59375,0 3,0.0625 3.1875,0.0625 c 0.25,0 0.421875,-0.140625 0.546875,-0.359375 0.15625,-0.28125 0.25,-0.671875 0.25,-0.703125 0,-0.09375 -0.09375,-0.09375 -0.109375,-0.09375 -0.109375,0 -0.109375,0.03125 -0.15625,0.21875 C 3.625,-0.53125 3.5,-0.125 3.203125,-0.125 3.03125,-0.125 2.96875,-0.28125 2.96875,-0.46875 c 0,-0.125 0.015625,-0.1875 0.046875,-0.28125 z M 2.5,-0.875 C 2.453125,-0.671875 2.296875,-0.53125 2.140625,-0.40625 2.078125,-0.34375 1.796875,-0.125 1.5,-0.125 c -0.265625,0 -0.515625,-0.1875 -0.515625,-0.671875 0,-0.375 0.203125,-1.140625 0.375,-1.421875 0.3125,-0.5625 0.671875,-0.65625 0.859375,-0.65625 0.484375,0 0.625,0.53125 0.625,0.609375 0,0.015625 -0.015625,0.078125 -0.015625,0.09375 z m 0,0"
           id="path7522" />
      </symbol>
      <symbol
         overflow="visible"
         id="symbol8243">
        <path
           style="stroke:none"
           d=""
           id="path3474" />
      </symbol>
      <symbol
         overflow="visible"
         id="symbol9602">
        <path
           style="stroke:none"
           d="m 6.84375,-3.265625 c 0.15625,0 0.34375,0 0.34375,-0.1875 C 7.1875,-3.65625 7,-3.65625 6.859375,-3.65625 h -5.96875 c -0.140625,0 -0.328125,0 -0.328125,0.203125 0,0.1875 0.1875,0.1875 0.328125,0.1875 z m 0.015625,1.9375 c 0.140625,0 0.328125,0 0.328125,-0.203125 0,-0.1875 -0.1875,-0.1875 -0.34375,-0.1875 H 0.890625 c -0.140625,0 -0.328125,0 -0.328125,0.1875 0,0.203125 0.1875,0.203125 0.328125,0.203125 z m 0,0"
           id="path9094" />
      </symbol>
      <symbol
         overflow="visible"
         id="symbol1688">
        <path
           style="stroke:none"
           d="m 4.578125,-3.1875 c 0,-0.796875 -0.046875,-1.59375 -0.390625,-2.328125 -0.453125,-0.96875 -1.28125,-1.125 -1.6875,-1.125 -0.609375,0 -1.328125,0.265625 -1.75,1.1875 -0.3125,0.6875 -0.359375,1.46875 -0.359375,2.265625 0,0.75 0.03125,1.640625 0.453125,2.40625 0.421875,0.796875 1.15625,1 1.640625,1 0.53125,0 1.296875,-0.203125 1.734375,-1.15625 0.3125,-0.6875 0.359375,-1.46875 0.359375,-2.25 z M 2.484375,0 C 2.09375,0 1.5,-0.25 1.328125,-1.203125 1.21875,-1.796875 1.21875,-2.71875 1.21875,-3.3125 c 0,-0.640625 0,-1.296875 0.078125,-1.828125 0.1875,-1.1875 0.9375,-1.28125 1.1875,-1.28125 0.328125,0 0.984375,0.1875 1.171875,1.171875 0.109375,0.5625 0.109375,1.3125 0.109375,1.9375 0,0.75 0,1.421875 -0.109375,2.0625 C 3.5,-0.296875 2.9375,0 2.484375,0 Z m 0,0"
           id="path4271" />
      </symbol>
      <symbol
         overflow="visible"
         id="symbol5443">
        <path
           style="stroke:none"
           d="m 1.265625,-0.765625 1.0625,-1.03125 c 1.546875,-1.375 2.140625,-1.90625 2.140625,-2.90625 0,-1.140625 -0.890625,-1.9375 -2.109375,-1.9375 -1.125,0 -1.859375,0.921875 -1.859375,1.8125 0,0.546875 0.5,0.546875 0.53125,0.546875 0.171875,0 0.515625,-0.109375 0.515625,-0.53125 0,-0.25 -0.1875,-0.515625 -0.53125,-0.515625 -0.078125,0 -0.09375,0 -0.125,0.015625 0.21875,-0.65625 0.765625,-1.015625 1.34375,-1.015625 0.90625,0 1.328125,0.8125 1.328125,1.625 C 3.5625,-3.90625 3.078125,-3.125 2.515625,-2.5 l -1.90625,2.125 C 0.5,-0.265625 0.5,-0.234375 0.5,0 H 4.203125 L 4.46875,-1.734375 H 4.234375 C 4.171875,-1.4375 4.109375,-1 4,-0.84375 3.9375,-0.765625 3.28125,-0.765625 3.0625,-0.765625 Z m 0,0"
           id="path5723" />
      </symbol>
      <symbol
         overflow="visible"
         id="symbol8257">
        <path
           style="stroke:none"
           d="m 2.890625,-3.515625 c 0.8125,-0.265625 1.390625,-0.953125 1.390625,-1.75 0,-0.8125 -0.875,-1.375 -1.828125,-1.375 -1,0 -1.765625,0.59375 -1.765625,1.359375 0,0.328125 0.21875,0.515625 0.515625,0.515625 0.296875,0 0.5,-0.21875 0.5,-0.515625 0,-0.484375 -0.46875,-0.484375 -0.609375,-0.484375 0.296875,-0.5 0.953125,-0.625 1.3125,-0.625 0.421875,0 0.96875,0.21875 0.96875,1.109375 0,0.125 -0.03125,0.703125 -0.28125,1.140625 C 2.796875,-3.65625 2.453125,-3.625 2.203125,-3.625 2.125,-3.609375 1.890625,-3.59375 1.8125,-3.59375 c -0.078125,0.015625 -0.140625,0.03125 -0.140625,0.125 0,0.109375 0.0625,0.109375 0.234375,0.109375 h 0.4375 c 0.8125,0 1.1875,0.671875 1.1875,1.65625 0,1.359375 -0.6875,1.640625 -1.125,1.640625 -0.4375,0 -1.1875,-0.171875 -1.53125,-0.75 0.34375,0.046875 0.65625,-0.171875 0.65625,-0.546875 0,-0.359375 -0.265625,-0.5625 -0.546875,-0.5625 -0.25,0 -0.5625,0.140625 -0.5625,0.578125 0,0.90625 0.921875,1.5625 2.015625,1.5625 1.21875,0 2.125,-0.90625 2.125,-1.921875 0,-0.8125 -0.640625,-1.59375 -1.671875,-1.8125 z m 0,0"
           id="path9788" />
      </symbol>
    </g>
  </defs>
  <rect
     style="fill:#ffffff;stroke:none;stroke-width:0.75;stroke-linecap:round"
     id="rect1017"
     width="432"
     height="153.96707"
     x="0"
     y="0" />
  <path
     style="fill:none;stroke:#808080;stroke-width:0.843554;stroke-linecap:butt;stroke-linejoin:miter;stroke-miterlimit:4;stroke-dasharray:5.06133, 0.843554;stroke-dashoffset:0;stroke-opacity:1"
     d="M 33.932444,51.766079 H 430.69288"
     id="path1512" />
  <path
     style="fill:none;stroke:#808080;stroke-width:0.843554;stroke-linecap:butt;stroke-linejoin:miter;stroke-miterlimit:4;stroke-dasharray:5.06133, 0.843554;stroke-dashoffset:0;stroke-opacity:1"
     d="M 367.3423,121.4908 H 34.179077"
     id="path1230"
     sodipodi:nodetypes="cc" />
  <g
     id="axes_1"
     transform="matrix(1.1247392,0,0,1.1247392,-26.742431,-53.767745)">
    <g
       id="patch_2" />
    <g
       id="matplotlib.axis_1">
      <g
         id="xtick_1">
        <g
           id="line2d_1">
          <defs
             id="defs15">
            <path
               d="M 0,0 V 3.5"
               id="mfa64025ae1"
               style="stroke:#000000;stroke-width:0.8" />
          </defs>
          <g
             id="g19">
            <use
               style="stroke:#000000;stroke-width:0.8"
               x="69.204979"
               xlink:href="#mfa64025ae1"
               y="169.95537"
               id="use17"
               width="100%"
               height="100%" />
          </g>
        </g>
        <g
           id="text_1">
          <!-- 0.0 -->
          <g
             transform="matrix(0.1,0,0,-0.1,61.253418,184.5538)"
             id="g32">
            <defs
               id="defs24">
              <path
                 d="m 2034,4250 q -487,0 -733,-480 -245,-479 -245,-1442 0,-959 245,-1439 246,-480 733,-480 491,0 736,480 246,480 246,1439 0,963 -246,1442 -245,480 -736,480 z m 0,500 q 785,0 1199,-621 414,-620 414,-1801 0,-1178 -414,-1799 -414,-620 -1199,-620 -784,0 -1198,620 -414,621 -414,1799 0,1181 414,1801 414,621 1198,621 z"
                 id="DejaVuSans-30"
                 transform="scale(0.015625)" />
              <path
                 d="m 684,794 h 660 V 0 H 684 Z"
                 id="DejaVuSans-2e"
                 transform="scale(0.015625)" />
            </defs>
            <use
               xlink:href="#DejaVuSans-30"
               id="use26"
               x="0"
               y="0"
               width="100%"
               height="100%" />
            <use
               x="63.623047"
               xlink:href="#DejaVuSans-2e"
               id="use28"
               y="0"
               width="100%"
               height="100%" />
            <use
               x="95.410156"
               xlink:href="#DejaVuSans-30"
               id="use30"
               y="0"
               width="100%"
               height="100%" />
          </g>
        </g>
      </g>
      <g
         id="xtick_2">
        <g
           id="line2d_2">
          <g
             id="g38">
            <use
               style="stroke:#000000;stroke-width:0.8"
               x="130.08035"
               xlink:href="#mfa64025ae1"
               y="169.95537"
               id="use36"
               width="100%"
               height="100%" />
          </g>
        </g>
        <g
           id="text_2">
          <!-- 0.2 -->
          <g
             transform="matrix(0.1,0,0,-0.1,122.12879,184.5538)"
             id="g50">
            <defs
               id="defs42">
              <path
                 d="M 1228,531 H 3431 V 0 H 469 v 531 q 359,372 979,998 621,627 780,809 303,340 423,576 121,236 121,464 0,372 -261,606 -261,235 -680,235 -297,0 -627,-103 -329,-103 -704,-313 v 638 q 381,153 712,231 332,78 607,78 725,0 1156,-363 431,-362 431,-968 0,-288 -108,-546 -107,-257 -392,-607 -78,-91 -497,-524 Q 1991,1309 1228,531 Z"
                 id="DejaVuSans-32"
                 transform="scale(0.015625)" />
            </defs>
            <use
               xlink:href="#DejaVuSans-30"
               id="use44"
               x="0"
               y="0"
               width="100%"
               height="100%" />
            <use
               x="63.623047"
               xlink:href="#DejaVuSans-2e"
               id="use46"
               y="0"
               width="100%"
               height="100%" />
            <use
               x="95.410156"
               xlink:href="#DejaVuSans-32"
               id="use48"
               y="0"
               width="100%"
               height="100%" />
          </g>
        </g>
      </g>
      <g
         id="xtick_3">
        <g
           id="line2d_3">
          <g
             id="g56">
            <use
               style="stroke:#000000;stroke-width:0.8"
               x="190.95572"
               xlink:href="#mfa64025ae1"
               y="169.95537"
               id="use54"
               width="100%"
               height="100%" />
          </g>
        </g>
        <g
           id="text_3">
          <!-- 0.4 -->
          <g
             transform="matrix(0.1,0,0,-0.1,183.00415,184.5538)"
             id="g68">
            <defs
               id="defs60">
              <path
                 d="M 2419,4116 825,1625 h 1594 z m -166,550 h 794 V 1625 h 666 V 1100 H 3047 V 0 H 2419 V 1100 H 313 v 609 z"
                 id="DejaVuSans-34"
                 transform="scale(0.015625)" />
            </defs>
            <use
               xlink:href="#DejaVuSans-30"
               id="use62"
               x="0"
               y="0"
               width="100%"
               height="100%" />
            <use
               x="63.623047"
               xlink:href="#DejaVuSans-2e"
               id="use64"
               y="0"
               width="100%"
               height="100%" />
            <use
               x="95.410156"
               xlink:href="#DejaVuSans-34"
               id="use66"
               y="0"
               width="100%"
               height="100%" />
          </g>
        </g>
      </g>
      <g
         id="xtick_4">
        <g
           id="line2d_4">
          <g
             id="g74">
            <use
               style="stroke:#000000;stroke-width:0.8"
               x="251.83109"
               xlink:href="#mfa64025ae1"
               y="169.95537"
               id="use72"
               width="100%"
               height="100%" />
          </g>
        </g>
        <g
           id="text_4">
          <!-- 0.6 -->
          <g
             transform="matrix(0.1,0,0,-0.1,243.87952,184.5538)"
             id="g86">
            <defs
               id="defs78">
              <path
                 d="m 2113,2584 q -425,0 -674,-291 -248,-290 -248,-796 0,-503 248,-796 249,-292 674,-292 425,0 673,292 248,293 248,796 0,506 -248,796 -248,291 -673,291 z m 1253,1979 v -575 q -238,112 -480,171 -242,60 -480,60 -625,0 -955,-422 -329,-422 -376,-1275 184,272 462,417 279,145 613,145 703,0 1111,-427 408,-426 408,-1160 0,-719 -425,-1154 -425,-434 -1131,-434 -810,0 -1238,620 -428,621 -428,1799 0,1106 525,1764 525,658 1409,658 238,0 480,-47 242,-47 505,-140 z"
                 id="DejaVuSans-36"
                 transform="scale(0.015625)" />
            </defs>
            <use
               xlink:href="#DejaVuSans-30"
               id="use80"
               x="0"
               y="0"
               width="100%"
               height="100%" />
            <use
               x="63.623047"
               xlink:href="#DejaVuSans-2e"
               id="use82"
               y="0"
               width="100%"
               height="100%" />
            <use
               x="95.410156"
               xlink:href="#DejaVuSans-36"
               id="use84"
               y="0"
               width="100%"
               height="100%" />
          </g>
        </g>
      </g>
      <g
         id="xtick_5">
        <g
           id="line2d_5">
          <g
             id="g92">
            <use
               style="stroke:#000000;stroke-width:0.8"
               x="312.70645"
               xlink:href="#mfa64025ae1"
               y="169.95537"
               id="use90"
               width="100%"
               height="100%" />
          </g>
        </g>
        <g
           id="text_5">
          <!-- 0.8 -->
          <g
             transform="matrix(0.1,0,0,-0.1,304.75489,184.5538)"
             id="g104">
            <defs
               id="defs96">
              <path
                 d="m 2034,2216 q -450,0 -708,-241 -257,-241 -257,-662 0,-422 257,-663 258,-241 708,-241 450,0 709,242 260,243 260,662 0,421 -258,662 -257,241 -711,241 z m -631,268 q -406,100 -633,378 -226,279 -226,679 0,559 398,884 399,325 1092,325 697,0 1094,-325 397,-325 397,-884 0,-400 -227,-679 -226,-278 -629,-378 456,-106 710,-416 255,-309 255,-755 Q 3634,634 3220,271 2806,-91 2034,-91 1263,-91 848,271 434,634 434,1313 q 0,446 256,755 257,310 713,416 z m -231,997 q 0,-362 226,-565 227,-203 636,-203 407,0 636,203 230,203 230,565 0,363 -230,566 -229,203 -636,203 -409,0 -636,-203 -226,-203 -226,-566 z"
                 id="DejaVuSans-38"
                 transform="scale(0.015625)" />
            </defs>
            <use
               xlink:href="#DejaVuSans-30"
               id="use98"
               x="0"
               y="0"
               width="100%"
               height="100%" />
            <use
               x="63.623047"
               xlink:href="#DejaVuSans-2e"
               id="use100"
               y="0"
               width="100%"
               height="100%" />
            <use
               x="95.410156"
               xlink:href="#DejaVuSans-38"
               id="use102"
               y="0"
               width="100%"
               height="100%" />
          </g>
        </g>
      </g>
      <g
         id="xtick_6">
        <g
           id="line2d_6">
          <g
             id="g110">
            <use
               style="stroke:#000000;stroke-width:0.8"
               x="373.58182"
               xlink:href="#mfa64025ae1"
               y="169.95537"
               id="use108"
               width="100%"
               height="100%" />
          </g>
        </g>
        <g
           id="text_6">
          <!-- 1.0 -->
          <g
             transform="matrix(0.1,0,0,-0.1,365.63026,184.5538)"
             id="g122">
            <defs
               id="defs114">
              <path
                 d="M 794,531 H 1825 V 4091 L 703,3866 v 575 l 1116,225 h 631 V 531 H 3481 V 0 H 794 Z"
                 id="DejaVuSans-31"
                 transform="scale(0.015625)" />
            </defs>
            <use
               xlink:href="#DejaVuSans-31"
               id="use116"
               x="0"
               y="0"
               width="100%"
               height="100%" />
            <use
               x="63.623047"
               xlink:href="#DejaVuSans-2e"
               id="use118"
               y="0"
               width="100%"
               height="100%" />
            <use
               x="95.410156"
               xlink:href="#DejaVuSans-30"
               id="use120"
               y="0"
               width="100%"
               height="100%" />
          </g>
        </g>
      </g>
    </g>
    <g
       id="matplotlib.axis_2">
      <g
         id="ytick_1">
        <g
           id="line2d_7">
          <defs
             id="defs128">
            <path
               d="M 0,0 H -3.5"
               id="m88ab6b8b4d"
               style="stroke:#000000;stroke-width:0.8" />
          </defs>
          <g
             id="g132">
            <use
               style="stroke:#000000;stroke-width:0.8"
               x="54"
               xlink:href="#m88ab6b8b4d"
               y="154.73653"
               id="use130"
               width="100%"
               height="100%" />
          </g>
        </g>
        <g
           id="text_7">
          <!-- &#8722;0.2 -->
          <g
             transform="matrix(0.1,0,0,-0.1,22.717187,158.53574)"
             id="g146">
            <defs
               id="defs136">
              <path
                 d="M 678,2272 H 4684 V 1741 H 678 Z"
                 id="DejaVuSans-2212"
                 transform="scale(0.015625)" />
            </defs>
            <use
               xlink:href="#DejaVuSans-2212"
               id="use138"
               x="0"
               y="0"
               width="100%"
               height="100%" />
            <use
               x="83.789062"
               xlink:href="#DejaVuSans-30"
               id="use140"
               y="0"
               width="100%"
               height="100%" />
            <use
               x="147.41211"
               xlink:href="#DejaVuSans-2e"
               id="use142"
               y="0"
               width="100%"
               height="100%" />
            <use
               x="179.19922"
               xlink:href="#DejaVuSans-32"
               id="use144"
               y="0"
               width="100%"
               height="100%" />
          </g>
        </g>
      </g>
      <g
         id="ytick_2">
        <g
           id="line2d_8">
          <g
             id="g152">
            <use
               style="stroke:#000000;stroke-width:0.8"
               x="54"
               xlink:href="#m88ab6b8b4d"
               y="124.29884"
               id="use150"
               width="100%"
               height="100%" />
          </g>
        </g>
        <g
           id="text_8">
          <!-- &#8722;0.1 -->
          <g
             transform="matrix(0.1,0,0,-0.1,22.717187,128.09806)"
             id="g163">
            <use
               xlink:href="#DejaVuSans-2212"
               id="use155"
               x="0"
               y="0"
               width="100%"
               height="100%" />
            <use
               x="83.789062"
               xlink:href="#DejaVuSans-30"
               id="use157"
               y="0"
               width="100%"
               height="100%" />
            <use
               x="147.41211"
               xlink:href="#DejaVuSans-2e"
               id="use159"
               y="0"
               width="100%"
               height="100%" />
            <use
               x="179.19922"
               xlink:href="#DejaVuSans-31"
               id="use161"
               y="0"
               width="100%"
               height="100%" />
          </g>
        </g>
      </g>
      <g
         id="ytick_3">
        <g
           id="line2d_9">
          <g
             id="g169">
            <use
               style="stroke:#000000;stroke-width:0.8"
               x="54"
               xlink:href="#m88ab6b8b4d"
               y="93.86116"
               id="use167"
               width="100%"
               height="100%" />
          </g>
        </g>
        <g
           id="text_9">
          <!-- 0.0 -->
          <g
             transform="matrix(0.1,0,0,-0.1,31.096875,97.660377)"
             id="g178">
            <use
               xlink:href="#DejaVuSans-30"
               id="use172"
               x="0"
               y="0"
               width="100%"
               height="100%" />
            <use
               x="63.623047"
               xlink:href="#DejaVuSans-2e"
               id="use174"
               y="0"
               width="100%"
               height="100%" />
            <use
               x="95.410156"
               xlink:href="#DejaVuSans-30"
               id="use176"
               y="0"
               width="100%"
               height="100%" />
          </g>
        </g>
      </g>
      <g
         id="ytick_4">
        <g
           id="line2d_10">
          <g
             id="g184">
            <use
               style="stroke:#000000;stroke-width:0.8"
               x="54"
               xlink:href="#m88ab6b8b4d"
               y="63.423473"
               id="use182"
               width="100%"
               height="100%" />
          </g>
        </g>
        <g
           id="text_10">
          <!-- 0.1 -->
          <g
             transform="matrix(0.1,0,0,-0.1,31.096875,67.222693)"
             id="g193">
            <use
               xlink:href="#DejaVuSans-30"
               id="use187"
               x="0"
               y="0"
               width="100%"
               height="100%" />
            <use
               x="63.623047"
               xlink:href="#DejaVuSans-2e"
               id="use189"
               y="0"
               width="100%"
               height="100%" />
            <use
               x="95.410156"
               xlink:href="#DejaVuSans-31"
               id="use191"
               y="0"
               width="100%"
               height="100%" />
          </g>
        </g>
      </g>
    </g>
    <path
       id="path201"
       clip-path="url(#pa02d5dfc86)"
       style="fill:none;stroke:#808080;stroke-width:0.99975;stroke-linecap:round;stroke-miterlimit:4;stroke-dasharray:none"
       d="m 368.9005,102.05194 c -5.66947,-7.569514 -16.12979,-4.196187 -23.97381,-3.100579 M 325.31567,83.044148 c 10.58534,2.543274 21.61189,3.749073 31.82031,7.580179 5.0718,2.343082 9.16549,6.512919 11.76452,11.427753"
       sodipodi:nodetypes="ccccc" />
    <path
       id="path204"
       clip-path="url(#pa02d5dfc86)"
       style="fill:none;stroke:#808080;stroke-width:0.99975;stroke-linecap:round;stroke-miterlimit:4;stroke-dasharray:none"
       d="m 366.17937,106.5902 c -6.01935,-9.558368 -18.77524,-8.284085 -28.3708,-6.47118 m 3.26923,-13.766148 c 11.02551,2.398359 20.20177,10.160113 25.10157,20.237278"
       sodipodi:nodetypes="cccc" />
    <path
       id="path207"
       clip-path="url(#pa02d5dfc86)"
       style="fill:none;stroke:#808080;stroke-width:0.99975;stroke-linecap:round;stroke-miterlimit:4;stroke-dasharray:none"
       d="M 363.07473,111.54241 C 357.13326,100.85622 343.55562,99.088035 332.5788,100.98333 m -2.78998,-17.003062 c 15.05378,2.839059 27.02285,13.870207 33.28591,27.562112"
       sodipodi:nodetypes="cccc" />
    <path
       id="path210"
       clip-path="url(#pa02d5dfc86)"
       style="fill:none;stroke:#808080;stroke-width:0.99975;stroke-linecap:round;stroke-miterlimit:4;stroke-dasharray:none"
       d="m 359.48004,117.00902 c -5.97677,-11.62303 -19.81563,-16.56354 -32.25793,-14.98454 m -6.3678,-19.875334 c 16.29214,3.676944 29.61719,15.871078 36.49858,30.865294 0.74003,1.31507 1.43426,2.6543 2.12715,3.99456"
       sodipodi:nodetypes="ccccc" />
    <path
       id="path213"
       clip-path="url(#pa02d5dfc86)"
       style="fill:none;stroke:#808080;stroke-width:0.99975;stroke-linecap:round;stroke-miterlimit:4;stroke-dasharray:none"
       d="m 355.26138,123.0996 c -6.22464,-12.90198 -20.42119,-20.93007 -34.67107,-19.82671 m -8.05878,-22.615882 c 17.00725,4.472096 30.67336,17.527084 37.99052,33.268652 1.67974,3.00533 3.16134,6.11502 4.73933,9.17392"
       sodipodi:nodetypes="ccccc" />
    <path
       id="path216"
       clip-path="url(#pa02d5dfc86)"
       style="fill:none;stroke:#808080;stroke-width:0.99975;stroke-linecap:round;stroke-miterlimit:4;stroke-dasharray:none"
       d="m 350.26655,129.91459 c -6.30704,-13.59557 -19.33312,-24.70607 -34.77979,-25.26055 -14.42476,-0.14585 -28.61804,3.29791 -42.97024,4.4586 m 28.84671,-30.635517 c 17.80952,4.489666 32.47206,17.764494 40.27752,34.197797 3.07583,5.64322 5.93004,11.40568 8.6258,17.2397"
       sodipodi:nodetypes="cccccc" />
    <path
       id="path219"
       clip-path="url(#pa02d5dfc86)"
       style="fill:none;stroke:#808080;stroke-width:0.99975;stroke-linecap:round;stroke-miterlimit:4;stroke-dasharray:none"
       d="m 344.31294,137.54837 c -6.68434,-15.1704 -19.39006,-29.68368 -36.81417,-31.43722 -12.89465,-0.91545 -25.6253,2.49226 -38.45602,3.39139 m 21.62584,-32.953819 c 18.26073,4.462139 33.22863,18.143507 41.19451,34.942739 4.58644,8.46907 8.73613,17.1705 12.44984,26.05695"
       sodipodi:nodetypes="cccccc" />
    <path
       id="path222"
       clip-path="url(#pa02d5dfc86)"
       style="fill:none;stroke:#808080;stroke-width:0.99975;stroke-linecap:round;stroke-miterlimit:4;stroke-dasharray:none"
       d="m 337.17226,146.08005 c -6.79716,-16.40287 -18.01655,-33.7574 -36.40337,-38.12968 -11.93189,-2.48869 -23.96513,1.37557 -35.91409,2.02164 m 15.9577,-35.071544 c 17.62689,4.572715 32.012,17.888635 39.69982,34.187064 6.47835,11.88702 12.0058,24.28218 16.65994,36.99261"
       sodipodi:nodetypes="cccccc" />
    <path
       id="path225"
       clip-path="url(#pa02d5dfc86)"
       style="fill:none;stroke:#808080;stroke-width:0.99975;stroke-linecap:round;stroke-miterlimit:4;stroke-dasharray:none"
       d="m 328.54318,155.57052 c -6.4192,-17.29799 -15.45666,-35.91936 -32.79182,-44.47803 -11.71469,-5.75565 -24.74947,-1.03601 -37.01716,-0.47208 m 12.67884,-37.151589 c 16.45234,4.735809 29.61184,17.500526 36.75601,32.835949 8.46866,15.66106 15.26688,32.21242 20.37412,49.26572"
       sodipodi:nodetypes="cccccc" />
    <path
       id="path198"
       clip-path="url(#pa02d5dfc86)"
       style="fill:none;stroke:#000000;stroke-width:0.99975;stroke-linecap:round;stroke-miterlimit:4;stroke-dasharray:none"
       d="M 373.58182,93.861158 C 313.9241,104.87334 253.58973,112.98654 192.928,115.32296 158.88136,116.41164 124.60307,114.68 91.063131,108.5573 83.286187,106.56237 72.899202,105.00428 69.661378,96.547353 67.668103,87.187359 76.271757,79.967403 83.210594,75.253623 106.72068,60.676428 135.51643,60.073836 162.33024,60.792069 c 54.65041,2.0885 108.73681,11.387406 162.2708,22.106033 16.39385,3.344216 32.72157,7.016495 48.98078,10.963081" />
    <g
       id="patch_3">
      <path
         d="M 54,169.95537 V 48.204633"
         style="fill:none;stroke:#000000;stroke-width:0.8;stroke-linecap:square;stroke-linejoin:miter"
         id="path228" />
    </g>
    <g
       id="patch_4" />
    <g
       id="patch_5">
      <path
         d="M 54,169.95537 H 388.8"
         style="fill:none;stroke:#000000;stroke-width:0.8;stroke-linecap:square;stroke-linejoin:miter"
         id="path234" />
    </g>
    <g
       id="patch_6" />
  </g>
  <defs
     id="defs245">
    <clipPath
       id="pa02d5dfc86">
      <rect
         height="121.75073"
         width="334.79999"
         x="54"
         y="48.204632"
         id="rect242" />
    </clipPath>
  </defs>
  <g
     id="g9431"
     transform="matrix(1.3358421,0,0,1.3358421,249.58261,16.647942)">
    <path
       style="fill:none;stroke:#000000;stroke-width:0.398;stroke-linecap:butt;stroke-linejoin:miter;stroke-miterlimit:10;stroke-opacity:1"
       d="M 7.8125e-4,0.0015625 H 9.071094"
       transform="matrix(1,0,0,-1,91.925,73.65)"
       id="path8741" />
    <g
       style="fill:#000000;fill-opacity:1"
       id="g8357">
      <use
         xlink:href="#symbol6516"
         x="91.925003"
         y="81.962997"
         id="use6512"
         width="100%"
         height="100%" />
    </g>
    <g
       style="fill:#000000;fill-opacity:1"
       id="g5857">
      <use
         xlink:href="#symbol8601"
         x="96.352997"
         y="83.457001"
         id="use6777"
         width="100%"
         height="100%" />
    </g>
    <g
       style="fill:#000000;fill-opacity:1"
       id="g4407">
      <use
         xlink:href="#symbol9602"
         x="103.766"
         y="81.962997"
         id="use7864"
         width="100%"
         height="100%" />
    </g>
    <g
       style="fill:#000000;fill-opacity:1"
       id="g5090">
      <use
         xlink:href="#symbol1688"
         x="114.28452"
         y="81.962997"
         id="use906"
         width="100%"
         height="100%" />
    </g>
    <g
       style="fill:#000000;fill-opacity:1"
       id="g7320">
      <use
         xlink:href="#symbol178"
         x="119.263"
         y="81.962997"
         id="use4378"
         width="100%"
         height="100%" />
    </g>
    <g
       style="fill:#000000;fill-opacity:1"
       id="g3690">
      <use
         xlink:href="#symbol5443"
         x="122.031"
         y="81.962997"
         id="use5645"
         width="100%"
         height="100%" />
      <use
         xlink:href="#symbol1688"
         x="127.0123"
         y="81.962997"
         id="use5716"
         width="100%"
         height="100%" />
      <use
         xlink:href="#symbol8257"
         x="131.99361"
         y="81.962997"
         id="use5249"
         width="100%"
         height="100%" />
    </g>
  </g>
</svg>
