<?xml version="1.0" encoding="UTF-8" standalone="no"?>
<svg
   xmlns:dc="http://purl.org/dc/elements/1.1/"
   xmlns:cc="http://creativecommons.org/ns#"
   xmlns:rdf="http://www.w3.org/1999/02/22-rdf-syntax-ns#"
   xmlns:svg="http://www.w3.org/2000/svg"
   xmlns="http://www.w3.org/2000/svg"
   xmlns:xlink="http://www.w3.org/1999/xlink"
   xmlns:sodipodi="http://sodipodi.sourceforge.net/DTD/sodipodi-0.dtd"
   xmlns:inkscape="http://www.inkscape.org/namespaces/inkscape"
   width="102.65mm"
   height="23.445mm"
   version="1.1"
   viewBox="0 0 102.65 23.445"
   id="svg46"
   sodipodi:docname="airfoil_deflected_arc_deltad.svg"
   inkscape:version="1.0.2 (e86c870879, 2021-01-15)">
  <sodipodi:namedview
     pagecolor="#ffffff"
     bordercolor="#666666"
     borderopacity="1"
     objecttolerance="10"
     gridtolerance="10"
     guidetolerance="10"
     inkscape:pageopacity="0"
     inkscape:pageshadow="2"
     inkscape:window-width="2560"
     inkscape:window-height="1376"
     id="namedview48"
     showgrid="false"
     inkscape:zoom="3.0827244"
     inkscape:cx="230.25483"
     inkscape:cy="58.506711"
     inkscape:window-x="0"
     inkscape:window-y="27"
     inkscape:window-maximized="1"
     inkscape:current-layer="svg46" />
  <defs
     id="defs20">
    <clipPath
       id="pf479f2286a">
      <rect
         x="57.6"
         y="113.5"
         width="357.12"
         height="122.06"
         id="rect2" />
    </clipPath>
    <marker
       id="Arrow1Lstart"
       overflow="visible"
       orient="auto">
      <path
         transform="matrix(.8 0 0 .8 10 0)"
         d="m0 0 5-5-17.5 5 17.5 5z"
         fill-rule="evenodd"
         stroke="#000"
         stroke-width="1pt"
         id="path5" />
    </marker>
    <marker
       id="Arrow1Lend"
       overflow="visible"
       orient="auto">
      <path
         transform="matrix(-.8 0 0 -.8 -10 0)"
         d="m0 0 5-5-17.5 5 17.5 5z"
         fill-rule="evenodd"
         stroke="#000"
         stroke-width="1pt"
         id="path8" />
    </marker>
    <symbol
       id="symbol546"
       overflow="visible">
      <path
         d="m2.625-4.3594c-1.2344 0.29688-2.2031 1.5938-2.2031 2.7969 0 0.96875 0.64062 1.6875 1.5781 1.6875 1.1562 0 1.9844-1.5781 1.9844-2.9531 0-0.90625-0.39062-1.4062-0.73438-1.8438-0.35938-0.45312-0.95312-1.2031-0.95312-1.6406 0-0.21875 0.20312-0.45312 0.54688-0.45312 0.3125 0 0.5 0.125 0.71875 0.26562 0.20312 0.125 0.39062 0.25 0.54688 0.25 0.25 0 0.39062-0.23438 0.39062-0.40625 0-0.21875-0.15625-0.23438-0.51562-0.32812-0.51562-0.10938-0.65625-0.10938-0.8125-0.10938-0.78125 0-1.1406 0.4375-1.1406 1.0312 0 0.54688 0.29688 1.0938 0.59375 1.7031zm0.125 0.21875c0.25 0.46875 0.54688 1 0.54688 1.7188 0 0.65625-0.375 2.3281-1.2969 2.3281-0.54688 0-0.96875-0.42188-0.96875-1.1875 0-0.625 0.375-2.5 1.7188-2.8594z"
         id="path11" />
    </symbol>
    <symbol
       id="symbol9091"
       overflow="visible">
      <path
         d="m3.9844-4.625c0-0.015625 0.015625-0.10938 0.015625-0.10938 0-0.046875-0.015625-0.10938-0.10938-0.10938-0.14062 0-0.71875 0.0625-0.89062 0.078125-0.046875 0-0.15625 0.015625-0.15625 0.15625 0 0.09375 0.10938 0.09375 0.1875 0.09375 0.32812 0 0.32812 0.0625 0.32812 0.10938s0 0.09375-0.015625 0.15625l-0.40625 1.5938c-0.14062-0.23438-0.375-0.42188-0.71875-0.42188-0.89062 0-1.7969 0.98438-1.7969 1.9844 0 0.6875 0.45312 1.1562 1.0625 1.1562 0.375 0 0.70312-0.20312 0.98438-0.48438 0.125 0.42188 0.53125 0.48438 0.71875 0.48438 0.25 0 0.42188-0.14062 0.54688-0.35938 0.15625-0.28125 0.25-0.67188 0.25-0.70312 0-0.09375-0.09375-0.09375-0.10938-0.09375-0.10938 0-0.10938 0.03125-0.15625 0.21875-0.09375 0.34375-0.21875 0.75-0.51562 0.75-0.17188 0-0.23438-0.15625-0.23438-0.34375 0-0.125 0.015625-0.1875 0.046875-0.28125zm-1.4844 3.75c-0.046875 0.20312-0.20312 0.34375-0.35938 0.46875-0.0625 0.0625-0.34375 0.28125-0.64062 0.28125-0.26562 0-0.51562-0.1875-0.51562-0.67188 0-0.375 0.20312-1.1406 0.375-1.4219 0.3125-0.5625 0.67188-0.65625 0.85938-0.65625 0.48438 0 0.625 0.53125 0.625 0.60938 0 0.015625-0.015625 0.078125-0.015625 0.09375z"
         id="path14" />
    </symbol>
    <clipPath
       id="pf479f2286a-3">
      <rect
         x="57.6"
         y="113.5"
         width="357.12"
         height="122.06"
         id="rect17" />
    </clipPath>
  </defs>
  <metadata
     id="metadata22">
    <rdf:RDF>
      <cc:Work
         rdf:about="">
        <dc:format>image/svg+xml</dc:format>
        <dc:type
           rdf:resource="http://purl.org/dc/dcmitype/StillImage" />
        <dc:title />
      </cc:Work>
    </rdf:RDF>
  </metadata>
  <path
     transform="matrix(0.34044,0,0,0.34034,-29.61,-47.73)"
     d="m 87.36,173.18 h 297.6"
     clip-path="url(#pf479f2286a)"
     stroke="#999999"
     stroke-dasharray="2.33189, 0.777297"
     id="path24"
     style="fill:none;stroke-width:0.77729468;stroke-linejoin:round;stroke-miterlimit:4;stroke-dasharray:4.66376809,0.77729468;stroke-dashoffset:0" />
  <path
     transform="matrix(0.34044,0,0,0.34034,-29.61,-47.73)"
     d="m 87.36,173.3 c 0.04653,-4.8124 2.9873,-9.0035 6.2457,-12.303 4.9763,-4.9939 11.192,-8.5637 17.606,-11.385 7.6468,-3.2804 15.747,-5.3952 23.943,-6.7586 11.038,-1.817 22.25,-2.2769 33.422,-2.208 11.776,0.089 23.543,0.70979 35.281,1.641 16.775,1.3199 33.49,3.3174 50.151,5.6535 14.05,2.0087 28.071,4.2195 42.044,6.7059 5.5742,0.99667 11.176,1.8813 16.703,3.1114 9.3508,2.1601 18.127,6.6937 25.361,12.993 5.4368,4.714 9.9196,10.468 13.36,16.779 3.8577,6.8118 7.4102,13.796 10.688,20.905"
     clip-path="url(#pf479f2286a)"
     stroke="#0000ff"
     stroke-linecap="square"
     id="path26"
     style="fill:none;stroke-width:0.7773;stroke-linejoin:round" />
  <path
     transform="matrix(0.34044,0,0,0.34034,-29.61,-47.73)"
     d="m 87.36,173.3 c -0.01138,3.2192 1.8535,6.1505 4.4141,7.9928 4.1398,2.9349 9.1058,4.3871 13.981,5.5783 8.5717,2.0554 17.335,3.1586 26.076,4.2168 11.68,1.2921 23.394,2.3168 35.134,2.8633 10.358,0.53064 20.734,0.6243 31.102,0.47182 12.594,-0.1945 25.178,-0.80466 37.744,-1.6564 13.37,-0.90489 26.716,-2.1311 40.044,-3.5221 11.894,-1.2719 23.768,-2.7273 35.63,-4.2655 5.1182,-0.59224 10.227,-1.5817 15.402,-1.3003 7.5677,0.26415 15.12,2.6568 21.201,7.2251 6.1249,4.5081 10.674,10.793 14.077,17.53"
     clip-path="url(#pf479f2286a)"
     stroke="#ff0000"
     stroke-linecap="square"
     id="path28"
     style="fill:none;stroke-width:0.7773;stroke-linejoin:round" />
  <use
     x="91.925003"
     y="81.962997"
     width="100%"
     height="100%"
     xlink:href="#symbol546"
     id="use32"
     transform="matrix(0.5,0,0,0.5,52.47,-22.34)" />
  <use
     x="96.352997"
     y="83.457001"
     width="100%"
     height="100%"
     xlink:href="#symbol9091"
     id="use34"
     transform="matrix(0.5,0,0,0.5,52.47,-22.34)" />
  <path
     d="M 95.75,11.83 V 22.692"
     fill="none"
     marker-end="url(#Arrow1Lend)"
     marker-start="url(#Arrow1Lstart)"
     stroke="#000000"
     stroke-width="0.25306"
     id="path40" />
  <path
     transform="matrix(0.34044,0,0,0.34034,-26.17,-35.63)"
     d="m 347.66,173.18 h 27.188"
     clip-path="url(#pf479f2286a-3)"
     fill="none"
     stroke="#999999"
     stroke-dasharray="2.33189, 0.777297"
     stroke-linejoin="round"
     stroke-width="0.7773"
     id="path42"
     style="stroke-width:0.77729468;stroke-miterlimit:4;stroke-dasharray:4.66376809,0.77729468;stroke-dashoffset:0" />
</svg>
