<?xml version="1.0" encoding="UTF-8" standalone="no"?>
<svg
   xmlns:dc="http://purl.org/dc/elements/1.1/"
   xmlns:cc="http://creativecommons.org/ns#"
   xmlns:rdf="http://www.w3.org/1999/02/22-rdf-syntax-ns#"
   xmlns:svg="http://www.w3.org/2000/svg"
   xmlns="http://www.w3.org/2000/svg"
   xmlns:xlink="http://www.w3.org/1999/xlink"
   width="105.57695mm"
   height="25.533411mm"
   viewBox="0 0 105.57695 25.533411"
   version="1.1"
   id="svg1055">
  <defs
     id="defs1049">
    <clipPath
       id="p85f3fb530a">
      <rect
         id="rect389"
         y="108.84624"
         x="57.599998"
         width="357.12"
         height="131.36351" />
    </clipPath>
    <marker
       style="overflow:visible"
       id="Arrow1Lstart"
       refX="0"
       refY="0"
       orient="auto">
      <path
         transform="matrix(0.8,0,0,0.8,10,0)"
         style="fill:#000000;fill-opacity:1;fill-rule:evenodd;stroke:#000000;stroke-width:1pt;stroke-opacity:1"
         d="M 0,0 5,-5 -12.5,0 5,5 Z"
         id="path1861" />
    </marker>
    <marker
       style="overflow:visible"
       id="Arrow1Lend"
       refX="0"
       refY="0"
       orient="auto">
      <path
         transform="matrix(-0.8,0,0,-0.8,-10,0)"
         style="fill:#000000;fill-opacity:1;fill-rule:evenodd;stroke:#000000;stroke-width:1pt;stroke-opacity:1"
         d="M 0,0 5,-5 -12.5,0 5,5 Z"
         id="path1864" />
    </marker>
    <g
       id="g725">
      <symbol
         id="symbol4294"
         overflow="visible">
        <path
           id="path2479"
           d=""
           style="stroke:none" />
      </symbol>
      <symbol
         id="symbol7520"
         overflow="visible">
        <path
           id="path2521"
           d="M 2.625,-4.359375 C 1.390625,-4.0625 0.421875,-2.765625 0.421875,-1.5625 0.421875,-0.59375 1.0625,0.125 2,0.125 c 1.15625,0 1.984375,-1.578125 1.984375,-2.953125 0,-0.90625 -0.390625,-1.40625 -0.734375,-1.84375 C 2.890625,-5.125 2.296875,-5.875 2.296875,-6.3125 c 0,-0.21875 0.203125,-0.453125 0.546875,-0.453125 0.3125,0 0.5,0.125 0.71875,0.265625 0.203125,0.125 0.390625,0.25 0.546875,0.25 C 4.359375,-6.25 4.5,-6.484375 4.5,-6.65625 4.5,-6.875 4.34375,-6.890625 3.984375,-6.984375 3.46875,-7.09375 3.328125,-7.09375 3.171875,-7.09375 c -0.78125,0 -1.140625,0.4375 -1.140625,1.03125 0,0.546875 0.296875,1.09375 0.59375,1.703125 z m 0.125,0.21875 c 0.25,0.46875 0.546875,1 0.546875,1.71875 0,0.65625 -0.375,2.328125 -1.296875,2.328125 -0.546875,0 -0.96875,-0.421875 -0.96875,-1.1875 0,-0.625 0.375,-2.5 1.71875,-2.859375 z m 0,0"
           style="stroke:none" />
      </symbol>
      <symbol
         id="symbol1950"
         overflow="visible">
        <path
           id="path934"
           d=""
           style="stroke:none" />
      </symbol>
      <symbol
         id="symbol6813"
         overflow="visible">
        <path
           id="path6987"
           d="M 2.84375,-2.75 H 3.515625 C 3.65625,-2.75 3.75,-2.75 3.75,-2.90625 3.75,-3 3.65625,-3 3.53125,-3 H 2.890625 c 0.15625,-0.890625 0.203125,-1.203125 0.265625,-1.40625 0.03125,-0.15625 0.1875,-0.296875 0.359375,-0.296875 0,0 0.1875,0 0.328125,0.078125 -0.296875,0.09375 -0.3125,0.34375 -0.3125,0.375 0,0.15625 0.125,0.265625 0.28125,0.265625 0.1875,0 0.390625,-0.15625 0.390625,-0.421875 0,-0.328125 -0.328125,-0.5 -0.6875,-0.5 -0.3125,0 -0.65625,0.171875 -0.84375,0.515625 C 2.53125,-4.125 2.484375,-3.8125 2.328125,-3 H 1.78125 c -0.140625,0 -0.234375,0 -0.234375,0.15625 0,0.09375 0.09375,0.09375 0.21875,0.09375 H 2.28125 c 0,0.046875 -0.4375,2.546875 -0.609375,3.296875 -0.03125,0.15625 -0.15625,0.671875 -0.484375,0.671875 -0.015625,0 -0.171875,0 -0.3125,-0.078125 0.28125,-0.09375 0.3125,-0.34375 0.3125,-0.375 C 1.1875,0.609375 1.0625,0.5 0.90625,0.5 c -0.1875,0 -0.390625,0.15625 -0.390625,0.421875 0,0.3125 0.328125,0.5 0.671875,0.5 0.4375,0 0.75,-0.453125 0.828125,-0.609375 0.25,-0.46875 0.421875,-1.328125 0.4375,-1.40625 z m 0,0"
           style="stroke:none" />
      </symbol>
    </g>
  </defs>
  <metadata
     id="metadata1052">
    <rdf:RDF>
      <cc:Work
         rdf:about="">
        <dc:format>image/svg+xml</dc:format>
        <dc:type
           rdf:resource="http://purl.org/dc/dcmitype/StillImage" />
        <dc:title></dc:title>
      </cc:Work>
    </rdf:RDF>
  </metadata>
  <g
     transform="translate(-39.89229,-107.29632)"
     id="layer1">
    <path
       id="path1853"
       d="m 118.64331,117.93519 c 4.37939,3.89899 13.07807,10.88789 17.4497,14.79565"
       style="fill:none;stroke:#999999;stroke-width:0.26499999;stroke-linecap:butt;stroke-linejoin:round;stroke-dasharray:1.58999992,0.26499999;stroke-dashoffset:0;stroke-miterlimit:4" />
    <path
       transform="matrix(0.32507142,0,0,0.32488537,11.628866,62.576781)"
       d="m 87.36,170.4923 c 0.09361,-4.93461 3.213601,-9.14368 6.552228,-12.51019 5.936045,-5.709 13.357572,-9.60839 21.001682,-12.51915 8.81775,-3.27541 18.09413,-5.16494 27.42483,-6.2275 13.65452,-1.52536 27.42918,-1.32501 41.13593,-0.77475 14.74003,0.66254 29.446,1.94855 44.10592,3.60502 15.0822,1.7355 30.12411,3.81582 45.11695,6.2035 14.48055,2.25772 28.91238,4.82079 43.31613,7.52243 5.91055,1.26605 11.99289,1.9677 17.66145,4.15513 3.20592,1.24909 6.16504,3.15013 8.43605,5.75453 2.35746,2.48218 4.29565,5.33563 6.47922,7.9718 9.53778,12.00231 18.8538,24.17896 28.01766,36.46875 0.21855,0.29185 0.43919,0.58212 0.655,0.87601"
       style="fill:none;stroke:#0000ff;stroke-width:0.814157;stroke-linecap:square;stroke-linejoin:round"
       clip-path="url(#p85f3fb530a)"
       id="path211" />
    <path
       transform="matrix(0.32507142,0,0,0.32488537,11.628866,62.576781)"
       d="m 87.36,170.4923 c -0.05409,3.32747 1.899245,6.36492 4.578179,8.21777 4.280739,2.97318 9.404661,4.39101 14.415011,5.59321 9.32212,2.13841 18.83618,3.28462 28.33078,4.3448 11.50788,1.20981 23.04922,2.13163 34.61113,2.61393 12.89177,0.5415 25.80281,0.50388 38.69736,0.07 15.03059,-0.49132 30.04005,-1.50788 45.0231,-2.78376 14.66299,-1.29864 29.30472,-2.83121 43.91479,-4.63117 8.30349,-1.00194 16.59775,-2.09434 24.87954,-3.25841 1.40204,-0.20617 2.87137,-0.56435 4.26424,-0.32395 1.8778,1.10842 3.50327,2.57923 5.44136,3.59819 12.92676,7.952 25.94287,15.76054 39.12287,23.28643 2.20791,1.26674 4.40597,2.55075 6.62469,3.79855"
       style="fill:none;stroke:#ff0000;stroke-width:0.814157;stroke-linecap:square;stroke-linejoin:round"
       clip-path="url(#p85f3fb530a)"
       id="path214" />
    <path
       transform="matrix(0.3409283,0,0,0.34073317,10.243608,59.874853)"
       clip-path="url(#p85f3fb530a)"
       d="m 87.36,170.4923 h 297.6"
       style="fill:none;stroke:#999999;stroke-width:0.77751203;stroke-linecap:butt;stroke-linejoin:round;stroke-miterlimit:4;stroke-dasharray:4.66507221,0.77751203;stroke-dashoffset:0"
       id="path220" />
    <path
       d="m 140.44905,118.20564 c -0.6454,6.26272 -1.67772,8.9434 -5.0097,13.63044"
       style="fill:none;stroke:#000000;stroke-width:0.264583;stroke-linecap:butt;stroke-linejoin:round;stroke-miterlimit:4;stroke-dasharray:none;stroke-dashoffset:0;marker-start:url(#Arrow1Lstart);marker-end:url(#Arrow1Lend);stop-color:#000000"
       id="path1859" />
    <g
       style="stroke-width:2"
       transform="matrix(0.5,0,0,0.5,95.191181,86.996686)"
       id="g2124">
      <g
         style="stroke-width:2"
         id="g5146">
        <g
           id="g519"
           style="fill:#000000;fill-opacity:1;stroke-width:2">
          <use
             style="stroke-width:2"
             height="100%"
             width="100%"
             id="use8562"
             y="81.962997"
             x="91.925003"
             xlink:href="#symbol7520" />
        </g>
        <g
           id="g5676"
           style="fill:#000000;fill-opacity:1;stroke-width:2">
          <use
             style="stroke-width:2"
             height="100%"
             width="100%"
             id="use3523"
             y="83.457001"
             x="96.352997"
             xlink:href="#symbol6813" />
        </g>
      </g>
    </g>
  </g>
</svg>
