<?xml version="1.0" encoding="utf-8" standalone="no"?>
<!DOCTYPE svg PUBLIC "-//W3C//DTD SVG 1.1//EN"
  "http://www.w3.org/Graphics/SVG/1.1/DTD/svg11.dtd">
<svg xmlns:xlink="http://www.w3.org/1999/xlink" width="576pt" height="288pt" viewBox="0 0 576 288" xmlns="http://www.w3.org/2000/svg" version="1.1">
 <metadata>
  <rdf:RDF xmlns:dc="http://purl.org/dc/elements/1.1/" xmlns:cc="http://creativecommons.org/ns#" xmlns:rdf="http://www.w3.org/1999/02/22-rdf-syntax-ns#">
   <cc:Work>
    <dc:type rdf:resource="http://purl.org/dc/dcmitype/StillImage"/>
    <dc:date>2022-03-07T11:34:45.937127</dc:date>
    <dc:format>image/svg+xml</dc:format>
    <dc:creator>
     <cc:Agent>
      <dc:title>Matplotlib v3.5.1, https://matplotlib.org/</dc:title>
     </cc:Agent>
    </dc:creator>
   </cc:Work>
  </rdf:RDF>
 </metadata>
 <defs>
  <style type="text/css">*{stroke-linejoin: round; stroke-linecap: butt}</style>
 </defs>
 <g id="figure_1">
  <g id="patch_1">
   <path d="M 0 288 
L 576 288 
L 576 0 
L 0 0 
z
" style="fill: #ffffff"/>
  </g>
  <g id="axes_1">
   <g id="patch_2">
    <path d="M 72 256.32 
L 518.4 256.32 
L 518.4 34.56 
L 72 34.56 
z
" style="fill: #ffffff"/>
   </g>
   <g id="PolyCollection_1">
    <path d="M 92.290909 246.597927 
L 92.290909 256.32 
L 95.759463 256.32 
L 99.395401 256.32 
L 103.257478 256.32 
L 107.346631 256.32 
L 111.676145 256.32 
L 116.185253 256.32 
L 120.795717 256.32 
L 125.633441 256.32 
L 130.657545 256.32 
L 135.894919 256.32 
L 141.275014 256.32 
L 146.781341 256.32 
L 152.536673 256.32 
L 158.469342 256.32 
L 164.585563 256.32 
L 170.770906 256.32 
L 176.956503 256.32 
L 183.154933 256.32 
L 189.387897 256.32 
L 195.634568 256.32 
L 201.743388 256.32 
L 207.81568 256.32 
L 213.586727 256.32 
L 219.026904 256.32 
L 224.178621 256.32 
L 228.496391 256.32 
L 232.372573 256.32 
L 235.920738 256.32 
L 239.06112 256.32 
L 241.885621 256.32 
L 247.224148 256.32 
L 252.763545 256.32 
L 258.487983 256.32 
L 264.39016 256.32 
L 270.44799 256.32 
L 276.676849 256.32 
L 283.099341 256.32 
L 289.749197 256.32 
L 296.627624 256.32 
L 303.733725 256.32 
L 311.066896 256.32 
L 318.63547 256.32 
L 326.453876 256.32 
L 334.529847 256.32 
L 342.865101 256.32 
L 351.459252 256.32 
L 360.314956 256.32 
L 369.42168 256.32 
L 378.763728 256.32 
L 388.348188 256.32 
L 398.183253 256.32 
L 408.28038 256.32 
L 418.633658 256.32 
L 429.242003 256.32 
L 440.104844 256.32 
L 451.227231 256.32 
L 462.597777 256.32 
L 474.208436 256.32 
L 486.050278 256.32 
L 498.109091 256.32 
L 498.109091 217.677936 
L 498.109091 217.677936 
L 486.050278 218.85353 
L 474.208436 219.98758 
L 462.597777 221.080118 
L 451.227231 222.131678 
L 440.104844 223.142882 
L 429.242003 224.114054 
L 418.633658 225.046935 
L 408.28038 225.942717 
L 398.183253 226.802475 
L 388.348188 227.626866 
L 378.763728 228.417929 
L 369.42168 229.177345 
L 360.314956 229.906629 
L 351.459252 230.605474 
L 342.865101 231.274003 
L 334.529847 231.913332 
L 326.453876 232.524315 
L 318.63547 233.107915 
L 311.066896 233.665478 
L 303.733725 234.198801 
L 296.627624 234.70914 
L 289.749197 235.197086 
L 283.099341 235.663209 
L 276.676849 236.108177 
L 270.44799 236.534823 
L 264.39016 236.945113 
L 258.487983 237.340452 
L 252.763545 237.719775 
L 247.224148 238.082992 
L 241.885621 238.429436 
L 239.06112 238.61055 
L 235.920738 238.8106 
L 232.372573 239.035004 
L 228.496391 239.278229 
L 224.178621 239.546798 
L 219.026904 239.863854 
L 213.586727 240.195048 
L 207.81568 240.542175 
L 201.743388 240.902947 
L 195.634568 241.261182 
L 189.387897 241.622737 
L 183.154933 241.978442 
L 176.956503 242.327386 
L 170.770906 242.670838 
L 164.585563 243.009486 
L 158.469342 243.339703 
L 152.536673 243.655457 
L 146.781341 243.957488 
L 141.275014 244.242338 
L 135.894919 244.517014 
L 130.657545 244.78089 
L 125.633441 245.030347 
L 120.795717 245.267392 
L 116.185253 245.490294 
L 111.676145 245.705529 
L 107.346631 245.909364 
L 103.257478 246.099388 
L 99.395401 246.276656 
L 95.759463 246.442029 
L 92.290909 246.597927 
z
" clip-path="url(#pba54af4794)" style="fill: #1f77b4"/>
   </g>
   <g id="PolyCollection_2">
    <path d="M 92.290909 237.678594 
L 92.290909 246.597927 
L 95.759463 246.442029 
L 99.395401 246.276656 
L 103.257478 246.099388 
L 107.346631 245.909364 
L 111.676145 245.705529 
L 116.185253 245.490294 
L 120.795717 245.267392 
L 125.633441 245.030347 
L 130.657545 244.78089 
L 135.894919 244.517014 
L 141.275014 244.242338 
L 146.781341 243.957488 
L 152.536673 243.655457 
L 158.469342 243.339703 
L 164.585563 243.009486 
L 170.770906 242.670838 
L 176.956503 242.327386 
L 183.154933 241.978442 
L 189.387897 241.622737 
L 195.634568 241.261182 
L 201.743388 240.902947 
L 207.81568 240.542175 
L 213.586727 240.195048 
L 219.026904 239.863854 
L 224.178621 239.546798 
L 228.496391 239.278229 
L 232.372573 239.035004 
L 235.920738 238.8106 
L 239.06112 238.61055 
L 241.885621 238.429436 
L 247.224148 238.082992 
L 252.763545 237.719775 
L 258.487983 237.340452 
L 264.39016 236.945113 
L 270.44799 236.534823 
L 276.676849 236.108177 
L 283.099341 235.663209 
L 289.749197 235.197086 
L 296.627624 234.70914 
L 303.733725 234.198801 
L 311.066896 233.665478 
L 318.63547 233.107915 
L 326.453876 232.524315 
L 334.529847 231.913332 
L 342.865101 231.274003 
L 351.459252 230.605474 
L 360.314956 229.906629 
L 369.42168 229.177345 
L 378.763728 228.417929 
L 388.348188 227.626866 
L 398.183253 226.802475 
L 408.28038 225.942717 
L 418.633658 225.046935 
L 429.242003 224.114054 
L 440.104844 223.142882 
L 451.227231 222.131678 
L 462.597777 221.080118 
L 474.208436 219.98758 
L 486.050278 218.85353 
L 498.109091 217.677936 
L 498.109091 182.226502 
L 498.109091 182.226502 
L 486.050278 184.480622 
L 474.208436 186.655084 
L 462.597777 188.749951 
L 451.227231 190.766246 
L 440.104844 192.705159 
L 429.242003 194.567314 
L 418.633658 196.35605 
L 408.28038 198.07365 
L 398.183253 199.722178 
L 388.348188 201.30289 
L 378.763728 202.819698 
L 369.42168 204.275827 
L 360.314956 205.674178 
L 351.459252 207.014166 
L 342.865101 208.296024 
L 334.529847 209.521894 
L 326.453876 210.693412 
L 318.63547 211.812424 
L 311.066896 212.881513 
L 303.733725 213.904124 
L 296.627624 214.882663 
L 289.749197 215.818266 
L 283.099341 216.712025 
L 276.676849 217.56522 
L 270.44799 218.383285 
L 264.39016 219.169988 
L 258.487983 219.928022 
L 252.763545 220.655349 
L 247.224148 221.351791 
L 241.885621 222.016075 
L 239.06112 222.363347 
L 235.920738 222.74693 
L 232.372573 223.177209 
L 228.496391 223.643577 
L 224.178621 224.158539 
L 219.026904 224.766472 
L 213.586727 225.401515 
L 207.81568 226.067107 
L 201.743388 226.758862 
L 195.634568 227.445753 
L 189.387897 228.139009 
L 183.154933 228.821049 
L 176.956503 229.490125 
L 170.770906 230.148671 
L 164.585563 230.798005 
L 158.469342 231.431173 
L 152.536673 232.036611 
L 146.781341 232.615734 
L 141.275014 233.161914 
L 135.894919 233.688586 
L 130.657545 234.194551 
L 125.633441 234.672867 
L 120.795717 235.127385 
L 116.185253 235.554784 
L 111.676145 235.967483 
L 107.346631 236.358322 
L 103.257478 236.722679 
L 99.395401 237.062579 
L 95.759463 237.379671 
L 92.290909 237.678594 
z
" clip-path="url(#pba54af4794)" style="fill: #ff7f0e"/>
   </g>
   <g id="PolyCollection_3">
    <path d="M 92.290909 120.05877 
L 92.290909 237.678594 
L 95.759463 237.379671 
L 99.395401 237.062579 
L 103.257478 236.722679 
L 107.346631 236.358322 
L 111.676145 235.967483 
L 116.185253 235.554784 
L 120.795717 235.127385 
L 125.633441 234.672867 
L 130.657545 234.194551 
L 135.894919 233.688586 
L 141.275014 233.161914 
L 146.781341 232.615734 
L 152.536673 232.036611 
L 158.469342 231.431173 
L 164.585563 230.798005 
L 170.770906 230.148671 
L 176.956503 229.490125 
L 183.154933 228.821049 
L 189.387897 228.139009 
L 195.634568 227.445753 
L 201.743388 226.758862 
L 207.81568 226.067107 
L 213.586727 225.401515 
L 219.026904 224.766472 
L 224.178621 224.158539 
L 228.496391 223.643577 
L 232.372573 223.177209 
L 235.920738 222.74693 
L 239.06112 222.363347 
L 241.885621 222.016075 
L 247.224148 221.351791 
L 252.763545 220.655349 
L 258.487983 219.928022 
L 264.39016 219.169988 
L 270.44799 218.383285 
L 276.676849 217.56522 
L 283.099341 216.712025 
L 289.749197 215.818266 
L 296.627624 214.882663 
L 303.733725 213.904124 
L 311.066896 212.881513 
L 318.63547 211.812424 
L 326.453876 210.693412 
L 334.529847 209.521894 
L 342.865101 208.296024 
L 351.459252 207.014166 
L 360.314956 205.674178 
L 369.42168 204.275827 
L 378.763728 202.819698 
L 388.348188 201.30289 
L 398.183253 199.722178 
L 408.28038 198.07365 
L 418.633658 196.35605 
L 429.242003 194.567314 
L 440.104844 192.705159 
L 451.227231 190.766246 
L 462.597777 188.749951 
L 474.208436 186.655084 
L 486.050278 184.480622 
L 498.109091 182.226502 
L 498.109091 157.113549 
L 498.109091 157.113549 
L 486.050278 158.810424 
L 474.208436 160.40068 
L 462.597777 161.884812 
L 451.227231 163.264667 
L 440.104844 164.541813 
L 429.242003 165.717599 
L 418.633658 166.795184 
L 408.28038 167.77741 
L 398.183253 168.666409 
L 388.348188 169.464595 
L 378.763728 170.175873 
L 369.42168 170.803352 
L 360.314956 171.348883 
L 351.459252 171.814945 
L 342.865101 172.203648 
L 334.529847 172.517894 
L 326.453876 172.761259 
L 318.63547 172.936789 
L 311.066896 173.046991 
L 303.733725 173.096186 
L 296.627624 173.08684 
L 289.749197 173.021337 
L 283.099341 172.903268 
L 276.676849 172.735329 
L 270.44799 172.519626 
L 264.39016 172.257558 
L 258.487983 171.950166 
L 252.763545 171.600717 
L 247.224148 171.211559 
L 241.885621 170.787733 
L 239.06112 170.432799 
L 235.920738 169.936694 
L 232.372573 169.285123 
L 228.496391 168.479046 
L 224.178621 167.491313 
L 219.026904 166.214483 
L 213.586727 164.749628 
L 207.81568 163.143895 
L 201.743388 161.389759 
L 195.634568 159.587907 
L 189.387897 157.667146 
L 183.154933 155.684046 
L 176.956503 153.635643 
L 170.770906 151.533245 
L 164.585563 149.382907 
L 158.469342 147.187684 
L 152.536673 145.004094 
L 146.781341 142.809049 
L 141.275014 140.690502 
L 135.894919 138.60053 
L 130.657545 136.502859 
L 125.633441 134.440758 
L 120.795717 132.401402 
L 116.185253 130.433273 
L 111.676145 128.4942 
L 107.346631 126.589277 
L 103.257478 124.77468 
L 99.395401 123.072118 
L 95.759463 121.548607 
L 92.290909 120.05877 
z
" clip-path="url(#pba54af4794)" style="fill: #2ca02c"/>
   </g>
   <g id="PolyCollection_4">
    <path d="M 92.290909 62.813393 
L 92.290909 120.05877 
L 95.759463 121.548607 
L 99.395401 123.072118 
L 103.257478 124.77468 
L 107.346631 126.589277 
L 111.676145 128.4942 
L 116.185253 130.433273 
L 120.795717 132.401402 
L 125.633441 134.440758 
L 130.657545 136.502859 
L 135.894919 138.60053 
L 141.275014 140.690502 
L 146.781341 142.809049 
L 152.536673 145.004094 
L 158.469342 147.187684 
L 164.585563 149.382907 
L 170.770906 151.533245 
L 176.956503 153.635643 
L 183.154933 155.684046 
L 189.387897 157.667146 
L 195.634568 159.587907 
L 201.743388 161.389759 
L 207.81568 163.143895 
L 213.586727 164.749628 
L 219.026904 166.214483 
L 224.178621 167.491313 
L 228.496391 168.479046 
L 232.372573 169.285123 
L 235.920738 169.936694 
L 239.06112 170.432799 
L 241.885621 170.787733 
L 247.224148 171.211559 
L 252.763545 171.600717 
L 258.487983 171.950166 
L 264.39016 172.257558 
L 270.44799 172.519626 
L 276.676849 172.735329 
L 283.099341 172.903268 
L 289.749197 173.021337 
L 296.627624 173.08684 
L 303.733725 173.096186 
L 311.066896 173.046991 
L 318.63547 172.936789 
L 326.453876 172.761259 
L 334.529847 172.517894 
L 342.865101 172.203648 
L 351.459252 171.814945 
L 360.314956 171.348883 
L 369.42168 170.803352 
L 378.763728 170.175873 
L 388.348188 169.464595 
L 398.183253 168.666409 
L 408.28038 167.77741 
L 418.633658 166.795184 
L 429.242003 165.717599 
L 440.104844 164.541813 
L 451.227231 163.264667 
L 462.597777 161.884812 
L 474.208436 160.40068 
L 486.050278 158.810424 
L 498.109091 157.113549 
L 498.109091 93.237311 
L 498.109091 93.237311 
L 486.050278 96.804114 
L 474.208436 100.201278 
L 462.597777 103.42935 
L 451.227231 106.488882 
L 440.104844 109.382219 
L 429.242003 112.112682 
L 418.633658 114.684471 
L 408.28038 117.102239 
L 398.183253 119.367274 
L 388.348188 121.483157 
L 378.763728 123.453569 
L 369.42168 125.282219 
L 360.314956 126.971537 
L 351.459252 128.526315 
L 342.865101 129.952388 
L 334.529847 131.25451 
L 326.453876 132.439765 
L 318.63547 133.513075 
L 311.066896 134.476501 
L 303.733725 135.338297 
L 296.627624 136.100161 
L 289.749197 136.767428 
L 283.099341 137.351133 
L 276.676849 137.856295 
L 270.44799 138.283878 
L 264.39016 138.633762 
L 258.487983 138.9051 
L 252.763545 139.111645 
L 247.224148 139.256626 
L 241.885621 139.335443 
L 239.06112 139.122565 
L 235.920738 138.811371 
L 232.372573 138.377144 
L 228.496391 137.813993 
L 224.178621 137.074263 
L 219.026904 135.993465 
L 213.586727 134.733834 
L 207.81568 133.211722 
L 201.743388 131.464825 
L 195.634568 129.527522 
L 189.387897 127.394198 
L 183.154933 125.022796 
L 176.956503 122.492292 
L 170.770906 119.789183 
L 164.585563 116.896339 
L 158.469342 113.866396 
L 152.536673 110.716187 
L 146.781341 107.457821 
L 141.275014 104.095627 
L 135.894919 100.658299 
L 130.657545 97.147743 
L 125.633441 93.483093 
L 120.795717 89.761395 
L 116.185253 85.994079 
L 111.676145 82.12526 
L 107.346631 78.153319 
L 103.257478 74.186974 
L 99.395401 70.256887 
L 95.759463 66.539032 
L 92.290909 62.813393 
z
" clip-path="url(#pba54af4794)" style="fill: #d62728"/>
   </g>
   <g id="matplotlib.axis_1">
    <g id="xtick_1">
     <g id="line2d_1">
      <defs>
       <path id="m2689c61542" d="M 0 0 
L 0 3.5 
" style="stroke: #000000; stroke-width: 0.8"/>
      </defs>
      <g>
       <use xlink:href="#m2689c61542" x="97.327699" y="256.32" style="stroke: #000000; stroke-width: 0.8"/>
      </g>
     </g>
     <g id="text_1">
      <!-- 7 -->
      <g transform="translate(94.146449 270.918437)scale(0.1 -0.1)">
       <defs>
        <path id="DejaVuSans-37" d="M 525 4666 
L 3525 4666 
L 3525 4397 
L 1831 0 
L 1172 0 
L 2766 4134 
L 525 4134 
L 525 4666 
z
" transform="scale(0.015625)"/>
       </defs>
       <use xlink:href="#DejaVuSans-37"/>
      </g>
     </g>
    </g>
    <g id="xtick_2">
     <g id="line2d_2">
      <g>
       <use xlink:href="#m2689c61542" x="155.883662" y="256.32" style="stroke: #000000; stroke-width: 0.8"/>
      </g>
     </g>
     <g id="text_2">
      <!-- 8 -->
      <g transform="translate(152.702412 270.918437)scale(0.1 -0.1)">
       <defs>
        <path id="DejaVuSans-38" d="M 2034 2216 
Q 1584 2216 1326 1975 
Q 1069 1734 1069 1313 
Q 1069 891 1326 650 
Q 1584 409 2034 409 
Q 2484 409 2743 651 
Q 3003 894 3003 1313 
Q 3003 1734 2745 1975 
Q 2488 2216 2034 2216 
z
M 1403 2484 
Q 997 2584 770 2862 
Q 544 3141 544 3541 
Q 544 4100 942 4425 
Q 1341 4750 2034 4750 
Q 2731 4750 3128 4425 
Q 3525 4100 3525 3541 
Q 3525 3141 3298 2862 
Q 3072 2584 2669 2484 
Q 3125 2378 3379 2068 
Q 3634 1759 3634 1313 
Q 3634 634 3220 271 
Q 2806 -91 2034 -91 
Q 1263 -91 848 271 
Q 434 634 434 1313 
Q 434 1759 690 2068 
Q 947 2378 1403 2484 
z
M 1172 3481 
Q 1172 3119 1398 2916 
Q 1625 2713 2034 2713 
Q 2441 2713 2670 2916 
Q 2900 3119 2900 3481 
Q 2900 3844 2670 4047 
Q 2441 4250 2034 4250 
Q 1625 4250 1398 4047 
Q 1172 3844 1172 3481 
z
" transform="scale(0.015625)"/>
       </defs>
       <use xlink:href="#DejaVuSans-38"/>
      </g>
     </g>
    </g>
    <g id="xtick_3">
     <g id="line2d_3">
      <g>
       <use xlink:href="#m2689c61542" x="214.439625" y="256.32" style="stroke: #000000; stroke-width: 0.8"/>
      </g>
     </g>
     <g id="text_3">
      <!-- 9 -->
      <g transform="translate(211.258375 270.918437)scale(0.1 -0.1)">
       <defs>
        <path id="DejaVuSans-39" d="M 703 97 
L 703 672 
Q 941 559 1184 500 
Q 1428 441 1663 441 
Q 2288 441 2617 861 
Q 2947 1281 2994 2138 
Q 2813 1869 2534 1725 
Q 2256 1581 1919 1581 
Q 1219 1581 811 2004 
Q 403 2428 403 3163 
Q 403 3881 828 4315 
Q 1253 4750 1959 4750 
Q 2769 4750 3195 4129 
Q 3622 3509 3622 2328 
Q 3622 1225 3098 567 
Q 2575 -91 1691 -91 
Q 1453 -91 1209 -44 
Q 966 3 703 97 
z
M 1959 2075 
Q 2384 2075 2632 2365 
Q 2881 2656 2881 3163 
Q 2881 3666 2632 3958 
Q 2384 4250 1959 4250 
Q 1534 4250 1286 3958 
Q 1038 3666 1038 3163 
Q 1038 2656 1286 2365 
Q 1534 2075 1959 2075 
z
" transform="scale(0.015625)"/>
       </defs>
       <use xlink:href="#DejaVuSans-39"/>
      </g>
     </g>
    </g>
    <g id="xtick_4">
     <g id="line2d_4">
      <g>
       <use xlink:href="#m2689c61542" x="272.995587" y="256.32" style="stroke: #000000; stroke-width: 0.8"/>
      </g>
     </g>
     <g id="text_4">
      <!-- 10 -->
      <g transform="translate(266.633087 270.918437)scale(0.1 -0.1)">
       <defs>
        <path id="DejaVuSans-31" d="M 794 531 
L 1825 531 
L 1825 4091 
L 703 3866 
L 703 4441 
L 1819 4666 
L 2450 4666 
L 2450 531 
L 3481 531 
L 3481 0 
L 794 0 
L 794 531 
z
" transform="scale(0.015625)"/>
        <path id="DejaVuSans-30" d="M 2034 4250 
Q 1547 4250 1301 3770 
Q 1056 3291 1056 2328 
Q 1056 1369 1301 889 
Q 1547 409 2034 409 
Q 2525 409 2770 889 
Q 3016 1369 3016 2328 
Q 3016 3291 2770 3770 
Q 2525 4250 2034 4250 
z
M 2034 4750 
Q 2819 4750 3233 4129 
Q 3647 3509 3647 2328 
Q 3647 1150 3233 529 
Q 2819 -91 2034 -91 
Q 1250 -91 836 529 
Q 422 1150 422 2328 
Q 422 3509 836 4129 
Q 1250 4750 2034 4750 
z
" transform="scale(0.015625)"/>
       </defs>
       <use xlink:href="#DejaVuSans-31"/>
       <use xlink:href="#DejaVuSans-30" x="63.623047"/>
      </g>
     </g>
    </g>
    <g id="xtick_5">
     <g id="line2d_5">
      <g>
       <use xlink:href="#m2689c61542" x="331.55155" y="256.32" style="stroke: #000000; stroke-width: 0.8"/>
      </g>
     </g>
     <g id="text_5">
      <!-- 11 -->
      <g transform="translate(325.18905 270.918437)scale(0.1 -0.1)">
       <use xlink:href="#DejaVuSans-31"/>
       <use xlink:href="#DejaVuSans-31" x="63.623047"/>
      </g>
     </g>
    </g>
    <g id="xtick_6">
     <g id="line2d_6">
      <g>
       <use xlink:href="#m2689c61542" x="390.107512" y="256.32" style="stroke: #000000; stroke-width: 0.8"/>
      </g>
     </g>
     <g id="text_6">
      <!-- 12 -->
      <g transform="translate(383.745012 270.918437)scale(0.1 -0.1)">
       <defs>
        <path id="DejaVuSans-32" d="M 1228 531 
L 3431 531 
L 3431 0 
L 469 0 
L 469 531 
Q 828 903 1448 1529 
Q 2069 2156 2228 2338 
Q 2531 2678 2651 2914 
Q 2772 3150 2772 3378 
Q 2772 3750 2511 3984 
Q 2250 4219 1831 4219 
Q 1534 4219 1204 4116 
Q 875 4013 500 3803 
L 500 4441 
Q 881 4594 1212 4672 
Q 1544 4750 1819 4750 
Q 2544 4750 2975 4387 
Q 3406 4025 3406 3419 
Q 3406 3131 3298 2873 
Q 3191 2616 2906 2266 
Q 2828 2175 2409 1742 
Q 1991 1309 1228 531 
z
" transform="scale(0.015625)"/>
       </defs>
       <use xlink:href="#DejaVuSans-31"/>
       <use xlink:href="#DejaVuSans-32" x="63.623047"/>
      </g>
     </g>
    </g>
    <g id="xtick_7">
     <g id="line2d_7">
      <g>
       <use xlink:href="#m2689c61542" x="448.663475" y="256.32" style="stroke: #000000; stroke-width: 0.8"/>
      </g>
     </g>
     <g id="text_7">
      <!-- 13 -->
      <g transform="translate(442.300975 270.918437)scale(0.1 -0.1)">
       <defs>
        <path id="DejaVuSans-33" d="M 2597 2516 
Q 3050 2419 3304 2112 
Q 3559 1806 3559 1356 
Q 3559 666 3084 287 
Q 2609 -91 1734 -91 
Q 1441 -91 1130 -33 
Q 819 25 488 141 
L 488 750 
Q 750 597 1062 519 
Q 1375 441 1716 441 
Q 2309 441 2620 675 
Q 2931 909 2931 1356 
Q 2931 1769 2642 2001 
Q 2353 2234 1838 2234 
L 1294 2234 
L 1294 2753 
L 1863 2753 
Q 2328 2753 2575 2939 
Q 2822 3125 2822 3475 
Q 2822 3834 2567 4026 
Q 2313 4219 1838 4219 
Q 1578 4219 1281 4162 
Q 984 4106 628 3988 
L 628 4550 
Q 988 4650 1302 4700 
Q 1616 4750 1894 4750 
Q 2613 4750 3031 4423 
Q 3450 4097 3450 3541 
Q 3450 3153 3228 2886 
Q 3006 2619 2597 2516 
z
" transform="scale(0.015625)"/>
       </defs>
       <use xlink:href="#DejaVuSans-31"/>
       <use xlink:href="#DejaVuSans-33" x="63.623047"/>
      </g>
     </g>
    </g>
    <g id="xtick_8">
     <g id="line2d_8">
      <g>
       <use xlink:href="#m2689c61542" x="507.219438" y="256.32" style="stroke: #000000; stroke-width: 0.8"/>
      </g>
     </g>
     <g id="text_8">
      <!-- 14 -->
      <g transform="translate(500.856938 270.918437)scale(0.1 -0.1)">
       <defs>
        <path id="DejaVuSans-34" d="M 2419 4116 
L 825 1625 
L 2419 1625 
L 2419 4116 
z
M 2253 4666 
L 3047 4666 
L 3047 1625 
L 3713 1625 
L 3713 1100 
L 3047 1100 
L 3047 0 
L 2419 0 
L 2419 1100 
L 313 1100 
L 313 1709 
L 2253 4666 
z
" transform="scale(0.015625)"/>
       </defs>
       <use xlink:href="#DejaVuSans-31"/>
       <use xlink:href="#DejaVuSans-34" x="63.623047"/>
      </g>
     </g>
    </g>
    <g id="text_9">
     <!-- Groundspeed [m/s] -->
     <g transform="translate(247.055469 284.596563)scale(0.1 -0.1)">
      <defs>
       <path id="DejaVuSans-47" d="M 3809 666 
L 3809 1919 
L 2778 1919 
L 2778 2438 
L 4434 2438 
L 4434 434 
Q 4069 175 3628 42 
Q 3188 -91 2688 -91 
Q 1594 -91 976 548 
Q 359 1188 359 2328 
Q 359 3472 976 4111 
Q 1594 4750 2688 4750 
Q 3144 4750 3555 4637 
Q 3966 4525 4313 4306 
L 4313 3634 
Q 3963 3931 3569 4081 
Q 3175 4231 2741 4231 
Q 1884 4231 1454 3753 
Q 1025 3275 1025 2328 
Q 1025 1384 1454 906 
Q 1884 428 2741 428 
Q 3075 428 3337 486 
Q 3600 544 3809 666 
z
" transform="scale(0.015625)"/>
       <path id="DejaVuSans-72" d="M 2631 2963 
Q 2534 3019 2420 3045 
Q 2306 3072 2169 3072 
Q 1681 3072 1420 2755 
Q 1159 2438 1159 1844 
L 1159 0 
L 581 0 
L 581 3500 
L 1159 3500 
L 1159 2956 
Q 1341 3275 1631 3429 
Q 1922 3584 2338 3584 
Q 2397 3584 2469 3576 
Q 2541 3569 2628 3553 
L 2631 2963 
z
" transform="scale(0.015625)"/>
       <path id="DejaVuSans-6f" d="M 1959 3097 
Q 1497 3097 1228 2736 
Q 959 2375 959 1747 
Q 959 1119 1226 758 
Q 1494 397 1959 397 
Q 2419 397 2687 759 
Q 2956 1122 2956 1747 
Q 2956 2369 2687 2733 
Q 2419 3097 1959 3097 
z
M 1959 3584 
Q 2709 3584 3137 3096 
Q 3566 2609 3566 1747 
Q 3566 888 3137 398 
Q 2709 -91 1959 -91 
Q 1206 -91 779 398 
Q 353 888 353 1747 
Q 353 2609 779 3096 
Q 1206 3584 1959 3584 
z
" transform="scale(0.015625)"/>
       <path id="DejaVuSans-75" d="M 544 1381 
L 544 3500 
L 1119 3500 
L 1119 1403 
Q 1119 906 1312 657 
Q 1506 409 1894 409 
Q 2359 409 2629 706 
Q 2900 1003 2900 1516 
L 2900 3500 
L 3475 3500 
L 3475 0 
L 2900 0 
L 2900 538 
Q 2691 219 2414 64 
Q 2138 -91 1772 -91 
Q 1169 -91 856 284 
Q 544 659 544 1381 
z
M 1991 3584 
L 1991 3584 
z
" transform="scale(0.015625)"/>
       <path id="DejaVuSans-6e" d="M 3513 2113 
L 3513 0 
L 2938 0 
L 2938 2094 
Q 2938 2591 2744 2837 
Q 2550 3084 2163 3084 
Q 1697 3084 1428 2787 
Q 1159 2491 1159 1978 
L 1159 0 
L 581 0 
L 581 3500 
L 1159 3500 
L 1159 2956 
Q 1366 3272 1645 3428 
Q 1925 3584 2291 3584 
Q 2894 3584 3203 3211 
Q 3513 2838 3513 2113 
z
" transform="scale(0.015625)"/>
       <path id="DejaVuSans-64" d="M 2906 2969 
L 2906 4863 
L 3481 4863 
L 3481 0 
L 2906 0 
L 2906 525 
Q 2725 213 2448 61 
Q 2172 -91 1784 -91 
Q 1150 -91 751 415 
Q 353 922 353 1747 
Q 353 2572 751 3078 
Q 1150 3584 1784 3584 
Q 2172 3584 2448 3432 
Q 2725 3281 2906 2969 
z
M 947 1747 
Q 947 1113 1208 752 
Q 1469 391 1925 391 
Q 2381 391 2643 752 
Q 2906 1113 2906 1747 
Q 2906 2381 2643 2742 
Q 2381 3103 1925 3103 
Q 1469 3103 1208 2742 
Q 947 2381 947 1747 
z
" transform="scale(0.015625)"/>
       <path id="DejaVuSans-73" d="M 2834 3397 
L 2834 2853 
Q 2591 2978 2328 3040 
Q 2066 3103 1784 3103 
Q 1356 3103 1142 2972 
Q 928 2841 928 2578 
Q 928 2378 1081 2264 
Q 1234 2150 1697 2047 
L 1894 2003 
Q 2506 1872 2764 1633 
Q 3022 1394 3022 966 
Q 3022 478 2636 193 
Q 2250 -91 1575 -91 
Q 1294 -91 989 -36 
Q 684 19 347 128 
L 347 722 
Q 666 556 975 473 
Q 1284 391 1588 391 
Q 1994 391 2212 530 
Q 2431 669 2431 922 
Q 2431 1156 2273 1281 
Q 2116 1406 1581 1522 
L 1381 1569 
Q 847 1681 609 1914 
Q 372 2147 372 2553 
Q 372 3047 722 3315 
Q 1072 3584 1716 3584 
Q 2034 3584 2315 3537 
Q 2597 3491 2834 3397 
z
" transform="scale(0.015625)"/>
       <path id="DejaVuSans-70" d="M 1159 525 
L 1159 -1331 
L 581 -1331 
L 581 3500 
L 1159 3500 
L 1159 2969 
Q 1341 3281 1617 3432 
Q 1894 3584 2278 3584 
Q 2916 3584 3314 3078 
Q 3713 2572 3713 1747 
Q 3713 922 3314 415 
Q 2916 -91 2278 -91 
Q 1894 -91 1617 61 
Q 1341 213 1159 525 
z
M 3116 1747 
Q 3116 2381 2855 2742 
Q 2594 3103 2138 3103 
Q 1681 3103 1420 2742 
Q 1159 2381 1159 1747 
Q 1159 1113 1420 752 
Q 1681 391 2138 391 
Q 2594 391 2855 752 
Q 3116 1113 3116 1747 
z
" transform="scale(0.015625)"/>
       <path id="DejaVuSans-65" d="M 3597 1894 
L 3597 1613 
L 953 1613 
Q 991 1019 1311 708 
Q 1631 397 2203 397 
Q 2534 397 2845 478 
Q 3156 559 3463 722 
L 3463 178 
Q 3153 47 2828 -22 
Q 2503 -91 2169 -91 
Q 1331 -91 842 396 
Q 353 884 353 1716 
Q 353 2575 817 3079 
Q 1281 3584 2069 3584 
Q 2775 3584 3186 3129 
Q 3597 2675 3597 1894 
z
M 3022 2063 
Q 3016 2534 2758 2815 
Q 2500 3097 2075 3097 
Q 1594 3097 1305 2825 
Q 1016 2553 972 2059 
L 3022 2063 
z
" transform="scale(0.015625)"/>
       <path id="DejaVuSans-20" transform="scale(0.015625)"/>
       <path id="DejaVuSans-5b" d="M 550 4863 
L 1875 4863 
L 1875 4416 
L 1125 4416 
L 1125 -397 
L 1875 -397 
L 1875 -844 
L 550 -844 
L 550 4863 
z
" transform="scale(0.015625)"/>
       <path id="DejaVuSans-6d" d="M 3328 2828 
Q 3544 3216 3844 3400 
Q 4144 3584 4550 3584 
Q 5097 3584 5394 3201 
Q 5691 2819 5691 2113 
L 5691 0 
L 5113 0 
L 5113 2094 
Q 5113 2597 4934 2840 
Q 4756 3084 4391 3084 
Q 3944 3084 3684 2787 
Q 3425 2491 3425 1978 
L 3425 0 
L 2847 0 
L 2847 2094 
Q 2847 2600 2669 2842 
Q 2491 3084 2119 3084 
Q 1678 3084 1418 2786 
Q 1159 2488 1159 1978 
L 1159 0 
L 581 0 
L 581 3500 
L 1159 3500 
L 1159 2956 
Q 1356 3278 1631 3431 
Q 1906 3584 2284 3584 
Q 2666 3584 2933 3390 
Q 3200 3197 3328 2828 
z
" transform="scale(0.015625)"/>
       <path id="DejaVuSans-2f" d="M 1625 4666 
L 2156 4666 
L 531 -594 
L 0 -594 
L 1625 4666 
z
" transform="scale(0.015625)"/>
       <path id="DejaVuSans-5d" d="M 1947 4863 
L 1947 -844 
L 622 -844 
L 622 -397 
L 1369 -397 
L 1369 4416 
L 622 4416 
L 622 4863 
L 1947 4863 
z
" transform="scale(0.015625)"/>
      </defs>
      <use xlink:href="#DejaVuSans-47"/>
      <use xlink:href="#DejaVuSans-72" x="77.490234"/>
      <use xlink:href="#DejaVuSans-6f" x="116.353516"/>
      <use xlink:href="#DejaVuSans-75" x="177.535156"/>
      <use xlink:href="#DejaVuSans-6e" x="240.914062"/>
      <use xlink:href="#DejaVuSans-64" x="304.292969"/>
      <use xlink:href="#DejaVuSans-73" x="367.769531"/>
      <use xlink:href="#DejaVuSans-70" x="419.869141"/>
      <use xlink:href="#DejaVuSans-65" x="483.345703"/>
      <use xlink:href="#DejaVuSans-65" x="544.869141"/>
      <use xlink:href="#DejaVuSans-64" x="606.392578"/>
      <use xlink:href="#DejaVuSans-20" x="669.869141"/>
      <use xlink:href="#DejaVuSans-5b" x="701.65625"/>
      <use xlink:href="#DejaVuSans-6d" x="740.669922"/>
      <use xlink:href="#DejaVuSans-2f" x="838.082031"/>
      <use xlink:href="#DejaVuSans-73" x="871.773438"/>
      <use xlink:href="#DejaVuSans-5d" x="923.873047"/>
     </g>
    </g>
   </g>
   <g id="matplotlib.axis_2">
    <g id="ytick_1">
     <g id="line2d_9">
      <defs>
       <path id="mcec7a416fe" d="M 0 0 
L -3.5 0 
" style="stroke: #000000; stroke-width: 0.8"/>
      </defs>
      <g>
       <use xlink:href="#mcec7a416fe" x="72" y="256.32" style="stroke: #000000; stroke-width: 0.8"/>
      </g>
     </g>
     <g id="text_10">
      <!-- 0 -->
      <g transform="translate(58.6375 260.119219)scale(0.1 -0.1)">
       <use xlink:href="#DejaVuSans-30"/>
      </g>
     </g>
    </g>
    <g id="ytick_2">
     <g id="line2d_10">
      <g>
       <use xlink:href="#mcec7a416fe" x="72" y="226.752" style="stroke: #000000; stroke-width: 0.8"/>
      </g>
     </g>
     <g id="text_11">
      <!-- 20 -->
      <g transform="translate(52.275 230.551219)scale(0.1 -0.1)">
       <use xlink:href="#DejaVuSans-32"/>
       <use xlink:href="#DejaVuSans-30" x="63.623047"/>
      </g>
     </g>
    </g>
    <g id="ytick_3">
     <g id="line2d_11">
      <g>
       <use xlink:href="#mcec7a416fe" x="72" y="197.184" style="stroke: #000000; stroke-width: 0.8"/>
      </g>
     </g>
     <g id="text_12">
      <!-- 40 -->
      <g transform="translate(52.275 200.983219)scale(0.1 -0.1)">
       <use xlink:href="#DejaVuSans-34"/>
       <use xlink:href="#DejaVuSans-30" x="63.623047"/>
      </g>
     </g>
    </g>
    <g id="ytick_4">
     <g id="line2d_12">
      <g>
       <use xlink:href="#mcec7a416fe" x="72" y="167.616" style="stroke: #000000; stroke-width: 0.8"/>
      </g>
     </g>
     <g id="text_13">
      <!-- 60 -->
      <g transform="translate(52.275 171.415219)scale(0.1 -0.1)">
       <defs>
        <path id="DejaVuSans-36" d="M 2113 2584 
Q 1688 2584 1439 2293 
Q 1191 2003 1191 1497 
Q 1191 994 1439 701 
Q 1688 409 2113 409 
Q 2538 409 2786 701 
Q 3034 994 3034 1497 
Q 3034 2003 2786 2293 
Q 2538 2584 2113 2584 
z
M 3366 4563 
L 3366 3988 
Q 3128 4100 2886 4159 
Q 2644 4219 2406 4219 
Q 1781 4219 1451 3797 
Q 1122 3375 1075 2522 
Q 1259 2794 1537 2939 
Q 1816 3084 2150 3084 
Q 2853 3084 3261 2657 
Q 3669 2231 3669 1497 
Q 3669 778 3244 343 
Q 2819 -91 2113 -91 
Q 1303 -91 875 529 
Q 447 1150 447 2328 
Q 447 3434 972 4092 
Q 1497 4750 2381 4750 
Q 2619 4750 2861 4703 
Q 3103 4656 3366 4563 
z
" transform="scale(0.015625)"/>
       </defs>
       <use xlink:href="#DejaVuSans-36"/>
       <use xlink:href="#DejaVuSans-30" x="63.623047"/>
      </g>
     </g>
    </g>
    <g id="ytick_5">
     <g id="line2d_13">
      <g>
       <use xlink:href="#mcec7a416fe" x="72" y="138.048" style="stroke: #000000; stroke-width: 0.8"/>
      </g>
     </g>
     <g id="text_14">
      <!-- 80 -->
      <g transform="translate(52.275 141.847219)scale(0.1 -0.1)">
       <use xlink:href="#DejaVuSans-38"/>
       <use xlink:href="#DejaVuSans-30" x="63.623047"/>
      </g>
     </g>
    </g>
    <g id="ytick_6">
     <g id="line2d_14">
      <g>
       <use xlink:href="#mcec7a416fe" x="72" y="108.48" style="stroke: #000000; stroke-width: 0.8"/>
      </g>
     </g>
     <g id="text_15">
      <!-- 100 -->
      <g transform="translate(45.9125 112.279219)scale(0.1 -0.1)">
       <use xlink:href="#DejaVuSans-31"/>
       <use xlink:href="#DejaVuSans-30" x="63.623047"/>
       <use xlink:href="#DejaVuSans-30" x="127.246094"/>
      </g>
     </g>
    </g>
    <g id="ytick_7">
     <g id="line2d_15">
      <g>
       <use xlink:href="#mcec7a416fe" x="72" y="78.912" style="stroke: #000000; stroke-width: 0.8"/>
      </g>
     </g>
     <g id="text_16">
      <!-- 120 -->
      <g transform="translate(45.9125 82.711219)scale(0.1 -0.1)">
       <use xlink:href="#DejaVuSans-31"/>
       <use xlink:href="#DejaVuSans-32" x="63.623047"/>
       <use xlink:href="#DejaVuSans-30" x="127.246094"/>
      </g>
     </g>
    </g>
    <g id="ytick_8">
     <g id="line2d_16">
      <g>
       <use xlink:href="#mcec7a416fe" x="72" y="49.344" style="stroke: #000000; stroke-width: 0.8"/>
      </g>
     </g>
     <g id="text_17">
      <!-- 140 -->
      <g transform="translate(45.9125 53.143219)scale(0.1 -0.1)">
       <use xlink:href="#DejaVuSans-31"/>
       <use xlink:href="#DejaVuSans-34" x="63.623047"/>
       <use xlink:href="#DejaVuSans-30" x="127.246094"/>
      </g>
     </g>
    </g>
    <g id="text_18">
     <!-- Drag [N] -->
     <g transform="translate(39.832812 166.815)rotate(-90)scale(0.1 -0.1)">
      <defs>
       <path id="DejaVuSans-44" d="M 1259 4147 
L 1259 519 
L 2022 519 
Q 2988 519 3436 956 
Q 3884 1394 3884 2338 
Q 3884 3275 3436 3711 
Q 2988 4147 2022 4147 
L 1259 4147 
z
M 628 4666 
L 1925 4666 
Q 3281 4666 3915 4102 
Q 4550 3538 4550 2338 
Q 4550 1131 3912 565 
Q 3275 0 1925 0 
L 628 0 
L 628 4666 
z
" transform="scale(0.015625)"/>
       <path id="DejaVuSans-61" d="M 2194 1759 
Q 1497 1759 1228 1600 
Q 959 1441 959 1056 
Q 959 750 1161 570 
Q 1363 391 1709 391 
Q 2188 391 2477 730 
Q 2766 1069 2766 1631 
L 2766 1759 
L 2194 1759 
z
M 3341 1997 
L 3341 0 
L 2766 0 
L 2766 531 
Q 2569 213 2275 61 
Q 1981 -91 1556 -91 
Q 1019 -91 701 211 
Q 384 513 384 1019 
Q 384 1609 779 1909 
Q 1175 2209 1959 2209 
L 2766 2209 
L 2766 2266 
Q 2766 2663 2505 2880 
Q 2244 3097 1772 3097 
Q 1472 3097 1187 3025 
Q 903 2953 641 2809 
L 641 3341 
Q 956 3463 1253 3523 
Q 1550 3584 1831 3584 
Q 2591 3584 2966 3190 
Q 3341 2797 3341 1997 
z
" transform="scale(0.015625)"/>
       <path id="DejaVuSans-67" d="M 2906 1791 
Q 2906 2416 2648 2759 
Q 2391 3103 1925 3103 
Q 1463 3103 1205 2759 
Q 947 2416 947 1791 
Q 947 1169 1205 825 
Q 1463 481 1925 481 
Q 2391 481 2648 825 
Q 2906 1169 2906 1791 
z
M 3481 434 
Q 3481 -459 3084 -895 
Q 2688 -1331 1869 -1331 
Q 1566 -1331 1297 -1286 
Q 1028 -1241 775 -1147 
L 775 -588 
Q 1028 -725 1275 -790 
Q 1522 -856 1778 -856 
Q 2344 -856 2625 -561 
Q 2906 -266 2906 331 
L 2906 616 
Q 2728 306 2450 153 
Q 2172 0 1784 0 
Q 1141 0 747 490 
Q 353 981 353 1791 
Q 353 2603 747 3093 
Q 1141 3584 1784 3584 
Q 2172 3584 2450 3431 
Q 2728 3278 2906 2969 
L 2906 3500 
L 3481 3500 
L 3481 434 
z
" transform="scale(0.015625)"/>
       <path id="DejaVuSans-4e" d="M 628 4666 
L 1478 4666 
L 3547 763 
L 3547 4666 
L 4159 4666 
L 4159 0 
L 3309 0 
L 1241 3903 
L 1241 0 
L 628 0 
L 628 4666 
z
" transform="scale(0.015625)"/>
      </defs>
      <use xlink:href="#DejaVuSans-44"/>
      <use xlink:href="#DejaVuSans-72" x="77.001953"/>
      <use xlink:href="#DejaVuSans-61" x="118.115234"/>
      <use xlink:href="#DejaVuSans-67" x="179.394531"/>
      <use xlink:href="#DejaVuSans-20" x="242.871094"/>
      <use xlink:href="#DejaVuSans-5b" x="274.658203"/>
      <use xlink:href="#DejaVuSans-4e" x="313.671875"/>
      <use xlink:href="#DejaVuSans-5d" x="388.476562"/>
     </g>
    </g>
   </g>
   <g id="line2d_17">
    <path d="M 247.224148 256.32 
L 247.224148 123.264 
" clip-path="url(#pba54af4794)" style="fill: none; stroke-dasharray: 3.7,1.6; stroke-dashoffset: 0; stroke: #000000"/>
   </g>
   <g id="patch_3">
    <path d="M 72 256.32 
L 72 34.56 
" style="fill: none; stroke: #000000; stroke-width: 0.8; stroke-linejoin: miter; stroke-linecap: square"/>
   </g>
   <g id="patch_4">
    <path d="M 518.4 256.32 
L 518.4 34.56 
" style="fill: none; stroke: #000000; stroke-width: 0.8; stroke-linejoin: miter; stroke-linecap: square"/>
   </g>
   <g id="patch_5">
    <path d="M 72 256.32 
L 518.4 256.32 
" style="fill: none; stroke: #000000; stroke-width: 0.8; stroke-linejoin: miter; stroke-linecap: square"/>
   </g>
   <g id="patch_6">
    <path d="M 72 34.56 
L 518.4 34.56 
" style="fill: none; stroke: #000000; stroke-width: 0.8; stroke-linejoin: miter; stroke-linecap: square"/>
   </g>
   <g id="legend_1">
    <g id="patch_7">
     <path d="M 239.870312 115.950625 
L 350.529688 115.950625 
Q 352.529688 115.950625 352.529688 113.950625 
L 352.529688 41.56 
Q 352.529688 39.56 350.529688 39.56 
L 239.870312 39.56 
Q 237.870312 39.56 237.870312 41.56 
L 237.870312 113.950625 
Q 237.870312 115.950625 239.870312 115.950625 
z
" style="fill: #ffffff; opacity: 0.8; stroke: #cccccc; stroke-linejoin: miter"/>
    </g>
    <g id="patch_8">
     <path d="M 241.870312 51.158437 
L 261.870312 51.158437 
L 261.870312 44.158437 
L 241.870312 44.158437 
z
" style="fill: #d62728"/>
    </g>
    <g id="text_19">
     <!-- Canopy viscous -->
     <g transform="translate(269.870312 51.158437)scale(0.1 -0.1)">
      <defs>
       <path id="DejaVuSans-43" d="M 4122 4306 
L 4122 3641 
Q 3803 3938 3442 4084 
Q 3081 4231 2675 4231 
Q 1875 4231 1450 3742 
Q 1025 3253 1025 2328 
Q 1025 1406 1450 917 
Q 1875 428 2675 428 
Q 3081 428 3442 575 
Q 3803 722 4122 1019 
L 4122 359 
Q 3791 134 3420 21 
Q 3050 -91 2638 -91 
Q 1578 -91 968 557 
Q 359 1206 359 2328 
Q 359 3453 968 4101 
Q 1578 4750 2638 4750 
Q 3056 4750 3426 4639 
Q 3797 4528 4122 4306 
z
" transform="scale(0.015625)"/>
       <path id="DejaVuSans-79" d="M 2059 -325 
Q 1816 -950 1584 -1140 
Q 1353 -1331 966 -1331 
L 506 -1331 
L 506 -850 
L 844 -850 
Q 1081 -850 1212 -737 
Q 1344 -625 1503 -206 
L 1606 56 
L 191 3500 
L 800 3500 
L 1894 763 
L 2988 3500 
L 3597 3500 
L 2059 -325 
z
" transform="scale(0.015625)"/>
       <path id="DejaVuSans-76" d="M 191 3500 
L 800 3500 
L 1894 563 
L 2988 3500 
L 3597 3500 
L 2284 0 
L 1503 0 
L 191 3500 
z
" transform="scale(0.015625)"/>
       <path id="DejaVuSans-69" d="M 603 3500 
L 1178 3500 
L 1178 0 
L 603 0 
L 603 3500 
z
M 603 4863 
L 1178 4863 
L 1178 4134 
L 603 4134 
L 603 4863 
z
" transform="scale(0.015625)"/>
       <path id="DejaVuSans-63" d="M 3122 3366 
L 3122 2828 
Q 2878 2963 2633 3030 
Q 2388 3097 2138 3097 
Q 1578 3097 1268 2742 
Q 959 2388 959 1747 
Q 959 1106 1268 751 
Q 1578 397 2138 397 
Q 2388 397 2633 464 
Q 2878 531 3122 666 
L 3122 134 
Q 2881 22 2623 -34 
Q 2366 -91 2075 -91 
Q 1284 -91 818 406 
Q 353 903 353 1747 
Q 353 2603 823 3093 
Q 1294 3584 2113 3584 
Q 2378 3584 2631 3529 
Q 2884 3475 3122 3366 
z
" transform="scale(0.015625)"/>
      </defs>
      <use xlink:href="#DejaVuSans-43"/>
      <use xlink:href="#DejaVuSans-61" x="69.824219"/>
      <use xlink:href="#DejaVuSans-6e" x="131.103516"/>
      <use xlink:href="#DejaVuSans-6f" x="194.482422"/>
      <use xlink:href="#DejaVuSans-70" x="255.664062"/>
      <use xlink:href="#DejaVuSans-79" x="319.140625"/>
      <use xlink:href="#DejaVuSans-20" x="378.320312"/>
      <use xlink:href="#DejaVuSans-76" x="410.107422"/>
      <use xlink:href="#DejaVuSans-69" x="469.287109"/>
      <use xlink:href="#DejaVuSans-73" x="497.070312"/>
      <use xlink:href="#DejaVuSans-63" x="549.169922"/>
      <use xlink:href="#DejaVuSans-6f" x="604.150391"/>
      <use xlink:href="#DejaVuSans-75" x="665.332031"/>
      <use xlink:href="#DejaVuSans-73" x="728.710938"/>
     </g>
    </g>
    <g id="patch_9">
     <path d="M 241.870312 65.836562 
L 261.870312 65.836562 
L 261.870312 58.836562 
L 241.870312 58.836562 
z
" style="fill: #2ca02c"/>
    </g>
    <g id="text_20">
     <!-- Canopy inviscid -->
     <g transform="translate(269.870312 65.836562)scale(0.1 -0.1)">
      <use xlink:href="#DejaVuSans-43"/>
      <use xlink:href="#DejaVuSans-61" x="69.824219"/>
      <use xlink:href="#DejaVuSans-6e" x="131.103516"/>
      <use xlink:href="#DejaVuSans-6f" x="194.482422"/>
      <use xlink:href="#DejaVuSans-70" x="255.664062"/>
      <use xlink:href="#DejaVuSans-79" x="319.140625"/>
      <use xlink:href="#DejaVuSans-20" x="378.320312"/>
      <use xlink:href="#DejaVuSans-69" x="410.107422"/>
      <use xlink:href="#DejaVuSans-6e" x="437.890625"/>
      <use xlink:href="#DejaVuSans-76" x="501.269531"/>
      <use xlink:href="#DejaVuSans-69" x="560.449219"/>
      <use xlink:href="#DejaVuSans-73" x="588.232422"/>
      <use xlink:href="#DejaVuSans-63" x="640.332031"/>
      <use xlink:href="#DejaVuSans-69" x="695.3125"/>
      <use xlink:href="#DejaVuSans-64" x="723.095703"/>
     </g>
    </g>
    <g id="patch_10">
     <path d="M 241.870312 80.514687 
L 261.870312 80.514687 
L 261.870312 73.514687 
L 241.870312 73.514687 
z
" style="fill: #ff7f0e"/>
    </g>
    <g id="text_21">
     <!-- Payload -->
     <g transform="translate(269.870312 80.514687)scale(0.1 -0.1)">
      <defs>
       <path id="DejaVuSans-50" d="M 1259 4147 
L 1259 2394 
L 2053 2394 
Q 2494 2394 2734 2622 
Q 2975 2850 2975 3272 
Q 2975 3691 2734 3919 
Q 2494 4147 2053 4147 
L 1259 4147 
z
M 628 4666 
L 2053 4666 
Q 2838 4666 3239 4311 
Q 3641 3956 3641 3272 
Q 3641 2581 3239 2228 
Q 2838 1875 2053 1875 
L 1259 1875 
L 1259 0 
L 628 0 
L 628 4666 
z
" transform="scale(0.015625)"/>
       <path id="DejaVuSans-6c" d="M 603 4863 
L 1178 4863 
L 1178 0 
L 603 0 
L 603 4863 
z
" transform="scale(0.015625)"/>
      </defs>
      <use xlink:href="#DejaVuSans-50"/>
      <use xlink:href="#DejaVuSans-61" x="55.802734"/>
      <use xlink:href="#DejaVuSans-79" x="117.082031"/>
      <use xlink:href="#DejaVuSans-6c" x="176.261719"/>
      <use xlink:href="#DejaVuSans-6f" x="204.044922"/>
      <use xlink:href="#DejaVuSans-61" x="265.226562"/>
      <use xlink:href="#DejaVuSans-64" x="326.505859"/>
     </g>
    </g>
    <g id="patch_11">
     <path d="M 241.870312 95.192813 
L 261.870312 95.192813 
L 261.870312 88.192813 
L 241.870312 88.192813 
z
" style="fill: #1f77b4"/>
    </g>
    <g id="text_22">
     <!-- Lines -->
     <g transform="translate(269.870312 95.192813)scale(0.1 -0.1)">
      <defs>
       <path id="DejaVuSans-4c" d="M 628 4666 
L 1259 4666 
L 1259 531 
L 3531 531 
L 3531 0 
L 628 0 
L 628 4666 
z
" transform="scale(0.015625)"/>
      </defs>
      <use xlink:href="#DejaVuSans-4c"/>
      <use xlink:href="#DejaVuSans-69" x="55.712891"/>
      <use xlink:href="#DejaVuSans-6e" x="83.496094"/>
      <use xlink:href="#DejaVuSans-65" x="146.875"/>
      <use xlink:href="#DejaVuSans-73" x="208.398438"/>
     </g>
    </g>
    <g id="line2d_18">
     <path d="M 241.870312 106.370937 
L 251.870312 106.370937 
L 261.870312 106.370937 
" style="fill: none; stroke-dasharray: 3.7,1.6; stroke-dashoffset: 0; stroke: #000000"/>
    </g>
    <g id="text_23">
     <!-- Zero controls -->
     <g transform="translate(269.870312 109.870937)scale(0.1 -0.1)">
      <defs>
       <path id="DejaVuSans-5a" d="M 359 4666 
L 4025 4666 
L 4025 4184 
L 1075 531 
L 4097 531 
L 4097 0 
L 288 0 
L 288 481 
L 3238 4134 
L 359 4134 
L 359 4666 
z
" transform="scale(0.015625)"/>
       <path id="DejaVuSans-74" d="M 1172 4494 
L 1172 3500 
L 2356 3500 
L 2356 3053 
L 1172 3053 
L 1172 1153 
Q 1172 725 1289 603 
Q 1406 481 1766 481 
L 2356 481 
L 2356 0 
L 1766 0 
Q 1100 0 847 248 
Q 594 497 594 1153 
L 594 3053 
L 172 3053 
L 172 3500 
L 594 3500 
L 594 4494 
L 1172 4494 
z
" transform="scale(0.015625)"/>
      </defs>
      <use xlink:href="#DejaVuSans-5a"/>
      <use xlink:href="#DejaVuSans-65" x="68.505859"/>
      <use xlink:href="#DejaVuSans-72" x="130.029297"/>
      <use xlink:href="#DejaVuSans-6f" x="168.892578"/>
      <use xlink:href="#DejaVuSans-20" x="230.074219"/>
      <use xlink:href="#DejaVuSans-63" x="261.861328"/>
      <use xlink:href="#DejaVuSans-6f" x="316.841797"/>
      <use xlink:href="#DejaVuSans-6e" x="378.023438"/>
      <use xlink:href="#DejaVuSans-74" x="441.402344"/>
      <use xlink:href="#DejaVuSans-72" x="480.611328"/>
      <use xlink:href="#DejaVuSans-6f" x="519.474609"/>
      <use xlink:href="#DejaVuSans-6c" x="580.65625"/>
      <use xlink:href="#DejaVuSans-73" x="608.439453"/>
     </g>
    </g>
   </g>
  </g>
 </g>
 <defs>
  <clipPath id="pba54af4794">
   <rect x="72" y="34.56" width="446.4" height="221.76"/>
  </clipPath>
 </defs>
</svg>
