<?xml version="1.0" encoding="UTF-8" standalone="no"?>
<svg
   xmlns:dc="http://purl.org/dc/elements/1.1/"
   xmlns:cc="http://creativecommons.org/ns#"
   xmlns:rdf="http://www.w3.org/1999/02/22-rdf-syntax-ns#"
   xmlns:svg="http://www.w3.org/2000/svg"
   xmlns="http://www.w3.org/2000/svg"
   xmlns:sodipodi="http://sodipodi.sourceforge.net/DTD/sodipodi-0.dtd"
   xmlns:inkscape="http://www.inkscape.org/namespaces/inkscape"
   inkscape:version="1.0 (4035a4fb49, 2020-05-01)"
   sodipodi:docname="manta1_canopy_chords.svg"
   id="svg238"
   width="441.41013pt"
   viewBox="0 0 441.41013 414.19595"
   version="1.1"
   height="414.19595pt">
  <metadata
     id="metadata242">
    <rdf:RDF>
      <cc:Work
         rdf:about="">
        <dc:format>image/svg+xml</dc:format>
        <dc:type
           rdf:resource="http://purl.org/dc/dcmitype/StillImage" />
      </cc:Work>
    </rdf:RDF>
  </metadata>
  <sodipodi:namedview
     inkscape:current-layer="svg238"
     inkscape:window-maximized="0"
     inkscape:window-y="27"
     inkscape:window-x="0"
     inkscape:cy="310.28839"
     inkscape:cx="207.91423"
     inkscape:zoom="1.06875"
     showgrid="false"
     id="namedview240"
     inkscape:window-height="1198"
     inkscape:window-width="1396"
     inkscape:pageshadow="2"
     inkscape:pageopacity="0"
     guidetolerance="10"
     gridtolerance="10"
     objecttolerance="10"
     borderopacity="1"
     bordercolor="#666666"
     pagecolor="#ffffff" />
  <defs
     id="defs4">
    <style
       id="style2"
       type="text/css">
*{stroke-linecap:butt;stroke-linejoin:round;}
  </style>
  </defs>
  <g
     transform="translate(-204.06433,-127.28371)"
     id="axes_1">
    <g
       id="line2d_1">
      <path
         d="M 644.92804,445.60176 C 553.19527,392.63982 461.4625,339.67788 369.72973,286.71594"
         style="fill:none;stroke:#d3d3d3;stroke-width:0.8;stroke-linecap:square"
         clip-path="url(#p4379d6060f)"
         id="path12" />
    </g>
    <g
       id="line2d_2">
      <path
         d="M 617.40821,461.49034 C 525.67544,408.5284 433.94267,355.56646 342.2099,302.60452"
         style="fill:none;stroke:#d3d3d3;stroke-width:0.8;stroke-linecap:square"
         clip-path="url(#p4379d6060f)"
         id="path15" />
    </g>
    <g
       id="line2d_3">
      <path
         d="M 589.88838,477.37893 C 498.15561,424.41699 406.42284,371.45505 314.69007,318.49311"
         style="fill:none;stroke:#d3d3d3;stroke-width:0.8;stroke-linecap:square"
         clip-path="url(#p4379d6060f)"
         id="path18" />
    </g>
    <g
       id="line2d_4">
      <path
         d="M 562.36855,493.26751 C 470.63578,440.30557 378.903,387.34363 287.17023,334.38169"
         style="fill:none;stroke:#d3d3d3;stroke-width:0.8;stroke-linecap:square"
         clip-path="url(#p4379d6060f)"
         id="path21" />
    </g>
    <g
       id="line2d_5">
      <path
         d="M 534.84872,509.15609 C 443.11595,456.19415 351.38317,403.23221 259.6504,350.27027"
         style="fill:none;stroke:#d3d3d3;stroke-width:0.8;stroke-linecap:square"
         clip-path="url(#p4379d6060f)"
         id="path24" />
    </g>
    <g
       id="line2d_6">
      <path
         d="M 507.32889,525.04467 C 415.59612,472.08273 323.86334,419.12079 232.13057,366.15885"
         style="fill:none;stroke:#d3d3d3;stroke-width:0.8;stroke-linecap:square"
         clip-path="url(#p4379d6060f)"
         id="path27" />
    </g>
    <g
       id="line2d_7">
      <path
         d="M 479.80906,540.93326 C 388.07629,487.97132 296.34351,435.00937 204.61074,382.04743"
         style="fill:none;stroke:#d3d3d3;stroke-width:0.8;stroke-linecap:square"
         clip-path="url(#p4379d6060f)"
         id="path30" />
    </g>
    <g
       id="line2d_8">
      <path
         d="m 644.92804,445.60176 c -55.03966,31.77717 -110.07932,63.55433 -165.11898,95.3315"
         style="fill:none;stroke:#d3d3d3;stroke-width:0.8;stroke-linecap:square"
         clip-path="url(#p4379d6060f)"
         id="path33" />
    </g>
    <g
       id="line2d_9">
      <path
         d="m 644.92804,286.71594 c 0,52.96194 0,105.92388 0,158.88582"
         style="fill:none;stroke:#d3d3d3;stroke-width:0.8;stroke-linecap:square"
         clip-path="url(#p4379d6060f)"
         id="path36" />
    </g>
    <g
       id="line2d_10">
      <path
         d="m 617.40821,429.71318 c -55.03966,31.77716 -110.07933,63.55433 -165.11899,95.33149"
         style="fill:none;stroke:#d3d3d3;stroke-width:0.8;stroke-linecap:square"
         clip-path="url(#p4379d6060f)"
         id="path39" />
    </g>
    <g
       id="line2d_11">
      <path
         d="m 617.40821,270.82736 c 0,52.96194 0,105.92388 0,158.88582"
         style="fill:none;stroke:#d3d3d3;stroke-width:0.8;stroke-linecap:square"
         clip-path="url(#p4379d6060f)"
         id="path42" />
    </g>
    <g
       id="line2d_12">
      <path
         d="m 589.88838,413.8246 c -55.03966,31.77716 -110.07933,63.55433 -165.11899,95.33149"
         style="fill:none;stroke:#d3d3d3;stroke-width:0.8;stroke-linecap:square"
         clip-path="url(#p4379d6060f)"
         id="path45" />
    </g>
    <g
       id="line2d_13">
      <path
         d="m 589.88838,254.93878 c 0,52.96194 0,105.92388 0,158.88582"
         style="fill:none;stroke:#d3d3d3;stroke-width:0.8;stroke-linecap:square"
         clip-path="url(#p4379d6060f)"
         id="path48" />
    </g>
    <g
       id="line2d_14">
      <path
         d="m 562.36855,397.93602 c -55.03966,31.77716 -110.07933,63.55433 -165.11899,95.33149"
         style="fill:none;stroke:#d3d3d3;stroke-width:0.8;stroke-linecap:square"
         clip-path="url(#p4379d6060f)"
         id="path51" />
    </g>
    <g
       id="line2d_15">
      <path
         d="m 562.36855,239.05019 c 0,52.96194 0,105.92389 0,158.88583"
         style="fill:none;stroke:#d3d3d3;stroke-width:0.8;stroke-linecap:square"
         clip-path="url(#p4379d6060f)"
         id="path54" />
    </g>
    <g
       id="line2d_16">
      <path
         d="m 534.84872,382.04743 c -55.03966,31.77717 -110.07933,63.55433 -165.11899,95.3315"
         style="fill:none;stroke:#d3d3d3;stroke-width:0.8;stroke-linecap:square"
         clip-path="url(#p4379d6060f)"
         id="path57" />
    </g>
    <g
       id="line2d_17">
      <path
         d="m 534.84872,223.16161 c 0,52.96194 0,105.92388 0,158.88582"
         style="fill:none;stroke:#d3d3d3;stroke-width:0.8;stroke-linecap:square"
         clip-path="url(#p4379d6060f)"
         id="path60" />
    </g>
    <g
       id="line2d_18">
      <path
         d="M 507.32889,366.15885 C 452.28923,397.93601 397.24956,429.71318 342.2099,461.49034"
         style="fill:none;stroke:#d3d3d3;stroke-width:0.8;stroke-linecap:square"
         clip-path="url(#p4379d6060f)"
         id="path63" />
    </g>
    <g
       id="line2d_19">
      <path
         d="m 507.32889,207.27303 c 0,52.96194 0,105.92388 0,158.88582"
         style="fill:none;stroke:#d3d3d3;stroke-width:0.8;stroke-linecap:square"
         clip-path="url(#p4379d6060f)"
         id="path66" />
    </g>
    <g
       id="line2d_20">
      <path
         d="M 479.80906,350.27027 C 424.7694,382.04743 369.72973,413.8246 314.69007,445.60176"
         style="fill:none;stroke:#d3d3d3;stroke-width:0.8;stroke-linecap:square"
         clip-path="url(#p4379d6060f)"
         id="path69" />
    </g>
    <g
       id="line2d_21">
      <path
         d="m 479.80906,191.38445 c 0,52.96194 0,105.92388 0,158.88582"
         style="fill:none;stroke:#d3d3d3;stroke-width:0.8;stroke-linecap:square"
         clip-path="url(#p4379d6060f)"
         id="path72" />
    </g>
    <g
       id="line2d_22">
      <path
         d="m 452.28922,334.38169 c -55.03966,31.77716 -110.07933,63.55433 -165.11899,95.33149"
         style="fill:none;stroke:#d3d3d3;stroke-width:0.8;stroke-linecap:square"
         clip-path="url(#p4379d6060f)"
         id="path75" />
    </g>
    <g
       id="line2d_23">
      <path
         d="m 452.28922,175.49587 c 0,52.96194 0,105.92388 0,158.88582"
         style="fill:none;stroke:#d3d3d3;stroke-width:0.8;stroke-linecap:square"
         clip-path="url(#p4379d6060f)"
         id="path78" />
    </g>
    <g
       id="line2d_24">
      <path
         d="M 424.76939,318.49311 C 369.72973,350.27027 314.69006,382.04744 259.6504,413.8246"
         style="fill:none;stroke:#d3d3d3;stroke-width:0.8;stroke-linecap:square"
         clip-path="url(#p4379d6060f)"
         id="path81" />
    </g>
    <g
       id="line2d_25">
      <path
         d="m 424.76939,159.60728 c 0,52.96194 0,105.92389 0,158.88583"
         style="fill:none;stroke:#d3d3d3;stroke-width:0.8;stroke-linecap:square"
         clip-path="url(#p4379d6060f)"
         id="path84" />
    </g>
    <g
       id="line2d_26">
      <path
         d="m 397.24956,302.60452 c -55.03966,31.77717 -110.07933,63.55433 -165.11899,95.3315"
         style="fill:none;stroke:#d3d3d3;stroke-width:0.8;stroke-linecap:square"
         clip-path="url(#p4379d6060f)"
         id="path87" />
    </g>
    <g
       id="line2d_27">
      <path
         d="m 397.24956,143.7187 c 0,52.96194 0,105.92388 0,158.88582"
         style="fill:none;stroke:#d3d3d3;stroke-width:0.8;stroke-linecap:square"
         clip-path="url(#p4379d6060f)"
         id="path90" />
    </g>
    <g
       id="line2d_28">
      <path
         d="M 369.72973,286.71594 C 314.69007,318.4931 259.6504,350.27027 204.61074,382.04743"
         style="fill:none;stroke:#d3d3d3;stroke-width:0.8;stroke-linecap:square"
         clip-path="url(#p4379d6060f)"
         id="path93" />
    </g>
    <g
       id="line2d_29">
      <path
         d="m 369.72973,127.83012 c 0,52.96194 0,105.92388 0,158.88582"
         style="fill:none;stroke:#d3d3d3;stroke-width:0.8;stroke-linecap:square"
         clip-path="url(#p4379d6060f)"
         id="path96" />
    </g>
    <g
       id="line2d_30">
      <path
         d="M 644.92804,286.71594 C 553.19527,233.754 461.4625,180.79206 369.72973,127.83012"
         style="fill:none;stroke:#d3d3d3;stroke-width:0.8;stroke-linecap:square"
         clip-path="url(#p4379d6060f)"
         id="path99" />
    </g>
    <g
       id="line2d_31">
      <path
         d="M 644.92804,318.49311 C 553.19527,265.53117 461.4625,212.56922 369.72973,159.60728"
         style="fill:none;stroke:#d3d3d3;stroke-width:0.8;stroke-linecap:square"
         clip-path="url(#p4379d6060f)"
         id="path102" />
    </g>
    <g
       id="line2d_32">
      <path
         d="M 644.92804,350.27027 C 553.19527,297.30833 461.4625,244.34639 369.72973,191.38445"
         style="fill:none;stroke:#d3d3d3;stroke-width:0.8;stroke-linecap:square"
         clip-path="url(#p4379d6060f)"
         id="path105" />
    </g>
    <g
       id="line2d_33">
      <path
         d="M 644.92804,382.04743 C 553.19527,329.08549 461.4625,276.12355 369.72973,223.16161"
         style="fill:none;stroke:#d3d3d3;stroke-width:0.8;stroke-linecap:square"
         clip-path="url(#p4379d6060f)"
         id="path108" />
    </g>
    <g
       id="line2d_34">
      <path
         d="M 644.92804,413.8246 C 553.19527,360.86266 461.4625,307.90072 369.72973,254.93878"
         style="fill:none;stroke:#d3d3d3;stroke-width:0.8;stroke-linecap:square"
         clip-path="url(#p4379d6060f)"
         id="path111" />
    </g>
    <g
       id="line2d_35">
      <path
         d="m 534.9588,381.98388 c -0.0368,0.0199 -0.0701,0.0455 -0.10755,0.0642"
         style="fill:none;stroke:#000000;stroke-width:0.5;stroke-linecap:square"
         clip-path="url(#p4379d6060f)"
         id="path114" />
    </g>
    <g
       id="line2d_36">
      <path
         d="m 524.19549,379.72417 c -1.25994,0.72727 -2.51987,1.45471 -3.77976,2.182"
         style="fill:none;stroke:#000000;stroke-width:0.5;stroke-linecap:square"
         clip-path="url(#p4379d6060f)"
         id="path117" />
    </g>
    <g
       id="line2d_37">
      <path
         d="m 513.92142,377.182 c -2.48299,1.43347 -4.96589,2.86717 -7.44889,4.30059"
         style="fill:none;stroke:#000000;stroke-width:0.5;stroke-linecap:square"
         clip-path="url(#p4379d6060f)"
         id="path120" />
    </g>
    <g
       id="line2d_38">
      <path
         d="m 504.13659,374.35736 c -3.70609,2.13956 -7.41196,4.27959 -11.11818,6.41888"
         style="fill:none;stroke:#000000;stroke-width:0.5;stroke-linecap:square"
         clip-path="url(#p4379d6060f)"
         id="path123" />
    </g>
    <g
       id="line2d_39">
      <path
         d="m 494.841,371.25026 c -4.92932,2.84552 -9.85798,5.6923 -14.78768,8.53712"
         style="fill:none;stroke:#000000;stroke-width:0.5;stroke-linecap:square"
         clip-path="url(#p4379d6060f)"
         id="path126" />
    </g>
    <g
       id="line2d_40">
      <path
         d="m 486.03465,367.8607 c -6.15207,3.55179 -12.30397,7.10391 -18.45615,10.65551"
         style="fill:none;stroke:#000000;stroke-width:0.5;stroke-linecap:square"
         clip-path="url(#p4379d6060f)"
         id="path129" />
    </g>
    <g
       id="line2d_41">
      <path
         d="m 477.71755,364.18867 c -7.37524,4.25845 -14.75111,8.51587 -22.12599,12.77493"
         style="fill:none;stroke:#000000;stroke-width:0.5;stroke-linecap:square"
         clip-path="url(#p4379d6060f)"
         id="path132" />
    </g>
    <g
       id="line2d_42">
      <path
         d="m 469.88968,360.23418 c -8.59838,4.96448 -17.19711,9.92835 -25.79527,14.8932"
         style="fill:none;stroke:#000000;stroke-width:0.5;stroke-linecap:square"
         clip-path="url(#p4379d6060f)"
         id="path135" />
    </g>
    <g
       id="line2d_43">
      <path
         d="m 462.55106,355.99722 c -9.82143,5.67072 -19.64339,11.34052 -29.46451,17.01177"
         style="fill:none;stroke:#000000;stroke-width:0.5;stroke-linecap:square"
         clip-path="url(#p4379d6060f)"
         id="path138" />
    </g>
    <g
       id="line2d_44">
      <path
         d="m 455.70168,351.4778 c -11.04453,6.37682 -22.08949,12.7529 -33.13377,19.13014"
         style="fill:none;stroke:#000000;stroke-width:0.5;stroke-linecap:square"
         clip-path="url(#p4379d6060f)"
         id="path141" />
    </g>
    <g
       id="line2d_45">
      <path
         d="m 449.34154,346.67592 c -12.26771,7.08275 -24.53539,14.16555 -36.80312,21.24826"
         style="fill:none;stroke:#000000;stroke-width:0.5;stroke-linecap:square"
         clip-path="url(#p4379d6060f)"
         id="path144" />
    </g>
    <g
       id="line2d_46">
      <path
         d="m 443.47065,341.59157 c -13.49084,7.78897 -26.98173,15.57787 -40.47255,23.36687"
         style="fill:none;stroke:#000000;stroke-width:0.5;stroke-linecap:square"
         clip-path="url(#p4379d6060f)"
         id="path147" />
    </g>
    <g
       id="line2d_47">
      <path
         d="m 438.08899,336.22476 c -14.71392,8.49514 -29.42794,16.99013 -44.14181,25.48536"
         style="fill:none;stroke:#000000;stroke-width:0.5;stroke-linecap:square"
         clip-path="url(#p4379d6060f)"
         id="path150" />
    </g>
    <g
       id="line2d_48">
      <path
         d="m 433.19658,330.57549 c -15.93708,9.20123 -31.87407,18.40259 -47.81119,27.60374"
         style="fill:none;stroke:#000000;stroke-width:0.5;stroke-linecap:square"
         clip-path="url(#p4379d6060f)"
         id="path153" />
    </g>
    <g
       id="line2d_49">
      <path
         d="m 428.7934,324.64375 c -17.16014,9.90745 -34.32034,19.81481 -51.48046,29.7223"
         style="fill:none;stroke:#000000;stroke-width:0.5;stroke-linecap:square"
         clip-path="url(#p4379d6060f)"
         id="path156" />
    </g>
    <g
       id="line2d_50">
      <path
         d="m 424.87947,318.42955 c -18.38323,10.61362 -36.76655,21.22708 -55.14973,31.84079"
         style="fill:none;stroke:#000000;stroke-width:0.5;stroke-linecap:square"
         clip-path="url(#p4379d6060f)"
         id="path159" />
    </g>
    <g
       id="line2d_51">
      <path
         d="m 414.11616,316.16984 c -17.1601,9.90746 -34.32033,19.81472 -51.48036,29.7223"
         style="fill:none;stroke:#000000;stroke-width:0.5;stroke-linecap:square"
         clip-path="url(#p4379d6060f)"
         id="path162" />
    </g>
    <g
       id="line2d_52">
      <path
         d="m 403.84209,313.62767 c -15.93707,9.20123 -31.87407,18.40259 -47.81119,27.60374"
         style="fill:none;stroke:#000000;stroke-width:0.5;stroke-linecap:square"
         clip-path="url(#p4379d6060f)"
         id="path165" />
    </g>
    <g
       id="line2d_53">
      <path
         d="m 394.05726,310.80303 c -14.71393,8.49513 -29.42793,16.99015 -44.14182,25.48535"
         style="fill:none;stroke:#000000;stroke-width:0.5;stroke-linecap:square"
         clip-path="url(#p4379d6060f)"
         id="path168" />
    </g>
    <g
       id="line2d_54">
      <path
         d="m 384.76167,307.69593 c -13.49084,7.78897 -26.98172,15.57786 -40.47254,23.36687"
         style="fill:none;stroke:#000000;stroke-width:0.5;stroke-linecap:square"
         clip-path="url(#p4379d6060f)"
         id="path171" />
    </g>
    <g
       id="line2d_55">
      <path
         d="m 375.95533,304.30637 c -12.26772,7.08274 -24.53539,14.16556 -36.80313,21.24826"
         style="fill:none;stroke:#000000;stroke-width:0.5;stroke-linecap:square"
         clip-path="url(#p4379d6060f)"
         id="path174" />
    </g>
    <g
       id="line2d_56">
      <path
         d="m 367.63822,300.63434 c -11.04457,6.3768 -22.08951,12.75298 -33.13387,19.13014"
         style="fill:none;stroke:#000000;stroke-width:0.5;stroke-linecap:square"
         clip-path="url(#p4379d6060f)"
         id="path177" />
    </g>
    <g
       id="line2d_57">
      <path
         d="m 359.81036,296.67985 c -9.82145,5.67065 -19.6433,11.3406 -29.46451,17.01167"
         style="fill:none;stroke:#000000;stroke-width:0.5;stroke-linecap:square"
         clip-path="url(#p4379d6060f)"
         id="path180" />
    </g>
    <g
       id="line2d_58">
      <path
         d="m 352.47174,292.44289 c -8.59839,4.96443 -17.19704,9.92844 -25.79528,14.89311"
         style="fill:none;stroke:#000000;stroke-width:0.5;stroke-linecap:square"
         clip-path="url(#p4379d6060f)"
         id="path183" />
    </g>
    <g
       id="line2d_59">
      <path
         d="m 345.62236,287.92347 c -7.37526,4.2584 -14.75101,8.51596 -22.12599,12.77483"
         style="fill:none;stroke:#000000;stroke-width:0.5;stroke-linecap:square"
         clip-path="url(#p4379d6060f)"
         id="path186" />
    </g>
    <g
       id="line2d_60">
      <path
         d="m 339.26222,283.12159 c -6.15209,3.55173 -12.30387,7.104 -18.45615,10.65541"
         style="fill:none;stroke:#000000;stroke-width:0.5;stroke-linecap:square"
         clip-path="url(#p4379d6060f)"
         id="path189" />
    </g>
    <g
       id="line2d_61">
      <path
         d="m 333.39132,278.03724 c -4.92935,2.84541 -9.8578,5.69247 -14.78767,8.53692"
         style="fill:none;stroke:#000000;stroke-width:0.5;stroke-linecap:square"
         clip-path="url(#p4379d6060f)"
         id="path192" />
    </g>
    <g
       id="line2d_62">
      <path
         d="m 328.00966,272.67043 c -3.70608,2.13962 -7.41203,4.27953 -11.11818,6.41899"
         style="fill:none;stroke:#000000;stroke-width:0.5;stroke-linecap:square"
         clip-path="url(#p4379d6060f)"
         id="path195" />
    </g>
    <g
       id="line2d_63">
      <path
         d="m 323.11725,267.02116 c -2.48298,1.43346 -4.96584,2.86721 -7.44889,4.30049"
         style="fill:none;stroke:#000000;stroke-width:0.5;stroke-linecap:square"
         clip-path="url(#p4379d6060f)"
         id="path198" />
    </g>
    <g
       id="line2d_64">
      <path
         d="m 318.71408,261.08942 c -1.26,0.72727 -2.5199,1.45486 -3.78005,2.1818"
         style="fill:none;stroke:#000000;stroke-width:0.5;stroke-linecap:square"
         clip-path="url(#p4379d6060f)"
         id="path201" />
    </g>
    <g
       id="line2d_65">
      <path
         d="m 314.80015,254.87522 c -0.0368,0.0199 -0.0701,0.0455 -0.10755,0.0642"
         style="fill:none;stroke:#000000;stroke-width:0.5;stroke-linecap:square"
         clip-path="url(#p4379d6060f)"
         id="path204" />
    </g>
    <g
       id="line2d_66">
      <path
         d="m 534.84872,382.04743 c -35.1819,-0.12868 -70.56637,-2.22148 -105.00795,-9.77968 -23.85082,-5.28655 -47.47092,-13.31753 -67.9469,-26.89916 -14.04523,-9.39726 -26.31872,-21.74255 -34.42331,-36.65741 -8.76494,-15.85478 -12.56636,-34.07664 -12.73126,-52.09527 -0.0164,-0.55904 -0.0328,-1.11809 -0.0492,-1.67713"
         style="fill:none;stroke:#000000;stroke-width:0.8;stroke-dasharray:2.96, 1.28;stroke-dashoffset:0"
         clip-path="url(#p4379d6060f)"
         id="path207" />
    </g>
    <g
       id="line2d_67">
      <path
         d="m 534.87624,382.03155 c -32.5856,-1.3862 -65.33411,-4.83478 -96.73937,-13.98263 -19.38035,-5.67496 -38.26298,-13.75685 -54.61971,-25.73883 -15.83677,-7.21787 -30.92076,-16.68446 -42.77325,-29.5605 -12.46413,-13.1981 -20.8671,-30.0433 -24.38146,-47.82411 -0.78241,-3.29018 -1.09374,-6.66947 -1.64486,-10.00259"
         style="fill:none;stroke:#008000;stroke-width:0.8;stroke-dasharray:2.96, 1.28;stroke-dashoffset:0"
         clip-path="url(#p4379d6060f)"
         id="path210" />
    </g>
    <g
       id="line2d_68">
      <path
         d="m 534.9588,381.98388 c -23.35381,-4.62181 -46.5876,-11.372 -67.42808,-23.11165 -16.71841,-9.32633 -31.73979,-22.30867 -41.64066,-38.83816 -0.5857,-2.12893 -2.82832,-1.87619 -4.56497,-2.35075 -24.30203,-4.96835 -48.41569,-12.60054 -69.61121,-25.74049 -14.45006,-9.04638 -27.30487,-20.99685 -36.06444,-35.71918 -0.2831,-0.44948 -0.56619,-0.89895 -0.84929,-1.34843"
         style="fill:none;stroke:#000000;stroke-width:0.8;stroke-dasharray:2.96, 1.28;stroke-dashoffset:0"
         clip-path="url(#p4379d6060f)"
         id="path213" />
    </g>
    <g
       id="line2d_69">
      <path
         d="m 534.87624,477.36304 c -32.5856,-1.38621 -65.33411,-4.83477 -96.73937,-13.98262 -19.38034,-5.67498 -38.26299,-13.75685 -54.61971,-25.73884 -15.83677,-7.21786 -30.92076,-16.68446 -42.77325,-29.5605 -12.46412,-13.19809 -20.8671,-30.0433 -24.38145,-47.8241 -0.78242,-3.29019 -1.09375,-6.66947 -1.64487,-10.0026"
         style="fill:none;stroke:#008000;stroke-width:0.8;stroke-dasharray:2.96, 1.28;stroke-dashoffset:0"
         clip-path="url(#p4379d6060f)"
         id="path216" />
    </g>
    <g
       id="line2d_70">
      <path
         d="m 534.84872,477.37893 c -35.1819,-0.1287 -70.56637,-2.22148 -105.00795,-9.77969 -23.85082,-5.28656 -47.47092,-13.31752 -67.9469,-26.89915 -14.04521,-9.39728 -26.31873,-21.74255 -34.4233,-36.65741 -8.76496,-15.85478 -12.56636,-34.07665 -12.73127,-52.09528 -0.0164,-0.55904 -0.0328,-1.11809 -0.0492,-1.67713"
         style="fill:none;stroke:#ff0000;stroke-width:0.8;stroke-dasharray:2.96, 1.28;stroke-dashoffset:0"
         clip-path="url(#p4379d6060f)"
         id="path219" />
    </g>
    <g
       id="line2d_71">
      <path
         d="M 617.40821,334.38169 C 544.022,292.01213 470.63578,249.64258 397.24956,207.27303"
         style="fill:none;stroke:#008000;stroke-width:0.8;stroke-dasharray:2.96, 1.28;stroke-dashoffset:0"
         clip-path="url(#p4379d6060f)"
         id="path222" />
    </g>
    <g
       id="line2d_72">
      <path
         d="M 617.40821,334.38169 C 544.022,292.01213 470.63578,249.64258 397.24956,207.27303"
         style="fill:none;stroke:#ff0000;stroke-width:0.8;stroke-dasharray:2.96, 1.28;stroke-dashoffset:0"
         clip-path="url(#p4379d6060f)"
         id="path225" />
    </g>
    <g
       id="Poly3DCollection_1">
      <path
         d="m 534.84872,477.37893 c -35.1819,-0.1287 -70.56637,-2.22148 -105.00795,-9.77969 -23.85082,-5.28656 -47.47092,-13.31752 -67.9469,-26.89915 -14.04521,-9.39728 -26.31873,-21.74255 -34.4233,-36.65741 -7.60514,-13.74223 -11.46245,-29.31263 -12.48893,-44.92466 -0.0835,-2.94433 -0.34138,-6.0701 -0.18149,-8.91125 7.30136,12.47791 17.35677,23.24445 29.0514,31.71129 18.18324,13.30236 39.52221,21.57372 61.16572,27.33193 6.57239,1.71517 13.20619,3.16171 19.8622,4.5111 7.30137,12.47791 17.35677,23.24445 29.0514,31.7113 18.18324,13.30236 39.52222,21.57372 61.16573,27.33193 6.57239,1.71517 13.20619,3.16171 19.8622,4.5111 z"
         style="fill-opacity:0.25"
         clip-path="url(#p4379d6060f)"
         id="path228" />
    </g>
  </g>
  <defs
     id="defs236">
    <clipPath
       id="p4379d6060f">
      <rect
         id="rect233"
         y="0"
         x="0"
         width="720"
         height="720" />
    </clipPath>
  </defs>
</svg>
