<?xml version="1.0" encoding="UTF-8" standalone="no"?>
<svg
   xmlns:dc="http://purl.org/dc/elements/1.1/"
   xmlns:cc="http://creativecommons.org/ns#"
   xmlns:rdf="http://www.w3.org/1999/02/22-rdf-syntax-ns#"
   xmlns:svg="http://www.w3.org/2000/svg"
   xmlns="http://www.w3.org/2000/svg"
   xmlns:sodipodi="http://sodipodi.sourceforge.net/DTD/sodipodi-0.dtd"
   xmlns:inkscape="http://www.inkscape.org/namespaces/inkscape"
   inkscape:version="1.0 (4035a4fb49, 2020-05-01)"
   sodipodi:docname="manta2_canopy_chords.svg"
   id="svg238"
   width="441.41013pt"
   viewBox="0 0 441.41013 414.19595"
   version="1.1"
   height="414.19595pt">
  <metadata
     id="metadata242">
    <rdf:RDF>
      <cc:Work
         rdf:about="">
        <dc:format>image/svg+xml</dc:format>
        <dc:type
           rdf:resource="http://purl.org/dc/dcmitype/StillImage" />
      </cc:Work>
    </rdf:RDF>
  </metadata>
  <sodipodi:namedview
     inkscape:current-layer="svg238"
     inkscape:window-maximized="0"
     inkscape:window-y="27"
     inkscape:window-x="0"
     inkscape:cy="310.28839"
     inkscape:cx="207.91423"
     inkscape:zoom="1.06875"
     showgrid="false"
     id="namedview240"
     inkscape:window-height="1198"
     inkscape:window-width="1396"
     inkscape:pageshadow="2"
     inkscape:pageopacity="0"
     guidetolerance="10"
     gridtolerance="10"
     objecttolerance="10"
     borderopacity="1"
     bordercolor="#666666"
     pagecolor="#ffffff" />
  <defs
     id="defs4">
    <style
       id="style2"
       type="text/css">
*{stroke-linecap:butt;stroke-linejoin:round;}
  </style>
  </defs>
  <g
     transform="translate(-204.06433,-127.28371)"
     id="axes_1">
    <g
       id="line2d_1">
      <path
         d="M 644.92804,445.60176 C 553.19527,392.63982 461.4625,339.67788 369.72973,286.71594"
         style="fill:none;stroke:#d3d3d3;stroke-width:0.8;stroke-linecap:square"
         clip-path="url(#p699a973199)"
         id="path12" />
    </g>
    <g
       id="line2d_2">
      <path
         d="M 617.40821,461.49034 C 525.67544,408.5284 433.94267,355.56646 342.2099,302.60452"
         style="fill:none;stroke:#d3d3d3;stroke-width:0.8;stroke-linecap:square"
         clip-path="url(#p699a973199)"
         id="path15" />
    </g>
    <g
       id="line2d_3">
      <path
         d="M 589.88838,477.37893 C 498.15561,424.41699 406.42284,371.45505 314.69007,318.49311"
         style="fill:none;stroke:#d3d3d3;stroke-width:0.8;stroke-linecap:square"
         clip-path="url(#p699a973199)"
         id="path18" />
    </g>
    <g
       id="line2d_4">
      <path
         d="M 562.36855,493.26751 C 470.63578,440.30557 378.903,387.34363 287.17023,334.38169"
         style="fill:none;stroke:#d3d3d3;stroke-width:0.8;stroke-linecap:square"
         clip-path="url(#p699a973199)"
         id="path21" />
    </g>
    <g
       id="line2d_5">
      <path
         d="M 534.84872,509.15609 C 443.11595,456.19415 351.38317,403.23221 259.6504,350.27027"
         style="fill:none;stroke:#d3d3d3;stroke-width:0.8;stroke-linecap:square"
         clip-path="url(#p699a973199)"
         id="path24" />
    </g>
    <g
       id="line2d_6">
      <path
         d="M 507.32889,525.04467 C 415.59612,472.08273 323.86334,419.12079 232.13057,366.15885"
         style="fill:none;stroke:#d3d3d3;stroke-width:0.8;stroke-linecap:square"
         clip-path="url(#p699a973199)"
         id="path27" />
    </g>
    <g
       id="line2d_7">
      <path
         d="M 479.80906,540.93326 C 388.07629,487.97132 296.34351,435.00937 204.61074,382.04743"
         style="fill:none;stroke:#d3d3d3;stroke-width:0.8;stroke-linecap:square"
         clip-path="url(#p699a973199)"
         id="path30" />
    </g>
    <g
       id="line2d_8">
      <path
         d="m 644.92804,445.60176 c -55.03966,31.77717 -110.07932,63.55433 -165.11898,95.3315"
         style="fill:none;stroke:#d3d3d3;stroke-width:0.8;stroke-linecap:square"
         clip-path="url(#p699a973199)"
         id="path33" />
    </g>
    <g
       id="line2d_9">
      <path
         d="m 644.92804,286.71594 c 0,52.96194 0,105.92388 0,158.88582"
         style="fill:none;stroke:#d3d3d3;stroke-width:0.8;stroke-linecap:square"
         clip-path="url(#p699a973199)"
         id="path36" />
    </g>
    <g
       id="line2d_10">
      <path
         d="m 617.40821,429.71318 c -55.03966,31.77716 -110.07933,63.55433 -165.11899,95.33149"
         style="fill:none;stroke:#d3d3d3;stroke-width:0.8;stroke-linecap:square"
         clip-path="url(#p699a973199)"
         id="path39" />
    </g>
    <g
       id="line2d_11">
      <path
         d="m 617.40821,270.82736 c 0,52.96194 0,105.92388 0,158.88582"
         style="fill:none;stroke:#d3d3d3;stroke-width:0.8;stroke-linecap:square"
         clip-path="url(#p699a973199)"
         id="path42" />
    </g>
    <g
       id="line2d_12">
      <path
         d="m 589.88838,413.8246 c -55.03966,31.77716 -110.07933,63.55433 -165.11899,95.33149"
         style="fill:none;stroke:#d3d3d3;stroke-width:0.8;stroke-linecap:square"
         clip-path="url(#p699a973199)"
         id="path45" />
    </g>
    <g
       id="line2d_13">
      <path
         d="m 589.88838,254.93878 c 0,52.96194 0,105.92388 0,158.88582"
         style="fill:none;stroke:#d3d3d3;stroke-width:0.8;stroke-linecap:square"
         clip-path="url(#p699a973199)"
         id="path48" />
    </g>
    <g
       id="line2d_14">
      <path
         d="m 562.36855,397.93602 c -55.03966,31.77716 -110.07933,63.55433 -165.11899,95.33149"
         style="fill:none;stroke:#d3d3d3;stroke-width:0.8;stroke-linecap:square"
         clip-path="url(#p699a973199)"
         id="path51" />
    </g>
    <g
       id="line2d_15">
      <path
         d="m 562.36855,239.05019 c 0,52.96194 0,105.92389 0,158.88583"
         style="fill:none;stroke:#d3d3d3;stroke-width:0.8;stroke-linecap:square"
         clip-path="url(#p699a973199)"
         id="path54" />
    </g>
    <g
       id="line2d_16">
      <path
         d="m 534.84872,382.04743 c -55.03966,31.77717 -110.07933,63.55433 -165.11899,95.3315"
         style="fill:none;stroke:#d3d3d3;stroke-width:0.8;stroke-linecap:square"
         clip-path="url(#p699a973199)"
         id="path57" />
    </g>
    <g
       id="line2d_17">
      <path
         d="m 534.84872,223.16161 c 0,52.96194 0,105.92388 0,158.88582"
         style="fill:none;stroke:#d3d3d3;stroke-width:0.8;stroke-linecap:square"
         clip-path="url(#p699a973199)"
         id="path60" />
    </g>
    <g
       id="line2d_18">
      <path
         d="M 507.32889,366.15885 C 452.28923,397.93601 397.24956,429.71318 342.2099,461.49034"
         style="fill:none;stroke:#d3d3d3;stroke-width:0.8;stroke-linecap:square"
         clip-path="url(#p699a973199)"
         id="path63" />
    </g>
    <g
       id="line2d_19">
      <path
         d="m 507.32889,207.27303 c 0,52.96194 0,105.92388 0,158.88582"
         style="fill:none;stroke:#d3d3d3;stroke-width:0.8;stroke-linecap:square"
         clip-path="url(#p699a973199)"
         id="path66" />
    </g>
    <g
       id="line2d_20">
      <path
         d="M 479.80906,350.27027 C 424.7694,382.04743 369.72973,413.8246 314.69007,445.60176"
         style="fill:none;stroke:#d3d3d3;stroke-width:0.8;stroke-linecap:square"
         clip-path="url(#p699a973199)"
         id="path69" />
    </g>
    <g
       id="line2d_21">
      <path
         d="m 479.80906,191.38445 c 0,52.96194 0,105.92388 0,158.88582"
         style="fill:none;stroke:#d3d3d3;stroke-width:0.8;stroke-linecap:square"
         clip-path="url(#p699a973199)"
         id="path72" />
    </g>
    <g
       id="line2d_22">
      <path
         d="m 452.28922,334.38169 c -55.03966,31.77716 -110.07933,63.55433 -165.11899,95.33149"
         style="fill:none;stroke:#d3d3d3;stroke-width:0.8;stroke-linecap:square"
         clip-path="url(#p699a973199)"
         id="path75" />
    </g>
    <g
       id="line2d_23">
      <path
         d="m 452.28922,175.49587 c 0,52.96194 0,105.92388 0,158.88582"
         style="fill:none;stroke:#d3d3d3;stroke-width:0.8;stroke-linecap:square"
         clip-path="url(#p699a973199)"
         id="path78" />
    </g>
    <g
       id="line2d_24">
      <path
         d="M 424.76939,318.49311 C 369.72973,350.27027 314.69006,382.04744 259.6504,413.8246"
         style="fill:none;stroke:#d3d3d3;stroke-width:0.8;stroke-linecap:square"
         clip-path="url(#p699a973199)"
         id="path81" />
    </g>
    <g
       id="line2d_25">
      <path
         d="m 424.76939,159.60728 c 0,52.96194 0,105.92389 0,158.88583"
         style="fill:none;stroke:#d3d3d3;stroke-width:0.8;stroke-linecap:square"
         clip-path="url(#p699a973199)"
         id="path84" />
    </g>
    <g
       id="line2d_26">
      <path
         d="m 397.24956,302.60452 c -55.03966,31.77717 -110.07933,63.55433 -165.11899,95.3315"
         style="fill:none;stroke:#d3d3d3;stroke-width:0.8;stroke-linecap:square"
         clip-path="url(#p699a973199)"
         id="path87" />
    </g>
    <g
       id="line2d_27">
      <path
         d="m 397.24956,143.7187 c 0,52.96194 0,105.92388 0,158.88582"
         style="fill:none;stroke:#d3d3d3;stroke-width:0.8;stroke-linecap:square"
         clip-path="url(#p699a973199)"
         id="path90" />
    </g>
    <g
       id="line2d_28">
      <path
         d="M 369.72973,286.71594 C 314.69007,318.4931 259.6504,350.27027 204.61074,382.04743"
         style="fill:none;stroke:#d3d3d3;stroke-width:0.8;stroke-linecap:square"
         clip-path="url(#p699a973199)"
         id="path93" />
    </g>
    <g
       id="line2d_29">
      <path
         d="m 369.72973,127.83012 c 0,52.96194 0,105.92388 0,158.88582"
         style="fill:none;stroke:#d3d3d3;stroke-width:0.8;stroke-linecap:square"
         clip-path="url(#p699a973199)"
         id="path96" />
    </g>
    <g
       id="line2d_30">
      <path
         d="M 644.92804,286.71594 C 553.19527,233.754 461.4625,180.79206 369.72973,127.83012"
         style="fill:none;stroke:#d3d3d3;stroke-width:0.8;stroke-linecap:square"
         clip-path="url(#p699a973199)"
         id="path99" />
    </g>
    <g
       id="line2d_31">
      <path
         d="M 644.92804,318.49311 C 553.19527,265.53117 461.4625,212.56922 369.72973,159.60728"
         style="fill:none;stroke:#d3d3d3;stroke-width:0.8;stroke-linecap:square"
         clip-path="url(#p699a973199)"
         id="path102" />
    </g>
    <g
       id="line2d_32">
      <path
         d="M 644.92804,350.27027 C 553.19527,297.30833 461.4625,244.34639 369.72973,191.38445"
         style="fill:none;stroke:#d3d3d3;stroke-width:0.8;stroke-linecap:square"
         clip-path="url(#p699a973199)"
         id="path105" />
    </g>
    <g
       id="line2d_33">
      <path
         d="M 644.92804,382.04743 C 553.19527,329.08549 461.4625,276.12355 369.72973,223.16161"
         style="fill:none;stroke:#d3d3d3;stroke-width:0.8;stroke-linecap:square"
         clip-path="url(#p699a973199)"
         id="path108" />
    </g>
    <g
       id="line2d_34">
      <path
         d="M 644.92804,413.8246 C 553.19527,360.86266 461.4625,307.90072 369.72973,254.93878"
         style="fill:none;stroke:#d3d3d3;stroke-width:0.8;stroke-linecap:square"
         clip-path="url(#p699a973199)"
         id="path111" />
    </g>
    <g
       id="line2d_35">
      <path
         d="m 562.47863,366.0953 c -0.0369,0.0204 -0.0707,0.0455 -0.10855,0.0642"
         style="fill:none;stroke:#000000;stroke-width:0.5;stroke-linecap:square"
         clip-path="url(#p699a973199)"
         id="path114" />
    </g>
    <g
       id="line2d_36">
      <path
         d="m 549.88066,364.89483 c -1.26009,0.72725 -2.51995,1.45501 -3.78015,2.182"
         style="fill:none;stroke:#000000;stroke-width:0.5;stroke-linecap:square"
         clip-path="url(#p699a973199)"
         id="path117" />
    </g>
    <g
       id="line2d_37">
      <path
         d="m 537.77194,363.41189 c -2.48298,1.43346 -4.96584,2.86721 -7.44889,4.30049"
         style="fill:none;stroke:#000000;stroke-width:0.5;stroke-linecap:square"
         clip-path="url(#p699a973199)"
         id="path120" />
    </g>
    <g
       id="line2d_38">
      <path
         d="m 526.15245,361.6465 c -3.7061,2.13955 -7.41196,4.27959 -11.11818,6.41888"
         style="fill:none;stroke:#000000;stroke-width:0.5;stroke-linecap:square"
         clip-path="url(#p699a973199)"
         id="path123" />
    </g>
    <g
       id="line2d_39">
      <path
         d="m 515.02221,359.59863 c -4.92942,2.84543 -9.85792,5.69256 -14.78788,8.53702"
         style="fill:none;stroke:#000000;stroke-width:0.5;stroke-linecap:square"
         clip-path="url(#p699a973199)"
         id="path126" />
    </g>
    <g
       id="line2d_40">
      <path
         d="m 504.38121,357.26831 c -6.1521,3.55172 -12.30387,7.10401 -18.45616,10.65541"
         style="fill:none;stroke:#000000;stroke-width:0.5;stroke-linecap:square"
         clip-path="url(#p699a973199)"
         id="path129" />
    </g>
    <g
       id="line2d_41">
      <path
         d="m 494.22945,354.65552 c -7.37526,4.25839 -14.75102,8.51595 -22.12599,12.77483"
         style="fill:none;stroke:#000000;stroke-width:0.5;stroke-linecap:square"
         clip-path="url(#p699a973199)"
         id="path132" />
    </g>
    <g
       id="line2d_42">
      <path
         d="m 484.56693,351.76027 c -8.5984,4.96441 -17.19703,9.92844 -25.79528,14.8931"
         style="fill:none;stroke:#000000;stroke-width:0.5;stroke-linecap:square"
         clip-path="url(#p699a973199)"
         id="path135" />
    </g>
    <g
       id="line2d_43">
      <path
         d="m 475.39365,348.58255 c -9.82143,5.67071 -19.64339,11.34052 -29.46451,17.01177"
         style="fill:none;stroke:#000000;stroke-width:0.5;stroke-linecap:square"
         clip-path="url(#p699a973199)"
         id="path138" />
    </g>
    <g
       id="line2d_44">
      <path
         d="m 466.70962,345.12237 c -11.04458,6.37679 -22.08951,12.75298 -33.13387,19.13014"
         style="fill:none;stroke:#000000;stroke-width:0.5;stroke-linecap:square"
         clip-path="url(#p699a973199)"
         id="path141" />
    </g>
    <g
       id="line2d_45">
      <path
         d="m 458.51482,341.37973 c -12.26776,7.08272 -24.5354,14.16564 -36.80322,21.24826"
         style="fill:none;stroke:#000000;stroke-width:0.5;stroke-linecap:square"
         clip-path="url(#p699a973199)"
         id="path144" />
    </g>
    <g
       id="line2d_46">
      <path
         d="m 450.80927,337.35462 c -13.49085,7.78896 -26.98172,15.57787 -40.47255,23.36686"
         style="fill:none;stroke:#000000;stroke-width:0.5;stroke-linecap:square"
         clip-path="url(#p699a973199)"
         id="path147" />
    </g>
    <g
       id="line2d_47">
      <path
         d="m 443.59296,333.04705 c -14.71393,8.49513 -29.42794,16.99014 -44.14182,25.48535"
         style="fill:none;stroke:#000000;stroke-width:0.5;stroke-linecap:square"
         clip-path="url(#p699a973199)"
         id="path150" />
    </g>
    <g
       id="line2d_48">
      <path
         d="m 436.86589,328.45701 c -15.93707,9.20123 -31.87407,18.40259 -47.81119,27.60374"
         style="fill:none;stroke:#000000;stroke-width:0.5;stroke-linecap:square"
         clip-path="url(#p699a973199)"
         id="path153" />
    </g>
    <g
       id="line2d_49">
      <path
         d="m 430.62806,323.58451 c -17.16014,9.90745 -34.32034,19.81481 -51.48046,29.7223"
         style="fill:none;stroke:#000000;stroke-width:0.5;stroke-linecap:square"
         clip-path="url(#p699a973199)"
         id="path156" />
    </g>
    <g
       id="line2d_50">
      <path
         d="m 424.87947,318.42955 c -18.38323,10.61362 -36.76655,21.22708 -55.14973,31.84079"
         style="fill:none;stroke:#000000;stroke-width:0.5;stroke-linecap:square"
         clip-path="url(#p699a973199)"
         id="path159" />
    </g>
    <g
       id="line2d_51">
      <path
         d="m 415.95082,315.1106 c -17.16015,9.90745 -34.32034,19.8148 -51.48046,29.7223"
         style="fill:none;stroke:#000000;stroke-width:0.5;stroke-linecap:square"
         clip-path="url(#p699a973199)"
         id="path162" />
    </g>
    <g
       id="line2d_52">
      <path
         d="m 407.5114,311.50919 c -15.93707,9.20123 -31.87407,18.40259 -47.81119,27.60374"
         style="fill:none;stroke:#000000;stroke-width:0.5;stroke-linecap:square"
         clip-path="url(#p699a973199)"
         id="path165" />
    </g>
    <g
       id="line2d_53">
      <path
         d="m 399.56123,307.62532 c -14.71394,8.49512 -29.42794,16.99014 -44.14182,25.48535"
         style="fill:none;stroke:#000000;stroke-width:0.5;stroke-linecap:square"
         clip-path="url(#p699a973199)"
         id="path168" />
    </g>
    <g
       id="line2d_54">
      <path
         d="m 392.1003,303.45898 c -13.49085,7.78896 -26.98173,15.57786 -40.47255,23.36686"
         style="fill:none;stroke:#000000;stroke-width:0.5;stroke-linecap:square"
         clip-path="url(#p699a973199)"
         id="path171" />
    </g>
    <g
       id="line2d_55">
      <path
         d="m 385.1286,299.01017 c -12.26771,7.08276 -24.53539,14.16555 -36.80312,21.24827"
         style="fill:none;stroke:#000000;stroke-width:0.5;stroke-linecap:square"
         clip-path="url(#p699a973199)"
         id="path174" />
    </g>
    <g
       id="line2d_56">
      <path
         d="m 378.64616,294.27891 c -11.04458,6.37679 -22.08951,12.75297 -33.13387,19.13014"
         style="fill:none;stroke:#000000;stroke-width:0.5;stroke-linecap:square"
         clip-path="url(#p699a973199)"
         id="path177" />
    </g>
    <g
       id="line2d_57">
      <path
         d="m 372.65295,289.26518 c -9.82145,5.67065 -19.64331,11.34061 -29.46452,17.01167"
         style="fill:none;stroke:#000000;stroke-width:0.5;stroke-linecap:square"
         clip-path="url(#p699a973199)"
         id="path180" />
    </g>
    <g
       id="line2d_58">
      <path
         d="m 367.14898,283.96898 c -8.5984,4.96442 -17.19702,9.92845 -25.79528,14.8931"
         style="fill:none;stroke:#000000;stroke-width:0.5;stroke-linecap:square"
         clip-path="url(#p699a973199)"
         id="path183" />
    </g>
    <g
       id="line2d_59">
      <path
         d="m 362.13426,278.39033 c -7.37525,4.25845 -14.75111,8.51587 -22.126,12.77493"
         style="fill:none;stroke:#000000;stroke-width:0.5;stroke-linecap:square"
         clip-path="url(#p699a973199)"
         id="path186" />
    </g>
    <g
       id="line2d_60">
      <path
         d="m 357.60877,272.5292 c -6.15209,3.55174 -12.30387,7.10401 -18.45615,10.65541"
         style="fill:none;stroke:#000000;stroke-width:0.5;stroke-linecap:square"
         clip-path="url(#p699a973199)"
         id="path189" />
    </g>
    <g
       id="line2d_61">
      <path
         d="m 353.57253,266.38562 c -4.92941,2.84549 -9.85801,5.69247 -14.78787,8.53712"
         style="fill:none;stroke:#000000;stroke-width:0.5;stroke-linecap:square"
         clip-path="url(#p699a973199)"
         id="path192" />
    </g>
    <g
       id="line2d_62">
      <path
         d="m 350.02553,259.95957 c -3.70609,2.13956 -7.41196,4.27959 -11.11818,6.41888"
         style="fill:none;stroke:#000000;stroke-width:0.5;stroke-linecap:square"
         clip-path="url(#p699a973199)"
         id="path195" />
    </g>
    <g
       id="line2d_63">
      <path
         d="m 346.96777,253.25106 c -2.48304,1.43345 -4.9659,2.86727 -7.44899,4.30059"
         style="fill:none;stroke:#000000;stroke-width:0.5;stroke-linecap:square"
         clip-path="url(#p699a973199)"
         id="path198" />
    </g>
    <g
       id="line2d_64">
      <path
         d="m 344.39925,246.26008 c -1.25998,0.72727 -2.51984,1.45488 -3.77975,2.1822"
         style="fill:none;stroke:#000000;stroke-width:0.5;stroke-linecap:square"
         clip-path="url(#p699a973199)"
         id="path201" />
    </g>
    <g
       id="line2d_65">
      <path
         d="m 342.31998,238.98664 c -0.0368,0.0199 -0.0701,0.0455 -0.10755,0.0642"
         style="fill:none;stroke:#000000;stroke-width:0.5;stroke-linecap:square"
         clip-path="url(#p699a973199)"
         id="path204" />
    </g>
    <g
       id="line2d_66">
      <path
         d="m 562.36855,366.15885 c -43.68172,2.67107 -87.69472,3.23952 -131.19168,-2.23505 -20.83739,-2.66865 -41.53919,-6.86788 -61.44714,-13.65355 -10.15734,-9.87689 -18.3994,-21.79175 -23.47394,-35.05113 -6.96993,-17.74873 -8.48041,-37.21132 -6.84623,-56.08694 0.55835,-6.74149 1.61268,-13.4252 2.80034,-20.08201"
         style="fill:none;stroke:#000000;stroke-width:0.8;stroke-dasharray:2.96, 1.28;stroke-dashoffset:0"
         clip-path="url(#p699a973199)"
         id="path207" />
    </g>
    <g
       id="line2d_67">
      <path
         d="m 562.39607,366.14296 c -40.75196,1.24881 -81.81161,0.31381 -122.02167,-6.96534 -19.54261,-3.6666 -38.96906,-8.80509 -57.0942,-17.05581 -11.63423,-8.73626 -21.76487,-19.62009 -28.83084,-32.38817 -8.78604,-15.68526 -12.72037,-33.72855 -13.00755,-51.61373 -0.15204,-6.37241 0.25003,-12.7383 0.79561,-19.0856"
         style="fill:none;stroke:#008000;stroke-width:0.8;stroke-dasharray:2.96, 1.28;stroke-dashoffset:0"
         clip-path="url(#p699a973199)"
         id="path210" />
    </g>
    <g
       id="line2d_68">
      <path
         d="m 562.47863,366.0953 c -30.13234,-2.61995 -60.37671,-7.43472 -88.77193,-18.18492 -17.80068,-6.78057 -34.83368,-16.19492 -48.71183,-29.37734 -10.62223,-3.91802 -21.18019,-8.26086 -30.98281,-14.0065 -15.75393,-9.01553 -29.91385,-21.30766 -39.56078,-36.80337 -5.59123,-8.83516 -9.52668,-18.62734 -12.1313,-28.73653"
         style="fill:none;stroke:#000000;stroke-width:0.8;stroke-dasharray:2.96, 1.28;stroke-dashoffset:0"
         clip-path="url(#p699a973199)"
         id="path213" />
    </g>
    <g
       id="line2d_69">
      <path
         d="m 562.39607,461.47446 c -40.75196,1.2488 -81.81161,0.31381 -122.02167,-6.96535 -19.54261,-3.66659 -38.96907,-8.80508 -57.0942,-17.05581 -11.63424,-8.73624 -21.76487,-19.62009 -28.83084,-32.38817 -8.78604,-15.68526 -12.72037,-33.72855 -13.00755,-51.61373 -0.15204,-6.37241 0.25003,-12.7383 0.79561,-19.0856"
         style="fill:none;stroke:#008000;stroke-width:0.8;stroke-dasharray:2.96, 1.28;stroke-dashoffset:0"
         clip-path="url(#p699a973199)"
         id="path216" />
    </g>
    <g
       id="line2d_70">
      <path
         d="m 562.42359,461.45857 c -35.1819,-0.12869 -70.56637,-2.22148 -105.00795,-9.77969 -23.85082,-5.28656 -47.47092,-13.31752 -67.9469,-26.89915 -14.04522,-9.39727 -26.31872,-21.74255 -34.4233,-36.65741 -8.76495,-15.85479 -12.56637,-34.07665 -12.73127,-52.09528 -0.0164,-0.55904 -0.0328,-1.11809 -0.0492,-1.67713"
         style="fill:none;stroke:#ff0000;stroke-width:0.8;stroke-dasharray:2.96, 1.28;stroke-dashoffset:0"
         clip-path="url(#p699a973199)"
         id="path219" />
    </g>
    <g
       id="line2d_71">
      <path
         d="M 617.40821,334.38169 C 544.022,292.01213 470.63578,249.64258 397.24956,207.27303"
         style="fill:none;stroke:#008000;stroke-width:0.8;stroke-dasharray:2.96, 1.28;stroke-dashoffset:0"
         clip-path="url(#p699a973199)"
         id="path222" />
    </g>
    <g
       id="line2d_72">
      <path
         d="M 617.40821,334.38169 C 544.022,292.01213 470.63578,249.64258 397.24956,207.27303"
         style="fill:none;stroke:#ff0000;stroke-width:0.8;stroke-dasharray:2.96, 1.28;stroke-dashoffset:0"
         clip-path="url(#p699a973199)"
         id="path225" />
    </g>
    <g
       id="Poly3DCollection_1">
      <path
         d="m 562.36855,461.49034 c -43.68172,2.67107 -87.69472,3.23952 -131.19168,-2.23505 -20.83738,-2.66866 -41.5392,-6.86787 -61.44714,-13.65355 -10.15734,-9.87688 -18.3994,-21.79174 -23.47394,-35.05112 -6.96993,-17.74873 -8.48042,-37.21133 -6.84623,-56.08695 0.61979,-6.74178 1.51,-13.59161 2.91042,-20.1456 3.47496,13.73496 9.6725,26.83023 18.61819,37.8546 11.8859,14.91049 27.98575,25.94992 45.14961,33.97248 6.11659,2.88679 12.4337,5.31633 18.79169,7.61583 13.76776,13.0925 30.63484,22.50767 48.29679,29.26947 25.80321,9.86819 53.22117,14.78503 80.62118,17.56904 2.89373,0.27575 5.78746,0.55149 8.68119,0.82724 z"
         style="fill-opacity:0.25"
         clip-path="url(#p699a973199)"
         id="path228" />
    </g>
  </g>
  <defs
     id="defs236">
    <clipPath
       id="p699a973199">
      <rect
         id="rect233"
         y="0"
         x="0"
         width="720"
         height="720" />
    </clipPath>
  </defs>
</svg>
