<?xml version="1.0" encoding="UTF-8" standalone="no"?>
<svg
   width="595.50958pt"
   height="144.51938pt"
   viewBox="0 0 595.50958 144.51938"
   version="1.1"
   id="svg478"
   sodipodi:docname="polar_27.svg"
   inkscape:version="1.1.2 (0a00cf5339, 2022-02-04)"
   xmlns:inkscape="http://www.inkscape.org/namespaces/inkscape"
   xmlns:sodipodi="http://sodipodi.sourceforge.net/DTD/sodipodi-0.dtd"
   xmlns:xlink="http://www.w3.org/1999/xlink"
   xmlns="http://www.w3.org/2000/svg"
   xmlns:svg="http://www.w3.org/2000/svg"
   xmlns:rdf="http://www.w3.org/1999/02/22-rdf-syntax-ns#"
   xmlns:cc="http://creativecommons.org/ns#"
   xmlns:dc="http://purl.org/dc/elements/1.1/">
  <sodipodi:namedview
     id="namedview480"
     pagecolor="#ffffff"
     bordercolor="#666666"
     borderopacity="1.0"
     inkscape:pageshadow="2"
     inkscape:pageopacity="0.0"
     inkscape:pagecheckerboard="0"
     inkscape:document-units="pt"
     showgrid="false"
     inkscape:snap-page="true"
     inkscape:zoom="1.2322917"
     inkscape:cx="396.01014"
     inkscape:cy="83.584108"
     inkscape:window-width="2560"
     inkscape:window-height="1371"
     inkscape:window-x="0"
     inkscape:window-y="32"
     inkscape:window-maximized="1"
     inkscape:current-layer="svg478" />
  <metadata
     id="metadata2">
    <rdf:RDF>
      <cc:Work>
        <dc:type
           rdf:resource="http://purl.org/dc/dcmitype/StillImage" />
        <dc:date>2022-03-12T18:11:11.244261</dc:date>
        <dc:format>image/svg+xml</dc:format>
        <dc:creator>
          <cc:Agent>
            <dc:title>Matplotlib v3.5.1, https://matplotlib.org/</dc:title>
          </cc:Agent>
        </dc:creator>
      </cc:Work>
    </rdf:RDF>
  </metadata>
  <defs
     id="defs6">
    <style
       type="text/css"
       id="style4">*{stroke-linejoin: round; stroke-linecap: butt}</style>
  </defs>
  <rect
     style="fill:#ffffff;stroke-width:0.75;stroke-linecap:round"
     id="rect1683"
     width="595.50958"
     height="144.51938"
     x="0"
     y="0" />
  <g
     id="axes_1"
     transform="translate(-62.959374,-117.15937)">
    <g
       id="patch_2">
      <path
         d="m 90,231.3225 h 558 v -99.045 H 90 Z"
         style="fill:#ffffff"
         id="path11" />
    </g>
    <g
       id="matplotlib.axis_1">
      <g
         id="xtick_1">
        <g
           id="line2d_1">
          <path
             d="m 90,231.3225 v -99.045"
             clip-path="url(#p16bf7ca05f)"
             style="fill:none;stroke:#b0b0b0;stroke-width:0.8;stroke-linecap:square"
             id="path14" />
        </g>
        <g
           id="line2d_2">
          <defs
             id="defs18">
            <path
               id="mcb87c6f336"
               d="M 0,0 V 3.5"
               style="stroke:#000000;stroke-width:0.8" />
          </defs>
          <g
             id="g22">
            <use
               xlink:href="#mcb87c6f336"
               x="90"
               y="231.32249"
               style="stroke:#000000;stroke-width:0.8"
               id="use20"
               width="100%"
               height="100%" />
          </g>
        </g>
        <g
           id="text_1">
          <!-- 0.0 -->
          <g
             transform="matrix(0.1,0,0,-0.1,82.048438,245.92094)"
             id="g35">
            <defs
               id="defs27">
              <path
                 id="DejaVuSans-30"
                 d="m 2034,4250 q -487,0 -733,-480 -245,-479 -245,-1442 0,-959 245,-1439 246,-480 733,-480 491,0 736,480 246,480 246,1439 0,963 -246,1442 -245,480 -736,480 z m 0,500 q 785,0 1199,-621 414,-620 414,-1801 0,-1178 -414,-1799 -414,-620 -1199,-620 -784,0 -1198,620 -414,621 -414,1799 0,1181 414,1801 414,621 1198,621 z"
                 transform="scale(0.015625)" />
              <path
                 id="DejaVuSans-2e"
                 d="m 684,794 h 660 V 0 H 684 Z"
                 transform="scale(0.015625)" />
            </defs>
            <use
               xlink:href="#DejaVuSans-30"
               id="use29"
               x="0"
               y="0"
               width="100%"
               height="100%" />
            <use
               xlink:href="#DejaVuSans-2e"
               x="63.623047"
               id="use31"
               y="0"
               width="100%"
               height="100%" />
            <use
               xlink:href="#DejaVuSans-30"
               x="95.410156"
               id="use33"
               y="0"
               width="100%"
               height="100%" />
          </g>
        </g>
      </g>
      <g
         id="xtick_2">
        <g
           id="line2d_3">
          <path
             d="m 159.75,231.3225 v -99.045"
             clip-path="url(#p16bf7ca05f)"
             style="fill:none;stroke:#b0b0b0;stroke-width:0.8;stroke-linecap:square"
             id="path39" />
        </g>
        <g
           id="line2d_4">
          <g
             id="g44">
            <use
               xlink:href="#mcb87c6f336"
               x="159.75"
               y="231.32249"
               style="stroke:#000000;stroke-width:0.8"
               id="use42"
               width="100%"
               height="100%" />
          </g>
        </g>
        <g
           id="text_2">
          <!-- 2.5 -->
          <g
             transform="matrix(0.1,0,0,-0.1,151.79844,245.92094)"
             id="g57">
            <defs
               id="defs49">
              <path
                 id="DejaVuSans-32"
                 d="M 1228,531 H 3431 V 0 H 469 v 531 q 359,372 979,998 621,627 780,809 303,340 423,576 121,236 121,464 0,372 -261,606 -261,235 -680,235 -297,0 -627,-103 -329,-103 -704,-313 v 638 q 381,153 712,231 332,78 607,78 725,0 1156,-363 431,-362 431,-968 0,-288 -108,-546 -107,-257 -392,-607 -78,-91 -497,-524 Q 1991,1309 1228,531 Z"
                 transform="scale(0.015625)" />
              <path
                 id="DejaVuSans-35"
                 d="M 691,4666 H 3169 V 4134 H 1269 V 2991 q 137,47 274,70 138,23 276,23 781,0 1237,-428 457,-428 457,-1159 Q 3513,744 3044,326 2575,-91 1722,-91 1428,-91 1123,-41 819,9 494,109 v 635 q 281,-153 581,-228 300,-75 634,-75 541,0 856,284 316,284 316,772 0,487 -316,771 -315,285 -856,285 -253,0 -505,-56 -251,-56 -513,-175 z"
                 transform="scale(0.015625)" />
            </defs>
            <use
               xlink:href="#DejaVuSans-32"
               id="use51"
               x="0"
               y="0"
               width="100%"
               height="100%" />
            <use
               xlink:href="#DejaVuSans-2e"
               x="63.623047"
               id="use53"
               y="0"
               width="100%"
               height="100%" />
            <use
               xlink:href="#DejaVuSans-35"
               x="95.410156"
               id="use55"
               y="0"
               width="100%"
               height="100%" />
          </g>
        </g>
      </g>
      <g
         id="xtick_3">
        <g
           id="line2d_5">
          <path
             d="m 229.5,231.3225 v -99.045"
             clip-path="url(#p16bf7ca05f)"
             style="fill:none;stroke:#b0b0b0;stroke-width:0.8;stroke-linecap:square"
             id="path61" />
        </g>
        <g
           id="line2d_6">
          <g
             id="g66">
            <use
               xlink:href="#mcb87c6f336"
               x="229.5"
               y="231.32249"
               style="stroke:#000000;stroke-width:0.8"
               id="use64"
               width="100%"
               height="100%" />
          </g>
        </g>
        <g
           id="text_3">
          <!-- 5.0 -->
          <g
             transform="matrix(0.1,0,0,-0.1,221.54844,245.92094)"
             id="g75">
            <use
               xlink:href="#DejaVuSans-35"
               id="use69"
               x="0"
               y="0"
               width="100%"
               height="100%" />
            <use
               xlink:href="#DejaVuSans-2e"
               x="63.623047"
               id="use71"
               y="0"
               width="100%"
               height="100%" />
            <use
               xlink:href="#DejaVuSans-30"
               x="95.410156"
               id="use73"
               y="0"
               width="100%"
               height="100%" />
          </g>
        </g>
      </g>
      <g
         id="xtick_4">
        <g
           id="line2d_7">
          <path
             d="m 299.25,231.3225 v -99.045"
             clip-path="url(#p16bf7ca05f)"
             style="fill:none;stroke:#b0b0b0;stroke-width:0.8;stroke-linecap:square"
             id="path79" />
        </g>
        <g
           id="line2d_8">
          <g
             id="g84">
            <use
               xlink:href="#mcb87c6f336"
               x="299.25"
               y="231.32249"
               style="stroke:#000000;stroke-width:0.8"
               id="use82"
               width="100%"
               height="100%" />
          </g>
        </g>
        <g
           id="text_4">
          <!-- 7.5 -->
          <g
             transform="matrix(0.1,0,0,-0.1,291.29844,245.92094)"
             id="g96">
            <defs
               id="defs88">
              <path
                 id="DejaVuSans-37"
                 d="M 525,4666 H 3525 V 4397 L 1831,0 H 1172 L 2766,4134 H 525 Z"
                 transform="scale(0.015625)" />
            </defs>
            <use
               xlink:href="#DejaVuSans-37"
               id="use90"
               x="0"
               y="0"
               width="100%"
               height="100%" />
            <use
               xlink:href="#DejaVuSans-2e"
               x="63.623047"
               id="use92"
               y="0"
               width="100%"
               height="100%" />
            <use
               xlink:href="#DejaVuSans-35"
               x="95.410156"
               id="use94"
               y="0"
               width="100%"
               height="100%" />
          </g>
        </g>
      </g>
      <g
         id="xtick_5">
        <g
           id="line2d_9">
          <path
             d="m 369,231.3225 v -99.045"
             clip-path="url(#p16bf7ca05f)"
             style="fill:none;stroke:#b0b0b0;stroke-width:0.8;stroke-linecap:square"
             id="path100" />
        </g>
        <g
           id="line2d_10">
          <g
             id="g105">
            <use
               xlink:href="#mcb87c6f336"
               x="369"
               y="231.32249"
               style="stroke:#000000;stroke-width:0.8"
               id="use103"
               width="100%"
               height="100%" />
          </g>
        </g>
        <g
           id="text_5">
          <!-- 10.0 -->
          <g
             transform="matrix(0.1,0,0,-0.1,357.86719,245.92094)"
             id="g119">
            <defs
               id="defs109">
              <path
                 id="DejaVuSans-31"
                 d="M 794,531 H 1825 V 4091 L 703,3866 v 575 l 1116,225 h 631 V 531 H 3481 V 0 H 794 Z"
                 transform="scale(0.015625)" />
            </defs>
            <use
               xlink:href="#DejaVuSans-31"
               id="use111"
               x="0"
               y="0"
               width="100%"
               height="100%" />
            <use
               xlink:href="#DejaVuSans-30"
               x="63.623047"
               id="use113"
               y="0"
               width="100%"
               height="100%" />
            <use
               xlink:href="#DejaVuSans-2e"
               x="127.24609"
               id="use115"
               y="0"
               width="100%"
               height="100%" />
            <use
               xlink:href="#DejaVuSans-30"
               x="159.0332"
               id="use117"
               y="0"
               width="100%"
               height="100%" />
          </g>
        </g>
      </g>
      <g
         id="xtick_6">
        <g
           id="line2d_11">
          <path
             d="m 438.75,231.3225 v -99.045"
             clip-path="url(#p16bf7ca05f)"
             style="fill:none;stroke:#b0b0b0;stroke-width:0.8;stroke-linecap:square"
             id="path123" />
        </g>
        <g
           id="line2d_12">
          <g
             id="g128">
            <use
               xlink:href="#mcb87c6f336"
               x="438.75"
               y="231.32249"
               style="stroke:#000000;stroke-width:0.8"
               id="use126"
               width="100%"
               height="100%" />
          </g>
        </g>
        <g
           id="text_6">
          <!-- 12.5 -->
          <g
             transform="matrix(0.1,0,0,-0.1,427.61719,245.92094)"
             id="g139">
            <use
               xlink:href="#DejaVuSans-31"
               id="use131"
               x="0"
               y="0"
               width="100%"
               height="100%" />
            <use
               xlink:href="#DejaVuSans-32"
               x="63.623047"
               id="use133"
               y="0"
               width="100%"
               height="100%" />
            <use
               xlink:href="#DejaVuSans-2e"
               x="127.24609"
               id="use135"
               y="0"
               width="100%"
               height="100%" />
            <use
               xlink:href="#DejaVuSans-35"
               x="159.0332"
               id="use137"
               y="0"
               width="100%"
               height="100%" />
          </g>
        </g>
      </g>
      <g
         id="xtick_7">
        <g
           id="line2d_13">
          <path
             d="m 508.5,231.3225 v -99.045"
             clip-path="url(#p16bf7ca05f)"
             style="fill:none;stroke:#b0b0b0;stroke-width:0.8;stroke-linecap:square"
             id="path143" />
        </g>
        <g
           id="line2d_14">
          <g
             id="g148">
            <use
               xlink:href="#mcb87c6f336"
               x="508.5"
               y="231.32249"
               style="stroke:#000000;stroke-width:0.8"
               id="use146"
               width="100%"
               height="100%" />
          </g>
        </g>
        <g
           id="text_7">
          <!-- 15.0 -->
          <g
             transform="matrix(0.1,0,0,-0.1,497.36719,245.92094)"
             id="g159">
            <use
               xlink:href="#DejaVuSans-31"
               id="use151"
               x="0"
               y="0"
               width="100%"
               height="100%" />
            <use
               xlink:href="#DejaVuSans-35"
               x="63.623047"
               id="use153"
               y="0"
               width="100%"
               height="100%" />
            <use
               xlink:href="#DejaVuSans-2e"
               x="127.24609"
               id="use155"
               y="0"
               width="100%"
               height="100%" />
            <use
               xlink:href="#DejaVuSans-30"
               x="159.0332"
               id="use157"
               y="0"
               width="100%"
               height="100%" />
          </g>
        </g>
      </g>
      <g
         id="xtick_8">
        <g
           id="line2d_15">
          <path
             d="m 578.25,231.3225 v -99.045"
             clip-path="url(#p16bf7ca05f)"
             style="fill:none;stroke:#b0b0b0;stroke-width:0.8;stroke-linecap:square"
             id="path163" />
        </g>
        <g
           id="line2d_16">
          <g
             id="g168">
            <use
               xlink:href="#mcb87c6f336"
               x="578.25"
               y="231.32249"
               style="stroke:#000000;stroke-width:0.8"
               id="use166"
               width="100%"
               height="100%" />
          </g>
        </g>
        <g
           id="text_8">
          <!-- 17.5 -->
          <g
             transform="matrix(0.1,0,0,-0.1,567.11719,245.92094)"
             id="g179">
            <use
               xlink:href="#DejaVuSans-31"
               id="use171"
               x="0"
               y="0"
               width="100%"
               height="100%" />
            <use
               xlink:href="#DejaVuSans-37"
               x="63.623047"
               id="use173"
               y="0"
               width="100%"
               height="100%" />
            <use
               xlink:href="#DejaVuSans-2e"
               x="127.24609"
               id="use175"
               y="0"
               width="100%"
               height="100%" />
            <use
               xlink:href="#DejaVuSans-35"
               x="159.0332"
               id="use177"
               y="0"
               width="100%"
               height="100%" />
          </g>
        </g>
      </g>
      <g
         id="xtick_9">
        <g
           id="line2d_17">
          <path
             d="m 648,231.3225 v -99.045"
             clip-path="url(#p16bf7ca05f)"
             style="fill:none;stroke:#b0b0b0;stroke-width:0.8;stroke-linecap:square"
             id="path183" />
        </g>
        <g
           id="line2d_18">
          <g
             id="g188">
            <use
               xlink:href="#mcb87c6f336"
               x="648"
               y="231.32249"
               style="stroke:#000000;stroke-width:0.8"
               id="use186"
               width="100%"
               height="100%" />
          </g>
        </g>
        <g
           id="text_9">
          <!-- 20.0 -->
          <g
             transform="matrix(0.1,0,0,-0.1,636.86719,245.92094)"
             id="g199">
            <use
               xlink:href="#DejaVuSans-32"
               id="use191"
               x="0"
               y="0"
               width="100%"
               height="100%" />
            <use
               xlink:href="#DejaVuSans-30"
               x="63.623047"
               id="use193"
               y="0"
               width="100%"
               height="100%" />
            <use
               xlink:href="#DejaVuSans-2e"
               x="127.24609"
               id="use195"
               y="0"
               width="100%"
               height="100%" />
            <use
               xlink:href="#DejaVuSans-30"
               x="159.0332"
               id="use197"
               y="0"
               width="100%"
               height="100%" />
          </g>
        </g>
      </g>
      <g
         id="text_10">
        <!-- Horizontal airspeed [m/s] -->
        <g
           transform="matrix(0.1,0,0,-0.1,305.61641,259.59906)"
           id="g273">
          <defs
             id="defs221">
            <path
               id="DejaVuSans-48"
               d="m 628,4666 h 631 V 2753 h 2294 v 1913 h 631 V 0 H 3553 V 2222 H 1259 V 0 H 628 Z"
               transform="scale(0.015625)" />
            <path
               id="DejaVuSans-6f"
               d="m 1959,3097 q -462,0 -731,-361 -269,-361 -269,-989 0,-628 267,-989 268,-361 733,-361 460,0 728,362 269,363 269,988 0,622 -269,986 -268,364 -728,364 z m 0,487 q 750,0 1178,-488 429,-487 429,-1349 Q 3566,888 3137,398 2709,-91 1959,-91 1206,-91 779,398 353,888 353,1747 q 0,862 426,1349 427,488 1180,488 z"
               transform="scale(0.015625)" />
            <path
               id="DejaVuSans-72"
               d="m 2631,2963 q -97,56 -211,82 -114,27 -251,27 -488,0 -749,-317 -261,-317 -261,-911 V 0 H 581 v 3500 h 578 v -544 q 182,319 472,473 291,155 707,155 59,0 131,-8 72,-7 159,-23 z"
               transform="scale(0.015625)" />
            <path
               id="DejaVuSans-69"
               d="m 603,3500 h 575 V 0 H 603 Z m 0,1363 h 575 V 4134 H 603 Z"
               transform="scale(0.015625)" />
            <path
               id="DejaVuSans-7a"
               d="M 353,3500 H 3084 V 2975 L 922,459 H 3084 V 0 H 275 V 525 L 2438,3041 H 353 Z"
               transform="scale(0.015625)" />
            <path
               id="DejaVuSans-6e"
               d="M 3513,2113 V 0 h -575 v 2094 q 0,497 -194,743 -194,247 -581,247 -466,0 -735,-297 -269,-296 -269,-809 V 0 H 581 v 3500 h 578 v -544 q 207,316 486,472 280,156 646,156 603,0 912,-373 310,-373 310,-1098 z"
               transform="scale(0.015625)" />
            <path
               id="DejaVuSans-74"
               d="M 1172,4494 V 3500 H 2356 V 3053 H 1172 V 1153 q 0,-428 117,-550 117,-122 477,-122 h 590 V 0 H 1766 Q 1100,0 847,248 594,497 594,1153 V 3053 H 172 v 447 h 422 v 994 z"
               transform="scale(0.015625)" />
            <path
               id="DejaVuSans-61"
               d="m 2194,1759 q -697,0 -966,-159 -269,-159 -269,-544 0,-306 202,-486 202,-179 548,-179 479,0 768,339 289,339 289,901 v 128 z m 1147,238 V 0 H 2766 V 531 Q 2569,213 2275,61 1981,-91 1556,-91 q -537,0 -855,302 -317,302 -317,808 0,590 395,890 396,300 1180,300 h 807 v 57 q 0,397 -261,614 -261,217 -733,217 -300,0 -585,-72 -284,-72 -546,-216 v 532 q 315,122 612,182 297,61 578,61 760,0 1135,-394 375,-393 375,-1193 z"
               transform="scale(0.015625)" />
            <path
               id="DejaVuSans-6c"
               d="m 603,4863 h 575 V 0 H 603 Z"
               transform="scale(0.015625)" />
            <path
               id="DejaVuSans-20"
               transform="scale(0.015625)"
               d="" />
            <path
               id="DejaVuSans-73"
               d="m 2834,3397 v -544 q -243,125 -506,187 -262,63 -544,63 -428,0 -642,-131 -214,-131 -214,-394 0,-200 153,-314 153,-114 616,-217 l 197,-44 q 612,-131 870,-370 258,-239 258,-667 0,-488 -386,-773 Q 2250,-91 1575,-91 1294,-91 989,-36 684,19 347,128 v 594 q 319,-166 628,-249 309,-82 613,-82 406,0 624,139 219,139 219,392 0,234 -158,359 -157,125 -692,241 l -200,47 q -534,112 -772,345 -237,233 -237,639 0,494 350,762 350,269 994,269 318,0 599,-47 282,-46 519,-140 z"
               transform="scale(0.015625)" />
            <path
               id="DejaVuSans-70"
               d="M 1159,525 V -1331 H 581 v 4831 h 578 v -531 q 182,312 458,463 277,152 661,152 638,0 1036,-506 399,-506 399,-1331 0,-825 -399,-1332 -398,-506 -1036,-506 -384,0 -661,152 -276,152 -458,464 z m 1957,1222 q 0,634 -261,995 -261,361 -717,361 -457,0 -718,-361 -261,-361 -261,-995 0,-634 261,-995 261,-361 718,-361 456,0 717,361 261,361 261,995 z"
               transform="scale(0.015625)" />
            <path
               id="DejaVuSans-65"
               d="M 3597,1894 V 1613 H 953 q 38,-594 358,-905 320,-311 892,-311 331,0 642,81 311,81 618,244 V 178 Q 3153,47 2828,-22 2503,-91 2169,-91 1331,-91 842,396 353,884 353,1716 q 0,859 464,1363 464,505 1252,505 706,0 1117,-455 411,-454 411,-1235 z m -575,169 q -6,471 -264,752 -258,282 -683,282 -481,0 -770,-272 -289,-272 -333,-766 z"
               transform="scale(0.015625)" />
            <path
               id="DejaVuSans-64"
               d="m 2906,2969 v 1894 h 575 V 0 H 2906 V 525 Q 2725,213 2448,61 2172,-91 1784,-91 1150,-91 751,415 353,922 353,1747 q 0,825 398,1331 399,506 1033,506 388,0 664,-152 277,-151 458,-463 z M 947,1747 q 0,-634 261,-995 261,-361 717,-361 456,0 718,361 263,361 263,995 0,634 -263,995 -262,361 -718,361 -456,0 -717,-361 -261,-361 -261,-995 z"
               transform="scale(0.015625)" />
            <path
               id="DejaVuSans-5b"
               d="M 550,4863 H 1875 V 4416 H 1125 V -397 h 750 V -844 H 550 Z"
               transform="scale(0.015625)" />
            <path
               id="DejaVuSans-6d"
               d="m 3328,2828 q 216,388 516,572 300,184 706,184 547,0 844,-383 297,-382 297,-1088 V 0 h -578 v 2094 q 0,503 -179,746 -178,244 -543,244 -447,0 -707,-297 -259,-296 -259,-809 V 0 h -578 v 2094 q 0,506 -178,748 -178,242 -550,242 -441,0 -701,-298 -259,-298 -259,-808 V 0 H 581 v 3500 h 578 v -544 q 197,322 472,475 275,153 653,153 382,0 649,-194 267,-193 395,-562 z"
               transform="scale(0.015625)" />
            <path
               id="DejaVuSans-2f"
               d="m 1625,4666 h 531 L 531,-594 H 0 Z"
               transform="scale(0.015625)" />
            <path
               id="DejaVuSans-5d"
               d="M 1947,4863 V -844 H 622 v 447 h 747 V 4416 H 622 v 447 z"
               transform="scale(0.015625)" />
          </defs>
          <use
             xlink:href="#DejaVuSans-48"
             id="use223"
             x="0"
             y="0"
             width="100%"
             height="100%" />
          <use
             xlink:href="#DejaVuSans-6f"
             x="75.195312"
             id="use225"
             y="0"
             width="100%"
             height="100%" />
          <use
             xlink:href="#DejaVuSans-72"
             x="136.37695"
             id="use227"
             y="0"
             width="100%"
             height="100%" />
          <use
             xlink:href="#DejaVuSans-69"
             x="177.49023"
             id="use229"
             y="0"
             width="100%"
             height="100%" />
          <use
             xlink:href="#DejaVuSans-7a"
             x="205.27344"
             id="use231"
             y="0"
             width="100%"
             height="100%" />
          <use
             xlink:href="#DejaVuSans-6f"
             x="257.76367"
             id="use233"
             y="0"
             width="100%"
             height="100%" />
          <use
             xlink:href="#DejaVuSans-6e"
             x="318.94531"
             id="use235"
             y="0"
             width="100%"
             height="100%" />
          <use
             xlink:href="#DejaVuSans-74"
             x="382.32422"
             id="use237"
             y="0"
             width="100%"
             height="100%" />
          <use
             xlink:href="#DejaVuSans-61"
             x="421.5332"
             id="use239"
             y="0"
             width="100%"
             height="100%" />
          <use
             xlink:href="#DejaVuSans-6c"
             x="482.8125"
             id="use241"
             y="0"
             width="100%"
             height="100%" />
          <use
             xlink:href="#DejaVuSans-20"
             x="510.5957"
             id="use243"
             y="0"
             width="100%"
             height="100%" />
          <use
             xlink:href="#DejaVuSans-61"
             x="542.38281"
             id="use245"
             y="0"
             width="100%"
             height="100%" />
          <use
             xlink:href="#DejaVuSans-69"
             x="603.66211"
             id="use247"
             y="0"
             width="100%"
             height="100%" />
          <use
             xlink:href="#DejaVuSans-72"
             x="631.44531"
             id="use249"
             y="0"
             width="100%"
             height="100%" />
          <use
             xlink:href="#DejaVuSans-73"
             x="672.55859"
             id="use251"
             y="0"
             width="100%"
             height="100%" />
          <use
             xlink:href="#DejaVuSans-70"
             x="724.6582"
             id="use253"
             y="0"
             width="100%"
             height="100%" />
          <use
             xlink:href="#DejaVuSans-65"
             x="788.13477"
             id="use255"
             y="0"
             width="100%"
             height="100%" />
          <use
             xlink:href="#DejaVuSans-65"
             x="849.6582"
             id="use257"
             y="0"
             width="100%"
             height="100%" />
          <use
             xlink:href="#DejaVuSans-64"
             x="911.18164"
             id="use259"
             y="0"
             width="100%"
             height="100%" />
          <use
             xlink:href="#DejaVuSans-20"
             x="974.6582"
             id="use261"
             y="0"
             width="100%"
             height="100%" />
          <use
             xlink:href="#DejaVuSans-5b"
             x="1006.4453"
             id="use263"
             y="0"
             width="100%"
             height="100%" />
          <use
             xlink:href="#DejaVuSans-6d"
             x="1045.459"
             id="use265"
             y="0"
             width="100%"
             height="100%" />
          <use
             xlink:href="#DejaVuSans-2f"
             x="1142.8711"
             id="use267"
             y="0"
             width="100%"
             height="100%" />
          <use
             xlink:href="#DejaVuSans-73"
             x="1176.5625"
             id="use269"
             y="0"
             width="100%"
             height="100%" />
          <use
             xlink:href="#DejaVuSans-5d"
             x="1228.6621"
             id="use271"
             y="0"
             width="100%"
             height="100%" />
        </g>
      </g>
    </g>
    <g
       id="matplotlib.axis_2">
      <g
         id="ytick_1">
        <g
           id="line2d_19">
          <path
             d="M 90,133.6725 H 648"
             clip-path="url(#p16bf7ca05f)"
             style="fill:none;stroke:#b0b0b0;stroke-width:0.8;stroke-linecap:square"
             id="path277" />
        </g>
        <g
           id="line2d_20">
          <defs
             id="defs281">
            <path
               id="mcacf50961f"
               d="M 0,0 H -3.5"
               style="stroke:#000000;stroke-width:0.8" />
          </defs>
          <g
             id="g285">
            <use
               xlink:href="#mcacf50961f"
               x="90"
               y="133.6725"
               style="stroke:#000000;stroke-width:0.8"
               id="use283"
               width="100%"
               height="100%" />
          </g>
        </g>
        <g
           id="text_11">
          <!-- 0 -->
          <g
             transform="matrix(0.1,0,0,-0.1,76.6375,137.47172)"
             id="g290">
            <use
               xlink:href="#DejaVuSans-30"
               id="use288"
               x="0"
               y="0"
               width="100%"
               height="100%" />
          </g>
        </g>
      </g>
      <g
         id="ytick_2">
        <g
           id="line2d_21">
          <path
             d="M 90,161.5725 H 648"
             clip-path="url(#p16bf7ca05f)"
             style="fill:none;stroke:#b0b0b0;stroke-width:0.8;stroke-linecap:square"
             id="path294" />
        </g>
        <g
           id="line2d_22">
          <g
             id="g299">
            <use
               xlink:href="#mcacf50961f"
               x="90"
               y="161.57249"
               style="stroke:#000000;stroke-width:0.8"
               id="use297"
               width="100%"
               height="100%" />
          </g>
        </g>
        <g
           id="text_12">
          <!-- 1 -->
          <g
             transform="matrix(0.1,0,0,-0.1,76.6375,165.37172)"
             id="g304">
            <use
               xlink:href="#DejaVuSans-31"
               id="use302"
               x="0"
               y="0"
               width="100%"
               height="100%" />
          </g>
        </g>
      </g>
      <g
         id="ytick_3">
        <g
           id="line2d_23">
          <path
             d="M 90,189.4725 H 648"
             clip-path="url(#p16bf7ca05f)"
             style="fill:none;stroke:#b0b0b0;stroke-width:0.8;stroke-linecap:square"
             id="path308" />
        </g>
        <g
           id="line2d_24">
          <g
             id="g313">
            <use
               xlink:href="#mcacf50961f"
               x="90"
               y="189.4725"
               style="stroke:#000000;stroke-width:0.8"
               id="use311"
               width="100%"
               height="100%" />
          </g>
        </g>
        <g
           id="text_13">
          <!-- 2 -->
          <g
             transform="matrix(0.1,0,0,-0.1,76.6375,193.27172)"
             id="g318">
            <use
               xlink:href="#DejaVuSans-32"
               id="use316"
               x="0"
               y="0"
               width="100%"
               height="100%" />
          </g>
        </g>
      </g>
      <g
         id="ytick_4">
        <g
           id="line2d_25">
          <path
             d="M 90,217.3725 H 648"
             clip-path="url(#p16bf7ca05f)"
             style="fill:none;stroke:#b0b0b0;stroke-width:0.8;stroke-linecap:square"
             id="path322" />
        </g>
        <g
           id="line2d_26">
          <g
             id="g327">
            <use
               xlink:href="#mcacf50961f"
               x="90"
               y="217.3725"
               style="stroke:#000000;stroke-width:0.8"
               id="use325"
               width="100%"
               height="100%" />
          </g>
        </g>
        <g
           id="text_14">
          <!-- 3 -->
          <g
             transform="matrix(0.1,0,0,-0.1,76.6375,221.17172)"
             id="g335">
            <defs
               id="defs331">
              <path
                 id="DejaVuSans-33"
                 d="m 2597,2516 q 453,-97 707,-404 255,-306 255,-756 0,-690 -475,-1069 -475,-378 -1350,-378 -293,0 -604,58 -311,58 -642,174 v 609 q 262,-153 574,-231 313,-78 654,-78 593,0 904,234 311,234 311,681 0,413 -289,645 -289,233 -804,233 h -544 v 519 h 569 q 465,0 712,186 247,186 247,536 0,359 -255,551 -254,193 -729,193 -260,0 -557,-57 -297,-56 -653,-174 v 562 q 360,100 674,150 314,50 592,50 719,0 1137,-327 419,-326 419,-882 0,-388 -222,-655 -222,-267 -631,-370 z"
                 transform="scale(0.015625)" />
            </defs>
            <use
               xlink:href="#DejaVuSans-33"
               id="use333"
               x="0"
               y="0"
               width="100%"
               height="100%" />
          </g>
        </g>
      </g>
      <g
         id="text_15">
        <!-- Sink rate [m/s] -->
        <g
           transform="matrix(0,-0.1,-0.1,0,70.557812,218.82266)"
           id="g373">
          <defs
             id="defs341">
            <path
               id="DejaVuSans-53"
               d="m 3425,4513 v -616 q -359,172 -678,256 -319,85 -616,85 -515,0 -795,-200 -280,-200 -280,-569 0,-310 186,-468 186,-157 705,-254 l 381,-78 q 706,-135 1042,-474 336,-339 336,-907 0,-679 -455,-1029 -454,-350 -1332,-350 -331,0 -705,75 -373,75 -773,222 v 650 q 384,-215 753,-325 369,-109 725,-109 540,0 834,212 294,213 294,607 0,343 -211,537 -211,194 -692,291 l -385,75 q -706,140 -1022,440 -315,300 -315,835 0,619 436,975 436,356 1201,356 329,0 669,-60 341,-59 697,-177 z"
               transform="scale(0.015625)" />
            <path
               id="DejaVuSans-6b"
               d="m 581,4863 h 578 V 1991 l 1716,1509 h 734 L 1753,1863 3688,0 H 2938 L 1159,1709 V 0 H 581 Z"
               transform="scale(0.015625)" />
          </defs>
          <use
             xlink:href="#DejaVuSans-53"
             id="use343"
             x="0"
             y="0"
             width="100%"
             height="100%" />
          <use
             xlink:href="#DejaVuSans-69"
             x="63.476562"
             id="use345"
             y="0"
             width="100%"
             height="100%" />
          <use
             xlink:href="#DejaVuSans-6e"
             x="91.259766"
             id="use347"
             y="0"
             width="100%"
             height="100%" />
          <use
             xlink:href="#DejaVuSans-6b"
             x="154.63867"
             id="use349"
             y="0"
             width="100%"
             height="100%" />
          <use
             xlink:href="#DejaVuSans-20"
             x="212.54883"
             id="use351"
             y="0"
             width="100%"
             height="100%" />
          <use
             xlink:href="#DejaVuSans-72"
             x="244.33594"
             id="use353"
             y="0"
             width="100%"
             height="100%" />
          <use
             xlink:href="#DejaVuSans-61"
             x="285.44922"
             id="use355"
             y="0"
             width="100%"
             height="100%" />
          <use
             xlink:href="#DejaVuSans-74"
             x="346.72852"
             id="use357"
             y="0"
             width="100%"
             height="100%" />
          <use
             xlink:href="#DejaVuSans-65"
             x="385.9375"
             id="use359"
             y="0"
             width="100%"
             height="100%" />
          <use
             xlink:href="#DejaVuSans-20"
             x="447.46094"
             id="use361"
             y="0"
             width="100%"
             height="100%" />
          <use
             xlink:href="#DejaVuSans-5b"
             x="479.24805"
             id="use363"
             y="0"
             width="100%"
             height="100%" />
          <use
             xlink:href="#DejaVuSans-6d"
             x="518.26172"
             id="use365"
             y="0"
             width="100%"
             height="100%" />
          <use
             xlink:href="#DejaVuSans-2f"
             x="615.67383"
             id="use367"
             y="0"
             width="100%"
             height="100%" />
          <use
             xlink:href="#DejaVuSans-73"
             x="649.36523"
             id="use369"
             y="0"
             width="100%"
             height="100%" />
          <use
             xlink:href="#DejaVuSans-5d"
             x="701.46484"
             id="use371"
             y="0"
             width="100%"
             height="100%" />
        </g>
      </g>
    </g>
    <g
       id="line2d_27">
      <path
         d="m 390.95659,165.27597 4.17965,0.49061 4.32179,0.54511 4.48845,0.60299 4.70408,0.67064 4.92663,0.74585 5.14994,0.82696 5.39297,0.91734 5.65376,1.01679 5.93387,1.12832 6.22289,1.25006 6.49881,1.38048 6.77156,1.52026 7.0586,1.67424 7.35282,1.84224 7.63779,2.02092 7.89753,2.20814 8.16781,2.40963 8.43183,2.62482 8.68665,2.85179 8.93285,3.09135"
         clip-path="url(#p16bf7ca05f)"
         style="fill:none;stroke:#008000;stroke-width:1.5;stroke-linecap:square"
         id="path377" />
    </g>
    <g
       id="line2d_28">
      <path
         d="m 390.95659,165.27597 -2.45199,-0.16888 -2.92318,-0.1533 -3.37267,-0.12437 -4.16658,-0.057 -4.63596,0.009 -4.99351,0.0873 -5.10428,0.16082 -5.16753,0.24369 -5.10061,0.31083 -5.10089,0.37991 -4.98605,0.42598 -4.75202,0.47748 -4.4741,0.52446 -4.30663,0.54287 -4.05058,0.59949 -3.78368,0.62604 -3.61826,0.65469 -3.35224,0.6882 -3.06396,0.66405 -2.84316,0.63756"
         clip-path="url(#p16bf7ca05f)"
         style="fill:none;stroke:#ff0000;stroke-width:1.5;stroke-linecap:square"
         id="path380" />
    </g>
    <g
       id="line2d_29">
      <path
         d="m 90,133.6725 488.25,51.27116"
         clip-path="url(#p16bf7ca05f)"
         style="fill:none;stroke:#0000ff;stroke-width:0.75;stroke-dasharray:2.775, 1.2;stroke-dashoffset:0"
         id="path383" />
    </g>
    <g
       id="LineCollection_1">
      <path
         d="m 276,147.6225 v 69.75"
         clip-path="url(#p16bf7ca05f)"
         style="fill:none;stroke:#000000;stroke-width:0.75;stroke-dasharray:2.775, 1.2;stroke-dashoffset:0"
         id="path386" />
      <path
         d="m 400,147.6225 v 69.75"
         clip-path="url(#p16bf7ca05f)"
         style="fill:none;stroke:#000000;stroke-width:0.75;stroke-dasharray:2.775, 1.2;stroke-dashoffset:0"
         id="path388" />
      <path
         d="m 508.5,147.6225 v 69.75"
         clip-path="url(#p16bf7ca05f)"
         style="fill:none;stroke:#000000;stroke-width:0.75;stroke-dasharray:2.775, 1.2;stroke-dashoffset:0"
         id="path390" />
    </g>
    <g
       id="line2d_30">
      <defs
         id="defs394">
        <path
           id="mb5273950ce"
           d="M 0,1.5 C 0.397805,1.5 0.77937,1.341951 1.06066,1.06066 1.341951,0.77937 1.5,0.397805 1.5,0 1.5,-0.397805 1.341951,-0.77937 1.06066,-1.06066 0.77937,-1.341951 0.397805,-1.5 0,-1.5 c -0.397805,0 -0.77937,0.158049 -1.06066,0.43934 C -1.341951,-0.77937 -1.5,-0.397805 -1.5,0 c 0,0.397805 0.158049,0.77937 0.43934,1.06066 C -0.77937,1.341951 -0.397805,1.5 0,1.5 Z"
           style="stroke:#000000" />
      </defs>
      <g
         clip-path="url(#p16bf7ca05f)"
         id="g398">
        <use
           xlink:href="#mb5273950ce"
           x="361.18799"
           y="165.75751"
           style="stroke:#000000"
           id="use396"
           width="100%"
           height="100%" />
      </g>
    </g>
    <g
       id="line2d_31">
      <g
         clip-path="url(#p16bf7ca05f)"
         id="g403">
        <use
           xlink:href="#mb5273950ce"
           x="400"
           y="166.30408"
           style="stroke:#000000"
           id="use401"
           width="100%"
           height="100%" />
      </g>
    </g>
    <g
       id="patch_3">
      <path
         d="m 90,231.3225 v -99.045"
         style="fill:none;stroke:#000000;stroke-width:0.8;stroke-linecap:square;stroke-linejoin:miter"
         id="path406" />
    </g>
    <g
       id="patch_4">
      <path
         d="m 648,231.3225 v -99.045"
         style="fill:none;stroke:#000000;stroke-width:0.8;stroke-linecap:square;stroke-linejoin:miter"
         id="path409" />
    </g>
    <g
       id="patch_5">
      <path
         d="M 90,231.3225 H 648"
         style="fill:none;stroke:#000000;stroke-width:0.8;stroke-linecap:square;stroke-linejoin:miter"
         id="path412" />
    </g>
    <g
       id="patch_6">
      <path
         d="M 90,132.2775 H 648"
         style="fill:none;stroke:#000000;stroke-width:0.8;stroke-linecap:square;stroke-linejoin:miter"
         id="path415" />
    </g>
    <g
       id="text_16">
      <!-- Niviuk Hook 3, size 27 -->
      <g
         transform="matrix(0.12,0,0,-0.12,302.4,126.2775)"
         id="g468">
        <defs
           id="defs422">
          <path
             id="DejaVuSans-4e"
             d="m 628,4666 h 850 L 3547,763 v 3903 h 612 V 0 H 3309 L 1241,3903 V 0 H 628 Z"
             transform="scale(0.015625)" />
          <path
             id="DejaVuSans-76"
             d="M 191,3500 H 800 L 1894,563 2988,3500 h 609 L 2284,0 h -781 z"
             transform="scale(0.015625)" />
          <path
             id="DejaVuSans-75"
             d="m 544,1381 v 2119 h 575 V 1403 q 0,-497 193,-746 194,-248 582,-248 465,0 735,297 271,297 271,810 v 1984 h 575 V 0 H 2900 V 538 Q 2691,219 2414,64 2138,-91 1772,-91 1169,-91 856,284 544,659 544,1381 Z m 1447,2203 z"
             transform="scale(0.015625)" />
          <path
             id="DejaVuSans-2c"
             d="m 750,794 h 659 V 256 L 897,-744 H 494 L 750,256 Z"
             transform="scale(0.015625)" />
        </defs>
        <use
           xlink:href="#DejaVuSans-4e"
           id="use424"
           x="0"
           y="0"
           width="100%"
           height="100%" />
        <use
           xlink:href="#DejaVuSans-69"
           x="74.804688"
           id="use426"
           y="0"
           width="100%"
           height="100%" />
        <use
           xlink:href="#DejaVuSans-76"
           x="102.58789"
           id="use428"
           y="0"
           width="100%"
           height="100%" />
        <use
           xlink:href="#DejaVuSans-69"
           x="161.76758"
           id="use430"
           y="0"
           width="100%"
           height="100%" />
        <use
           xlink:href="#DejaVuSans-75"
           x="189.55078"
           id="use432"
           y="0"
           width="100%"
           height="100%" />
        <use
           xlink:href="#DejaVuSans-6b"
           x="252.92969"
           id="use434"
           y="0"
           width="100%"
           height="100%" />
        <use
           xlink:href="#DejaVuSans-20"
           x="310.83984"
           id="use436"
           y="0"
           width="100%"
           height="100%" />
        <use
           xlink:href="#DejaVuSans-48"
           x="342.62695"
           id="use438"
           y="0"
           width="100%"
           height="100%" />
        <use
           xlink:href="#DejaVuSans-6f"
           x="417.82227"
           id="use440"
           y="0"
           width="100%"
           height="100%" />
        <use
           xlink:href="#DejaVuSans-6f"
           x="479.00391"
           id="use442"
           y="0"
           width="100%"
           height="100%" />
        <use
           xlink:href="#DejaVuSans-6b"
           x="540.18555"
           id="use444"
           y="0"
           width="100%"
           height="100%" />
        <use
           xlink:href="#DejaVuSans-20"
           x="598.0957"
           id="use446"
           y="0"
           width="100%"
           height="100%" />
        <use
           xlink:href="#DejaVuSans-33"
           x="629.88281"
           id="use448"
           y="0"
           width="100%"
           height="100%" />
        <use
           xlink:href="#DejaVuSans-2c"
           x="693.50586"
           id="use450"
           y="0"
           width="100%"
           height="100%" />
        <use
           xlink:href="#DejaVuSans-20"
           x="725.29297"
           id="use452"
           y="0"
           width="100%"
           height="100%" />
        <use
           xlink:href="#DejaVuSans-73"
           x="757.08008"
           id="use454"
           y="0"
           width="100%"
           height="100%" />
        <use
           xlink:href="#DejaVuSans-69"
           x="809.17969"
           id="use456"
           y="0"
           width="100%"
           height="100%" />
        <use
           xlink:href="#DejaVuSans-7a"
           x="836.96289"
           id="use458"
           y="0"
           width="100%"
           height="100%" />
        <use
           xlink:href="#DejaVuSans-65"
           x="889.45312"
           id="use460"
           y="0"
           width="100%"
           height="100%" />
        <use
           xlink:href="#DejaVuSans-20"
           x="950.97656"
           id="use462"
           y="0"
           width="100%"
           height="100%" />
        <use
           xlink:href="#DejaVuSans-32"
           x="982.76367"
           id="use464"
           y="0"
           width="100%"
           height="100%" />
        <use
           xlink:href="#DejaVuSans-37"
           x="1046.3867"
           id="use466"
           y="0"
           width="100%"
           height="100%" />
      </g>
    </g>
  </g>
  <defs
     id="defs476">
    <clipPath
       id="p16bf7ca05f">
      <rect
         x="90"
         y="132.2775"
         width="558"
         height="99.044998"
         id="rect473" />
    </clipPath>
  </defs>
</svg>
