<?xml version="1.0" encoding="UTF-8" standalone="no"?>
<svg
   inkscape:version="1.1.2 (0a00cf5339, 2022-02-04)"
   sodipodi:docname="elliptical3_canopy_airfoils.svg"
   id="svg331"
   width="441.41013pt"
   viewBox="0 0 441.41013 414.19595"
   version="1.1"
   height="414.19595pt"
   xmlns:inkscape="http://www.inkscape.org/namespaces/inkscape"
   xmlns:sodipodi="http://sodipodi.sourceforge.net/DTD/sodipodi-0.dtd"
   xmlns="http://www.w3.org/2000/svg"
   xmlns:svg="http://www.w3.org/2000/svg"
   xmlns:rdf="http://www.w3.org/1999/02/22-rdf-syntax-ns#"
   xmlns:cc="http://creativecommons.org/ns#"
   xmlns:dc="http://purl.org/dc/elements/1.1/">
  <metadata
     id="metadata335">
    <rdf:RDF>
      <cc:Work
         rdf:about="">
        <dc:format>image/svg+xml</dc:format>
        <dc:type
           rdf:resource="http://purl.org/dc/dcmitype/StillImage" />
      </cc:Work>
    </rdf:RDF>
  </metadata>
  <sodipodi:namedview
     inkscape:current-layer="svg331"
     inkscape:window-maximized="1"
     inkscape:window-y="32"
     inkscape:window-x="0"
     inkscape:cy="309.7076"
     inkscape:cx="207.7193"
     inkscape:zoom="1.06875"
     showgrid="false"
     id="namedview333"
     inkscape:window-height="1371"
     inkscape:window-width="2560"
     inkscape:pageshadow="2"
     inkscape:pageopacity="0"
     guidetolerance="10"
     gridtolerance="10"
     objecttolerance="10"
     borderopacity="1"
     bordercolor="#666666"
     pagecolor="#ffffff"
     inkscape:pagecheckerboard="0"
     inkscape:document-units="pt"
     inkscape:snap-page="true" />
  <defs
     id="defs4">
    <style
       id="style2"
       type="text/css">
*{stroke-linecap:butt;stroke-linejoin:round;}
  </style>
  </defs>
  <rect
     style="fill:#ffffff;stroke-width:0.75;stroke-linecap:round"
     id="rect1056"
     width="441.4101"
     height="414.19598"
     x="0"
     y="0" />
  <g
     transform="translate(-204.06433,-127.28371)"
     id="axes_1">
    <g
       id="line2d_1">
      <path
         d="M 644.92804,445.60176 C 553.19527,392.63982 461.4625,339.67788 369.72973,286.71594"
         style="fill:none;stroke:#d3d3d3;stroke-width:0.8;stroke-linecap:square"
         clip-path="url(#p19ff625159)"
         id="path12" />
    </g>
    <g
       id="line2d_2">
      <path
         d="M 617.40821,461.49034 C 525.67544,408.5284 433.94267,355.56646 342.2099,302.60452"
         style="fill:none;stroke:#d3d3d3;stroke-width:0.8;stroke-linecap:square"
         clip-path="url(#p19ff625159)"
         id="path15" />
    </g>
    <g
       id="line2d_3">
      <path
         d="M 589.88838,477.37893 C 498.15561,424.41699 406.42284,371.45505 314.69007,318.49311"
         style="fill:none;stroke:#d3d3d3;stroke-width:0.8;stroke-linecap:square"
         clip-path="url(#p19ff625159)"
         id="path18" />
    </g>
    <g
       id="line2d_4">
      <path
         d="M 562.36855,493.26751 C 470.63578,440.30557 378.903,387.34363 287.17023,334.38169"
         style="fill:none;stroke:#d3d3d3;stroke-width:0.8;stroke-linecap:square"
         clip-path="url(#p19ff625159)"
         id="path21" />
    </g>
    <g
       id="line2d_5">
      <path
         d="M 534.84872,509.15609 C 443.11595,456.19415 351.38317,403.23221 259.6504,350.27027"
         style="fill:none;stroke:#d3d3d3;stroke-width:0.8;stroke-linecap:square"
         clip-path="url(#p19ff625159)"
         id="path24" />
    </g>
    <g
       id="line2d_6">
      <path
         d="M 507.32889,525.04467 C 415.59612,472.08273 323.86334,419.12079 232.13057,366.15885"
         style="fill:none;stroke:#d3d3d3;stroke-width:0.8;stroke-linecap:square"
         clip-path="url(#p19ff625159)"
         id="path27" />
    </g>
    <g
       id="line2d_7">
      <path
         d="M 479.80906,540.93326 C 388.07629,487.97132 296.34351,435.00937 204.61074,382.04743"
         style="fill:none;stroke:#d3d3d3;stroke-width:0.8;stroke-linecap:square"
         clip-path="url(#p19ff625159)"
         id="path30" />
    </g>
    <g
       id="line2d_8">
      <path
         d="m 644.92804,445.60176 c -55.03966,31.77717 -110.07932,63.55433 -165.11898,95.3315"
         style="fill:none;stroke:#d3d3d3;stroke-width:0.8;stroke-linecap:square"
         clip-path="url(#p19ff625159)"
         id="path33" />
    </g>
    <g
       id="line2d_9">
      <path
         d="m 644.92804,286.71594 c 0,52.96194 0,105.92388 0,158.88582"
         style="fill:none;stroke:#d3d3d3;stroke-width:0.8;stroke-linecap:square"
         clip-path="url(#p19ff625159)"
         id="path36" />
    </g>
    <g
       id="line2d_10">
      <path
         d="m 617.40821,429.71318 c -55.03966,31.77716 -110.07933,63.55433 -165.11899,95.33149"
         style="fill:none;stroke:#d3d3d3;stroke-width:0.8;stroke-linecap:square"
         clip-path="url(#p19ff625159)"
         id="path39" />
    </g>
    <g
       id="line2d_11">
      <path
         d="m 617.40821,270.82736 c 0,52.96194 0,105.92388 0,158.88582"
         style="fill:none;stroke:#d3d3d3;stroke-width:0.8;stroke-linecap:square"
         clip-path="url(#p19ff625159)"
         id="path42" />
    </g>
    <g
       id="line2d_12">
      <path
         d="m 589.88838,413.8246 c -55.03966,31.77716 -110.07933,63.55433 -165.11899,95.33149"
         style="fill:none;stroke:#d3d3d3;stroke-width:0.8;stroke-linecap:square"
         clip-path="url(#p19ff625159)"
         id="path45" />
    </g>
    <g
       id="line2d_13">
      <path
         d="m 589.88838,254.93878 c 0,52.96194 0,105.92388 0,158.88582"
         style="fill:none;stroke:#d3d3d3;stroke-width:0.8;stroke-linecap:square"
         clip-path="url(#p19ff625159)"
         id="path48" />
    </g>
    <g
       id="line2d_14">
      <path
         d="m 562.36855,397.93602 c -55.03966,31.77716 -110.07933,63.55433 -165.11899,95.33149"
         style="fill:none;stroke:#d3d3d3;stroke-width:0.8;stroke-linecap:square"
         clip-path="url(#p19ff625159)"
         id="path51" />
    </g>
    <g
       id="line2d_15">
      <path
         d="m 562.36855,239.05019 c 0,52.96194 0,105.92389 0,158.88583"
         style="fill:none;stroke:#d3d3d3;stroke-width:0.8;stroke-linecap:square"
         clip-path="url(#p19ff625159)"
         id="path54" />
    </g>
    <g
       id="line2d_16">
      <path
         d="m 534.84872,382.04743 c -55.03966,31.77717 -110.07933,63.55433 -165.11899,95.3315"
         style="fill:none;stroke:#d3d3d3;stroke-width:0.8;stroke-linecap:square"
         clip-path="url(#p19ff625159)"
         id="path57" />
    </g>
    <g
       id="line2d_17">
      <path
         d="m 534.84872,223.16161 c 0,52.96194 0,105.92388 0,158.88582"
         style="fill:none;stroke:#d3d3d3;stroke-width:0.8;stroke-linecap:square"
         clip-path="url(#p19ff625159)"
         id="path60" />
    </g>
    <g
       id="line2d_18">
      <path
         d="M 507.32889,366.15885 C 452.28923,397.93601 397.24956,429.71318 342.2099,461.49034"
         style="fill:none;stroke:#d3d3d3;stroke-width:0.8;stroke-linecap:square"
         clip-path="url(#p19ff625159)"
         id="path63" />
    </g>
    <g
       id="line2d_19">
      <path
         d="m 507.32889,207.27303 c 0,52.96194 0,105.92388 0,158.88582"
         style="fill:none;stroke:#d3d3d3;stroke-width:0.8;stroke-linecap:square"
         clip-path="url(#p19ff625159)"
         id="path66" />
    </g>
    <g
       id="line2d_20">
      <path
         d="M 479.80906,350.27027 C 424.7694,382.04743 369.72973,413.8246 314.69007,445.60176"
         style="fill:none;stroke:#d3d3d3;stroke-width:0.8;stroke-linecap:square"
         clip-path="url(#p19ff625159)"
         id="path69" />
    </g>
    <g
       id="line2d_21">
      <path
         d="m 479.80906,191.38445 c 0,52.96194 0,105.92388 0,158.88582"
         style="fill:none;stroke:#d3d3d3;stroke-width:0.8;stroke-linecap:square"
         clip-path="url(#p19ff625159)"
         id="path72" />
    </g>
    <g
       id="line2d_22">
      <path
         d="m 452.28922,334.38169 c -55.03966,31.77716 -110.07933,63.55433 -165.11899,95.33149"
         style="fill:none;stroke:#d3d3d3;stroke-width:0.8;stroke-linecap:square"
         clip-path="url(#p19ff625159)"
         id="path75" />
    </g>
    <g
       id="line2d_23">
      <path
         d="m 452.28922,175.49587 c 0,52.96194 0,105.92388 0,158.88582"
         style="fill:none;stroke:#d3d3d3;stroke-width:0.8;stroke-linecap:square"
         clip-path="url(#p19ff625159)"
         id="path78" />
    </g>
    <g
       id="line2d_24">
      <path
         d="M 424.76939,318.49311 C 369.72973,350.27027 314.69006,382.04744 259.6504,413.8246"
         style="fill:none;stroke:#d3d3d3;stroke-width:0.8;stroke-linecap:square"
         clip-path="url(#p19ff625159)"
         id="path81" />
    </g>
    <g
       id="line2d_25">
      <path
         d="m 424.76939,159.60728 c 0,52.96194 0,105.92389 0,158.88583"
         style="fill:none;stroke:#d3d3d3;stroke-width:0.8;stroke-linecap:square"
         clip-path="url(#p19ff625159)"
         id="path84" />
    </g>
    <g
       id="line2d_26">
      <path
         d="m 397.24956,302.60452 c -55.03966,31.77717 -110.07933,63.55433 -165.11899,95.3315"
         style="fill:none;stroke:#d3d3d3;stroke-width:0.8;stroke-linecap:square"
         clip-path="url(#p19ff625159)"
         id="path87" />
    </g>
    <g
       id="line2d_27">
      <path
         d="m 397.24956,143.7187 c 0,52.96194 0,105.92388 0,158.88582"
         style="fill:none;stroke:#d3d3d3;stroke-width:0.8;stroke-linecap:square"
         clip-path="url(#p19ff625159)"
         id="path90" />
    </g>
    <g
       id="line2d_28">
      <path
         d="M 369.72973,286.71594 C 314.69007,318.4931 259.6504,350.27027 204.61074,382.04743"
         style="fill:none;stroke:#d3d3d3;stroke-width:0.8;stroke-linecap:square"
         clip-path="url(#p19ff625159)"
         id="path93" />
    </g>
    <g
       id="line2d_29">
      <path
         d="m 369.72973,127.83012 c 0,52.96194 0,105.92388 0,158.88582"
         style="fill:none;stroke:#d3d3d3;stroke-width:0.8;stroke-linecap:square"
         clip-path="url(#p19ff625159)"
         id="path96" />
    </g>
    <g
       id="line2d_30">
      <path
         d="M 644.92804,286.71594 C 553.19527,233.754 461.4625,180.79206 369.72973,127.83012"
         style="fill:none;stroke:#d3d3d3;stroke-width:0.8;stroke-linecap:square"
         clip-path="url(#p19ff625159)"
         id="path99" />
    </g>
    <g
       id="line2d_31">
      <path
         d="M 644.92804,318.49311 C 553.19527,265.53117 461.4625,212.56922 369.72973,159.60728"
         style="fill:none;stroke:#d3d3d3;stroke-width:0.8;stroke-linecap:square"
         clip-path="url(#p19ff625159)"
         id="path102" />
    </g>
    <g
       id="line2d_32">
      <path
         d="M 644.92804,350.27027 C 553.19527,297.30833 461.4625,244.34639 369.72973,191.38445"
         style="fill:none;stroke:#d3d3d3;stroke-width:0.8;stroke-linecap:square"
         clip-path="url(#p19ff625159)"
         id="path105" />
    </g>
    <g
       id="line2d_33">
      <path
         d="M 644.92804,382.04743 C 553.19527,329.08549 461.4625,276.12355 369.72973,223.16161"
         style="fill:none;stroke:#d3d3d3;stroke-width:0.8;stroke-linecap:square"
         clip-path="url(#p19ff625159)"
         id="path108" />
    </g>
    <g
       id="line2d_34">
      <path
         d="M 644.92804,413.8246 C 553.19527,360.86266 461.4625,307.90072 369.72973,254.93878"
         style="fill:none;stroke:#d3d3d3;stroke-width:0.8;stroke-linecap:square"
         clip-path="url(#p19ff625159)"
         id="path111" />
    </g>
    <g
       id="line2d_35">
      <path
         d="m 503.93013,432.00751 c -7.35142,3.33164 -15.06174,6.3435 -21.37016,11.49804 -0.24615,0.28563 -0.9797,0.76623 -0.64521,1.21267"
         style="fill:none;stroke:#ff0000;stroke-width:0.25;stroke-linecap:square"
         clip-path="url(#p19ff625159)"
         id="path114" />
    </g>
    <g
       id="line2d_36">
      <path
         d="m 504.98791,424.63321 c -9.21086,4.3794 -18.69694,8.48153 -26.96167,14.53989 -0.42829,0.49488 -1.93422,1.15522 -1.54626,1.91932"
         style="fill:none;stroke:#ff0000;stroke-width:0.25;stroke-linecap:square"
         clip-path="url(#p19ff625159)"
         id="path117" />
    </g>
    <g
       id="line2d_37">
      <path
         d="m 504.7159,417.01466 c -10.84798,5.45835 -21.94379,10.62453 -31.92466,17.60145 -0.38395,0.45768 -1.85487,1.02126 -1.51212,1.70324"
         style="fill:none;stroke:#ff0000;stroke-width:0.25;stroke-linecap:square"
         clip-path="url(#p19ff625159)"
         id="path120" />
    </g>
    <g
       id="line2d_38">
      <path
         d="m 503.28596,409.1367 c -12.3279,6.55584 -24.87985,12.80494 -36.5024,20.57897 -0.18517,0.24192 -1.27509,0.70675 -0.92462,1.02978"
         style="fill:none;stroke:#ff0000;stroke-width:0.25;stroke-linecap:square"
         clip-path="url(#p19ff625159)"
         id="path123" />
    </g>
    <g
       id="line2d_39">
      <path
         d="m 500.79358,401.03835 c -13.63663,7.62132 -27.46614,14.94709 -40.65919,23.32399 -0.0312,0.0166 -0.31693,0.24759 -0.0946,0.2058"
         style="fill:none;stroke:#ff0000;stroke-width:0.25;stroke-linecap:square"
         clip-path="url(#p19ff625159)"
         id="path126" />
    </g>
    <g
       id="line2d_40">
      <path
         d="m 497.31273,392.78004 c -14.4866,8.36749 -29.22981,16.90181 -43.57108,25.15592"
         style="fill:none;stroke:#ff0000;stroke-width:0.25;stroke-linecap:square"
         clip-path="url(#p19ff625159)"
         id="path129" />
    </g>
    <g
       id="line2d_41">
      <path
         d="m 492.91215,384.43313 c -15.07047,8.98006 -29.99691,18.23967 -45.50217,26.45884 0.008,-0.0139 -0.67679,0.34109 -0.46794,0.0826"
         style="fill:none;stroke:#ff0000;stroke-width:0.25;stroke-linecap:square"
         clip-path="url(#p19ff625159)"
         id="path132" />
    </g>
    <g
       id="line2d_42">
      <path
         d="m 487.66156,376.07511 c -15.0194,9.26812 -29.9015,18.83261 -45.60647,26.91645 -0.63653,0.1587 -1.95703,1.24731 -2.41005,0.80548"
         style="fill:none;stroke:#ff0000;stroke-width:0.25;stroke-linecap:square"
         clip-path="url(#p19ff625159)"
         id="path135" />
    </g>
    <g
       id="line2d_43">
      <path
         d="m 481.63421,367.78687 c -14.55765,9.28288 -29.02563,18.79781 -44.3793,26.73288 -1.74653,0.66356 -3.56018,2.16792 -5.38174,2.10241 -0.005,-0.0374 -8.8e-4,-0.0756 0.0102,-0.1115"
         style="fill:none;stroke:#ff0000;stroke-width:0.25;stroke-linecap:square"
         clip-path="url(#p19ff625159)"
         id="path138" />
    </g>
    <g
       id="line2d_44">
      <path
         d="m 474.90784,359.65079 c -14.22306,9.34567 -28.41358,18.84001 -43.51239,26.73334 -2.48442,1.07088 -4.87289,2.72365 -7.56419,3.10237 -0.11213,-0.039 -0.14918,-0.16553 -0.1306,-0.2707"
         style="fill:none;stroke:#ff0000;stroke-width:0.25;stroke-linecap:square"
         clip-path="url(#p19ff625159)"
         id="path141" />
    </g>
    <g
       id="line2d_45">
      <path
         d="m 467.56497,351.74921 c -14.1306,9.52938 -28.26963,19.15973 -43.38652,27.07858 -2.89408,1.22143 -5.70265,3.17885 -8.84717,3.49695 -0.12535,-0.053 -0.17994,-0.1912 -0.17471,-0.318"
         style="fill:none;stroke:#ff0000;stroke-width:0.25;stroke-linecap:square"
         clip-path="url(#p19ff625159)"
         id="path144" />
    </g>
    <g
       id="line2d_46">
      <path
         d="m 459.69257,344.16324 c -14.0324,9.68794 -28.11285,19.43187 -43.23077,27.37197 -3.17802,1.39518 -6.27853,3.35336 -9.74084,3.86109 -0.21934,-0.0207 -0.39628,-0.19968 -0.39889,-0.41961"
         style="fill:none;stroke:#ff0000;stroke-width:0.25;stroke-linecap:square"
         clip-path="url(#p19ff625159)"
         id="path147" />
    </g>
    <g
       id="line2d_47">
      <path
         d="m 451.38155,336.97158 c -13.85137,9.77226 -27.79168,19.54992 -42.79835,27.48908 -3.52354,1.55941 -6.99523,3.73155 -10.853,4.218 -0.23981,-0.0348 -0.43266,-0.2281 -0.45611,-0.46829"
         style="fill:none;stroke:#ff0000;stroke-width:0.25;stroke-linecap:square"
         clip-path="url(#p19ff625159)"
         id="path150" />
    </g>
    <g
       id="line2d_48">
      <path
         d="m 442.72607,330.24952 c -13.70521,9.86198 -27.53637,19.68743 -42.47074,27.62392 -3.67848,1.69699 -7.33973,3.7657 -11.36144,4.4625 -0.34753,0.0115 -0.74114,-0.17153 -0.79471,-0.54742"
         style="fill:none;stroke:#ff0000;stroke-width:0.25;stroke-linecap:square"
         clip-path="url(#p19ff625159)"
         id="path153" />
    </g>
    <g
       id="line2d_49">
      <path
         d="m 433.82268,324.06808 c -13.56414,9.93601 -27.2819,19.81248 -42.1531,27.72249 -3.84572,1.78084 -7.70022,3.93151 -11.92237,4.58813 -0.37408,6.5e-4 -0.7803,-0.20059 -0.86139,-0.59276"
         style="fill:none;stroke:#ff0000;stroke-width:0.25;stroke-linecap:square"
         clip-path="url(#p19ff625159)"
         id="path156" />
    </g>
    <g
       id="line2d_50">
      <path
         d="m 424.76939,318.49311 c -13.31933,9.92884 -26.82665,19.75793 -41.49884,27.61508 -4.05432,1.8977 -8.14579,4.15837 -12.61652,4.79347 -0.39699,-0.0153 -0.81627,-0.22153 -0.92457,-0.63136"
         style="fill:none;stroke:#ff0000;stroke-width:0.25;stroke-linecap:square"
         clip-path="url(#p19ff625159)"
         id="path159" />
    </g>
    <g
       id="line2d_51">
      <path
         d="m 415.66469,313.58456 c -13.10987,9.93328 -26.43753,19.73802 -40.95896,27.53124 -4.16569,1.95081 -8.3893,4.25753 -12.99407,4.85041 -0.41763,-0.0262 -0.85035,-0.24136 -0.98389,-0.66338"
         style="fill:none;stroke:#ff0000;stroke-width:0.25;stroke-linecap:square"
         clip-path="url(#p19ff625159)"
         id="path162" />
    </g>
    <g
       id="line2d_52">
      <path
         d="m 406.60646,309.39586 c -12.93543,9.94847 -26.11021,19.7592 -40.53406,27.46747 -4.17837,1.94032 -8.42976,4.23579 -13.05332,4.76022 -0.43594,-0.0357 -0.88108,-0.2575 -1.03978,-0.68866"
         style="fill:none;stroke:#ff0000;stroke-width:0.25;stroke-linecap:square"
         clip-path="url(#p19ff625159)"
         id="path165" />
    </g>
    <g
       id="line2d_53">
      <path
         d="m 397.69095,305.97329 c -12.67043,9.88702 -25.60117,19.62439 -39.81219,27.2116 -4.18386,1.95912 -8.46363,4.1968 -13.09523,4.73836 -0.48438,-0.01 -1.00345,-0.2424 -1.1997,-0.71114"
         style="fill:none;stroke:#ff0000;stroke-width:0.25;stroke-linecap:square"
         clip-path="url(#p19ff625159)"
         id="path168" />
    </g>
    <g
       id="line2d_54">
      <path
         d="m 389.01163,303.35559 c -12.40271,9.81106 -25.0826,19.46946 -39.08292,26.91169 -4.16036,1.92734 -8.42491,4.14803 -13.03299,4.62472 -0.50228,-0.0159 -1.02997,-0.24798 -1.25459,-0.72298"
         style="fill:none;stroke:#ff0000;stroke-width:0.25;stroke-linecap:square"
         clip-path="url(#p19ff625159)"
         id="path171" />
    </g>
    <g
       id="line2d_55">
      <path
         d="m 380.6581,301.5735 c -12.00315,9.63006 -24.30555,19.08645 -37.92215,26.34526 -4.19679,1.9689 -8.52321,4.17591 -13.18264,4.63881 -0.51495,-0.0203 -1.05275,-0.25255 -1.30347,-0.7262"
         style="fill:none;stroke:#ff0000;stroke-width:0.25;stroke-linecap:square"
         clip-path="url(#p19ff625159)"
         id="path174" />
    </g>
    <g
       id="line2d_56">
      <path
         d="m 372.71491,300.64967 c -11.7359,9.53475 -23.78758,18.89982 -37.21182,25.95997 -4.07184,1.83752 -8.26006,4.00031 -12.77222,4.31751 -0.48294,-0.0556 -0.9698,-0.28 -1.22354,-0.71279"
         style="fill:none;stroke:#ff0000;stroke-width:0.25;stroke-linecap:square"
         clip-path="url(#p19ff625159)"
         id="path177" />
    </g>
    <g
       id="line2d_57">
      <path
         d="m 365.2604,300.59842 c -11.30028,9.29948 -22.9364,18.41254 -35.94034,25.22929 -3.99999,1.79911 -8.12257,3.89842 -12.55459,4.18954 -0.48792,-0.0562 -0.9797,-0.27207 -1.25642,-0.69481"
         style="fill:none;stroke:#ff0000;stroke-width:0.25;stroke-linecap:square"
         clip-path="url(#p19ff625159)"
         id="path180" />
    </g>
    <g
       id="line2d_58">
      <path
         d="m 358.36545,301.42596 c -10.88605,9.05707 -22.12055,17.93046 -34.74254,24.46177 -3.82393,1.692 -7.76422,3.67081 -11.99235,3.92483 -0.48903,-0.0539 -0.98329,-0.25682 -1.28129,-0.66437"
         style="fill:none;stroke:#ff0000;stroke-width:0.25;stroke-linecap:square"
         clip-path="url(#p19ff625159)"
         id="path183" />
    </g>
    <g
       id="line2d_59">
      <path
         d="m 352.09204,303.1306 c -10.41348,8.73273 -21.17395,17.30391 -33.32956,23.50328 -3.62305,1.57735 -7.35057,3.41909 -11.34547,3.65683 -0.48543,-0.0484 -0.97815,-0.2333 -1.29552,-0.61905"
         style="fill:none;stroke:#ff0000;stroke-width:0.25;stroke-linecap:square"
         clip-path="url(#p19ff625159)"
         id="path186" />
    </g>
    <g
       id="line2d_60">
      <path
         d="m 346.49155,305.7034 c -9.91529,8.36539 -20.18166,16.57675 -31.83661,22.40325 -3.45351,1.4089 -6.99983,3.29325 -10.79792,3.2558 -0.35102,-0.0755 -0.6876,-0.24146 -0.93619,-0.50365"
         style="fill:none;stroke:#ff0000;stroke-width:0.25;stroke-linecap:square"
         clip-path="url(#p19ff625159)"
         id="path189" />
    </g>
    <g
       id="line2d_61">
      <path
         d="m 341.60244,309.12931 c -9.46059,7.97786 -19.25894,15.84995 -30.47808,21.22624 -3.09534,1.13738 -6.27043,2.96983 -9.64649,2.66287 -0.23159,-0.0752 -0.44919,-0.1965 -0.62958,-0.36029"
         style="fill:none;stroke:#ff0000;stroke-width:0.25;stroke-linecap:square"
         clip-path="url(#p19ff625159)"
         id="path192" />
    </g>
    <g
       id="line2d_62">
      <path
         d="m 337.44648,313.38923 c -8.87212,7.4266 -18.05614,14.79435 -28.62986,19.661 -2.70421,0.90116 -5.48843,2.64545 -8.41609,2.16466 -0.13585,-0.0552 -0.26466,-0.12805 -0.38102,-0.2172"
         style="fill:none;stroke:#ff0000;stroke-width:0.25;stroke-linecap:square"
         clip-path="url(#p19ff625159)"
         id="path195" />
    </g>
    <g
       id="line2d_63">
      <path
         d="m 334.02159,318.46425 c -8.38479,6.87556 -17.03015,13.81564 -27.11599,18.02901 -1.96883,0.58405 -4.25595,2.0626 -6.32107,1.27576"
         style="fill:none;stroke:#ff0000;stroke-width:0.25;stroke-linecap:square"
         clip-path="url(#p19ff625159)"
         id="path198" />
    </g>
    <g
       id="line2d_64">
      <path
         d="m 331.28479,324.34567 c -8.04033,6.38299 -16.32644,12.97813 -26.17338,16.30636 -0.7433,0.20052 -1.58671,0.47572 -2.33413,0.15207"
         style="fill:none;stroke:#ff0000;stroke-width:0.25;stroke-linecap:square"
         clip-path="url(#p19ff625159)"
         id="path201" />
    </g>
    <g
       id="line2d_65">
      <path
         d="m 329.09676,331.06742 c -6.50345,4.94307 -13.15656,10.12439 -21.01353,12.69598 -0.32649,0.0672 -0.67757,0.11681 -1.00235,0.014"
         style="fill:none;stroke:#ff0000;stroke-width:0.25;stroke-linecap:square"
         clip-path="url(#p19ff625159)"
         id="path204" />
    </g>
    <g
       id="line2d_66">
      <path
         d="m 503.93013,432.00751 c -5.76727,4.7383 -11.59885,9.76729 -18.61585,12.53652 -1.06092,0.25282 -2.37567,0.74207 -3.39998,0.17425"
         style="fill:none;stroke:#0000ff;stroke-width:0.25;stroke-linecap:square"
         clip-path="url(#p19ff625159)"
         id="path207" />
    </g>
    <g
       id="line2d_67">
      <path
         d="m 504.98791,424.63321 c -7.42911,5.78096 -14.9524,11.70138 -23.58549,15.58617 -1.54185,0.49064 -3.29424,1.34342 -4.92201,0.87317"
         style="fill:none;stroke:#0000ff;stroke-width:0.25;stroke-linecap:square"
         clip-path="url(#p19ff625159)"
         id="path210" />
    </g>
    <g
       id="line2d_68">
      <path
         d="m 504.7159,417.01466 c -9.09348,6.55578 -18.22706,13.26898 -28.42922,18.01541 -1.58939,0.56686 -3.2906,1.45179 -5.00777,1.28999"
         style="fill:none;stroke:#0000ff;stroke-width:0.25;stroke-linecap:square"
         clip-path="url(#p19ff625159)"
         id="path213" />
    </g>
    <g
       id="line2d_69">
      <path
         d="m 503.28596,409.1367 c -10.70354,7.12582 -21.38116,14.42734 -32.96437,20.06801 -1.44203,0.58678 -2.90074,1.37894 -4.4625,1.54088"
         style="fill:none;stroke:#0000ff;stroke-width:0.25;stroke-linecap:square"
         clip-path="url(#p19ff625159)"
         id="path216" />
    </g>
    <g
       id="line2d_70">
      <path
         d="m 500.79358,401.03835 c -12.79889,7.84629 -25.46798,15.98108 -38.88046,22.75502 -0.61604,0.27214 -1.22137,0.59763 -1.87377,0.77441"
         style="fill:none;stroke:#0000ff;stroke-width:0.25;stroke-linecap:square"
         clip-path="url(#p19ff625159)"
         id="path219" />
    </g>
    <g
       id="line2d_71">
      <path
         d="m 497.31273,392.78004 c -14.52709,8.37882 -29.06305,16.74243 -43.5705,25.15522"
         style="fill:none;stroke:#0000ff;stroke-width:0.25;stroke-linecap:square"
         clip-path="url(#p19ff625159)"
         id="path222" />
    </g>
    <g
       id="line2d_72">
      <path
         d="m 492.91215,384.43313 c -14.68795,7.98648 -29.52962,15.75988 -43.60744,24.79913 -0.79861,0.56136 -1.64674,1.07544 -2.36324,1.74201"
         style="fill:none;stroke:#0000ff;stroke-width:0.25;stroke-linecap:square"
         clip-path="url(#p19ff625159)"
         id="path225" />
    </g>
    <g
       id="line2d_73">
      <path
         d="m 487.66156,376.07511 c -14.47161,7.36314 -29.04093,14.65682 -42.68511,23.49303 -1.82476,1.32152 -3.84285,2.5218 -5.33097,4.22913"
         style="fill:none;stroke:#0000ff;stroke-width:0.25;stroke-linecap:square"
         clip-path="url(#p19ff625159)"
         id="path228" />
    </g>
    <g
       id="line2d_74">
      <path
         d="m 481.63421,367.78687 c -14.63793,7.01512 -29.34165,14.07355 -42.97074,22.93791 -2.35719,1.7527 -5.06932,3.3625 -6.78033,5.786"
         style="fill:none;stroke:#0000ff;stroke-width:0.25;stroke-linecap:square"
         clip-path="url(#p19ff625159)"
         id="path231" />
    </g>
    <g
       id="line2d_75">
      <path
         d="m 474.90784,359.65079 c -14.79944,6.71335 -29.63282,13.5807 -43.2981,22.43452 -2.79644,2.09754 -6.11583,4.06164 -7.90899,7.13016"
         style="fill:none;stroke:#0000ff;stroke-width:0.25;stroke-linecap:square"
         clip-path="url(#p19ff625159)"
         id="path234" />
    </g>
    <g
       id="line2d_76">
      <path
         d="m 467.56497,351.74921 c -15.0258,6.48958 -30.07246,13.21552 -43.84651,22.12763 -3.10691,2.31743 -6.71725,4.5355 -8.55509,8.04706 l -0.006,0.0632 -6.5e-4,0.02"
         style="fill:none;stroke:#0000ff;stroke-width:0.25;stroke-linecap:square"
         clip-path="url(#p19ff625159)"
         id="path237" />
    </g>
    <g
       id="line2d_77">
      <path
         d="m 459.69257,344.16324 c -15.1708,6.26228 -30.34683,12.84059 -44.19082,21.73615 -3.39637,2.49019 -7.2787,4.97241 -9.16578,8.85996 -0.0133,0.0716 -0.0183,0.14474 -0.0141,0.21736"
         style="fill:none;stroke:#0000ff;stroke-width:0.25;stroke-linecap:square"
         clip-path="url(#p19ff625159)"
         id="path240" />
    </g>
    <g
       id="line2d_78">
      <path
         d="m 451.38155,336.97158 c -15.12982,5.97792 -30.22987,12.36677 -44.02533,21.06789 -3.79373,2.65994 -7.99469,5.43747 -10.04834,9.72942 -0.0327,0.14363 -0.055,0.2942 -0.0339,0.44139"
         style="fill:none;stroke:#0000ff;stroke-width:0.25;stroke-linecap:square"
         clip-path="url(#p19ff625159)"
         id="path243" />
    </g>
    <g
       id="line2d_79">
      <path
         d="m 442.72607,330.24952 c -15.17683,5.77723 -30.32757,12.00327 -44.13155,20.64363 -3.98366,2.71398 -8.27629,5.66191 -10.41625,10.12448 -0.0734,0.24708 -0.13068,0.51352 -0.0786,0.77092"
         style="fill:none;stroke:#0000ff;stroke-width:0.25;stroke-linecap:square"
         clip-path="url(#p19ff625159)"
         id="path246" />
    </g>
    <g
       id="line2d_80">
      <path
         d="m 433.82268,324.06808 c -15.19916,5.58509 -30.36916,11.66289 -44.1709,20.22415 -4.15891,2.81548 -8.70501,5.9143 -10.7307,10.68791 -0.062,0.26122 -0.10415,0.54144 -0.0348,0.80577"
         style="fill:none;stroke:#0000ff;stroke-width:0.25;stroke-linecap:square"
         clip-path="url(#p19ff625159)"
         id="path249" />
    </g>
    <g
       id="line2d_81">
      <path
         d="m 424.76939,318.49311 c -15.01252,5.3327 -29.98439,11.19658 -43.63634,19.49921 -4.46885,2.94812 -9.44469,6.23663 -11.41222,11.44364 -0.0512,0.27377 -0.0741,0.56419 0.009,0.83428"
         style="fill:none;stroke:#0000ff;stroke-width:0.25;stroke-linecap:square"
         clip-path="url(#p19ff625159)"
         id="path252" />
    </g>
    <g
       id="line2d_82">
      <path
         d="m 415.66469,313.58456 c -15.00554,5.1716 -29.97694,10.89681 -43.59984,19.1381 -4.49718,2.9512 -9.51697,6.29688 -11.36277,11.59612 -0.0709,0.3197 -0.0833,0.6707 0.0258,0.98359"
         style="fill:none;stroke:#0000ff;stroke-width:0.25;stroke-linecap:square"
         clip-path="url(#p19ff625159)"
         id="path255" />
    </g>
    <g
       id="line2d_83">
      <path
         d="m 406.60646,309.39586 c -14.78342,4.948 -29.5296,10.46725 -42.9687,18.46375 -4.64584,2.95728 -9.75505,6.36026 -11.6838,11.77336 -0.086,0.42661 -0.14411,0.88681 0.0254,1.3018"
         style="fill:none;stroke:#0000ff;stroke-width:0.25;stroke-linecap:square"
         clip-path="url(#p19ff625159)"
         id="path258" />
    </g>
    <g
       id="line2d_84">
      <path
         d="m 397.69095,305.97329 c -14.66204,4.77969 -29.29456,10.13801 -42.61408,18.01007 -4.65594,2.95296 -9.85308,6.38878 -11.58167,11.91391 -0.069,0.43554 -0.10097,0.90295 0.0888,1.31473"
         style="fill:none;stroke:#0000ff;stroke-width:0.25;stroke-linecap:square"
         clip-path="url(#p19ff625159)"
         id="path261" />
    </g>
    <g
       id="line2d_85">
      <path
         d="m 389.01163,303.35559 c -14.48184,4.60589 -28.93812,9.79674 -42.09267,17.50754 -4.64383,2.93569 -9.91238,6.3817 -11.4299,11.98837 -0.0509,0.44155 -0.0566,0.91186 0.152,1.31759"
         style="fill:none;stroke:#0000ff;stroke-width:0.25;stroke-linecap:square"
         clip-path="url(#p19ff625159)"
         id="path264" />
    </g>
    <g
       id="line2d_86">
      <path
         d="m 380.6581,301.5735 c -14.33223,4.46324 -28.65523,9.49907 -41.65287,17.11656 -4.52015,2.86201 -9.70963,6.28066 -10.97074,11.83197 -0.0321,0.44406 -0.0108,0.91331 0.2154,1.30942"
         style="fill:none;stroke:#0000ff;stroke-width:0.25;stroke-linecap:square"
         clip-path="url(#p19ff625159)"
         id="path267" />
    </g>
    <g
       id="line2d_87">
      <path
         d="m 372.71491,300.64967 c -14.0704,4.30143 -28.14299,9.15817 -40.89832,16.6019 -4.41441,2.78689 -9.57243,6.16709 -10.58718,11.67379 -0.0119,0.44272 0.0362,0.90622 0.2783,1.28901"
         style="fill:none;stroke:#0000ff;stroke-width:0.25;stroke-linecap:square"
         clip-path="url(#p19ff625159)"
         id="path270" />
    </g>
    <g
       id="line2d_88">
      <path
         d="m 365.2604,300.59842 c -13.79497,4.15758 -27.60653,8.84515 -40.09947,16.13604 -4.22063,2.67449 -9.24722,5.97816 -9.99093,11.33308 0.008,0.43709 0.0835,0.88925 0.3391,1.25478"
         style="fill:none;stroke:#0000ff;stroke-width:0.25;stroke-linecap:square"
         clip-path="url(#p19ff625159)"
         id="path273" />
    </g>
    <g
       id="line2d_89">
      <path
         d="m 358.36545,301.42596 c -13.45598,4.02921 -26.95429,8.53373 -39.12969,15.65786 -3.97649,2.53634 -8.81165,5.72913 -9.28338,10.8596 0.0279,0.42633 0.13059,0.86133 0.3975,1.20476"
         style="fill:none;stroke:#0000ff;stroke-width:0.25;stroke-linecap:square"
         clip-path="url(#p19ff625159)"
         id="path276" />
    </g>
    <g
       id="line2d_90">
      <path
         d="m 352.09204,303.1306 c -12.99391,3.88616 -26.04144,8.20146 -37.80235,15.07469 -3.73549,2.38952 -8.39298,5.43897 -8.61886,10.33039 0.0476,0.40946 0.17619,0.8201 0.45081,1.13603"
         style="fill:none;stroke:#0000ff;stroke-width:0.25;stroke-linecap:square"
         clip-path="url(#p19ff625159)"
         id="path279" />
    </g>
    <g
       id="line2d_91">
      <path
         d="m 346.49155,305.7034 c -12.42172,3.7473 -24.90616,7.86655 -36.16044,14.43646 -3.46212,2.22382 -7.9033,5.07869 -7.90604,9.67314 0.0657,0.38508 0.219,0.76395 0.4958,1.04595"
         style="fill:none;stroke:#0000ff;stroke-width:0.25;stroke-linecap:square"
         clip-path="url(#p19ff625159)"
         id="path282" />
    </g>
    <g
       id="line2d_92">
      <path
         d="m 341.60244,309.12931 c -11.90035,3.67922 -23.89927,7.63257 -34.64435,14.05029 -2.97863,1.95725 -6.8486,4.54075 -6.63773,8.54725 0.0808,0.35293 0.25519,0.68972 0.52774,0.93185"
         style="fill:none;stroke:#0000ff;stroke-width:0.25;stroke-linecap:square"
         clip-path="url(#p19ff625159)"
         id="path285" />
    </g>
    <g
       id="line2d_93">
      <path
         d="m 337.44648,313.38923 c -11.21639,3.61675 -22.57162,7.38825 -32.66925,13.58454 -2.43115,1.67292 -5.97504,4.10478 -5.19283,7.49611 0.10173,0.20662 0.2523,0.38843 0.43509,0.52787"
         style="fill:none;stroke:#0000ff;stroke-width:0.25;stroke-linecap:square"
         clip-path="url(#p19ff625159)"
         id="path288" />
    </g>
    <g
       id="line2d_94">
      <path
         d="m 334.02159,318.46425 c -10.23546,3.49053 -20.625,7.03697 -29.83897,12.80615 -1.89972,1.37279 -4.83925,3.38769 -4.01633,6.08227 0.10354,0.16998 0.24981,0.31183 0.41826,0.41648"
         style="fill:none;stroke:#0000ff;stroke-width:0.25;stroke-linecap:square"
         clip-path="url(#p19ff625159)"
         id="path291" />
    </g>
    <g
       id="line2d_95">
      <path
         d="m 331.28479,324.34567 c -9.02516,3.32767 -18.25706,6.55842 -26.34137,11.8725 -1.14614,0.86541 -3.93437,3.12528 -2.16588,4.58615"
         style="fill:none;stroke:#0000ff;stroke-width:0.25;stroke-linecap:square"
         clip-path="url(#p19ff625159)"
         id="path294" />
    </g>
    <g
       id="line2d_96">
      <path
         d="m 329.09676,331.06742 c -7.23611,2.92998 -14.74193,5.60465 -21.15948,10.1362 -0.61132,0.51525 -2.07856,1.97394 -0.85658,2.57472"
         style="fill:none;stroke:#0000ff;stroke-width:0.25;stroke-linecap:square"
         clip-path="url(#p19ff625159)"
         id="path297" />
    </g>
    <g
       id="line2d_97">
      <path
         d="m 481.91426,444.71838 c -3.68399,-2.24403 -7.07351,-4.86324 -10.11707,-7.92323 -12.3291,-12.52082 -24.02549,-25.68316 -37.00649,-37.5549 -22.6942,-21.11747 -47.65917,-40.02793 -75.14599,-54.47863 -12.75514,-6.47695 -26.05663,-12.40103 -40.23294,-14.85888 -5.51544,-0.84457 -11.60888,-1.50593 -16.71939,1.15463 -1.9116,1.17477 -3.18954,3.51524 -2.31012,5.71966 0.62239,2.37806 2.52595,4.34659 4.63596,5.57595 0.68756,0.4751 1.37511,0.95021 2.06267,1.42531"
         style="fill:none;stroke:#000000;stroke-width:0.8;stroke-dasharray:2.96, 1.28;stroke-dashoffset:0"
         clip-path="url(#p19ff625159)"
         id="path300" />
    </g>
    <g
       id="line2d_98">
      <path
         d="m 487.41823,441.54066 c -7.25211,-8.47781 -13.06659,-18.06837 -20.20292,-26.64649 -19.10789,-23.94554 -41.94343,-44.88294 -67.22622,-62.15981 -16.29769,-10.9776 -33.67722,-20.69136 -52.45946,-26.68761 -8.50539,-2.55689 -17.45097,-4.64462 -26.36922,-3.62306 -4.37851,0.5452 -9.33982,2.16948 -11.35241,6.43891 -1.31217,2.51837 -0.77442,5.55309 0.26729,8.07683 0.83652,1.22038 1.67305,2.44077 2.50957,3.66115"
         style="fill:none;stroke:#008000;stroke-width:0.8;stroke-dasharray:2.96, 1.28;stroke-dashoffset:0"
         clip-path="url(#p19ff625159)"
         id="path303" />
    </g>
    <g
       id="line2d_99">
      <path
         d="m 503.93013,432.00751 c 0.6513,-4.15282 1.34682,-8.30328 0.8742,-12.51617 -0.16437,-4.18164 -1.03242,-8.3529 -2.14155,-12.3795 -2.45944,-8.8283 -6.44387,-17.17486 -11.19961,-24.98524 -7.32575,-12.07945 -16.4312,-23.02733 -26.51345,-32.89749 -11.88252,-11.72652 -25.26226,-21.90813 -39.63153,-30.39805 -11.96027,-6.84078 -24.64853,-12.62553 -38.08253,-15.85434 -7.76443,-1.83822 -15.80783,-2.88347 -23.77825,-2.16195 -6.11182,0.47527 -12.14295,2.17528 -17.46158,5.23594 -4.39623,2.74966 -8.24831,6.38216 -10.91958,10.85069 -2.84785,4.29418 -4.45385,9.28032 -5.97949,14.16597"
         style="fill:none;stroke:#000000;stroke-width:0.8;stroke-dasharray:2.96, 1.28;stroke-dashoffset:0"
         clip-path="url(#p19ff625159)"
         id="path306" />
    </g>
    <g
       id="line2d_100">
      <path
         d="m 487.41823,478.59437 c -4.47609,2.36053 -9.72338,2.47699 -14.58022,1.39545 -11.71676,-2.42832 -22.6361,-7.60387 -33.44803,-12.58127 -28.36523,-13.61167 -55.73736,-29.22008 -82.53546,-45.6807 -13.78995,-8.75562 -27.77626,-17.41211 -40.12159,-28.16975 -3.28541,-3.1895 -7.3839,-6.54134 -7.78914,-11.41196 0.46264,-2.14879 1.98898,-3.22642 3.64107,-4.49186"
         style="fill:none;stroke:#008000;stroke-width:0.8;stroke-dasharray:2.96, 1.28;stroke-dashoffset:0"
         clip-path="url(#p19ff625159)"
         id="path309" />
    </g>
    <g
       id="line2d_101">
      <path
         d="M 498.42616,472.23894 C 440.14838,438.59223 381.87058,404.94555 323.59279,371.29884"
         style="fill:none;stroke:#ff0000;stroke-width:0.8;stroke-dasharray:2.96, 1.28;stroke-dashoffset:0"
         clip-path="url(#p19ff625159)"
         id="path312" />
    </g>
    <g
       id="line2d_102">
      <path
         d="m 594.74557,379.57519 c -0.28107,-6.74257 -1.83287,-13.34726 -4.16996,-19.66279 -4.89511,-12.8541 -12.35248,-24.60231 -20.87411,-35.34749 -11.07385,-14.0179 -24.05321,-26.49323 -38.18226,-37.40238 -13.76545,-10.60896 -28.70801,-19.82559 -44.78088,-26.49947 -10.30178,-4.25633 -21.15676,-7.54545 -32.32064,-8.29916 -7.14801,-0.45741 -14.60388,0.15046 -21.09325,3.39226 -3.41523,1.55702 -6.28179,4.11418 -8.58929,7.05445 -2.98082,4.24831 -4.487,9.3875 -4.69926,14.55805 -0.0412,0.42215 -0.0825,0.84429 -0.12372,1.26644"
         style="fill:none;stroke:#008000;stroke-width:0.8;stroke-dasharray:2.96, 1.28;stroke-dashoffset:0"
         clip-path="url(#p19ff625159)"
         id="path315" />
    </g>
    <g
       id="line2d_103">
      <path
         d="m 594.74557,379.57519 c -0.28107,-6.74257 -1.83287,-13.34726 -4.16996,-19.66279 -4.89511,-12.8541 -12.35248,-24.60231 -20.87411,-35.34749 -11.07385,-14.0179 -24.05321,-26.49323 -38.18226,-37.40238 -13.76545,-10.60896 -28.70801,-19.82559 -44.78088,-26.49947 -10.30178,-4.25633 -21.15676,-7.54545 -32.32064,-8.29916 -7.14801,-0.45741 -14.60388,0.15046 -21.09325,3.39226 -3.41523,1.55702 -6.28179,4.11418 -8.58929,7.05445 -2.98082,4.24831 -4.487,9.3875 -4.69926,14.55805 -0.0412,0.42215 -0.0825,0.84429 -0.12372,1.26644"
         style="fill:none;stroke:#ff0000;stroke-width:0.8;stroke-dasharray:2.96, 1.28;stroke-dashoffset:0"
         clip-path="url(#p19ff625159)"
         id="path318" />
    </g>
    <g
       id="Poly3DCollection_1">
      <path
         d="m 481.91426,481.77208 c -4.42756,2.27625 -9.22665,3.98425 -14.26073,3.96889 -10.0429,0.25871 -19.77225,-2.98822 -29.13834,-6.28966 -24.12833,-9.1415 -46.93225,-21.3944 -69.30742,-34.15607 -18.85402,-11.08446 -37.65099,-22.49866 -54.61266,-36.3715 -5.26001,-4.58256 -10.84654,-9.31002 -13.81928,-15.75616 -0.90899,-2.50825 -1.03183,-5.59008 0.87954,-7.66181 1.88535,-2.73142 5.0158,-4.31192 7.78449,-6.03573 6.65925,-3.78683 13.24016,-7.76003 19.94841,-11.43028 4.40634,-1.44931 8.91386,0.8417 13.05396,2.23744 17.17599,7.13667 33.4216,16.28201 49.74786,25.14171 30.3411,16.87308 60.4538,34.20516 89.69667,52.93002 7.41841,5.0395 15.26202,9.70389 21.57655,16.13683 1.18325,1.24117 2.30669,3.3688 0.46682,4.57546 -7.33862,4.23695 -14.67725,8.47391 -22.01587,12.71086 z"
         style="fill-opacity:0.25"
         clip-path="url(#p19ff625159)"
         id="path321" />
    </g>
  </g>
  <defs
     id="defs329">
    <clipPath
       id="p19ff625159">
      <rect
         id="rect326"
         y="0"
         x="0"
         width="720"
         height="720" />
    </clipPath>
  </defs>
</svg>
