<?xml version="1.0" encoding="UTF-8" standalone="no"?>
<svg
   xmlns:dc="http://purl.org/dc/elements/1.1/"
   xmlns:cc="http://creativecommons.org/ns#"
   xmlns:rdf="http://www.w3.org/1999/02/22-rdf-syntax-ns#"
   xmlns:svg="http://www.w3.org/2000/svg"
   xmlns="http://www.w3.org/2000/svg"
   xmlns:sodipodi="http://sodipodi.sourceforge.net/DTD/sodipodi-0.dtd"
   xmlns:inkscape="http://www.inkscape.org/namespaces/inkscape"
   inkscape:version="1.0 (4035a4fb49, 2020-05-01)"
   sodipodi:docname="elliptical1_canopy_airfoils.svg"
   id="svg331"
   width="441.41013pt"
   viewBox="0 0 441.41013 414.19595"
   version="1.1"
   height="414.19595pt">
  <metadata
     id="metadata335">
    <rdf:RDF>
      <cc:Work
         rdf:about="">
        <dc:format>image/svg+xml</dc:format>
        <dc:type
           rdf:resource="http://purl.org/dc/dcmitype/StillImage" />
      </cc:Work>
    </rdf:RDF>
  </metadata>
  <sodipodi:namedview
     inkscape:current-layer="svg331"
     inkscape:window-maximized="0"
     inkscape:window-y="27"
     inkscape:window-x="0"
     inkscape:cy="310.28839"
     inkscape:cx="207.91423"
     inkscape:zoom="1.06875"
     showgrid="false"
     id="namedview333"
     inkscape:window-height="1198"
     inkscape:window-width="1396"
     inkscape:pageshadow="2"
     inkscape:pageopacity="0"
     guidetolerance="10"
     gridtolerance="10"
     objecttolerance="10"
     borderopacity="1"
     bordercolor="#666666"
     pagecolor="#ffffff" />
  <defs
     id="defs4">
    <style
       id="style2"
       type="text/css">
*{stroke-linecap:butt;stroke-linejoin:round;}
  </style>
  </defs>
  <g
     transform="translate(-204.06433,-127.28371)"
     id="axes_1">
    <g
       id="line2d_1">
      <path
         d="M 644.92804,445.60176 C 553.19527,392.63982 461.4625,339.67788 369.72973,286.71594"
         style="fill:none;stroke:#d3d3d3;stroke-width:0.8;stroke-linecap:square"
         clip-path="url(#pa9ba2f470b)"
         id="path12" />
    </g>
    <g
       id="line2d_2">
      <path
         d="M 617.40821,461.49034 C 525.67544,408.5284 433.94267,355.56646 342.2099,302.60452"
         style="fill:none;stroke:#d3d3d3;stroke-width:0.8;stroke-linecap:square"
         clip-path="url(#pa9ba2f470b)"
         id="path15" />
    </g>
    <g
       id="line2d_3">
      <path
         d="M 589.88838,477.37893 C 498.15561,424.41699 406.42284,371.45505 314.69007,318.49311"
         style="fill:none;stroke:#d3d3d3;stroke-width:0.8;stroke-linecap:square"
         clip-path="url(#pa9ba2f470b)"
         id="path18" />
    </g>
    <g
       id="line2d_4">
      <path
         d="M 562.36855,493.26751 C 470.63578,440.30557 378.903,387.34363 287.17023,334.38169"
         style="fill:none;stroke:#d3d3d3;stroke-width:0.8;stroke-linecap:square"
         clip-path="url(#pa9ba2f470b)"
         id="path21" />
    </g>
    <g
       id="line2d_5">
      <path
         d="M 534.84872,509.15609 C 443.11595,456.19415 351.38317,403.23221 259.6504,350.27027"
         style="fill:none;stroke:#d3d3d3;stroke-width:0.8;stroke-linecap:square"
         clip-path="url(#pa9ba2f470b)"
         id="path24" />
    </g>
    <g
       id="line2d_6">
      <path
         d="M 507.32889,525.04467 C 415.59612,472.08273 323.86334,419.12079 232.13057,366.15885"
         style="fill:none;stroke:#d3d3d3;stroke-width:0.8;stroke-linecap:square"
         clip-path="url(#pa9ba2f470b)"
         id="path27" />
    </g>
    <g
       id="line2d_7">
      <path
         d="M 479.80906,540.93326 C 388.07629,487.97132 296.34351,435.00937 204.61074,382.04743"
         style="fill:none;stroke:#d3d3d3;stroke-width:0.8;stroke-linecap:square"
         clip-path="url(#pa9ba2f470b)"
         id="path30" />
    </g>
    <g
       id="line2d_8">
      <path
         d="m 644.92804,445.60176 c -55.03966,31.77717 -110.07932,63.55433 -165.11898,95.3315"
         style="fill:none;stroke:#d3d3d3;stroke-width:0.8;stroke-linecap:square"
         clip-path="url(#pa9ba2f470b)"
         id="path33" />
    </g>
    <g
       id="line2d_9">
      <path
         d="m 644.92804,286.71594 c 0,52.96194 0,105.92388 0,158.88582"
         style="fill:none;stroke:#d3d3d3;stroke-width:0.8;stroke-linecap:square"
         clip-path="url(#pa9ba2f470b)"
         id="path36" />
    </g>
    <g
       id="line2d_10">
      <path
         d="m 617.40821,429.71318 c -55.03966,31.77716 -110.07933,63.55433 -165.11899,95.33149"
         style="fill:none;stroke:#d3d3d3;stroke-width:0.8;stroke-linecap:square"
         clip-path="url(#pa9ba2f470b)"
         id="path39" />
    </g>
    <g
       id="line2d_11">
      <path
         d="m 617.40821,270.82736 c 0,52.96194 0,105.92388 0,158.88582"
         style="fill:none;stroke:#d3d3d3;stroke-width:0.8;stroke-linecap:square"
         clip-path="url(#pa9ba2f470b)"
         id="path42" />
    </g>
    <g
       id="line2d_12">
      <path
         d="m 589.88838,413.8246 c -55.03966,31.77716 -110.07933,63.55433 -165.11899,95.33149"
         style="fill:none;stroke:#d3d3d3;stroke-width:0.8;stroke-linecap:square"
         clip-path="url(#pa9ba2f470b)"
         id="path45" />
    </g>
    <g
       id="line2d_13">
      <path
         d="m 589.88838,254.93878 c 0,52.96194 0,105.92388 0,158.88582"
         style="fill:none;stroke:#d3d3d3;stroke-width:0.8;stroke-linecap:square"
         clip-path="url(#pa9ba2f470b)"
         id="path48" />
    </g>
    <g
       id="line2d_14">
      <path
         d="m 562.36855,397.93602 c -55.03966,31.77716 -110.07933,63.55433 -165.11899,95.33149"
         style="fill:none;stroke:#d3d3d3;stroke-width:0.8;stroke-linecap:square"
         clip-path="url(#pa9ba2f470b)"
         id="path51" />
    </g>
    <g
       id="line2d_15">
      <path
         d="m 562.36855,239.05019 c 0,52.96194 0,105.92389 0,158.88583"
         style="fill:none;stroke:#d3d3d3;stroke-width:0.8;stroke-linecap:square"
         clip-path="url(#pa9ba2f470b)"
         id="path54" />
    </g>
    <g
       id="line2d_16">
      <path
         d="m 534.84872,382.04743 c -55.03966,31.77717 -110.07933,63.55433 -165.11899,95.3315"
         style="fill:none;stroke:#d3d3d3;stroke-width:0.8;stroke-linecap:square"
         clip-path="url(#pa9ba2f470b)"
         id="path57" />
    </g>
    <g
       id="line2d_17">
      <path
         d="m 534.84872,223.16161 c 0,52.96194 0,105.92388 0,158.88582"
         style="fill:none;stroke:#d3d3d3;stroke-width:0.8;stroke-linecap:square"
         clip-path="url(#pa9ba2f470b)"
         id="path60" />
    </g>
    <g
       id="line2d_18">
      <path
         d="M 507.32889,366.15885 C 452.28923,397.93601 397.24956,429.71318 342.2099,461.49034"
         style="fill:none;stroke:#d3d3d3;stroke-width:0.8;stroke-linecap:square"
         clip-path="url(#pa9ba2f470b)"
         id="path63" />
    </g>
    <g
       id="line2d_19">
      <path
         d="m 507.32889,207.27303 c 0,52.96194 0,105.92388 0,158.88582"
         style="fill:none;stroke:#d3d3d3;stroke-width:0.8;stroke-linecap:square"
         clip-path="url(#pa9ba2f470b)"
         id="path66" />
    </g>
    <g
       id="line2d_20">
      <path
         d="M 479.80906,350.27027 C 424.7694,382.04743 369.72973,413.8246 314.69007,445.60176"
         style="fill:none;stroke:#d3d3d3;stroke-width:0.8;stroke-linecap:square"
         clip-path="url(#pa9ba2f470b)"
         id="path69" />
    </g>
    <g
       id="line2d_21">
      <path
         d="m 479.80906,191.38445 c 0,52.96194 0,105.92388 0,158.88582"
         style="fill:none;stroke:#d3d3d3;stroke-width:0.8;stroke-linecap:square"
         clip-path="url(#pa9ba2f470b)"
         id="path72" />
    </g>
    <g
       id="line2d_22">
      <path
         d="m 452.28922,334.38169 c -55.03966,31.77716 -110.07933,63.55433 -165.11899,95.33149"
         style="fill:none;stroke:#d3d3d3;stroke-width:0.8;stroke-linecap:square"
         clip-path="url(#pa9ba2f470b)"
         id="path75" />
    </g>
    <g
       id="line2d_23">
      <path
         d="m 452.28922,175.49587 c 0,52.96194 0,105.92388 0,158.88582"
         style="fill:none;stroke:#d3d3d3;stroke-width:0.8;stroke-linecap:square"
         clip-path="url(#pa9ba2f470b)"
         id="path78" />
    </g>
    <g
       id="line2d_24">
      <path
         d="M 424.76939,318.49311 C 369.72973,350.27027 314.69006,382.04744 259.6504,413.8246"
         style="fill:none;stroke:#d3d3d3;stroke-width:0.8;stroke-linecap:square"
         clip-path="url(#pa9ba2f470b)"
         id="path81" />
    </g>
    <g
       id="line2d_25">
      <path
         d="m 424.76939,159.60728 c 0,52.96194 0,105.92389 0,158.88583"
         style="fill:none;stroke:#d3d3d3;stroke-width:0.8;stroke-linecap:square"
         clip-path="url(#pa9ba2f470b)"
         id="path84" />
    </g>
    <g
       id="line2d_26">
      <path
         d="m 397.24956,302.60452 c -55.03966,31.77717 -110.07933,63.55433 -165.11899,95.3315"
         style="fill:none;stroke:#d3d3d3;stroke-width:0.8;stroke-linecap:square"
         clip-path="url(#pa9ba2f470b)"
         id="path87" />
    </g>
    <g
       id="line2d_27">
      <path
         d="m 397.24956,143.7187 c 0,52.96194 0,105.92388 0,158.88582"
         style="fill:none;stroke:#d3d3d3;stroke-width:0.8;stroke-linecap:square"
         clip-path="url(#pa9ba2f470b)"
         id="path90" />
    </g>
    <g
       id="line2d_28">
      <path
         d="M 369.72973,286.71594 C 314.69007,318.4931 259.6504,350.27027 204.61074,382.04743"
         style="fill:none;stroke:#d3d3d3;stroke-width:0.8;stroke-linecap:square"
         clip-path="url(#pa9ba2f470b)"
         id="path93" />
    </g>
    <g
       id="line2d_29">
      <path
         d="m 369.72973,127.83012 c 0,52.96194 0,105.92388 0,158.88582"
         style="fill:none;stroke:#d3d3d3;stroke-width:0.8;stroke-linecap:square"
         clip-path="url(#pa9ba2f470b)"
         id="path96" />
    </g>
    <g
       id="line2d_30">
      <path
         d="M 644.92804,286.71594 C 553.19527,233.754 461.4625,180.79206 369.72973,127.83012"
         style="fill:none;stroke:#d3d3d3;stroke-width:0.8;stroke-linecap:square"
         clip-path="url(#pa9ba2f470b)"
         id="path99" />
    </g>
    <g
       id="line2d_31">
      <path
         d="M 644.92804,318.49311 C 553.19527,265.53117 461.4625,212.56922 369.72973,159.60728"
         style="fill:none;stroke:#d3d3d3;stroke-width:0.8;stroke-linecap:square"
         clip-path="url(#pa9ba2f470b)"
         id="path102" />
    </g>
    <g
       id="line2d_32">
      <path
         d="M 644.92804,350.27027 C 553.19527,297.30833 461.4625,244.34639 369.72973,191.38445"
         style="fill:none;stroke:#d3d3d3;stroke-width:0.8;stroke-linecap:square"
         clip-path="url(#pa9ba2f470b)"
         id="path105" />
    </g>
    <g
       id="line2d_33">
      <path
         d="M 644.92804,382.04743 C 553.19527,329.08549 461.4625,276.12355 369.72973,223.16161"
         style="fill:none;stroke:#d3d3d3;stroke-width:0.8;stroke-linecap:square"
         clip-path="url(#pa9ba2f470b)"
         id="path108" />
    </g>
    <g
       id="line2d_34">
      <path
         d="M 644.92804,413.8246 C 553.19527,360.86266 461.4625,307.90072 369.72973,254.93878"
         style="fill:none;stroke:#d3d3d3;stroke-width:0.8;stroke-linecap:square"
         clip-path="url(#pa9ba2f470b)"
         id="path111" />
    </g>
    <g
       id="line2d_35">
      <path
         d="m 503.67978,438.94872 c -7.43932,3.86291 -15.19527,7.33362 -21.93529,12.37072 -0.0693,0.0714 -0.25555,0.27147 -0.0798,0.3399"
         style="fill:none;stroke:#ff0000;stroke-width:0.25;stroke-linecap:square"
         clip-path="url(#pa9ba2f470b)"
         id="path114" />
    </g>
    <g
       id="line2d_36">
      <path
         d="m 502.21303,428.68121 c -9.54778,5.04962 -19.36469,9.74072 -28.23157,15.95085 -0.0658,0.0905 -0.54947,0.39156 -0.27662,0.50784"
         style="fill:none;stroke:#ff0000;stroke-width:0.25;stroke-linecap:square"
         clip-path="url(#pa9ba2f470b)"
         id="path117" />
    </g>
    <g
       id="line2d_37">
      <path
         d="m 499.83539,418.63397 c -11.15101,6.0313 -22.52063,11.75204 -33.08007,18.79537 -0.0396,0.0766 -0.65949,0.42039 -0.35697,0.50931"
         style="fill:none;stroke:#ff0000;stroke-width:0.25;stroke-linecap:square"
         clip-path="url(#pa9ba2f470b)"
         id="path120" />
    </g>
    <g
       id="line2d_38">
      <path
         d="m 496.72479,408.77496 c -12.53736,6.97083 -25.28538,13.62511 -37.34824,21.4021 -0.0375,0.0215 -0.28356,0.23535 -0.0787,0.20656"
         style="fill:none;stroke:#ff0000;stroke-width:0.25;stroke-linecap:square"
         clip-path="url(#pa9ba2f470b)"
         id="path123" />
    </g>
    <g
       id="line2d_39">
      <path
         d="m 492.9759,399.12166 c -13.64713,7.77553 -27.45462,15.31164 -40.82837,23.5403 0.0238,0.0138 0.0505,-0.007 0.0743,-0.011"
         style="fill:none;stroke:#ff0000;stroke-width:0.25;stroke-linecap:square"
         clip-path="url(#pa9ba2f470b)"
         id="path126" />
    </g>
    <g
       id="line2d_40">
      <path
         d="m 488.65509,389.7089 c -14.49859,8.39055 -29.15388,16.96345 -43.59996,25.17458 l 0.0211,-0.0137 0.008,-0.005"
         style="fill:none;stroke:#ff0000;stroke-width:0.25;stroke-linecap:square"
         clip-path="url(#pa9ba2f470b)"
         id="path129" />
    </g>
    <g
       id="line2d_41">
      <path
         d="m 483.81694,380.57885 c -15.16941,8.97097 -30.20139,18.20426 -45.73683,26.53319 -0.0162,0.0115 -0.41485,0.1886 -0.23411,0.007"
         style="fill:none;stroke:#ff0000;stroke-width:0.25;stroke-linecap:square"
         clip-path="url(#pa9ba2f470b)"
         id="path132" />
    </g>
    <g
       id="line2d_42">
      <path
         d="m 478.51075,371.77686 c -15.45495,9.38119 -30.75153,19.08596 -46.81727,27.4035 -0.16283,0.011 -1.29513,0.74312 -1.19912,0.31866"
         style="fill:none;stroke:#ff0000;stroke-width:0.25;stroke-linecap:square"
         clip-path="url(#pa9ba2f470b)"
         id="path135" />
    </g>
    <g
       id="line2d_43">
      <path
         d="m 472.78345,363.34927 c -15.10896,9.43723 -30.09869,19.14549 -45.94001,27.3279 -1.18021,0.40765 -2.75884,1.75047 -3.81619,1.40922 l 0.005,-0.0128"
         style="fill:none;stroke:#ff0000;stroke-width:0.25;stroke-linecap:square"
         clip-path="url(#pa9ba2f470b)"
         id="path138" />
    </g>
    <g
       id="line2d_44">
      <path
         d="m 466.68107,355.34213 c -14.68687,9.43849 -29.30333,19.0778 -44.80333,27.14887 -2.09419,0.86223 -4.13069,2.41679 -6.38078,2.60051 -0.0424,-0.0531 -0.0371,-0.12318 -0.0236,-0.1846"
         style="fill:none;stroke:#ff0000;stroke-width:0.25;stroke-linecap:square"
         clip-path="url(#pa9ba2f470b)"
         id="path141" />
    </g>
    <g
       id="line2d_45">
      <path
         d="m 460.24944,347.80035 c -14.40072,9.51745 -28.78312,19.16268 -44.08445,27.19301 -2.68389,1.16264 -5.2719,2.94805 -8.18167,3.35029 -0.11787,-0.0428 -0.15648,-0.1737 -0.14258,-0.2856"
         style="fill:none;stroke:#ff0000;stroke-width:0.25;stroke-linecap:square"
         clip-path="url(#pa9ba2f470b)"
         id="path144" />
    </g>
    <g
       id="line2d_46">
      <path
         d="m 453.53454,340.76704 c -14.20718,9.64324 -28.44244,19.35613 -43.651,27.37286 -3.06168,1.36492 -6.03522,3.24635 -9.36087,3.82351 -0.20543,-0.009 -0.37222,-0.17763 -0.35848,-0.3831"
         style="fill:none;stroke:#ff0000;stroke-width:0.25;stroke-linecap:square"
         clip-path="url(#pa9ba2f470b)"
         id="path147" />
    </g>
    <g
       id="line2d_47">
      <path
         d="m 446.5826,334.28304 c -14.10006,9.81025 -28.26402,19.65726 -43.4858,27.67068 -3.32376,1.45601 -6.57347,3.50741 -10.19904,4.00881 -0.22758,-0.026 -0.41374,-0.21151 -0.42183,-0.44073"
         style="fill:none;stroke:#ff0000;stroke-width:0.25;stroke-linecap:square"
         clip-path="url(#pa9ba2f470b)"
         id="path150" />
    </g>
    <g
       id="line2d_48">
      <path
         d="m 439.44008,328.3865 c -13.84117,9.86707 -27.79014,19.71963 -42.83328,27.69197 -3.57624,1.64886 -7.1266,3.66171 -11.02878,4.37235 -0.33651,0.0171 -0.72261,-0.15689 -0.76561,-0.52533"
         style="fill:none;stroke:#ff0000;stroke-width:0.25;stroke-linecap:square"
         clip-path="url(#pa9ba2f470b)"
         id="path153" />
    </g>
    <g
       id="line2d_49">
      <path
         d="m 432.15352,323.11257 c -13.59057,9.91322 -27.32951,19.76841 -42.20177,27.69099 -3.83687,1.78264 -7.67888,3.93191 -11.88925,4.60949 -0.36869,0.003 -0.77059,-0.19398 -0.84622,-0.58246"
         style="fill:none;stroke:#ff0000;stroke-width:0.25;stroke-linecap:square"
         clip-path="url(#pa9ba2f470b)"
         id="path156" />
    </g>
    <g
       id="line2d_50">
      <path
         d="m 424.76939,318.49311 c -13.31933,9.92884 -26.82665,19.75793 -41.49884,27.61508 -4.05432,1.8977 -8.14579,4.15837 -12.61652,4.79347 -0.39699,-0.0153 -0.81627,-0.22153 -0.92457,-0.63136"
         style="fill:none;stroke:#ff0000;stroke-width:0.25;stroke-linecap:square"
         clip-path="url(#pa9ba2f470b)"
         id="path159" />
    </g>
    <g
       id="line2d_51">
      <path
         d="m 417.33384,314.55643 c -13.08433,9.95196 -26.3922,19.77281 -40.90992,27.55566 -4.17476,1.95046 -8.41143,4.25853 -13.02756,4.83325 -0.42287,-0.0289 -0.85936,-0.24603 -0.99936,-0.67115"
         style="fill:none;stroke:#ff0000;stroke-width:0.25;stroke-linecap:square"
         clip-path="url(#pa9ba2f470b)"
         id="path162" />
    </g>
    <g
       id="line2d_52">
      <path
         d="m 409.89245,311.32717 c -12.84151,9.94812 -25.93547,19.74688 -40.28958,27.42876 -4.20886,1.9721 -8.50465,4.24926 -13.16269,4.8152 -0.4769,-0.006 -0.99213,-0.23709 -1.17483,-0.70488"
         style="fill:none;stroke:#ff0000;stroke-width:0.25;stroke-linecap:square"
         clip-path="url(#pa9ba2f470b)"
         id="path165" />
    </g>
    <g
       id="line2d_53">
      <path
         d="m 402.4899,308.82611 c -12.52242,9.86791 -25.32465,19.56532 -39.40981,27.11617 -4.19414,2.02687 -8.50967,4.13897 -13.14545,4.86256 -0.59342,0.0165 -1.28372,-0.14399 -1.55188,-0.73991"
         style="fill:none;stroke:#ff0000;stroke-width:0.25;stroke-linecap:square"
         clip-path="url(#pa9ba2f470b)"
         id="path168" />
    </g>
    <g
       id="line2d_54">
      <path
         d="m 395.16967,307.07007 c -12.24317,9.79242 -24.78569,19.40968 -38.65324,26.81161 -4.17512,2.00534 -8.48273,4.08188 -13.10057,4.75418 -0.61381,0.0108 -1.31345,-0.1584 -1.61672,-0.75227"
         style="fill:none;stroke:#ff0000;stroke-width:0.25;stroke-linecap:square"
         clip-path="url(#pa9ba2f470b)"
         id="path171" />
    </g>
    <g
       id="line2d_55">
      <path
         d="m 387.97364,306.0719 c -11.91971,9.66581 -24.15971,19.14565 -37.74872,26.37075 -4.22916,1.97219 -8.59552,4.18777 -13.29152,4.62255 -0.53386,-0.0226 -1.09072,-0.25575 -1.36798,-0.73531"
         style="fill:none;stroke:#ff0000;stroke-width:0.25;stroke-linecap:square"
         clip-path="url(#pa9ba2f470b)"
         id="path174" />
    </g>
    <g
       id="line2d_56">
      <path
         d="m 380.94169,305.84048 c -11.55219,9.4839 -23.44376,18.76872 -36.69118,25.78769 -4.16936,1.93026 -8.47967,4.09817 -13.10814,4.49981 -0.54186,-0.0244 -1.10589,-0.25128 -1.40828,-0.72292"
         style="fill:none;stroke:#ff0000;stroke-width:0.25;stroke-linecap:square"
         clip-path="url(#pa9ba2f470b)"
         id="path177" />
    </g>
    <g
       id="line2d_57">
      <path
         d="m 374.11116,306.3808 c -11.23375,9.31568 -22.82131,18.43221 -35.79595,25.21974 -4.03036,1.81027 -8.18834,3.90868 -12.6532,4.19604 -0.49991,-0.0569 -1.00511,-0.26875 -1.30219,-0.6919"
         style="fill:none;stroke:#ff0000;stroke-width:0.25;stroke-linecap:square"
         clip-path="url(#pa9ba2f470b)"
         id="path180" />
    </g>
    <g
       id="line2d_58">
      <path
         d="m 367.51627,307.69417 c -10.8403,9.06165 -22.04096,17.93115 -34.63892,24.44091 -3.84627,1.70169 -7.8111,3.68044 -12.06309,3.93912 -0.49726,-0.0532 -1.00105,-0.25161 -1.31415,-0.65781"
         style="fill:none;stroke:#ff0000;stroke-width:0.25;stroke-linecap:square"
         clip-path="url(#pa9ba2f470b)"
         id="path183" />
    </g>
    <g
       id="line2d_59">
      <path
         d="m 361.18725,309.77857 c -10.39355,8.7317 -21.13982,17.29638 -33.28256,23.48633 -3.63346,1.58264 -7.37167,3.42483 -11.37756,3.66847 -0.48894,-0.0476 -0.98606,-0.22948 -1.31042,-0.61385"
         style="fill:none;stroke:#ff0000;stroke-width:0.25;stroke-linecap:square"
         clip-path="url(#pa9ba2f470b)"
         id="path186" />
    </g>
    <g
       id="line2d_60">
      <path
         d="m 355.14919,312.62924 c -9.92314,8.36758 -20.19498,16.58396 -31.85635,22.41427 -3.44861,1.40594 -6.99063,3.29008 -10.7833,3.24775 -0.34984,-0.0761 -0.6848,-0.24349 -0.93105,-0.50643"
         style="fill:none;stroke:#ff0000;stroke-width:0.25;stroke-linecap:square"
         clip-path="url(#pa9ba2f470b)"
         id="path189" />
    </g>
    <g
       id="line2d_61">
      <path
         d="m 349.42012,316.2397 c -9.47021,7.98655 -19.27263,15.87119 -30.49684,21.265 -3.0914,1.12422 -6.27374,2.9859 -9.64449,2.63824 -0.22772,-0.0794 -0.43954,-0.20606 -0.61283,-0.37384"
         style="fill:none;stroke:#ff0000;stroke-width:0.25;stroke-linecap:square"
         clip-path="url(#pa9ba2f470b)"
         id="path192" />
    </g>
    <g
       id="line2d_62">
      <path
         d="m 344.00765,320.60368 c -8.84042,7.43105 -17.98017,14.82082 -28.51931,19.71144 -2.73609,0.90381 -5.59073,2.71347 -8.54508,2.136 -0.13123,-0.0623 -0.25379,-0.14279 -0.36258,-0.2389"
         style="fill:none;stroke:#ff0000;stroke-width:0.25;stroke-linecap:square"
         clip-path="url(#pa9ba2f470b)"
         id="path195" />
    </g>
    <g
       id="line2d_63">
      <path
         d="m 338.9021,325.71909 c -8.13067,6.80138 -16.52991,13.6204 -26.30935,17.90391 -2.21961,0.63165 -4.83853,2.41895 -7.12772,1.40113"
         style="fill:none;stroke:#ff0000;stroke-width:0.25;stroke-linecap:square"
         clip-path="url(#pa9ba2f470b)"
         id="path198" />
    </g>
    <g
       id="line2d_64">
      <path
         d="m 334.05967,331.59782 c -7.38413,6.09171 -14.98414,12.3586 -24.02095,15.81588 -1.38818,0.3743 -3.07334,1.37069 -4.48658,0.64286"
         style="fill:none;stroke:#ff0000;stroke-width:0.25;stroke-linecap:square"
         clip-path="url(#pa9ba2f470b)"
         id="path201" />
    </g>
    <g
       id="line2d_65">
      <path
         d="m 329.34711,338.29771 c -6.25119,5.06724 -12.68603,10.47712 -20.54077,12.79495 -0.47752,0.0989 -1.03772,0.19653 -1.47507,-0.084"
         style="fill:none;stroke:#ff0000;stroke-width:0.25;stroke-linecap:square"
         clip-path="url(#pa9ba2f470b)"
         id="path204" />
    </g>
    <g
       id="line2d_66">
      <path
         d="m 503.67978,438.94872 c -6.48731,4.51345 -12.90177,9.38288 -20.26877,12.37508 -0.56165,0.15375 -1.15714,0.4311 -1.74705,0.33515"
         style="fill:none;stroke:#0000ff;stroke-width:0.25;stroke-linecap:square"
         clip-path="url(#pa9ba2f470b)"
         id="path207" />
    </g>
    <g
       id="line2d_67">
      <path
         d="m 502.21303,428.68121 c -8.35119,5.62897 -16.63682,11.53766 -25.84474,15.7001 -0.86174,0.3 -1.73641,0.75118 -2.66314,0.7587"
         style="fill:none;stroke:#0000ff;stroke-width:0.25;stroke-linecap:square"
         clip-path="url(#pa9ba2f470b)"
         id="path210" />
    </g>
    <g
       id="line2d_68">
      <path
         d="m 499.83539,418.63397 c -9.99355,6.46879 -19.90181,13.20219 -30.66558,18.34378 -0.90053,0.35627 -1.80337,0.83651 -2.77197,0.96141"
         style="fill:none;stroke:#0000ff;stroke-width:0.25;stroke-linecap:square"
         clip-path="url(#pa9ba2f470b)"
         id="path213" />
    </g>
    <g
       id="line2d_69">
      <path
         d="m 496.72479,408.77496 c -11.65341,7.2265 -23.18973,14.72892 -35.48275,20.83832 -0.63803,0.27438 -1.26522,0.60997 -1.94448,0.76989"
         style="fill:none;stroke:#0000ff;stroke-width:0.25;stroke-linecap:square"
         clip-path="url(#pa9ba2f470b)"
         id="path216" />
    </g>
    <g
       id="line2d_70">
      <path
         d="m 492.9759,399.12166 c -13.425,7.95502 -26.69851,16.20736 -40.53342,23.43858 -0.0733,0.0307 -0.14526,0.0662 -0.22114,0.0905"
         style="fill:none;stroke:#0000ff;stroke-width:0.25;stroke-linecap:square"
         clip-path="url(#pa9ba2f470b)"
         id="path219" />
    </g>
    <g
       id="line2d_71">
      <path
         d="m 488.65509,389.7089 c -14.54146,8.35334 -29.1315,16.62638 -43.57065,25.15575"
         style="fill:none;stroke:#0000ff;stroke-width:0.25;stroke-linecap:square"
         clip-path="url(#pa9ba2f470b)"
         id="path222" />
    </g>
    <g
       id="line2d_72">
      <path
         d="m 483.81694,380.57885 c -14.99295,8.27662 -30.1603,16.29714 -44.59441,25.53158 -0.4645,0.3267 -0.95215,0.62911 -1.37593,1.00919"
         style="fill:none;stroke:#0000ff;stroke-width:0.25;stroke-linecap:square"
         clip-path="url(#pa9ba2f470b)"
         id="path225" />
    </g>
    <g
       id="line2d_73">
      <path
         d="m 478.51075,371.77686 c -14.75477,7.73385 -29.62862,15.33856 -43.64064,24.37656 -1.48529,1.06661 -3.10332,2.02124 -4.37552,3.34568"
         style="fill:none;stroke:#0000ff;stroke-width:0.25;stroke-linecap:square"
         clip-path="url(#pa9ba2f470b)"
         id="path228" />
    </g>
    <g
       id="line2d_74">
      <path
         d="m 472.78345,363.34927 c -14.83807,7.38814 -29.76312,14.74751 -43.68677,23.781 -2.08832,1.5283 -4.42571,2.91786 -6.06494,4.94302"
         style="fill:none;stroke:#0000ff;stroke-width:0.25;stroke-linecap:square"
         clip-path="url(#pa9ba2f470b)"
         id="path231" />
    </g>
    <g
       id="line2d_75">
      <path
         d="m 466.68107,355.34213 c -14.9241,7.052 -29.89601,14.19047 -43.77713,23.1717 -2.59046,1.91973 -5.59739,3.69612 -7.43042,6.39305"
         style="fill:none;stroke:#0000ff;stroke-width:0.25;stroke-linecap:square"
         clip-path="url(#pa9ba2f470b)"
         id="path234" />
    </g>
    <g
       id="line2d_76">
      <path
         d="m 460.24944,347.80035 c -15.08503,6.77253 -30.19576,13.72627 -44.11158,22.71911 -2.93277,2.19642 -6.4658,4.29044 -8.29647,7.53883"
         style="fill:none;stroke:#0000ff;stroke-width:0.25;stroke-linecap:square"
         clip-path="url(#pa9ba2f470b)"
         id="path237" />
    </g>
    <g
       id="line2d_77">
      <path
         d="m 453.53454,340.76704 c -15.15218,6.46603 -30.30575,13.20893 -44.20752,22.11827 -3.33938,2.42186 -7.10058,4.80096 -9.13615,8.48962 -0.0158,0.0672 -0.0276,0.13629 -0.0271,0.20555"
         style="fill:none;stroke:#0000ff;stroke-width:0.25;stroke-linecap:square"
         clip-path="url(#pa9ba2f470b)"
         id="path240" />
    </g>
    <g
       id="line2d_78">
      <path
         d="m 446.5826,334.28304 c -15.22426,6.18086 -30.42966,12.7287 -44.33055,21.56597 -3.63513,2.56319 -7.61719,5.21432 -9.72379,9.24721 -0.0384,0.13739 -0.0663,0.28231 -0.053,0.42562"
         style="fill:none;stroke:#0000ff;stroke-width:0.25;stroke-linecap:square"
         clip-path="url(#pa9ba2f470b)"
         id="path243" />
    </g>
    <g
       id="line2d_79">
      <path
         d="m 439.44008,328.3865 c -15.20934,5.8921 -30.39133,12.21556 -44.24164,20.91366 -3.94375,2.7445 -8.3546,5.64399 -10.36703,10.16789 -0.0297,0.14965 -0.0451,0.30612 -0.0183,0.45748"
         style="fill:none;stroke:#0000ff;stroke-width:0.25;stroke-linecap:square"
         clip-path="url(#pa9ba2f470b)"
         id="path246" />
    </g>
    <g
       id="line2d_80">
      <path
         d="m 432.15352,323.11257 c -15.16941,5.62006 -30.30446,11.7286 -44.09562,20.27358 -4.1665,2.81476 -8.71103,5.89736 -10.79478,10.64584 -0.0654,0.25822 -0.11024,0.535 -0.0466,0.79837"
         style="fill:none;stroke:#0000ff;stroke-width:0.25;stroke-linecap:square"
         clip-path="url(#pa9ba2f470b)"
         id="path249" />
    </g>
    <g
       id="line2d_81">
      <path
         d="m 424.76939,318.49311 c -15.01252,5.3327 -29.98439,11.19658 -43.63634,19.49921 -4.46885,2.94812 -9.44469,6.23663 -11.41222,11.44364 -0.0512,0.27377 -0.0741,0.56419 0.009,0.83428"
         style="fill:none;stroke:#0000ff;stroke-width:0.25;stroke-linecap:square"
         clip-path="url(#pa9ba2f470b)"
         id="path252" />
    </g>
    <g
       id="line2d_82">
      <path
         d="m 417.33384,314.55643 c -14.96866,5.12043 -29.90325,10.79855 -43.49627,18.98937 -4.55434,2.97141 -9.66061,6.35316 -11.47873,11.73767 -0.0678,0.32303 -0.0753,0.67669 0.0382,0.9907"
         style="fill:none;stroke:#0000ff;stroke-width:0.25;stroke-linecap:square"
         clip-path="url(#pa9ba2f470b)"
         id="path255" />
    </g>
    <g
       id="line2d_83">
      <path
         d="m 409.89245,311.32717 c -14.74403,4.86887 -29.44846,10.32086 -42.8587,18.24323 -4.71944,2.98964 -9.96034,6.43644 -11.82433,11.98115 -0.078,0.43312 -0.12497,0.89898 0.0555,1.31462"
         style="fill:none;stroke:#0000ff;stroke-width:0.25;stroke-linecap:square"
         clip-path="url(#pa9ba2f470b)"
         id="path258" />
    </g>
    <g
       id="line2d_84">
      <path
         d="m 402.4899,308.82611 c -14.64277,4.69378 -29.2546,9.97936 -42.56344,17.78156 -4.71929,2.98229 -10.05799,6.46317 -11.67504,12.12814 -0.0576,0.4436 -0.0726,0.91737 0.1314,1.32902"
         style="fill:none;stroke:#0000ff;stroke-width:0.25;stroke-linecap:square"
         clip-path="url(#pa9ba2f470b)"
         id="path261" />
    </g>
    <g
       id="line2d_85">
      <path
         d="m 395.16967,307.07007 c -14.50402,4.53656 -28.99111,9.65694 -42.1638,17.34043 -4.67523,2.9409 -10.04766,6.43065 -11.41014,12.14282 -0.0368,0.44983 -0.0217,0.92617 0.2035,1.33025"
         style="fill:none;stroke:#0000ff;stroke-width:0.25;stroke-linecap:square"
         clip-path="url(#pa9ba2f470b)"
         id="path264" />
    </g>
    <g
       id="line2d_86">
      <path
         d="m 387.97364,306.0719 c -14.27392,4.37516 -28.53961,9.32214 -41.50661,16.82788 -4.5892,2.85973 -9.88287,6.27789 -11.14754,11.90383 -0.065,0.5135 -0.0274,1.07323 0.24623,1.5262"
         style="fill:none;stroke:#0000ff;stroke-width:0.25;stroke-linecap:square"
         clip-path="url(#pa9ba2f470b)"
         id="path267" />
    </g>
    <g
       id="line2d_87">
      <path
         d="m 380.94169,305.84048 c -13.97107,4.2161 -27.93799,8.98928 -40.64099,16.27821 -4.51719,2.80177 -9.84734,6.17416 -10.88381,11.79806 -0.0423,0.50866 0.0283,1.05556 0.3172,1.48854"
         style="fill:none;stroke:#0000ff;stroke-width:0.25;stroke-linecap:square"
         clip-path="url(#pa9ba2f470b)"
         id="path270" />
    </g>
    <g
       id="line2d_88">
      <path
         d="m 374.11116,306.3808 c -13.77652,4.12246 -27.57063,8.76737 -40.06663,15.99567 -4.23993,2.6583 -9.3067,5.92791 -10.06456,11.29568 -0.02,0.49732 0.0804,1.02422 0.37978,1.43258"
         style="fill:none;stroke:#0000ff;stroke-width:0.25;stroke-linecap:square"
         clip-path="url(#pa9ba2f470b)"
         id="path273" />
    </g>
    <g
       id="line2d_89">
      <path
         d="m 367.51627,307.69417 c -13.39889,3.99584 -26.82882,8.47385 -38.98055,15.50336 -4.02493,2.53367 -8.93916,5.68965 -9.46792,10.86023 9.7e-4,0.47948 0.12744,0.97906 0.43201,1.35856"
         style="fill:none;stroke:#0000ff;stroke-width:0.25;stroke-linecap:square"
         clip-path="url(#pa9ba2f470b)"
         id="path276" />
    </g>
    <g
       id="line2d_90">
      <path
         d="m 361.18725,309.77857 c -13.01769,3.89691 -26.09175,8.21599 -37.87597,15.10115 -3.71756,2.38033 -8.38343,5.42536 -8.56038,10.3094 0.0525,0.40909 0.18718,0.81811 0.46606,1.13047"
         style="fill:none;stroke:#0000ff;stroke-width:0.25;stroke-linecap:square"
         clip-path="url(#pa9ba2f470b)"
         id="path279" />
    </g>
    <g
       id="line2d_91">
      <path
         d="m 355.14919,312.62924 c -12.41169,3.73937 -24.88519,7.85425 -36.12883,14.41881 -3.47127,2.22828 -7.90811,5.08747 -7.93108,9.68714 0.0636,0.38556 0.21412,0.76567 0.48925,1.04959"
         style="fill:none;stroke:#0000ff;stroke-width:0.25;stroke-linecap:square"
         clip-path="url(#pa9ba2f470b)"
         id="path282" />
    </g>
    <g
       id="line2d_92">
      <path
         d="m 349.42012,316.2397 c -11.85774,3.62515 -23.81133,7.54376 -34.50592,13.93708 -3.02547,1.98085 -6.87662,4.59589 -6.74686,8.63703 0.0714,0.35703 0.23291,0.70253 0.49909,0.95538"
         style="fill:none;stroke:#0000ff;stroke-width:0.25;stroke-linecap:square"
         clip-path="url(#pa9ba2f470b)"
         id="path285" />
    </g>
    <g
       id="line2d_93">
      <path
         d="m 344.00765,320.60368 c -11.15128,3.4841 -22.44014,7.16289 -32.44553,13.32051 -2.53426,1.73103 -6.01883,4.22805 -5.38352,7.72127 0.089,0.21616 0.2268,0.41239 0.40223,0.5667"
         style="fill:none;stroke:#0000ff;stroke-width:0.25;stroke-linecap:square"
         clip-path="url(#pa9ba2f470b)"
         id="path288" />
    </g>
    <g
       id="line2d_94">
      <path
         d="m 338.9021,325.71909 c -10.16609,3.25418 -20.49563,6.61693 -29.57683,12.35039 -2.06325,1.46824 -5.14096,3.79265 -4.13156,6.6603 0.0752,0.11092 0.16701,0.21036 0.2713,0.29425"
         style="fill:none;stroke:#0000ff;stroke-width:0.25;stroke-linecap:square"
         clip-path="url(#pa9ba2f470b)"
         id="path291" />
    </g>
    <g
       id="line2d_95">
      <path
         d="m 334.05967,331.59782 c -8.89079,2.93615 -17.97789,5.87946 -25.86074,11.05376 -1.44293,1.07745 -4.23767,3.473 -2.64671,5.40507"
         style="fill:none;stroke:#0000ff;stroke-width:0.25;stroke-linecap:square"
         clip-path="url(#pa9ba2f470b)"
         id="path294" />
    </g>
    <g
       id="line2d_96">
      <path
         d="m 329.34711,338.29771 c -7.14436,2.4797 -14.58651,4.77438 -20.78241,9.24082 -0.84172,0.72947 -2.38498,2.40828 -1.23345,3.46989"
         style="fill:none;stroke:#0000ff;stroke-width:0.25;stroke-linecap:square"
         clip-path="url(#pa9ba2f470b)"
         id="path297" />
    </g>
    <g
       id="line2d_97">
      <path
         d="m 481.66391,451.65959 c -4.9919,-3.94278 -9.82232,-8.06521 -14.20986,-12.68031 -16.16301,-16.845 -31.29239,-34.70261 -48.37532,-50.65429 -17.56493,-16.5814 -36.65057,-31.94315 -58.32017,-42.83374 -11.53421,-5.64026 -24.00597,-10.32565 -37.00278,-10.34779 -6.20853,0.15556 -13.21811,1.58023 -17.05471,6.92764 -1.34916,2.34278 -1.95865,5.57356 -0.0554,7.80006 0.22849,0.37913 0.45699,0.75827 0.68549,1.13741"
         style="fill:none;stroke:#000000;stroke-width:0.8;stroke-dasharray:2.96, 1.28;stroke-dashoffset:0"
         clip-path="url(#pa9ba2f470b)"
         id="path300" />
    </g>
    <g
       id="line2d_98">
      <path
         d="m 487.16788,448.48187 c -10.91471,-12.44612 -20.13326,-26.24319 -30.55179,-39.09252 -19.16902,-23.94663 -40.79678,-46.415 -66.69725,-63.12125 -13.08354,-8.2433 -27.34082,-15.30138 -42.75342,-17.68681 -8.53725,-1.25596 -17.8053,-0.97119 -25.45165,3.41528 -4.38156,2.50204 -7.93272,6.65476 -8.9518,11.67421 -0.1622,1.35307 0.0788,2.78519 0.0732,4.16006"
         style="fill:none;stroke:#008000;stroke-width:0.8;stroke-dasharray:2.96, 1.28;stroke-dashoffset:0"
         clip-path="url(#pa9ba2f470b)"
         id="path303" />
    </g>
    <g
       id="line2d_99">
      <path
         d="m 503.67978,438.94872 c -0.79256,-6.23704 -1.75891,-12.44118 -3.41827,-18.5141 -3.54929,-13.43483 -9.01019,-26.32281 -15.71612,-38.48112 -8.89678,-15.91988 -19.99373,-30.67361 -33.22414,-43.25077 -11.81408,-11.29877 -25.44009,-20.90295 -40.65076,-27.03792 -9.91287,-3.86101 -20.55934,-6.23557 -31.23736,-5.705 -8.15611,0.34782 -16.21146,2.48587 -23.44593,6.27379 -8.43525,4.45256 -15.51038,11.11412 -21.31849,18.62484 -1.88477,2.39131 -3.53226,4.97443 -5.3216,7.43927"
         style="fill:none;stroke:#000000;stroke-width:0.8;stroke-dasharray:2.96, 1.28;stroke-dashoffset:0"
         clip-path="url(#pa9ba2f470b)"
         id="path306" />
    </g>
    <g
       id="line2d_100">
      <path
         d="m 487.16788,478.44983 c -12.8374,0.80146 -25.28909,-3.32706 -37.15428,-7.76158 -25.7124,-10.13776 -50.06708,-23.39042 -73.88238,-37.3385 -17.4074,-10.51834 -34.82611,-21.27328 -50.31977,-34.52241 -4.76719,-4.36471 -9.89728,-8.90454 -12.36293,-15.01422 -0.98101,-1.96137 -0.73619,-3.90243 -0.61331,-6.01427"
         style="fill:none;stroke:#008000;stroke-width:0.8;stroke-dasharray:2.96, 1.28;stroke-dashoffset:0"
         clip-path="url(#pa9ba2f470b)"
         id="path309" />
    </g>
    <g
       id="line2d_101">
      <path
         d="M 498.17581,472.0944 C 440.06492,438.54406 381.95403,404.99372 323.84314,371.44338"
         style="fill:none;stroke:#ff0000;stroke-width:0.8;stroke-dasharray:2.96, 1.28;stroke-dashoffset:0"
         clip-path="url(#pa9ba2f470b)"
         id="path312" />
    </g>
    <g
       id="line2d_102">
      <path
         d="m 594.49522,386.5164 c -6.30673,-20.35311 -15.67786,-39.73201 -27.55998,-57.41054 -12.6359,-18.83312 -28.0562,-35.96352 -46.31314,-49.49603 -12.96007,-9.51511 -27.52496,-17.31421 -43.37172,-20.59292 -9.82456,-1.93256 -20.22189,-1.98862 -29.75799,1.33224 -7.79863,2.60122 -14.73417,7.54403 -19.97443,13.86155 -2.96523,3.53851 -5.27071,7.54812 -7.35541,11.65469"
         style="fill:none;stroke:#008000;stroke-width:0.8;stroke-dasharray:2.96, 1.28;stroke-dashoffset:0"
         clip-path="url(#pa9ba2f470b)"
         id="path315" />
    </g>
    <g
       id="line2d_103">
      <path
         d="m 594.49522,386.5164 c -6.30673,-20.35311 -15.67786,-39.73201 -27.55998,-57.41054 -12.6359,-18.83312 -28.0562,-35.96352 -46.31314,-49.49603 -12.96007,-9.51511 -27.52496,-17.31421 -43.37172,-20.59292 -9.82456,-1.93256 -20.22189,-1.98862 -29.75799,1.33224 -7.79863,2.60122 -14.73417,7.54403 -19.97443,13.86155 -2.96523,3.53851 -5.27071,7.54812 -7.35541,11.65469"
         style="fill:none;stroke:#ff0000;stroke-width:0.8;stroke-dasharray:2.96, 1.28;stroke-dashoffset:0"
         clip-path="url(#pa9ba2f470b)"
         id="path318" />
    </g>
    <g
       id="Poly3DCollection_1">
      <path
         d="m 481.66391,481.62755 c -6.63893,1.07647 -13.39687,1.48316 -20.08827,0.63995 -16.8251,-1.87864 -32.84631,-7.93398 -48.31746,-14.55146 -25.32749,-11.17128 -49.63889,-24.69627 -72.44565,-40.38708 -10.78726,-7.70897 -21.70284,-15.70355 -29.93274,-26.22189 -3.1441,-4.19204 -5.96342,-9.22914 -5.34604,-14.64547 0.064,-1.93407 1.24846,-3.64682 1.79745,-5.48509 7.33862,-4.23695 14.67725,-8.47391 22.01587,-12.71086 11.83549,1.86072 22.69597,7.28903 33.47466,12.25899 28.94409,14.10219 56.92009,30.10826 84.53667,46.63467 15.95683,9.80144 32.0813,19.48627 46.77987,31.13712 3.63355,3.06813 7.53161,6.19267 9.54147,10.62023 -7.33861,4.23696 -14.67722,8.47393 -22.01583,12.71089 z"
         style="fill-opacity:0.25"
         clip-path="url(#pa9ba2f470b)"
         id="path321" />
    </g>
  </g>
  <defs
     id="defs329">
    <clipPath
       id="pa9ba2f470b">
      <rect
         id="rect326"
         y="0"
         x="0"
         width="720"
         height="720" />
    </clipPath>
  </defs>
</svg>
