<?xml version="1.0" encoding="UTF-8" standalone="no"?>
<svg
   xmlns:dc="http://purl.org/dc/elements/1.1/"
   xmlns:cc="http://creativecommons.org/ns#"
   xmlns:rdf="http://www.w3.org/1999/02/22-rdf-syntax-ns#"
   xmlns:svg="http://www.w3.org/2000/svg"
   xmlns="http://www.w3.org/2000/svg"
   xmlns:sodipodi="http://sodipodi.sourceforge.net/DTD/sodipodi-0.dtd"
   xmlns:inkscape="http://www.inkscape.org/namespaces/inkscape"
   inkscape:version="1.0 (4035a4fb49, 2020-05-01)"
   sodipodi:docname="elliptical1_canopy_chords.svg"
   id="svg238"
   width="441.41013pt"
   viewBox="0 0 441.41013 414.19595"
   version="1.1"
   height="414.19595pt">
  <metadata
     id="metadata242">
    <rdf:RDF>
      <cc:Work
         rdf:about="">
        <dc:format>image/svg+xml</dc:format>
        <dc:type
           rdf:resource="http://purl.org/dc/dcmitype/StillImage" />
      </cc:Work>
    </rdf:RDF>
  </metadata>
  <sodipodi:namedview
     inkscape:current-layer="svg238"
     inkscape:window-maximized="0"
     inkscape:window-y="27"
     inkscape:window-x="0"
     inkscape:cy="310.28839"
     inkscape:cx="207.91423"
     inkscape:zoom="1.06875"
     showgrid="false"
     id="namedview240"
     inkscape:window-height="1198"
     inkscape:window-width="1396"
     inkscape:pageshadow="2"
     inkscape:pageopacity="0"
     guidetolerance="10"
     gridtolerance="10"
     objecttolerance="10"
     borderopacity="1"
     bordercolor="#666666"
     pagecolor="#ffffff" />
  <defs
     id="defs4">
    <style
       id="style2"
       type="text/css">
*{stroke-linecap:butt;stroke-linejoin:round;}
  </style>
  </defs>
  <g
     transform="translate(-204.06433,-127.28371)"
     id="axes_1">
    <g
       id="line2d_1">
      <path
         d="M 644.92804,445.60176 C 553.19527,392.63982 461.4625,339.67788 369.72973,286.71594"
         style="fill:none;stroke:#d3d3d3;stroke-width:0.8;stroke-linecap:square"
         clip-path="url(#p99d4478781)"
         id="path12" />
    </g>
    <g
       id="line2d_2">
      <path
         d="M 617.40821,461.49034 C 525.67544,408.5284 433.94267,355.56646 342.2099,302.60452"
         style="fill:none;stroke:#d3d3d3;stroke-width:0.8;stroke-linecap:square"
         clip-path="url(#p99d4478781)"
         id="path15" />
    </g>
    <g
       id="line2d_3">
      <path
         d="M 589.88838,477.37893 C 498.15561,424.41699 406.42284,371.45505 314.69007,318.49311"
         style="fill:none;stroke:#d3d3d3;stroke-width:0.8;stroke-linecap:square"
         clip-path="url(#p99d4478781)"
         id="path18" />
    </g>
    <g
       id="line2d_4">
      <path
         d="M 562.36855,493.26751 C 470.63578,440.30557 378.903,387.34363 287.17023,334.38169"
         style="fill:none;stroke:#d3d3d3;stroke-width:0.8;stroke-linecap:square"
         clip-path="url(#p99d4478781)"
         id="path21" />
    </g>
    <g
       id="line2d_5">
      <path
         d="M 534.84872,509.15609 C 443.11595,456.19415 351.38317,403.23221 259.6504,350.27027"
         style="fill:none;stroke:#d3d3d3;stroke-width:0.8;stroke-linecap:square"
         clip-path="url(#p99d4478781)"
         id="path24" />
    </g>
    <g
       id="line2d_6">
      <path
         d="M 507.32889,525.04467 C 415.59612,472.08273 323.86334,419.12079 232.13057,366.15885"
         style="fill:none;stroke:#d3d3d3;stroke-width:0.8;stroke-linecap:square"
         clip-path="url(#p99d4478781)"
         id="path27" />
    </g>
    <g
       id="line2d_7">
      <path
         d="M 479.80906,540.93326 C 388.07629,487.97132 296.34351,435.00937 204.61074,382.04743"
         style="fill:none;stroke:#d3d3d3;stroke-width:0.8;stroke-linecap:square"
         clip-path="url(#p99d4478781)"
         id="path30" />
    </g>
    <g
       id="line2d_8">
      <path
         d="m 644.92804,445.60176 c -55.03966,31.77717 -110.07932,63.55433 -165.11898,95.3315"
         style="fill:none;stroke:#d3d3d3;stroke-width:0.8;stroke-linecap:square"
         clip-path="url(#p99d4478781)"
         id="path33" />
    </g>
    <g
       id="line2d_9">
      <path
         d="m 644.92804,286.71594 c 0,52.96194 0,105.92388 0,158.88582"
         style="fill:none;stroke:#d3d3d3;stroke-width:0.8;stroke-linecap:square"
         clip-path="url(#p99d4478781)"
         id="path36" />
    </g>
    <g
       id="line2d_10">
      <path
         d="m 617.40821,429.71318 c -55.03966,31.77716 -110.07933,63.55433 -165.11899,95.33149"
         style="fill:none;stroke:#d3d3d3;stroke-width:0.8;stroke-linecap:square"
         clip-path="url(#p99d4478781)"
         id="path39" />
    </g>
    <g
       id="line2d_11">
      <path
         d="m 617.40821,270.82736 c 0,52.96194 0,105.92388 0,158.88582"
         style="fill:none;stroke:#d3d3d3;stroke-width:0.8;stroke-linecap:square"
         clip-path="url(#p99d4478781)"
         id="path42" />
    </g>
    <g
       id="line2d_12">
      <path
         d="m 589.88838,413.8246 c -55.03966,31.77716 -110.07933,63.55433 -165.11899,95.33149"
         style="fill:none;stroke:#d3d3d3;stroke-width:0.8;stroke-linecap:square"
         clip-path="url(#p99d4478781)"
         id="path45" />
    </g>
    <g
       id="line2d_13">
      <path
         d="m 589.88838,254.93878 c 0,52.96194 0,105.92388 0,158.88582"
         style="fill:none;stroke:#d3d3d3;stroke-width:0.8;stroke-linecap:square"
         clip-path="url(#p99d4478781)"
         id="path48" />
    </g>
    <g
       id="line2d_14">
      <path
         d="m 562.36855,397.93602 c -55.03966,31.77716 -110.07933,63.55433 -165.11899,95.33149"
         style="fill:none;stroke:#d3d3d3;stroke-width:0.8;stroke-linecap:square"
         clip-path="url(#p99d4478781)"
         id="path51" />
    </g>
    <g
       id="line2d_15">
      <path
         d="m 562.36855,239.05019 c 0,52.96194 0,105.92389 0,158.88583"
         style="fill:none;stroke:#d3d3d3;stroke-width:0.8;stroke-linecap:square"
         clip-path="url(#p99d4478781)"
         id="path54" />
    </g>
    <g
       id="line2d_16">
      <path
         d="m 534.84872,382.04743 c -55.03966,31.77717 -110.07933,63.55433 -165.11899,95.3315"
         style="fill:none;stroke:#d3d3d3;stroke-width:0.8;stroke-linecap:square"
         clip-path="url(#p99d4478781)"
         id="path57" />
    </g>
    <g
       id="line2d_17">
      <path
         d="m 534.84872,223.16161 c 0,52.96194 0,105.92388 0,158.88582"
         style="fill:none;stroke:#d3d3d3;stroke-width:0.8;stroke-linecap:square"
         clip-path="url(#p99d4478781)"
         id="path60" />
    </g>
    <g
       id="line2d_18">
      <path
         d="M 507.32889,366.15885 C 452.28923,397.93601 397.24956,429.71318 342.2099,461.49034"
         style="fill:none;stroke:#d3d3d3;stroke-width:0.8;stroke-linecap:square"
         clip-path="url(#p99d4478781)"
         id="path63" />
    </g>
    <g
       id="line2d_19">
      <path
         d="m 507.32889,207.27303 c 0,52.96194 0,105.92388 0,158.88582"
         style="fill:none;stroke:#d3d3d3;stroke-width:0.8;stroke-linecap:square"
         clip-path="url(#p99d4478781)"
         id="path66" />
    </g>
    <g
       id="line2d_20">
      <path
         d="M 479.80906,350.27027 C 424.7694,382.04743 369.72973,413.8246 314.69007,445.60176"
         style="fill:none;stroke:#d3d3d3;stroke-width:0.8;stroke-linecap:square"
         clip-path="url(#p99d4478781)"
         id="path69" />
    </g>
    <g
       id="line2d_21">
      <path
         d="m 479.80906,191.38445 c 0,52.96194 0,105.92388 0,158.88582"
         style="fill:none;stroke:#d3d3d3;stroke-width:0.8;stroke-linecap:square"
         clip-path="url(#p99d4478781)"
         id="path72" />
    </g>
    <g
       id="line2d_22">
      <path
         d="m 452.28922,334.38169 c -55.03966,31.77716 -110.07933,63.55433 -165.11899,95.33149"
         style="fill:none;stroke:#d3d3d3;stroke-width:0.8;stroke-linecap:square"
         clip-path="url(#p99d4478781)"
         id="path75" />
    </g>
    <g
       id="line2d_23">
      <path
         d="m 452.28922,175.49587 c 0,52.96194 0,105.92388 0,158.88582"
         style="fill:none;stroke:#d3d3d3;stroke-width:0.8;stroke-linecap:square"
         clip-path="url(#p99d4478781)"
         id="path78" />
    </g>
    <g
       id="line2d_24">
      <path
         d="M 424.76939,318.49311 C 369.72973,350.27027 314.69006,382.04744 259.6504,413.8246"
         style="fill:none;stroke:#d3d3d3;stroke-width:0.8;stroke-linecap:square"
         clip-path="url(#p99d4478781)"
         id="path81" />
    </g>
    <g
       id="line2d_25">
      <path
         d="m 424.76939,159.60728 c 0,52.96194 0,105.92389 0,158.88583"
         style="fill:none;stroke:#d3d3d3;stroke-width:0.8;stroke-linecap:square"
         clip-path="url(#p99d4478781)"
         id="path84" />
    </g>
    <g
       id="line2d_26">
      <path
         d="m 397.24956,302.60452 c -55.03966,31.77717 -110.07933,63.55433 -165.11899,95.3315"
         style="fill:none;stroke:#d3d3d3;stroke-width:0.8;stroke-linecap:square"
         clip-path="url(#p99d4478781)"
         id="path87" />
    </g>
    <g
       id="line2d_27">
      <path
         d="m 397.24956,143.7187 c 0,52.96194 0,105.92388 0,158.88582"
         style="fill:none;stroke:#d3d3d3;stroke-width:0.8;stroke-linecap:square"
         clip-path="url(#p99d4478781)"
         id="path90" />
    </g>
    <g
       id="line2d_28">
      <path
         d="M 369.72973,286.71594 C 314.69007,318.4931 259.6504,350.27027 204.61074,382.04743"
         style="fill:none;stroke:#d3d3d3;stroke-width:0.8;stroke-linecap:square"
         clip-path="url(#p99d4478781)"
         id="path93" />
    </g>
    <g
       id="line2d_29">
      <path
         d="m 369.72973,127.83012 c 0,52.96194 0,105.92388 0,158.88582"
         style="fill:none;stroke:#d3d3d3;stroke-width:0.8;stroke-linecap:square"
         clip-path="url(#p99d4478781)"
         id="path96" />
    </g>
    <g
       id="line2d_30">
      <path
         d="M 644.92804,286.71594 C 553.19527,233.754 461.4625,180.79206 369.72973,127.83012"
         style="fill:none;stroke:#d3d3d3;stroke-width:0.8;stroke-linecap:square"
         clip-path="url(#p99d4478781)"
         id="path99" />
    </g>
    <g
       id="line2d_31">
      <path
         d="M 644.92804,318.49311 C 553.19527,265.53117 461.4625,212.56922 369.72973,159.60728"
         style="fill:none;stroke:#d3d3d3;stroke-width:0.8;stroke-linecap:square"
         clip-path="url(#p99d4478781)"
         id="path102" />
    </g>
    <g
       id="line2d_32">
      <path
         d="M 644.92804,350.27027 C 553.19527,297.30833 461.4625,244.34639 369.72973,191.38445"
         style="fill:none;stroke:#d3d3d3;stroke-width:0.8;stroke-linecap:square"
         clip-path="url(#p99d4478781)"
         id="path105" />
    </g>
    <g
       id="line2d_33">
      <path
         d="M 644.92804,382.04743 C 553.19527,329.08549 461.4625,276.12355 369.72973,223.16161"
         style="fill:none;stroke:#d3d3d3;stroke-width:0.8;stroke-linecap:square"
         clip-path="url(#p99d4478781)"
         id="path108" />
    </g>
    <g
       id="line2d_34">
      <path
         d="M 644.92804,413.8246 C 553.19527,360.86266 461.4625,307.90072 369.72973,254.93878"
         style="fill:none;stroke:#d3d3d3;stroke-width:0.8;stroke-linecap:square"
         clip-path="url(#p99d4478781)"
         id="path111" />
    </g>
    <g
       id="line2d_35">
      <path
         d="m 503.67978,438.94872 c -7.33851,4.23728 -14.67769,8.47343 -22.01581,12.71136"
         style="fill:none;stroke:#000000;stroke-width:0.5;stroke-linecap:square"
         clip-path="url(#p99d4478781)"
         id="path114" />
    </g>
    <g
       id="line2d_36">
      <path
         d="m 502.21303,428.68121 c -9.50253,5.48597 -19.00453,10.97289 -28.50737,16.4583"
         style="fill:none;stroke:#000000;stroke-width:0.5;stroke-linecap:square"
         clip-path="url(#p99d4478781)"
         id="path117" />
    </g>
    <g
       id="line2d_37">
      <path
         d="m 499.83539,418.63397 c -11.14568,6.435 -22.29142,12.86989 -33.43706,19.30495"
         style="fill:none;stroke:#000000;stroke-width:0.5;stroke-linecap:square"
         clip-path="url(#p99d4478781)"
         id="path120" />
    </g>
    <g
       id="line2d_38">
      <path
         d="m 496.72479,408.77496 c -12.47561,7.20291 -24.95141,14.40551 -37.42692,21.60859"
         style="fill:none;stroke:#000000;stroke-width:0.5;stroke-linecap:square"
         clip-path="url(#p99d4478781)"
         id="path123" />
    </g>
    <g
       id="line2d_39">
      <path
         d="m 492.9759,399.12166 c -13.58467,7.84323 -27.16953,15.68613 -40.7541,23.52954"
         style="fill:none;stroke:#000000;stroke-width:0.5;stroke-linecap:square"
         clip-path="url(#p99d4478781)"
         id="path126" />
    </g>
    <g
       id="line2d_40">
      <path
         d="m 488.65509,389.7089 c -14.52355,8.38516 -29.04708,16.77036 -43.57064,25.1555"
         style="fill:none;stroke:#000000;stroke-width:0.5;stroke-linecap:square"
         clip-path="url(#p99d4478781)"
         id="path129" />
    </g>
    <g
       id="line2d_41">
      <path
         d="m 483.81694,380.57885 c -15.32347,8.84704 -30.64698,17.69399 -45.97042,26.54107"
         style="fill:none;stroke:#000000;stroke-width:0.5;stroke-linecap:square"
         clip-path="url(#p99d4478781)"
         id="path132" />
    </g>
    <g
       id="line2d_42">
      <path
         d="m 478.51075,371.77686 c -16.00541,9.24063 -32.01067,18.48154 -48.01617,27.72202"
         style="fill:none;stroke:#000000;stroke-width:0.5;stroke-linecap:square"
         clip-path="url(#p99d4478781)"
         id="path135" />
    </g>
    <g
       id="line2d_43">
      <path
         d="m 472.78345,363.34927 c -16.58379,9.57467 -33.16761,19.1493 -49.75139,28.724"
         style="fill:none;stroke:#000000;stroke-width:0.5;stroke-linecap:square"
         clip-path="url(#p99d4478781)"
         id="path138" />
    </g>
    <g
       id="line2d_44">
      <path
         d="m 466.68107,355.34213 c -17.0692,9.8549 -34.13839,19.70981 -51.20759,29.56471"
         style="fill:none;stroke:#000000;stroke-width:0.5;stroke-linecap:square"
         clip-path="url(#p99d4478781)"
         id="path141" />
    </g>
    <g
       id="line2d_45">
      <path
         d="m 460.24944,347.80035 c -17.46943,10.08596 -34.93882,20.17198 -52.40827,30.2579"
         style="fill:none;stroke:#000000;stroke-width:0.5;stroke-linecap:square"
         clip-path="url(#p99d4478781)"
         id="path144" />
    </g>
    <g
       id="line2d_46">
      <path
         d="M 453.53454,340.76704 C 435.7444,351.03822 417.9542,361.3093 400.16409,371.58053"
         style="fill:none;stroke:#000000;stroke-width:0.5;stroke-linecap:square"
         clip-path="url(#p99d4478781)"
         id="path147" />
    </g>
    <g
       id="line2d_47">
      <path
         d="m 446.5826,334.28304 c -18.0357,10.41295 -36.07145,20.82581 -54.10712,31.2388"
         style="fill:none;stroke:#000000;stroke-width:0.5;stroke-linecap:square"
         clip-path="url(#p99d4478781)"
         id="path150" />
    </g>
    <g
       id="line2d_48">
      <path
         d="M 439.44008,328.3865 C 421.231,338.89948 403.022,349.41259 384.81286,359.92547"
         style="fill:none;stroke:#000000;stroke-width:0.5;stroke-linecap:square"
         clip-path="url(#p99d4478781)"
         id="path153" />
    </g>
    <g
       id="line2d_49">
      <path
         d="m 432.15352,323.11257 c -18.31228,10.57262 -36.62458,21.14519 -54.93685,31.71783"
         style="fill:none;stroke:#000000;stroke-width:0.5;stroke-linecap:square"
         clip-path="url(#p99d4478781)"
         id="path156" />
    </g>
    <g
       id="line2d_50">
      <path
         d="m 424.76939,318.49311 c -18.34657,10.59236 -36.69308,21.18482 -55.03968,31.77712"
         style="fill:none;stroke:#000000;stroke-width:0.5;stroke-linecap:square"
         clip-path="url(#p99d4478781)"
         id="path159" />
    </g>
    <g
       id="line2d_51">
      <path
         d="m 417.33384,314.55643 c -18.31228,10.57262 -36.62459,21.14518 -54.93685,31.71783"
         style="fill:none;stroke:#000000;stroke-width:0.5;stroke-linecap:square"
         clip-path="url(#p99d4478781)"
         id="path162" />
    </g>
    <g
       id="line2d_52">
      <path
         d="m 409.89245,311.32717 c -18.20909,10.51296 -36.41807,21.0261 -54.62722,31.53896"
         style="fill:none;stroke:#000000;stroke-width:0.5;stroke-linecap:square"
         clip-path="url(#p99d4478781)"
         id="path165" />
    </g>
    <g
       id="line2d_53">
      <path
         d="m 402.4899,308.82611 c -18.03572,10.41287 -36.07136,20.8259 -54.10713,31.23869"
         style="fill:none;stroke:#000000;stroke-width:0.5;stroke-linecap:square"
         clip-path="url(#p99d4478781)"
         id="path168" />
    </g>
    <g
       id="line2d_54">
      <path
         d="m 395.16967,307.07007 c -17.79014,10.27118 -35.58035,20.54225 -53.37045,30.81349"
         style="fill:none;stroke:#000000;stroke-width:0.5;stroke-linecap:square"
         clip-path="url(#p99d4478781)"
         id="path171" />
    </g>
    <g
       id="line2d_55">
      <path
         d="m 387.97364,306.0719 c -17.46943,10.08595 -34.93881,20.17198 -52.40826,30.25789"
         style="fill:none;stroke:#000000;stroke-width:0.5;stroke-linecap:square"
         clip-path="url(#p99d4478781)"
         id="path174" />
    </g>
    <g
       id="line2d_56">
      <path
         d="m 380.94169,305.84048 c -17.06919,9.85495 -34.13847,19.70973 -51.20759,29.5648"
         style="fill:none;stroke:#000000;stroke-width:0.5;stroke-linecap:square"
         clip-path="url(#p99d4478781)"
         id="path177" />
    </g>
    <g
       id="line2d_57">
      <path
         d="m 374.11116,306.3808 c -16.5838,9.57466 -33.16761,19.1493 -49.75139,28.724"
         style="fill:none;stroke:#000000;stroke-width:0.5;stroke-linecap:square"
         clip-path="url(#p99d4478781)"
         id="path180" />
    </g>
    <g
       id="line2d_58">
      <path
         d="m 367.51627,307.69417 c -16.00541,9.24063 -32.01067,18.48154 -48.01617,27.72202"
         style="fill:none;stroke:#000000;stroke-width:0.5;stroke-linecap:square"
         clip-path="url(#p99d4478781)"
         id="path183" />
    </g>
    <g
       id="line2d_59">
      <path
         d="m 361.18725,309.77857 c -15.32347,8.84703 -30.64697,17.694 -45.97042,26.54106"
         style="fill:none;stroke:#000000;stroke-width:0.5;stroke-linecap:square"
         clip-path="url(#p99d4478781)"
         id="path186" />
    </g>
    <g
       id="line2d_60">
      <path
         d="m 355.14919,312.62924 c -14.52353,8.38522 -29.04716,16.77027 -43.57063,25.1556"
         style="fill:none;stroke:#000000;stroke-width:0.5;stroke-linecap:square"
         clip-path="url(#p99d4478781)"
         id="path189" />
    </g>
    <g
       id="line2d_61">
      <path
         d="m 349.42012,316.2397 c -13.5847,7.84315 -27.16944,15.68622 -40.7541,23.52943"
         style="fill:none;stroke:#000000;stroke-width:0.5;stroke-linecap:square"
         clip-path="url(#p99d4478781)"
         id="path192" />
    </g>
    <g
       id="line2d_62">
      <path
         d="m 344.00765,320.60368 c -12.47563,7.20289 -24.95142,14.4055 -37.42693,21.60859"
         style="fill:none;stroke:#000000;stroke-width:0.5;stroke-linecap:square"
         clip-path="url(#p99d4478781)"
         id="path195" />
    </g>
    <g
       id="line2d_63">
      <path
         d="m 338.9021,325.71909 c -11.14568,6.435 -22.29142,12.86988 -33.43706,19.30495"
         style="fill:none;stroke:#000000;stroke-width:0.5;stroke-linecap:square"
         clip-path="url(#p99d4478781)"
         id="path198" />
    </g>
    <g
       id="line2d_64">
      <path
         d="m 334.05967,331.59782 c -9.5026,5.48599 -19.00464,10.97298 -28.50757,16.45839"
         style="fill:none;stroke:#000000;stroke-width:0.5;stroke-linecap:square"
         clip-path="url(#p99d4478781)"
         id="path201" />
    </g>
    <g
       id="line2d_65">
      <path
         d="m 329.34711,338.29771 c -7.33851,4.23727 -14.67769,8.47343 -22.01582,12.71135"
         style="fill:none;stroke:#000000;stroke-width:0.5;stroke-linecap:square"
         clip-path="url(#p99d4478781)"
         id="path204" />
    </g>
    <g
       id="line2d_66">
      <path
         d="m 481.66391,451.65959 c -4.9919,-3.94278 -9.82232,-8.06521 -14.20986,-12.68031 -16.16301,-16.845 -31.29239,-34.70261 -48.37532,-50.65429 -17.56493,-16.5814 -36.65057,-31.94315 -58.32017,-42.83374 -11.53421,-5.64026 -24.00597,-10.32565 -37.00278,-10.34779 -6.20853,0.15556 -13.21811,1.58023 -17.05471,6.92764 -1.34916,2.34278 -1.95865,5.57356 -0.0554,7.80006 0.22849,0.37913 0.45699,0.75827 0.68549,1.13741"
         style="fill:none;stroke:#000000;stroke-width:0.8;stroke-dasharray:2.96, 1.28;stroke-dashoffset:0"
         clip-path="url(#p99d4478781)"
         id="path207" />
    </g>
    <g
       id="line2d_67">
      <path
         d="m 487.16788,448.48187 c -10.91471,-12.44612 -20.13326,-26.24319 -30.55179,-39.09252 -19.16902,-23.94663 -40.79678,-46.415 -66.69725,-63.12125 -13.08354,-8.2433 -27.34082,-15.30138 -42.75342,-17.68681 -8.53725,-1.25596 -17.8053,-0.97119 -25.45165,3.41528 -4.38156,2.50204 -7.93272,6.65476 -8.9518,11.67421 -0.1622,1.35307 0.0788,2.78519 0.0732,4.16006"
         style="fill:none;stroke:#008000;stroke-width:0.8;stroke-dasharray:2.96, 1.28;stroke-dashoffset:0"
         clip-path="url(#p99d4478781)"
         id="path210" />
    </g>
    <g
       id="line2d_68">
      <path
         d="m 503.67978,438.94872 c -0.79256,-6.23704 -1.75891,-12.44118 -3.41827,-18.5141 -3.54929,-13.43483 -9.01019,-26.32281 -15.71612,-38.48112 -8.89678,-15.91988 -19.99373,-30.67361 -33.22414,-43.25077 -11.81408,-11.29877 -25.44009,-20.90295 -40.65076,-27.03792 -9.91287,-3.86101 -20.55934,-6.23557 -31.23736,-5.705 -8.15611,0.34782 -16.21146,2.48587 -23.44593,6.27379 -8.43525,4.45256 -15.51038,11.11412 -21.31849,18.62484 -1.88477,2.39131 -3.53226,4.97443 -5.3216,7.43927"
         style="fill:none;stroke:#000000;stroke-width:0.8;stroke-dasharray:2.96, 1.28;stroke-dashoffset:0"
         clip-path="url(#p99d4478781)"
         id="path213" />
    </g>
    <g
       id="line2d_69">
      <path
         d="m 487.16788,478.44983 c -12.8374,0.80146 -25.28909,-3.32706 -37.15428,-7.76158 -25.7124,-10.13776 -50.06708,-23.39042 -73.88238,-37.3385 -17.4074,-10.51834 -34.82611,-21.27328 -50.31977,-34.52241 -4.76719,-4.36471 -9.89728,-8.90454 -12.36293,-15.01422 -0.98101,-1.96137 -0.73619,-3.90243 -0.61331,-6.01427"
         style="fill:none;stroke:#008000;stroke-width:0.8;stroke-dasharray:2.96, 1.28;stroke-dashoffset:0"
         clip-path="url(#p99d4478781)"
         id="path216" />
    </g>
    <g
       id="line2d_70">
      <path
         d="M 498.17581,472.0944 C 440.06492,438.54406 381.95403,404.99372 323.84314,371.44338"
         style="fill:none;stroke:#ff0000;stroke-width:0.8;stroke-dasharray:2.96, 1.28;stroke-dashoffset:0"
         clip-path="url(#p99d4478781)"
         id="path219" />
    </g>
    <g
       id="line2d_71">
      <path
         d="m 594.49522,386.5164 c -6.30673,-20.35311 -15.67786,-39.73201 -27.55998,-57.41054 -12.6359,-18.83312 -28.0562,-35.96352 -46.31314,-49.49603 -12.96007,-9.51511 -27.52496,-17.31421 -43.37172,-20.59292 -9.82456,-1.93256 -20.22189,-1.98862 -29.75799,1.33224 -7.79863,2.60122 -14.73417,7.54403 -19.97443,13.86155 -2.96523,3.53851 -5.27071,7.54812 -7.35541,11.65469"
         style="fill:none;stroke:#008000;stroke-width:0.8;stroke-dasharray:2.96, 1.28;stroke-dashoffset:0"
         clip-path="url(#p99d4478781)"
         id="path222" />
    </g>
    <g
       id="line2d_72">
      <path
         d="m 594.49522,386.5164 c -6.30673,-20.35311 -15.67786,-39.73201 -27.55998,-57.41054 -12.6359,-18.83312 -28.0562,-35.96352 -46.31314,-49.49603 -12.96007,-9.51511 -27.52496,-17.31421 -43.37172,-20.59292 -9.82456,-1.93256 -20.22189,-1.98862 -29.75799,1.33224 -7.79863,2.60122 -14.73417,7.54403 -19.97443,13.86155 -2.96523,3.53851 -5.27071,7.54812 -7.35541,11.65469"
         style="fill:none;stroke:#ff0000;stroke-width:0.8;stroke-dasharray:2.96, 1.28;stroke-dashoffset:0"
         clip-path="url(#p99d4478781)"
         id="path225" />
    </g>
    <g
       id="Poly3DCollection_1">
      <path
         d="m 481.66391,481.62755 c -6.63893,1.07647 -13.39687,1.48316 -20.08827,0.63995 -16.8251,-1.87864 -32.84631,-7.93398 -48.31746,-14.55146 -25.32749,-11.17128 -49.63889,-24.69627 -72.44565,-40.38708 -10.78726,-7.70897 -21.70284,-15.70355 -29.93274,-26.22189 -3.1441,-4.19204 -5.96342,-9.22914 -5.34604,-14.64547 0.064,-1.93407 1.24846,-3.64682 1.79745,-5.48509 7.33862,-4.23695 14.67725,-8.47391 22.01587,-12.71086 11.83549,1.86072 22.69597,7.28903 33.47466,12.25899 28.94409,14.10219 56.92009,30.10826 84.53667,46.63467 15.95683,9.80144 32.0813,19.48627 46.77987,31.13712 3.63355,3.06813 7.53161,6.19267 9.54147,10.62023 -7.33861,4.23696 -14.67722,8.47393 -22.01583,12.71089 z"
         style="fill-opacity:0.25"
         clip-path="url(#p99d4478781)"
         id="path228" />
    </g>
  </g>
  <defs
     id="defs236">
    <clipPath
       id="p99d4478781">
      <rect
         id="rect233"
         y="0"
         x="0"
         width="720"
         height="720" />
    </clipPath>
  </defs>
</svg>
