<?xml version="1.0" encoding="UTF-8" standalone="no"?>
<svg
   xmlns:dc="http://purl.org/dc/elements/1.1/"
   xmlns:cc="http://creativecommons.org/ns#"
   xmlns:rdf="http://www.w3.org/1999/02/22-rdf-syntax-ns#"
   xmlns:svg="http://www.w3.org/2000/svg"
   xmlns="http://www.w3.org/2000/svg"
   xmlns:sodipodi="http://sodipodi.sourceforge.net/DTD/sodipodi-0.dtd"
   xmlns:inkscape="http://www.inkscape.org/namespaces/inkscape"
   inkscape:version="1.0 (4035a4fb49, 2020-05-01)"
   sodipodi:docname="elliptical2_canopy_chords.svg"
   id="svg238"
   width="441.41013pt"
   viewBox="0 0 441.41013 414.19595"
   version="1.1"
   height="414.19595pt">
  <metadata
     id="metadata242">
    <rdf:RDF>
      <cc:Work
         rdf:about="">
        <dc:format>image/svg+xml</dc:format>
        <dc:type
           rdf:resource="http://purl.org/dc/dcmitype/StillImage" />
      </cc:Work>
    </rdf:RDF>
  </metadata>
  <sodipodi:namedview
     inkscape:current-layer="svg238"
     inkscape:window-maximized="0"
     inkscape:window-y="27"
     inkscape:window-x="0"
     inkscape:cy="310.28839"
     inkscape:cx="207.91423"
     inkscape:zoom="1.06875"
     showgrid="false"
     id="namedview240"
     inkscape:window-height="1198"
     inkscape:window-width="1396"
     inkscape:pageshadow="2"
     inkscape:pageopacity="0"
     guidetolerance="10"
     gridtolerance="10"
     objecttolerance="10"
     borderopacity="1"
     bordercolor="#666666"
     pagecolor="#ffffff" />
  <defs
     id="defs4">
    <style
       id="style2"
       type="text/css">
*{stroke-linecap:butt;stroke-linejoin:round;}
  </style>
  </defs>
  <g
     transform="translate(-204.06433,-127.28371)"
     id="axes_1">
    <g
       id="line2d_1">
      <path
         d="M 644.92804,445.60176 C 553.19527,392.63982 461.4625,339.67788 369.72973,286.71594"
         style="fill:none;stroke:#d3d3d3;stroke-width:0.8;stroke-linecap:square"
         clip-path="url(#pd71056984a)"
         id="path12" />
    </g>
    <g
       id="line2d_2">
      <path
         d="M 617.40821,461.49034 C 525.67544,408.5284 433.94267,355.56646 342.2099,302.60452"
         style="fill:none;stroke:#d3d3d3;stroke-width:0.8;stroke-linecap:square"
         clip-path="url(#pd71056984a)"
         id="path15" />
    </g>
    <g
       id="line2d_3">
      <path
         d="M 589.88838,477.37893 C 498.15561,424.41699 406.42284,371.45505 314.69007,318.49311"
         style="fill:none;stroke:#d3d3d3;stroke-width:0.8;stroke-linecap:square"
         clip-path="url(#pd71056984a)"
         id="path18" />
    </g>
    <g
       id="line2d_4">
      <path
         d="M 562.36855,493.26751 C 470.63578,440.30557 378.903,387.34363 287.17023,334.38169"
         style="fill:none;stroke:#d3d3d3;stroke-width:0.8;stroke-linecap:square"
         clip-path="url(#pd71056984a)"
         id="path21" />
    </g>
    <g
       id="line2d_5">
      <path
         d="M 534.84872,509.15609 C 443.11595,456.19415 351.38317,403.23221 259.6504,350.27027"
         style="fill:none;stroke:#d3d3d3;stroke-width:0.8;stroke-linecap:square"
         clip-path="url(#pd71056984a)"
         id="path24" />
    </g>
    <g
       id="line2d_6">
      <path
         d="M 507.32889,525.04467 C 415.59612,472.08273 323.86334,419.12079 232.13057,366.15885"
         style="fill:none;stroke:#d3d3d3;stroke-width:0.8;stroke-linecap:square"
         clip-path="url(#pd71056984a)"
         id="path27" />
    </g>
    <g
       id="line2d_7">
      <path
         d="M 479.80906,540.93326 C 388.07629,487.97132 296.34351,435.00937 204.61074,382.04743"
         style="fill:none;stroke:#d3d3d3;stroke-width:0.8;stroke-linecap:square"
         clip-path="url(#pd71056984a)"
         id="path30" />
    </g>
    <g
       id="line2d_8">
      <path
         d="m 644.92804,445.60176 c -55.03966,31.77717 -110.07932,63.55433 -165.11898,95.3315"
         style="fill:none;stroke:#d3d3d3;stroke-width:0.8;stroke-linecap:square"
         clip-path="url(#pd71056984a)"
         id="path33" />
    </g>
    <g
       id="line2d_9">
      <path
         d="m 644.92804,286.71594 c 0,52.96194 0,105.92388 0,158.88582"
         style="fill:none;stroke:#d3d3d3;stroke-width:0.8;stroke-linecap:square"
         clip-path="url(#pd71056984a)"
         id="path36" />
    </g>
    <g
       id="line2d_10">
      <path
         d="m 617.40821,429.71318 c -55.03966,31.77716 -110.07933,63.55433 -165.11899,95.33149"
         style="fill:none;stroke:#d3d3d3;stroke-width:0.8;stroke-linecap:square"
         clip-path="url(#pd71056984a)"
         id="path39" />
    </g>
    <g
       id="line2d_11">
      <path
         d="m 617.40821,270.82736 c 0,52.96194 0,105.92388 0,158.88582"
         style="fill:none;stroke:#d3d3d3;stroke-width:0.8;stroke-linecap:square"
         clip-path="url(#pd71056984a)"
         id="path42" />
    </g>
    <g
       id="line2d_12">
      <path
         d="m 589.88838,413.8246 c -55.03966,31.77716 -110.07933,63.55433 -165.11899,95.33149"
         style="fill:none;stroke:#d3d3d3;stroke-width:0.8;stroke-linecap:square"
         clip-path="url(#pd71056984a)"
         id="path45" />
    </g>
    <g
       id="line2d_13">
      <path
         d="m 589.88838,254.93878 c 0,52.96194 0,105.92388 0,158.88582"
         style="fill:none;stroke:#d3d3d3;stroke-width:0.8;stroke-linecap:square"
         clip-path="url(#pd71056984a)"
         id="path48" />
    </g>
    <g
       id="line2d_14">
      <path
         d="m 562.36855,397.93602 c -55.03966,31.77716 -110.07933,63.55433 -165.11899,95.33149"
         style="fill:none;stroke:#d3d3d3;stroke-width:0.8;stroke-linecap:square"
         clip-path="url(#pd71056984a)"
         id="path51" />
    </g>
    <g
       id="line2d_15">
      <path
         d="m 562.36855,239.05019 c 0,52.96194 0,105.92389 0,158.88583"
         style="fill:none;stroke:#d3d3d3;stroke-width:0.8;stroke-linecap:square"
         clip-path="url(#pd71056984a)"
         id="path54" />
    </g>
    <g
       id="line2d_16">
      <path
         d="m 534.84872,382.04743 c -55.03966,31.77717 -110.07933,63.55433 -165.11899,95.3315"
         style="fill:none;stroke:#d3d3d3;stroke-width:0.8;stroke-linecap:square"
         clip-path="url(#pd71056984a)"
         id="path57" />
    </g>
    <g
       id="line2d_17">
      <path
         d="m 534.84872,223.16161 c 0,52.96194 0,105.92388 0,158.88582"
         style="fill:none;stroke:#d3d3d3;stroke-width:0.8;stroke-linecap:square"
         clip-path="url(#pd71056984a)"
         id="path60" />
    </g>
    <g
       id="line2d_18">
      <path
         d="M 507.32889,366.15885 C 452.28923,397.93601 397.24956,429.71318 342.2099,461.49034"
         style="fill:none;stroke:#d3d3d3;stroke-width:0.8;stroke-linecap:square"
         clip-path="url(#pd71056984a)"
         id="path63" />
    </g>
    <g
       id="line2d_19">
      <path
         d="m 507.32889,207.27303 c 0,52.96194 0,105.92388 0,158.88582"
         style="fill:none;stroke:#d3d3d3;stroke-width:0.8;stroke-linecap:square"
         clip-path="url(#pd71056984a)"
         id="path66" />
    </g>
    <g
       id="line2d_20">
      <path
         d="M 479.80906,350.27027 C 424.7694,382.04743 369.72973,413.8246 314.69007,445.60176"
         style="fill:none;stroke:#d3d3d3;stroke-width:0.8;stroke-linecap:square"
         clip-path="url(#pd71056984a)"
         id="path69" />
    </g>
    <g
       id="line2d_21">
      <path
         d="m 479.80906,191.38445 c 0,52.96194 0,105.92388 0,158.88582"
         style="fill:none;stroke:#d3d3d3;stroke-width:0.8;stroke-linecap:square"
         clip-path="url(#pd71056984a)"
         id="path72" />
    </g>
    <g
       id="line2d_22">
      <path
         d="m 452.28922,334.38169 c -55.03966,31.77716 -110.07933,63.55433 -165.11899,95.33149"
         style="fill:none;stroke:#d3d3d3;stroke-width:0.8;stroke-linecap:square"
         clip-path="url(#pd71056984a)"
         id="path75" />
    </g>
    <g
       id="line2d_23">
      <path
         d="m 452.28922,175.49587 c 0,52.96194 0,105.92388 0,158.88582"
         style="fill:none;stroke:#d3d3d3;stroke-width:0.8;stroke-linecap:square"
         clip-path="url(#pd71056984a)"
         id="path78" />
    </g>
    <g
       id="line2d_24">
      <path
         d="M 424.76939,318.49311 C 369.72973,350.27027 314.69006,382.04744 259.6504,413.8246"
         style="fill:none;stroke:#d3d3d3;stroke-width:0.8;stroke-linecap:square"
         clip-path="url(#pd71056984a)"
         id="path81" />
    </g>
    <g
       id="line2d_25">
      <path
         d="m 424.76939,159.60728 c 0,52.96194 0,105.92389 0,158.88583"
         style="fill:none;stroke:#d3d3d3;stroke-width:0.8;stroke-linecap:square"
         clip-path="url(#pd71056984a)"
         id="path84" />
    </g>
    <g
       id="line2d_26">
      <path
         d="m 397.24956,302.60452 c -55.03966,31.77717 -110.07933,63.55433 -165.11899,95.3315"
         style="fill:none;stroke:#d3d3d3;stroke-width:0.8;stroke-linecap:square"
         clip-path="url(#pd71056984a)"
         id="path87" />
    </g>
    <g
       id="line2d_27">
      <path
         d="m 397.24956,143.7187 c 0,52.96194 0,105.92388 0,158.88582"
         style="fill:none;stroke:#d3d3d3;stroke-width:0.8;stroke-linecap:square"
         clip-path="url(#pd71056984a)"
         id="path90" />
    </g>
    <g
       id="line2d_28">
      <path
         d="M 369.72973,286.71594 C 314.69007,318.4931 259.6504,350.27027 204.61074,382.04743"
         style="fill:none;stroke:#d3d3d3;stroke-width:0.8;stroke-linecap:square"
         clip-path="url(#pd71056984a)"
         id="path93" />
    </g>
    <g
       id="line2d_29">
      <path
         d="m 369.72973,127.83012 c 0,52.96194 0,105.92388 0,158.88582"
         style="fill:none;stroke:#d3d3d3;stroke-width:0.8;stroke-linecap:square"
         clip-path="url(#pd71056984a)"
         id="path96" />
    </g>
    <g
       id="line2d_30">
      <path
         d="M 644.92804,286.71594 C 553.19527,233.754 461.4625,180.79206 369.72973,127.83012"
         style="fill:none;stroke:#d3d3d3;stroke-width:0.8;stroke-linecap:square"
         clip-path="url(#pd71056984a)"
         id="path99" />
    </g>
    <g
       id="line2d_31">
      <path
         d="M 644.92804,318.49311 C 553.19527,265.53117 461.4625,212.56922 369.72973,159.60728"
         style="fill:none;stroke:#d3d3d3;stroke-width:0.8;stroke-linecap:square"
         clip-path="url(#pd71056984a)"
         id="path102" />
    </g>
    <g
       id="line2d_32">
      <path
         d="M 644.92804,350.27027 C 553.19527,297.30833 461.4625,244.34639 369.72973,191.38445"
         style="fill:none;stroke:#d3d3d3;stroke-width:0.8;stroke-linecap:square"
         clip-path="url(#pd71056984a)"
         id="path105" />
    </g>
    <g
       id="line2d_33">
      <path
         d="M 644.92804,382.04743 C 553.19527,329.08549 461.4625,276.12355 369.72973,223.16161"
         style="fill:none;stroke:#d3d3d3;stroke-width:0.8;stroke-linecap:square"
         clip-path="url(#pd71056984a)"
         id="path108" />
    </g>
    <g
       id="line2d_34">
      <path
         d="M 644.92804,413.8246 C 553.19527,360.86266 461.4625,307.90072 369.72973,254.93878"
         style="fill:none;stroke:#d3d3d3;stroke-width:0.8;stroke-linecap:square"
         clip-path="url(#pd71056984a)"
         id="path111" />
    </g>
    <g
       id="line2d_35">
      <path
         d="m 487.97596,444.2051 c -7.33851,4.23728 -14.67769,8.47343 -22.01582,12.71136"
         style="fill:none;stroke:#000000;stroke-width:0.5;stroke-linecap:square"
         clip-path="url(#pd71056984a)"
         id="path114" />
    </g>
    <g
       id="line2d_36">
      <path
         d="m 489.08918,434.59989 c -9.50255,5.48602 -19.00463,10.97289 -28.50747,16.4584"
         style="fill:none;stroke:#000000;stroke-width:0.5;stroke-linecap:square"
         clip-path="url(#pd71056984a)"
         id="path117" />
    </g>
    <g
       id="line2d_37">
      <path
         d="m 489.05138,424.88572 c -11.14568,6.435 -22.29142,12.86988 -33.43706,19.30495"
         style="fill:none;stroke:#000000;stroke-width:0.5;stroke-linecap:square"
         clip-path="url(#pd71056984a)"
         id="path120" />
    </g>
    <g
       id="line2d_38">
      <path
         d="m 488.03176,415.06925 c -12.47562,7.20291 -24.95141,14.40551 -37.42692,21.60859"
         style="fill:none;stroke:#000000;stroke-width:0.5;stroke-linecap:square"
         clip-path="url(#pd71056984a)"
         id="path123" />
    </g>
    <g
       id="line2d_39">
      <path
         d="m 486.12119,405.20956 c -13.58468,7.84321 -27.16953,15.68614 -40.75411,23.52953"
         style="fill:none;stroke:#000000;stroke-width:0.5;stroke-linecap:square"
         clip-path="url(#pd71056984a)"
         id="path126" />
    </g>
    <g
       id="line2d_40">
      <path
         d="m 483.38706,395.38522 c -14.52353,8.38522 -29.04716,16.77027 -43.57063,25.1556"
         style="fill:none;stroke:#000000;stroke-width:0.5;stroke-linecap:square"
         clip-path="url(#pd71056984a)"
         id="path129" />
    </g>
    <g
       id="line2d_41">
      <path
         d="m 479.88974,385.68361 c -15.32346,8.84704 -30.64697,17.694 -45.97042,26.54107"
         style="fill:none;stroke:#000000;stroke-width:0.5;stroke-linecap:square"
         clip-path="url(#pd71056984a)"
         id="path132" />
    </g>
    <g
       id="line2d_42">
      <path
         d="m 475.68876,376.196 c -16.00539,9.24072 -32.01076,18.48145 -48.01617,27.72213"
         style="fill:none;stroke:#000000;stroke-width:0.5;stroke-linecap:square"
         clip-path="url(#pd71056984a)"
         id="path135" />
    </g>
    <g
       id="line2d_43">
      <path
         d="m 470.84557,367.0146 c -16.58379,9.57467 -33.16761,19.1493 -49.75139,28.724"
         style="fill:none;stroke:#000000;stroke-width:0.5;stroke-linecap:square"
         clip-path="url(#pd71056984a)"
         id="path138" />
    </g>
    <g
       id="line2d_44">
      <path
         d="m 465.42461,358.23058 c -17.0692,9.8549 -34.13839,19.70981 -51.20759,29.56471"
         style="fill:none;stroke:#000000;stroke-width:0.5;stroke-linecap:square"
         clip-path="url(#pd71056984a)"
         id="path141" />
    </g>
    <g
       id="line2d_45">
      <path
         d="m 459.4937,349.93248 c -17.46942,10.08596 -34.93882,20.17197 -52.40826,30.2579"
         style="fill:none;stroke:#000000;stroke-width:0.5;stroke-linecap:square"
         clip-path="url(#pd71056984a)"
         id="path144" />
    </g>
    <g
       id="line2d_46">
      <path
         d="m 453.12396,342.2049 c -17.79015,10.27117 -35.58034,20.54226 -53.37045,30.81349"
         style="fill:none;stroke:#000000;stroke-width:0.5;stroke-linecap:square"
         clip-path="url(#pd71056984a)"
         id="path147" />
    </g>
    <g
       id="line2d_47">
      <path
         d="m 446.3894,335.12734 c -18.0357,10.41294 -36.07145,20.82582 -54.10713,31.2388"
         style="fill:none;stroke:#000000;stroke-width:0.5;stroke-linecap:square"
         clip-path="url(#pd71056984a)"
         id="path150" />
    </g>
    <g
       id="line2d_48">
      <path
         d="m 439.36648,328.77321 c -18.20909,10.51296 -36.41808,21.02609 -54.62722,31.53896"
         style="fill:none;stroke:#000000;stroke-width:0.5;stroke-linecap:square"
         clip-path="url(#pd71056984a)"
         id="path153" />
    </g>
    <g
       id="line2d_49">
      <path
         d="m 432.13339,323.20891 c -18.31228,10.57262 -36.62459,21.14518 -54.93685,31.71783"
         style="fill:none;stroke:#000000;stroke-width:0.5;stroke-linecap:square"
         clip-path="url(#pd71056984a)"
         id="path156" />
    </g>
    <g
       id="line2d_50">
      <path
         d="m 424.76939,318.49311 c -18.34657,10.59236 -36.69308,21.18482 -55.03968,31.77712"
         style="fill:none;stroke:#000000;stroke-width:0.5;stroke-linecap:square"
         clip-path="url(#pd71056984a)"
         id="path159" />
    </g>
    <g
       id="line2d_51">
      <path
         d="m 417.35397,314.67601 c -18.31223,10.57264 -36.62457,21.14509 -54.93675,31.71783"
         style="fill:none;stroke:#000000;stroke-width:0.5;stroke-linecap:square"
         clip-path="url(#pd71056984a)"
         id="path162" />
    </g>
    <g
       id="line2d_52">
      <path
         d="m 409.96605,311.79886 c -18.20908,10.51298 -36.41808,21.02609 -54.62721,31.53897"
         style="fill:none;stroke:#000000;stroke-width:0.5;stroke-linecap:square"
         clip-path="url(#pd71056984a)"
         id="path165" />
    </g>
    <g
       id="line2d_53">
      <path
         d="m 402.6831,309.8935 c -18.03571,10.41293 -36.07144,20.82582 -54.10713,31.23879"
         style="fill:none;stroke:#000000;stroke-width:0.5;stroke-linecap:square"
         clip-path="url(#pd71056984a)"
         id="path168" />
    </g>
    <g
       id="line2d_54">
      <path
         d="m 395.58025,308.98203 c -17.79014,10.27118 -35.58034,20.54225 -53.37045,30.81349"
         style="fill:none;stroke:#000000;stroke-width:0.5;stroke-linecap:square"
         clip-path="url(#pd71056984a)"
         id="path171" />
    </g>
    <g
       id="line2d_55">
      <path
         d="m 388.72937,309.07668 c -17.46942,10.08596 -34.93881,20.17198 -52.40826,30.25789"
         style="fill:none;stroke:#000000;stroke-width:0.5;stroke-linecap:square"
         clip-path="url(#pd71056984a)"
         id="path174" />
    </g>
    <g
       id="line2d_56">
      <path
         d="m 382.19815,310.17976 c -17.0692,9.8549 -34.13839,19.70981 -51.20759,29.56471"
         style="fill:none;stroke:#000000;stroke-width:0.5;stroke-linecap:square"
         clip-path="url(#pd71056984a)"
         id="path177" />
    </g>
    <g
       id="line2d_57">
      <path
         d="m 376.04904,312.2838 c -16.58381,9.57462 -33.16752,19.14939 -49.75139,28.7239"
         style="fill:none;stroke:#000000;stroke-width:0.5;stroke-linecap:square"
         clip-path="url(#pd71056984a)"
         id="path180" />
    </g>
    <g
       id="line2d_58">
      <path
         d="m 370.33825,315.37186 c -16.00541,9.24064 -32.01067,18.48154 -48.01617,27.72202"
         style="fill:none;stroke:#000000;stroke-width:0.5;stroke-linecap:square"
         clip-path="url(#pd71056984a)"
         id="path183" />
    </g>
    <g
       id="line2d_59">
      <path
         d="m 365.11445,319.41807 c -15.32347,8.84703 -30.64697,17.69401 -45.97043,26.54106"
         style="fill:none;stroke:#000000;stroke-width:0.5;stroke-linecap:square"
         clip-path="url(#pd71056984a)"
         id="path186" />
    </g>
    <g
       id="line2d_60">
      <path
         d="m 360.41721,324.38854 c -14.52353,8.38522 -29.04716,16.77027 -43.57063,25.1556"
         style="fill:none;stroke:#000000;stroke-width:0.5;stroke-linecap:square"
         clip-path="url(#pd71056984a)"
         id="path189" />
    </g>
    <g
       id="line2d_61">
      <path
         d="m 356.27484,330.24273 c -13.58471,7.8431 -27.16936,15.68631 -40.75411,23.52934"
         style="fill:none;stroke:#000000;stroke-width:0.5;stroke-linecap:square"
         clip-path="url(#pd71056984a)"
         id="path192" />
    </g>
    <g
       id="line2d_62">
      <path
         d="m 352.70068,336.93581 c -12.47562,7.2029 -24.95141,14.40552 -37.42693,21.60859"
         style="fill:none;stroke:#000000;stroke-width:0.5;stroke-linecap:square"
         clip-path="url(#pd71056984a)"
         id="path195" />
    </g>
    <g
       id="line2d_63">
      <path
         d="m 349.68611,344.42315 c -11.14568,6.43499 -22.29142,12.86989 -33.43706,19.30494"
         style="fill:none;stroke:#000000;stroke-width:0.5;stroke-linecap:square"
         clip-path="url(#pd71056984a)"
         id="path198" />
    </g>
    <g
       id="line2d_64">
      <path
         d="m 347.18352,352.67062 c -9.5026,5.486 -19.00465,10.97298 -28.50757,16.4584"
         style="fill:none;stroke:#000000;stroke-width:0.5;stroke-linecap:square"
         clip-path="url(#pd71056984a)"
         id="path201" />
    </g>
    <g
       id="line2d_65">
      <path
         d="m 345.05093,361.6873 c -7.33852,4.23727 -14.67769,8.47343 -22.01582,12.71135"
         style="fill:none;stroke:#000000;stroke-width:0.5;stroke-linecap:square"
         clip-path="url(#pd71056984a)"
         id="path204" />
    </g>
    <g
       id="line2d_66">
      <path
         d="m 465.96009,456.91597 c -3.62014,-3.71102 -6.92727,-7.67749 -9.81262,-11.98818 -10.84564,-16.15658 -21.31214,-32.63174 -33.78578,-47.61333 -13.62335,-16.48168 -28.98865,-31.79197 -46.9628,-43.50882 -9.08514,-5.8303 -18.88382,-10.90571 -29.48865,-13.23314 -6.60071,-1.52844 -13.77054,-1.83042 -20.1485,0.7165 -3.62076,1.56121 -6.75434,4.19712 -8.57739,7.72797 -1.99873,4.01515 -2.35766,8.75875 -1.23908,13.09656 0.47869,2.65724 1.83124,5.14932 3.11661,7.48228 1.32439,1.60079 2.64879,3.20157 3.97318,4.80235"
         style="fill:none;stroke:#000000;stroke-width:0.8;stroke-dasharray:2.96, 1.28;stroke-dashoffset:0"
         clip-path="url(#pd71056984a)"
         id="path207" />
    </g>
    <g
       id="line2d_67">
      <path
         d="m 471.46406,453.73825 c -6.84892,-12.09983 -12.23879,-24.97053 -19.32461,-36.94684 -12.2166,-21.35656 -27.31819,-41.2193 -45.70048,-57.65079 -10.87542,-9.50782 -22.89,-17.99748 -36.42476,-23.25889 -7.03506,-2.61133 -14.54893,-4.47031 -22.09625,-3.95572 -5.16706,0.29661 -10.39516,1.82948 -14.51123,5.025 -3.5424,2.59726 -5.99836,6.37017 -7.48893,10.4626 -1.53322,4.94074 -1.83059,10.30843 -0.55484,15.34969 0.3633,3.03865 2.08908,5.6426 3.17611,8.45714"
         style="fill:none;stroke:#008000;stroke-width:0.8;stroke-dasharray:2.96, 1.28;stroke-dashoffset:0"
         clip-path="url(#pd71056984a)"
         id="path210" />
    </g>
    <g
       id="line2d_68">
      <path
         d="m 487.97596,444.2051 c 0.70279,-5.50306 1.38226,-11.00743 1.08613,-16.56623 -0.0966,-7.03175 -1.18869,-14.01696 -2.64247,-20.88921 -2.26359,-10.03337 -5.72067,-19.77891 -10.08344,-29.09151 -4.99791,-10.50573 -11.12626,-20.49456 -18.38252,-29.59401 -7.17723,-9.06797 -15.47468,-17.26752 -24.82421,-24.08898 -6.85001,-4.91027 -14.28983,-9.0395 -22.26203,-11.82527 -6.66262,-2.21132 -13.69341,-3.51328 -20.73445,-3.09256 -5.1265,0.27073 -10.20886,1.54331 -14.88261,3.6584 -5.1225,2.46152 -9.74344,5.91682 -13.46196,10.22191 -4.08699,4.50801 -7.18197,9.86108 -9.65291,15.40199 -3.29456,7.47381 -5.30107,15.40112 -7.08456,23.34772"
         style="fill:none;stroke:#000000;stroke-width:0.8;stroke-dasharray:2.96, 1.28;stroke-dashoffset:0"
         clip-path="url(#pd71056984a)"
         id="path213" />
    </g>
    <g
       id="line2d_69">
      <path
         d="m 471.46406,469.38322 c -4.71216,2.54636 -10.2359,2.72751 -15.39832,1.7059 -13.38716,-2.83848 -25.78657,-8.94728 -38.0447,-14.84447 -23.90286,-11.99655 -47.17519,-25.31992 -69.34152,-40.29563 -7.63659,-5.45923 -15.65437,-10.76259 -21.6512,-18.08062 -1.93916,-2.29919 -3.59107,-5.86712 -1.39333,-8.53158 0.73392,-0.99211 1.99081,-1.62487 2.90408,-2.47141"
         style="fill:none;stroke:#008000;stroke-width:0.8;stroke-dasharray:2.96, 1.28;stroke-dashoffset:0"
         clip-path="url(#pd71056984a)"
         id="path216" />
    </g>
    <g
       id="line2d_70">
      <path
         d="M 482.47199,463.02779 C 434.83031,435.52186 387.18864,408.01592 339.54696,380.50999"
         style="fill:none;stroke:#ff0000;stroke-width:0.8;stroke-dasharray:2.96, 1.28;stroke-dashoffset:0"
         clip-path="url(#pd71056984a)"
         id="path219" />
    </g>
    <g
       id="line2d_71">
      <path
         d="m 578.7914,391.77278 c -0.3084,-9.78197 -1.78119,-19.51429 -4.39151,-28.9449 -3.65062,-13.36083 -9.14879,-26.2009 -16.08932,-38.17764 -6.80952,-11.84721 -15.01195,-22.92756 -24.55502,-32.715 -8.2675,-8.55924 -17.61723,-16.16381 -28.03874,-21.94383 -6.88654,-3.7819 -14.27918,-6.80124 -22.03767,-8.16255 -5.75126,-1.10307 -11.67611,-1.08479 -17.4199,0.051 -5.453,1.30459 -10.70314,3.70185 -14.92079,7.45135 -3.93214,3.25208 -6.94422,7.5164 -9.29939,12.01454 -3.25503,6.56566 -5.00087,13.77446 -5.73922,21.03782 -0.14449,2.29049 -0.28898,4.58097 -0.43347,6.87146"
         style="fill:none;stroke:#008000;stroke-width:0.8;stroke-dasharray:2.96, 1.28;stroke-dashoffset:0"
         clip-path="url(#pd71056984a)"
         id="path222" />
    </g>
    <g
       id="line2d_72">
      <path
         d="m 578.7914,391.77278 c -0.3084,-9.78197 -1.78119,-19.51429 -4.39151,-28.9449 -3.65062,-13.36083 -9.14879,-26.2009 -16.08932,-38.17764 -6.80952,-11.84721 -15.01195,-22.92756 -24.55502,-32.715 -8.2675,-8.55924 -17.61723,-16.16381 -28.03874,-21.94383 -6.88654,-3.7819 -14.27918,-6.80124 -22.03767,-8.16255 -5.75126,-1.10307 -11.67611,-1.08479 -17.4199,0.051 -5.453,1.30459 -10.70314,3.70185 -14.92079,7.45135 -3.93214,3.25208 -6.94422,7.5164 -9.29939,12.01454 -3.25503,6.56566 -5.00087,13.77446 -5.73922,21.03782 -0.14449,2.29049 -0.28898,4.58097 -0.43347,6.87146"
         style="fill:none;stroke:#ff0000;stroke-width:0.8;stroke-dasharray:2.96, 1.28;stroke-dashoffset:0"
         clip-path="url(#pd71056984a)"
         id="path225" />
    </g>
    <g
       id="Poly3DCollection_1">
      <path
         d="m 465.96009,472.56094 c -4.52954,2.36512 -9.40767,4.15674 -14.55644,4.39122 -11.4595,0.47997 -22.55226,-3.36621 -33.1253,-7.38429 -22.17903,-8.83551 -43.19594,-20.37327 -63.44837,-32.95962 -11.70446,-7.58751 -23.57764,-15.27716 -33.30825,-25.36811 -3.12711,-3.47722 -6.62613,-7.66096 -6.15131,-12.61841 0.7444,-3.88266 4.18032,-6.22207 7.24968,-8.28299 7.53024,-4.42499 15.10048,-8.84355 22.72061,-13.0938 4.72624,-1.62616 9.60602,0.81072 14.04511,2.34366 17.16584,7.13955 33.37643,16.33863 49.64374,25.28696 22.68787,12.85535 45.34253,25.86 66.90506,40.55135 4.45189,3.3754 9.53355,6.35414 12.70908,11.05112 1.5704,2.12016 -1.02746,3.8034 -2.7646,4.58264 -6.63967,3.83343 -13.27934,7.66685 -19.91901,11.50027 z"
         style="fill-opacity:0.25"
         clip-path="url(#pd71056984a)"
         id="path228" />
    </g>
  </g>
  <defs
     id="defs236">
    <clipPath
       id="pd71056984a">
      <rect
         id="rect233"
         y="0"
         x="0"
         width="720"
         height="720" />
    </clipPath>
  </defs>
</svg>
