<?xml version="1.0" encoding="UTF-8" standalone="no"?>
<svg
   xmlns:dc="http://purl.org/dc/elements/1.1/"
   xmlns:cc="http://creativecommons.org/ns#"
   xmlns:rdf="http://www.w3.org/1999/02/22-rdf-syntax-ns#"
   xmlns:svg="http://www.w3.org/2000/svg"
   xmlns="http://www.w3.org/2000/svg"
   xmlns:sodipodi="http://sodipodi.sourceforge.net/DTD/sodipodi-0.dtd"
   xmlns:inkscape="http://www.inkscape.org/namespaces/inkscape"
   inkscape:version="1.0 (4035a4fb49, 2020-05-01)"
   sodipodi:docname="elliptical2_canopy_airfoils.svg"
   id="svg331"
   width="441.41013pt"
   viewBox="0 0 441.41013 414.19595"
   version="1.1"
   height="414.19595pt">
  <metadata
     id="metadata335">
    <rdf:RDF>
      <cc:Work
         rdf:about="">
        <dc:format>image/svg+xml</dc:format>
        <dc:type
           rdf:resource="http://purl.org/dc/dcmitype/StillImage" />
      </cc:Work>
    </rdf:RDF>
  </metadata>
  <sodipodi:namedview
     inkscape:current-layer="svg331"
     inkscape:window-maximized="0"
     inkscape:window-y="27"
     inkscape:window-x="0"
     inkscape:cy="310.28839"
     inkscape:cx="207.91423"
     inkscape:zoom="1.06875"
     showgrid="false"
     id="namedview333"
     inkscape:window-height="1198"
     inkscape:window-width="1396"
     inkscape:pageshadow="2"
     inkscape:pageopacity="0"
     guidetolerance="10"
     gridtolerance="10"
     objecttolerance="10"
     borderopacity="1"
     bordercolor="#666666"
     pagecolor="#ffffff" />
  <defs
     id="defs4">
    <style
       id="style2"
       type="text/css">
*{stroke-linecap:butt;stroke-linejoin:round;}
  </style>
  </defs>
  <g
     transform="translate(-204.06433,-127.28371)"
     id="axes_1">
    <g
       id="line2d_1">
      <path
         d="M 644.92804,445.60176 C 553.19527,392.63982 461.4625,339.67788 369.72973,286.71594"
         style="fill:none;stroke:#d3d3d3;stroke-width:0.8;stroke-linecap:square"
         clip-path="url(#pbedc441413)"
         id="path12" />
    </g>
    <g
       id="line2d_2">
      <path
         d="M 617.40821,461.49034 C 525.67544,408.5284 433.94267,355.56646 342.2099,302.60452"
         style="fill:none;stroke:#d3d3d3;stroke-width:0.8;stroke-linecap:square"
         clip-path="url(#pbedc441413)"
         id="path15" />
    </g>
    <g
       id="line2d_3">
      <path
         d="M 589.88838,477.37893 C 498.15561,424.41699 406.42284,371.45505 314.69007,318.49311"
         style="fill:none;stroke:#d3d3d3;stroke-width:0.8;stroke-linecap:square"
         clip-path="url(#pbedc441413)"
         id="path18" />
    </g>
    <g
       id="line2d_4">
      <path
         d="M 562.36855,493.26751 C 470.63578,440.30557 378.903,387.34363 287.17023,334.38169"
         style="fill:none;stroke:#d3d3d3;stroke-width:0.8;stroke-linecap:square"
         clip-path="url(#pbedc441413)"
         id="path21" />
    </g>
    <g
       id="line2d_5">
      <path
         d="M 534.84872,509.15609 C 443.11595,456.19415 351.38317,403.23221 259.6504,350.27027"
         style="fill:none;stroke:#d3d3d3;stroke-width:0.8;stroke-linecap:square"
         clip-path="url(#pbedc441413)"
         id="path24" />
    </g>
    <g
       id="line2d_6">
      <path
         d="M 507.32889,525.04467 C 415.59612,472.08273 323.86334,419.12079 232.13057,366.15885"
         style="fill:none;stroke:#d3d3d3;stroke-width:0.8;stroke-linecap:square"
         clip-path="url(#pbedc441413)"
         id="path27" />
    </g>
    <g
       id="line2d_7">
      <path
         d="M 479.80906,540.93326 C 388.07629,487.97132 296.34351,435.00937 204.61074,382.04743"
         style="fill:none;stroke:#d3d3d3;stroke-width:0.8;stroke-linecap:square"
         clip-path="url(#pbedc441413)"
         id="path30" />
    </g>
    <g
       id="line2d_8">
      <path
         d="m 644.92804,445.60176 c -55.03966,31.77717 -110.07932,63.55433 -165.11898,95.3315"
         style="fill:none;stroke:#d3d3d3;stroke-width:0.8;stroke-linecap:square"
         clip-path="url(#pbedc441413)"
         id="path33" />
    </g>
    <g
       id="line2d_9">
      <path
         d="m 644.92804,286.71594 c 0,52.96194 0,105.92388 0,158.88582"
         style="fill:none;stroke:#d3d3d3;stroke-width:0.8;stroke-linecap:square"
         clip-path="url(#pbedc441413)"
         id="path36" />
    </g>
    <g
       id="line2d_10">
      <path
         d="m 617.40821,429.71318 c -55.03966,31.77716 -110.07933,63.55433 -165.11899,95.33149"
         style="fill:none;stroke:#d3d3d3;stroke-width:0.8;stroke-linecap:square"
         clip-path="url(#pbedc441413)"
         id="path39" />
    </g>
    <g
       id="line2d_11">
      <path
         d="m 617.40821,270.82736 c 0,52.96194 0,105.92388 0,158.88582"
         style="fill:none;stroke:#d3d3d3;stroke-width:0.8;stroke-linecap:square"
         clip-path="url(#pbedc441413)"
         id="path42" />
    </g>
    <g
       id="line2d_12">
      <path
         d="m 589.88838,413.8246 c -55.03966,31.77716 -110.07933,63.55433 -165.11899,95.33149"
         style="fill:none;stroke:#d3d3d3;stroke-width:0.8;stroke-linecap:square"
         clip-path="url(#pbedc441413)"
         id="path45" />
    </g>
    <g
       id="line2d_13">
      <path
         d="m 589.88838,254.93878 c 0,52.96194 0,105.92388 0,158.88582"
         style="fill:none;stroke:#d3d3d3;stroke-width:0.8;stroke-linecap:square"
         clip-path="url(#pbedc441413)"
         id="path48" />
    </g>
    <g
       id="line2d_14">
      <path
         d="m 562.36855,397.93602 c -55.03966,31.77716 -110.07933,63.55433 -165.11899,95.33149"
         style="fill:none;stroke:#d3d3d3;stroke-width:0.8;stroke-linecap:square"
         clip-path="url(#pbedc441413)"
         id="path51" />
    </g>
    <g
       id="line2d_15">
      <path
         d="m 562.36855,239.05019 c 0,52.96194 0,105.92389 0,158.88583"
         style="fill:none;stroke:#d3d3d3;stroke-width:0.8;stroke-linecap:square"
         clip-path="url(#pbedc441413)"
         id="path54" />
    </g>
    <g
       id="line2d_16">
      <path
         d="m 534.84872,382.04743 c -55.03966,31.77717 -110.07933,63.55433 -165.11899,95.3315"
         style="fill:none;stroke:#d3d3d3;stroke-width:0.8;stroke-linecap:square"
         clip-path="url(#pbedc441413)"
         id="path57" />
    </g>
    <g
       id="line2d_17">
      <path
         d="m 534.84872,223.16161 c 0,52.96194 0,105.92388 0,158.88582"
         style="fill:none;stroke:#d3d3d3;stroke-width:0.8;stroke-linecap:square"
         clip-path="url(#pbedc441413)"
         id="path60" />
    </g>
    <g
       id="line2d_18">
      <path
         d="M 507.32889,366.15885 C 452.28923,397.93601 397.24956,429.71318 342.2099,461.49034"
         style="fill:none;stroke:#d3d3d3;stroke-width:0.8;stroke-linecap:square"
         clip-path="url(#pbedc441413)"
         id="path63" />
    </g>
    <g
       id="line2d_19">
      <path
         d="m 507.32889,207.27303 c 0,52.96194 0,105.92388 0,158.88582"
         style="fill:none;stroke:#d3d3d3;stroke-width:0.8;stroke-linecap:square"
         clip-path="url(#pbedc441413)"
         id="path66" />
    </g>
    <g
       id="line2d_20">
      <path
         d="M 479.80906,350.27027 C 424.7694,382.04743 369.72973,413.8246 314.69007,445.60176"
         style="fill:none;stroke:#d3d3d3;stroke-width:0.8;stroke-linecap:square"
         clip-path="url(#pbedc441413)"
         id="path69" />
    </g>
    <g
       id="line2d_21">
      <path
         d="m 479.80906,191.38445 c 0,52.96194 0,105.92388 0,158.88582"
         style="fill:none;stroke:#d3d3d3;stroke-width:0.8;stroke-linecap:square"
         clip-path="url(#pbedc441413)"
         id="path72" />
    </g>
    <g
       id="line2d_22">
      <path
         d="m 452.28922,334.38169 c -55.03966,31.77716 -110.07933,63.55433 -165.11899,95.33149"
         style="fill:none;stroke:#d3d3d3;stroke-width:0.8;stroke-linecap:square"
         clip-path="url(#pbedc441413)"
         id="path75" />
    </g>
    <g
       id="line2d_23">
      <path
         d="m 452.28922,175.49587 c 0,52.96194 0,105.92388 0,158.88582"
         style="fill:none;stroke:#d3d3d3;stroke-width:0.8;stroke-linecap:square"
         clip-path="url(#pbedc441413)"
         id="path78" />
    </g>
    <g
       id="line2d_24">
      <path
         d="M 424.76939,318.49311 C 369.72973,350.27027 314.69006,382.04744 259.6504,413.8246"
         style="fill:none;stroke:#d3d3d3;stroke-width:0.8;stroke-linecap:square"
         clip-path="url(#pbedc441413)"
         id="path81" />
    </g>
    <g
       id="line2d_25">
      <path
         d="m 424.76939,159.60728 c 0,52.96194 0,105.92389 0,158.88583"
         style="fill:none;stroke:#d3d3d3;stroke-width:0.8;stroke-linecap:square"
         clip-path="url(#pbedc441413)"
         id="path84" />
    </g>
    <g
       id="line2d_26">
      <path
         d="m 397.24956,302.60452 c -55.03966,31.77717 -110.07933,63.55433 -165.11899,95.3315"
         style="fill:none;stroke:#d3d3d3;stroke-width:0.8;stroke-linecap:square"
         clip-path="url(#pbedc441413)"
         id="path87" />
    </g>
    <g
       id="line2d_27">
      <path
         d="m 397.24956,143.7187 c 0,52.96194 0,105.92388 0,158.88582"
         style="fill:none;stroke:#d3d3d3;stroke-width:0.8;stroke-linecap:square"
         clip-path="url(#pbedc441413)"
         id="path90" />
    </g>
    <g
       id="line2d_28">
      <path
         d="M 369.72973,286.71594 C 314.69007,318.4931 259.6504,350.27027 204.61074,382.04743"
         style="fill:none;stroke:#d3d3d3;stroke-width:0.8;stroke-linecap:square"
         clip-path="url(#pbedc441413)"
         id="path93" />
    </g>
    <g
       id="line2d_29">
      <path
         d="m 369.72973,127.83012 c 0,52.96194 0,105.92388 0,158.88582"
         style="fill:none;stroke:#d3d3d3;stroke-width:0.8;stroke-linecap:square"
         clip-path="url(#pbedc441413)"
         id="path96" />
    </g>
    <g
       id="line2d_30">
      <path
         d="M 644.92804,286.71594 C 553.19527,233.754 461.4625,180.79206 369.72973,127.83012"
         style="fill:none;stroke:#d3d3d3;stroke-width:0.8;stroke-linecap:square"
         clip-path="url(#pbedc441413)"
         id="path99" />
    </g>
    <g
       id="line2d_31">
      <path
         d="M 644.92804,318.49311 C 553.19527,265.53117 461.4625,212.56922 369.72973,159.60728"
         style="fill:none;stroke:#d3d3d3;stroke-width:0.8;stroke-linecap:square"
         clip-path="url(#pbedc441413)"
         id="path102" />
    </g>
    <g
       id="line2d_32">
      <path
         d="M 644.92804,350.27027 C 553.19527,297.30833 461.4625,244.34639 369.72973,191.38445"
         style="fill:none;stroke:#d3d3d3;stroke-width:0.8;stroke-linecap:square"
         clip-path="url(#pbedc441413)"
         id="path105" />
    </g>
    <g
       id="line2d_33">
      <path
         d="M 644.92804,382.04743 C 553.19527,329.08549 461.4625,276.12355 369.72973,223.16161"
         style="fill:none;stroke:#d3d3d3;stroke-width:0.8;stroke-linecap:square"
         clip-path="url(#pbedc441413)"
         id="path108" />
    </g>
    <g
       id="line2d_34">
      <path
         d="M 644.92804,413.8246 C 553.19527,360.86266 461.4625,307.90072 369.72973,254.93878"
         style="fill:none;stroke:#d3d3d3;stroke-width:0.8;stroke-linecap:square"
         clip-path="url(#pbedc441413)"
         id="path111" />
    </g>
    <g
       id="line2d_35">
      <path
         d="m 487.97596,444.2051 c -7.35142,3.33164 -15.06175,6.3435 -21.37016,11.49804 -0.24615,0.28563 -0.9797,0.76623 -0.64521,1.21267"
         style="fill:none;stroke:#ff0000;stroke-width:0.25;stroke-linecap:square"
         clip-path="url(#pbedc441413)"
         id="path114" />
    </g>
    <g
       id="line2d_36">
      <path
         d="m 489.08918,434.59989 c -9.10493,4.21619 -18.47715,8.18771 -26.60828,14.15369 -0.52202,0.59736 -2.29392,1.38042 -1.8988,2.30538"
         style="fill:none;stroke:#ff0000;stroke-width:0.25;stroke-linecap:square"
         clip-path="url(#pbedc441413)"
         id="path117" />
    </g>
    <g
       id="line2d_37">
      <path
         d="m 489.05138,424.88572 c -10.46003,4.99279 -21.13308,9.78076 -30.68241,16.41513 -0.74827,0.81691 -2.98705,1.66613 -2.75461,2.8897"
         style="fill:none;stroke:#ff0000;stroke-width:0.25;stroke-linecap:square"
         clip-path="url(#pbedc441413)"
         id="path120" />
    </g>
    <g
       id="line2d_38">
      <path
         d="m 488.03176,415.06925 c -11.64031,5.75791 -23.46782,11.31576 -34.26716,18.57931 -0.99731,0.94706 -2.99645,1.62678 -3.20332,3.00177 l 0.0318,0.0208 0.0118,0.007"
         style="fill:none;stroke:#ff0000;stroke-width:0.25;stroke-linecap:square"
         clip-path="url(#pbedc441413)"
         id="path123" />
    </g>
    <g
       id="line2d_39">
      <path
         d="m 486.12119,405.20956 c -12.89178,6.62782 -25.97728,13.01671 -38.07391,21.04586 -0.71037,0.74129 -2.70632,1.39711 -2.68063,2.48314"
         style="fill:none;stroke:#ff0000;stroke-width:0.25;stroke-linecap:square"
         clip-path="url(#pbedc441413)"
         id="path126" />
    </g>
    <g
       id="line2d_40">
      <path
         d="m 483.38706,395.38522 c -14.19484,7.59288 -28.60061,14.89163 -42.08229,23.72144 -0.29915,0.3563 -1.80961,0.96327 -1.48848,1.43434"
         style="fill:none;stroke:#ff0000;stroke-width:0.25;stroke-linecap:square"
         clip-path="url(#pbedc441413)"
         id="path129" />
    </g>
    <g
       id="line2d_41">
      <path
         d="m 479.88974,385.68361 c -15.25006,8.45721 -30.67707,16.64402 -45.42376,25.9663 -0.0405,0.0617 -0.91964,0.56638 -0.54673,0.57478"
         style="fill:none;stroke:#ff0000;stroke-width:0.25;stroke-linecap:square"
         clip-path="url(#pbedc441413)"
         id="path132" />
    </g>
    <g
       id="line2d_42">
      <path
         d="m 475.68876,376.196 c -16.01124,9.18901 -32.35099,18.32171 -48.05182,27.73744 l 0.0257,-0.0109 0.01,-0.004"
         style="fill:none;stroke:#ff0000;stroke-width:0.25;stroke-linecap:square"
         clip-path="url(#pbedc441413)"
         id="path135" />
    </g>
    <g
       id="line2d_43">
      <path
         d="m 470.84557,367.0146 c -16.49975,9.68614 -32.86604,19.62315 -49.67655,28.76321 -0.099,0.0527 -0.18954,0.0535 -0.0751,-0.0396"
         style="fill:none;stroke:#ff0000;stroke-width:0.25;stroke-linecap:square"
         clip-path="url(#pbedc441413)"
         id="path138" />
    </g>
    <g
       id="line2d_44">
      <path
         d="m 465.42461,358.23058 c -16.33461,9.9296 -32.51674,20.17111 -49.47956,29.01041 -0.32606,0.0499 -1.64936,1.01043 -1.72784,0.55446"
         style="fill:none;stroke:#ff0000;stroke-width:0.25;stroke-linecap:square"
         clip-path="url(#pbedc441413)"
         id="path141" />
    </g>
    <g
       id="line2d_45">
      <path
         d="m 459.4937,349.93248 c -15.37751,9.71312 -30.66755,19.64336 -46.79943,28.07646 -1.83129,0.72392 -3.7146,2.26301 -5.62507,2.29156 -0.005,-0.0378 0.005,-0.0744 0.015,-0.1101"
         style="fill:none;stroke:#ff0000;stroke-width:0.25;stroke-linecap:square"
         clip-path="url(#pbedc441413)"
         id="path144" />
    </g>
    <g
       id="line2d_46">
      <path
         d="m 453.12396,342.2049 c -14.83808,9.7242 -29.64746,19.58886 -45.37543,27.83561 -2.58452,1.11601 -5.0657,2.84368 -7.86394,3.25428 -0.11667,-0.0388 -0.14987,-0.16924 -0.1316,-0.2763"
         style="fill:none;stroke:#ff0000;stroke-width:0.25;stroke-linecap:square"
         clip-path="url(#pbedc441413)"
         id="path147" />
    </g>
    <g
       id="line2d_47">
      <path
         d="m 446.3894,335.12734 c -14.40052,9.77542 -28.82971,19.62099 -44.24552,27.74733 -3.1064,1.38523 -6.12354,3.29383 -9.49786,3.87977 -0.20816,-0.009 -0.37752,-0.18012 -0.3635,-0.3884"
         style="fill:none;stroke:#ff0000;stroke-width:0.25;stroke-linecap:square"
         clip-path="url(#pbedc441413)"
         id="path150" />
    </g>
    <g
       id="line2d_48">
      <path
         d="m 439.36648,328.77321 c -14.013,9.8353 -28.11106,19.67552 -43.25741,27.70852 -3.5488,1.58037 -7.04042,3.76794 -10.92345,4.29213 -0.23684,-0.0316 -0.42935,-0.2236 -0.44621,-0.46169"
         style="fill:none;stroke:#ff0000;stroke-width:0.25;stroke-linecap:square"
         clip-path="url(#pbedc441413)"
         id="path153" />
    </g>
    <g
       id="line2d_49">
      <path
         d="m 432.13339,323.20891 c -13.74744,9.95027 -27.62812,19.86259 -42.6474,27.82585 -3.71097,1.70304 -7.40894,3.78573 -11.46916,4.45708 -0.35839,0.008 -0.75647,-0.18238 -0.82041,-0.56514"
         style="fill:none;stroke:#ff0000;stroke-width:0.25;stroke-linecap:square"
         clip-path="url(#pbedc441413)"
         id="path156" />
    </g>
    <g
       id="line2d_50">
      <path
         d="m 424.76939,318.49311 c -13.31933,9.92884 -26.82665,19.75793 -41.49884,27.61508 -4.05432,1.8977 -8.14579,4.15837 -12.61652,4.79347 -0.39699,-0.0153 -0.81627,-0.22153 -0.92457,-0.63136"
         style="fill:none;stroke:#ff0000;stroke-width:0.25;stroke-linecap:square"
         clip-path="url(#pbedc441413)"
         id="path159" />
    </g>
    <g
       id="line2d_51">
      <path
         d="m 417.35397,314.67601 c -13.04253,9.9817 -26.31814,19.82801 -40.82937,27.59386 -4.18977,1.95083 -8.44785,4.25904 -13.08257,4.8073 -0.43157,-0.0329 -0.874,-0.25334 -1.02497,-0.68325"
         style="fill:none;stroke:#ff0000;stroke-width:0.25;stroke-linecap:square"
         clip-path="url(#pbedc441413)"
         id="path162" />
    </g>
    <g
       id="line2d_52">
      <path
         d="m 409.96605,311.79886 c -12.6794,9.93973 -25.63395,19.70799 -39.86061,27.34748 -4.22273,2.04574 -8.56344,4.18137 -13.22948,4.92902 -0.58904,0.0192 -1.27965,-0.14093 -1.53705,-0.73757"
         style="fill:none;stroke:#ff0000;stroke-width:0.25;stroke-linecap:square"
         clip-path="url(#pbedc441413)"
         id="path165" />
    </g>
    <g
       id="line2d_53">
      <path
         d="m 402.6831,309.8935 c -12.32718,9.86848 -24.96487,19.5394 -38.90692,27.03741 -4.31626,2.09971 -8.7776,4.2578 -13.56136,4.96396 -0.62212,0.0108 -1.33152,-0.16056 -1.63879,-0.76264"
         style="fill:none;stroke:#ff0000;stroke-width:0.25;stroke-linecap:square"
         clip-path="url(#pbedc441413)"
         id="path168" />
    </g>
    <g
       id="line2d_54">
      <path
         d="m 395.58025,308.98203 c -12.01929,9.79437 -24.37801,19.37713 -38.08478,26.71611 -4.31003,2.08522 -8.77859,4.207 -13.55783,4.86602 -0.64832,0.006 -1.37365,-0.17045 -1.72785,-0.7686"
         style="fill:none;stroke:#ff0000;stroke-width:0.25;stroke-linecap:square"
         clip-path="url(#pbedc441413)"
         id="path171" />
    </g>
    <g
       id="line2d_55">
      <path
         d="m 388.72937,309.07668 c -11.67492,9.6583 -23.71625,19.08758 -37.12532,26.24039 -4.28262,2.06427 -8.73248,4.14299 -13.48126,4.77303 -0.6672,0.004 -1.40436,-0.16885 -1.80166,-0.75554"
         style="fill:none;stroke:#ff0000;stroke-width:0.25;stroke-linecap:square"
         clip-path="url(#pbedc441413)"
         id="path174" />
    </g>
    <g
       id="line2d_56">
      <path
         d="m 382.19815,310.17976 c -11.37402,9.51755 -23.13448,18.80093 -36.29544,25.74294 -4.24509,1.96927 -8.6467,4.11811 -13.35699,4.53108 -0.58121,-0.0218 -1.18893,-0.23612 -1.5551,-0.70935"
         style="fill:none;stroke:#ff0000;stroke-width:0.25;stroke-linecap:square"
         clip-path="url(#pbedc441413)"
         id="path177" />
    </g>
    <g
       id="line2d_57">
      <path
         d="m 376.04904,312.2838 c -11.05229,9.32527 -22.50868,18.40774 -35.37926,25.11195 -4.12157,1.84593 -8.37551,3.96093 -12.93776,4.2697 -0.53247,-0.0521 -1.07563,-0.24298 -1.43423,-0.65771"
         style="fill:none;stroke:#ff0000;stroke-width:0.25;stroke-linecap:square"
         clip-path="url(#pbedc441413)"
         id="path180" />
    </g>
    <g
       id="line2d_58">
      <path
         d="m 370.33825,315.37186 c -10.74677,9.09052 -21.89089,17.97281 -34.48351,24.38875 -3.86099,1.6857 -7.82881,3.63167 -12.08283,3.93327 -0.52877,-0.0425 -1.07129,-0.21048 -1.44975,-0.59959"
         style="fill:none;stroke:#ff0000;stroke-width:0.25;stroke-linecap:square"
         clip-path="url(#pbedc441413)"
         id="path183" />
    </g>
    <g
       id="line2d_59">
      <path
         d="m 365.11445,319.41807 c -10.37412,8.77553 -21.14352,17.35363 -33.3494,23.45772 -3.70577,1.52363 -7.49506,3.52698 -11.57091,3.56803 -0.38341,-0.0694 -0.75876,-0.22105 -1.05015,-0.48477"
         style="fill:none;stroke:#ff0000;stroke-width:0.25;stroke-linecap:square"
         clip-path="url(#pbedc441413)"
         id="path186" />
    </g>
    <g
       id="line2d_60">
      <path
         d="m 360.41721,324.38854 c -9.94781,8.37961 -20.27524,16.58458 -32.0136,22.32551 -3.38194,1.36865 -6.81809,3.16159 -10.52435,3.24782 -0.37073,-0.0537 -0.73755,-0.18174 -1.03271,-0.4173"
         style="fill:none;stroke:#ff0000;stroke-width:0.25;stroke-linecap:square"
         clip-path="url(#pbedc441413)"
         id="path189" />
    </g>
    <g
       id="line2d_61">
      <path
         d="m 356.27484,330.24273 c -9.63274,8.02215 -19.61096,15.94852 -31.04688,21.25397 -2.98596,1.03228 -6.03575,2.9149 -9.28098,2.49312 -0.15052,-0.0542 -0.29467,-0.12674 -0.42625,-0.2177"
         style="fill:none;stroke:#ff0000;stroke-width:0.25;stroke-linecap:square"
         clip-path="url(#pbedc441413)"
         id="path192" />
    </g>
    <g
       id="line2d_62">
      <path
         d="m 352.70068,336.93581 c -9.08051,7.45746 -18.46908,14.86719 -29.26063,19.69639 -2.55721,0.78598 -5.44779,2.76159 -8.16636,1.91231"
         style="fill:none;stroke:#ff0000;stroke-width:0.25;stroke-linecap:square"
         clip-path="url(#pbedc441413)"
         id="path195" />
    </g>
    <g
       id="line2d_63">
      <path
         d="m 349.68611,344.42315 c -8.84917,7.09892 -17.96432,14.31023 -28.63971,18.45112 -1.50238,0.44981 -3.20954,1.42827 -4.79735,0.85312"
         style="fill:none;stroke:#ff0000;stroke-width:0.25;stroke-linecap:square"
         clip-path="url(#pbedc441413)"
         id="path198" />
    </g>
    <g
       id="line2d_64">
      <path
         d="m 347.18352,352.67062 c -8.17328,6.39515 -16.5829,13.00848 -26.53986,16.35315 -0.63161,0.16336 -1.33314,0.35134 -1.96766,0.1055"
         style="fill:none;stroke:#ff0000;stroke-width:0.25;stroke-linecap:square"
         clip-path="url(#pbedc441413)"
         id="path201" />
    </g>
    <g
       id="line2d_65">
      <path
         d="m 345.05093,361.6873 c -6.50346,4.94305 -13.15656,10.12439 -21.01354,12.69597 -0.32648,0.0672 -0.67756,0.11681 -1.00234,0.014"
         style="fill:none;stroke:#ff0000;stroke-width:0.25;stroke-linecap:square"
         clip-path="url(#pbedc441413)"
         id="path204" />
    </g>
    <g
       id="line2d_66">
      <path
         d="m 487.97596,444.2051 c -5.76726,4.7383 -11.59884,9.76728 -18.61584,12.53651 -1.06092,0.25284 -2.37568,0.74208 -3.39999,0.17426"
         style="fill:none;stroke:#0000ff;stroke-width:0.25;stroke-linecap:square"
         clip-path="url(#pbedc441413)"
         id="path207" />
    </g>
    <g
       id="line2d_67">
      <path
         d="m 489.08918,434.59989 c -7.28861,5.83848 -14.6974,11.8075 -23.26831,15.66132 -1.61565,0.51881 -3.55695,1.41668 -5.23918,0.79742"
         style="fill:none;stroke:#0000ff;stroke-width:0.25;stroke-linecap:square"
         clip-path="url(#pbedc441413)"
         id="path210" />
    </g>
    <g
       id="line2d_68">
      <path
         d="m 489.05138,424.88572 c -8.71402,6.69333 -17.53501,13.51456 -27.56892,18.12636 -1.82831,0.62386 -3.92218,1.65631 -5.86815,1.17844"
         style="fill:none;stroke:#0000ff;stroke-width:0.25;stroke-linecap:square"
         clip-path="url(#pbedc441413)"
         id="path213" />
    </g>
    <g
       id="line2d_69">
      <path
         d="m 488.03176,415.06925 c -9.85678,7.24446 -19.81075,14.5616 -30.87324,19.87663 -2.057,0.77416 -4.31467,1.9684 -6.55378,1.732"
         style="fill:none;stroke:#0000ff;stroke-width:0.25;stroke-linecap:square"
         clip-path="url(#pbedc441413)"
         id="path216" />
    </g>
    <g
       id="line2d_70">
      <path
         d="m 486.12119,405.20956 c -11.03734,7.69988 -22.12734,15.48512 -34.22739,21.44556 -2.08569,0.84073 -4.24615,2.02614 -6.52671,2.08372"
         style="fill:none;stroke:#0000ff;stroke-width:0.25;stroke-linecap:square"
         clip-path="url(#pbedc441413)"
         id="path219" />
    </g>
    <g
       id="line2d_71">
      <path
         d="m 483.38706,395.38522 c -12.40148,8.16619 -24.78175,16.48992 -38.08785,23.13205 -1.77931,0.75419 -3.55694,1.7371 -5.48273,2.02355"
         style="fill:none;stroke:#0000ff;stroke-width:0.25;stroke-linecap:square"
         clip-path="url(#pbedc441413)"
         id="path222" />
    </g>
    <g
       id="line2d_72">
      <path
         d="m 479.88974,385.68361 c -14.00609,8.68762 -27.91771,17.60454 -42.60422,25.11452 -1.10619,0.50268 -2.19123,1.10253 -3.36628,1.42722"
         style="fill:none;stroke:#0000ff;stroke-width:0.25;stroke-linecap:square"
         clip-path="url(#pbedc441413)"
         id="path225" />
    </g>
    <g
       id="line2d_73">
      <path
         d="m 475.68876,376.196 c -15.95169,9.3282 -31.79142,18.8746 -48.01608,27.72232"
         style="fill:none;stroke:#0000ff;stroke-width:0.25;stroke-linecap:square"
         clip-path="url(#pbedc441413)"
         id="path228" />
    </g>
    <g
       id="line2d_74">
      <path
         d="m 470.84557,367.0146 c -16.33323,9.13215 -32.82864,18.01565 -48.68305,27.96824 -0.35983,0.24562 -0.73193,0.47708 -1.06792,0.75547"
         style="fill:none;stroke:#0000ff;stroke-width:0.25;stroke-linecap:square"
         clip-path="url(#pbedc441413)"
         id="path231" />
    </g>
    <g
       id="line2d_75">
      <path
         d="m 465.42461,358.23058 c -15.54228,8.12759 -31.18785,16.15257 -45.97648,25.60934 -1.78039,1.25148 -3.70376,2.39471 -5.23074,3.95539"
         style="fill:none;stroke:#0000ff;stroke-width:0.25;stroke-linecap:square"
         clip-path="url(#pbedc441413)"
         id="path234" />
    </g>
    <g
       id="line2d_76">
      <path
         d="m 459.4937,349.93248 c -15.41191,7.52963 -30.88601,15.08984 -45.31957,24.40082 -2.44936,1.79373 -5.22552,3.42902 -7.0885,5.85718"
         style="fill:none;stroke:#0000ff;stroke-width:0.25;stroke-linecap:square"
         clip-path="url(#pbedc441413)"
         id="path237" />
    </g>
    <g
       id="line2d_77">
      <path
         d="m 453.12396,342.2049 c -15.39577,7.02733 -30.82291,14.21108 -45.0656,23.41046 -2.93108,2.18378 -6.38805,4.22329 -8.30518,7.40296"
         style="fill:none;stroke:#0000ff;stroke-width:0.25;stroke-linecap:square"
         clip-path="url(#pbedc441413)"
         id="path240" />
    </g>
    <g
       id="line2d_78">
      <path
         d="m 446.3894,335.12734 c -15.36349,6.54927 -30.72022,13.39228 -44.81494,22.42049 -3.39303,2.45231 -7.19471,4.87221 -9.26492,8.60979 -0.0161,0.0681 -0.0277,0.1382 -0.0273,0.20842"
         style="fill:none;stroke:#0000ff;stroke-width:0.25;stroke-linecap:square"
         clip-path="url(#pbedc441413)"
         id="path243" />
    </g>
    <g
       id="line2d_79">
      <path
         d="m 439.36648,328.77321 c -15.32921,6.12706 -30.63861,12.64332 -44.61801,21.50457 -3.74969,2.63754 -7.88029,5.38443 -9.96739,9.59518 -0.0349,0.14238 -0.0609,0.29247 -0.0407,0.43933"
         style="fill:none;stroke:#0000ff;stroke-width:0.25;stroke-linecap:square"
         clip-path="url(#pbedc441413)"
         id="path246" />
    </g>
    <g
       id="line2d_80">
      <path
         d="m 432.13339,323.20891 c -15.21122,5.71931 -30.39208,11.90702 -44.22547,20.52303 -4.08891,2.77144 -8.51809,5.79453 -10.64652,10.40891 -0.0707,0.25308 -0.12105,0.52456 -0.0648,0.78581"
         style="fill:none;stroke:#0000ff;stroke-width:0.25;stroke-linecap:square"
         clip-path="url(#pbedc441413)"
         id="path249" />
    </g>
    <g
       id="line2d_81">
      <path
         d="m 424.76939,318.49311 c -15.01252,5.3327 -29.98439,11.19658 -43.63634,19.49921 -4.46885,2.94812 -9.44469,6.23663 -11.41222,11.44364 -0.0512,0.27377 -0.0741,0.56419 0.009,0.83428"
         style="fill:none;stroke:#0000ff;stroke-width:0.25;stroke-linecap:square"
         clip-path="url(#pbedc441413)"
         id="path252" />
    </g>
    <g
       id="line2d_82">
      <path
         d="m 417.35397,314.67601 c -14.92174,5.04339 -29.80918,10.65225 -43.36444,18.77123 -4.59172,2.94155 -9.60655,6.32282 -11.57665,11.64679 -0.0916,0.42444 -0.1587,0.88292 0.004,1.29974"
         style="fill:none;stroke:#0000ff;stroke-width:0.25;stroke-linecap:square"
         clip-path="url(#pbedc441413)"
         id="path255" />
    </g>
    <g
       id="line2d_83">
      <path
         d="m 409.96605,311.79886 c -14.74005,4.76769 -29.44168,10.13314 -42.84926,17.99236 -4.77913,3.01791 -10.16214,6.51682 -11.88504,12.21307 -0.0646,0.44321 -0.0912,0.91774 0.1068,1.33357"
         style="fill:none;stroke:#0000ff;stroke-width:0.25;stroke-linecap:square"
         clip-path="url(#pbedc441413)"
         id="path258" />
    </g>
    <g
       id="line2d_84">
      <path
         d="m 402.6831,309.8935 c -14.60474,4.56442 -29.18384,9.72511 -42.47079,17.41608 -4.79105,2.97917 -10.24636,6.48242 -11.80555,12.25118 -0.09,0.52062 -0.0885,1.0952 0.1693,1.57149"
         style="fill:none;stroke:#0000ff;stroke-width:0.25;stroke-linecap:square"
         clip-path="url(#pbedc441413)"
         id="path261" />
    </g>
    <g
       id="line2d_85">
      <path
         d="m 395.58025,308.98203 c -14.47511,4.40953 -28.93722,9.4047 -42.10733,16.96218 -4.74935,2.93991 -10.28897,6.44352 -11.53934,12.28909 -0.0601,0.52798 -0.0115,1.10164 0.27624,1.56217"
         style="fill:none;stroke:#0000ff;stroke-width:0.25;stroke-linecap:square"
         clip-path="url(#pbedc441413)"
         id="path264" />
    </g>
    <g
       id="line2d_86">
      <path
         d="m 388.72937,309.07668 c -14.27148,4.27428 -28.53693,9.1172 -41.53493,16.50375 -4.63019,2.84184 -10.03025,6.22135 -11.23271,11.92374 -0.0556,0.62411 -0.0182,1.30315 0.3594,1.83041"
         style="fill:none;stroke:#0000ff;stroke-width:0.25;stroke-linecap:square"
         clip-path="url(#pbedc441413)"
         id="path267" />
    </g>
    <g
       id="line2d_87">
      <path
         d="m 382.19815,310.17976 c -14.08041,4.19029 -28.17131,8.91083 -40.99383,16.18973 -4.44606,2.73928 -9.75163,6.02473 -10.67511,11.60295 -0.0251,0.61624 0.0605,1.27734 0.46117,1.77206"
         style="fill:none;stroke:#0000ff;stroke-width:0.25;stroke-linecap:square"
         clip-path="url(#pbedc441413)"
         id="path270" />
    </g>
    <g
       id="line2d_88">
      <path
         d="m 376.04904,312.2838 c -13.80292,4.11682 -27.62625,8.72282 -40.20216,15.85391 -4.23359,2.6225 -9.4214,5.7789 -10.09731,11.1811 0.003,0.59976 0.13197,1.23281 0.54809,1.689"
         style="fill:none;stroke:#0000ff;stroke-width:0.25;stroke-linecap:square"
         clip-path="url(#pbedc441413)"
         id="path273" />
    </g>
    <g
       id="line2d_89">
      <path
         d="m 370.33825,315.37186 c -13.43027,4.04765 -26.88381,8.54381 -39.13375,15.48104 -3.95592,2.46564 -8.87173,5.38986 -9.49437,10.46042 -0.023,0.63621 0.14602,1.32159 0.61201,1.78061"
         style="fill:none;stroke:#0000ff;stroke-width:0.25;stroke-linecap:square"
         clip-path="url(#pbedc441413)"
         id="path276" />
    </g>
    <g
       id="line2d_90">
      <path
         d="m 365.11445,319.41807 c -13.13273,4.05227 -26.32535,8.46254 -38.27572,15.36181 -3.5558,2.27154 -8.1171,5.04206 -8.36214,9.72474 0.049,0.5417 0.24547,1.09103 0.6671,1.45456"
         style="fill:none;stroke:#0000ff;stroke-width:0.25;stroke-linecap:square"
         clip-path="url(#pbedc441413)"
         id="path279" />
    </g>
    <g
       id="line2d_91">
      <path
         d="m 360.41721,324.38854 c -12.60484,3.99946 -25.28058,8.2908 -36.75622,14.96894 -3.20193,2.08595 -7.40495,4.60564 -7.5097,8.87909 0.0638,0.50072 0.28616,0.99623 0.69536,1.30754"
         style="fill:none;stroke:#0000ff;stroke-width:0.25;stroke-linecap:square"
         clip-path="url(#pbedc441413)"
         id="path282" />
    </g>
    <g
       id="line2d_92">
      <path
         d="m 356.27484,330.24273 c -12.02507,3.9562 -24.14857,8.11291 -35.07479,14.61085 -2.74745,1.83251 -6.39024,4.06878 -6.3795,7.7743 0.0741,0.4543 0.3126,0.88575 0.70007,1.14423"
         style="fill:none;stroke:#0000ff;stroke-width:0.25;stroke-linecap:square"
         clip-path="url(#pbedc441413)"
         id="path285" />
    </g>
    <g
       id="line2d_93">
      <path
         d="m 352.70068,336.93581 c -11.28702,3.87048 -22.69563,7.85536 -32.9292,14.09261 -2.24629,1.57719 -5.59963,3.65667 -5.0918,6.82938 0.11391,0.2878 0.32837,0.53026 0.59393,0.68651"
         style="fill:none;stroke:#0000ff;stroke-width:0.25;stroke-linecap:square"
         clip-path="url(#pbedc441413)"
         id="path288" />
    </g>
    <g
       id="line2d_94">
      <path
         d="m 349.68611,344.42315 c -10.34647,3.73013 -20.8613,7.45107 -30.2054,13.35278 -1.71906,1.27647 -4.53309,3.12851 -3.66695,5.5915 0.11257,0.15421 0.26596,0.27518 0.43553,0.36061"
         style="fill:none;stroke:#0000ff;stroke-width:0.25;stroke-linecap:square"
         clip-path="url(#pbedc441413)"
         id="path291" />
    </g>
    <g
       id="line2d_95">
      <path
         d="m 347.18352,352.67062 c -9.11438,3.47634 -18.45709,6.80569 -26.62406,12.24115 -1.01298,0.79669 -3.63954,2.96091 -1.88351,4.21777"
         style="fill:none;stroke:#0000ff;stroke-width:0.25;stroke-linecap:square"
         clip-path="url(#pbedc441413)"
         id="path294" />
    </g>
    <g
       id="line2d_96">
      <path
         d="m 345.05093,361.6873 c -7.23612,2.92996 -14.74192,5.60465 -21.15948,10.13619 -0.61138,0.51532 -2.07852,1.97387 -0.85659,2.57482"
         style="fill:none;stroke:#0000ff;stroke-width:0.25;stroke-linecap:square"
         clip-path="url(#pbedc441413)"
         id="path297" />
    </g>
    <g
       id="line2d_97">
      <path
         d="m 465.96009,456.91597 c -3.62014,-3.71102 -6.92727,-7.67749 -9.81262,-11.98818 -10.84564,-16.15658 -21.31214,-32.63174 -33.78578,-47.61333 -13.62335,-16.48168 -28.98865,-31.79197 -46.9628,-43.50882 -9.08514,-5.8303 -18.88382,-10.90571 -29.48865,-13.23314 -6.60071,-1.52844 -13.77054,-1.83042 -20.1485,0.7165 -3.62076,1.56121 -6.75434,4.19712 -8.57739,7.72797 -1.99873,4.01515 -2.35766,8.75875 -1.23908,13.09656 0.47869,2.65724 1.83124,5.14932 3.11661,7.48228 1.32439,1.60079 2.64879,3.20157 3.97318,4.80235"
         style="fill:none;stroke:#000000;stroke-width:0.8;stroke-dasharray:2.96, 1.28;stroke-dashoffset:0"
         clip-path="url(#pbedc441413)"
         id="path300" />
    </g>
    <g
       id="line2d_98">
      <path
         d="m 471.46406,453.73825 c -6.84892,-12.09983 -12.23879,-24.97053 -19.32461,-36.94684 -12.2166,-21.35656 -27.31819,-41.2193 -45.70048,-57.65079 -10.87542,-9.50782 -22.89,-17.99748 -36.42476,-23.25889 -7.03506,-2.61133 -14.54893,-4.47031 -22.09625,-3.95572 -5.16706,0.29661 -10.39516,1.82948 -14.51123,5.025 -3.5424,2.59726 -5.99836,6.37017 -7.48893,10.4626 -1.53322,4.94074 -1.83059,10.30843 -0.55484,15.34969 0.3633,3.03865 2.08908,5.6426 3.17611,8.45714"
         style="fill:none;stroke:#008000;stroke-width:0.8;stroke-dasharray:2.96, 1.28;stroke-dashoffset:0"
         clip-path="url(#pbedc441413)"
         id="path303" />
    </g>
    <g
       id="line2d_99">
      <path
         d="m 487.97596,444.2051 c 0.70279,-5.50306 1.38226,-11.00743 1.08613,-16.56623 -0.0966,-7.03175 -1.18869,-14.01696 -2.64247,-20.88921 -2.26359,-10.03337 -5.72067,-19.77891 -10.08344,-29.09151 -4.99791,-10.50573 -11.12626,-20.49456 -18.38252,-29.59401 -7.17723,-9.06797 -15.47468,-17.26752 -24.82421,-24.08898 -6.85001,-4.91027 -14.28983,-9.0395 -22.26203,-11.82527 -6.66262,-2.21132 -13.69341,-3.51328 -20.73445,-3.09256 -5.1265,0.27073 -10.20886,1.54331 -14.88261,3.6584 -5.1225,2.46152 -9.74344,5.91682 -13.46196,10.22191 -4.08699,4.50801 -7.18197,9.86108 -9.65291,15.40199 -3.29456,7.47381 -5.30107,15.40112 -7.08456,23.34772"
         style="fill:none;stroke:#000000;stroke-width:0.8;stroke-dasharray:2.96, 1.28;stroke-dashoffset:0"
         clip-path="url(#pbedc441413)"
         id="path306" />
    </g>
    <g
       id="line2d_100">
      <path
         d="m 471.46406,469.38322 c -4.71216,2.54636 -10.2359,2.72751 -15.39832,1.7059 -13.38716,-2.83848 -25.78657,-8.94728 -38.0447,-14.84447 -23.90286,-11.99655 -47.17519,-25.31992 -69.34152,-40.29563 -7.63659,-5.45923 -15.65437,-10.76259 -21.6512,-18.08062 -1.93916,-2.29919 -3.59107,-5.86712 -1.39333,-8.53158 0.73392,-0.99211 1.99081,-1.62487 2.90408,-2.47141"
         style="fill:none;stroke:#008000;stroke-width:0.8;stroke-dasharray:2.96, 1.28;stroke-dashoffset:0"
         clip-path="url(#pbedc441413)"
         id="path309" />
    </g>
    <g
       id="line2d_101">
      <path
         d="M 482.47199,463.02779 C 434.83031,435.52186 387.18864,408.01592 339.54696,380.50999"
         style="fill:none;stroke:#ff0000;stroke-width:0.8;stroke-dasharray:2.96, 1.28;stroke-dashoffset:0"
         clip-path="url(#pbedc441413)"
         id="path312" />
    </g>
    <g
       id="line2d_102">
      <path
         d="m 578.7914,391.77278 c -0.3084,-9.78197 -1.78119,-19.51429 -4.39151,-28.9449 -3.65062,-13.36083 -9.14879,-26.2009 -16.08932,-38.17764 -6.80952,-11.84721 -15.01195,-22.92756 -24.55502,-32.715 -8.2675,-8.55924 -17.61723,-16.16381 -28.03874,-21.94383 -6.88654,-3.7819 -14.27918,-6.80124 -22.03767,-8.16255 -5.75126,-1.10307 -11.67611,-1.08479 -17.4199,0.051 -5.453,1.30459 -10.70314,3.70185 -14.92079,7.45135 -3.93214,3.25208 -6.94422,7.5164 -9.29939,12.01454 -3.25503,6.56566 -5.00087,13.77446 -5.73922,21.03782 -0.14449,2.29049 -0.28898,4.58097 -0.43347,6.87146"
         style="fill:none;stroke:#008000;stroke-width:0.8;stroke-dasharray:2.96, 1.28;stroke-dashoffset:0"
         clip-path="url(#pbedc441413)"
         id="path315" />
    </g>
    <g
       id="line2d_103">
      <path
         d="m 578.7914,391.77278 c -0.3084,-9.78197 -1.78119,-19.51429 -4.39151,-28.9449 -3.65062,-13.36083 -9.14879,-26.2009 -16.08932,-38.17764 -6.80952,-11.84721 -15.01195,-22.92756 -24.55502,-32.715 -8.2675,-8.55924 -17.61723,-16.16381 -28.03874,-21.94383 -6.88654,-3.7819 -14.27918,-6.80124 -22.03767,-8.16255 -5.75126,-1.10307 -11.67611,-1.08479 -17.4199,0.051 -5.453,1.30459 -10.70314,3.70185 -14.92079,7.45135 -3.93214,3.25208 -6.94422,7.5164 -9.29939,12.01454 -3.25503,6.56566 -5.00087,13.77446 -5.73922,21.03782 -0.14449,2.29049 -0.28898,4.58097 -0.43347,6.87146"
         style="fill:none;stroke:#ff0000;stroke-width:0.8;stroke-dasharray:2.96, 1.28;stroke-dashoffset:0"
         clip-path="url(#pbedc441413)"
         id="path318" />
    </g>
    <g
       id="Poly3DCollection_1">
      <path
         d="m 465.96009,472.56094 c -4.52954,2.36512 -9.40767,4.15674 -14.55644,4.39122 -11.4595,0.47997 -22.55226,-3.36621 -33.1253,-7.38429 -22.17903,-8.83551 -43.19594,-20.37327 -63.44837,-32.95962 -11.70446,-7.58751 -23.57764,-15.27716 -33.30825,-25.36811 -3.12711,-3.47722 -6.62613,-7.66096 -6.15131,-12.61841 0.7444,-3.88266 4.18032,-6.22207 7.24968,-8.28299 7.53024,-4.42499 15.10048,-8.84355 22.72061,-13.0938 4.72624,-1.62616 9.60602,0.81072 14.04511,2.34366 17.16584,7.13955 33.37643,16.33863 49.64374,25.28696 22.68787,12.85535 45.34253,25.86 66.90506,40.55135 4.45189,3.3754 9.53355,6.35414 12.70908,11.05112 1.5704,2.12016 -1.02746,3.8034 -2.7646,4.58264 -6.63967,3.83343 -13.27934,7.66685 -19.91901,11.50027 z"
         style="fill-opacity:0.25"
         clip-path="url(#pbedc441413)"
         id="path321" />
    </g>
  </g>
  <defs
     id="defs329">
    <clipPath
       id="pbedc441413">
      <rect
         id="rect326"
         y="0"
         x="0"
         width="720"
         height="720" />
    </clipPath>
  </defs>
</svg>
