<?xml version="1.0" encoding="UTF-8" standalone="no"?>
<svg
   xmlns:dc="http://purl.org/dc/elements/1.1/"
   xmlns:cc="http://creativecommons.org/ns#"
   xmlns:rdf="http://www.w3.org/1999/02/22-rdf-syntax-ns#"
   xmlns:svg="http://www.w3.org/2000/svg"
   xmlns="http://www.w3.org/2000/svg"
   xmlns:sodipodi="http://sodipodi.sourceforge.net/DTD/sodipodi-0.dtd"
   xmlns:inkscape="http://www.inkscape.org/namespaces/inkscape"
   inkscape:version="1.0 (4035a4fb49, 2020-05-01)"
   sodipodi:docname="flat1_canopy_airfoils.svg"
   id="svg331"
   width="441.41013pt"
   viewBox="0 0 441.41013 414.19595"
   version="1.1"
   height="414.19595pt">
  <metadata
     id="metadata335">
    <rdf:RDF>
      <cc:Work
         rdf:about="">
        <dc:format>image/svg+xml</dc:format>
        <dc:type
           rdf:resource="http://purl.org/dc/dcmitype/StillImage" />
      </cc:Work>
    </rdf:RDF>
  </metadata>
  <sodipodi:namedview
     inkscape:current-layer="svg331"
     inkscape:window-maximized="0"
     inkscape:window-y="27"
     inkscape:window-x="0"
     inkscape:cy="310.28839"
     inkscape:cx="207.91423"
     inkscape:zoom="1.06875"
     showgrid="false"
     id="namedview333"
     inkscape:window-height="1198"
     inkscape:window-width="1396"
     inkscape:pageshadow="2"
     inkscape:pageopacity="0"
     guidetolerance="10"
     gridtolerance="10"
     objecttolerance="10"
     borderopacity="1"
     bordercolor="#666666"
     pagecolor="#ffffff" />
  <defs
     id="defs4">
    <style
       id="style2"
       type="text/css">
*{stroke-linecap:butt;stroke-linejoin:round;}
  </style>
  </defs>
  <g
     transform="translate(-204.06433,-127.28371)"
     id="axes_1">
    <g
       id="line2d_1">
      <path
         d="M 644.92804,445.60176 C 553.19527,392.63982 461.4625,339.67788 369.72973,286.71594"
         style="fill:none;stroke:#d3d3d3;stroke-width:0.8;stroke-linecap:square"
         clip-path="url(#pb86e6cdb21)"
         id="path12" />
    </g>
    <g
       id="line2d_2">
      <path
         d="M 617.40821,461.49034 C 525.67544,408.5284 433.94267,355.56646 342.2099,302.60452"
         style="fill:none;stroke:#d3d3d3;stroke-width:0.8;stroke-linecap:square"
         clip-path="url(#pb86e6cdb21)"
         id="path15" />
    </g>
    <g
       id="line2d_3">
      <path
         d="M 589.88838,477.37893 C 498.15561,424.41699 406.42284,371.45505 314.69007,318.49311"
         style="fill:none;stroke:#d3d3d3;stroke-width:0.8;stroke-linecap:square"
         clip-path="url(#pb86e6cdb21)"
         id="path18" />
    </g>
    <g
       id="line2d_4">
      <path
         d="M 562.36855,493.26751 C 470.63578,440.30557 378.903,387.34363 287.17023,334.38169"
         style="fill:none;stroke:#d3d3d3;stroke-width:0.8;stroke-linecap:square"
         clip-path="url(#pb86e6cdb21)"
         id="path21" />
    </g>
    <g
       id="line2d_5">
      <path
         d="M 534.84872,509.15609 C 443.11595,456.19415 351.38317,403.23221 259.6504,350.27027"
         style="fill:none;stroke:#d3d3d3;stroke-width:0.8;stroke-linecap:square"
         clip-path="url(#pb86e6cdb21)"
         id="path24" />
    </g>
    <g
       id="line2d_6">
      <path
         d="M 507.32889,525.04467 C 415.59612,472.08273 323.86334,419.12079 232.13057,366.15885"
         style="fill:none;stroke:#d3d3d3;stroke-width:0.8;stroke-linecap:square"
         clip-path="url(#pb86e6cdb21)"
         id="path27" />
    </g>
    <g
       id="line2d_7">
      <path
         d="M 479.80906,540.93326 C 388.07629,487.97132 296.34351,435.00937 204.61074,382.04743"
         style="fill:none;stroke:#d3d3d3;stroke-width:0.8;stroke-linecap:square"
         clip-path="url(#pb86e6cdb21)"
         id="path30" />
    </g>
    <g
       id="line2d_8">
      <path
         d="m 644.92804,445.60176 c -55.03966,31.77717 -110.07932,63.55433 -165.11898,95.3315"
         style="fill:none;stroke:#d3d3d3;stroke-width:0.8;stroke-linecap:square"
         clip-path="url(#pb86e6cdb21)"
         id="path33" />
    </g>
    <g
       id="line2d_9">
      <path
         d="m 644.92804,286.71594 c 0,52.96194 0,105.92388 0,158.88582"
         style="fill:none;stroke:#d3d3d3;stroke-width:0.8;stroke-linecap:square"
         clip-path="url(#pb86e6cdb21)"
         id="path36" />
    </g>
    <g
       id="line2d_10">
      <path
         d="m 617.40821,429.71318 c -55.03966,31.77716 -110.07933,63.55433 -165.11899,95.33149"
         style="fill:none;stroke:#d3d3d3;stroke-width:0.8;stroke-linecap:square"
         clip-path="url(#pb86e6cdb21)"
         id="path39" />
    </g>
    <g
       id="line2d_11">
      <path
         d="m 617.40821,270.82736 c 0,52.96194 0,105.92388 0,158.88582"
         style="fill:none;stroke:#d3d3d3;stroke-width:0.8;stroke-linecap:square"
         clip-path="url(#pb86e6cdb21)"
         id="path42" />
    </g>
    <g
       id="line2d_12">
      <path
         d="m 589.88838,413.8246 c -55.03966,31.77716 -110.07933,63.55433 -165.11899,95.33149"
         style="fill:none;stroke:#d3d3d3;stroke-width:0.8;stroke-linecap:square"
         clip-path="url(#pb86e6cdb21)"
         id="path45" />
    </g>
    <g
       id="line2d_13">
      <path
         d="m 589.88838,254.93878 c 0,52.96194 0,105.92388 0,158.88582"
         style="fill:none;stroke:#d3d3d3;stroke-width:0.8;stroke-linecap:square"
         clip-path="url(#pb86e6cdb21)"
         id="path48" />
    </g>
    <g
       id="line2d_14">
      <path
         d="m 562.36855,397.93602 c -55.03966,31.77716 -110.07933,63.55433 -165.11899,95.33149"
         style="fill:none;stroke:#d3d3d3;stroke-width:0.8;stroke-linecap:square"
         clip-path="url(#pb86e6cdb21)"
         id="path51" />
    </g>
    <g
       id="line2d_15">
      <path
         d="m 562.36855,239.05019 c 0,52.96194 0,105.92389 0,158.88583"
         style="fill:none;stroke:#d3d3d3;stroke-width:0.8;stroke-linecap:square"
         clip-path="url(#pb86e6cdb21)"
         id="path54" />
    </g>
    <g
       id="line2d_16">
      <path
         d="m 534.84872,382.04743 c -55.03966,31.77717 -110.07933,63.55433 -165.11899,95.3315"
         style="fill:none;stroke:#d3d3d3;stroke-width:0.8;stroke-linecap:square"
         clip-path="url(#pb86e6cdb21)"
         id="path57" />
    </g>
    <g
       id="line2d_17">
      <path
         d="m 534.84872,223.16161 c 0,52.96194 0,105.92388 0,158.88582"
         style="fill:none;stroke:#d3d3d3;stroke-width:0.8;stroke-linecap:square"
         clip-path="url(#pb86e6cdb21)"
         id="path60" />
    </g>
    <g
       id="line2d_18">
      <path
         d="M 507.32889,366.15885 C 452.28923,397.93601 397.24956,429.71318 342.2099,461.49034"
         style="fill:none;stroke:#d3d3d3;stroke-width:0.8;stroke-linecap:square"
         clip-path="url(#pb86e6cdb21)"
         id="path63" />
    </g>
    <g
       id="line2d_19">
      <path
         d="m 507.32889,207.27303 c 0,52.96194 0,105.92388 0,158.88582"
         style="fill:none;stroke:#d3d3d3;stroke-width:0.8;stroke-linecap:square"
         clip-path="url(#pb86e6cdb21)"
         id="path66" />
    </g>
    <g
       id="line2d_20">
      <path
         d="M 479.80906,350.27027 C 424.7694,382.04743 369.72973,413.8246 314.69007,445.60176"
         style="fill:none;stroke:#d3d3d3;stroke-width:0.8;stroke-linecap:square"
         clip-path="url(#pb86e6cdb21)"
         id="path69" />
    </g>
    <g
       id="line2d_21">
      <path
         d="m 479.80906,191.38445 c 0,52.96194 0,105.92388 0,158.88582"
         style="fill:none;stroke:#d3d3d3;stroke-width:0.8;stroke-linecap:square"
         clip-path="url(#pb86e6cdb21)"
         id="path72" />
    </g>
    <g
       id="line2d_22">
      <path
         d="m 452.28922,334.38169 c -55.03966,31.77716 -110.07933,63.55433 -165.11899,95.33149"
         style="fill:none;stroke:#d3d3d3;stroke-width:0.8;stroke-linecap:square"
         clip-path="url(#pb86e6cdb21)"
         id="path75" />
    </g>
    <g
       id="line2d_23">
      <path
         d="m 452.28922,175.49587 c 0,52.96194 0,105.92388 0,158.88582"
         style="fill:none;stroke:#d3d3d3;stroke-width:0.8;stroke-linecap:square"
         clip-path="url(#pb86e6cdb21)"
         id="path78" />
    </g>
    <g
       id="line2d_24">
      <path
         d="M 424.76939,318.49311 C 369.72973,350.27027 314.69006,382.04744 259.6504,413.8246"
         style="fill:none;stroke:#d3d3d3;stroke-width:0.8;stroke-linecap:square"
         clip-path="url(#pb86e6cdb21)"
         id="path81" />
    </g>
    <g
       id="line2d_25">
      <path
         d="m 424.76939,159.60728 c 0,52.96194 0,105.92389 0,158.88583"
         style="fill:none;stroke:#d3d3d3;stroke-width:0.8;stroke-linecap:square"
         clip-path="url(#pb86e6cdb21)"
         id="path84" />
    </g>
    <g
       id="line2d_26">
      <path
         d="m 397.24956,302.60452 c -55.03966,31.77717 -110.07933,63.55433 -165.11899,95.3315"
         style="fill:none;stroke:#d3d3d3;stroke-width:0.8;stroke-linecap:square"
         clip-path="url(#pb86e6cdb21)"
         id="path87" />
    </g>
    <g
       id="line2d_27">
      <path
         d="m 397.24956,143.7187 c 0,52.96194 0,105.92388 0,158.88582"
         style="fill:none;stroke:#d3d3d3;stroke-width:0.8;stroke-linecap:square"
         clip-path="url(#pb86e6cdb21)"
         id="path90" />
    </g>
    <g
       id="line2d_28">
      <path
         d="M 369.72973,286.71594 C 314.69007,318.4931 259.6504,350.27027 204.61074,382.04743"
         style="fill:none;stroke:#d3d3d3;stroke-width:0.8;stroke-linecap:square"
         clip-path="url(#pb86e6cdb21)"
         id="path93" />
    </g>
    <g
       id="line2d_29">
      <path
         d="m 369.72973,127.83012 c 0,52.96194 0,105.92388 0,158.88582"
         style="fill:none;stroke:#d3d3d3;stroke-width:0.8;stroke-linecap:square"
         clip-path="url(#pb86e6cdb21)"
         id="path96" />
    </g>
    <g
       id="line2d_30">
      <path
         d="M 644.92804,286.71594 C 553.19527,233.754 461.4625,180.79206 369.72973,127.83012"
         style="fill:none;stroke:#d3d3d3;stroke-width:0.8;stroke-linecap:square"
         clip-path="url(#pb86e6cdb21)"
         id="path99" />
    </g>
    <g
       id="line2d_31">
      <path
         d="M 644.92804,318.49311 C 553.19527,265.53117 461.4625,212.56922 369.72973,159.60728"
         style="fill:none;stroke:#d3d3d3;stroke-width:0.8;stroke-linecap:square"
         clip-path="url(#pb86e6cdb21)"
         id="path102" />
    </g>
    <g
       id="line2d_32">
      <path
         d="M 644.92804,350.27027 C 553.19527,297.30833 461.4625,244.34639 369.72973,191.38445"
         style="fill:none;stroke:#d3d3d3;stroke-width:0.8;stroke-linecap:square"
         clip-path="url(#pb86e6cdb21)"
         id="path105" />
    </g>
    <g
       id="line2d_33">
      <path
         d="M 644.92804,382.04743 C 553.19527,329.08549 461.4625,276.12355 369.72973,223.16161"
         style="fill:none;stroke:#d3d3d3;stroke-width:0.8;stroke-linecap:square"
         clip-path="url(#pb86e6cdb21)"
         id="path108" />
    </g>
    <g
       id="line2d_34">
      <path
         d="M 644.92804,413.8246 C 553.19527,360.86266 461.4625,307.90072 369.72973,254.93878"
         style="fill:none;stroke:#d3d3d3;stroke-width:0.8;stroke-linecap:square"
         clip-path="url(#pb86e6cdb21)"
         id="path111" />
    </g>
    <g
       id="line2d_35">
      <path
         d="m 534.84872,382.04743 c -13.31933,9.92884 -26.82665,19.75795 -41.49884,27.61508 -4.05432,1.89771 -8.14579,4.15838 -12.61652,4.79348 -0.39699,-0.0153 -0.81626,-0.22152 -0.92457,-0.63136"
         style="fill:none;stroke:#ff0000;stroke-width:0.25;stroke-linecap:square"
         clip-path="url(#pb86e6cdb21)"
         id="path114" />
    </g>
    <g
       id="line2d_36">
      <path
         d="m 527.5101,377.81048 c -13.31933,9.92884 -26.82666,19.75794 -41.49884,27.61508 -4.05432,1.89771 -8.14579,4.15838 -12.61652,4.79347 -0.39699,-0.0153 -0.81626,-0.22152 -0.92457,-0.63136"
         style="fill:none;stroke:#ff0000;stroke-width:0.25;stroke-linecap:square"
         clip-path="url(#pb86e6cdb21)"
         id="path117" />
    </g>
    <g
       id="line2d_37">
      <path
         d="m 520.17147,373.57352 c -13.31932,9.92885 -26.82665,19.75795 -41.49883,27.61508 -4.05432,1.89771 -8.14579,4.15838 -12.61652,4.79348 -0.39699,-0.0153 -0.81626,-0.22152 -0.92457,-0.63136"
         style="fill:none;stroke:#ff0000;stroke-width:0.25;stroke-linecap:square"
         clip-path="url(#pb86e6cdb21)"
         id="path120" />
    </g>
    <g
       id="line2d_38">
      <path
         d="m 512.83285,369.33657 c -13.31933,9.92884 -26.82665,19.75794 -41.49883,27.61508 -4.05432,1.89771 -8.1458,4.15838 -12.61653,4.79347 -0.39699,-0.0153 -0.81626,-0.22153 -0.92456,-0.63136"
         style="fill:none;stroke:#ff0000;stroke-width:0.25;stroke-linecap:square"
         clip-path="url(#pb86e6cdb21)"
         id="path123" />
    </g>
    <g
       id="line2d_39">
      <path
         d="m 505.49423,365.09961 c -13.31932,9.92885 -26.82665,19.75794 -41.49883,27.61508 -4.05432,1.89771 -8.1458,4.15838 -12.61653,4.79348 -0.39699,-0.0153 -0.81627,-0.22153 -0.92457,-0.63136"
         style="fill:none;stroke:#ff0000;stroke-width:0.25;stroke-linecap:square"
         clip-path="url(#pb86e6cdb21)"
         id="path126" />
    </g>
    <g
       id="line2d_40">
      <path
         d="m 498.15561,360.86266 c -13.31933,9.92884 -26.82666,19.75794 -41.49884,27.61508 -4.05432,1.89771 -8.14579,4.15837 -12.61652,4.79347 -0.39699,-0.0153 -0.81626,-0.22152 -0.92457,-0.63136"
         style="fill:none;stroke:#ff0000;stroke-width:0.25;stroke-linecap:square"
         clip-path="url(#pb86e6cdb21)"
         id="path129" />
    </g>
    <g
       id="line2d_41">
      <path
         d="m 490.81699,356.6257 c -13.31933,9.92885 -26.82665,19.75795 -41.49884,27.61508 -4.05432,1.89771 -8.1458,4.15837 -12.61652,4.79348 -0.39699,-0.0153 -0.81626,-0.22153 -0.92457,-0.63136"
         style="fill:none;stroke:#ff0000;stroke-width:0.25;stroke-linecap:square"
         clip-path="url(#pb86e6cdb21)"
         id="path132" />
    </g>
    <g
       id="line2d_42">
      <path
         d="m 483.47837,352.38875 c -13.31934,9.92884 -26.82666,19.75794 -41.49884,27.61508 -4.05432,1.8977 -8.14579,4.15839 -12.61652,4.79346 -0.39699,-0.0153 -0.81626,-0.22152 -0.92457,-0.63136"
         style="fill:none;stroke:#ff0000;stroke-width:0.25;stroke-linecap:square"
         clip-path="url(#pb86e6cdb21)"
         id="path135" />
    </g>
    <g
       id="line2d_43">
      <path
         d="m 476.13974,348.15179 c -13.31932,9.92885 -26.82665,19.75795 -41.49883,27.61508 -4.05432,1.8977 -8.1458,4.15839 -12.61653,4.79347 -0.39699,-0.0153 -0.81626,-0.22153 -0.92456,-0.63136"
         style="fill:none;stroke:#ff0000;stroke-width:0.25;stroke-linecap:square"
         clip-path="url(#pb86e6cdb21)"
         id="path138" />
    </g>
    <g
       id="line2d_44">
      <path
         d="m 468.80112,343.91484 c -13.31933,9.92884 -26.82665,19.75793 -41.49883,27.61508 -4.05433,1.89769 -8.1458,4.15839 -12.61653,4.79346 -0.39699,-0.0153 -0.81626,-0.22152 -0.92456,-0.63136"
         style="fill:none;stroke:#ff0000;stroke-width:0.25;stroke-linecap:square"
         clip-path="url(#pb86e6cdb21)"
         id="path141" />
    </g>
    <g
       id="line2d_45">
      <path
         d="m 461.4625,339.67788 c -13.31933,9.92885 -26.82665,19.75794 -41.49883,27.61508 -4.05432,1.8977 -8.1458,4.15838 -12.61653,4.79347 -0.39699,-0.0153 -0.81626,-0.22153 -0.92457,-0.63136"
         style="fill:none;stroke:#ff0000;stroke-width:0.25;stroke-linecap:square"
         clip-path="url(#pb86e6cdb21)"
         id="path144" />
    </g>
    <g
       id="line2d_46">
      <path
         d="m 454.12388,335.44093 c -13.31934,9.92884 -26.82665,19.75794 -41.49885,27.61508 -4.05431,1.8977 -8.14578,4.15839 -12.61651,4.79346 -0.39699,-0.0153 -0.81626,-0.22152 -0.92457,-0.63136"
         style="fill:none;stroke:#ff0000;stroke-width:0.25;stroke-linecap:square"
         clip-path="url(#pb86e6cdb21)"
         id="path147" />
    </g>
    <g
       id="line2d_47">
      <path
         d="m 446.78526,331.20397 c -13.31934,9.92884 -26.82665,19.75795 -41.49884,27.61508 -4.05432,1.89771 -8.14579,4.15838 -12.61652,4.79347 -0.39699,-0.0153 -0.81626,-0.22152 -0.92457,-0.63135"
         style="fill:none;stroke:#ff0000;stroke-width:0.25;stroke-linecap:square"
         clip-path="url(#pb86e6cdb21)"
         id="path150" />
    </g>
    <g
       id="line2d_48">
      <path
         d="m 439.44664,326.96702 c -13.31934,9.92883 -26.82665,19.75795 -41.49884,27.61507 -4.05432,1.89771 -8.14579,4.15839 -12.61652,4.79347 -0.39699,-0.0153 -0.81626,-0.22152 -0.92457,-0.63136"
         style="fill:none;stroke:#ff0000;stroke-width:0.25;stroke-linecap:square"
         clip-path="url(#pb86e6cdb21)"
         id="path153" />
    </g>
    <g
       id="line2d_49">
      <path
         d="m 432.10801,322.73006 c -13.31933,9.92885 -26.82665,19.75795 -41.49883,27.61508 -4.05432,1.8977 -8.14579,4.15837 -12.61652,4.79347 -0.39699,-0.0153 -0.81626,-0.22152 -0.92457,-0.63135"
         style="fill:none;stroke:#ff0000;stroke-width:0.25;stroke-linecap:square"
         clip-path="url(#pb86e6cdb21)"
         id="path156" />
    </g>
    <g
       id="line2d_50">
      <path
         d="m 424.76939,318.49311 c -13.31933,9.92884 -26.82665,19.75793 -41.49884,27.61508 -4.05432,1.8977 -8.14579,4.15837 -12.61652,4.79347 -0.39699,-0.0153 -0.81627,-0.22153 -0.92457,-0.63136"
         style="fill:none;stroke:#ff0000;stroke-width:0.25;stroke-linecap:square"
         clip-path="url(#pb86e6cdb21)"
         id="path159" />
    </g>
    <g
       id="line2d_51">
      <path
         d="m 417.43077,314.25615 c -13.31933,9.92884 -26.82665,19.75794 -41.49883,27.61508 -4.05432,1.8977 -8.1458,4.15838 -12.61653,4.79347 -0.39698,-0.0153 -0.81627,-0.22152 -0.92457,-0.63136"
         style="fill:none;stroke:#ff0000;stroke-width:0.25;stroke-linecap:square"
         clip-path="url(#pb86e6cdb21)"
         id="path162" />
    </g>
    <g
       id="line2d_52">
      <path
         d="m 410.09215,310.0192 c -13.31934,9.92884 -26.82666,19.75794 -41.49885,27.61508 -4.05431,1.89769 -8.14578,4.15838 -12.61651,4.79347 -0.39699,-0.0153 -0.81626,-0.22152 -0.92457,-0.63136"
         style="fill:none;stroke:#ff0000;stroke-width:0.25;stroke-linecap:square"
         clip-path="url(#pb86e6cdb21)"
         id="path165" />
    </g>
    <g
       id="line2d_53">
      <path
         d="m 402.75353,305.78224 c -13.31934,9.92884 -26.82665,19.75795 -41.49884,27.61508 -4.05432,1.89771 -8.14579,4.15838 -12.61652,4.79347 -0.39699,-0.0153 -0.81626,-0.22152 -0.92457,-0.63136"
         style="fill:none;stroke:#ff0000;stroke-width:0.25;stroke-linecap:square"
         clip-path="url(#pb86e6cdb21)"
         id="path168" />
    </g>
    <g
       id="line2d_54">
      <path
         d="m 395.41491,301.54528 c -13.31933,9.92884 -26.82665,19.75795 -41.49884,27.61508 -4.05432,1.89771 -8.14579,4.15838 -12.61652,4.79348 -0.39699,-0.0153 -0.81626,-0.22152 -0.92457,-0.63136"
         style="fill:none;stroke:#ff0000;stroke-width:0.25;stroke-linecap:square"
         clip-path="url(#pb86e6cdb21)"
         id="path171" />
    </g>
    <g
       id="line2d_55">
      <path
         d="m 388.07628,297.30833 c -13.31933,9.92884 -26.82665,19.75795 -41.49883,27.61508 -4.05432,1.8977 -8.1458,4.15838 -12.61653,4.79347 -0.39699,-0.0153 -0.81626,-0.22153 -0.92456,-0.63136"
         style="fill:none;stroke:#ff0000;stroke-width:0.25;stroke-linecap:square"
         clip-path="url(#pb86e6cdb21)"
         id="path174" />
    </g>
    <g
       id="line2d_56">
      <path
         d="m 380.73766,293.07137 c -13.31933,9.92885 -26.82664,19.75795 -41.49883,27.61508 -4.05432,1.89771 -8.1458,4.15838 -12.61653,4.79348 -0.39699,-0.0153 -0.81627,-0.22153 -0.92457,-0.63136"
         style="fill:none;stroke:#ff0000;stroke-width:0.25;stroke-linecap:square"
         clip-path="url(#pb86e6cdb21)"
         id="path177" />
    </g>
    <g
       id="line2d_57">
      <path
         d="m 373.39904,288.83442 c -13.31933,9.92884 -26.82665,19.75794 -41.49883,27.61508 -4.05432,1.8977 -8.1458,4.15838 -12.61653,4.79347 -0.39699,-0.0153 -0.81627,-0.22152 -0.92457,-0.63136"
         style="fill:none;stroke:#ff0000;stroke-width:0.25;stroke-linecap:square"
         clip-path="url(#pb86e6cdb21)"
         id="path180" />
    </g>
    <g
       id="line2d_58">
      <path
         d="m 366.06042,284.59746 c -13.31933,9.92885 -26.82665,19.75795 -41.49884,27.61508 -4.05432,1.89771 -8.14579,4.15838 -12.61652,4.79348 -0.39699,-0.0153 -0.81626,-0.22152 -0.92457,-0.63136"
         style="fill:none;stroke:#ff0000;stroke-width:0.25;stroke-linecap:square"
         clip-path="url(#pb86e6cdb21)"
         id="path183" />
    </g>
    <g
       id="line2d_59">
      <path
         d="m 358.7218,280.36051 c -13.31933,9.92884 -26.82666,19.75794 -41.49884,27.61508 -4.05432,1.89771 -8.14579,4.15838 -12.61652,4.79347 -0.39699,-0.0153 -0.81626,-0.22152 -0.92457,-0.63136"
         style="fill:none;stroke:#ff0000;stroke-width:0.25;stroke-linecap:square"
         clip-path="url(#pb86e6cdb21)"
         id="path186" />
    </g>
    <g
       id="line2d_60">
      <path
         d="m 351.38317,276.12355 c -13.31932,9.92885 -26.82665,19.75795 -41.49883,27.61508 -4.05432,1.89771 -8.14579,4.15838 -12.61652,4.79348 -0.39699,-0.0153 -0.81626,-0.22152 -0.92457,-0.63136"
         style="fill:none;stroke:#ff0000;stroke-width:0.25;stroke-linecap:square"
         clip-path="url(#pb86e6cdb21)"
         id="path189" />
    </g>
    <g
       id="line2d_61">
      <path
         d="m 344.04455,271.8866 c -13.31933,9.92885 -26.82665,19.75794 -41.49883,27.61508 -4.05432,1.89771 -8.1458,4.15837 -12.61653,4.79347 -0.39699,-0.0153 -0.81626,-0.22152 -0.92456,-0.63136"
         style="fill:none;stroke:#ff0000;stroke-width:0.25;stroke-linecap:square"
         clip-path="url(#pb86e6cdb21)"
         id="path192" />
    </g>
    <g
       id="line2d_62">
      <path
         d="m 336.70593,267.64964 c -13.31932,9.92885 -26.82665,19.75794 -41.49883,27.61508 -4.05432,1.89771 -8.1458,4.15838 -12.61653,4.79348 -0.39699,-0.0153 -0.81626,-0.22152 -0.92456,-0.63136"
         style="fill:none;stroke:#ff0000;stroke-width:0.25;stroke-linecap:square"
         clip-path="url(#pb86e6cdb21)"
         id="path195" />
    </g>
    <g
       id="line2d_63">
      <path
         d="m 329.36731,263.41269 c -13.31933,9.92884 -26.82666,19.75794 -41.49884,27.61508 -4.05432,1.89771 -8.1458,4.15837 -12.61652,4.79347 -0.39699,-0.0153 -0.81626,-0.22152 -0.92457,-0.63136"
         style="fill:none;stroke:#ff0000;stroke-width:0.25;stroke-linecap:square"
         clip-path="url(#pb86e6cdb21)"
         id="path198" />
    </g>
    <g
       id="line2d_64">
      <path
         d="m 322.02869,259.17573 c -13.31933,9.92884 -26.82665,19.75795 -41.49884,27.61508 -4.05432,1.89771 -8.1458,4.15837 -12.61652,4.79348 -0.39699,-0.0153 -0.81626,-0.22153 -0.92457,-0.63136"
         style="fill:none;stroke:#ff0000;stroke-width:0.25;stroke-linecap:square"
         clip-path="url(#pb86e6cdb21)"
         id="path201" />
    </g>
    <g
       id="line2d_65">
      <path
         d="m 314.69007,254.93878 c -13.31934,9.92884 -26.82666,19.75794 -41.49884,27.61508 -4.05432,1.8977 -8.14579,4.15837 -12.61652,4.79347 -0.39699,-0.0153 -0.81626,-0.22152 -0.92457,-0.63136"
         style="fill:none;stroke:#ff0000;stroke-width:0.25;stroke-linecap:square"
         clip-path="url(#pb86e6cdb21)"
         id="path204" />
    </g>
    <g
       id="line2d_66">
      <path
         d="m 534.84872,382.04743 c -15.01252,5.33271 -29.98438,11.19659 -43.63634,19.49921 -4.46885,2.94813 -9.44469,6.23664 -11.41223,11.44365 -0.0512,0.27379 -0.0741,0.56418 0.009,0.83428"
         style="fill:none;stroke:#0000ff;stroke-width:0.25;stroke-linecap:square"
         clip-path="url(#pb86e6cdb21)"
         id="path207" />
    </g>
    <g
       id="line2d_67">
      <path
         d="m 527.5101,377.81048 c -15.01252,5.33271 -29.98439,11.19658 -43.63634,19.49921 -4.46885,2.94812 -9.44469,6.23663 -11.41223,11.44365 -0.0512,0.27376 -0.0741,0.56418 0.009,0.83427"
         style="fill:none;stroke:#0000ff;stroke-width:0.25;stroke-linecap:square"
         clip-path="url(#pb86e6cdb21)"
         id="path210" />
    </g>
    <g
       id="line2d_68">
      <path
         d="m 520.17147,373.57352 c -15.01252,5.33271 -29.98438,11.19659 -43.63634,19.49921 -4.46884,2.94813 -9.44468,6.23664 -11.41222,11.44365 -0.0512,0.27377 -0.0741,0.56419 0.009,0.83428"
         style="fill:none;stroke:#0000ff;stroke-width:0.25;stroke-linecap:square"
         clip-path="url(#pb86e6cdb21)"
         id="path213" />
    </g>
    <g
       id="line2d_69">
      <path
         d="m 512.83285,369.33657 c -15.01252,5.33271 -29.98439,11.19658 -43.63634,19.49921 -4.46884,2.94813 -9.4447,6.23663 -11.41222,11.44365 -0.0512,0.27376 -0.0741,0.56418 0.009,0.83427"
         style="fill:none;stroke:#0000ff;stroke-width:0.25;stroke-linecap:square"
         clip-path="url(#pb86e6cdb21)"
         id="path216" />
    </g>
    <g
       id="line2d_70">
      <path
         d="m 505.49423,365.09961 c -15.01252,5.33271 -29.98438,11.19659 -43.63634,19.49921 -4.46884,2.94814 -9.4447,6.23663 -11.41222,11.44365 -0.0512,0.27377 -0.0742,0.56419 0.009,0.83428"
         style="fill:none;stroke:#0000ff;stroke-width:0.25;stroke-linecap:square"
         clip-path="url(#pb86e6cdb21)"
         id="path219" />
    </g>
    <g
       id="line2d_71">
      <path
         d="m 498.15561,360.86266 c -15.01252,5.33271 -29.98439,11.19658 -43.63634,19.49921 -4.46886,2.94812 -9.44469,6.23664 -11.41223,11.44365 -0.0512,0.27376 -0.0741,0.56418 0.009,0.83427"
         style="fill:none;stroke:#0000ff;stroke-width:0.25;stroke-linecap:square"
         clip-path="url(#pb86e6cdb21)"
         id="path222" />
    </g>
    <g
       id="line2d_72">
      <path
         d="m 490.81699,356.6257 c -15.01252,5.33271 -29.98438,11.19659 -43.63634,19.49921 -4.46885,2.94813 -9.44469,6.23664 -11.41223,11.44365 -0.0512,0.27377 -0.0741,0.56419 0.009,0.83428"
         style="fill:none;stroke:#0000ff;stroke-width:0.25;stroke-linecap:square"
         clip-path="url(#pb86e6cdb21)"
         id="path225" />
    </g>
    <g
       id="line2d_73">
      <path
         d="m 483.47837,352.38875 c -15.01252,5.33271 -29.98439,11.19658 -43.63635,19.49921 -4.46884,2.94813 -9.44469,6.23664 -11.41222,11.44365 -0.0512,0.27376 -0.0741,0.56418 0.009,0.83427"
         style="fill:none;stroke:#0000ff;stroke-width:0.25;stroke-linecap:square"
         clip-path="url(#pb86e6cdb21)"
         id="path228" />
    </g>
    <g
       id="line2d_74">
      <path
         d="m 476.13974,348.15179 c -15.01252,5.33271 -29.98438,11.19659 -43.63634,19.49921 -4.46884,2.94813 -9.44469,6.23663 -11.41222,11.44365 -0.0512,0.27377 -0.0742,0.56419 0.009,0.83428"
         style="fill:none;stroke:#0000ff;stroke-width:0.25;stroke-linecap:square"
         clip-path="url(#pb86e6cdb21)"
         id="path231" />
    </g>
    <g
       id="line2d_75">
      <path
         d="m 468.80112,343.91484 c -15.01252,5.33271 -29.98439,11.19658 -43.63634,19.49921 -4.46885,2.94812 -9.44469,6.23663 -11.41222,11.44364 -0.0512,0.27377 -0.0742,0.56419 0.009,0.83428"
         style="fill:none;stroke:#0000ff;stroke-width:0.25;stroke-linecap:square"
         clip-path="url(#pb86e6cdb21)"
         id="path234" />
    </g>
    <g
       id="line2d_76">
      <path
         d="m 461.4625,339.67788 c -15.01252,5.33271 -29.98439,11.19659 -43.63634,19.49921 -4.46885,2.94813 -9.44469,6.23664 -11.41223,11.44365 -0.0512,0.27377 -0.0741,0.56419 0.009,0.83428"
         style="fill:none;stroke:#0000ff;stroke-width:0.25;stroke-linecap:square"
         clip-path="url(#pb86e6cdb21)"
         id="path237" />
    </g>
    <g
       id="line2d_77">
      <path
         d="m 454.12388,335.44093 c -15.01252,5.33269 -29.98438,11.19659 -43.63634,19.4992 -4.46884,2.94814 -9.44469,6.23664 -11.41223,11.44365 -0.0512,0.27377 -0.0741,0.56419 0.009,0.83428"
         style="fill:none;stroke:#0000ff;stroke-width:0.25;stroke-linecap:square"
         clip-path="url(#pb86e6cdb21)"
         id="path240" />
    </g>
    <g
       id="line2d_78">
      <path
         d="m 446.78526,331.20397 c -15.01252,5.33271 -29.98439,11.19658 -43.63634,19.49921 -4.46885,2.94813 -9.44469,6.23664 -11.41223,11.44365 -0.0512,0.27376 -0.0742,0.56418 0.009,0.83427"
         style="fill:none;stroke:#0000ff;stroke-width:0.25;stroke-linecap:square"
         clip-path="url(#pb86e6cdb21)"
         id="path243" />
    </g>
    <g
       id="line2d_79">
      <path
         d="m 439.44664,326.96702 c -15.01253,5.33269 -29.98439,11.19658 -43.63635,19.49921 -4.46884,2.94813 -9.44468,6.23663 -11.41222,11.44364 -0.0512,0.27377 -0.0742,0.56419 0.009,0.83428"
         style="fill:none;stroke:#0000ff;stroke-width:0.25;stroke-linecap:square"
         clip-path="url(#pb86e6cdb21)"
         id="path246" />
    </g>
    <g
       id="line2d_80">
      <path
         d="m 432.10801,322.73006 c -15.01252,5.33271 -29.98439,11.19658 -43.63634,19.49921 -4.46884,2.94814 -9.44469,6.23663 -11.41222,11.44365 -0.0513,0.27379 -0.0741,0.56418 0.009,0.83427"
         style="fill:none;stroke:#0000ff;stroke-width:0.25;stroke-linecap:square"
         clip-path="url(#pb86e6cdb21)"
         id="path249" />
    </g>
    <g
       id="line2d_81">
      <path
         d="m 424.76939,318.49311 c -15.01252,5.3327 -29.98439,11.19658 -43.63634,19.49921 -4.46885,2.94812 -9.44469,6.23663 -11.41222,11.44364 -0.0512,0.27377 -0.0741,0.56419 0.009,0.83428"
         style="fill:none;stroke:#0000ff;stroke-width:0.25;stroke-linecap:square"
         clip-path="url(#pb86e6cdb21)"
         id="path252" />
    </g>
    <g
       id="line2d_82">
      <path
         d="m 417.43077,314.25615 c -15.01252,5.33271 -29.98439,11.19658 -43.63634,19.49921 -4.46886,2.94812 -9.44468,6.23664 -11.41223,11.44365 -0.0512,0.27376 -0.0742,0.56418 0.009,0.83427"
         style="fill:none;stroke:#0000ff;stroke-width:0.25;stroke-linecap:square"
         clip-path="url(#pb86e6cdb21)"
         id="path255" />
    </g>
    <g
       id="line2d_83">
      <path
         d="m 410.09215,310.0192 c -15.01253,5.33269 -29.98438,11.19659 -43.63634,19.4992 -4.46885,2.94813 -9.44468,6.23664 -11.41223,11.44365 -0.0512,0.27377 -0.0742,0.56419 0.009,0.83428"
         style="fill:none;stroke:#0000ff;stroke-width:0.25;stroke-linecap:square"
         clip-path="url(#pb86e6cdb21)"
         id="path258" />
    </g>
    <g
       id="line2d_84">
      <path
         d="m 402.75353,305.78224 c -15.01252,5.33271 -29.98439,11.19658 -43.63634,19.49921 -4.46885,2.94813 -9.44469,6.23664 -11.41223,11.44365 -0.0513,0.27379 -0.0741,0.56418 0.009,0.83427"
         style="fill:none;stroke:#0000ff;stroke-width:0.25;stroke-linecap:square"
         clip-path="url(#pb86e6cdb21)"
         id="path261" />
    </g>
    <g
       id="line2d_85">
      <path
         d="m 395.41491,301.54528 c -15.01252,5.33271 -29.98439,11.19659 -43.63635,19.49921 -4.46884,2.94814 -9.44468,6.23664 -11.41222,11.44365 -0.0512,0.27377 -0.0741,0.56419 0.009,0.83428"
         style="fill:none;stroke:#0000ff;stroke-width:0.25;stroke-linecap:square"
         clip-path="url(#pb86e6cdb21)"
         id="path264" />
    </g>
    <g
       id="line2d_86">
      <path
         d="m 388.07628,297.30833 c -15.01252,5.33271 -29.98439,11.19658 -43.63634,19.49921 -4.46885,2.94813 -9.44469,6.23663 -11.41222,11.44365 -0.0512,0.27376 -0.0741,0.56418 0.009,0.83427"
         style="fill:none;stroke:#0000ff;stroke-width:0.25;stroke-linecap:square"
         clip-path="url(#pb86e6cdb21)"
         id="path267" />
    </g>
    <g
       id="line2d_87">
      <path
         d="m 380.73766,293.07137 c -15.01252,5.33271 -29.98438,11.19659 -43.63634,19.49921 -4.46884,2.94814 -9.4447,6.23663 -11.41222,11.44365 -0.0512,0.27377 -0.0741,0.56419 0.009,0.83428"
         style="fill:none;stroke:#0000ff;stroke-width:0.25;stroke-linecap:square"
         clip-path="url(#pb86e6cdb21)"
         id="path270" />
    </g>
    <g
       id="line2d_88">
      <path
         d="m 373.39904,288.83442 c -15.01252,5.33271 -29.98439,11.19658 -43.63634,19.49921 -4.46885,2.94812 -9.44469,6.23664 -11.41223,11.44365 -0.0512,0.27376 -0.0741,0.56418 0.009,0.83427"
         style="fill:none;stroke:#0000ff;stroke-width:0.25;stroke-linecap:square"
         clip-path="url(#pb86e6cdb21)"
         id="path273" />
    </g>
    <g
       id="line2d_89">
      <path
         d="m 366.06042,284.59746 c -15.01252,5.33271 -29.98438,11.19659 -43.63634,19.49921 -4.46885,2.94813 -9.44469,6.23664 -11.41223,11.44365 -0.0512,0.27377 -0.0741,0.56419 0.009,0.83428"
         style="fill:none;stroke:#0000ff;stroke-width:0.25;stroke-linecap:square"
         clip-path="url(#pb86e6cdb21)"
         id="path276" />
    </g>
    <g
       id="line2d_90">
      <path
         d="m 358.7218,280.36051 c -15.01252,5.33271 -29.98439,11.19658 -43.63634,19.49921 -4.46885,2.94812 -9.4447,6.23663 -11.41223,11.44365 -0.0512,0.27376 -0.0741,0.56418 0.009,0.83427"
         style="fill:none;stroke:#0000ff;stroke-width:0.25;stroke-linecap:square"
         clip-path="url(#pb86e6cdb21)"
         id="path279" />
    </g>
    <g
       id="line2d_91">
      <path
         d="m 351.38317,276.12355 c -15.01252,5.33271 -29.98438,11.19659 -43.63634,19.49921 -4.46884,2.94813 -9.44469,6.23664 -11.41222,11.44365 -0.0512,0.27377 -0.0741,0.56419 0.009,0.83428"
         style="fill:none;stroke:#0000ff;stroke-width:0.25;stroke-linecap:square"
         clip-path="url(#pb86e6cdb21)"
         id="path282" />
    </g>
    <g
       id="line2d_92">
      <path
         d="m 344.04455,271.8866 c -15.01252,5.33271 -29.98439,11.19658 -43.63634,19.49921 -4.46885,2.94813 -9.4447,6.23663 -11.41222,11.44365 -0.0512,0.27376 -0.0742,0.56418 0.009,0.83427"
         style="fill:none;stroke:#0000ff;stroke-width:0.25;stroke-linecap:square"
         clip-path="url(#pb86e6cdb21)"
         id="path285" />
    </g>
    <g
       id="line2d_93">
      <path
         d="m 336.70593,267.64964 c -15.01252,5.33271 -29.98438,11.19659 -43.63634,19.49921 -4.46884,2.94813 -9.44469,6.23663 -11.41222,11.44365 -0.0512,0.27377 -0.0742,0.56419 0.009,0.83428"
         style="fill:none;stroke:#0000ff;stroke-width:0.25;stroke-linecap:square"
         clip-path="url(#pb86e6cdb21)"
         id="path288" />
    </g>
    <g
       id="line2d_94">
      <path
         d="m 329.36731,263.41269 c -15.01252,5.3327 -29.98439,11.19658 -43.63634,19.49921 -4.46885,2.94812 -9.44469,6.23664 -11.41223,11.44365 -0.0512,0.27376 -0.0741,0.56418 0.009,0.83427"
         style="fill:none;stroke:#0000ff;stroke-width:0.25;stroke-linecap:square"
         clip-path="url(#pb86e6cdb21)"
         id="path291" />
    </g>
    <g
       id="line2d_95">
      <path
         d="m 322.02869,259.17573 c -15.01252,5.33271 -29.98438,11.19659 -43.63634,19.49921 -4.46885,2.94813 -9.44469,6.23664 -11.41223,11.44365 -0.0512,0.27377 -0.0741,0.56419 0.009,0.83428"
         style="fill:none;stroke:#0000ff;stroke-width:0.25;stroke-linecap:square"
         clip-path="url(#pb86e6cdb21)"
         id="path294" />
    </g>
    <g
       id="line2d_96">
      <path
         d="m 314.69007,254.93878 c -15.01252,5.3327 -29.98439,11.19658 -43.63635,19.49921 -4.46884,2.94813 -9.44469,6.23663 -11.41222,11.44365 -0.0512,0.27376 -0.0742,0.56418 0.009,0.83427"
         style="fill:none;stroke:#0000ff;stroke-width:0.25;stroke-linecap:square"
         clip-path="url(#pb86e6cdb21)"
         id="path297" />
    </g>
    <g
       id="line2d_97">
      <path
         d="M 479.80906,413.8246 C 406.42284,371.45505 333.03662,329.08549 259.6504,286.71594"
         style="fill:none;stroke:#000000;stroke-width:0.8;stroke-dasharray:2.96, 1.28;stroke-dashoffset:0"
         clip-path="url(#pb86e6cdb21)"
         id="path300" />
    </g>
    <g
       id="line2d_98">
      <path
         d="M 493.56897,405.88031 C 420.18275,363.51075 346.79654,321.1412 273.41032,278.77165"
         style="fill:none;stroke:#008000;stroke-width:0.8;stroke-dasharray:2.96, 1.28;stroke-dashoffset:0"
         clip-path="url(#pb86e6cdb21)"
         id="path303" />
    </g>
    <g
       id="line2d_99">
      <path
         d="M 534.84872,382.04743 C 461.4625,339.67789 388.07629,297.30833 314.69007,254.93878"
         style="fill:none;stroke:#000000;stroke-width:0.8;stroke-dasharray:2.96, 1.28;stroke-dashoffset:0"
         clip-path="url(#pb86e6cdb21)"
         id="path306" />
    </g>
    <g
       id="line2d_100">
      <path
         d="M 493.56897,501.2118 C 420.18275,458.84225 346.79653,416.4727 273.41032,374.10314"
         style="fill:none;stroke:#008000;stroke-width:0.8;stroke-dasharray:2.96, 1.28;stroke-dashoffset:0"
         clip-path="url(#pb86e6cdb21)"
         id="path309" />
    </g>
    <g
       id="line2d_101">
      <path
         d="M 479.80906,509.15609 C 406.42284,466.78654 333.03662,424.41699 259.6504,382.04743"
         style="fill:none;stroke:#ff0000;stroke-width:0.8;stroke-dasharray:2.96, 1.28;stroke-dashoffset:0"
         clip-path="url(#pb86e6cdb21)"
         id="path312" />
    </g>
    <g
       id="line2d_102">
      <path
         d="M 617.40821,334.38169 C 544.022,292.01213 470.63578,249.64258 397.24956,207.27303"
         style="fill:none;stroke:#008000;stroke-width:0.8;stroke-dasharray:2.96, 1.28;stroke-dashoffset:0"
         clip-path="url(#pb86e6cdb21)"
         id="path315" />
    </g>
    <g
       id="line2d_103">
      <path
         d="M 617.40821,334.38169 C 544.022,292.01213 470.63578,249.64258 397.24956,207.27303"
         style="fill:none;stroke:#ff0000;stroke-width:0.8;stroke-dasharray:2.96, 1.28;stroke-dashoffset:0"
         clip-path="url(#pb86e6cdb21)"
         id="path318" />
    </g>
    <g
       id="Poly3DCollection_1">
      <path
         d="M 479.80906,509.15609 C 406.42284,466.78654 333.03662,424.41699 259.6504,382.04743 c 18.34656,-10.59239 36.69311,-21.18477 55.03967,-31.77716 73.38621,42.36956 146.77244,84.7391 220.15865,127.10866 -18.34655,10.59239 -36.69311,21.18477 -55.03966,31.77716 z"
         style="fill-opacity:0.25"
         clip-path="url(#pb86e6cdb21)"
         id="path321" />
    </g>
  </g>
  <defs
     id="defs329">
    <clipPath
       id="pb86e6cdb21">
      <rect
         id="rect326"
         y="0"
         x="0"
         width="720"
         height="720" />
    </clipPath>
  </defs>
</svg>
