<?xml version="1.0" encoding="utf-8" standalone="no"?>
<!DOCTYPE svg PUBLIC "-//W3C//DTD SVG 1.1//EN"
  "http://www.w3.org/Graphics/SVG/1.1/DTD/svg11.dtd">
<!-- Created with matplotlib (https://matplotlib.org/) -->
<svg height="216pt" version="1.1" viewBox="0 0 504 216" width="504pt" xmlns="http://www.w3.org/2000/svg" xmlns:xlink="http://www.w3.org/1999/xlink">
 <defs>
  <style type="text/css">
*{stroke-linecap:butt;stroke-linejoin:round;}
  </style>
 </defs>
 <g id="figure_1">
  <g id="patch_1">
   <path d="M 0 216 
L 504 216 
L 504 0 
L 0 0 
z
" style="fill:#ffffff;"/>
  </g>
  <g id="axes_1">
   <g id="patch_2">
    <path d="M 10.8 87.795188 
L 141.488504 87.795188 
L 141.488504 33.641735 
L 10.8 33.641735 
z
" style="fill:#ffffff;"/>
   </g>
   <g id="matplotlib.axis_1">
    <g id="xtick_1">
     <g id="line2d_1">
      <defs>
       <path d="M 0 4 
L 0 -4 
" id="mc4a79bb3f1" style="stroke:#000000;stroke-width:0.8;"/>
      </defs>
      <g>
       <use style="stroke:#000000;stroke-width:0.8;" x="21.690709" xlink:href="#mc4a79bb3f1" y="80.058981"/>
      </g>
     </g>
     <g id="text_1">
      <!-- $\mathdefault{-1}$ -->
      <defs>
       <path d="M 65.90625 23 
C 67.59375 23 69.40625 23 69.40625 25 
C 69.40625 27 67.59375 27 65.90625 27 
L 11.796875 27 
C 10.09375 27 8.296875 27 8.296875 25 
C 8.296875 23 10.09375 23 11.796875 23 
z
" id="CMSY10-0"/>
       <path d="M 26.59375 63.796875 
C 26.59375 65.890625 26.5 66 25.09375 66 
C 21.203125 61.359375 15.296875 59.890625 9.703125 59.6875 
C 9.40625 59.6875 8.90625 59.6875 8.796875 59.5 
C 8.703125 59.296875 8.703125 59.09375 8.703125 57 
C 11.796875 57 17 57.59375 21 59.984375 
L 21 7.296875 
C 21 3.796875 20.796875 2.59375 12.203125 2.59375 
L 9.203125 2.59375 
L 9.203125 0 
C 14 0.09375 19 0.1875 23.796875 0.1875 
C 28.59375 0.1875 33.59375 0.09375 38.40625 0 
L 38.40625 2.59375 
L 35.40625 2.59375 
C 26.796875 2.59375 26.59375 3.6875 26.59375 7.296875 
z
" id="CMR17-49"/>
      </defs>
      <g transform="translate(12.852347 97.244857)scale(0.14 -0.14)">
       <use transform="scale(0.996264)" xlink:href="#CMSY10-0"/>
       <use transform="translate(77.487468 0)scale(0.996264)" xlink:href="#CMR17-49"/>
      </g>
     </g>
    </g>
    <g id="xtick_2">
     <g id="line2d_2">
      <g>
       <use style="stroke:#000000;stroke-width:0.8;" x="130.597795" xlink:href="#mc4a79bb3f1" y="80.058981"/>
      </g>
     </g>
     <g id="text_2">
      <!-- $\mathdefault{1}$ -->
      <g transform="translate(127.183551 97.244857)scale(0.14 -0.14)">
       <use transform="scale(0.996264)" xlink:href="#CMR17-49"/>
      </g>
     </g>
    </g>
   </g>
   <g id="matplotlib.axis_2"/>
   <g id="line2d_3">
    <defs>
     <path d="M 2.5 0 
L -2.5 -2.5 
L -2.5 2.5 
z
" id="m8efd88fa7c" style="stroke:#000000;stroke-linejoin:miter;"/>
    </defs>
    <g>
     <use style="stroke:#000000;stroke-linejoin:miter;" x="141.488504" xlink:href="#m8efd88fa7c" y="80.058981"/>
    </g>
   </g>
   <g id="line2d_4">
    <defs>
     <path d="M 0 -2.5 
L -2.5 2.5 
L 2.5 2.5 
z
" id="m9e929e0a3e" style="stroke:#000000;stroke-linejoin:miter;"/>
    </defs>
    <g>
     <use style="stroke:#000000;stroke-linejoin:miter;" x="76.144252" xlink:href="#m9e929e0a3e" y="33.641735"/>
    </g>
   </g>
   <g id="line2d_5">
    <path clip-path="url(#p6e50348e49)" d="M 21.690709 60.718461 
L 27.136063 60.718461 
L 32.581417 60.718461 
L 38.026772 60.718461 
L 43.472126 60.718461 
L 48.91748 60.718461 
L 54.362835 60.718461 
L 59.808189 60.718461 
L 65.253543 60.718461 
L 70.698898 60.718461 
L 76.144252 60.718461 
L 81.589606 60.718461 
L 87.03496 60.718461 
L 92.480315 60.718461 
L 97.925669 60.718461 
L 103.371023 60.718461 
L 108.816378 60.718461 
L 114.261732 60.718461 
L 119.707086 60.718461 
L 125.152441 60.718461 
L 130.597795 60.718461 
" style="fill:none;stroke:#000000;stroke-linecap:square;stroke-width:1.5;"/>
   </g>
   <g id="patch_3">
    <path d="M 76.144252 87.795188 
L 76.144252 33.641735 
" style="fill:none;stroke:#000000;stroke-linecap:square;stroke-linejoin:miter;stroke-width:0.8;"/>
   </g>
   <g id="patch_4">
    <path d="M 10.8 80.058981 
L 141.488504 80.058981 
" style="fill:none;stroke:#000000;stroke-linecap:square;stroke-linejoin:miter;stroke-width:0.8;"/>
   </g>
   <g id="text_3">
    <!-- $s$ -->
    <defs>
     <path d="M 22.796875 20.15625 
C 24.5 19.859375 27.203125 19.265625 27.796875 19.171875 
C 29.09375 18.765625 33.59375 17.171875 33.59375 12.390625 
C 33.59375 9.296875 30.796875 1 19.203125 1 
C 17.09375 1 9.59375 1.296875 7.59375 6.984375 
C 11.59375 6.46875 13.59375 9.59375 13.59375 11.796875 
C 13.59375 13.890625 12.203125 15 10.203125 15 
C 8 15 5.09375 13.296875 5.09375 8.796875 
C 5.09375 2.75 11.09375 -1 19.09375 -1 
C 34.296875 -1 38.796875 10.390625 38.796875 15.59375 
C 38.796875 17.078125 38.796875 19.859375 35.59375 23.046875 
C 33.09375 25.421875 30.703125 25.921875 25.296875 27.015625 
C 22.59375 27.609375 18.296875 28.5 18.296875 32.984375 
C 18.296875 34.984375 20.09375 41.984375 29.59375 41.984375 
C 33.796875 41.984375 37.90625 40.453125 38.90625 37 
C 34.5 37 34.296875 33.1875 34.296875 33.09375 
C 34.296875 30.984375 36.203125 30.390625 37.09375 30.390625 
C 38.5 30.390625 41.296875 31.484375 41.296875 35.6875 
C 41.296875 39.78125 37.5 44 29.703125 44 
C 16.59375 44 13.09375 33.890625 13.09375 29.796875 
C 13.09375 22.25 20.5 20.65625 22.796875 20.15625 
z
" id="CMMI12-115"/>
    </defs>
    <g transform="translate(146.933858 83.794971)scale(0.15 -0.15)">
     <use transform="scale(0.996264)" xlink:href="#CMMI12-115"/>
    </g>
   </g>
   <g id="text_4">
    <!-- $c$ -->
    <defs>
     <path d="M 39.09375 38 
C 37.203125 38 36.296875 38 34.90625 36.796875 
C 34.296875 36.296875 33.203125 34.796875 33.203125 33.1875 
C 33.203125 31.1875 34.703125 29.984375 36.59375 29.984375 
C 39 29.984375 41.703125 31.984375 41.703125 35.984375 
C 41.703125 40.484375 37.09375 44 30.203125 44 
C 17.09375 44 4 30.1875 4 15.796875 
C 4 6.96875 9.40625 -1 19.59375 -1 
C 33.203125 -1 41.796875 9.71875 41.796875 11.03125 
C 41.796875 11.640625 41.203125 12.140625 40.796875 12.140625 
C 40.5 12.140625 40.40625 12.046875 39.5 11.125 
C 33.09375 2.515625 23.59375 1 19.796875 1 
C 12.90625 1 10.703125 7.078125 10.703125 12.140625 
C 10.703125 15.6875 12.40625 25.53125 16 32.390625 
C 18.59375 37.09375 24 41.984375 30.296875 41.984375 
C 31.59375 41.984375 37.09375 41.8125 39.09375 38 
z
" id="CMMI12-99"/>
    </defs>
    <g transform="translate(72.995514 25.773413)scale(0.15 -0.15)">
     <use transform="scale(0.996264)" xlink:href="#CMMI12-99"/>
    </g>
   </g>
  </g>
  <g id="axes_2">
   <g id="patch_5">
    <path d="M 180.695055 87.795188 
L 311.383558 87.795188 
L 311.383558 33.641735 
L 180.695055 33.641735 
z
" style="fill:#ffffff;"/>
   </g>
   <g id="matplotlib.axis_3">
    <g id="xtick_3">
     <g id="line2d_6">
      <g>
       <use style="stroke:#000000;stroke-width:0.8;" x="191.585763" xlink:href="#mc4a79bb3f1" y="80.058981"/>
      </g>
     </g>
     <g id="text_5">
      <!-- $\mathdefault{-1}$ -->
      <g transform="translate(182.747402 97.244857)scale(0.14 -0.14)">
       <use transform="scale(0.996264)" xlink:href="#CMSY10-0"/>
       <use transform="translate(77.487468 0)scale(0.996264)" xlink:href="#CMR17-49"/>
      </g>
     </g>
    </g>
    <g id="xtick_4">
     <g id="line2d_7">
      <g>
       <use style="stroke:#000000;stroke-width:0.8;" x="300.49285" xlink:href="#mc4a79bb3f1" y="80.058981"/>
      </g>
     </g>
     <g id="text_6">
      <!-- $\mathdefault{1}$ -->
      <g transform="translate(297.078605 97.244857)scale(0.14 -0.14)">
       <use transform="scale(0.996264)" xlink:href="#CMR17-49"/>
      </g>
     </g>
    </g>
   </g>
   <g id="matplotlib.axis_4">
    <g id="ytick_1">
     <g id="line2d_8">
      <defs>
       <path d="M 4 0 
L -4 -0 
" id="md92c3f0477" style="stroke:#000000;stroke-width:0.8;"/>
      </defs>
      <g>
       <use style="stroke:#000000;stroke-width:0.8;" x="246.039307" xlink:href="#md92c3f0477" y="41.377942"/>
      </g>
     </g>
     <g id="text_7">
      <!-- $\mathdefault{1}$ -->
      <g transform="translate(231.710818 46.220881)scale(0.14 -0.14)">
       <use transform="scale(0.996264)" xlink:href="#CMR17-49"/>
      </g>
     </g>
    </g>
   </g>
   <g id="line2d_9">
    <g>
     <use style="stroke:#000000;stroke-linejoin:miter;" x="311.383558" xlink:href="#m8efd88fa7c" y="80.058981"/>
    </g>
   </g>
   <g id="line2d_10">
    <g>
     <use style="stroke:#000000;stroke-linejoin:miter;" x="246.039307" xlink:href="#m9e929e0a3e" y="33.641735"/>
    </g>
   </g>
   <g id="line2d_11">
    <path clip-path="url(#p9363cc2fba)" d="M 191.585763 80.058981 
L 197.031118 80.058981 
L 202.476472 80.058981 
L 207.921826 80.058981 
L 213.367181 80.058981 
L 218.812535 80.058981 
L 224.257889 80.058981 
L 229.703244 80.058981 
L 235.148598 80.058981 
L 240.593952 80.058981 
L 246.039307 80.058981 
L 251.484661 80.058981 
L 256.930015 80.058981 
L 262.37537 80.058981 
L 267.820724 80.058981 
L 273.266078 80.058981 
L 278.711433 80.058981 
L 284.156787 80.058981 
L 289.602141 80.058981 
L 295.047495 80.058981 
L 300.49285 80.058981 
" style="fill:none;stroke:#000000;stroke-linecap:square;stroke-width:1.5;"/>
   </g>
   <g id="patch_6">
    <path d="M 246.039307 87.795188 
L 246.039307 33.641735 
" style="fill:none;stroke:#000000;stroke-linecap:square;stroke-linejoin:miter;stroke-width:0.8;"/>
   </g>
   <g id="patch_7">
    <path d="M 180.695055 80.058981 
L 311.383558 80.058981 
" style="fill:none;stroke:#000000;stroke-linecap:square;stroke-linejoin:miter;stroke-width:0.8;"/>
   </g>
   <g id="text_8">
    <!-- $s$ -->
    <g transform="translate(316.828913 83.794971)scale(0.15 -0.15)">
     <use transform="scale(0.996264)" xlink:href="#CMMI12-115"/>
    </g>
   </g>
   <g id="text_9">
    <!-- $r_{x}$ -->
    <defs>
     <path d="M 38.90625 41.140625 
C 35.796875 40.59375 34.203125 38.390625 34.203125 36.1875 
C 34.203125 33.796875 36.09375 32.984375 37.5 32.984375 
C 40.296875 32.984375 42.59375 35.390625 42.59375 38.390625 
C 42.59375 41.421875 39.5 44 34.5 44 
C 30.5 44 25.90625 42.1875 21.703125 36.484375 
C 21 41.5625 17 44 13 44 
C 9.09375 44 7.09375 41.28125 5.90625 39.1875 
C 4.203125 35.59375 2.703125 29.5625 2.703125 29.0625 
C 2.703125 28.65625 3.09375 28.140625 3.796875 28.140625 
C 4.59375 28.140625 4.703125 28.25 5.296875 30.578125 
C 6.796875 36.59375 8.703125 41.984375 12.703125 41.984375 
C 15.09375 41.984375 15.796875 40.6875 15.796875 37.796875 
C 15.796875 35.59375 14.796875 31.6875 14.09375 28.546875 
L 11.296875 17.65625 
C 10.90625 15.734375 9.796875 11.1875 9.296875 9.375 
C 8.59375 6.75 7.5 2 7.5 1.5 
C 7.5 0.09375 8.59375 -1 10.09375 -1 
C 11.203125 -1 13.09375 -0.3125 13.703125 1.703125 
C 14 2.5 17.703125 17.75 18.296875 20.078125 
C 18.796875 22.296875 19.40625 24.40625 19.90625 26.640625 
C 20.296875 28.046875 20.703125 29.65625 21 30.96875 
C 21.296875 31.875 24 36.796875 26.5 38.984375 
C 27.703125 40.09375 30.296875 41.984375 34.40625 41.984375 
C 36 41.984375 37.59375 41.78125 38.90625 41.140625 
z
" id="CMMI12-114"/>
     <path d="M 47.40625 41 
C 44.203125 40.390625 43 37.984375 43 36.09375 
C 43 33.6875 44.90625 32.890625 46.296875 32.890625 
C 49.296875 32.890625 51.40625 35.484375 51.40625 38.1875 
C 51.40625 42.09375 46.59375 44 42.40625 44 
C 36.296875 44 32.90625 38.296875 32 36.390625 
C 29.703125 43.59375 23.5 44 21.703125 44 
C 11.5 44 6.09375 31.140625 6.09375 28.890625 
C 6.09375 28.484375 6.5 27.96875 7.203125 27.96875 
C 8 27.96875 8.203125 28.578125 8.40625 28.984375 
C 11.796875 40.1875 18.5 41.984375 21.40625 41.984375 
C 25.90625 41.984375 26.796875 38.09375 26.796875 35.6875 
C 26.796875 33.484375 26.203125 31.140625 25 26.21875 
L 21.59375 12.15625 
C 20.09375 6.09375 17.203125 1 11.90625 1 
C 11.40625 1 8.90625 1 6.796875 1.96875 
C 10.40625 2.59375 11.203125 5.59375 11.203125 6.796875 
C 11.203125 8.796875 9.703125 10 7.796875 10 
C 5.40625 10 2.796875 7.890625 2.796875 4.6875 
C 2.796875 0.890625 7.5 -1 11.796875 -1 
C 16.59375 -1 20 2.390625 22.09375 6.484375 
C 23.703125 1 28.703125 -1 32.40625 -1 
C 42.59375 -1 48 11.734375 48 14 
C 48 14.515625 47.59375 14.921875 47 14.921875 
C 46.09375 14.921875 46 14.40625 45.703125 13.59375 
C 43 4.6875 37.203125 1 32.703125 1 
C 29.203125 1 27.296875 3.1875 27.296875 7.296875 
C 27.296875 9.484375 27.703125 11.125 29.296875 17.90625 
L 32.796875 31.859375 
C 34.296875 37.890625 37.703125 41.984375 42.296875 41.984375 
C 42.5 41.984375 45.296875 41.984375 47.40625 41 
z
" id="CMMI12-120"/>
    </defs>
    <g transform="translate(239.752944 25.773413)scale(0.15 -0.15)">
     <use transform="scale(0.996264)" xlink:href="#CMMI12-114"/>
     <use transform="translate(43.960894 -14.943915)scale(0.697382)" xlink:href="#CMMI12-120"/>
    </g>
   </g>
  </g>
  <g id="axes_3">
   <g id="patch_8">
    <path d="M 350.59011 87.795188 
L 481.278613 87.795188 
L 481.278613 33.641735 
L 350.59011 33.641735 
z
" style="fill:#ffffff;"/>
   </g>
   <g id="matplotlib.axis_5">
    <g id="xtick_5">
     <g id="line2d_12">
      <g>
       <use style="stroke:#000000;stroke-width:0.8;" x="361.480818" xlink:href="#mc4a79bb3f1" y="80.058981"/>
      </g>
     </g>
     <g id="text_10">
      <!-- $\mathdefault{-1}$ -->
      <g transform="translate(352.642456 97.244857)scale(0.14 -0.14)">
       <use transform="scale(0.996264)" xlink:href="#CMSY10-0"/>
       <use transform="translate(77.487468 0)scale(0.996264)" xlink:href="#CMR17-49"/>
      </g>
     </g>
    </g>
    <g id="xtick_6">
     <g id="line2d_13">
      <g>
       <use style="stroke:#000000;stroke-width:0.8;" x="470.387905" xlink:href="#mc4a79bb3f1" y="80.058981"/>
      </g>
     </g>
     <g id="text_11">
      <!-- $\mathdefault{1}$ -->
      <g transform="translate(466.97366 97.244857)scale(0.14 -0.14)">
       <use transform="scale(0.996264)" xlink:href="#CMR17-49"/>
      </g>
     </g>
    </g>
   </g>
   <g id="matplotlib.axis_6">
    <g id="ytick_2">
     <g id="line2d_14">
      <g>
       <use style="stroke:#000000;stroke-width:0.8;" x="415.934361" xlink:href="#md92c3f0477" y="41.377942"/>
      </g>
     </g>
     <g id="text_12">
      <!-- $\mathdefault{1}$ -->
      <g transform="translate(401.605873 46.220881)scale(0.14 -0.14)">
       <use transform="scale(0.996264)" xlink:href="#CMR17-49"/>
      </g>
     </g>
    </g>
   </g>
   <g id="line2d_15">
    <g>
     <use style="stroke:#000000;stroke-linejoin:miter;" x="481.278613" xlink:href="#m8efd88fa7c" y="80.058981"/>
    </g>
   </g>
   <g id="line2d_16">
    <g>
     <use style="stroke:#000000;stroke-linejoin:miter;" x="415.934361" xlink:href="#m9e929e0a3e" y="33.641735"/>
    </g>
   </g>
   <g id="line2d_17">
    <path clip-path="url(#pabe27854da)" d="M 361.480818 80.058981 
L 366.926172 80.058981 
L 372.371527 80.058981 
L 377.816881 80.058981 
L 383.262235 80.058981 
L 388.70759 80.058981 
L 394.152944 80.058981 
L 399.598298 80.058981 
L 405.043653 80.058981 
L 410.489007 80.058981 
L 415.934361 80.058981 
L 421.379716 80.058981 
L 426.82507 80.058981 
L 432.270424 80.058981 
L 437.715779 80.058981 
L 443.161133 80.058981 
L 448.606487 80.058981 
L 454.051842 80.058981 
L 459.497196 80.058981 
L 464.94255 80.058981 
L 470.387905 80.058981 
" style="fill:none;stroke:#000000;stroke-linecap:square;stroke-width:1.5;"/>
   </g>
   <g id="patch_9">
    <path d="M 415.934361 87.795188 
L 415.934361 33.641735 
" style="fill:none;stroke:#000000;stroke-linecap:square;stroke-linejoin:miter;stroke-width:0.8;"/>
   </g>
   <g id="patch_10">
    <path d="M 350.59011 80.058981 
L 481.278613 80.058981 
" style="fill:none;stroke:#000000;stroke-linecap:square;stroke-linejoin:miter;stroke-width:0.8;"/>
   </g>
   <g id="text_13">
    <!-- $s$ -->
    <g transform="translate(486.723967 83.794971)scale(0.15 -0.15)">
     <use transform="scale(0.996264)" xlink:href="#CMMI12-115"/>
    </g>
   </g>
   <g id="text_14">
    <!-- $r_{yz}$ -->
    <defs>
     <path d="M 26.296875 -10.515625 
C 23.59375 -14.390625 19.703125 -18 14.796875 -18 
C 13.59375 -18 8.796875 -17.796875 7.296875 -12.90625 
C 7.59375 -13.015625 8.09375 -13.015625 8.296875 -13.015625 
C 11.296875 -13.015625 13.296875 -10.40625 13.296875 -8.109375 
C 13.296875 -5.8125 11.40625 -5 9.90625 -5 
C 8.296875 -5 4.796875 -6.203125 4.796875 -11.109375 
C 4.796875 -16.40625 9.09375 -20 14.796875 -20 
C 24.796875 -20 34.90625 -10.515625 37.703125 -0.109375 
L 47.5 38.796875 
C 47.59375 39.296875 47.796875 39.890625 47.796875 40.484375 
C 47.796875 41.984375 46.59375 43 45.09375 43 
C 44.203125 43 42.09375 42.59375 41.296875 39.59375 
L 33.90625 10.265625 
C 33.40625 8.46875 33.40625 8.28125 32.59375 7.171875 
C 30.59375 4.390625 27.296875 1 22.5 1 
C 16.90625 1 16.40625 6.484375 16.40625 9.171875 
C 16.40625 14.859375 19.09375 22.546875 21.796875 29.71875 
C 22.90625 32.609375 23.5 34.015625 23.5 36.015625 
C 23.5 40.203125 20.5 44 15.59375 44 
C 6.40625 44 2.703125 29.53125 2.703125 28.71875 
C 2.703125 28.328125 3.09375 27.828125 3.796875 27.828125 
C 4.703125 27.828125 4.796875 28.234375 5.203125 29.625 
C 7.59375 38 11.40625 41.984375 15.296875 41.984375 
C 16.203125 41.984375 17.90625 41.984375 17.90625 38.703125 
C 17.90625 36.109375 16.796875 33.21875 15.296875 29.421875 
C 10.40625 16.359375 10.40625 13.0625 10.40625 10.671875 
C 10.40625 1.1875 17.203125 -1 22.203125 -1 
C 25.09375 -1 28.703125 -0.109375 32.203125 3.59375 
L 32.296875 3.484375 
C 30.796875 -2.203125 29.796875 -5.609375 26.296875 -10.515625 
z
" id="CMMI12-121"/>
     <path d="M 12.703125 7.59375 
C 17 12.640625 20.5 15.859375 25.5 20.515625 
C 31.5 25.890625 34.09375 28.46875 35.5 30.03125 
C 42.5 37.046875 46 42.390625 46 43.1875 
C 46 44 45.203125 44 45 44 
C 44.296875 44 44.09375 43.59375 43.59375 42.890625 
C 41.09375 38.59375 38.703125 37 36.09375 37 
C 34 37 32.90625 37.546875 31 39.796875 
C 28.90625 42.296875 27.203125 44 24.296875 44 
C 17 44 12.59375 35.390625 12.59375 33.234375 
C 12.59375 32.921875 12.703125 32.296875 13.59375 32.296875 
C 14.40625 32.296875 14.5 32.71875 14.796875 33.4375 
C 16.5 37.296875 21.296875 37.734375 23.203125 37.734375 
C 25.296875 37.734375 27.296875 37.296875 29.40625 36.59375 
C 33.203125 34.984375 34.796875 34.984375 35.796875 34.984375 
C 36.5 34.984375 36.90625 34.984375 37.40625 35.09375 
C 34.09375 31.0625 28.703125 26.09375 24.203125 21.859375 
L 14.09375 12.234375 
C 8 5.9375 4.296875 0.5 4.296875 -0.203125 
C 4.296875 -0.8125 4.796875 -1 5.40625 -1 
C 6 -1 6.09375 -0.90625 6.796875 0.296875 
C 8.40625 2.796875 11.59375 6 15.296875 6 
C 17.40625 6 18.40625 5.5625 20.40625 3.296875 
C 22.296875 1.09375 24 -1 27.203125 -1 
C 37 -1 42.59375 11.296875 42.59375 13.6875 
C 42.59375 14.09375 42.5 14.71875 41.5 14.71875 
C 40.703125 14.71875 40.59375 14.296875 40.296875 13.265625 
C 38.09375 7.1875 32.203125 5.25 28.296875 5.25 
C 26.203125 5.25 24.203125 5.6875 22.09375 6.390625 
C 18.09375 8 17 8 15.703125 8 
C 14.703125 8 13.59375 8 12.703125 7.59375 
z
" id="CMMI12-122"/>
    </defs>
    <g transform="translate(407.452915 24.40355)scale(0.15 -0.15)">
     <use transform="scale(0.996264)" xlink:href="#CMMI12-114"/>
     <use transform="translate(43.960894 -14.943915)scale(0.697382)" xlink:href="#CMMI12-121"/>
     <use transform="translate(79.757869 -14.943915)scale(0.697382)" xlink:href="#CMMI12-122"/>
    </g>
   </g>
  </g>
  <g id="axes_4">
   <g id="patch_11">
    <path d="M 10.8 196.102095 
L 141.488504 196.102095 
L 141.488504 141.948642 
L 10.8 141.948642 
z
" style="fill:#ffffff;"/>
   </g>
   <g id="matplotlib.axis_7">
    <g id="xtick_7">
     <g id="line2d_18">
      <g>
       <use style="stroke:#000000;stroke-width:0.8;" x="21.690709" xlink:href="#mc4a79bb3f1" y="188.365888"/>
      </g>
     </g>
     <g id="text_15">
      <!-- $\mathdefault{-1}$ -->
      <g transform="translate(12.852347 205.551764)scale(0.14 -0.14)">
       <use transform="scale(0.996264)" xlink:href="#CMSY10-0"/>
       <use transform="translate(77.487468 0)scale(0.996264)" xlink:href="#CMR17-49"/>
      </g>
     </g>
    </g>
    <g id="xtick_8">
     <g id="line2d_19">
      <g>
       <use style="stroke:#000000;stroke-width:0.8;" x="130.597795" xlink:href="#mc4a79bb3f1" y="188.365888"/>
      </g>
     </g>
     <g id="text_16">
      <!-- $\mathdefault{1}$ -->
      <g transform="translate(127.183551 205.551764)scale(0.14 -0.14)">
       <use transform="scale(0.996264)" xlink:href="#CMR17-49"/>
      </g>
     </g>
    </g>
   </g>
   <g id="matplotlib.axis_8"/>
   <g id="line2d_20">
    <g>
     <use style="stroke:#000000;stroke-linejoin:miter;" x="141.488504" xlink:href="#m8efd88fa7c" y="188.365888"/>
    </g>
   </g>
   <g id="line2d_21">
    <g>
     <use style="stroke:#000000;stroke-linejoin:miter;" x="76.144252" xlink:href="#m9e929e0a3e" y="141.948642"/>
    </g>
   </g>
   <g id="line2d_22">
    <path clip-path="url(#pb80546f166)" d="M 21.690709 205.243674 
L 27.136063 199.439403 
L 32.581417 195.279029 
L 38.026772 192.418244 
L 43.472126 190.553249 
L 48.91748 189.420749 
L 54.362835 188.797959 
L 59.808189 188.502598 
L 65.253543 188.392892 
L 70.698898 188.367575 
L 76.144252 188.365888 
L 81.589606 188.367575 
L 87.03496 188.392892 
L 92.480315 188.502598 
L 97.925669 188.797959 
L 103.371023 189.420749 
L 108.816378 190.553249 
L 114.261732 192.418244 
L 119.707086 195.279029 
L 125.152441 199.439403 
L 130.597795 205.243674 
" style="fill:none;stroke:#000000;stroke-linecap:square;stroke-width:1.5;"/>
   </g>
   <g id="patch_12">
    <path d="M 76.144252 196.102095 
L 76.144252 141.948642 
" style="fill:none;stroke:#000000;stroke-linecap:square;stroke-linejoin:miter;stroke-width:0.8;"/>
   </g>
   <g id="patch_13">
    <path d="M 10.8 188.365888 
L 141.488504 188.365888 
" style="fill:none;stroke:#000000;stroke-linecap:square;stroke-linejoin:miter;stroke-width:0.8;"/>
   </g>
   <g id="text_17">
    <!-- $s$ -->
    <g transform="translate(146.933858 192.101878)scale(0.15 -0.15)">
     <use transform="scale(0.996264)" xlink:href="#CMMI12-115"/>
    </g>
   </g>
   <g id="text_18">
    <!-- $\theta$ -->
    <defs>
     <path d="M 44.296875 50 
C 44.296875 60.140625 41.09375 70 32.90625 70 
C 18.90625 70 4 40.859375 4 18.984375 
C 4 14.40625 5 -1 15.5 -1 
C 29.09375 -1 44.296875 27.421875 44.296875 50 
z
M 14 36 
C 15.5 41.859375 17.59375 50.203125 21.59375 57.265625 
C 24.90625 63.21875 28.40625 67.984375 32.796875 67.984375 
C 36.09375 67.984375 38.296875 65.203125 38.296875 55.671875 
C 38.296875 52.09375 38 47.125 35.09375 36 
z
M 34.40625 33 
C 31.90625 23.25 29.796875 17 26.203125 10.734375 
C 23.296875 5.65625 19.796875 1 15.59375 1 
C 12.5 1 10 3.375 10 13.21875 
C 10 19.671875 11.59375 26.4375 13.203125 33 
z
" id="CMMI12-18"/>
    </defs>
    <g transform="translate(72.734773 134.08032)scale(0.15 -0.15)">
     <use transform="scale(0.996264)" xlink:href="#CMMI12-18"/>
    </g>
   </g>
  </g>
  <g id="axes_5">
   <g id="patch_14">
    <path d="M 180.695055 196.102095 
L 311.383558 196.102095 
L 311.383558 141.948642 
L 180.695055 141.948642 
z
" style="fill:#ffffff;"/>
   </g>
   <g id="matplotlib.axis_9">
    <g id="xtick_9">
     <g id="line2d_23">
      <g>
       <use style="stroke:#000000;stroke-width:0.8;" x="191.585763" xlink:href="#mc4a79bb3f1" y="188.365888"/>
      </g>
     </g>
     <g id="text_19">
      <!-- $\mathdefault{-1}$ -->
      <g transform="translate(182.747402 205.551764)scale(0.14 -0.14)">
       <use transform="scale(0.996264)" xlink:href="#CMSY10-0"/>
       <use transform="translate(77.487468 0)scale(0.996264)" xlink:href="#CMR17-49"/>
      </g>
     </g>
    </g>
    <g id="xtick_10">
     <g id="line2d_24">
      <g>
       <use style="stroke:#000000;stroke-width:0.8;" x="300.49285" xlink:href="#mc4a79bb3f1" y="188.365888"/>
      </g>
     </g>
     <g id="text_20">
      <!-- $\mathdefault{1}$ -->
      <g transform="translate(297.078605 205.551764)scale(0.14 -0.14)">
       <use transform="scale(0.996264)" xlink:href="#CMR17-49"/>
      </g>
     </g>
    </g>
   </g>
   <g id="matplotlib.axis_10"/>
   <g id="line2d_25">
    <g>
     <use style="stroke:#000000;stroke-linejoin:miter;" x="311.383558" xlink:href="#m8efd88fa7c" y="188.365888"/>
    </g>
   </g>
   <g id="line2d_26">
    <g>
     <use style="stroke:#000000;stroke-linejoin:miter;" x="246.039307" xlink:href="#m9e929e0a3e" y="141.948642"/>
    </g>
   </g>
   <g id="line2d_27">
    <path clip-path="url(#p4196fbf437)" d="M 191.585763 188.365888 
L 197.031118 188.365888 
L 202.476472 188.365888 
L 207.921826 188.365888 
L 213.367181 188.365888 
L 218.812535 188.365888 
L 224.257889 188.365888 
L 229.703244 188.365888 
L 235.148598 188.365888 
L 240.593952 188.365888 
L 246.039307 188.365888 
L 251.484661 188.365888 
L 256.930015 188.365888 
L 262.37537 188.365888 
L 267.820724 188.365888 
L 273.266078 188.365888 
L 278.711433 188.365888 
L 284.156787 188.365888 
L 289.602141 188.365888 
L 295.047495 188.365888 
L 300.49285 188.365888 
" style="fill:none;stroke:#000000;stroke-linecap:square;stroke-width:1.5;"/>
   </g>
   <g id="patch_15">
    <path d="M 246.039307 196.102095 
L 246.039307 141.948642 
" style="fill:none;stroke:#000000;stroke-linecap:square;stroke-linejoin:miter;stroke-width:0.8;"/>
   </g>
   <g id="patch_16">
    <path d="M 180.695055 188.365888 
L 311.383558 188.365888 
" style="fill:none;stroke:#000000;stroke-linecap:square;stroke-linejoin:miter;stroke-width:0.8;"/>
   </g>
   <g id="text_21">
    <!-- $s$ -->
    <g transform="translate(316.828913 192.101878)scale(0.15 -0.15)">
     <use transform="scale(0.996264)" xlink:href="#CMMI12-115"/>
    </g>
   </g>
   <g id="text_22">
    <!-- $x$ -->
    <g transform="translate(241.881756 134.08032)scale(0.15 -0.15)">
     <use transform="scale(0.996264)" xlink:href="#CMMI12-120"/>
    </g>
   </g>
  </g>
  <g id="axes_6">
   <g id="patch_17">
    <path d="M 350.59011 196.102095 
L 481.278613 196.102095 
L 481.278613 141.948642 
L 350.59011 141.948642 
z
" style="fill:#ffffff;"/>
   </g>
   <g id="matplotlib.axis_11">
    <g id="xtick_11">
     <g id="line2d_28">
      <g>
       <use style="stroke:#000000;stroke-width:0.8;" x="361.480818" xlink:href="#mc4a79bb3f1" y="149.684849"/>
      </g>
     </g>
    </g>
    <g id="xtick_12">
     <g id="line2d_29">
      <g>
       <use style="stroke:#000000;stroke-width:0.8;" x="470.387905" xlink:href="#mc4a79bb3f1" y="149.684849"/>
      </g>
     </g>
    </g>
   </g>
   <g id="matplotlib.axis_12"/>
   <g id="line2d_30">
    <g>
     <use style="stroke:#000000;stroke-linejoin:miter;" x="481.278613" xlink:href="#m8efd88fa7c" y="149.684849"/>
    </g>
   </g>
   <g id="line2d_31">
    <defs>
     <path d="M -0 2.5 
L 2.5 -2.5 
L -2.5 -2.5 
z
" id="mbc87430b39" style="stroke:#000000;stroke-linejoin:miter;"/>
    </defs>
    <g>
     <use style="stroke:#000000;stroke-linejoin:miter;" x="415.934361" xlink:href="#mbc87430b39" y="196.102095"/>
    </g>
   </g>
   <g id="line2d_32">
    <path clip-path="url(#p9d03ead303)" d="M 361.480818 149.684849 
L 366.926172 149.684849 
L 372.371527 149.684849 
L 377.816881 149.684849 
L 383.262235 149.684849 
L 388.70759 149.684849 
L 394.152944 149.684849 
L 399.598298 149.684849 
L 405.043653 149.684849 
L 410.489007 149.684849 
L 415.934361 149.684849 
L 421.379716 149.684849 
L 426.82507 149.684849 
L 432.270424 149.684849 
L 437.715779 149.684849 
L 443.161133 149.684849 
L 448.606487 149.684849 
L 454.051842 149.684849 
L 459.497196 149.684849 
L 464.94255 149.684849 
L 470.387905 149.684849 
" style="fill:none;stroke:#000000;stroke-linecap:square;stroke-width:1.5;"/>
   </g>
   <g id="patch_18">
    <path d="M 415.934361 196.102095 
L 415.934361 141.948642 
" style="fill:none;stroke:#000000;stroke-linecap:square;stroke-linejoin:miter;stroke-width:0.8;"/>
   </g>
   <g id="patch_19">
    <path d="M 350.59011 149.684849 
L 481.278613 149.684849 
" style="fill:none;stroke:#000000;stroke-linecap:square;stroke-linejoin:miter;stroke-width:0.8;"/>
   </g>
   <g id="text_23">
    <!-- $y$ -->
    <g transform="translate(486.723967 153.420839)scale(0.15 -0.15)">
     <use transform="scale(0.996264)" xlink:href="#CMMI12-121"/>
    </g>
   </g>
   <g id="text_24">
    <!-- $z$ -->
    <g transform="translate(412.535684 134.08032)scale(0.15 -0.15)">
     <use transform="scale(0.996264)" xlink:href="#CMMI12-122"/>
    </g>
   </g>
  </g>
 </g>
 <defs>
  <clipPath id="p6e50348e49">
   <rect height="54.153453" width="130.688504" x="10.8" y="33.641735"/>
  </clipPath>
  <clipPath id="p9363cc2fba">
   <rect height="54.153453" width="130.688504" x="180.695055" y="33.641735"/>
  </clipPath>
  <clipPath id="pabe27854da">
   <rect height="54.153453" width="130.688504" x="350.59011" y="33.641735"/>
  </clipPath>
  <clipPath id="pb80546f166">
   <rect height="54.153453" width="130.688504" x="10.8" y="141.948642"/>
  </clipPath>
  <clipPath id="p4196fbf437">
   <rect height="54.153453" width="130.688504" x="180.695055" y="141.948642"/>
  </clipPath>
  <clipPath id="p9d03ead303">
   <rect height="54.153453" width="130.688504" x="350.59011" y="141.948642"/>
  </clipPath>
 </defs>
</svg>
