<?xml version="1.0" encoding="UTF-8" standalone="no"?>
<svg
   xmlns:dc="http://purl.org/dc/elements/1.1/"
   xmlns:cc="http://creativecommons.org/ns#"
   xmlns:rdf="http://www.w3.org/1999/02/22-rdf-syntax-ns#"
   xmlns:svg="http://www.w3.org/2000/svg"
   xmlns="http://www.w3.org/2000/svg"
   xmlns:sodipodi="http://sodipodi.sourceforge.net/DTD/sodipodi-0.dtd"
   xmlns:inkscape="http://www.inkscape.org/namespaces/inkscape"
   inkscape:version="1.0 (4035a4fb49, 2020-05-01)"
   sodipodi:docname="flat2_canopy_airfoils.svg"
   id="svg331"
   width="441.41013pt"
   viewBox="0 0 441.41013 414.19595"
   version="1.1"
   height="414.19595pt">
  <metadata
     id="metadata335">
    <rdf:RDF>
      <cc:Work
         rdf:about="">
        <dc:format>image/svg+xml</dc:format>
        <dc:type
           rdf:resource="http://purl.org/dc/dcmitype/StillImage" />
      </cc:Work>
    </rdf:RDF>
  </metadata>
  <sodipodi:namedview
     inkscape:current-layer="svg331"
     inkscape:window-maximized="0"
     inkscape:window-y="27"
     inkscape:window-x="0"
     inkscape:cy="310.28839"
     inkscape:cx="207.91423"
     inkscape:zoom="1.06875"
     showgrid="false"
     id="namedview333"
     inkscape:window-height="1198"
     inkscape:window-width="1396"
     inkscape:pageshadow="2"
     inkscape:pageopacity="0"
     guidetolerance="10"
     gridtolerance="10"
     objecttolerance="10"
     borderopacity="1"
     bordercolor="#666666"
     pagecolor="#ffffff" />
  <defs
     id="defs4">
    <style
       id="style2"
       type="text/css">
*{stroke-linecap:butt;stroke-linejoin:round;}
  </style>
  </defs>
  <g
     transform="translate(-204.06433,-127.28371)"
     id="axes_1">
    <g
       id="line2d_1">
      <path
         d="M 644.92804,445.60176 C 553.19527,392.63982 461.4625,339.67788 369.72973,286.71594"
         style="fill:none;stroke:#d3d3d3;stroke-width:0.8;stroke-linecap:square"
         clip-path="url(#pbeba9ad6b0)"
         id="path12" />
    </g>
    <g
       id="line2d_2">
      <path
         d="M 617.40821,461.49034 C 525.67544,408.5284 433.94267,355.56646 342.2099,302.60452"
         style="fill:none;stroke:#d3d3d3;stroke-width:0.8;stroke-linecap:square"
         clip-path="url(#pbeba9ad6b0)"
         id="path15" />
    </g>
    <g
       id="line2d_3">
      <path
         d="M 589.88838,477.37893 C 498.15561,424.41699 406.42284,371.45505 314.69007,318.49311"
         style="fill:none;stroke:#d3d3d3;stroke-width:0.8;stroke-linecap:square"
         clip-path="url(#pbeba9ad6b0)"
         id="path18" />
    </g>
    <g
       id="line2d_4">
      <path
         d="M 562.36855,493.26751 C 470.63578,440.30557 378.903,387.34363 287.17023,334.38169"
         style="fill:none;stroke:#d3d3d3;stroke-width:0.8;stroke-linecap:square"
         clip-path="url(#pbeba9ad6b0)"
         id="path21" />
    </g>
    <g
       id="line2d_5">
      <path
         d="M 534.84872,509.15609 C 443.11595,456.19415 351.38317,403.23221 259.6504,350.27027"
         style="fill:none;stroke:#d3d3d3;stroke-width:0.8;stroke-linecap:square"
         clip-path="url(#pbeba9ad6b0)"
         id="path24" />
    </g>
    <g
       id="line2d_6">
      <path
         d="M 507.32889,525.04467 C 415.59612,472.08273 323.86334,419.12079 232.13057,366.15885"
         style="fill:none;stroke:#d3d3d3;stroke-width:0.8;stroke-linecap:square"
         clip-path="url(#pbeba9ad6b0)"
         id="path27" />
    </g>
    <g
       id="line2d_7">
      <path
         d="M 479.80906,540.93326 C 388.07629,487.97132 296.34351,435.00937 204.61074,382.04743"
         style="fill:none;stroke:#d3d3d3;stroke-width:0.8;stroke-linecap:square"
         clip-path="url(#pbeba9ad6b0)"
         id="path30" />
    </g>
    <g
       id="line2d_8">
      <path
         d="m 644.92804,445.60176 c -55.03966,31.77717 -110.07932,63.55433 -165.11898,95.3315"
         style="fill:none;stroke:#d3d3d3;stroke-width:0.8;stroke-linecap:square"
         clip-path="url(#pbeba9ad6b0)"
         id="path33" />
    </g>
    <g
       id="line2d_9">
      <path
         d="m 644.92804,286.71594 c 0,52.96194 0,105.92388 0,158.88582"
         style="fill:none;stroke:#d3d3d3;stroke-width:0.8;stroke-linecap:square"
         clip-path="url(#pbeba9ad6b0)"
         id="path36" />
    </g>
    <g
       id="line2d_10">
      <path
         d="m 617.40821,429.71318 c -55.03966,31.77716 -110.07933,63.55433 -165.11899,95.33149"
         style="fill:none;stroke:#d3d3d3;stroke-width:0.8;stroke-linecap:square"
         clip-path="url(#pbeba9ad6b0)"
         id="path39" />
    </g>
    <g
       id="line2d_11">
      <path
         d="m 617.40821,270.82736 c 0,52.96194 0,105.92388 0,158.88582"
         style="fill:none;stroke:#d3d3d3;stroke-width:0.8;stroke-linecap:square"
         clip-path="url(#pbeba9ad6b0)"
         id="path42" />
    </g>
    <g
       id="line2d_12">
      <path
         d="m 589.88838,413.8246 c -55.03966,31.77716 -110.07933,63.55433 -165.11899,95.33149"
         style="fill:none;stroke:#d3d3d3;stroke-width:0.8;stroke-linecap:square"
         clip-path="url(#pbeba9ad6b0)"
         id="path45" />
    </g>
    <g
       id="line2d_13">
      <path
         d="m 589.88838,254.93878 c 0,52.96194 0,105.92388 0,158.88582"
         style="fill:none;stroke:#d3d3d3;stroke-width:0.8;stroke-linecap:square"
         clip-path="url(#pbeba9ad6b0)"
         id="path48" />
    </g>
    <g
       id="line2d_14">
      <path
         d="m 562.36855,397.93602 c -55.03966,31.77716 -110.07933,63.55433 -165.11899,95.33149"
         style="fill:none;stroke:#d3d3d3;stroke-width:0.8;stroke-linecap:square"
         clip-path="url(#pbeba9ad6b0)"
         id="path51" />
    </g>
    <g
       id="line2d_15">
      <path
         d="m 562.36855,239.05019 c 0,52.96194 0,105.92389 0,158.88583"
         style="fill:none;stroke:#d3d3d3;stroke-width:0.8;stroke-linecap:square"
         clip-path="url(#pbeba9ad6b0)"
         id="path54" />
    </g>
    <g
       id="line2d_16">
      <path
         d="m 534.84872,382.04743 c -55.03966,31.77717 -110.07933,63.55433 -165.11899,95.3315"
         style="fill:none;stroke:#d3d3d3;stroke-width:0.8;stroke-linecap:square"
         clip-path="url(#pbeba9ad6b0)"
         id="path57" />
    </g>
    <g
       id="line2d_17">
      <path
         d="m 534.84872,223.16161 c 0,52.96194 0,105.92388 0,158.88582"
         style="fill:none;stroke:#d3d3d3;stroke-width:0.8;stroke-linecap:square"
         clip-path="url(#pbeba9ad6b0)"
         id="path60" />
    </g>
    <g
       id="line2d_18">
      <path
         d="M 507.32889,366.15885 C 452.28923,397.93601 397.24956,429.71318 342.2099,461.49034"
         style="fill:none;stroke:#d3d3d3;stroke-width:0.8;stroke-linecap:square"
         clip-path="url(#pbeba9ad6b0)"
         id="path63" />
    </g>
    <g
       id="line2d_19">
      <path
         d="m 507.32889,207.27303 c 0,52.96194 0,105.92388 0,158.88582"
         style="fill:none;stroke:#d3d3d3;stroke-width:0.8;stroke-linecap:square"
         clip-path="url(#pbeba9ad6b0)"
         id="path66" />
    </g>
    <g
       id="line2d_20">
      <path
         d="M 479.80906,350.27027 C 424.7694,382.04743 369.72973,413.8246 314.69007,445.60176"
         style="fill:none;stroke:#d3d3d3;stroke-width:0.8;stroke-linecap:square"
         clip-path="url(#pbeba9ad6b0)"
         id="path69" />
    </g>
    <g
       id="line2d_21">
      <path
         d="m 479.80906,191.38445 c 0,52.96194 0,105.92388 0,158.88582"
         style="fill:none;stroke:#d3d3d3;stroke-width:0.8;stroke-linecap:square"
         clip-path="url(#pbeba9ad6b0)"
         id="path72" />
    </g>
    <g
       id="line2d_22">
      <path
         d="m 452.28922,334.38169 c -55.03966,31.77716 -110.07933,63.55433 -165.11899,95.33149"
         style="fill:none;stroke:#d3d3d3;stroke-width:0.8;stroke-linecap:square"
         clip-path="url(#pbeba9ad6b0)"
         id="path75" />
    </g>
    <g
       id="line2d_23">
      <path
         d="m 452.28922,175.49587 c 0,52.96194 0,105.92388 0,158.88582"
         style="fill:none;stroke:#d3d3d3;stroke-width:0.8;stroke-linecap:square"
         clip-path="url(#pbeba9ad6b0)"
         id="path78" />
    </g>
    <g
       id="line2d_24">
      <path
         d="M 424.76939,318.49311 C 369.72973,350.27027 314.69006,382.04744 259.6504,413.8246"
         style="fill:none;stroke:#d3d3d3;stroke-width:0.8;stroke-linecap:square"
         clip-path="url(#pbeba9ad6b0)"
         id="path81" />
    </g>
    <g
       id="line2d_25">
      <path
         d="m 424.76939,159.60728 c 0,52.96194 0,105.92389 0,158.88583"
         style="fill:none;stroke:#d3d3d3;stroke-width:0.8;stroke-linecap:square"
         clip-path="url(#pbeba9ad6b0)"
         id="path84" />
    </g>
    <g
       id="line2d_26">
      <path
         d="m 397.24956,302.60452 c -55.03966,31.77717 -110.07933,63.55433 -165.11899,95.3315"
         style="fill:none;stroke:#d3d3d3;stroke-width:0.8;stroke-linecap:square"
         clip-path="url(#pbeba9ad6b0)"
         id="path87" />
    </g>
    <g
       id="line2d_27">
      <path
         d="m 397.24956,143.7187 c 0,52.96194 0,105.92388 0,158.88582"
         style="fill:none;stroke:#d3d3d3;stroke-width:0.8;stroke-linecap:square"
         clip-path="url(#pbeba9ad6b0)"
         id="path90" />
    </g>
    <g
       id="line2d_28">
      <path
         d="M 369.72973,286.71594 C 314.69007,318.4931 259.6504,350.27027 204.61074,382.04743"
         style="fill:none;stroke:#d3d3d3;stroke-width:0.8;stroke-linecap:square"
         clip-path="url(#pbeba9ad6b0)"
         id="path93" />
    </g>
    <g
       id="line2d_29">
      <path
         d="m 369.72973,127.83012 c 0,52.96194 0,105.92388 0,158.88582"
         style="fill:none;stroke:#d3d3d3;stroke-width:0.8;stroke-linecap:square"
         clip-path="url(#pbeba9ad6b0)"
         id="path96" />
    </g>
    <g
       id="line2d_30">
      <path
         d="M 644.92804,286.71594 C 553.19527,233.754 461.4625,180.79206 369.72973,127.83012"
         style="fill:none;stroke:#d3d3d3;stroke-width:0.8;stroke-linecap:square"
         clip-path="url(#pbeba9ad6b0)"
         id="path99" />
    </g>
    <g
       id="line2d_31">
      <path
         d="M 644.92804,318.49311 C 553.19527,265.53117 461.4625,212.56922 369.72973,159.60728"
         style="fill:none;stroke:#d3d3d3;stroke-width:0.8;stroke-linecap:square"
         clip-path="url(#pbeba9ad6b0)"
         id="path102" />
    </g>
    <g
       id="line2d_32">
      <path
         d="M 644.92804,350.27027 C 553.19527,297.30833 461.4625,244.34639 369.72973,191.38445"
         style="fill:none;stroke:#d3d3d3;stroke-width:0.8;stroke-linecap:square"
         clip-path="url(#pbeba9ad6b0)"
         id="path105" />
    </g>
    <g
       id="line2d_33">
      <path
         d="M 644.92804,382.04743 C 553.19527,329.08549 461.4625,276.12355 369.72973,223.16161"
         style="fill:none;stroke:#d3d3d3;stroke-width:0.8;stroke-linecap:square"
         clip-path="url(#pbeba9ad6b0)"
         id="path108" />
    </g>
    <g
       id="line2d_34">
      <path
         d="M 644.92804,413.8246 C 553.19527,360.86266 461.4625,307.90072 369.72973,254.93878"
         style="fill:none;stroke:#d3d3d3;stroke-width:0.8;stroke-linecap:square"
         clip-path="url(#pbeba9ad6b0)"
         id="path111" />
    </g>
    <g
       id="line2d_35">
      <path
         d="m 534.84872,382.04743 c -7.73143,5.62961 -15.41709,11.59781 -24.25786,15.39833 -0.93273,0.18293 -2.47781,1.35755 -3.26166,0.49029"
         style="fill:none;stroke:#ff0000;stroke-width:0.25;stroke-linecap:square"
         clip-path="url(#pbeba9ad6b0)"
         id="path114" />
    </g>
    <g
       id="line2d_36">
      <path
         d="m 527.5101,377.81048 c -8.10376,5.9184 -16.17916,12.13277 -25.39785,16.23267 -1.09166,0.22965 -3.00991,1.65527 -3.95705,0.71512"
         style="fill:none;stroke:#ff0000;stroke-width:0.25;stroke-linecap:square"
         clip-path="url(#pbeba9ad6b0)"
         id="path117" />
    </g>
    <g
       id="line2d_37">
      <path
         d="m 520.17147,373.57352 c -8.44405,6.20015 -16.89309,12.6197 -26.44976,17.02433 -1.47411,0.37294 -3.27427,1.85203 -4.71771,1.04101 l -0.0168,-0.0432 -0.005,-0.0152"
         style="fill:none;stroke:#ff0000;stroke-width:0.25;stroke-linecap:square"
         clip-path="url(#pbeba9ad6b0)"
         id="path120" />
    </g>
    <g
       id="line2d_38">
      <path
         d="m 512.83285,369.33657 c -8.8457,6.50267 -17.70604,13.20691 -27.68698,17.8884 -1.67691,0.48849 -3.55972,1.97931 -5.27723,1.30849 -0.025,-0.0408 -0.0459,-0.0846 -0.0593,-0.1306"
         style="fill:none;stroke:#ff0000;stroke-width:0.25;stroke-linecap:square"
         clip-path="url(#pbeba9ad6b0)"
         id="path123" />
    </g>
    <g
       id="line2d_39">
      <path
         d="m 505.49423,365.09961 c -9.24974,6.80601 -18.52448,13.79578 -28.93178,18.75574 -1.8631,0.60177 -3.81998,2.05851 -5.79601,1.59269 -0.0628,-0.0614 -0.10413,-0.1404 -0.1312,-0.2229"
         style="fill:none;stroke:#ff0000;stroke-width:0.25;stroke-linecap:square"
         clip-path="url(#pbeba9ad6b0)"
         id="path126" />
    </g>
    <g
       id="line2d_40">
      <path
         d="m 498.15561,360.86266 c -9.60908,7.0844 -19.26116,14.31604 -30.03542,19.555 -2.09465,0.69964 -4.28911,2.33512 -6.52015,1.86438 -0.0657,-0.0648 -0.11018,-0.14749 -0.1377,-0.2346"
         style="fill:none;stroke:#ff0000;stroke-width:0.25;stroke-linecap:square"
         clip-path="url(#pbeba9ad6b0)"
         id="path129" />
    </g>
    <g
       id="line2d_41">
      <path
         d="m 490.81699,356.6257 c -9.99772,7.39038 -20.06196,14.88441 -31.24721,20.40275 -2.26826,0.80761 -4.55744,2.40179 -7.01846,2.17744 -0.12873,-0.0712 -0.22043,-0.19696 -0.26198,-0.3361"
         style="fill:none;stroke:#ff0000;stroke-width:0.25;stroke-linecap:square"
         clip-path="url(#pbeba9ad6b0)"
         id="path132" />
    </g>
    <g
       id="line2d_42">
      <path
         d="m 483.47837,352.38875 c -10.39757,7.69207 -20.87096,15.47345 -32.48346,21.25632 -2.45481,0.89322 -4.93564,2.60819 -7.60439,2.39916 -0.13459,-0.0745 -0.2313,-0.20622 -0.27408,-0.3521"
         style="fill:none;stroke:#ff0000;stroke-width:0.25;stroke-linecap:square"
         clip-path="url(#pbeba9ad6b0)"
         id="path135" />
    </g>
    <g
       id="line2d_43">
      <path
         d="m 476.13974,348.15179 c -10.77985,7.98128 -21.64728,16.0321 -33.66102,22.08239 -2.61077,1.03869 -5.21104,2.64137 -8.0661,2.72382 -0.22287,-0.053 -0.40745,-0.22385 -0.47028,-0.44361"
         style="fill:none;stroke:#ff0000;stroke-width:0.25;stroke-linecap:square"
         clip-path="url(#pbeba9ad6b0)"
         id="path138" />
    </g>
    <g
       id="line2d_44">
      <path
         d="m 468.80112,343.91484 c -11.16111,8.2724 -22.42446,16.58917 -34.83859,22.90845 -2.814,1.14576 -5.62164,2.85857 -8.70276,2.97625 -0.23214,-0.0554 -0.42571,-0.23347 -0.49043,-0.463"
         style="fill:none;stroke:#ff0000;stroke-width:0.25;stroke-linecap:square"
         clip-path="url(#pbeba9ad6b0)"
         id="path141" />
    </g>
    <g
       id="line2d_45">
      <path
         d="m 461.4625,339.67788 c -11.58406,8.59348 -23.28243,17.21561 -36.15813,23.79834 -2.97147,1.22238 -5.94064,3.02992 -9.19744,3.16488 -0.2415,-0.0577 -0.44383,-0.24306 -0.51049,-0.48234"
         style="fill:none;stroke:#ff0000;stroke-width:0.25;stroke-linecap:square"
         clip-path="url(#pbeba9ad6b0)"
         id="path144" />
    </g>
    <g
       id="line2d_46">
      <path
         d="m 454.12388,335.44093 c -11.87039,8.82209 -23.87643,17.62911 -37.02816,24.46821 -3.2687,1.39195 -6.5465,3.38263 -10.14163,3.5735 -0.25209,-0.0599 -0.4605,-0.25327 -0.53175,-0.50169"
         style="fill:none;stroke:#ff0000;stroke-width:0.25;stroke-linecap:square"
         clip-path="url(#pbeba9ad6b0)"
         id="path147" />
    </g>
    <g
       id="line2d_47">
      <path
         d="m 446.78526,331.20397 c -12.3247,9.15749 -24.78805,18.30329 -38.44186,25.40418 -3.31279,1.47267 -6.63193,3.29843 -10.26197,3.76353 -0.3579,-0.009 -0.73512,-0.20291 -0.8321,-0.56824"
         style="fill:none;stroke:#ff0000;stroke-width:0.25;stroke-linecap:square"
         clip-path="url(#pbeba9ad6b0)"
         id="path150" />
    </g>
    <g
       id="line2d_48">
      <path
         d="m 439.44664,326.96702 c -12.69494,9.43953 -25.54225,18.84464 -39.58373,26.20709 -3.52512,1.57726 -7.05648,3.54046 -10.92394,4.04093 -0.37076,-0.009 -0.76261,-0.21023 -0.86253,-0.58921"
         style="fill:none;stroke:#ff0000;stroke-width:0.25;stroke-linecap:square"
         clip-path="url(#pbeba9ad6b0)"
         id="path153" />
    </g>
    <g
       id="line2d_49">
      <path
         d="m 432.10801,322.73006 c -13.04529,9.70875 -26.25673,19.36031 -40.66408,26.97354 -3.75088,1.71374 -7.52348,3.79601 -11.64743,4.35478 -0.38295,-0.0135 -0.79026,-0.21484 -0.89306,-0.61039"
         style="fill:none;stroke:#ff0000;stroke-width:0.25;stroke-linecap:square"
         clip-path="url(#pbeba9ad6b0)"
         id="path156" />
    </g>
    <g
       id="line2d_50">
      <path
         d="m 424.76939,318.49311 c -13.31933,9.92884 -26.82665,19.75793 -41.49884,27.61508 -4.05432,1.8977 -8.14579,4.15837 -12.61652,4.79347 -0.39699,-0.0153 -0.81627,-0.22153 -0.92457,-0.63136"
         style="fill:none;stroke:#ff0000;stroke-width:0.25;stroke-linecap:square"
         clip-path="url(#pbeba9ad6b0)"
         id="path159" />
    </g>
    <g
       id="line2d_51">
      <path
         d="m 417.43077,314.25615 c -13.0453,9.70875 -26.25673,19.36031 -40.66408,26.97354 -3.75089,1.71374 -7.52348,3.79601 -11.64743,4.35478 -0.38295,-0.0135 -0.79027,-0.21483 -0.89307,-0.61039"
         style="fill:none;stroke:#ff0000;stroke-width:0.25;stroke-linecap:square"
         clip-path="url(#pbeba9ad6b0)"
         id="path162" />
    </g>
    <g
       id="line2d_52">
      <path
         d="m 410.09215,310.0192 c -12.69494,9.43953 -25.54225,18.84464 -39.58373,26.20709 -3.52512,1.57726 -7.05648,3.54046 -10.92394,4.04093 -0.37065,-0.009 -0.76274,-0.21017 -0.86243,-0.58921"
         style="fill:none;stroke:#ff0000;stroke-width:0.25;stroke-linecap:square"
         clip-path="url(#pbeba9ad6b0)"
         id="path165" />
    </g>
    <g
       id="line2d_53">
      <path
         d="m 402.75353,305.78224 c -12.3247,9.1575 -24.78805,18.30329 -38.44186,25.40418 -3.31278,1.47273 -6.63196,3.29832 -10.26197,3.76364 -0.35789,-0.009 -0.73511,-0.20307 -0.8321,-0.56834"
         style="fill:none;stroke:#ff0000;stroke-width:0.25;stroke-linecap:square"
         clip-path="url(#pbeba9ad6b0)"
         id="path168" />
    </g>
    <g
       id="line2d_54">
      <path
         d="m 395.41491,301.54528 c -11.87038,8.8221 -23.87643,17.62911 -37.02816,24.46821 -3.2687,1.39195 -6.5465,3.38263 -10.14164,3.57351 -0.25209,-0.0599 -0.4605,-0.25325 -0.53175,-0.50168"
         style="fill:none;stroke:#ff0000;stroke-width:0.25;stroke-linecap:square"
         clip-path="url(#pbeba9ad6b0)"
         id="path171" />
    </g>
    <g
       id="line2d_55">
      <path
         d="m 388.07628,297.30833 c -11.58406,8.59348 -23.28243,17.21561 -36.15814,23.79834 -2.97146,1.22237 -5.94062,3.02993 -9.19743,3.16487 -0.24145,-0.0577 -0.4438,-0.24302 -0.51049,-0.48224"
         style="fill:none;stroke:#ff0000;stroke-width:0.25;stroke-linecap:square"
         clip-path="url(#pbeba9ad6b0)"
         id="path174" />
    </g>
    <g
       id="line2d_56">
      <path
         d="m 380.73766,293.07137 c -11.1611,8.27242 -22.42446,16.58918 -34.83859,22.90846 -2.814,1.14576 -5.62164,2.85857 -8.70276,2.97625 -0.23213,-0.0554 -0.42572,-0.23346 -0.49043,-0.46299"
         style="fill:none;stroke:#ff0000;stroke-width:0.25;stroke-linecap:square"
         clip-path="url(#pbeba9ad6b0)"
         id="path177" />
    </g>
    <g
       id="line2d_57">
      <path
         d="m 373.39904,288.83442 c -10.77985,7.98127 -21.64728,16.03209 -33.66102,22.08239 -2.61077,1.03868 -5.21104,2.64138 -8.0661,2.7238 -0.22288,-0.0529 -0.40746,-0.22386 -0.47029,-0.44362"
         style="fill:none;stroke:#ff0000;stroke-width:0.25;stroke-linecap:square"
         clip-path="url(#pbeba9ad6b0)"
         id="path180" />
    </g>
    <g
       id="line2d_58">
      <path
         d="m 366.06042,284.59746 c -10.39756,7.69208 -20.87096,15.47345 -32.48346,21.25633 -2.4548,0.89315 -4.93567,2.60831 -7.60439,2.39907 -0.13442,-0.0747 -0.23142,-0.20618 -0.27418,-0.3521"
         style="fill:none;stroke:#ff0000;stroke-width:0.25;stroke-linecap:square"
         clip-path="url(#pbeba9ad6b0)"
         id="path183" />
    </g>
    <g
       id="line2d_59">
      <path
         d="m 358.7218,280.36051 c -9.99772,7.39039 -20.06197,14.8844 -31.24721,20.40275 -2.26827,0.80759 -4.55744,2.4018 -7.01847,2.17744 -0.12873,-0.0712 -0.22042,-0.19697 -0.26197,-0.3361"
         style="fill:none;stroke:#ff0000;stroke-width:0.25;stroke-linecap:square"
         clip-path="url(#pbeba9ad6b0)"
         id="path186" />
    </g>
    <g
       id="line2d_60">
      <path
         d="m 351.38317,276.12355 c -9.60907,7.08442 -19.26116,14.31603 -30.03541,19.55501 -2.09466,0.69967 -4.28913,2.33503 -6.52016,1.86448 -0.0657,-0.0648 -0.11018,-0.14749 -0.1377,-0.2346"
         style="fill:none;stroke:#ff0000;stroke-width:0.25;stroke-linecap:square"
         clip-path="url(#pbeba9ad6b0)"
         id="path189" />
    </g>
    <g
       id="line2d_61">
      <path
         d="m 344.04455,271.8866 c -9.24974,6.806 -18.52448,13.79577 -28.93178,18.75573 -1.8631,0.60178 -3.81998,2.05851 -5.79601,1.59271 -0.0628,-0.0614 -0.10413,-0.1404 -0.1312,-0.2229"
         style="fill:none;stroke:#ff0000;stroke-width:0.25;stroke-linecap:square"
         clip-path="url(#pbeba9ad6b0)"
         id="path192" />
    </g>
    <g
       id="line2d_62">
      <path
         d="m 336.70593,267.64964 c -8.84571,6.50268 -17.70604,13.20691 -27.68699,17.8884 -1.6769,0.48853 -3.55973,1.97926 -5.27722,1.30858 -0.025,-0.0408 -0.0458,-0.0846 -0.0593,-0.1306"
         style="fill:none;stroke:#ff0000;stroke-width:0.25;stroke-linecap:square"
         clip-path="url(#pbeba9ad6b0)"
         id="path195" />
    </g>
    <g
       id="line2d_63">
      <path
         d="m 329.36731,263.41269 c -8.44406,6.20013 -16.89309,12.6197 -26.44976,17.02432 -1.47411,0.37295 -3.27427,1.85203 -4.71771,1.04101 l -0.0168,-0.0432 -0.005,-0.0152"
         style="fill:none;stroke:#ff0000;stroke-width:0.25;stroke-linecap:square"
         clip-path="url(#pbeba9ad6b0)"
         id="path198" />
    </g>
    <g
       id="line2d_64">
      <path
         d="m 322.02869,259.17573 c -8.10376,5.91841 -16.17916,12.13278 -25.39785,16.23267 -1.09175,0.22973 -3.00965,1.6551 -3.95705,0.71522"
         style="fill:none;stroke:#ff0000;stroke-width:0.25;stroke-linecap:square"
         clip-path="url(#pbeba9ad6b0)"
         id="path201" />
    </g>
    <g
       id="line2d_65">
      <path
         d="m 314.69007,254.93878 c -7.73144,5.6296 -15.4171,11.5978 -24.25786,15.39833 -0.93259,0.18282 -2.47798,1.3577 -3.26147,0.49018"
         style="fill:none;stroke:#ff0000;stroke-width:0.25;stroke-linecap:square"
         clip-path="url(#pbeba9ad6b0)"
         id="path204" />
    </g>
    <g
       id="line2d_66">
      <path
         d="m 534.84872,382.04743 c -8.42921,3.08141 -17.04818,6.22381 -24.36437,11.53717 -1.24874,1.1621 -3.06353,2.51284 -3.1556,4.35144"
         style="fill:none;stroke:#0000ff;stroke-width:0.25;stroke-linecap:square"
         clip-path="url(#pbeba9ad6b0)"
         id="path207" />
    </g>
    <g
       id="line2d_67">
      <path
         d="m 527.5101,377.81048 c -8.97689,3.28061 -18.14847,6.63447 -25.95072,12.27657 -1.36383,1.23911 -3.2928,2.70288 -3.40417,4.67123"
         style="fill:none;stroke:#0000ff;stroke-width:0.25;stroke-linecap:square"
         clip-path="url(#pbeba9ad6b0)"
         id="path210" />
    </g>
    <g
       id="line2d_68">
      <path
         d="m 520.17147,373.57352 c -9.4407,3.43647 -19.0499,6.98872 -27.30463,12.83384 -1.54953,1.35225 -3.73741,2.98285 -3.88419,5.17326"
         style="fill:none;stroke:#0000ff;stroke-width:0.25;stroke-linecap:square"
         clip-path="url(#pbeba9ad6b0)"
         id="path213" />
    </g>
    <g
       id="line2d_69">
      <path
         d="m 512.83285,369.33657 c -9.90374,3.59294 -19.95278,7.34198 -28.65856,13.3911 -1.72485,1.48926 -4.18283,3.23757 -4.36522,5.6752"
         style="fill:none;stroke:#0000ff;stroke-width:0.25;stroke-linecap:square"
         clip-path="url(#pbeba9ad6b0)"
         id="path216" />
    </g>
    <g
       id="line2d_70">
      <path
         d="m 505.49423,365.09961 c -10.39919,3.76085 -20.93014,7.71223 -30.0924,14.01851 -1.88642,1.60119 -4.53852,3.4608 -4.76625,6.10699"
         style="fill:none;stroke:#0000ff;stroke-width:0.25;stroke-linecap:square"
         clip-path="url(#pbeba9ad6b0)"
         id="path219" />
    </g>
    <g
       id="line2d_71">
      <path
         d="m 498.15561,360.86266 c -10.84662,3.91579 -21.80943,8.05228 -31.40683,14.558 -2.0773,1.71253 -5.01238,3.75021 -5.28593,6.62672"
         style="fill:none;stroke:#0000ff;stroke-width:0.25;stroke-linecap:square"
         clip-path="url(#pbeba9ad6b0)"
         id="path222" />
    </g>
    <g
       id="line2d_72">
      <path
         d="m 490.81699,356.6257 c -11.29636,4.06707 -22.68435,8.39866 -32.72125,15.09749 -2.25703,1.82287 -5.4992,4.04592 -5.80642,7.14654"
         style="fill:none;stroke:#0000ff;stroke-width:0.25;stroke-linecap:square"
         clip-path="url(#pbeba9ad6b0)"
         id="path225" />
    </g>
    <g
       id="line2d_73">
      <path
         d="m 483.47837,352.38875 c -11.83448,4.26066 -23.76398,8.79903 -34.27941,15.81642 -2.44851,1.95555 -5.57298,4.11826 -6.10477,7.4024 l 0.0154,0.064 0.006,0.0204"
         style="fill:none;stroke:#0000ff;stroke-width:0.25;stroke-linecap:square"
         clip-path="url(#pbeba9ad6b0)"
         id="path228" />
    </g>
    <g
       id="line2d_74">
      <path
         d="m 476.13974,348.15179 c -12.25334,4.40403 -24.58641,9.11426 -35.5126,16.30939 -2.70287,2.05883 -5.95214,4.35644 -6.72348,7.84521 0.004,0.0707 0.0188,0.14008 0.0385,0.20783"
         style="fill:none;stroke:#0000ff;stroke-width:0.25;stroke-linecap:square"
         clip-path="url(#pbeba9ad6b0)"
         id="path231" />
    </g>
    <g
       id="line2d_75">
      <path
         d="m 468.80112,343.91484 c -12.69155,4.54643 -25.43841,9.445 -36.78654,16.83068 -2.91879,2.18857 -6.44228,4.62763 -7.28595,8.37412 0.007,0.0731 0.0174,0.14703 0.0409,0.21692"
         style="fill:none;stroke:#0000ff;stroke-width:0.25;stroke-linecap:square"
         clip-path="url(#pbeba9ad6b0)"
         id="path234" />
    </g>
    <g
       id="line2d_76">
      <path
         d="m 461.4625,339.67788 c -13.1242,4.6977 -26.29206,9.77329 -38.06047,17.35198 -3.12699,2.27999 -6.72441,4.82267 -7.84943,8.70558 -0.008,0.14185 4.7e-4,0.28728 0.0433,0.42347"
         style="fill:none;stroke:#0000ff;stroke-width:0.25;stroke-linecap:square"
         clip-path="url(#pbeba9ad6b0)"
         id="path237" />
    </g>
    <g
       id="line2d_77">
      <path
         d="m 454.12388,335.44093 c -13.47903,4.81579 -26.98057,10.04309 -39.11533,17.73673 -3.42053,2.43265 -7.38795,5.14877 -8.63088,9.36312 -0.009,0.14764 9.7e-4,0.29852 0.0447,0.44038"
         style="fill:none;stroke:#0000ff;stroke-width:0.25;stroke-linecap:square"
         clip-path="url(#pbeba9ad6b0)"
         id="path240" />
    </g>
    <g
       id="line2d_78">
      <path
         d="m 446.78526,331.20397 c -13.89927,4.95933 -27.80679,10.35964 -40.34793,18.23909 -3.62632,2.50126 -7.62194,5.31823 -9.19579,9.60948 -0.0478,0.24593 -0.0669,0.5079 0.007,0.75086"
         style="fill:none;stroke:#0000ff;stroke-width:0.25;stroke-linecap:square"
         clip-path="url(#pbeba9ad6b0)"
         id="path243" />
    </g>
    <g
       id="line2d_79">
      <path
         d="m 439.44664,326.96702 c -14.31923,5.1032 -28.6335,10.67568 -41.58053,18.74143 -3.86074,2.63381 -8.11343,5.59159 -9.79814,10.13857 -0.0493,0.25493 -0.0691,0.52732 0.009,0.77873"
         style="fill:none;stroke:#0000ff;stroke-width:0.25;stroke-linecap:square"
         clip-path="url(#pbeba9ad6b0)"
         id="path246" />
    </g>
    <g
       id="line2d_80">
      <path
         d="m 432.10801,322.73006 c -14.70068,5.22944 -29.37972,10.96007 -42.70121,19.17928 -4.13773,2.77321 -8.69871,5.89133 -10.5124,10.73215 -0.0503,0.26434 -0.0716,0.54576 0.009,0.8065"
         style="fill:none;stroke:#0000ff;stroke-width:0.25;stroke-linecap:square"
         clip-path="url(#pbeba9ad6b0)"
         id="path249" />
    </g>
    <g
       id="line2d_81">
      <path
         d="m 424.76939,318.49311 c -15.01252,5.3327 -29.98439,11.19658 -43.63634,19.49921 -4.46885,2.94812 -9.44469,6.23663 -11.41222,11.44364 -0.0512,0.27377 -0.0741,0.56419 0.009,0.83428"
         style="fill:none;stroke:#0000ff;stroke-width:0.25;stroke-linecap:square"
         clip-path="url(#pbeba9ad6b0)"
         id="path252" />
    </g>
    <g
       id="line2d_82">
      <path
         d="m 417.43077,314.25615 c -14.70068,5.22943 -29.37972,10.96007 -42.70121,19.17927 -4.13773,2.77322 -8.69872,5.89133 -10.5124,10.73216 -0.0503,0.26434 -0.0716,0.54576 0.009,0.8065"
         style="fill:none;stroke:#0000ff;stroke-width:0.25;stroke-linecap:square"
         clip-path="url(#pbeba9ad6b0)"
         id="path255" />
    </g>
    <g
       id="line2d_83">
      <path
         d="m 410.09215,310.0192 c -14.31923,5.1032 -28.6335,10.67568 -41.58053,18.74143 -3.86074,2.63381 -8.11343,5.5916 -9.79813,10.13857 -0.0493,0.25493 -0.0691,0.52732 0.009,0.77873"
         style="fill:none;stroke:#0000ff;stroke-width:0.25;stroke-linecap:square"
         clip-path="url(#pbeba9ad6b0)"
         id="path258" />
    </g>
    <g
       id="line2d_84">
      <path
         d="m 402.75353,305.78224 c -13.89927,4.95934 -27.8068,10.35963 -40.34793,18.23909 -3.62632,2.50126 -7.62194,5.31823 -9.19579,9.60948 -0.0478,0.24593 -0.0669,0.5079 0.007,0.75086"
         style="fill:none;stroke:#0000ff;stroke-width:0.25;stroke-linecap:square"
         clip-path="url(#pbeba9ad6b0)"
         id="path261" />
    </g>
    <g
       id="line2d_85">
      <path
         d="m 395.41491,301.54528 c -13.47903,4.81581 -26.98058,10.0431 -39.11534,17.73674 -3.42053,2.43265 -7.38794,5.14878 -8.63088,9.36312 -0.009,0.14764 9.8e-4,0.29851 0.0447,0.44037"
         style="fill:none;stroke:#0000ff;stroke-width:0.25;stroke-linecap:square"
         clip-path="url(#pbeba9ad6b0)"
         id="path264" />
    </g>
    <g
       id="line2d_86">
      <path
         d="m 388.07628,297.30833 c -13.1242,4.69769 -26.29206,9.77329 -38.06047,17.35198 -3.12698,2.27999 -6.72441,4.82266 -7.84943,8.70557 -0.009,0.14186 4.6e-4,0.28728 0.0433,0.42348"
         style="fill:none;stroke:#0000ff;stroke-width:0.25;stroke-linecap:square"
         clip-path="url(#pbeba9ad6b0)"
         id="path267" />
    </g>
    <g
       id="line2d_87">
      <path
         d="m 380.73766,293.07137 c -12.69155,4.54645 -25.43841,9.445 -36.78654,16.83069 -2.91878,2.18857 -6.44229,4.62763 -7.28595,8.37412 0.007,0.0731 0.0175,0.14699 0.0409,0.21692"
         style="fill:none;stroke:#0000ff;stroke-width:0.25;stroke-linecap:square"
         clip-path="url(#pbeba9ad6b0)"
         id="path270" />
    </g>
    <g
       id="line2d_88">
      <path
         d="m 373.39904,288.83442 c -12.25334,4.40403 -24.58642,9.11426 -35.51261,16.30939 -2.70287,2.05883 -5.95214,4.35644 -6.72348,7.84521 0.004,0.0707 0.0188,0.14008 0.0385,0.20783"
         style="fill:none;stroke:#0000ff;stroke-width:0.25;stroke-linecap:square"
         clip-path="url(#pbeba9ad6b0)"
         id="path273" />
    </g>
    <g
       id="line2d_89">
      <path
         d="m 366.06042,284.59746 c -11.83447,4.26067 -23.76397,8.79904 -34.27941,15.81642 -2.4485,1.95556 -5.57298,4.11826 -6.10477,7.40241 l 0.0154,0.064 0.006,0.0204"
         style="fill:none;stroke:#0000ff;stroke-width:0.25;stroke-linecap:square"
         clip-path="url(#pbeba9ad6b0)"
         id="path276" />
    </g>
    <g
       id="line2d_90">
      <path
         d="m 358.7218,280.36051 c -11.29637,4.06706 -22.68435,8.39866 -32.72126,15.09749 -2.25703,1.82287 -5.49918,4.04592 -5.80642,7.14653"
         style="fill:none;stroke:#0000ff;stroke-width:0.25;stroke-linecap:square"
         clip-path="url(#pbeba9ad6b0)"
         id="path279" />
    </g>
    <g
       id="line2d_91">
      <path
         d="m 351.38317,276.12355 c -10.84662,3.91581 -21.80942,8.05228 -31.40682,14.558 -2.07731,1.71253 -5.01239,3.75021 -5.28594,6.62673"
         style="fill:none;stroke:#0000ff;stroke-width:0.25;stroke-linecap:square"
         clip-path="url(#pbeba9ad6b0)"
         id="path282" />
    </g>
    <g
       id="line2d_92">
      <path
         d="m 344.04455,271.8866 c -10.39918,3.76085 -20.93014,7.71222 -30.09239,14.0185 -1.88643,1.6012 -4.53853,3.4608 -4.76626,6.107"
         style="fill:none;stroke:#0000ff;stroke-width:0.25;stroke-linecap:square"
         clip-path="url(#pbeba9ad6b0)"
         id="path285" />
    </g>
    <g
       id="line2d_93">
      <path
         d="m 336.70593,267.64964 c -9.90374,3.59294 -19.95277,7.34199 -28.65856,13.3911 -1.72486,1.48926 -4.18283,3.23757 -4.36523,5.6752"
         style="fill:none;stroke:#0000ff;stroke-width:0.25;stroke-linecap:square"
         clip-path="url(#pbeba9ad6b0)"
         id="path288" />
    </g>
    <g
       id="line2d_94">
      <path
         d="m 329.36731,263.41269 c -9.44071,3.43645 -19.0499,6.98873 -27.30464,12.83384 -1.54953,1.35224 -3.73741,2.98286 -3.88419,5.17326"
         style="fill:none;stroke:#0000ff;stroke-width:0.25;stroke-linecap:square"
         clip-path="url(#pbeba9ad6b0)"
         id="path291" />
    </g>
    <g
       id="line2d_95">
      <path
         d="m 322.02869,259.17573 c -8.97689,3.28062 -18.14847,6.63447 -25.95071,12.27658 -1.36386,1.23909 -3.29278,2.70287 -3.40418,4.67122"
         style="fill:none;stroke:#0000ff;stroke-width:0.25;stroke-linecap:square"
         clip-path="url(#pbeba9ad6b0)"
         id="path294" />
    </g>
    <g
       id="line2d_96">
      <path
         d="m 314.69007,254.93878 c -8.42922,3.0814 -17.04819,6.22379 -24.36437,11.53717 -1.24873,1.16208 -3.06357,2.51287 -3.15561,4.35143"
         style="fill:none;stroke:#0000ff;stroke-width:0.25;stroke-linecap:square"
         clip-path="url(#pbeba9ad6b0)"
         id="path297" />
    </g>
    <g
       id="line2d_97">
      <path
         d="M 507.32889,397.93602 C 461.46251,382.04743 415.59612,366.15886 369.72973,350.27027 342.2099,323.7893 314.69007,297.30832 287.17023,270.82736"
         style="fill:none;stroke:#000000;stroke-width:0.8;stroke-dasharray:2.96, 1.28;stroke-dashoffset:0"
         clip-path="url(#pbeba9ad6b0)"
         id="path300" />
    </g>
    <g
       id="line2d_98">
      <path
         d="M 514.20884,393.96387 C 470.63577,376.75124 427.06271,359.5386 383.48964,342.32598 353.67649,317.16905 323.86333,292.01214 294.05019,266.85521"
         style="fill:none;stroke:#008000;stroke-width:0.8;stroke-dasharray:2.96, 1.28;stroke-dashoffset:0"
         clip-path="url(#pbeba9ad6b0)"
         id="path303" />
    </g>
    <g
       id="line2d_99">
      <path
         d="M 534.84872,382.04743 C 461.4625,339.67789 388.07629,297.30833 314.69007,254.93878"
         style="fill:none;stroke:#000000;stroke-width:0.8;stroke-dasharray:2.96, 1.28;stroke-dashoffset:0"
         clip-path="url(#pbeba9ad6b0)"
         id="path306" />
    </g>
    <g
       id="line2d_100">
      <path
         d="M 514.20884,489.29536 C 470.63577,472.08273 427.06271,454.8701 383.48964,437.65747 353.67649,412.50055 323.86334,387.34363 294.05019,362.18671"
         style="fill:none;stroke:#008000;stroke-width:0.8;stroke-dasharray:2.96, 1.28;stroke-dashoffset:0"
         clip-path="url(#pbeba9ad6b0)"
         id="path309" />
    </g>
    <g
       id="line2d_101">
      <path
         d="M 534.84872,477.37893 C 461.46251,435.00937 388.07628,392.63983 314.69007,350.27027"
         style="fill:none;stroke:#ff0000;stroke-width:0.8;stroke-dasharray:2.96, 1.28;stroke-dashoffset:0"
         clip-path="url(#pbeba9ad6b0)"
         id="path312" />
    </g>
    <g
       id="line2d_102">
      <path
         d="M 617.40821,334.38169 C 544.022,292.01213 470.63578,249.64258 397.24956,207.27303"
         style="fill:none;stroke:#008000;stroke-width:0.8;stroke-dasharray:2.96, 1.28;stroke-dashoffset:0"
         clip-path="url(#pbeba9ad6b0)"
         id="path315" />
    </g>
    <g
       id="line2d_103">
      <path
         d="M 617.40821,334.38169 C 544.022,292.01213 470.63578,249.64258 397.24956,207.27303"
         style="fill:none;stroke:#ff0000;stroke-width:0.8;stroke-dasharray:2.96, 1.28;stroke-dashoffset:0"
         clip-path="url(#pbeba9ad6b0)"
         id="path318" />
    </g>
    <g
       id="Poly3DCollection_1">
      <path
         d="m 507.32889,493.26751 c -45.86639,-15.88858 -91.73277,-31.77716 -137.59916,-47.66575 -27.51984,-26.48097 -55.03966,-52.96194 -82.5595,-79.44291 9.17328,-5.29619 18.34656,-10.59239 27.51984,-15.88858 73.38621,42.36956 146.77244,84.7391 220.15865,127.10866 -9.17328,5.29619 -18.34655,10.59239 -27.51983,15.88858 z"
         style="fill-opacity:0.25"
         clip-path="url(#pbeba9ad6b0)"
         id="path321" />
    </g>
  </g>
  <defs
     id="defs329">
    <clipPath
       id="pbeba9ad6b0">
      <rect
         id="rect326"
         y="0"
         x="0"
         width="720"
         height="720" />
    </clipPath>
  </defs>
</svg>
