<?xml version="1.0" encoding="UTF-8" standalone="no"?>
<svg
   inkscape:version="1.1.2 (0a00cf5339, 2022-02-04)"
   sodipodi:docname="flat4_canopy_chords.svg"
   id="svg238"
   width="441.41013pt"
   viewBox="0 0 441.41013 414.19595"
   version="1.1"
   height="414.19595pt"
   xmlns:inkscape="http://www.inkscape.org/namespaces/inkscape"
   xmlns:sodipodi="http://sodipodi.sourceforge.net/DTD/sodipodi-0.dtd"
   xmlns="http://www.w3.org/2000/svg"
   xmlns:svg="http://www.w3.org/2000/svg"
   xmlns:rdf="http://www.w3.org/1999/02/22-rdf-syntax-ns#"
   xmlns:cc="http://creativecommons.org/ns#"
   xmlns:dc="http://purl.org/dc/elements/1.1/">
  <metadata
     id="metadata242">
    <rdf:RDF>
      <cc:Work
         rdf:about="">
        <dc:format>image/svg+xml</dc:format>
        <dc:type
           rdf:resource="http://purl.org/dc/dcmitype/StillImage" />
      </cc:Work>
    </rdf:RDF>
  </metadata>
  <sodipodi:namedview
     inkscape:current-layer="svg238"
     inkscape:window-maximized="1"
     inkscape:window-y="32"
     inkscape:window-x="0"
     inkscape:cy="309.7076"
     inkscape:cx="207.7193"
     inkscape:zoom="1.06875"
     showgrid="false"
     id="namedview240"
     inkscape:window-height="1371"
     inkscape:window-width="2560"
     inkscape:pageshadow="2"
     inkscape:pageopacity="0"
     guidetolerance="10"
     gridtolerance="10"
     objecttolerance="10"
     borderopacity="1"
     bordercolor="#666666"
     pagecolor="#ffffff"
     inkscape:pagecheckerboard="0"
     inkscape:document-units="pt"
     inkscape:snap-page="true" />
  <defs
     id="defs4">
    <style
       id="style2"
       type="text/css">
*{stroke-linecap:butt;stroke-linejoin:round;}
  </style>
  </defs>
  <rect
     style="fill:#ffffff;stroke-width:0.75;stroke-linecap:round"
     id="rect994"
     width="441.4101"
     height="414.19598"
     x="0"
     y="0" />
  <g
     transform="translate(-204.06433,-127.28371)"
     id="axes_1">
    <g
       id="line2d_1">
      <path
         d="M 644.92804,445.60176 C 553.19527,392.63982 461.4625,339.67788 369.72973,286.71594"
         style="fill:none;stroke:#d3d3d3;stroke-width:0.8;stroke-linecap:square"
         clip-path="url(#p3ab0d63edc)"
         id="path12" />
    </g>
    <g
       id="line2d_2">
      <path
         d="M 617.40821,461.49034 C 525.67544,408.5284 433.94267,355.56646 342.2099,302.60452"
         style="fill:none;stroke:#d3d3d3;stroke-width:0.8;stroke-linecap:square"
         clip-path="url(#p3ab0d63edc)"
         id="path15" />
    </g>
    <g
       id="line2d_3">
      <path
         d="M 589.88838,477.37893 C 498.15561,424.41699 406.42284,371.45505 314.69007,318.49311"
         style="fill:none;stroke:#d3d3d3;stroke-width:0.8;stroke-linecap:square"
         clip-path="url(#p3ab0d63edc)"
         id="path18" />
    </g>
    <g
       id="line2d_4">
      <path
         d="M 562.36855,493.26751 C 470.63578,440.30557 378.903,387.34363 287.17023,334.38169"
         style="fill:none;stroke:#d3d3d3;stroke-width:0.8;stroke-linecap:square"
         clip-path="url(#p3ab0d63edc)"
         id="path21" />
    </g>
    <g
       id="line2d_5">
      <path
         d="M 534.84872,509.15609 C 443.11595,456.19415 351.38317,403.23221 259.6504,350.27027"
         style="fill:none;stroke:#d3d3d3;stroke-width:0.8;stroke-linecap:square"
         clip-path="url(#p3ab0d63edc)"
         id="path24" />
    </g>
    <g
       id="line2d_6">
      <path
         d="M 507.32889,525.04467 C 415.59612,472.08273 323.86334,419.12079 232.13057,366.15885"
         style="fill:none;stroke:#d3d3d3;stroke-width:0.8;stroke-linecap:square"
         clip-path="url(#p3ab0d63edc)"
         id="path27" />
    </g>
    <g
       id="line2d_7">
      <path
         d="M 479.80906,540.93326 C 388.07629,487.97132 296.34351,435.00937 204.61074,382.04743"
         style="fill:none;stroke:#d3d3d3;stroke-width:0.8;stroke-linecap:square"
         clip-path="url(#p3ab0d63edc)"
         id="path30" />
    </g>
    <g
       id="line2d_8">
      <path
         d="m 644.92804,445.60176 c -55.03966,31.77717 -110.07932,63.55433 -165.11898,95.3315"
         style="fill:none;stroke:#d3d3d3;stroke-width:0.8;stroke-linecap:square"
         clip-path="url(#p3ab0d63edc)"
         id="path33" />
    </g>
    <g
       id="line2d_9">
      <path
         d="m 644.92804,286.71594 c 0,52.96194 0,105.92388 0,158.88582"
         style="fill:none;stroke:#d3d3d3;stroke-width:0.8;stroke-linecap:square"
         clip-path="url(#p3ab0d63edc)"
         id="path36" />
    </g>
    <g
       id="line2d_10">
      <path
         d="m 617.40821,429.71318 c -55.03966,31.77716 -110.07933,63.55433 -165.11899,95.33149"
         style="fill:none;stroke:#d3d3d3;stroke-width:0.8;stroke-linecap:square"
         clip-path="url(#p3ab0d63edc)"
         id="path39" />
    </g>
    <g
       id="line2d_11">
      <path
         d="m 617.40821,270.82736 c 0,52.96194 0,105.92388 0,158.88582"
         style="fill:none;stroke:#d3d3d3;stroke-width:0.8;stroke-linecap:square"
         clip-path="url(#p3ab0d63edc)"
         id="path42" />
    </g>
    <g
       id="line2d_12">
      <path
         d="m 589.88838,413.8246 c -55.03966,31.77716 -110.07933,63.55433 -165.11899,95.33149"
         style="fill:none;stroke:#d3d3d3;stroke-width:0.8;stroke-linecap:square"
         clip-path="url(#p3ab0d63edc)"
         id="path45" />
    </g>
    <g
       id="line2d_13">
      <path
         d="m 589.88838,254.93878 c 0,52.96194 0,105.92388 0,158.88582"
         style="fill:none;stroke:#d3d3d3;stroke-width:0.8;stroke-linecap:square"
         clip-path="url(#p3ab0d63edc)"
         id="path48" />
    </g>
    <g
       id="line2d_14">
      <path
         d="m 562.36855,397.93602 c -55.03966,31.77716 -110.07933,63.55433 -165.11899,95.33149"
         style="fill:none;stroke:#d3d3d3;stroke-width:0.8;stroke-linecap:square"
         clip-path="url(#p3ab0d63edc)"
         id="path51" />
    </g>
    <g
       id="line2d_15">
      <path
         d="m 562.36855,239.05019 c 0,52.96194 0,105.92389 0,158.88583"
         style="fill:none;stroke:#d3d3d3;stroke-width:0.8;stroke-linecap:square"
         clip-path="url(#p3ab0d63edc)"
         id="path54" />
    </g>
    <g
       id="line2d_16">
      <path
         d="m 534.84872,382.04743 c -55.03966,31.77717 -110.07933,63.55433 -165.11899,95.3315"
         style="fill:none;stroke:#d3d3d3;stroke-width:0.8;stroke-linecap:square"
         clip-path="url(#p3ab0d63edc)"
         id="path57" />
    </g>
    <g
       id="line2d_17">
      <path
         d="m 534.84872,223.16161 c 0,52.96194 0,105.92388 0,158.88582"
         style="fill:none;stroke:#d3d3d3;stroke-width:0.8;stroke-linecap:square"
         clip-path="url(#p3ab0d63edc)"
         id="path60" />
    </g>
    <g
       id="line2d_18">
      <path
         d="M 507.32889,366.15885 C 452.28923,397.93601 397.24956,429.71318 342.2099,461.49034"
         style="fill:none;stroke:#d3d3d3;stroke-width:0.8;stroke-linecap:square"
         clip-path="url(#p3ab0d63edc)"
         id="path63" />
    </g>
    <g
       id="line2d_19">
      <path
         d="m 507.32889,207.27303 c 0,52.96194 0,105.92388 0,158.88582"
         style="fill:none;stroke:#d3d3d3;stroke-width:0.8;stroke-linecap:square"
         clip-path="url(#p3ab0d63edc)"
         id="path66" />
    </g>
    <g
       id="line2d_20">
      <path
         d="M 479.80906,350.27027 C 424.7694,382.04743 369.72973,413.8246 314.69007,445.60176"
         style="fill:none;stroke:#d3d3d3;stroke-width:0.8;stroke-linecap:square"
         clip-path="url(#p3ab0d63edc)"
         id="path69" />
    </g>
    <g
       id="line2d_21">
      <path
         d="m 479.80906,191.38445 c 0,52.96194 0,105.92388 0,158.88582"
         style="fill:none;stroke:#d3d3d3;stroke-width:0.8;stroke-linecap:square"
         clip-path="url(#p3ab0d63edc)"
         id="path72" />
    </g>
    <g
       id="line2d_22">
      <path
         d="m 452.28922,334.38169 c -55.03966,31.77716 -110.07933,63.55433 -165.11899,95.33149"
         style="fill:none;stroke:#d3d3d3;stroke-width:0.8;stroke-linecap:square"
         clip-path="url(#p3ab0d63edc)"
         id="path75" />
    </g>
    <g
       id="line2d_23">
      <path
         d="m 452.28922,175.49587 c 0,52.96194 0,105.92388 0,158.88582"
         style="fill:none;stroke:#d3d3d3;stroke-width:0.8;stroke-linecap:square"
         clip-path="url(#p3ab0d63edc)"
         id="path78" />
    </g>
    <g
       id="line2d_24">
      <path
         d="M 424.76939,318.49311 C 369.72973,350.27027 314.69006,382.04744 259.6504,413.8246"
         style="fill:none;stroke:#d3d3d3;stroke-width:0.8;stroke-linecap:square"
         clip-path="url(#p3ab0d63edc)"
         id="path81" />
    </g>
    <g
       id="line2d_25">
      <path
         d="m 424.76939,159.60728 c 0,52.96194 0,105.92389 0,158.88583"
         style="fill:none;stroke:#d3d3d3;stroke-width:0.8;stroke-linecap:square"
         clip-path="url(#p3ab0d63edc)"
         id="path84" />
    </g>
    <g
       id="line2d_26">
      <path
         d="m 397.24956,302.60452 c -55.03966,31.77717 -110.07933,63.55433 -165.11899,95.3315"
         style="fill:none;stroke:#d3d3d3;stroke-width:0.8;stroke-linecap:square"
         clip-path="url(#p3ab0d63edc)"
         id="path87" />
    </g>
    <g
       id="line2d_27">
      <path
         d="m 397.24956,143.7187 c 0,52.96194 0,105.92388 0,158.88582"
         style="fill:none;stroke:#d3d3d3;stroke-width:0.8;stroke-linecap:square"
         clip-path="url(#p3ab0d63edc)"
         id="path90" />
    </g>
    <g
       id="line2d_28">
      <path
         d="M 369.72973,286.71594 C 314.69007,318.4931 259.6504,350.27027 204.61074,382.04743"
         style="fill:none;stroke:#d3d3d3;stroke-width:0.8;stroke-linecap:square"
         clip-path="url(#p3ab0d63edc)"
         id="path93" />
    </g>
    <g
       id="line2d_29">
      <path
         d="m 369.72973,127.83012 c 0,52.96194 0,105.92388 0,158.88582"
         style="fill:none;stroke:#d3d3d3;stroke-width:0.8;stroke-linecap:square"
         clip-path="url(#p3ab0d63edc)"
         id="path96" />
    </g>
    <g
       id="line2d_30">
      <path
         d="M 644.92804,286.71594 C 553.19527,233.754 461.4625,180.79206 369.72973,127.83012"
         style="fill:none;stroke:#d3d3d3;stroke-width:0.8;stroke-linecap:square"
         clip-path="url(#p3ab0d63edc)"
         id="path99" />
    </g>
    <g
       id="line2d_31">
      <path
         d="M 644.92804,318.49311 C 553.19527,265.53117 461.4625,212.56922 369.72973,159.60728"
         style="fill:none;stroke:#d3d3d3;stroke-width:0.8;stroke-linecap:square"
         clip-path="url(#p3ab0d63edc)"
         id="path102" />
    </g>
    <g
       id="line2d_32">
      <path
         d="M 644.92804,350.27027 C 553.19527,297.30833 461.4625,244.34639 369.72973,191.38445"
         style="fill:none;stroke:#d3d3d3;stroke-width:0.8;stroke-linecap:square"
         clip-path="url(#p3ab0d63edc)"
         id="path105" />
    </g>
    <g
       id="line2d_33">
      <path
         d="M 644.92804,382.04743 C 553.19527,329.08549 461.4625,276.12355 369.72973,223.16161"
         style="fill:none;stroke:#d3d3d3;stroke-width:0.8;stroke-linecap:square"
         clip-path="url(#p3ab0d63edc)"
         id="path108" />
    </g>
    <g
       id="line2d_34">
      <path
         d="M 644.92804,413.8246 C 553.19527,360.86266 461.4625,307.90072 369.72973,254.93878"
         style="fill:none;stroke:#d3d3d3;stroke-width:0.8;stroke-linecap:square"
         clip-path="url(#p3ab0d63edc)"
         id="path111" />
    </g>
    <g
       id="line2d_35">
      <path
         d="m 529.69193,358.16549 c -16.62762,18.55306 -33.25529,37.10608 -49.88289,55.65915"
         style="fill:none;stroke:#000000;stroke-width:0.5;stroke-linecap:square"
         clip-path="url(#p3ab0d63edc)"
         id="path114" />
    </g>
    <g
       id="line2d_36">
      <path
         d="m 524.52056,358.87578 c -17.35003,16.90392 -34.70001,33.80789 -52.05008,50.71177"
         style="fill:none;stroke:#000000;stroke-width:0.5;stroke-linecap:square"
         clip-path="url(#p3ab0d63edc)"
         id="path117" />
    </g>
    <g
       id="line2d_37">
      <path
         d="m 518.51226,359.04417 c -17.79345,15.4355 -35.58694,30.87095 -53.38037,46.30648"
         style="fill:none;stroke:#000000;stroke-width:0.5;stroke-linecap:square"
         clip-path="url(#p3ab0d63edc)"
         id="path120" />
    </g>
    <g
       id="line2d_38">
      <path
         d="m 511.95617,358.54456 c -18.05434,14.18973 -36.10869,28.37945 -54.163,42.56921"
         style="fill:none;stroke:#000000;stroke-width:0.5;stroke-linecap:square"
         clip-path="url(#p3ab0d63edc)"
         id="path123" />
    </g>
    <g
       id="line2d_39">
      <path
         d="m 505.05659,357.35366 c -18.20068,13.17437 -36.40134,26.34877 -54.60204,39.52311"
         style="fill:none;stroke:#000000;stroke-width:0.5;stroke-linecap:square"
         clip-path="url(#p3ab0d63edc)"
         id="path126" />
    </g>
    <g
       id="line2d_40">
      <path
         d="m 497.9513,355.5097 c -18.27846,12.37673 -36.55693,24.75343 -54.83539,37.13015"
         style="fill:none;stroke:#000000;stroke-width:0.5;stroke-linecap:square"
         clip-path="url(#p3ab0d63edc)"
         id="path129" />
    </g>
    <g
       id="line2d_41">
      <path
         d="m 490.72901,353.0845 c -18.31724,11.77273 -36.63436,23.54566 -54.95168,35.31826"
         style="fill:none;stroke:#000000;stroke-width:0.5;stroke-linecap:square"
         clip-path="url(#p3ab0d63edc)"
         id="path132" />
    </g>
    <g
       id="line2d_42">
      <path
         d="m 483.44407,350.16535 c -18.33516,11.3335 -36.67024,22.66712 -55.00545,34.00055"
         style="fill:none;stroke:#000000;stroke-width:0.5;stroke-linecap:square"
         clip-path="url(#p3ab0d63edc)"
         id="path135" />
    </g>
    <g
       id="line2d_43">
      <path
         d="m 476.12796,346.8435 c -18.34264,11.02848 -36.68527,22.057 -55.02792,33.08547"
         style="fill:none;stroke:#000000;stroke-width:0.5;stroke-linecap:square"
         clip-path="url(#p3ab0d63edc)"
         id="path138" />
    </g>
    <g
       id="line2d_44">
      <path
         d="m 468.79769,343.20693 c -18.34542,10.82834 -36.69081,21.65674 -55.03625,32.48506"
         style="fill:none;stroke:#000000;stroke-width:0.5;stroke-linecap:square"
         clip-path="url(#p3ab0d63edc)"
         id="path141" />
    </g>
    <g
       id="line2d_45">
      <path
         d="m 461.4617,339.33599 c -18.3463,10.70634 -36.69256,21.41274 -55.03888,32.11904"
         style="fill:none;stroke:#000000;stroke-width:0.5;stroke-linecap:square"
         clip-path="url(#p3ab0d63edc)"
         id="path144" />
    </g>
    <g
       id="line2d_46">
      <path
         d="M 454.12375,335.30078 C 435.77723,345.93988 417.43072,356.579 399.0842,367.2181"
         style="fill:none;stroke:#000000;stroke-width:0.5;stroke-linecap:square"
         clip-path="url(#p3ab0d63edc)"
         id="path147" />
    </g>
    <g
       id="line2d_47">
      <path
         d="m 446.78524,331.15961 c -18.34656,10.60715 -36.69306,21.2144 -55.03966,31.82148"
         style="fill:none;stroke:#000000;stroke-width:0.5;stroke-linecap:square"
         clip-path="url(#p3ab0d63edc)"
         id="path150" />
    </g>
    <g
       id="line2d_48">
      <path
         d="m 439.44664,326.95825 c -18.34656,10.59532 -36.69313,21.19061 -55.03968,31.78595"
         style="fill:none;stroke:#000000;stroke-width:0.5;stroke-linecap:square"
         clip-path="url(#p3ab0d63edc)"
         id="path153" />
    </g>
    <g
       id="line2d_49">
      <path
         d="m 432.10801,322.72951 c -18.34656,10.59255 -36.69307,21.18519 -55.03967,31.77767"
         style="fill:none;stroke:#000000;stroke-width:0.5;stroke-linecap:square"
         clip-path="url(#p3ab0d63edc)"
         id="path156" />
    </g>
    <g
       id="line2d_50">
      <path
         d="m 424.76939,318.49311 c -18.34657,10.59236 -36.69308,21.18482 -55.03968,31.77712"
         style="fill:none;stroke:#000000;stroke-width:0.5;stroke-linecap:square"
         clip-path="url(#p3ab0d63edc)"
         id="path159" />
    </g>
    <g
       id="line2d_51">
      <path
         d="m 417.43077,314.2556 c -18.34655,10.59261 -36.69316,21.18511 -55.03968,31.77777"
         style="fill:none;stroke:#000000;stroke-width:0.5;stroke-linecap:square"
         clip-path="url(#p3ab0d63edc)"
         id="path162" />
    </g>
    <g
       id="line2d_52">
      <path
         d="m 410.09215,310.01043 c -18.34656,10.59532 -36.69313,21.19062 -55.03968,31.78595"
         style="fill:none;stroke:#000000;stroke-width:0.5;stroke-linecap:square"
         clip-path="url(#p3ab0d63edc)"
         id="path165" />
    </g>
    <g
       id="line2d_53">
      <path
         d="m 402.75351,305.73788 c -18.34655,10.60721 -36.69315,21.21431 -55.03966,31.82158"
         style="fill:none;stroke:#000000;stroke-width:0.5;stroke-linecap:square"
         clip-path="url(#p3ab0d63edc)"
         id="path168" />
    </g>
    <g
       id="line2d_54">
      <path
         d="m 395.41477,301.40513 c -18.34651,10.63911 -36.69303,21.27822 -55.03954,31.91733"
         style="fill:none;stroke:#000000;stroke-width:0.5;stroke-linecap:square"
         clip-path="url(#p3ab0d63edc)"
         id="path171" />
    </g>
    <g
       id="line2d_55">
      <path
         d="m 388.07549,296.96644 c -18.34631,10.70633 -36.69257,21.41274 -55.03889,32.11904"
         style="fill:none;stroke:#000000;stroke-width:0.5;stroke-linecap:square"
         clip-path="url(#p3ab0d63edc)"
         id="path174" />
    </g>
    <g
       id="line2d_56">
      <path
         d="m 380.73423,292.36346 c -18.3454,10.82842 -36.69091,21.65666 -55.03625,32.48517"
         style="fill:none;stroke:#000000;stroke-width:0.5;stroke-linecap:square"
         clip-path="url(#p3ab0d63edc)"
         id="path177" />
    </g>
    <g
       id="line2d_57">
      <path
         d="m 373.38726,287.52612 c -18.34264,11.02849 -36.68527,22.057 -55.02792,33.08548"
         style="fill:none;stroke:#000000;stroke-width:0.5;stroke-linecap:square"
         clip-path="url(#p3ab0d63edc)"
         id="path180" />
    </g>
    <g
       id="line2d_58">
      <path
         d="m 366.02612,282.37407 c -18.33514,11.33356 -36.67034,22.66704 -55.00545,34.00065"
         style="fill:none;stroke:#000000;stroke-width:0.5;stroke-linecap:square"
         clip-path="url(#p3ab0d63edc)"
         id="path183" />
    </g>
    <g
       id="line2d_59">
      <path
         d="m 358.63382,276.81931 c -18.31725,11.77272 -36.63436,23.54565 -54.95168,35.31826"
         style="fill:none;stroke:#000000;stroke-width:0.5;stroke-linecap:square"
         clip-path="url(#p3ab0d63edc)"
         id="path186" />
    </g>
    <g
       id="line2d_60">
      <path
         d="m 351.17887,270.7706 c -18.27847,12.37671 -36.55692,24.75343 -54.83539,37.13014"
         style="fill:none;stroke:#000000;stroke-width:0.5;stroke-linecap:square"
         clip-path="url(#p3ab0d63edc)"
         id="path189" />
    </g>
    <g
       id="line2d_61">
      <path
         d="m 343.60692,264.14065 c -18.20068,13.17436 -36.40135,26.34875 -54.60204,39.52311"
         style="fill:none;stroke:#000000;stroke-width:0.5;stroke-linecap:square"
         clip-path="url(#p3ab0d63edc)"
         id="path192" />
    </g>
    <g
       id="line2d_62">
      <path
         d="m 335.82925,256.85763 c -18.05433,14.18974 -36.10868,28.37945 -54.163,42.56921"
         style="fill:none;stroke:#000000;stroke-width:0.5;stroke-linecap:square"
         clip-path="url(#p3ab0d63edc)"
         id="path195" />
    </g>
    <g
       id="line2d_63">
      <path
         d="m 327.70809,248.88333 c -17.79345,15.4355 -35.58693,30.87096 -53.38037,46.30648"
         style="fill:none;stroke:#000000;stroke-width:0.5;stroke-linecap:square"
         clip-path="url(#p3ab0d63edc)"
         id="path198" />
    </g>
    <g
       id="line2d_64">
      <path
         d="M 319.03915,240.24104 C 301.68913,257.145 284.33905,274.0489 266.98907,290.9529"
         style="fill:none;stroke:#000000;stroke-width:0.5;stroke-linecap:square"
         clip-path="url(#p3ab0d63edc)"
         id="path201" />
    </g>
    <g
       id="line2d_65">
      <path
         d="m 309.53328,231.05683 c -16.62763,18.55305 -33.25528,37.10608 -49.88289,55.65915"
         style="fill:none;stroke:#000000;stroke-width:0.5;stroke-linecap:square"
         clip-path="url(#p3ab0d63edc)"
         id="path204" />
    </g>
    <g
       id="line2d_66">
      <path
         d="M 479.80906,413.8246 C 406.42284,371.45505 333.03662,329.08549 259.6504,286.71594"
         style="fill:none;stroke:#000000;stroke-width:0.8;stroke-dasharray:2.96, 1.28;stroke-dashoffset:0"
         clip-path="url(#p3ab0d63edc)"
         id="path207" />
    </g>
    <g
       id="line2d_67">
      <path
         d="m 492.27977,399.90982 c -21.4768,-9.2002 -42.3773,-19.69586 -62.71072,-31.19794 -28.50972,-16.10691 -56.82647,-32.55502 -85.11896,-49.03989 -22.42532,-13.05237 -44.27127,-27.08622 -65.44282,-42.0877 -2.29539,-1.59438 -4.59077,-3.18875 -6.88615,-4.78313"
         style="fill:none;stroke:#008000;stroke-width:0.8;stroke-dasharray:2.96, 1.28;stroke-dashoffset:0"
         clip-path="url(#p3ab0d63edc)"
         id="path210" />
    </g>
    <g
       id="line2d_68">
      <path
         d="m 529.69193,358.16549 c -12.72701,2.28482 -25.75398,-0.37228 -37.76577,-4.679 -20.53544,-7.57996 -39.27922,-19.0951 -58.24868,-29.8526 -23.12307,-13.56647 -46.87244,-26.23018 -68.61919,-41.98708 -16.95855,-12.21854 -31.72444,-27.084 -46.45446,-41.82636 -3.02352,-2.92121 -6.04703,-5.84241 -9.07055,-8.76362"
         style="fill:none;stroke:#000000;stroke-width:0.8;stroke-dasharray:2.96, 1.28;stroke-dashoffset:0"
         clip-path="url(#p3ab0d63edc)"
         id="path213" />
    </g>
    <g
       id="line2d_69">
      <path
         d="M 492.27977,501.95612 C 472.23989,488.41737 450.9901,476.81025 430.13979,464.5928 387.19647,439.86821 344.38159,414.91926 301.33524,390.3744 291.72865,384.9549 282.04281,379.67125 272.12112,374.84746"
         style="fill:none;stroke:#008000;stroke-width:0.8;stroke-dasharray:2.96, 1.28;stroke-dashoffset:0"
         clip-path="url(#p3ab0d63edc)"
         id="path216" />
    </g>
    <g
       id="line2d_70">
      <path
         d="M 479.80906,509.15609 C 406.42284,466.78654 333.03662,424.41699 259.6504,382.04743"
         style="fill:none;stroke:#ff0000;stroke-width:0.8;stroke-dasharray:2.96, 1.28;stroke-dashoffset:0"
         clip-path="url(#p3ab0d63edc)"
         id="path219" />
    </g>
    <g
       id="line2d_71">
      <path
         d="m 617.40821,327.66688 c -30.70943,-10.81895 -58.8341,-27.51642 -87.0243,-43.54319 -28.50746,-16.56988 -57.30422,-32.66089 -85.35986,-49.99407 -16.5556,-10.25881 -32.60582,-21.34469 -47.77449,-33.57139"
         style="fill:none;stroke:#008000;stroke-width:0.8;stroke-dasharray:2.96, 1.28;stroke-dashoffset:0"
         clip-path="url(#p3ab0d63edc)"
         id="path222" />
    </g>
    <g
       id="line2d_72">
      <path
         d="M 617.40821,334.38169 C 544.022,292.01213 470.63578,249.64258 397.24956,207.27303"
         style="fill:none;stroke:#ff0000;stroke-width:0.8;stroke-dasharray:2.96, 1.28;stroke-dashoffset:0"
         clip-path="url(#p3ab0d63edc)"
         id="path225" />
    </g>
    <g
       id="Poly3DCollection_1">
      <path
         d="M 479.80906,509.15609 C 406.42284,466.78654 333.03662,424.41699 259.6504,382.04743 c 16.62763,-9.59996 33.25525,-19.19993 49.88288,-28.79989 10.72655,3.0299 21.01656,7.4074 30.87542,12.5852 21.05994,11.04796 41.42887,23.35209 62.08302,35.12986 31.74345,18.42453 63.67049,36.53556 95.25697,55.22877 9.82857,6.0932 19.95256,12.05025 28.22477,20.21853 0.99799,1.34325 3.2406,2.86921 3.45636,4.09763 -16.54025,9.54952 -33.08051,19.09904 -49.62076,28.64856 z"
         style="fill-opacity:0.25"
         clip-path="url(#p3ab0d63edc)"
         id="path228" />
    </g>
  </g>
  <defs
     id="defs236">
    <clipPath
       id="p3ab0d63edc">
      <rect
         id="rect233"
         y="0"
         x="0"
         width="720"
         height="720" />
    </clipPath>
  </defs>
</svg>
