<?xml version="1.0" encoding="UTF-8" standalone="no"?>
<svg
   xmlns:dc="http://purl.org/dc/elements/1.1/"
   xmlns:cc="http://creativecommons.org/ns#"
   xmlns:rdf="http://www.w3.org/1999/02/22-rdf-syntax-ns#"
   xmlns:svg="http://www.w3.org/2000/svg"
   xmlns="http://www.w3.org/2000/svg"
   xmlns:sodipodi="http://sodipodi.sourceforge.net/DTD/sodipodi-0.dtd"
   xmlns:inkscape="http://www.inkscape.org/namespaces/inkscape"
   inkscape:version="1.0 (4035a4fb49, 2020-05-01)"
   sodipodi:docname="manta3_canopy_airfoils.svg"
   id="svg331"
   width="441.41013pt"
   viewBox="0 0 441.41013 414.19595"
   version="1.1"
   height="414.19595pt">
  <metadata
     id="metadata335">
    <rdf:RDF>
      <cc:Work
         rdf:about="">
        <dc:format>image/svg+xml</dc:format>
        <dc:type
           rdf:resource="http://purl.org/dc/dcmitype/StillImage" />
      </cc:Work>
    </rdf:RDF>
  </metadata>
  <sodipodi:namedview
     inkscape:current-layer="svg331"
     inkscape:window-maximized="0"
     inkscape:window-y="27"
     inkscape:window-x="0"
     inkscape:cy="310.28839"
     inkscape:cx="207.91423"
     inkscape:zoom="1.06875"
     showgrid="false"
     id="namedview333"
     inkscape:window-height="1198"
     inkscape:window-width="1396"
     inkscape:pageshadow="2"
     inkscape:pageopacity="0"
     guidetolerance="10"
     gridtolerance="10"
     objecttolerance="10"
     borderopacity="1"
     bordercolor="#666666"
     pagecolor="#ffffff" />
  <defs
     id="defs4">
    <style
       id="style2"
       type="text/css">
*{stroke-linecap:butt;stroke-linejoin:round;}
  </style>
  </defs>
  <g
     transform="translate(-204.06433,-127.28371)"
     id="axes_1">
    <g
       id="line2d_1">
      <path
         d="M 644.92804,445.60176 C 553.19527,392.63982 461.4625,339.67788 369.72973,286.71594"
         style="fill:none;stroke:#d3d3d3;stroke-width:0.8;stroke-linecap:square"
         clip-path="url(#p40c3f3b4e7)"
         id="path12" />
    </g>
    <g
       id="line2d_2">
      <path
         d="M 617.40821,461.49034 C 525.67544,408.5284 433.94267,355.56646 342.2099,302.60452"
         style="fill:none;stroke:#d3d3d3;stroke-width:0.8;stroke-linecap:square"
         clip-path="url(#p40c3f3b4e7)"
         id="path15" />
    </g>
    <g
       id="line2d_3">
      <path
         d="M 589.88838,477.37893 C 498.15561,424.41699 406.42284,371.45505 314.69007,318.49311"
         style="fill:none;stroke:#d3d3d3;stroke-width:0.8;stroke-linecap:square"
         clip-path="url(#p40c3f3b4e7)"
         id="path18" />
    </g>
    <g
       id="line2d_4">
      <path
         d="M 562.36855,493.26751 C 470.63578,440.30557 378.903,387.34363 287.17023,334.38169"
         style="fill:none;stroke:#d3d3d3;stroke-width:0.8;stroke-linecap:square"
         clip-path="url(#p40c3f3b4e7)"
         id="path21" />
    </g>
    <g
       id="line2d_5">
      <path
         d="M 534.84872,509.15609 C 443.11595,456.19415 351.38317,403.23221 259.6504,350.27027"
         style="fill:none;stroke:#d3d3d3;stroke-width:0.8;stroke-linecap:square"
         clip-path="url(#p40c3f3b4e7)"
         id="path24" />
    </g>
    <g
       id="line2d_6">
      <path
         d="M 507.32889,525.04467 C 415.59612,472.08273 323.86334,419.12079 232.13057,366.15885"
         style="fill:none;stroke:#d3d3d3;stroke-width:0.8;stroke-linecap:square"
         clip-path="url(#p40c3f3b4e7)"
         id="path27" />
    </g>
    <g
       id="line2d_7">
      <path
         d="M 479.80906,540.93326 C 388.07629,487.97132 296.34351,435.00937 204.61074,382.04743"
         style="fill:none;stroke:#d3d3d3;stroke-width:0.8;stroke-linecap:square"
         clip-path="url(#p40c3f3b4e7)"
         id="path30" />
    </g>
    <g
       id="line2d_8">
      <path
         d="m 644.92804,445.60176 c -55.03966,31.77717 -110.07932,63.55433 -165.11898,95.3315"
         style="fill:none;stroke:#d3d3d3;stroke-width:0.8;stroke-linecap:square"
         clip-path="url(#p40c3f3b4e7)"
         id="path33" />
    </g>
    <g
       id="line2d_9">
      <path
         d="m 644.92804,286.71594 c 0,52.96194 0,105.92388 0,158.88582"
         style="fill:none;stroke:#d3d3d3;stroke-width:0.8;stroke-linecap:square"
         clip-path="url(#p40c3f3b4e7)"
         id="path36" />
    </g>
    <g
       id="line2d_10">
      <path
         d="m 617.40821,429.71318 c -55.03966,31.77716 -110.07933,63.55433 -165.11899,95.33149"
         style="fill:none;stroke:#d3d3d3;stroke-width:0.8;stroke-linecap:square"
         clip-path="url(#p40c3f3b4e7)"
         id="path39" />
    </g>
    <g
       id="line2d_11">
      <path
         d="m 617.40821,270.82736 c 0,52.96194 0,105.92388 0,158.88582"
         style="fill:none;stroke:#d3d3d3;stroke-width:0.8;stroke-linecap:square"
         clip-path="url(#p40c3f3b4e7)"
         id="path42" />
    </g>
    <g
       id="line2d_12">
      <path
         d="m 589.88838,413.8246 c -55.03966,31.77716 -110.07933,63.55433 -165.11899,95.33149"
         style="fill:none;stroke:#d3d3d3;stroke-width:0.8;stroke-linecap:square"
         clip-path="url(#p40c3f3b4e7)"
         id="path45" />
    </g>
    <g
       id="line2d_13">
      <path
         d="m 589.88838,254.93878 c 0,52.96194 0,105.92388 0,158.88582"
         style="fill:none;stroke:#d3d3d3;stroke-width:0.8;stroke-linecap:square"
         clip-path="url(#p40c3f3b4e7)"
         id="path48" />
    </g>
    <g
       id="line2d_14">
      <path
         d="m 562.36855,397.93602 c -55.03966,31.77716 -110.07933,63.55433 -165.11899,95.33149"
         style="fill:none;stroke:#d3d3d3;stroke-width:0.8;stroke-linecap:square"
         clip-path="url(#p40c3f3b4e7)"
         id="path51" />
    </g>
    <g
       id="line2d_15">
      <path
         d="m 562.36855,239.05019 c 0,52.96194 0,105.92389 0,158.88583"
         style="fill:none;stroke:#d3d3d3;stroke-width:0.8;stroke-linecap:square"
         clip-path="url(#p40c3f3b4e7)"
         id="path54" />
    </g>
    <g
       id="line2d_16">
      <path
         d="m 534.84872,382.04743 c -55.03966,31.77717 -110.07933,63.55433 -165.11899,95.3315"
         style="fill:none;stroke:#d3d3d3;stroke-width:0.8;stroke-linecap:square"
         clip-path="url(#p40c3f3b4e7)"
         id="path57" />
    </g>
    <g
       id="line2d_17">
      <path
         d="m 534.84872,223.16161 c 0,52.96194 0,105.92388 0,158.88582"
         style="fill:none;stroke:#d3d3d3;stroke-width:0.8;stroke-linecap:square"
         clip-path="url(#p40c3f3b4e7)"
         id="path60" />
    </g>
    <g
       id="line2d_18">
      <path
         d="M 507.32889,366.15885 C 452.28923,397.93601 397.24956,429.71318 342.2099,461.49034"
         style="fill:none;stroke:#d3d3d3;stroke-width:0.8;stroke-linecap:square"
         clip-path="url(#p40c3f3b4e7)"
         id="path63" />
    </g>
    <g
       id="line2d_19">
      <path
         d="m 507.32889,207.27303 c 0,52.96194 0,105.92388 0,158.88582"
         style="fill:none;stroke:#d3d3d3;stroke-width:0.8;stroke-linecap:square"
         clip-path="url(#p40c3f3b4e7)"
         id="path66" />
    </g>
    <g
       id="line2d_20">
      <path
         d="M 479.80906,350.27027 C 424.7694,382.04743 369.72973,413.8246 314.69007,445.60176"
         style="fill:none;stroke:#d3d3d3;stroke-width:0.8;stroke-linecap:square"
         clip-path="url(#p40c3f3b4e7)"
         id="path69" />
    </g>
    <g
       id="line2d_21">
      <path
         d="m 479.80906,191.38445 c 0,52.96194 0,105.92388 0,158.88582"
         style="fill:none;stroke:#d3d3d3;stroke-width:0.8;stroke-linecap:square"
         clip-path="url(#p40c3f3b4e7)"
         id="path72" />
    </g>
    <g
       id="line2d_22">
      <path
         d="m 452.28922,334.38169 c -55.03966,31.77716 -110.07933,63.55433 -165.11899,95.33149"
         style="fill:none;stroke:#d3d3d3;stroke-width:0.8;stroke-linecap:square"
         clip-path="url(#p40c3f3b4e7)"
         id="path75" />
    </g>
    <g
       id="line2d_23">
      <path
         d="m 452.28922,175.49587 c 0,52.96194 0,105.92388 0,158.88582"
         style="fill:none;stroke:#d3d3d3;stroke-width:0.8;stroke-linecap:square"
         clip-path="url(#p40c3f3b4e7)"
         id="path78" />
    </g>
    <g
       id="line2d_24">
      <path
         d="M 424.76939,318.49311 C 369.72973,350.27027 314.69006,382.04744 259.6504,413.8246"
         style="fill:none;stroke:#d3d3d3;stroke-width:0.8;stroke-linecap:square"
         clip-path="url(#p40c3f3b4e7)"
         id="path81" />
    </g>
    <g
       id="line2d_25">
      <path
         d="m 424.76939,159.60728 c 0,52.96194 0,105.92389 0,158.88583"
         style="fill:none;stroke:#d3d3d3;stroke-width:0.8;stroke-linecap:square"
         clip-path="url(#p40c3f3b4e7)"
         id="path84" />
    </g>
    <g
       id="line2d_26">
      <path
         d="m 397.24956,302.60452 c -55.03966,31.77717 -110.07933,63.55433 -165.11899,95.3315"
         style="fill:none;stroke:#d3d3d3;stroke-width:0.8;stroke-linecap:square"
         clip-path="url(#p40c3f3b4e7)"
         id="path87" />
    </g>
    <g
       id="line2d_27">
      <path
         d="m 397.24956,143.7187 c 0,52.96194 0,105.92388 0,158.88582"
         style="fill:none;stroke:#d3d3d3;stroke-width:0.8;stroke-linecap:square"
         clip-path="url(#p40c3f3b4e7)"
         id="path90" />
    </g>
    <g
       id="line2d_28">
      <path
         d="M 369.72973,286.71594 C 314.69007,318.4931 259.6504,350.27027 204.61074,382.04743"
         style="fill:none;stroke:#d3d3d3;stroke-width:0.8;stroke-linecap:square"
         clip-path="url(#p40c3f3b4e7)"
         id="path93" />
    </g>
    <g
       id="line2d_29">
      <path
         d="m 369.72973,127.83012 c 0,52.96194 0,105.92388 0,158.88582"
         style="fill:none;stroke:#d3d3d3;stroke-width:0.8;stroke-linecap:square"
         clip-path="url(#p40c3f3b4e7)"
         id="path96" />
    </g>
    <g
       id="line2d_30">
      <path
         d="M 644.92804,286.71594 C 553.19527,233.754 461.4625,180.79206 369.72973,127.83012"
         style="fill:none;stroke:#d3d3d3;stroke-width:0.8;stroke-linecap:square"
         clip-path="url(#p40c3f3b4e7)"
         id="path99" />
    </g>
    <g
       id="line2d_31">
      <path
         d="M 644.92804,318.49311 C 553.19527,265.53117 461.4625,212.56922 369.72973,159.60728"
         style="fill:none;stroke:#d3d3d3;stroke-width:0.8;stroke-linecap:square"
         clip-path="url(#p40c3f3b4e7)"
         id="path102" />
    </g>
    <g
       id="line2d_32">
      <path
         d="M 644.92804,350.27027 C 553.19527,297.30833 461.4625,244.34639 369.72973,191.38445"
         style="fill:none;stroke:#d3d3d3;stroke-width:0.8;stroke-linecap:square"
         clip-path="url(#p40c3f3b4e7)"
         id="path105" />
    </g>
    <g
       id="line2d_33">
      <path
         d="M 644.92804,382.04743 C 553.19527,329.08549 461.4625,276.12355 369.72973,223.16161"
         style="fill:none;stroke:#d3d3d3;stroke-width:0.8;stroke-linecap:square"
         clip-path="url(#p40c3f3b4e7)"
         id="path108" />
    </g>
    <g
       id="line2d_34">
      <path
         d="M 644.92804,413.8246 C 553.19527,360.86266 461.4625,307.90072 369.72973,254.93878"
         style="fill:none;stroke:#d3d3d3;stroke-width:0.8;stroke-linecap:square"
         clip-path="url(#p40c3f3b4e7)"
         id="path111" />
    </g>
    <g
       id="line2d_35">
      <path
         d="m 589.99846,350.20672 c -0.0342,0.0219 -0.0694,0.0579 -0.10951,0.0633"
         style="fill:none;stroke:#ff0000;stroke-width:0.25;stroke-linecap:square"
         clip-path="url(#p40c3f3b4e7)"
         id="path114" />
    </g>
    <g
       id="line2d_36">
      <path
         d="m 575.56584,350.06548 c -1.17542,0.7514 -2.39847,1.99151 -3.7789,2.18159"
         style="fill:none;stroke:#ff0000;stroke-width:0.25;stroke-linecap:square"
         clip-path="url(#p40c3f3b4e7)"
         id="path117" />
    </g>
    <g
       id="line2d_37">
      <path
         d="m 561.62246,349.64179 c -2.34763,1.55562 -4.62809,3.7669 -7.42083,4.34821 -0.0133,-0.0131 -0.0227,-0.0301 -0.0275,-0.048"
         style="fill:none;stroke:#ff0000;stroke-width:0.25;stroke-linecap:square"
         clip-path="url(#p40c3f3b4e7)"
         id="path120" />
    </g>
    <g
       id="line2d_38">
      <path
         d="m 548.16832,348.93563 c -3.47909,2.41383 -6.85447,5.40309 -10.99424,6.53602 -0.059,-0.0139 -0.10671,-0.0589 -0.1241,-0.1165"
         style="fill:none;stroke:#ff0000;stroke-width:0.25;stroke-linecap:square"
         clip-path="url(#p40c3f3b4e7)"
         id="path123" />
    </g>
    <g
       id="line2d_39">
      <path
         d="m 535.20342,347.94701 c -4.5759,3.21589 -9.02095,7.02168 -14.43644,8.7072 -0.13418,0.0138 -0.31073,-0.0187 -0.35075,-0.16964"
         style="fill:none;stroke:#ff0000;stroke-width:0.25;stroke-linecap:square"
         clip-path="url(#p40c3f3b4e7)"
         id="path126" />
    </g>
    <g
       id="line2d_40">
      <path
         d="m 522.72776,346.67592 c -5.61044,4.00289 -11.10877,8.53345 -17.69693,10.81553 -0.23511,0.0464 -0.65673,0.15165 -0.75985,-0.15975"
         style="fill:none;stroke:#ff0000;stroke-width:0.25;stroke-linecap:square"
         clip-path="url(#p40c3f3b4e7)"
         id="path129" />
    </g>
    <g
       id="line2d_41">
      <path
         d="m 510.74135,345.12237 c -6.58202,4.7357 -13.06871,9.95074 -20.7329,12.82952 -0.38045,0.0733 -1.16397,0.46244 -1.39353,-0.055"
         style="fill:none;stroke:#ff0000;stroke-width:0.25;stroke-linecap:square"
         clip-path="url(#p40c3f3b4e7)"
         id="path132" />
    </g>
    <g
       id="line2d_42">
      <path
         d="m 499.24417,343.28636 c -7.36433,5.34915 -14.66955,11.0701 -23.13312,14.58736 -0.74315,0.14579 -2.08029,1.08546 -2.66206,0.30548"
         style="fill:none;stroke:#ff0000;stroke-width:0.25;stroke-linecap:square"
         clip-path="url(#p40c3f3b4e7)"
         id="path135" />
    </g>
    <g
       id="line2d_43">
      <path
         d="m 488.23624,341.16788 c -8.13415,5.9406 -16.23983,12.17826 -25.49309,16.29354 -1.09573,0.23054 -3.02109,1.66137 -3.97184,0.71784"
         style="fill:none;stroke:#ff0000;stroke-width:0.25;stroke-linecap:square"
         clip-path="url(#p40c3f3b4e7)"
         id="path138" />
    </g>
    <g
       id="line2d_44">
      <path
         d="m 477.71755,338.76694 c -8.87525,6.5235 -17.76467,13.2502 -27.77835,17.94763 -1.68287,0.49034 -3.57198,1.98604 -5.29583,1.31336 -0.0252,-0.041 -0.0461,-0.085 -0.0595,-0.1312"
         style="fill:none;stroke:#ff0000;stroke-width:0.25;stroke-linecap:square"
         clip-path="url(#p40c3f3b4e7)"
         id="path141" />
    </g>
    <g
       id="line2d_45">
      <path
         d="m 467.6881,336.08353 c -9.63766,7.10551 -19.31848,14.35857 -30.1247,19.6133 -2.10099,0.69684 -4.30254,2.34155 -6.54054,1.8704 -0.0658,-0.065 -0.11055,-0.14799 -0.1381,-0.2354"
         style="fill:none;stroke:#ff0000;stroke-width:0.25;stroke-linecap:square"
         clip-path="url(#p40c3f3b4e7)"
         id="path144" />
    </g>
    <g
       id="line2d_46">
      <path
         d="m 458.14789,333.11766 c -10.42546,7.71277 -20.92702,15.51492 -32.57056,21.3136 -2.46196,0.89589 -4.95008,2.616 -7.62662,2.4063 -0.1349,-0.0748 -0.232,-0.20681 -0.27492,-0.3531"
         style="fill:none;stroke:#ff0000;stroke-width:0.25;stroke-linecap:square"
         clip-path="url(#p40c3f3b4e7)"
         id="path147" />
    </g>
    <g
       id="line2d_47">
      <path
         d="m 449.09692,329.86933 c -11.18901,8.2931 -22.48052,16.63063 -34.92568,22.96573 -2.82105,1.14859 -5.63569,2.86572 -8.72452,2.98368 -0.23273,-0.0555 -0.42664,-0.234 -0.49165,-0.46402"
         style="fill:none;stroke:#ff0000;stroke-width:0.25;stroke-linecap:square"
         clip-path="url(#p40c3f3b4e7)"
         id="path150" />
    </g>
    <g
       id="line2d_48">
      <path
         d="m 440.5352,326.33853 c -11.89758,8.84233 -23.93116,17.66949 -37.11298,24.52437 -3.27644,1.39529 -6.56201,3.39068 -10.16567,3.58205 -0.25257,-0.06 -0.46153,-0.25375 -0.53286,-0.50271"
         style="fill:none;stroke:#ff0000;stroke-width:0.25;stroke-linecap:square"
         clip-path="url(#p40c3f3b4e7)"
         id="path153" />
    </g>
    <g
       id="line2d_49">
      <path
         d="m 432.46271,322.52528 c -12.72213,9.45977 -25.59699,18.88501 -39.66854,26.26325 -3.53268,1.58063 -7.0716,3.54805 -10.94736,4.04957 -0.37148,-0.009 -0.76445,-0.21072 -0.86441,-0.59056"
         style="fill:none;stroke:#ff0000;stroke-width:0.25;stroke-linecap:square"
         clip-path="url(#p40c3f3b4e7)"
         id="path156" />
    </g>
    <g
       id="line2d_50">
      <path
         d="m 424.87947,318.42955 c -13.3458,9.94859 -26.87999,19.7972 -41.58129,27.67004 -4.0626,1.9016 -8.16243,4.16692 -12.6423,4.80333 -0.3978,-0.0154 -0.81797,-0.22194 -0.92642,-0.63271"
         style="fill:none;stroke:#ff0000;stroke-width:0.25;stroke-linecap:square"
         clip-path="url(#p40c3f3b4e7)"
         id="path159" />
    </g>
    <g
       id="line2d_51">
      <path
         d="m 417.78547,314.05136 c -12.72213,9.45978 -25.59699,18.88502 -39.66855,26.26326 -3.53267,1.58064 -7.0716,3.54804 -10.94735,4.04957 -0.37145,-0.009 -0.76449,-0.21066 -0.86431,-0.59056"
         style="fill:none;stroke:#ff0000;stroke-width:0.25;stroke-linecap:square"
         clip-path="url(#p40c3f3b4e7)"
         id="path162" />
    </g>
    <g
       id="line2d_52">
      <path
         d="m 411.18071,309.39071 c -11.89758,8.84234 -23.93116,17.66948 -37.11298,24.52437 -3.27644,1.3953 -6.56201,3.39068 -10.16567,3.58205 -0.25257,-0.0601 -0.46153,-0.25375 -0.53286,-0.50271"
         style="fill:none;stroke:#ff0000;stroke-width:0.25;stroke-linecap:square"
         clip-path="url(#p40c3f3b4e7)"
         id="path165" />
    </g>
    <g
       id="line2d_53">
      <path
         d="m 405.06519,304.4476 c -11.18901,8.29309 -22.48052,16.63064 -34.92568,22.96572 -2.82104,1.1486 -5.63569,2.86573 -8.72452,2.98369 -0.23273,-0.0555 -0.42664,-0.234 -0.49165,-0.46402"
         style="fill:none;stroke:#ff0000;stroke-width:0.25;stroke-linecap:square"
         clip-path="url(#p40c3f3b4e7)"
         id="path168" />
    </g>
    <g
       id="line2d_54">
      <path
         d="m 399.43892,299.22202 c -10.42547,7.71276 -20.92702,15.51492 -32.57056,21.3136 -2.46196,0.89588 -4.95008,2.616 -7.62662,2.4063 -0.1349,-0.0748 -0.232,-0.20681 -0.27492,-0.3531"
         style="fill:none;stroke:#ff0000;stroke-width:0.25;stroke-linecap:square"
         clip-path="url(#p40c3f3b4e7)"
         id="path171" />
    </g>
    <g
       id="line2d_55">
      <path
         d="m 394.30188,293.71398 c -9.63765,7.10551 -19.31847,14.35856 -30.12469,19.61329 -2.10098,0.6968 -4.30257,2.34167 -6.54055,1.8703 -0.0658,-0.065 -0.11055,-0.14799 -0.1381,-0.2354"
         style="fill:none;stroke:#ff0000;stroke-width:0.25;stroke-linecap:square"
         clip-path="url(#p40c3f3b4e7)"
         id="path174" />
    </g>
    <g
       id="line2d_56">
      <path
         d="m 389.65409,287.92347 c -8.87525,6.52351 -17.76467,13.25021 -27.77835,17.94763 -1.68287,0.49034 -3.57198,1.98605 -5.29583,1.31337 -0.0252,-0.0409 -0.0461,-0.085 -0.0595,-0.1312"
         style="fill:none;stroke:#ff0000;stroke-width:0.25;stroke-linecap:square"
         clip-path="url(#p40c3f3b4e7)"
         id="path177" />
    </g>
    <g
       id="line2d_57">
      <path
         d="m 385.49554,281.8505 c -8.13415,5.9406 -16.23983,12.17828 -25.4931,16.29354 -1.09572,0.23055 -3.02109,1.66138 -3.97183,0.71786"
         style="fill:none;stroke:#ff0000;stroke-width:0.25;stroke-linecap:square"
         clip-path="url(#p40c3f3b4e7)"
         id="path180" />
    </g>
    <g
       id="line2d_58">
      <path
         d="m 381.82623,275.49507 c -7.36433,5.34916 -14.66956,11.07011 -23.13313,14.58737 -0.74318,0.14574 -2.08025,1.08562 -2.66205,0.30557"
         style="fill:none;stroke:#ff0000;stroke-width:0.25;stroke-linecap:square"
         clip-path="url(#p40c3f3b4e7)"
         id="path183" />
    </g>
    <g
       id="line2d_59">
      <path
         d="m 378.64616,268.85718 c -6.58202,4.7357 -13.06871,9.95073 -20.7329,12.82952 -0.38045,0.0733 -1.16397,0.46245 -1.39353,-0.055"
         style="fill:none;stroke:#ff0000;stroke-width:0.25;stroke-linecap:square"
         clip-path="url(#p40c3f3b4e7)"
         id="path186" />
    </g>
    <g
       id="line2d_60">
      <path
         d="m 375.95533,261.93682 c -5.61046,4.00287 -11.10877,8.53345 -17.69694,10.81553 -0.23511,0.0465 -0.65673,0.15163 -0.75984,-0.15976"
         style="fill:none;stroke:#ff0000;stroke-width:0.25;stroke-linecap:square"
         clip-path="url(#p40c3f3b4e7)"
         id="path189" />
    </g>
    <g
       id="line2d_61">
      <path
         d="m 373.75374,254.73399 c -4.5759,3.21584 -9.02089,7.02177 -14.43643,8.70711 -0.13415,0.0138 -0.31066,-0.0188 -0.35066,-0.16964"
         style="fill:none;stroke:#ff0000;stroke-width:0.25;stroke-linecap:square"
         clip-path="url(#p40c3f3b4e7)"
         id="path192" />
    </g>
    <g
       id="line2d_62">
      <path
         d="m 372.0414,247.2487 c -3.47909,2.41376 -6.85444,5.40321 -10.99424,6.53592 -0.059,-0.0139 -0.10671,-0.0589 -0.1241,-0.1165"
         style="fill:none;stroke:#ff0000;stroke-width:0.25;stroke-linecap:square"
         clip-path="url(#p40c3f3b4e7)"
         id="path195" />
    </g>
    <g
       id="line2d_63">
      <path
         d="m 370.81829,239.48095 c -2.3476,1.55564 -4.62807,3.76689 -7.42083,4.34812 -0.0131,-0.0132 -0.0227,-0.0301 -0.0275,-0.048"
         style="fill:none;stroke:#ff0000;stroke-width:0.25;stroke-linecap:square"
         clip-path="url(#p40c3f3b4e7)"
         id="path198" />
    </g>
    <g
       id="line2d_64">
      <path
         d="m 370.08443,231.43074 c -1.17534,0.75154 -2.3984,1.99164 -3.77879,2.18189"
         style="fill:none;stroke:#ff0000;stroke-width:0.25;stroke-linecap:square"
         clip-path="url(#p40c3f3b4e7)"
         id="path201" />
    </g>
    <g
       id="line2d_65">
      <path
         d="m 369.83981,223.09806 c -0.0342,0.0219 -0.0694,0.0579 -0.10951,0.0633"
         style="fill:none;stroke:#ff0000;stroke-width:0.25;stroke-linecap:square"
         clip-path="url(#p40c3f3b4e7)"
         id="path204" />
    </g>
    <g
       id="line2d_66">
      <path
         d="m 589.99846,350.20672 c -0.0376,0.0123 -0.0921,0.0157 -0.11167,0.0545"
         style="fill:none;stroke:#0000ff;stroke-width:0.25;stroke-linecap:square"
         clip-path="url(#p40c3f3b4e7)"
         id="path207" />
    </g>
    <g
       id="line2d_67">
      <path
         d="m 575.56584,350.06548 c -1.25719,0.57971 -3.07307,0.89328 -3.77985,2.1821"
         style="fill:none;stroke:#0000ff;stroke-width:0.25;stroke-linecap:square"
         clip-path="url(#p40c3f3b4e7)"
         id="path210" />
    </g>
    <g
       id="line2d_68">
      <path
         d="m 561.62246,349.64179 c -2.54999,1.1174 -5.81247,1.76231 -7.44992,4.18782 -0.008,0.0371 -0.01,0.0765 10e-4,0.1131"
         style="fill:none;stroke:#0000ff;stroke-width:0.25;stroke-linecap:square"
         clip-path="url(#p40c3f3b4e7)"
         id="path213" />
    </g>
    <g
       id="line2d_69">
      <path
         d="m 548.16832,348.93563 c -3.77543,1.48966 -7.98138,2.69073 -10.84871,5.70171 -0.12837,0.20894 -0.31919,0.45631 -0.26988,0.71767"
         style="fill:none;stroke:#0000ff;stroke-width:0.25;stroke-linecap:square"
         clip-path="url(#p40c3f3b4e7)"
         id="path216" />
    </g>
    <g
       id="line2d_70">
      <path
         d="m 535.20342,347.94701 c -4.83423,1.86414 -10.04397,3.49047 -13.96509,7.01131 -0.33994,0.43165 -0.87363,0.92758 -0.82178,1.5257"
         style="fill:none;stroke:#0000ff;stroke-width:0.25;stroke-linecap:square"
         clip-path="url(#p40c3f3b4e7)"
         id="path219" />
    </g>
    <g
       id="line2d_71">
      <path
         d="m 522.72776,346.67592 c -5.96164,2.24904 -12.25843,4.33412 -17.19024,8.50051 -0.52851,0.60567 -1.30274,1.291 -1.26636,2.15515"
         style="fill:none;stroke:#0000ff;stroke-width:0.25;stroke-linecap:square"
         clip-path="url(#p40c3f3b4e7)"
         id="path222" />
    </g>
    <g
       id="line2d_72">
      <path
         d="m 510.74135,345.12237 c -6.99136,2.59882 -14.25275,5.12733 -20.1785,9.78339 -0.78802,0.81114 -1.94082,1.77403 -1.94774,2.99107"
         style="fill:none;stroke:#0000ff;stroke-width:0.25;stroke-linecap:square"
         clip-path="url(#p40c3f3b4e7)"
         id="path225" />
    </g>
    <g
       id="line2d_73">
      <path
         d="m 499.24417,343.28636 c -7.97784,2.94452 -16.19824,5.87282 -23.06954,11.00852 -1.1007,1.0521 -2.65174,2.24942 -2.72542,3.88429"
         style="fill:none;stroke:#0000ff;stroke-width:0.25;stroke-linecap:square"
         clip-path="url(#p40c3f3b4e7)"
         id="path228" />
    </g>
    <g
       id="line2d_74">
      <path
         d="m 488.23624,341.16788 c -9.0099,3.2926 -18.21499,6.65893 -26.04624,12.32122 -1.36977,1.24401 -3.30644,2.71361 -3.41881,4.69009"
         style="fill:none;stroke:#0000ff;stroke-width:0.25;stroke-linecap:square"
         clip-path="url(#p40c3f3b4e7)"
         id="path231" />
    </g>
    <g
       id="line2d_75">
      <path
         d="m 477.71755,338.76694 c -9.93676,3.60491 -20.01928,7.36647 -28.75409,13.43573 -1.73065,1.49426 -4.19678,3.24837 -4.37977,5.69418"
         style="fill:none;stroke:#0000ff;stroke-width:0.25;stroke-linecap:square"
         clip-path="url(#p40c3f3b4e7)"
         id="path234" />
    </g>
    <g
       id="line2d_76">
      <path
         d="m 467.6881,336.08353 c -10.87865,3.92779 -21.87388,8.0768 -31.50032,14.60113 -2.08382,1.71782 -5.02808,3.76173 -5.30252,6.64722"
         style="fill:none;stroke:#0000ff;stroke-width:0.25;stroke-linecap:square"
         clip-path="url(#p40c3f3b4e7)"
         id="path237" />
    </g>
    <g
       id="line2d_77">
      <path
         d="m 458.14789,333.11766 c -11.86675,4.27229 -23.82878,8.82305 -34.3729,15.85956 -2.45506,1.96089 -5.58837,4.12949 -6.12126,7.42259 l 0.0154,0.0642 0.006,0.0204"
         style="fill:none;stroke:#0000ff;stroke-width:0.25;stroke-linecap:square"
         clip-path="url(#p40c3f3b4e7)"
         id="path240" />
    </g>
    <g
       id="line2d_78">
      <path
         d="m 449.09692,329.86933 c -12.72294,4.55797 -25.50155,9.46838 -36.87789,16.87233 -2.92632,2.19415 -6.45887,4.63939 -7.30478,8.39548 0.007,0.0733 0.0174,0.14735 0.0409,0.21744"
         style="fill:none;stroke:#0000ff;stroke-width:0.25;stroke-linecap:square"
         clip-path="url(#p40c3f3b4e7)"
         id="path243" />
    </g>
    <g
       id="line2d_79">
      <path
         d="m 440.5352,326.33853 c -13.5097,4.82675 -27.04193,10.06598 -39.20443,17.7769 -3.42893,2.43842 -7.40585,5.16103 -8.65206,9.3855 -0.009,0.14797 9.7e-4,0.29915 0.0447,0.44136"
         style="fill:none;stroke:#0000ff;stroke-width:0.25;stroke-linecap:square"
         clip-path="url(#p40c3f3b4e7)"
         id="path246" />
    </g>
    <g
       id="line2d_80">
      <path
         d="m 432.46271,322.52528 c -14.34991,5.11414 -28.69485,10.69856 -41.66962,18.78159 -3.86901,2.63947 -8.1308,5.60358 -9.81914,10.16029 -0.0494,0.2555 -0.0692,0.52839 0.009,0.78037"
         style="fill:none;stroke:#0000ff;stroke-width:0.25;stroke-linecap:square"
         clip-path="url(#p40c3f3b4e7)"
         id="path249" />
    </g>
    <g
       id="line2d_81">
      <path
         d="m 424.87947,318.42955 c -15.04232,5.34337 -30.04364,11.21935 -43.7231,19.53788 -4.47797,2.95412 -9.46398,6.24926 -11.43556,11.46687 -0.0514,0.27438 -0.0742,0.5653 0.009,0.83601"
         style="fill:none;stroke:#0000ff;stroke-width:0.25;stroke-linecap:square"
         clip-path="url(#p40c3f3b4e7)"
         id="path252" />
    </g>
    <g
       id="line2d_82">
      <path
         d="m 417.78547,314.05136 c -14.34991,5.11416 -28.69485,10.69856 -41.66963,18.7816 -3.869,2.63948 -8.1308,5.60358 -9.81913,10.16029 -0.0495,0.2555 -0.0692,0.52839 0.009,0.78037"
         style="fill:none;stroke:#0000ff;stroke-width:0.25;stroke-linecap:square"
         clip-path="url(#p40c3f3b4e7)"
         id="path255" />
    </g>
    <g
       id="line2d_83">
      <path
         d="m 411.18071,309.39071 c -13.5097,4.82675 -27.04193,10.06597 -39.20443,17.7769 -3.42894,2.43842 -7.40584,5.16104 -8.65206,9.3855 -0.01,0.14804 10e-4,0.2992 0.0448,0.44146"
         style="fill:none;stroke:#0000ff;stroke-width:0.25;stroke-linecap:square"
         clip-path="url(#p40c3f3b4e7)"
         id="path258" />
    </g>
    <g
       id="line2d_84">
      <path
         d="m 405.06519,304.4476 c -12.72295,4.55796 -25.50154,9.46838 -36.87789,16.87233 -2.92631,2.19416 -6.45887,4.63939 -7.30478,8.39548 0.007,0.0732 0.0174,0.14735 0.0409,0.21744"
         style="fill:none;stroke:#0000ff;stroke-width:0.25;stroke-linecap:square"
         clip-path="url(#p40c3f3b4e7)"
         id="path261" />
    </g>
    <g
       id="line2d_85">
      <path
         d="m 399.43892,299.22202 c -11.86675,4.27228 -23.82878,8.82304 -34.3729,15.85955 -2.45512,1.9609 -5.58826,4.1295 -6.12136,7.4226 l 0.0154,0.0642 0.006,0.0204"
         style="fill:none;stroke:#0000ff;stroke-width:0.25;stroke-linecap:square"
         clip-path="url(#p40c3f3b4e7)"
         id="path264" />
    </g>
    <g
       id="line2d_86">
      <path
         d="m 394.30188,293.71398 c -10.87865,3.92779 -21.87388,8.0768 -31.50032,14.60114 -2.08382,1.71781 -5.02808,3.76172 -5.30252,6.64721"
         style="fill:none;stroke:#0000ff;stroke-width:0.25;stroke-linecap:square"
         clip-path="url(#p40c3f3b4e7)"
         id="path267" />
    </g>
    <g
       id="line2d_87">
      <path
         d="m 389.65409,287.92347 c -9.93675,3.60492 -20.01928,7.36647 -28.75409,13.43574 -1.73074,1.49428 -4.1966,3.24832 -4.37987,5.69418"
         style="fill:none;stroke:#0000ff;stroke-width:0.25;stroke-linecap:square"
         clip-path="url(#p40c3f3b4e7)"
         id="path270" />
    </g>
    <g
       id="line2d_88">
      <path
         d="m 385.49554,281.8505 c -9.0099,3.2926 -18.21498,6.65894 -26.04625,12.32121 -1.36975,1.24403 -3.30644,2.71361 -3.4188,4.69011"
         style="fill:none;stroke:#0000ff;stroke-width:0.25;stroke-linecap:square"
         clip-path="url(#p40c3f3b4e7)"
         id="path273" />
    </g>
    <g
       id="line2d_89">
      <path
         d="m 381.82623,275.49507 c -7.97784,2.94453 -16.19825,5.87282 -23.06955,11.00852 -1.1007,1.0521 -2.65173,2.24942 -2.72542,3.88429"
         style="fill:none;stroke:#0000ff;stroke-width:0.25;stroke-linecap:square"
         clip-path="url(#p40c3f3b4e7)"
         id="path276" />
    </g>
    <g
       id="line2d_90">
      <path
         d="m 378.64616,268.85718 c -6.99137,2.59881 -14.25275,5.12733 -20.17851,9.78339 -0.788,0.81111 -1.94073,1.77397 -1.94773,2.99097"
         style="fill:none;stroke:#0000ff;stroke-width:0.25;stroke-linecap:square"
         clip-path="url(#p40c3f3b4e7)"
         id="path279" />
    </g>
    <g
       id="line2d_91">
      <path
         d="m 375.95533,261.93682 c -5.96164,2.24904 -12.25844,4.33411 -17.19025,8.50051 -0.52852,0.60565 -1.30271,1.291 -1.26635,2.15514"
         style="fill:none;stroke:#0000ff;stroke-width:0.25;stroke-linecap:square"
         clip-path="url(#p40c3f3b4e7)"
         id="path282" />
    </g>
    <g
       id="line2d_92">
      <path
         d="m 373.75374,254.73399 c -4.83423,1.86415 -10.04396,3.49047 -13.96509,7.01131 -0.33991,0.43164 -0.87359,0.92753 -0.82178,1.52561"
         style="fill:none;stroke:#0000ff;stroke-width:0.25;stroke-linecap:square"
         clip-path="url(#p40c3f3b4e7)"
         id="path285" />
    </g>
    <g
       id="line2d_93">
      <path
         d="m 372.0414,247.2487 c -3.77543,1.48966 -7.98138,2.69073 -10.84872,5.70171 -0.12823,0.20903 -0.31911,0.45632 -0.26978,0.71768"
         style="fill:none;stroke:#0000ff;stroke-width:0.25;stroke-linecap:square"
         clip-path="url(#p40c3f3b4e7)"
         id="path288" />
    </g>
    <g
       id="line2d_94">
      <path
         d="m 370.81829,239.48095 c -2.54999,1.11741 -5.81243,1.76228 -7.44991,4.18781 -0.008,0.0371 -0.01,0.0766 10e-4,0.1132"
         style="fill:none;stroke:#0000ff;stroke-width:0.25;stroke-linecap:square"
         clip-path="url(#p40c3f3b4e7)"
         id="path291" />
    </g>
    <g
       id="line2d_95">
      <path
         d="m 370.08443,231.43074 c -1.25716,0.57973 -3.07308,0.89331 -3.77985,2.1821"
         style="fill:none;stroke:#0000ff;stroke-width:0.25;stroke-linecap:square"
         clip-path="url(#p40c3f3b4e7)"
         id="path294" />
    </g>
    <g
       id="line2d_96">
      <path
         d="m 369.83981,223.09806 c -0.036,0.0138 -0.0917,0.0131 -0.11167,0.0505"
         style="fill:none;stroke:#0000ff;stroke-width:0.25;stroke-linecap:square"
         clip-path="url(#p40c3f3b4e7)"
         id="path297" />
    </g>
    <g
       id="line2d_97">
      <path
         d="m 589.88838,350.27027 c -49.81176,5.63179 -99.99393,9.27299 -150.14308,7.42699 -23.47008,-0.86331 -46.92228,-3.08012 -70.01557,-7.42699 -7.15551,-12.56212 -11.4519,-26.65363 -12.93709,-41.0149 -2.42855,-22.39833 1.07771,-45.0141 6.91272,-66.63704 1.80153,-6.55182 3.86426,-13.01547 6.02437,-19.45672"
         style="fill:none;stroke:#000000;stroke-width:0.8;stroke-dasharray:2.96, 1.28;stroke-dashoffset:0"
         clip-path="url(#p40c3f3b4e7)"
         id="path300" />
    </g>
    <g
       id="line2d_98">
      <path
         d="m 589.9159,350.25438 c -46.63719,4.12666 -93.62431,6.21548 -140.36583,2.57588 -22.24002,-1.75496 -44.41133,-4.94996 -66.03291,-10.52018 -8.62034,-11.07711 -14.87419,-23.97666 -18.09792,-37.64318 -4.78573,-19.55423 -4.00595,-40.06623 -0.54503,-59.77263 1.24943,-7.32883 3.01173,-14.55639 4.88299,-21.74856"
         style="fill:none;stroke:#008000;stroke-width:0.8;stroke-dasharray:2.96, 1.28;stroke-dashoffset:0"
         clip-path="url(#p40c3f3b4e7)"
         id="path303" />
    </g>
    <g
       id="line2d_99">
      <path
         d="m 589.99846,350.20672 c -35.1819,-0.1287 -70.56637,-2.22148 -105.00795,-9.77969 -23.85082,-5.28656 -47.47093,-13.31752 -67.9469,-26.89916 -14.04523,-9.39726 -26.31872,-21.74255 -34.4233,-36.65741 -8.76495,-15.85478 -12.56636,-34.07664 -12.73127,-52.09527 -0.0164,-0.55904 -0.0328,-1.11809 -0.0492,-1.67713"
         style="fill:none;stroke:#000000;stroke-width:0.8;stroke-dasharray:2.96, 1.28;stroke-dashoffset:0"
         clip-path="url(#p40c3f3b4e7)"
         id="path306" />
    </g>
    <g
       id="line2d_100">
      <path
         d="m 589.9159,445.58587 c -46.63719,4.12667 -93.6243,6.21548 -140.36583,2.57588 -22.24002,-1.75495 -44.41133,-4.94996 -66.03291,-10.52018 -8.62034,-11.07711 -14.87419,-23.97666 -18.09792,-37.64318 -4.78573,-19.55422 -4.00596,-40.06622 -0.54503,-59.77262 1.24943,-7.32883 3.01173,-14.55639 4.88299,-21.74856"
         style="fill:none;stroke:#008000;stroke-width:0.8;stroke-dasharray:2.96, 1.28;stroke-dashoffset:0"
         clip-path="url(#p40c3f3b4e7)"
         id="path309" />
    </g>
    <g
       id="line2d_101">
      <path
         d="m 589.99846,445.53821 c -35.1819,-0.12869 -70.56637,-2.22148 -105.00795,-9.77969 -23.85082,-5.28654 -47.47092,-13.31753 -67.9469,-26.89915 -14.04522,-9.39727 -26.31872,-21.74255 -34.4233,-36.65741 -8.76494,-15.85478 -12.56637,-34.07665 -12.73127,-52.09528 -0.0164,-0.55904 -0.0328,-1.11809 -0.0492,-1.67713"
         style="fill:none;stroke:#ff0000;stroke-width:0.8;stroke-dasharray:2.96, 1.28;stroke-dashoffset:0"
         clip-path="url(#p40c3f3b4e7)"
         id="path312" />
    </g>
    <g
       id="line2d_102">
      <path
         d="M 617.40821,334.38169 C 544.022,292.01213 470.63578,249.64258 397.24956,207.27303"
         style="fill:none;stroke:#008000;stroke-width:0.8;stroke-dasharray:2.96, 1.28;stroke-dashoffset:0"
         clip-path="url(#p40c3f3b4e7)"
         id="path315" />
    </g>
    <g
       id="line2d_103">
      <path
         d="M 617.40821,334.38169 C 544.022,292.01213 470.63578,249.64258 397.24956,207.27303"
         style="fill:none;stroke:#ff0000;stroke-width:0.8;stroke-dasharray:2.96, 1.28;stroke-dashoffset:0"
         clip-path="url(#p40c3f3b4e7)"
         id="path318" />
    </g>
    <g
       id="Poly3DCollection_1">
      <path
         d="m 589.88838,445.60176 c -49.81176,5.63178 -99.99393,9.27301 -150.14308,7.42699 -23.47008,-0.86331 -46.92228,-3.08013 -70.01557,-7.42699 -7.15551,-12.56212 -11.4519,-26.65363 -12.93709,-41.0149 -2.42855,-22.39833 1.07771,-45.0141 6.91272,-66.63704 1.85831,-6.5522 3.79813,-13.17458 6.13445,-19.52031 0.0726,15.26092 2.46884,30.64295 8.41883,44.76248 6.58329,15.77757 17.57339,29.54648 31.04338,40.01165 16.97752,13.37589 37.20428,21.94088 57.80522,28.03077 32.17828,9.20792 65.69577,12.69846 99.05296,13.87672 7.94263,0.31447 15.89074,0.35598 23.83826,0.42704 z"
         style="fill-opacity:0.25"
         clip-path="url(#p40c3f3b4e7)"
         id="path321" />
    </g>
  </g>
  <defs
     id="defs329">
    <clipPath
       id="p40c3f3b4e7">
      <rect
         id="rect326"
         y="0"
         x="0"
         width="720"
         height="720" />
    </clipPath>
  </defs>
</svg>
