<?xml version="1.0" encoding="UTF-8" standalone="no"?>
<svg
   xmlns:dc="http://purl.org/dc/elements/1.1/"
   xmlns:cc="http://creativecommons.org/ns#"
   xmlns:rdf="http://www.w3.org/1999/02/22-rdf-syntax-ns#"
   xmlns:svg="http://www.w3.org/2000/svg"
   xmlns="http://www.w3.org/2000/svg"
   xmlns:sodipodi="http://sodipodi.sourceforge.net/DTD/sodipodi-0.dtd"
   xmlns:inkscape="http://www.inkscape.org/namespaces/inkscape"
   inkscape:version="1.0 (4035a4fb49, 2020-05-01)"
   sodipodi:docname="manta2_canopy_airfoils.svg"
   id="svg331"
   width="441.41013pt"
   viewBox="0 0 441.41013 414.19595"
   version="1.1"
   height="414.19595pt">
  <metadata
     id="metadata335">
    <rdf:RDF>
      <cc:Work
         rdf:about="">
        <dc:format>image/svg+xml</dc:format>
        <dc:type
           rdf:resource="http://purl.org/dc/dcmitype/StillImage" />
      </cc:Work>
    </rdf:RDF>
  </metadata>
  <sodipodi:namedview
     inkscape:current-layer="svg331"
     inkscape:window-maximized="0"
     inkscape:window-y="27"
     inkscape:window-x="0"
     inkscape:cy="310.28839"
     inkscape:cx="207.91423"
     inkscape:zoom="1.06875"
     showgrid="false"
     id="namedview333"
     inkscape:window-height="1198"
     inkscape:window-width="1396"
     inkscape:pageshadow="2"
     inkscape:pageopacity="0"
     guidetolerance="10"
     gridtolerance="10"
     objecttolerance="10"
     borderopacity="1"
     bordercolor="#666666"
     pagecolor="#ffffff" />
  <defs
     id="defs4">
    <style
       id="style2"
       type="text/css">
*{stroke-linecap:butt;stroke-linejoin:round;}
  </style>
  </defs>
  <g
     transform="translate(-204.06433,-127.28371)"
     id="axes_1">
    <g
       id="line2d_1">
      <path
         d="M 644.92804,445.60176 C 553.19527,392.63982 461.4625,339.67788 369.72973,286.71594"
         style="fill:none;stroke:#d3d3d3;stroke-width:0.8;stroke-linecap:square"
         clip-path="url(#p6660d72a66)"
         id="path12" />
    </g>
    <g
       id="line2d_2">
      <path
         d="M 617.40821,461.49034 C 525.67544,408.5284 433.94267,355.56646 342.2099,302.60452"
         style="fill:none;stroke:#d3d3d3;stroke-width:0.8;stroke-linecap:square"
         clip-path="url(#p6660d72a66)"
         id="path15" />
    </g>
    <g
       id="line2d_3">
      <path
         d="M 589.88838,477.37893 C 498.15561,424.41699 406.42284,371.45505 314.69007,318.49311"
         style="fill:none;stroke:#d3d3d3;stroke-width:0.8;stroke-linecap:square"
         clip-path="url(#p6660d72a66)"
         id="path18" />
    </g>
    <g
       id="line2d_4">
      <path
         d="M 562.36855,493.26751 C 470.63578,440.30557 378.903,387.34363 287.17023,334.38169"
         style="fill:none;stroke:#d3d3d3;stroke-width:0.8;stroke-linecap:square"
         clip-path="url(#p6660d72a66)"
         id="path21" />
    </g>
    <g
       id="line2d_5">
      <path
         d="M 534.84872,509.15609 C 443.11595,456.19415 351.38317,403.23221 259.6504,350.27027"
         style="fill:none;stroke:#d3d3d3;stroke-width:0.8;stroke-linecap:square"
         clip-path="url(#p6660d72a66)"
         id="path24" />
    </g>
    <g
       id="line2d_6">
      <path
         d="M 507.32889,525.04467 C 415.59612,472.08273 323.86334,419.12079 232.13057,366.15885"
         style="fill:none;stroke:#d3d3d3;stroke-width:0.8;stroke-linecap:square"
         clip-path="url(#p6660d72a66)"
         id="path27" />
    </g>
    <g
       id="line2d_7">
      <path
         d="M 479.80906,540.93326 C 388.07629,487.97132 296.34351,435.00937 204.61074,382.04743"
         style="fill:none;stroke:#d3d3d3;stroke-width:0.8;stroke-linecap:square"
         clip-path="url(#p6660d72a66)"
         id="path30" />
    </g>
    <g
       id="line2d_8">
      <path
         d="m 644.92804,445.60176 c -55.03966,31.77717 -110.07932,63.55433 -165.11898,95.3315"
         style="fill:none;stroke:#d3d3d3;stroke-width:0.8;stroke-linecap:square"
         clip-path="url(#p6660d72a66)"
         id="path33" />
    </g>
    <g
       id="line2d_9">
      <path
         d="m 644.92804,286.71594 c 0,52.96194 0,105.92388 0,158.88582"
         style="fill:none;stroke:#d3d3d3;stroke-width:0.8;stroke-linecap:square"
         clip-path="url(#p6660d72a66)"
         id="path36" />
    </g>
    <g
       id="line2d_10">
      <path
         d="m 617.40821,429.71318 c -55.03966,31.77716 -110.07933,63.55433 -165.11899,95.33149"
         style="fill:none;stroke:#d3d3d3;stroke-width:0.8;stroke-linecap:square"
         clip-path="url(#p6660d72a66)"
         id="path39" />
    </g>
    <g
       id="line2d_11">
      <path
         d="m 617.40821,270.82736 c 0,52.96194 0,105.92388 0,158.88582"
         style="fill:none;stroke:#d3d3d3;stroke-width:0.8;stroke-linecap:square"
         clip-path="url(#p6660d72a66)"
         id="path42" />
    </g>
    <g
       id="line2d_12">
      <path
         d="m 589.88838,413.8246 c -55.03966,31.77716 -110.07933,63.55433 -165.11899,95.33149"
         style="fill:none;stroke:#d3d3d3;stroke-width:0.8;stroke-linecap:square"
         clip-path="url(#p6660d72a66)"
         id="path45" />
    </g>
    <g
       id="line2d_13">
      <path
         d="m 589.88838,254.93878 c 0,52.96194 0,105.92388 0,158.88582"
         style="fill:none;stroke:#d3d3d3;stroke-width:0.8;stroke-linecap:square"
         clip-path="url(#p6660d72a66)"
         id="path48" />
    </g>
    <g
       id="line2d_14">
      <path
         d="m 562.36855,397.93602 c -55.03966,31.77716 -110.07933,63.55433 -165.11899,95.33149"
         style="fill:none;stroke:#d3d3d3;stroke-width:0.8;stroke-linecap:square"
         clip-path="url(#p6660d72a66)"
         id="path51" />
    </g>
    <g
       id="line2d_15">
      <path
         d="m 562.36855,239.05019 c 0,52.96194 0,105.92389 0,158.88583"
         style="fill:none;stroke:#d3d3d3;stroke-width:0.8;stroke-linecap:square"
         clip-path="url(#p6660d72a66)"
         id="path54" />
    </g>
    <g
       id="line2d_16">
      <path
         d="m 534.84872,382.04743 c -55.03966,31.77717 -110.07933,63.55433 -165.11899,95.3315"
         style="fill:none;stroke:#d3d3d3;stroke-width:0.8;stroke-linecap:square"
         clip-path="url(#p6660d72a66)"
         id="path57" />
    </g>
    <g
       id="line2d_17">
      <path
         d="m 534.84872,223.16161 c 0,52.96194 0,105.92388 0,158.88582"
         style="fill:none;stroke:#d3d3d3;stroke-width:0.8;stroke-linecap:square"
         clip-path="url(#p6660d72a66)"
         id="path60" />
    </g>
    <g
       id="line2d_18">
      <path
         d="M 507.32889,366.15885 C 452.28923,397.93601 397.24956,429.71318 342.2099,461.49034"
         style="fill:none;stroke:#d3d3d3;stroke-width:0.8;stroke-linecap:square"
         clip-path="url(#p6660d72a66)"
         id="path63" />
    </g>
    <g
       id="line2d_19">
      <path
         d="m 507.32889,207.27303 c 0,52.96194 0,105.92388 0,158.88582"
         style="fill:none;stroke:#d3d3d3;stroke-width:0.8;stroke-linecap:square"
         clip-path="url(#p6660d72a66)"
         id="path66" />
    </g>
    <g
       id="line2d_20">
      <path
         d="M 479.80906,350.27027 C 424.7694,382.04743 369.72973,413.8246 314.69007,445.60176"
         style="fill:none;stroke:#d3d3d3;stroke-width:0.8;stroke-linecap:square"
         clip-path="url(#p6660d72a66)"
         id="path69" />
    </g>
    <g
       id="line2d_21">
      <path
         d="m 479.80906,191.38445 c 0,52.96194 0,105.92388 0,158.88582"
         style="fill:none;stroke:#d3d3d3;stroke-width:0.8;stroke-linecap:square"
         clip-path="url(#p6660d72a66)"
         id="path72" />
    </g>
    <g
       id="line2d_22">
      <path
         d="m 452.28922,334.38169 c -55.03966,31.77716 -110.07933,63.55433 -165.11899,95.33149"
         style="fill:none;stroke:#d3d3d3;stroke-width:0.8;stroke-linecap:square"
         clip-path="url(#p6660d72a66)"
         id="path75" />
    </g>
    <g
       id="line2d_23">
      <path
         d="m 452.28922,175.49587 c 0,52.96194 0,105.92388 0,158.88582"
         style="fill:none;stroke:#d3d3d3;stroke-width:0.8;stroke-linecap:square"
         clip-path="url(#p6660d72a66)"
         id="path78" />
    </g>
    <g
       id="line2d_24">
      <path
         d="M 424.76939,318.49311 C 369.72973,350.27027 314.69006,382.04744 259.6504,413.8246"
         style="fill:none;stroke:#d3d3d3;stroke-width:0.8;stroke-linecap:square"
         clip-path="url(#p6660d72a66)"
         id="path81" />
    </g>
    <g
       id="line2d_25">
      <path
         d="m 424.76939,159.60728 c 0,52.96194 0,105.92389 0,158.88583"
         style="fill:none;stroke:#d3d3d3;stroke-width:0.8;stroke-linecap:square"
         clip-path="url(#p6660d72a66)"
         id="path84" />
    </g>
    <g
       id="line2d_26">
      <path
         d="m 397.24956,302.60452 c -55.03966,31.77717 -110.07933,63.55433 -165.11899,95.3315"
         style="fill:none;stroke:#d3d3d3;stroke-width:0.8;stroke-linecap:square"
         clip-path="url(#p6660d72a66)"
         id="path87" />
    </g>
    <g
       id="line2d_27">
      <path
         d="m 397.24956,143.7187 c 0,52.96194 0,105.92388 0,158.88582"
         style="fill:none;stroke:#d3d3d3;stroke-width:0.8;stroke-linecap:square"
         clip-path="url(#p6660d72a66)"
         id="path90" />
    </g>
    <g
       id="line2d_28">
      <path
         d="M 369.72973,286.71594 C 314.69007,318.4931 259.6504,350.27027 204.61074,382.04743"
         style="fill:none;stroke:#d3d3d3;stroke-width:0.8;stroke-linecap:square"
         clip-path="url(#p6660d72a66)"
         id="path93" />
    </g>
    <g
       id="line2d_29">
      <path
         d="m 369.72973,127.83012 c 0,52.96194 0,105.92388 0,158.88582"
         style="fill:none;stroke:#d3d3d3;stroke-width:0.8;stroke-linecap:square"
         clip-path="url(#p6660d72a66)"
         id="path96" />
    </g>
    <g
       id="line2d_30">
      <path
         d="M 644.92804,286.71594 C 553.19527,233.754 461.4625,180.79206 369.72973,127.83012"
         style="fill:none;stroke:#d3d3d3;stroke-width:0.8;stroke-linecap:square"
         clip-path="url(#p6660d72a66)"
         id="path99" />
    </g>
    <g
       id="line2d_31">
      <path
         d="M 644.92804,318.49311 C 553.19527,265.53117 461.4625,212.56922 369.72973,159.60728"
         style="fill:none;stroke:#d3d3d3;stroke-width:0.8;stroke-linecap:square"
         clip-path="url(#p6660d72a66)"
         id="path102" />
    </g>
    <g
       id="line2d_32">
      <path
         d="M 644.92804,350.27027 C 553.19527,297.30833 461.4625,244.34639 369.72973,191.38445"
         style="fill:none;stroke:#d3d3d3;stroke-width:0.8;stroke-linecap:square"
         clip-path="url(#p6660d72a66)"
         id="path105" />
    </g>
    <g
       id="line2d_33">
      <path
         d="M 644.92804,382.04743 C 553.19527,329.08549 461.4625,276.12355 369.72973,223.16161"
         style="fill:none;stroke:#d3d3d3;stroke-width:0.8;stroke-linecap:square"
         clip-path="url(#p6660d72a66)"
         id="path108" />
    </g>
    <g
       id="line2d_34">
      <path
         d="M 644.92804,413.8246 C 553.19527,360.86266 461.4625,307.90072 369.72973,254.93878"
         style="fill:none;stroke:#d3d3d3;stroke-width:0.8;stroke-linecap:square"
         clip-path="url(#p6660d72a66)"
         id="path111" />
    </g>
    <g
       id="line2d_35">
      <path
         d="m 562.47863,366.0953 c -0.0341,0.0219 -0.0694,0.0579 -0.10951,0.0633"
         style="fill:none;stroke:#ff0000;stroke-width:0.25;stroke-linecap:square"
         clip-path="url(#p6660d72a66)"
         id="path114" />
    </g>
    <g
       id="line2d_36">
      <path
         d="m 549.88066,364.89483 c -1.1755,0.75126 -2.39836,1.99171 -3.77879,2.18179"
         style="fill:none;stroke:#ff0000;stroke-width:0.25;stroke-linecap:square"
         clip-path="url(#p6660d72a66)"
         id="path117" />
    </g>
    <g
       id="line2d_37">
      <path
         d="m 537.77194,363.41189 c -2.34768,1.55556 -4.62804,3.76708 -7.42093,4.34812 -0.0132,-0.0131 -0.0227,-0.03 -0.0275,-0.0479"
         style="fill:none;stroke:#ff0000;stroke-width:0.25;stroke-linecap:square"
         clip-path="url(#p6660d72a66)"
         id="path120" />
    </g>
    <g
       id="line2d_38">
      <path
         d="m 526.15245,361.6465 c -3.47909,2.41383 -6.85447,5.40309 -10.99424,6.53602 -0.059,-0.0139 -0.10671,-0.0589 -0.1241,-0.1165"
         style="fill:none;stroke:#ff0000;stroke-width:0.25;stroke-linecap:square"
         clip-path="url(#p6660d72a66)"
         id="path123" />
    </g>
    <g
       id="line2d_39">
      <path
         d="m 515.02221,359.59863 c -4.57591,3.21583 -9.02089,7.02178 -14.43644,8.70711 -0.13408,0.0137 -0.31077,-0.0187 -0.35075,-0.16954"
         style="fill:none;stroke:#ff0000;stroke-width:0.25;stroke-linecap:square"
         clip-path="url(#p6660d72a66)"
         id="path126" />
    </g>
    <g
       id="line2d_40">
      <path
         d="m 504.38121,357.26831 c -5.61045,4.00288 -11.10877,8.53345 -17.69694,10.81553 -0.23511,0.0464 -0.65673,0.15164 -0.75984,-0.15975"
         style="fill:none;stroke:#ff0000;stroke-width:0.25;stroke-linecap:square"
         clip-path="url(#p6660d72a66)"
         id="path129" />
    </g>
    <g
       id="line2d_41">
      <path
         d="m 494.22945,354.65552 c -6.58202,4.7357 -13.06871,9.95074 -20.7329,12.82952 -0.38045,0.0733 -1.16397,0.46244 -1.39353,-0.055"
         style="fill:none;stroke:#ff0000;stroke-width:0.25;stroke-linecap:square"
         clip-path="url(#p6660d72a66)"
         id="path132" />
    </g>
    <g
       id="line2d_42">
      <path
         d="m 484.56693,351.76027 c -7.36433,5.34915 -14.66956,11.07011 -23.13313,14.58736 -0.74316,0.14575 -2.08028,1.08564 -2.66205,0.30558"
         style="fill:none;stroke:#ff0000;stroke-width:0.25;stroke-linecap:square"
         clip-path="url(#p6660d72a66)"
         id="path135" />
    </g>
    <g
       id="line2d_43">
      <path
         d="m 475.39365,348.58255 c -8.13415,5.9406 -16.23983,12.17826 -25.49309,16.29354 -1.09573,0.23053 -3.02109,1.66138 -3.97184,0.71786"
         style="fill:none;stroke:#ff0000;stroke-width:0.25;stroke-linecap:square"
         clip-path="url(#p6660d72a66)"
         id="path138" />
    </g>
    <g
       id="line2d_44">
      <path
         d="m 466.70962,345.12237 c -8.87525,6.5235 -17.76467,13.25021 -27.77835,17.94763 -1.68288,0.49033 -3.57198,1.98605 -5.29584,1.31337 -0.0252,-0.041 -0.0461,-0.085 -0.0595,-0.1312"
         style="fill:none;stroke:#ff0000;stroke-width:0.25;stroke-linecap:square"
         clip-path="url(#p6660d72a66)"
         id="path141" />
    </g>
    <g
       id="line2d_45">
      <path
         d="m 458.51482,341.37973 c -9.63765,7.1055 -19.31847,14.35856 -30.12469,19.61329 -2.10098,0.69679 -4.30257,2.34168 -6.54055,1.8703 -0.0658,-0.065 -0.11055,-0.14799 -0.1381,-0.2354"
         style="fill:none;stroke:#ff0000;stroke-width:0.25;stroke-linecap:square"
         clip-path="url(#p6660d72a66)"
         id="path144" />
    </g>
    <g
       id="line2d_46">
      <path
         d="m 450.80927,337.35462 c -10.42547,7.71276 -20.92702,15.51492 -32.57056,21.31359 -2.46196,0.89589 -4.95008,2.616 -7.62662,2.40631 -0.1349,-0.0748 -0.232,-0.20681 -0.27492,-0.3531"
         style="fill:none;stroke:#ff0000;stroke-width:0.25;stroke-linecap:square"
         clip-path="url(#p6660d72a66)"
         id="path147" />
    </g>
    <g
       id="line2d_47">
      <path
         d="m 443.59296,333.04705 c -11.18902,8.29308 -22.48052,16.63065 -34.92569,22.96572 -2.82104,1.1486 -5.63568,2.86573 -8.72451,2.98369 -0.23272,-0.0555 -0.42665,-0.234 -0.49166,-0.46402"
         style="fill:none;stroke:#ff0000;stroke-width:0.25;stroke-linecap:square"
         clip-path="url(#p6660d72a66)"
         id="path150" />
    </g>
    <g
       id="line2d_48">
      <path
         d="m 436.86589,328.45701 c -11.89759,8.84233 -23.93116,17.66949 -37.11298,24.52437 -3.27645,1.39528 -6.56201,3.39068 -10.16567,3.58205 -0.25257,-0.06 -0.46153,-0.25375 -0.53286,-0.50271"
         style="fill:none;stroke:#ff0000;stroke-width:0.25;stroke-linecap:square"
         clip-path="url(#p6660d72a66)"
         id="path153" />
    </g>
    <g
       id="line2d_49">
      <path
         d="m 430.62806,323.58451 c -12.72214,9.45977 -25.59698,18.88503 -39.66855,26.26325 -3.53268,1.58064 -7.0716,3.54805 -10.94735,4.04958 -0.37149,-0.009 -0.76445,-0.21071 -0.86441,-0.59056"
         style="fill:none;stroke:#ff0000;stroke-width:0.25;stroke-linecap:square"
         clip-path="url(#p6660d72a66)"
         id="path156" />
    </g>
    <g
       id="line2d_50">
      <path
         d="m 424.87947,318.42955 c -13.3458,9.94859 -26.87999,19.7972 -41.58129,27.67004 -4.0626,1.9016 -8.16243,4.16692 -12.6423,4.80333 -0.3978,-0.0154 -0.81797,-0.22194 -0.92642,-0.63271"
         style="fill:none;stroke:#ff0000;stroke-width:0.25;stroke-linecap:square"
         clip-path="url(#p6660d72a66)"
         id="path159" />
    </g>
    <g
       id="line2d_51">
      <path
         d="m 415.95082,315.1106 c -12.72214,9.45977 -25.59698,18.88502 -39.66855,26.26325 -3.53268,1.58063 -7.07159,3.54806 -10.94735,4.04957 -0.37144,-0.009 -0.7645,-0.21066 -0.86432,-0.59056"
         style="fill:none;stroke:#ff0000;stroke-width:0.25;stroke-linecap:square"
         clip-path="url(#p6660d72a66)"
         id="path162" />
    </g>
    <g
       id="line2d_52">
      <path
         d="m 407.5114,311.50919 c -11.89758,8.84233 -23.93116,17.66948 -37.11298,24.52437 -3.27645,1.39529 -6.56201,3.39068 -10.16567,3.58205 -0.25257,-0.06 -0.46153,-0.25375 -0.53286,-0.50271"
         style="fill:none;stroke:#ff0000;stroke-width:0.25;stroke-linecap:square"
         clip-path="url(#p6660d72a66)"
         id="path165" />
    </g>
    <g
       id="line2d_53">
      <path
         d="m 399.56123,307.62532 c -11.18902,8.29308 -22.48053,16.63064 -34.92569,22.96572 -2.82104,1.1486 -5.63569,2.86572 -8.72451,2.98369 -0.23272,-0.0555 -0.42665,-0.234 -0.49166,-0.46402"
         style="fill:none;stroke:#ff0000;stroke-width:0.25;stroke-linecap:square"
         clip-path="url(#p6660d72a66)"
         id="path168" />
    </g>
    <g
       id="line2d_54">
      <path
         d="m 392.1003,303.45898 c -10.42547,7.71275 -20.92702,15.51492 -32.57056,21.31359 -2.46196,0.89589 -4.95008,2.616 -7.62662,2.40631 -0.13492,-0.0748 -0.23207,-0.20685 -0.27492,-0.3532"
         style="fill:none;stroke:#ff0000;stroke-width:0.25;stroke-linecap:square"
         clip-path="url(#p6660d72a66)"
         id="path171" />
    </g>
    <g
       id="line2d_55">
      <path
         d="m 385.1286,299.01017 c -9.63765,7.10552 -19.31848,14.35856 -30.12469,19.6133 -2.10098,0.69679 -4.30257,2.34167 -6.54055,1.8703 -0.0658,-0.065 -0.11055,-0.14799 -0.1381,-0.2354"
         style="fill:none;stroke:#ff0000;stroke-width:0.25;stroke-linecap:square"
         clip-path="url(#p6660d72a66)"
         id="path174" />
    </g>
    <g
       id="line2d_56">
      <path
         d="m 378.64616,294.27891 c -8.87525,6.5235 -17.76468,13.2502 -27.77836,17.94763 -1.68283,0.49032 -3.57199,1.98603 -5.29573,1.31336 -0.0252,-0.041 -0.0461,-0.085 -0.0595,-0.1312"
         style="fill:none;stroke:#ff0000;stroke-width:0.25;stroke-linecap:square"
         clip-path="url(#p6660d72a66)"
         id="path177" />
    </g>
    <g
       id="line2d_57">
      <path
         d="m 372.65295,289.26518 c -8.13416,5.94059 -16.23984,12.17826 -25.4931,16.29354 -1.09573,0.23053 -3.02109,1.66137 -3.97183,0.71785"
         style="fill:none;stroke:#ff0000;stroke-width:0.25;stroke-linecap:square"
         clip-path="url(#p6660d72a66)"
         id="path180" />
    </g>
    <g
       id="line2d_58">
      <path
         d="m 367.14898,283.96898 c -7.36432,5.34917 -14.66956,11.0701 -23.13312,14.58737 -0.74319,0.14575 -2.08025,1.08562 -2.66206,0.30557"
         style="fill:none;stroke:#ff0000;stroke-width:0.25;stroke-linecap:square"
         clip-path="url(#p6660d72a66)"
         id="path183" />
    </g>
    <g
       id="line2d_59">
      <path
         d="m 362.13426,278.39033 c -6.58202,4.7357 -13.06871,9.95073 -20.7329,12.82952 -0.3804,0.0733 -1.16417,0.46251 -1.39353,-0.0551"
         style="fill:none;stroke:#ff0000;stroke-width:0.25;stroke-linecap:square"
         clip-path="url(#p6660d72a66)"
         id="path186" />
    </g>
    <g
       id="line2d_60">
      <path
         d="m 357.60877,272.5292 c -5.61044,4.00289 -11.10877,8.53345 -17.69693,10.81554 -0.23511,0.0464 -0.65673,0.15165 -0.75985,-0.15975"
         style="fill:none;stroke:#ff0000;stroke-width:0.25;stroke-linecap:square"
         clip-path="url(#p6660d72a66)"
         id="path189" />
    </g>
    <g
       id="line2d_61">
      <path
         d="m 353.57253,266.38562 c -4.57591,3.21583 -9.02088,7.02177 -14.43643,8.7071 -0.13415,0.0138 -0.31066,-0.0188 -0.35066,-0.16965"
         style="fill:none;stroke:#ff0000;stroke-width:0.25;stroke-linecap:square"
         clip-path="url(#p6660d72a66)"
         id="path192" />
    </g>
    <g
       id="line2d_62">
      <path
         d="m 350.02553,259.95957 c -3.47909,2.41376 -6.85444,5.40321 -10.99424,6.53592 -0.059,-0.0139 -0.10671,-0.0589 -0.1241,-0.1165"
         style="fill:none;stroke:#ff0000;stroke-width:0.25;stroke-linecap:square"
         clip-path="url(#p6660d72a66)"
         id="path195" />
    </g>
    <g
       id="line2d_63">
      <path
         d="m 346.96777,253.25106 c -2.34768,1.55555 -4.62803,3.76707 -7.42093,4.34811 -0.0133,-0.0131 -0.0227,-0.0301 -0.0275,-0.048"
         style="fill:none;stroke:#ff0000;stroke-width:0.25;stroke-linecap:square"
         clip-path="url(#p6660d72a66)"
         id="path198" />
    </g>
    <g
       id="line2d_64">
      <path
         d="m 344.39925,246.26008 c -1.17537,0.7514 -2.39841,1.99149 -3.77879,2.18159"
         style="fill:none;stroke:#ff0000;stroke-width:0.25;stroke-linecap:square"
         clip-path="url(#p6660d72a66)"
         id="path201" />
    </g>
    <g
       id="line2d_65">
      <path
         d="m 342.31998,238.98664 c -0.0342,0.0219 -0.0694,0.0579 -0.10951,0.0633"
         style="fill:none;stroke:#ff0000;stroke-width:0.25;stroke-linecap:square"
         clip-path="url(#p6660d72a66)"
         id="path204" />
    </g>
    <g
       id="line2d_66">
      <path
         d="m 562.47863,366.0953 c -0.0367,0.0126 -0.0907,0.0154 -0.11167,0.0515"
         style="fill:none;stroke:#0000ff;stroke-width:0.25;stroke-linecap:square"
         clip-path="url(#p6660d72a66)"
         id="path207" />
    </g>
    <g
       id="line2d_67">
      <path
         d="m 549.88066,364.89483 c -1.25818,0.57946 -3.07172,0.89355 -3.78085,2.182"
         style="fill:none;stroke:#0000ff;stroke-width:0.25;stroke-linecap:square"
         clip-path="url(#p6660d72a66)"
         id="path210" />
    </g>
    <g
       id="line2d_68">
      <path
         d="m 537.77194,363.41189 c -2.55011,1.11722 -5.81238,1.76228 -7.45002,4.18771 -0.008,0.0371 -0.01,0.0766 10e-4,0.1132"
         style="fill:none;stroke:#0000ff;stroke-width:0.25;stroke-linecap:square"
         clip-path="url(#p6660d72a66)"
         id="path213" />
    </g>
    <g
       id="line2d_69">
      <path
         d="m 526.15245,361.6465 c -3.77543,1.48965 -7.98137,2.69073 -10.84871,5.7017 -0.12822,0.20903 -0.31912,0.45632 -0.26977,0.71768"
         style="fill:none;stroke:#0000ff;stroke-width:0.25;stroke-linecap:square"
         clip-path="url(#p6660d72a66)"
         id="path216" />
    </g>
    <g
       id="line2d_70">
      <path
         d="m 515.02221,359.59863 c -4.83422,1.86415 -10.04396,3.49048 -13.96509,7.01131 -0.33994,0.43166 -0.87364,0.92759 -0.82178,1.52571"
         style="fill:none;stroke:#0000ff;stroke-width:0.25;stroke-linecap:square"
         clip-path="url(#p6660d72a66)"
         id="path219" />
    </g>
    <g
       id="line2d_71">
      <path
         d="m 504.38121,357.26831 c -5.96164,2.24904 -12.25844,4.33412 -17.19025,8.50051 -0.52852,0.60566 -1.30272,1.29101 -1.26635,2.15515"
         style="fill:none;stroke:#0000ff;stroke-width:0.25;stroke-linecap:square"
         clip-path="url(#p6660d72a66)"
         id="path222" />
    </g>
    <g
       id="line2d_72">
      <path
         d="m 494.22945,354.65552 c -6.99136,2.59881 -14.25275,5.12733 -20.1785,9.78339 -0.78801,0.81111 -1.94074,1.77397 -1.94774,2.99097"
         style="fill:none;stroke:#0000ff;stroke-width:0.25;stroke-linecap:square"
         clip-path="url(#p6660d72a66)"
         id="path225" />
    </g>
    <g
       id="line2d_73">
      <path
         d="m 484.56693,351.76027 c -7.97784,2.94452 -16.19824,5.87282 -23.06954,11.00852 -1.1007,1.05209 -2.65175,2.24943 -2.72542,3.88429"
         style="fill:none;stroke:#0000ff;stroke-width:0.25;stroke-linecap:square"
         clip-path="url(#p6660d72a66)"
         id="path228" />
    </g>
    <g
       id="line2d_74">
      <path
         d="m 475.39365,348.58255 c -9.0099,3.2926 -18.21498,6.65894 -26.04624,12.32121 -1.36975,1.24401 -3.30645,2.71362 -3.4188,4.6901"
         style="fill:none;stroke:#0000ff;stroke-width:0.25;stroke-linecap:square"
         clip-path="url(#p6660d72a66)"
         id="path231" />
    </g>
    <g
       id="line2d_75">
      <path
         d="m 466.70962,345.12237 c -9.93676,3.60491 -20.01929,7.36646 -28.75409,13.43574 -1.73065,1.49423 -4.19669,3.24832 -4.37977,5.69407"
         style="fill:none;stroke:#0000ff;stroke-width:0.25;stroke-linecap:square"
         clip-path="url(#p6660d72a66)"
         id="path234" />
    </g>
    <g
       id="line2d_76">
      <path
         d="m 458.51482,341.37973 c -10.87864,3.92778 -21.87387,8.07679 -31.50031,14.60112 -2.08382,1.71781 -5.02808,3.76173 -5.30253,6.64722"
         style="fill:none;stroke:#0000ff;stroke-width:0.25;stroke-linecap:square"
         clip-path="url(#p6660d72a66)"
         id="path237" />
    </g>
    <g
       id="line2d_77">
      <path
         d="m 450.80927,337.35462 c -11.86675,4.27228 -23.82878,8.82304 -34.3729,15.85955 -2.45505,1.96091 -5.58839,4.12948 -6.12126,7.4226 l 0.0154,0.0642 0.006,0.0205"
         style="fill:none;stroke:#0000ff;stroke-width:0.25;stroke-linecap:square"
         clip-path="url(#p6660d72a66)"
         id="path240" />
    </g>
    <g
       id="line2d_78">
      <path
         d="m 443.59296,333.04705 c -12.72295,4.55796 -25.50155,9.46837 -36.87789,16.87233 -2.92632,2.19414 -6.45887,4.63939 -7.30479,8.39548 0.007,0.0732 0.0174,0.14735 0.0409,0.21744"
         style="fill:none;stroke:#0000ff;stroke-width:0.25;stroke-linecap:square"
         clip-path="url(#p6660d72a66)"
         id="path243" />
    </g>
    <g
       id="line2d_79">
      <path
         d="m 436.86589,328.45701 c -13.50971,4.82674 -27.04193,10.06598 -39.20443,17.7769 -3.42893,2.43842 -7.40585,5.16103 -8.65206,9.3855 -0.009,0.14801 10e-4,0.29921 0.0447,0.44145"
         style="fill:none;stroke:#0000ff;stroke-width:0.25;stroke-linecap:square"
         clip-path="url(#p6660d72a66)"
         id="path246" />
    </g>
    <g
       id="line2d_80">
      <path
         d="m 430.62806,323.58451 c -14.34991,5.11416 -28.69485,10.69857 -41.66963,18.7816 -3.86901,2.63947 -8.1308,5.60358 -9.81913,10.16029 -0.0494,0.2555 -0.0692,0.52839 0.009,0.78037"
         style="fill:none;stroke:#0000ff;stroke-width:0.25;stroke-linecap:square"
         clip-path="url(#p6660d72a66)"
         id="path249" />
    </g>
    <g
       id="line2d_81">
      <path
         d="m 424.87947,318.42955 c -15.04232,5.34337 -30.04364,11.21935 -43.7231,19.53788 -4.47797,2.95412 -9.46398,6.24926 -11.43556,11.46687 -0.0514,0.27438 -0.0742,0.5653 0.009,0.83601"
         style="fill:none;stroke:#0000ff;stroke-width:0.25;stroke-linecap:square"
         clip-path="url(#p6660d72a66)"
         id="path252" />
    </g>
    <g
       id="line2d_82">
      <path
         d="m 415.95082,315.1106 c -14.34992,5.11415 -28.69485,10.69856 -41.66963,18.7816 -3.86901,2.63946 -8.13081,5.60358 -9.81913,10.16029 -0.0482,0.25555 -0.071,0.52833 0.008,0.78037"
         style="fill:none;stroke:#0000ff;stroke-width:0.25;stroke-linecap:square"
         clip-path="url(#p6660d72a66)"
         id="path255" />
    </g>
    <g
       id="line2d_83">
      <path
         d="m 407.5114,311.50919 c -13.5097,4.82675 -27.04193,10.06597 -39.20443,17.7769 -3.42894,2.43841 -7.40584,5.16104 -8.65206,9.3855 -0.01,0.14803 0.001,0.29919 0.0448,0.44145"
         style="fill:none;stroke:#0000ff;stroke-width:0.25;stroke-linecap:square"
         clip-path="url(#p6660d72a66)"
         id="path258" />
    </g>
    <g
       id="line2d_84">
      <path
         d="m 399.56123,307.62532 c -12.72295,4.55796 -25.50155,9.46837 -36.87789,16.87232 -2.92633,2.19415 -6.45887,4.6394 -7.30479,8.39549 0.007,0.0733 0.0174,0.14735 0.0409,0.21744"
         style="fill:none;stroke:#0000ff;stroke-width:0.25;stroke-linecap:square"
         clip-path="url(#p6660d72a66)"
         id="path261" />
    </g>
    <g
       id="line2d_85">
      <path
         d="m 392.1003,303.45898 c -11.86675,4.27228 -23.82879,8.82304 -34.3729,15.85955 -2.45506,1.96089 -5.58837,4.12948 -6.12126,7.42259 l 0.0154,0.0642 0.006,0.0204"
         style="fill:none;stroke:#0000ff;stroke-width:0.25;stroke-linecap:square"
         clip-path="url(#p6660d72a66)"
         id="path264" />
    </g>
    <g
       id="line2d_86">
      <path
         d="m 385.1286,299.01017 c -10.87864,3.9278 -21.87387,8.0768 -31.50031,14.60113 -2.08383,1.71781 -5.02807,3.76173 -5.30253,6.64722"
         style="fill:none;stroke:#0000ff;stroke-width:0.25;stroke-linecap:square"
         clip-path="url(#p6660d72a66)"
         id="path267" />
    </g>
    <g
       id="line2d_87">
      <path
         d="m 378.64616,294.27891 c -9.93676,3.60491 -20.01928,7.36647 -28.75409,13.43573 -1.73065,1.49424 -4.19668,3.24833 -4.37978,5.69408"
         style="fill:none;stroke:#0000ff;stroke-width:0.25;stroke-linecap:square"
         clip-path="url(#p6660d72a66)"
         id="path270" />
    </g>
    <g
       id="line2d_88">
      <path
         d="m 372.65295,289.26518 c -9.0099,3.29259 -18.21499,6.65893 -26.04624,12.32121 -1.36977,1.24402 -3.30644,2.71361 -3.41881,4.6901"
         style="fill:none;stroke:#0000ff;stroke-width:0.25;stroke-linecap:square"
         clip-path="url(#p6660d72a66)"
         id="path273" />
    </g>
    <g
       id="line2d_89">
      <path
         d="m 367.14898,283.96898 c -7.97784,2.94453 -16.19824,5.87282 -23.06954,11.00852 -1.1007,1.0521 -2.65174,2.24943 -2.72543,3.8843"
         style="fill:none;stroke:#0000ff;stroke-width:0.25;stroke-linecap:square"
         clip-path="url(#p6660d72a66)"
         id="path276" />
    </g>
    <g
       id="line2d_90">
      <path
         d="m 362.13426,278.39033 c -6.99137,2.59881 -14.25275,5.12733 -20.17851,9.78339 -0.78802,0.81113 -1.94081,1.77403 -1.94773,2.99107"
         style="fill:none;stroke:#0000ff;stroke-width:0.25;stroke-linecap:square"
         clip-path="url(#p6660d72a66)"
         id="path279" />
    </g>
    <g
       id="line2d_91">
      <path
         d="m 357.60877,272.5292 c -5.96163,2.24906 -12.25844,4.33412 -17.19024,8.50052 -0.52852,0.60566 -1.30273,1.291 -1.26636,2.15514"
         style="fill:none;stroke:#0000ff;stroke-width:0.25;stroke-linecap:square"
         clip-path="url(#p6660d72a66)"
         id="path282" />
    </g>
    <g
       id="line2d_92">
      <path
         d="m 353.57253,266.38562 c -4.83423,1.86414 -10.04397,3.49047 -13.96509,7.01131 -0.33993,0.43166 -0.87364,0.92758 -0.82178,1.5257"
         style="fill:none;stroke:#0000ff;stroke-width:0.25;stroke-linecap:square"
         clip-path="url(#p6660d72a66)"
         id="path285" />
    </g>
    <g
       id="line2d_93">
      <path
         d="m 350.02553,259.95957 c -3.77543,1.48966 -7.98138,2.69073 -10.84871,5.70171 -0.12831,0.20894 -0.31907,0.45636 -0.26977,0.71767"
         style="fill:none;stroke:#0000ff;stroke-width:0.25;stroke-linecap:square"
         clip-path="url(#p6660d72a66)"
         id="path288" />
    </g>
    <g
       id="line2d_94">
      <path
         d="m 346.96777,253.25106 c -2.55006,1.11738 -5.81238,1.76235 -7.45001,4.18782 -0.008,0.0371 -0.01,0.0765 10e-4,0.1131"
         style="fill:none;stroke:#0000ff;stroke-width:0.25;stroke-linecap:square"
         clip-path="url(#p6660d72a66)"
         id="path291" />
    </g>
    <g
       id="line2d_95">
      <path
         d="m 344.39925,246.26008 c -1.25829,0.5794 -3.07161,0.89376 -3.78096,2.1821"
         style="fill:none;stroke:#0000ff;stroke-width:0.25;stroke-linecap:square"
         clip-path="url(#p6660d72a66)"
         id="path294" />
    </g>
    <g
       id="line2d_96">
      <path
         d="m 342.31998,238.98664 c -0.0362,0.0133 -0.0908,0.0142 -0.11066,0.0515"
         style="fill:none;stroke:#0000ff;stroke-width:0.25;stroke-linecap:square"
         clip-path="url(#p6660d72a66)"
         id="path297" />
    </g>
    <g
       id="line2d_97">
      <path
         d="m 562.36855,366.15885 c -43.68172,2.67107 -87.69472,3.23952 -131.19168,-2.23505 -20.83739,-2.66865 -41.53919,-6.86788 -61.44714,-13.65355 -10.15734,-9.87689 -18.3994,-21.79175 -23.47394,-35.05113 -6.96993,-17.74873 -8.48041,-37.21132 -6.84623,-56.08694 0.55835,-6.74149 1.61268,-13.4252 2.80034,-20.08201"
         style="fill:none;stroke:#000000;stroke-width:0.8;stroke-dasharray:2.96, 1.28;stroke-dashoffset:0"
         clip-path="url(#p6660d72a66)"
         id="path300" />
    </g>
    <g
       id="line2d_98">
      <path
         d="m 562.39607,366.14296 c -40.75196,1.24881 -81.81161,0.31381 -122.02167,-6.96534 -19.54261,-3.6666 -38.96906,-8.80509 -57.0942,-17.05581 -11.63423,-8.73626 -21.76487,-19.62009 -28.83084,-32.38817 -8.78604,-15.68526 -12.72037,-33.72855 -13.00755,-51.61373 -0.15204,-6.37241 0.25003,-12.7383 0.79561,-19.0856"
         style="fill:none;stroke:#008000;stroke-width:0.8;stroke-dasharray:2.96, 1.28;stroke-dashoffset:0"
         clip-path="url(#p6660d72a66)"
         id="path303" />
    </g>
    <g
       id="line2d_99">
      <path
         d="m 562.47863,366.0953 c -30.13234,-2.61995 -60.37671,-7.43472 -88.77193,-18.18492 -17.80068,-6.78057 -34.83368,-16.19492 -48.71183,-29.37734 -10.62223,-3.91802 -21.18019,-8.26086 -30.98281,-14.0065 -15.75393,-9.01553 -29.91385,-21.30766 -39.56078,-36.80337 -5.59123,-8.83516 -9.52668,-18.62734 -12.1313,-28.73653"
         style="fill:none;stroke:#000000;stroke-width:0.8;stroke-dasharray:2.96, 1.28;stroke-dashoffset:0"
         clip-path="url(#p6660d72a66)"
         id="path306" />
    </g>
    <g
       id="line2d_100">
      <path
         d="m 562.39607,461.47446 c -40.75196,1.2488 -81.81161,0.31381 -122.02167,-6.96535 -19.54261,-3.66659 -38.96907,-8.80508 -57.0942,-17.05581 -11.63424,-8.73624 -21.76487,-19.62009 -28.83084,-32.38817 -8.78604,-15.68526 -12.72037,-33.72855 -13.00755,-51.61373 -0.15204,-6.37241 0.25003,-12.7383 0.79561,-19.0856"
         style="fill:none;stroke:#008000;stroke-width:0.8;stroke-dasharray:2.96, 1.28;stroke-dashoffset:0"
         clip-path="url(#p6660d72a66)"
         id="path309" />
    </g>
    <g
       id="line2d_101">
      <path
         d="m 562.42359,461.45857 c -35.1819,-0.12869 -70.56637,-2.22148 -105.00795,-9.77969 -23.85082,-5.28656 -47.47092,-13.31752 -67.9469,-26.89915 -14.04522,-9.39727 -26.31872,-21.74255 -34.4233,-36.65741 -8.76495,-15.85479 -12.56637,-34.07665 -12.73127,-52.09528 -0.0164,-0.55904 -0.0328,-1.11809 -0.0492,-1.67713"
         style="fill:none;stroke:#ff0000;stroke-width:0.8;stroke-dasharray:2.96, 1.28;stroke-dashoffset:0"
         clip-path="url(#p6660d72a66)"
         id="path312" />
    </g>
    <g
       id="line2d_102">
      <path
         d="M 617.40821,334.38169 C 544.022,292.01213 470.63578,249.64258 397.24956,207.27303"
         style="fill:none;stroke:#008000;stroke-width:0.8;stroke-dasharray:2.96, 1.28;stroke-dashoffset:0"
         clip-path="url(#p6660d72a66)"
         id="path315" />
    </g>
    <g
       id="line2d_103">
      <path
         d="M 617.40821,334.38169 C 544.022,292.01213 470.63578,249.64258 397.24956,207.27303"
         style="fill:none;stroke:#ff0000;stroke-width:0.8;stroke-dasharray:2.96, 1.28;stroke-dashoffset:0"
         clip-path="url(#p6660d72a66)"
         id="path318" />
    </g>
    <g
       id="Poly3DCollection_1">
      <path
         d="m 562.36855,461.49034 c -43.68172,2.67107 -87.69472,3.23952 -131.19168,-2.23505 -20.83738,-2.66866 -41.5392,-6.86787 -61.44714,-13.65355 -10.15734,-9.87688 -18.3994,-21.79174 -23.47394,-35.05112 -6.96993,-17.74873 -8.48042,-37.21133 -6.84623,-56.08695 0.61979,-6.74178 1.51,-13.59161 2.91042,-20.1456 3.47496,13.73496 9.6725,26.83023 18.61819,37.8546 11.8859,14.91049 27.98575,25.94992 45.14961,33.97248 6.11659,2.88679 12.4337,5.31633 18.79169,7.61583 13.76776,13.0925 30.63484,22.50767 48.29679,29.26947 25.80321,9.86819 53.22117,14.78503 80.62118,17.56904 2.89373,0.27575 5.78746,0.55149 8.68119,0.82724 z"
         style="fill-opacity:0.25"
         clip-path="url(#p6660d72a66)"
         id="path321" />
    </g>
  </g>
  <defs
     id="defs329">
    <clipPath
       id="p6660d72a66">
      <rect
         id="rect326"
         y="0"
         x="0"
         width="720"
         height="720" />
    </clipPath>
  </defs>
</svg>
