<?xml version="1.0" encoding="UTF-8" standalone="no"?>
<!-- Created with Inkscape (http://www.inkscape.org/) -->

<svg
   width="150mm"
   height="23.58028mm"
   viewBox="0 0 150 23.58028"
   version="1.1"
   id="svg5"
   inkscape:version="1.1.2 (0a00cf5339, 2022-02-04)"
   sodipodi:docname="block0.svg"
   xmlns:inkscape="http://www.inkscape.org/namespaces/inkscape"
   xmlns:sodipodi="http://sodipodi.sourceforge.net/DTD/sodipodi-0.dtd"
   xmlns="http://www.w3.org/2000/svg"
   xmlns:svg="http://www.w3.org/2000/svg">
  <sodipodi:namedview
     id="namedview7"
     pagecolor="#ffffff"
     bordercolor="#666666"
     borderopacity="1.0"
     inkscape:pageshadow="2"
     inkscape:pageopacity="0.0"
     inkscape:pagecheckerboard="true"
     inkscape:document-units="mm"
     showgrid="false"
     inkscape:object-paths="true"
     inkscape:zoom="2.1997092"
     inkscape:cx="310.04098"
     inkscape:cy="14.547377"
     inkscape:window-width="2560"
     inkscape:window-height="1371"
     inkscape:window-x="0"
     inkscape:window-y="32"
     inkscape:window-maximized="1"
     inkscape:current-layer="layer1"
     inkscape:snap-page="true"
     showborder="false"
     inkscape:snap-nodes="false" />
  <defs
     id="defs2" />
  <g
     inkscape:label="Layer 1"
     inkscape:groupmode="layer"
     id="layer1"
     transform="translate(-130.99275,-110.07937)">
    <rect
       style="fill:#ffffff;stroke:none;stroke-width:0.178687;stroke-linecap:round"
       id="rect881"
       width="150"
       height="23.580278"
       x="130.99275"
       y="110.07937" />
    <rect
       style="fill:#ffffff;stroke:#000000;stroke-width:0.0945553;stroke-linecap:round"
       id="rect7094"
       width="38.354374"
       height="23.485723"
       x="183.0598"
       y="110.12665" />
    <g
       aria-label="Flight Dynamics "
       id="text5922"
       style="font-size:10.5833px;line-height:1.25;stroke-width:0.264583"
       transform="matrix(0.35737492,0,0,0.35737492,132.37611,78.316403)">
      <path
         d="m 153.7135,117.07396 h 4.43382 v 0.87849 h -3.38996 v 2.27376 h 3.05923 v 0.87849 h -3.05923 v 3.68452 h -1.04386 z"
         id="path1186" />
      <path
         d="m 159.75962,116.7484 h 0.95084 v 8.04082 h -0.95084 z"
         id="path1188" />
      <path
         d="m 162.7,119.00148 h 0.95084 v 5.78774 H 162.7 Z m 0,-2.25308 h 0.95084 v 1.20405 H 162.7 Z"
         id="path1190" />
      <path
         d="m 169.44892,121.82817 q 0,-1.03352 -0.42891,-1.60196 -0.42375,-0.56844 -1.19372,-0.56844 -0.76481,0 -1.19373,0.56844 -0.42374,0.56844 -0.42374,1.60196 0,1.02836 0.42374,1.5968 0.42892,0.56844 1.19373,0.56844 0.76997,0 1.19372,-0.56844 0.42891,-0.56844 0.42891,-1.5968 z m 0.95084,2.24275 q 0,1.47794 -0.65628,2.19624 -0.65629,0.72347 -2.01021,0.72347 -0.50126,0 -0.94568,-0.0775 -0.44441,-0.0724 -0.86299,-0.22738 v -0.925 q 0.41858,0.22737 0.82682,0.33589 0.40824,0.10852 0.83199,0.10852 0.93534,0 1.40042,-0.49092 0.46509,-0.48576 0.46509,-1.47278 v -0.47025 q -0.29455,0.5116 -0.75447,0.76481 -0.45992,0.25321 -1.10071,0.25321 -1.06453,0 -1.71565,-0.81131 -0.65112,-0.81132 -0.65112,-2.14974 0,-1.34358 0.65112,-2.1549 0.65112,-0.81132 1.71565,-0.81132 0.64079,0 1.10071,0.25322 0.45992,0.25321 0.75447,0.76481 v -0.8785 h 0.95084 z"
         id="path1192" />
      <path
         d="m 177.16936,121.29591 v 3.49331 h -0.95085 v -3.46231 q 0,-0.82165 -0.32039,-1.22989 -0.32039,-0.40824 -0.96118,-0.40824 -0.76998,0 -1.21439,0.49092 -0.44442,0.49092 -0.44442,1.33841 v 3.27111 h -0.95601 v -8.04082 h 0.95601 v 3.15225 q 0.34107,-0.52193 0.80098,-0.78031 0.46509,-0.25839 1.0697,-0.25839 0.99736,0 1.50895,0.62012 0.5116,0.61495 0.5116,1.81384 z"
         id="path1194" />
      <path
         d="m 180.00638,117.35818 v 1.6433 h 1.95853 v 0.73897 h -1.95853 v 3.14192 q 0,0.70796 0.19121,0.9095 0.19637,0.20154 0.79064,0.20154 h 0.97668 v 0.79581 h -0.97668 q -1.1007,0 -1.51928,-0.40824 -0.41858,-0.41341 -0.41858,-1.49861 v -3.14192 h -0.69763 v -0.73897 h 0.69763 v -1.6433 z"
         id="path1196" />
      <path
         d="m 187.66481,117.93178 v 5.99962 h 1.2609 q 1.59679,0 2.33576,-0.72347 0.74414,-0.72347 0.74414,-2.28409 0,-1.55029 -0.74414,-2.26859 -0.73897,-0.72347 -2.33576,-0.72347 z m -1.04386,-0.85782 h 2.14456 q 2.24275,0 3.29178,0.93534 1.04903,0.93017 1.04903,2.91454 0,1.9947 -1.0542,2.93004 -1.05419,0.93534 -3.28661,0.93534 h -2.14456 z"
         id="path1198" />
      <path
         d="m 197.13706,125.32666 q -0.40307,1.03352 -0.78548,1.34875 -0.3824,0.31522 -1.02319,0.31522 h -0.75964 v -0.79581 h 0.55811 q 0.39274,0 0.60978,-0.18604 0.21704,-0.18603 0.48059,-0.87849 l 0.17053,-0.43408 -2.34094,-5.69473 h 1.00769 l 1.80867,4.52684 1.80867,-4.52684 h 1.00769 z"
         id="path1200" />
      <path
         d="m 205.80317,121.29591 v 3.49331 h -0.95084 v -3.46231 q 0,-0.82165 -0.32039,-1.22989 -0.32039,-0.40824 -0.96118,-0.40824 -0.76998,0 -1.21439,0.49092 -0.44442,0.49092 -0.44442,1.33841 v 3.27111 h -0.95601 v -5.78774 h 0.95601 v 0.89917 q 0.34107,-0.52193 0.80098,-0.78031 0.46509,-0.25839 1.0697,-0.25839 0.99735,0 1.50895,0.62012 0.51159,0.61495 0.51159,1.81384 z"
         id="path1202" />
      <path
         d="m 210.33002,121.87985 q -1.15238,0 -1.5968,0.26355 -0.44442,0.26355 -0.44442,0.89916 0,0.50643 0.33073,0.80615 0.3359,0.29456 0.9095,0.29456 0.79065,0 1.26607,-0.5581 0.48059,-0.56328 0.48059,-1.49345 v -0.21187 z m 1.89652,-0.39274 v 3.30211 h -0.95085 v -0.87849 q -0.32556,0.52709 -0.81131,0.78031 -0.48576,0.24804 -1.18856,0.24804 -0.88883,0 -1.41593,-0.49609 -0.52193,-0.50126 -0.52193,-1.33841 0,-0.97669 0.65112,-1.47278 0.65629,-0.49609 1.95336,-0.49609 h 1.33325 v -0.093 q 0,-0.65629 -0.43408,-1.01285 -0.42891,-0.36174 -1.20922,-0.36174 -0.49609,0 -0.96635,0.11886 -0.47025,0.11886 -0.90433,0.35657 v -0.8785 q 0.52193,-0.20154 1.01285,-0.29972 0.49093,-0.10336 0.95601,-0.10336 1.25574,0 1.87585,0.65113 0.62012,0.65112 0.62012,1.97403 z"
         id="path1204" />
      <path
         d="m 218.69124,120.11252 q 0.35656,-0.64079 0.85265,-0.94568 0.4961,-0.30489 1.16789,-0.30489 0.90433,0 1.39526,0.63562 0.49092,0.63045 0.49092,1.79834 v 3.49331 h -0.95601 v -3.46231 q 0,-0.83199 -0.29455,-1.23506 -0.29456,-0.40307 -0.89917,-0.40307 -0.73897,0 -1.16788,0.49092 -0.42892,0.49092 -0.42892,1.33841 v 3.27111 h -0.95601 v -3.46231 q 0,-0.83715 -0.29455,-1.23506 -0.29456,-0.40307 -0.90951,-0.40307 -0.72863,0 -1.15754,0.49609 -0.42892,0.49092 -0.42892,1.33324 v 3.27111 h -0.95601 v -5.78774 h 0.95601 v 0.89917 q 0.32556,-0.53227 0.78031,-0.78548 0.45476,-0.25322 1.08004,-0.25322 0.63045,0 1.0697,0.3204 0.44441,0.32039 0.65629,0.93017 z"
         id="path1206" />
      <path
         d="m 224.49448,119.00148 h 0.95085 v 5.78774 h -0.95085 z m 0,-2.25308 h 0.95085 v 1.20405 h -0.95085 z"
         id="path1208" />
      <path
         d="m 231.59997,119.22369 v 0.88883 q -0.40308,-0.22221 -0.81132,-0.33073 -0.40308,-0.11369 -0.81649,-0.11369 -0.925,0 -1.4366,0.58911 -0.51159,0.58395 -0.51159,1.64331 0,1.05936 0.51159,1.64847 0.5116,0.58394 1.4366,0.58394 0.41341,0 0.81649,-0.10852 0.40824,-0.11368 0.81132,-0.33589 v 0.87849 q -0.39791,0.18604 -0.82682,0.27906 -0.42375,0.093 -0.90434,0.093 -1.30741,0 -2.07738,-0.82165 -0.76998,-0.82165 -0.76998,-2.21691 0,-1.41593 0.77514,-2.22725 0.78032,-0.81132 2.13423,-0.81132 0.43925,0 0.85783,0.093 0.41858,0.0879 0.81132,0.26872 z"
         id="path1210" />
      <path
         d="m 236.94329,119.17201 v 0.89917 q -0.40307,-0.20671 -0.83715,-0.31006 -0.43408,-0.10335 -0.89917,-0.10335 -0.70796,0 -1.06453,0.21704 -0.3514,0.21704 -0.3514,0.65112 0,0.33073 0.25321,0.52193 0.25322,0.18604 1.01803,0.35657 l 0.32556,0.0723 q 1.01285,0.21704 1.4366,0.61495 0.42891,0.39274 0.42891,1.10071 0,0.80615 -0.64078,1.2764 -0.63562,0.47025 -1.75183,0.47025 -0.46509,0 -0.97151,-0.093 -0.50126,-0.0879 -1.05937,-0.26872 v -0.98185 q 0.5271,0.27389 1.0387,0.41341 0.51159,0.13436 1.01285,0.13436 0.67179,0 1.03353,-0.22738 0.36173,-0.23254 0.36173,-0.65112 0,-0.38757 -0.26355,-0.59427 -0.25838,-0.20671 -1.14204,-0.39791 l -0.33073,-0.0775 q -0.88367,-0.18603 -1.27641,-0.56843 -0.39274,-0.38758 -0.39274,-1.05937 0,-0.81648 0.57878,-1.2609 0.57877,-0.44442 1.6433,-0.44442 0.5271,0 0.99219,0.0775 0.46508,0.0775 0.85782,0.23254 z"
         id="path1212" />
    </g>
    <g
       aria-label="Translational velocity"
       id="text8562"
       style="font-size:10.5833px;line-height:1.25;stroke-width:0.264583"
       transform="matrix(0.35737492,0,0,0.35737492,132.37611,78.316403)">
      <path
         d="M -3.8708776,94.698224 H 2.655835 v 0.878496 h -2.73884222 v 6.83677 H -1.1320355 v -6.83677 h -2.7388421 z"
         id="path1058" />
      <path
         d="m 5.4205154,97.51458 q -0.1601965,-0.09302 -0.3513987,-0.134358 -0.1860345,-0.04651 -0.4134101,-0.04651 -0.8061498,0 -1.2402304,0.527098 -0.4289131,0.52193 -0.4289131,1.503779 v 3.048901 H 2.0305522 v -5.787743 h 0.9560109 v 0.899167 q 0.2997224,-0.527098 0.7803117,-0.780311 0.4805893,-0.258382 1.1678836,-0.258382 0.098185,0 0.2170404,0.0155 0.1188554,0.01034 0.2635489,0.03617 z"
         id="path1060" />
      <path
         d="m 9.0481895,99.504116 q -1.1523807,0 -1.5967966,0.263549 -0.4444159,0.263545 -0.4444159,0.899165 0,0.50643 0.3307281,0.80615 0.3358957,0.29456 0.9095023,0.29456 0.7906469,0 1.2660685,-0.55811 0.4805893,-0.56327 0.4805893,-1.493441 v -0.211873 z m 1.8965195,-0.392739 v 3.302113 H 9.9938652 v -0.8785 q -0.3255605,0.5271 -0.8113174,0.78032 -0.4857569,0.24804 -1.1885541,0.24804 -0.8888318,0 -1.4159298,-0.49609 -0.5219303,-0.50126 -0.5219303,-1.33842 0,-0.976677 0.651121,-1.47277 0.6562886,-0.496092 1.9533629,-0.496092 h 1.3332477 v -0.09302 q 0,-0.656289 -0.4340806,-1.012855 -0.428913,-0.361734 -1.2092247,-0.361734 -0.4960922,0 -0.9663462,0.118856 -0.470254,0.118855 -0.9043347,0.356566 v -0.878497 q 0.5219303,-0.201537 1.0128549,-0.299722 0.4909245,-0.103353 0.9560109,-0.103353 1.2557333,0 1.8758482,0.651121 0.620116,0.651121 0.620116,1.974034 z"
         id="path1062" />
      <path
         d="m 17.7143,98.920175 v 3.493315 h -0.950844 v -3.46231 q 0,-0.821652 -0.320393,-1.229895 -0.320392,-0.408242 -0.961178,-0.408242 -0.769977,0 -1.214392,0.490924 -0.444416,0.490925 -0.444416,1.338416 v 3.271107 h -0.956011 v -5.787742 h 0.956011 v 0.899167 q 0.341063,-0.52193 0.800982,-0.780311 0.465086,-0.258382 1.069699,-0.258382 0.997352,0 1.508947,0.620116 0.511595,0.614947 0.511595,1.813837 z"
         id="path1064" />
      <path
         d="m 23.300504,96.79628 v 0.899167 q -0.403075,-0.206705 -0.837155,-0.310058 -0.434081,-0.103352 -0.899167,-0.103352 -0.707965,0 -1.064531,0.21704 -0.351399,0.217041 -0.351399,0.651121 0,0.330728 0.253214,0.521931 0.253213,0.186034 1.018022,0.356566 l 0.325561,0.07235 q 1.012854,0.21704 1.4366,0.614947 0.428913,0.392738 0.428913,1.100698 0,0.80615 -0.640786,1.27641 -0.635618,0.47025 -1.751825,0.47025 -0.465087,0 -0.971514,-0.093 -0.50126,-0.0879 -1.059364,-0.26871 v -0.98185 q 0.527098,0.27388 1.038693,0.41341 0.511595,0.13436 1.012855,0.13436 0.671792,0 1.033525,-0.22738 0.361734,-0.23254 0.361734,-0.65112 0,-0.38757 -0.263549,-0.59428 -0.258381,-0.2067 -1.142045,-0.397901 l -0.330728,-0.07751 q -0.883664,-0.186035 -1.276404,-0.568439 -0.39274,-0.387572 -0.39274,-1.059364 0,-0.816485 0.578775,-1.260901 0.578774,-0.444416 1.643305,-0.444416 0.527098,0 0.992184,0.07752 0.465087,0.07751 0.857826,0.232543 z"
         id="path1066" />
      <path
         d="m 25.124678,94.372663 h 0.950843 v 8.040827 h -0.950843 z"
         id="path1068" />
      <path
         d="m 30.695378,99.504116 q -1.152381,0 -1.596797,0.263549 -0.444416,0.263545 -0.444416,0.899165 0,0.50643 0.330728,0.80615 0.335896,0.29456 0.909503,0.29456 0.790646,0 1.266068,-0.55811 0.480589,-0.56327 0.480589,-1.493441 v -0.211873 z m 1.896519,-0.392739 v 3.302113 h -0.950844 v -0.8785 q -0.32556,0.5271 -0.811317,0.78032 -0.485757,0.24804 -1.188554,0.24804 -0.888832,0 -1.41593,-0.49609 -0.52193,-0.50126 -0.52193,-1.33842 0,-0.976677 0.651121,-1.47277 0.656288,-0.496092 1.953363,-0.496092 h 1.333247 v -0.09302 q 0,-0.656289 -0.43408,-1.012855 -0.428913,-0.361734 -1.209225,-0.361734 -0.496092,0 -0.966346,0.118856 -0.470254,0.118855 -0.904335,0.356566 v -0.878497 q 0.521931,-0.201537 1.012855,-0.299722 0.490925,-0.103353 0.956011,-0.103353 1.255733,0 1.875849,0.651121 0.620115,0.651121 0.620115,1.974034 z"
         id="path1070" />
      <path
         d="m 35.490936,94.982443 v 1.643305 h 1.958531 v 0.738971 h -1.958531 v 3.141921 q 0,0.70796 0.191202,0.9095 0.19637,0.20154 0.790647,0.20154 h 0.976682 v 0.79581 h -0.976682 q -1.100704,0 -1.519282,-0.40824 -0.418578,-0.41341 -0.418578,-1.49861 v -3.141921 h -0.697629 v -0.738971 h 0.697629 v -1.643305 z"
         id="path1072" />
      <path
         d="m 38.700033,96.625748 h 0.950843 v 5.787742 h -0.950843 z m 0,-2.253085 h 0.950843 v 1.204057 h -0.950843 z"
         id="path1074" />
      <path
         d="m 43.883163,97.292372 q -0.764809,0 -1.209225,0.599445 -0.444415,0.594277 -0.444415,1.63297 0,1.038693 0.439248,1.638133 0.444416,0.59428 1.214392,0.59428 0.759641,0 1.204057,-0.59944 0.444416,-0.59945 0.444416,-1.632973 0,-1.028358 -0.444416,-1.627803 -0.444416,-0.604612 -1.204057,-0.604612 z m 0,-0.80615 q 1.240231,0 1.948195,0.80615 0.707965,0.80615 0.707965,2.232415 0,1.421093 -0.707965,2.232413 -0.707964,0.80615 -1.948195,0.80615 -1.245398,0 -1.953363,-0.80615 -0.702797,-0.81132 -0.702797,-2.232413 0,-1.426265 0.702797,-2.232415 0.707965,-0.80615 1.953363,-0.80615 z"
         id="path1076" />
      <path
         d="m 52.92651,98.920175 v 3.493315 h -0.950843 v -3.46231 q 0,-0.821652 -0.320393,-1.229895 -0.320393,-0.408242 -0.961178,-0.408242 -0.769977,0 -1.214393,0.490924 -0.444416,0.490925 -0.444416,1.338416 v 3.271107 h -0.956011 v -5.787742 h 0.956011 v 0.899167 q 0.341064,-0.52193 0.800982,-0.780311 0.465087,-0.258382 1.069699,-0.258382 0.997352,0 1.508947,0.620116 0.511595,0.614947 0.511595,1.813837 z"
         id="path1078" />
      <path
         d="m 57.453349,99.504116 q -1.152381,0 -1.596797,0.263549 -0.444416,0.263545 -0.444416,0.899165 0,0.50643 0.330728,0.80615 0.335896,0.29456 0.909502,0.29456 0.790647,0 1.266069,-0.55811 0.480589,-0.56327 0.480589,-1.493441 v -0.211873 z m 1.896519,-0.392739 v 3.302113 h -0.950844 v -0.8785 q -0.32556,0.5271 -0.811317,0.78032 -0.485757,0.24804 -1.188554,0.24804 -0.888832,0 -1.41593,-0.49609 -0.52193,-0.50126 -0.52193,-1.33842 0,-0.976677 0.651121,-1.47277 0.656288,-0.496092 1.953363,-0.496092 h 1.333247 v -0.09302 q 0,-0.656289 -0.43408,-1.012855 -0.428913,-0.361734 -1.209225,-0.361734 -0.496092,0 -0.966346,0.118856 -0.470254,0.118855 -0.904335,0.356566 v -0.878497 q 0.52193,-0.201537 1.012855,-0.299722 0.490924,-0.103353 0.956011,-0.103353 1.255733,0 1.875848,0.651121 0.620116,0.651121 0.620116,1.974034 z"
         id="path1080" />
      <path
         d="m 61.308397,94.372663 h 0.950843 v 8.040827 h -0.950843 z"
         id="path1082" />
      <path
         d="m 66.930775,96.625748 h 1.007687 l 1.808669,4.857572 1.80867,-4.857572 h 1.007687 l -2.170403,5.787742 h -1.291907 z"
         id="path1084" />
      <path
         d="m 78.826656,99.281908 v 0.465087 h -4.371812 q 0.06201,0.981845 0.58911,1.498615 0.532265,0.51159 1.477941,0.51159 0.547768,0 1.059363,-0.13436 0.516763,-0.13435 1.02319,-0.40307 v 0.89917 q -0.511595,0.21704 -1.049028,0.33072 -0.537433,0.11369 -1.090369,0.11369 -1.384924,0 -2.196241,-0.80615 -0.80615,-0.80615 -0.80615,-2.180737 0,-1.421097 0.764808,-2.253085 0.769977,-0.837156 2.072219,-0.837156 1.167883,0 1.844843,0.754474 0.682126,0.749306 0.682126,2.041212 z m -0.950843,-0.279051 q -0.01033,-0.780312 -0.439248,-1.245398 -0.423746,-0.465087 -1.126543,-0.465087 -0.795814,0 -1.276404,0.449584 -0.475421,0.449583 -0.547768,1.266068 z"
         id="path1086" />
      <path
         d="m 80.387277,94.372663 h 0.950844 v 8.040827 h -0.950844 z"
         id="path1088" />
      <path
         d="m 85.570404,97.292372 q -0.764809,0 -1.209225,0.599445 -0.444416,0.594277 -0.444416,1.63297 0,1.038693 0.439248,1.638133 0.444416,0.59428 1.214393,0.59428 0.759641,0 1.204057,-0.59944 0.444416,-0.59945 0.444416,-1.632973 0,-1.028358 -0.444416,-1.627803 -0.444416,-0.604612 -1.204057,-0.604612 z m 0,-0.80615 q 1.24023,0 1.948195,0.80615 0.707965,0.80615 0.707965,2.232415 0,1.421093 -0.707965,2.232413 -0.707965,0.80615 -1.948195,0.80615 -1.245398,0 -1.953363,-0.80615 -0.702797,-0.81132 -0.702797,-2.232413 0,-1.426265 0.702797,-2.232415 0.707965,-0.80615 1.953363,-0.80615 z"
         id="path1090" />
      <path
         d="m 93.967798,96.847956 v 0.888832 Q 93.564723,97.51458 93.15648,97.40606 q -0.403075,-0.113688 -0.816485,-0.113688 -0.925005,0 -1.4366,0.58911 -0.511595,0.583941 -0.511595,1.643305 0,1.059363 0.511595,1.648473 0.511595,0.58394 1.4366,0.58394 0.41341,0 0.816485,-0.10852 0.408243,-0.11369 0.811318,-0.33589 v 0.87849 q -0.397908,0.18604 -0.826821,0.27905 -0.423745,0.093 -0.904334,0.093 -1.30741,0 -2.077386,-0.82165 -0.769977,-0.82165 -0.769977,-2.216913 0,-1.41593 0.775144,-2.227247 0.780312,-0.811318 2.13423,-0.811318 0.439248,0 0.857826,0.09302 0.418578,0.08785 0.811318,0.268716 z"
         id="path1092" />
      <path
         d="m 95.621439,96.625748 h 0.950843 v 5.787742 h -0.950843 z m 0,-2.253085 h 0.950843 v 1.204057 h -0.950843 z"
         id="path1094" />
      <path
         d="m 99.502331,94.982443 v 1.643305 h 1.958529 v 0.738971 h -1.958529 v 3.141921 q 0,0.70796 0.191202,0.9095 0.19637,0.20154 0.790647,0.20154 h 0.97668 v 0.79581 h -0.97668 q -1.100705,0 -1.519282,-0.40824 -0.418578,-0.41341 -0.418578,-1.49861 v -3.141921 h -0.69763 v -0.738971 h 0.69763 v -1.643305 z"
         id="path1096" />
      <path
         d="m 105.11954,102.95092 q -0.40307,1.03353 -0.78548,1.34875 -0.3824,0.31523 -1.02319,0.31523 h -0.75964 v -0.79582 h 0.5581 q 0.39274,0 0.60978,-0.18603 0.21705,-0.18603 0.48059,-0.8785 l 0.17054,-0.43408 -2.34094,-5.694722 h 1.00769 l 1.80867,4.526842 1.80867,-4.526842 h 1.00768 z"
         id="path1098" />
    </g>
    <g
       aria-label="Angular velocity"
       id="text8896"
       style="font-size:10.5833px;line-height:1.25;stroke-width:0.264583"
       transform="matrix(0.35737492,0,0,0.35737492,132.37611,78.316403)">
      <path
         d="m 25.718957,111.32759 -1.41593,3.83955 h 2.837027 z m -0.58911,-1.02835 h 1.183387 l 2.940379,7.71526 h -1.085201 l -0.702798,-1.9792 h -3.477812 l -0.702798,1.9792 H 22.1843 Z"
         id="path1101" />
      <path
         d="m 35.149876,114.52119 v 3.49331 h -0.950844 v -3.46231 q 0,-0.82165 -0.320393,-1.22989 -0.320392,-0.40824 -0.961178,-0.40824 -0.769977,0 -1.214392,0.49092 -0.444416,0.49092 -0.444416,1.33842 v 3.2711 h -0.956011 v -5.78774 h 0.956011 v 0.89917 q 0.341063,-0.52193 0.800982,-0.78031 0.465086,-0.25838 1.069699,-0.25838 0.997351,0 1.508947,0.62011 0.511595,0.61495 0.511595,1.81384 z"
         id="path1103" />
      <path
         d="m 40.854936,115.05345 q 0,-1.03352 -0.428913,-1.60196 -0.423746,-0.56844 -1.193722,-0.56844 -0.764809,0 -1.193722,0.56844 -0.423745,0.56844 -0.423745,1.60196 0,1.02836 0.423745,1.5968 0.428913,0.56844 1.193722,0.56844 0.769976,0 1.193722,-0.56844 0.428913,-0.56844 0.428913,-1.5968 z m 0.950843,2.24275 q 0,1.47794 -0.656289,2.19624 -0.656288,0.72347 -2.010206,0.72347 -0.50126,0 -0.945676,-0.0775 -0.444416,-0.0724 -0.862994,-0.22738 v -0.925 q 0.418578,0.22737 0.82682,0.33589 0.408243,0.10852 0.831988,0.10852 0.935341,0 1.400427,-0.49092 0.465087,-0.48576 0.465087,-1.47277 v -0.47026 q -0.294555,0.5116 -0.754474,0.76481 -0.459919,0.25321 -1.100704,0.25321 -1.064532,0 -1.715652,-0.81131 -0.651121,-0.81132 -0.651121,-2.14974 0,-1.34358 0.651121,-2.1549 0.65112,-0.81131 1.715652,-0.81131 0.640785,0 1.100704,0.25321 0.459919,0.25321 0.754474,0.76481 v -0.8785 h 0.950843 z"
         id="path1105" />
      <path
         d="m 43.666125,115.73041 v -3.50365 h 0.950844 v 3.46748 q 0,0.82165 0.320392,1.23506 0.320393,0.40824 0.961179,0.40824 0.769976,0 1.214392,-0.49092 0.449584,-0.49092 0.449584,-1.33842 v -3.28144 h 0.950843 v 5.78774 h -0.950843 v -0.88883 q -0.346231,0.5271 -0.80615,0.78548 -0.454751,0.25321 -1.059363,0.25321 -0.997352,0 -1.514115,-0.62011 -0.516763,-0.62012 -0.516763,-1.81384 z m 2.392611,-3.64317 z"
         id="path1107" />
      <path
         d="m 50.471889,109.97368 h 0.950843 v 8.04082 h -0.950843 z"
         id="path1109" />
      <path
         d="m 56.042591,115.10513 q -1.152381,0 -1.596797,0.26355 -0.444416,0.26355 -0.444416,0.89917 0,0.50642 0.330729,0.80615 0.335895,0.29455 0.909502,0.29455 0.790647,0 1.266068,-0.5581 0.48059,-0.56327 0.48059,-1.49345 v -0.21187 z m 1.896519,-0.39274 v 3.30211 h -0.950843 v -0.87849 q -0.325561,0.52709 -0.811318,0.78031 -0.485757,0.24804 -1.188554,0.24804 -0.888832,0 -1.41593,-0.49609 -0.52193,-0.50126 -0.52193,-1.33841 0,-0.97668 0.651121,-1.47278 0.656289,-0.49609 1.953363,-0.49609 h 1.333248 v -0.093 q 0,-0.65628 -0.434081,-1.01285 -0.428913,-0.36173 -1.209225,-0.36173 -0.496092,0 -0.966346,0.11885 -0.470254,0.11886 -0.904335,0.35657 v -0.8785 q 0.521931,-0.20154 1.012855,-0.29972 0.490925,-0.10335 0.956011,-0.10335 1.255734,0 1.875849,0.65112 0.620115,0.65112 0.620115,1.97403 z"
         id="path1111" />
      <path
         d="m 63.251431,113.11559 q -0.160196,-0.093 -0.351398,-0.13436 -0.186035,-0.0465 -0.41341,-0.0465 -0.80615,0 -1.240231,0.52709 -0.428913,0.52193 -0.428913,1.50378 v 3.0489 h -0.956011 v -5.78774 h 0.956011 v 0.89917 q 0.299722,-0.5271 0.780312,-0.78031 0.480589,-0.25838 1.167883,-0.25838 0.09819,0 0.217041,0.0155 0.118855,0.0103 0.263549,0.0362 z"
         id="path1113" />
      <path
         d="m 66.930782,112.22676 h 1.007687 l 1.80867,4.85757 1.808669,-4.85757 h 1.007687 l -2.170403,5.78774 h -1.291907 z"
         id="path1115" />
      <path
         d="m 78.826656,114.88292 v 0.46509 h -4.371812 q 0.06201,0.98185 0.589109,1.49861 0.532266,0.51159 1.477941,0.51159 0.547769,0 1.059364,-0.13435 0.516762,-0.13436 1.02319,-0.40308 v 0.89917 q -0.511595,0.21704 -1.049028,0.33073 -0.537434,0.11368 -1.09037,0.11368 -1.384924,0 -2.196241,-0.80615 -0.80615,-0.80614 -0.80615,-2.18073 0,-1.4211 0.764809,-2.25309 0.769976,-0.83715 2.072218,-0.83715 1.167884,0 1.844843,0.75447 0.682127,0.7493 0.682127,2.04121 z m -0.950843,-0.27905 q -0.01034,-0.78031 -0.439249,-1.2454 -0.423745,-0.46508 -1.126542,-0.46508 -0.795815,0 -1.276404,0.44958 -0.475422,0.44958 -0.547769,1.26607 z"
         id="path1117" />
      <path
         d="m 80.387281,109.97368 h 0.950843 v 8.04082 h -0.950843 z"
         id="path1119" />
      <path
         d="m 85.570411,112.89339 q -0.764809,0 -1.209225,0.59944 -0.444416,0.59428 -0.444416,1.63297 0,1.03869 0.439249,1.63814 0.444416,0.59427 1.214392,0.59427 0.759641,0 1.204057,-0.59944 0.444416,-0.59944 0.444416,-1.63297 0,-1.02836 -0.444416,-1.6278 -0.444416,-0.60461 -1.204057,-0.60461 z m 0,-0.80615 q 1.24023,0 1.948195,0.80615 0.707965,0.80615 0.707965,2.23241 0,1.4211 -0.707965,2.23241 -0.707965,0.80615 -1.948195,0.80615 -1.245398,0 -1.953363,-0.80615 -0.702797,-0.81131 -0.702797,-2.23241 0,-1.42626 0.702797,-2.23241 0.707965,-0.80615 1.953363,-0.80615 z"
         id="path1121" />
      <path
         d="m 93.967805,112.44897 v 0.88883 q -0.403075,-0.22221 -0.811318,-0.33073 -0.403075,-0.11368 -0.816485,-0.11368 -0.925005,0 -1.4366,0.5891 -0.511595,0.58395 -0.511595,1.64331 0,1.05936 0.511595,1.64847 0.511595,0.58394 1.4366,0.58394 0.41341,0 0.816485,-0.10852 0.408243,-0.11368 0.811318,-0.33589 v 0.8785 q -0.397908,0.18603 -0.826821,0.27905 -0.423745,0.093 -0.904334,0.093 -1.30741,0 -2.077386,-0.82165 -0.769977,-0.82165 -0.769977,-2.21691 0,-1.41593 0.775144,-2.22725 0.780312,-0.81131 2.13423,-0.81131 0.439249,0 0.857826,0.093 0.418578,0.0879 0.811318,0.26872 z"
         id="path1123" />
      <path
         d="m 95.621446,112.22676 h 0.950843 v 5.78774 h -0.950843 z m 0,-2.25308 h 0.950843 v 1.20405 h -0.950843 z"
         id="path1125" />
      <path
         d="m 99.50233,110.58346 v 1.6433 h 1.95853 v 0.73897 h -1.95853 v 3.14192 q 0,0.70796 0.191203,0.9095 0.196369,0.20154 0.790647,0.20154 h 0.97668 v 0.79581 h -0.97668 q -1.100705,0 -1.519283,-0.40824 -0.418578,-0.41341 -0.418578,-1.49861 v -3.14192 H 97.84869 v -0.73897 h 0.697629 v -1.6433 z"
         id="path1127" />
      <path
         d="m 105.11954,118.55194 q -0.40307,1.03352 -0.78548,1.34875 -0.3824,0.31522 -1.02319,0.31522 h -0.75964 v -0.79581 h 0.5581 q 0.39274,0 0.60978,-0.18604 0.21704,-0.18603 0.48059,-0.87849 l 0.17054,-0.43408 -2.34094,-5.69473 h 1.00769 l 1.80867,4.52684 1.80867,-4.52684 h 1.00768 z"
         id="path1129" />
    </g>
    <g
       aria-label="Wind velocity"
       id="text11280"
       style="font-size:10.5833px;line-height:1.25;stroke-width:0.264583"
       transform="matrix(0.35737492,0,0,0.35737492,132.37611,78.316403)">
      <path
         d="m 37.005058,125.90023 h 1.054196 l 1.622635,6.52154 1.617467,-6.52154 h 1.173052 l 1.622634,6.52154 1.617468,-6.52154 h 1.059363 l -1.93786,7.71526 h -1.312577 l -1.627803,-6.69724 -1.643305,6.69724 h -1.312577 z"
         id="path1132" />
      <path
         d="m 47.882913,127.82775 h 0.950843 v 5.78774 h -0.950843 z m 0,-2.25308 h 0.950843 v 1.20405 h -0.950843 z"
         id="path1134" />
      <path
         d="m 55.634354,130.12218 v 3.49331 H 54.68351 v -3.46231 q 0,-0.82165 -0.320393,-1.22989 -0.320392,-0.40824 -0.961178,-0.40824 -0.769977,0 -1.214392,0.49092 -0.444416,0.49093 -0.444416,1.33842 v 3.2711 H 50.78712 v -5.78774 h 0.956011 v 0.89917 q 0.341063,-0.52193 0.800982,-0.78031 0.465086,-0.25838 1.069699,-0.25838 0.997351,0 1.508947,0.62011 0.511595,0.61495 0.511595,1.81384 z"
         id="path1136" />
      <path
         d="m 61.339413,128.70625 v -3.13158 h 0.950843 v 8.04082 h -0.950843 v -0.86816 q -0.299723,0.51677 -0.759641,0.76998 -0.454752,0.24804 -1.095537,0.24804 -1.049029,0 -1.710485,-0.83715 -0.656288,-0.83716 -0.656288,-2.20141 0,-1.36425 0.656288,-2.20141 0.661456,-0.83715 1.710485,-0.83715 0.640785,0 1.095537,0.25321 0.459918,0.24805 0.759641,0.76481 z m -3.240102,2.02054 q 0,1.04903 0.428913,1.64847 0.43408,0.59428 1.188554,0.59428 0.754473,0 1.188554,-0.59428 0.434081,-0.59944 0.434081,-1.64847 0,-1.04903 -0.434081,-1.6433 -0.434081,-0.59945 -1.188554,-0.59945 -0.754474,0 -1.188554,0.59945 -0.428913,0.59427 -0.428913,1.6433 z"
         id="path1138" />
      <path
         d="m 66.930786,127.82775 h 1.007687 l 1.808669,4.85757 1.80867,-4.85757 h 1.007687 l -2.170403,5.78774 h -1.291907 z"
         id="path1140" />
      <path
         d="m 78.826662,130.48391 v 0.46509 h -4.371813 q 0.06201,0.98185 0.58911,1.49861 0.532265,0.5116 1.477941,0.5116 0.547768,0 1.059364,-0.13436 0.516762,-0.13436 1.02319,-0.40308 v 0.89917 q -0.511595,0.21704 -1.049029,0.33073 -0.537433,0.11368 -1.090369,0.11368 -1.384924,0 -2.196241,-0.80614 -0.80615,-0.80615 -0.80615,-2.18074 0,-1.4211 0.764809,-2.25309 0.769976,-0.83715 2.072218,-0.83715 1.167884,0 1.844843,0.75447 0.682127,0.74931 0.682127,2.04121 z m -0.950844,-0.27905 q -0.01033,-0.78031 -0.439248,-1.2454 -0.423745,-0.46508 -1.126543,-0.46508 -0.795814,0 -1.276403,0.44958 -0.475422,0.44958 -0.547769,1.26607 z"
         id="path1142" />
      <path
         d="m 80.387287,125.57467 h 0.950843 v 8.04082 h -0.950843 z"
         id="path1144" />
      <path
         d="m 85.570417,128.49438 q -0.764809,0 -1.209225,0.59944 -0.444416,0.59428 -0.444416,1.63297 0,1.03869 0.439248,1.63814 0.444416,0.59428 1.214393,0.59428 0.759641,0 1.204057,-0.59945 0.444416,-0.59944 0.444416,-1.63297 0,-1.02836 -0.444416,-1.6278 -0.444416,-0.60461 -1.204057,-0.60461 z m 0,-0.80615 q 1.24023,0 1.948195,0.80615 0.707965,0.80615 0.707965,2.23241 0,1.4211 -0.707965,2.23242 -0.707965,0.80614 -1.948195,0.80614 -1.245398,0 -1.953363,-0.80614 -0.702798,-0.81132 -0.702798,-2.23242 0,-1.42626 0.702798,-2.23241 0.707965,-0.80615 1.953363,-0.80615 z"
         id="path1146" />
      <path
         d="m 93.967807,128.04996 v 0.88883 q -0.403075,-0.22221 -0.811318,-0.33073 -0.403075,-0.11368 -0.816485,-0.11368 -0.925005,0 -1.4366,0.58911 -0.511595,0.58394 -0.511595,1.6433 0,1.05936 0.511595,1.64847 0.511595,0.58395 1.4366,0.58395 0.41341,0 0.816485,-0.10852 0.408243,-0.11369 0.811318,-0.3359 v 0.8785 q -0.397908,0.18603 -0.826821,0.27905 -0.423745,0.093 -0.904334,0.093 -1.30741,0 -2.077386,-0.82165 -0.769977,-0.82165 -0.769977,-2.21691 0,-1.41593 0.775144,-2.22725 0.780312,-0.81131 2.13423,-0.81131 0.439248,0 0.857826,0.093 0.418578,0.0879 0.811318,0.26872 z"
         id="path1148" />
      <path
         d="m 95.621448,127.82775 h 0.950843 v 5.78774 h -0.950843 z m 0,-2.25308 h 0.950843 v 1.20405 h -0.950843 z"
         id="path1150" />
      <path
         d="m 99.502336,126.18445 v 1.6433 h 1.958534 v 0.73897 h -1.958534 v 3.14192 q 0,0.70796 0.191202,0.9095 0.19637,0.20154 0.790652,0.20154 h 0.97668 v 0.79581 h -0.97668 q -1.100709,0 -1.519287,-0.40824 -0.418578,-0.41341 -0.418578,-1.49861 v -3.14192 h -0.69763 v -0.73897 h 0.69763 v -1.6433 z"
         id="path1152" />
      <path
         d="m 105.11954,134.15293 q -0.40307,1.03352 -0.78548,1.34875 -0.3824,0.31522 -1.02319,0.31522 h -0.75964 v -0.79581 h 0.55811 q 0.39274,0 0.60978,-0.18604 0.21704,-0.18603 0.48059,-0.87849 l 0.17053,-0.43408 -2.34094,-5.69473 h 1.00769 l 1.80867,4.52684 1.80867,-4.52684 h 1.00769 z"
         id="path1154" />
    </g>
    <g
       aria-label="Glider controls"
       id="text12142"
       style="font-size:10.5833px;line-height:1.25;stroke-width:0.264583"
       transform="matrix(0.35737492,0,0,0.35737492,132.37611,78.316403)">
      <path
         d="m 37.253097,148.11579 v -2.07222 H 35.54778 v -0.85783 h 2.738843 v 3.31245 q -0.604613,0.42891 -1.333248,0.65112 -0.728636,0.21704 -1.555456,0.21704 -1.808669,0 -2.831859,-1.05419 -1.018023,-1.05937 -1.018023,-2.94555 0,-1.89135 1.018023,-2.94555 1.02319,-1.05936 2.831859,-1.05936 0.754474,0 1.431433,0.18603 0.682127,0.18604 1.255733,0.54777 v 1.11104 q -0.578774,-0.49092 -1.229895,-0.73897 -0.651121,-0.24804 -1.369421,-0.24804 -1.41593,0 -2.129062,0.79064 -0.707965,0.79065 -0.707965,2.35644 0,1.56062 0.707965,2.35127 0.713132,0.79065 2.129062,0.79065 0.552936,0 0.987017,-0.093 0.43408,-0.0982 0.780311,-0.29972 z"
         id="path1157" />
      <path
         d="m 40.152136,141.17566 h 0.950843 v 8.04083 h -0.950843 z"
         id="path1159" />
      <path
         d="m 43.092515,143.42875 h 0.950844 v 5.78774 h -0.950844 z m 0,-2.25309 h 0.950844 v 1.20406 h -0.950844 z"
         id="path1161" />
      <path
         d="m 49.841436,144.30725 v -3.13159 h 0.950844 v 8.04083 h -0.950844 v -0.86816 q -0.299722,0.51676 -0.759641,0.76998 -0.454751,0.24804 -1.095537,0.24804 -1.049028,0 -1.710484,-0.83715 -0.656289,-0.83716 -0.656289,-2.20141 0,-1.36426 0.656289,-2.20141 0.661456,-0.83716 1.710484,-0.83716 0.640786,0 1.095537,0.25322 0.459919,0.24804 0.759641,0.76481 z m -3.240102,2.02054 q 0,1.04903 0.428913,1.64847 0.434081,0.59428 1.188555,0.59428 0.754473,0 1.188554,-0.59428 0.43408,-0.59944 0.43408,-1.64847 0,-1.04903 -0.43408,-1.64331 -0.434081,-0.59944 -1.188554,-0.59944 -0.754474,0 -1.188555,0.59944 -0.428913,0.59428 -0.428913,1.64331 z"
         id="path1163" />
      <path
         d="M 57.701396,146.08491 V 146.55 h -4.371812 q 0.06201,0.98185 0.58911,1.49861 0.532265,0.51159 1.477941,0.51159 0.547768,0 1.059363,-0.13436 0.516763,-0.13435 1.02319,-0.40307 v 0.89917 q -0.511595,0.21704 -1.049028,0.33073 -0.537433,0.11368 -1.090369,0.11368 -1.384924,0 -2.196241,-0.80615 -0.80615,-0.80615 -0.80615,-2.18074 0,-1.42109 0.764809,-2.25308 0.769976,-0.83716 2.072218,-0.83716 1.167884,0 1.844843,0.75448 0.682126,0.7493 0.682126,2.04121 z m -0.950843,-0.27905 q -0.01033,-0.78031 -0.439248,-1.2454 -0.423746,-0.46509 -1.126543,-0.46509 -0.795814,0 -1.276404,0.44959 -0.475421,0.44958 -0.547768,1.26607 z"
         id="path1165" />
      <path
         d="m 62.615809,144.31758 q -0.160196,-0.093 -0.351398,-0.13436 -0.186035,-0.0465 -0.413411,-0.0465 -0.806149,0 -1.24023,0.5271 -0.428913,0.52193 -0.428913,1.50378 v 3.0489 h -0.956011 v -5.78774 h 0.956011 v 0.89917 q 0.299722,-0.5271 0.780312,-0.78031 0.480589,-0.25839 1.167883,-0.25839 0.09819,0 0.217041,0.0155 0.118855,0.0103 0.263549,0.0362 z"
         id="path1167" />
      <path
         d="m 71.142396,143.65096 v 0.88883 q -0.403075,-0.22221 -0.811318,-0.33073 -0.403075,-0.11369 -0.816485,-0.11369 -0.925005,0 -1.4366,0.58911 -0.511595,0.58394 -0.511595,1.64331 0,1.05936 0.511595,1.64847 0.511595,0.58394 1.4366,0.58394 0.41341,0 0.816485,-0.10852 0.408243,-0.11368 0.811318,-0.33589 v 0.87849 q -0.397908,0.18604 -0.826821,0.27906 -0.423745,0.093 -0.904334,0.093 -1.30741,0 -2.077386,-0.82165 -0.769977,-0.82165 -0.769977,-2.21691 0,-1.41593 0.775144,-2.22725 0.780312,-0.81132 2.13423,-0.81132 0.439249,0 0.857826,0.093 0.418578,0.0879 0.811318,0.26872 z"
         id="path1169" />
      <path
         d="m 75.038783,144.09537 q -0.764809,0 -1.209224,0.59945 -0.444416,0.59428 -0.444416,1.63297 0,1.03869 0.439248,1.63814 0.444416,0.59427 1.214392,0.59427 0.759641,0 1.204057,-0.59944 0.444416,-0.59945 0.444416,-1.63297 0,-1.02836 -0.444416,-1.6278 -0.444416,-0.60462 -1.204057,-0.60462 z m 0,-0.80615 q 1.240231,0 1.948196,0.80615 0.707964,0.80615 0.707964,2.23242 0,1.4211 -0.707964,2.23241 -0.707965,0.80615 -1.948196,0.80615 -1.245398,0 -1.953363,-0.80615 -0.702797,-0.81131 -0.702797,-2.23241 0,-1.42627 0.702797,-2.23242 0.707965,-0.80615 1.953363,-0.80615 z"
         id="path1171" />
      <path
         d="m 84.08213,145.72318 v 3.49331 h -0.950843 v -3.46231 q 0,-0.82165 -0.320393,-1.22989 -0.320393,-0.40825 -0.961178,-0.40825 -0.769977,0 -1.214393,0.49093 -0.444416,0.49092 -0.444416,1.33841 v 3.27111 h -0.956011 v -5.78774 h 0.956011 v 0.89917 q 0.341064,-0.52193 0.800983,-0.78031 0.465086,-0.25839 1.069698,-0.25839 0.997352,0 1.508947,0.62012 0.511595,0.61495 0.511595,1.81384 z"
         id="path1173" />
      <path
         d="m 86.919158,141.78544 v 1.64331 h 1.958531 v 0.73897 h -1.958531 v 3.14192 q 0,0.70796 0.191203,0.9095 0.196369,0.20154 0.790647,0.20154 h 0.976681 v 0.79581 h -0.976681 q -1.100705,0 -1.519283,-0.40824 -0.418577,-0.41341 -0.418577,-1.49861 v -3.14192 h -0.69763 v -0.73897 h 0.69763 v -1.64331 z"
         id="path1175" />
      <path
         d="m 93.482045,144.31758 q -0.160196,-0.093 -0.351399,-0.13436 -0.186034,-0.0465 -0.41341,-0.0465 -0.80615,0 -1.24023,0.5271 -0.428913,0.52193 -0.428913,1.50378 v 3.0489 h -0.956011 v -5.78774 h 0.956011 v 0.89917 q 0.299722,-0.5271 0.780311,-0.78031 0.48059,-0.25839 1.167884,-0.25839 0.09818,0 0.21704,0.0155 0.118856,0.0103 0.263549,0.0362 z"
         id="path1177" />
      <path
         d="m 96.489604,144.09537 q -0.764809,0 -1.209224,0.59945 -0.444416,0.59428 -0.444416,1.63297 0,1.03869 0.439248,1.63814 0.444416,0.59427 1.214392,0.59427 0.759641,0 1.204057,-0.59944 0.444416,-0.59945 0.444416,-1.63297 0,-1.02836 -0.444416,-1.6278 -0.444416,-0.60462 -1.204057,-0.60462 z m 0,-0.80615 q 1.240231,0 1.948195,0.80615 0.707965,0.80615 0.707965,2.23242 0,1.4211 -0.707965,2.23241 -0.707964,0.80615 -1.948195,0.80615 -1.245398,0 -1.953363,-0.80615 -0.702797,-0.81131 -0.702797,-2.23241 0,-1.42627 0.702797,-2.23242 0.707965,-0.80615 1.953363,-0.80615 z"
         id="path1179" />
      <path
         d="m 100.72189,141.17566 h 0.95084 v 8.04083 h -0.95084 z"
         id="path1181" />
      <path
         d="m 107.35196,143.59928 v 0.89917 q -0.40308,-0.20671 -0.83716,-0.31006 -0.43408,-0.10335 -0.89917,-0.10335 -0.70796,0 -1.06453,0.21704 -0.3514,0.21704 -0.3514,0.65112 0,0.33073 0.25322,0.52193 0.25321,0.18603 1.01802,0.35657 l 0.32556,0.0723 q 1.01286,0.21704 1.4366,0.61495 0.42891,0.39274 0.42891,1.10071 0,0.80614 -0.64078,1.2764 -0.63562,0.47025 -1.75183,0.47025 -0.46508,0 -0.97151,-0.093 -0.50126,-0.0879 -1.05936,-0.26872 v -0.98185 q 0.52709,0.27388 1.03869,0.41341 0.51159,0.13436 1.01285,0.13436 0.67179,0 1.03353,-0.22738 0.36173,-0.23254 0.36173,-0.65112 0,-0.38757 -0.26355,-0.59428 -0.25838,-0.2067 -1.14204,-0.3979 l -0.33073,-0.0775 q -0.88366,-0.18603 -1.2764,-0.56844 -0.39274,-0.38757 -0.39274,-1.05936 0,-0.81648 0.57877,-1.2609 0.57877,-0.44442 1.64331,-0.44442 0.52709,0 0.99218,0.0775 0.46509,0.0775 0.85783,0.23254 z"
         id="path1183" />
    </g>
    <g
       id="path12388"
       transform="matrix(0.35737492,0,0,0.35737492,132.37611,78.316403)">
      <path
         style="color:#000000;fill:#000000;-inkscape-stroke:none"
         d="m 113.80859,99.244141 v 0.5 h 26.94922 v -0.5 z"
         id="path963" />
      <g
         id="g953">
        <g
           id="path955">
          <path
             style="color:#000000;fill:#000000;fill-rule:evenodd;stroke-width:0.4pt;-inkscape-stroke:none"
             d="m 135.75706,99.493781 -2,1.999999 7,-1.999999 -7,-2 z"
             id="path959" />
          <path
             style="color:#000000;fill:#000000;fill-rule:evenodd;-inkscape-stroke:none"
             d="m 132.83984,96.955078 2.53907,2.539063 -2.53907,2.539059 8.88868,-2.539059 z m 1.83399,1.078125 5.11523,1.460938 -5.11719,1.460939 1.4629,-1.460939 -0.18946,-0.189454 z"
             id="path961" />
        </g>
      </g>
    </g>
    <g
       id="path13113"
       transform="matrix(0.35737492,0,0,0.35737492,132.37611,78.316403)">
      <path
         style="color:#000000;fill:#000000;-inkscape-stroke:none"
         d="m 113.80859,115.08203 v 0.5 h 26.94922 v -0.5 z"
         id="path949" />
      <g
         id="g939">
        <g
           id="path941">
          <path
             style="color:#000000;fill:#000000;fill-rule:evenodd;stroke-width:0.4pt;-inkscape-stroke:none"
             d="m 135.75706,115.33213 -2,2 7,-2 -7,-2 z"
             id="path945" />
          <path
             style="color:#000000;fill:#000000;fill-rule:evenodd;-inkscape-stroke:none"
             d="m 132.83984,112.79297 2.53907,2.53906 -2.53907,2.53906 8.88868,-2.53906 z m 1.83008,1.07617 5.11914,1.46289 -5.11523,1.46094 1.46094,-1.46094 -0.18946,-0.1875 z"
             id="path947" />
        </g>
      </g>
    </g>
    <g
       id="path13115"
       transform="matrix(0.35737492,0,0,0.35737492,132.37611,78.316403)">
      <path
         style="color:#000000;fill:#000000;-inkscape-stroke:none"
         d="m 113.80859,129.97461 v 0.5 h 26.94922 v -0.5 z"
         id="path935" />
      <g
         id="g925">
        <g
           id="path927">
          <path
             style="color:#000000;fill:#000000;fill-rule:evenodd;stroke-width:0.4pt;-inkscape-stroke:none"
             d="m 135.75706,130.22491 -2,2 7,-2 -7,-2 z"
             id="path931" />
          <path
             style="color:#000000;fill:#000000;fill-rule:evenodd;-inkscape-stroke:none"
             d="m 132.83984,127.68555 2.53907,2.53906 -2.53907,2.53906 8.88868,-2.53906 z m 1.83008,1.07617 5.11914,1.46289 -5.11523,1.46094 1.46094,-1.46094 -0.18946,-0.1875 z"
             id="path933" />
        </g>
      </g>
    </g>
    <g
       id="path13117"
       transform="matrix(0.35737492,0,0,0.35737492,132.37611,78.316403)">
      <path
         style="color:#000000;fill:#000000;-inkscape-stroke:none"
         d="m 113.80859,145.57617 v 0.5 h 26.94922 v -0.5 z"
         id="path921" />
      <g
         id="g911">
        <g
           id="path913">
          <path
             style="color:#000000;fill:#000000;fill-rule:evenodd;stroke-width:0.4pt;-inkscape-stroke:none"
             d="m 135.75706,145.82686 -2,2 7,-2 -7,-2 z"
             id="path917" />
          <path
             style="color:#000000;fill:#000000;fill-rule:evenodd;-inkscape-stroke:none"
             d="m 132.83984,143.28711 2.53907,2.53906 -2.53907,2.53906 8.88868,-2.53906 z m 1.83399,1.08008 5.11133,1.46093 -5.11133,1.45899 1.46094,-1.46094 -0.18946,-0.1875 z"
             id="path919" />
        </g>
      </g>
    </g>
    <g
       aria-label="Translational acceleration Angular acceleration"
       id="text13489"
       style="font-size:10.5833px;line-height:1.25;stroke-width:0.264583"
       transform="matrix(0.35737492,0,0,0.35737492,132.37611,78.316403)">
      <path
         d="m 281.07434,110.45939 h 6.52671 v 0.87849 h -2.73884 v 6.83677 h -1.04903 v -6.83677 h -2.73884 z"
         id="path1215" />
      <path
         d="m 290.36573,113.27574 q -0.16019,-0.093 -0.35139,-0.13436 -0.18604,-0.0465 -0.41341,-0.0465 -0.80615,0 -1.24024,0.5271 -0.42891,0.52193 -0.42891,1.50378 v 3.0489 h -0.95601 v -5.78774 h 0.95601 v 0.89917 q 0.29972,-0.5271 0.78031,-0.78031 0.48059,-0.25839 1.16789,-0.25839 0.0982,0 0.21704,0.0155 0.11885,0.0103 0.26355,0.0362 z"
         id="path1217" />
      <path
         d="m 293.99341,115.26528 q -1.15238,0 -1.5968,0.26355 -0.44441,0.26355 -0.44441,0.89916 0,0.50643 0.33072,0.80615 0.3359,0.29456 0.90951,0.29456 0.79064,0 1.26606,-0.5581 0.48059,-0.56328 0.48059,-1.49345 v -0.21187 z m 1.89652,-0.39274 v 3.30211 h -0.95085 v -0.87849 q -0.32556,0.52709 -0.81131,0.78031 -0.48576,0.24804 -1.18856,0.24804 -0.88883,0 -1.41593,-0.49609 -0.52193,-0.50126 -0.52193,-1.33841 0,-0.97669 0.65112,-1.47278 0.65629,-0.49609 1.95337,-0.49609 h 1.33324 v -0.093 q 0,-0.65629 -0.43408,-1.01285 -0.42891,-0.36174 -1.20922,-0.36174 -0.49609,0 -0.96635,0.11886 -0.47025,0.11885 -0.90433,0.35657 v -0.8785 q 0.52193,-0.20154 1.01285,-0.29972 0.49093,-0.10336 0.95601,-0.10336 1.25574,0 1.87585,0.65113 0.62012,0.65112 0.62012,1.97403 z"
         id="path1219" />
      <path
         d="m 302.65952,114.68134 v 3.49331 h -0.95085 v -3.46231 q 0,-0.82165 -0.32039,-1.22989 -0.32039,-0.40825 -0.96118,-0.40825 -0.76997,0 -1.21439,0.49093 -0.44441,0.49092 -0.44441,1.33841 v 3.27111 h -0.95602 v -5.78774 h 0.95602 v 0.89917 q 0.34106,-0.52193 0.80098,-0.78031 0.46508,-0.25839 1.0697,-0.25839 0.99735,0 1.50894,0.62012 0.5116,0.61495 0.5116,1.81384 z"
         id="path1221" />
      <path
         d="m 308.24572,112.55744 v 0.89917 q -0.40307,-0.20671 -0.83715,-0.31006 -0.43408,-0.10335 -0.89917,-0.10335 -0.70796,0 -1.06453,0.21704 -0.3514,0.21704 -0.3514,0.65112 0,0.33073 0.25321,0.52193 0.25322,0.18603 1.01803,0.35657 l 0.32556,0.0723 q 1.01285,0.21704 1.4366,0.61495 0.42891,0.39274 0.42891,1.10071 0,0.80615 -0.64079,1.2764 -0.63561,0.47025 -1.75182,0.47025 -0.46509,0 -0.97151,-0.093 -0.50126,-0.0879 -1.05937,-0.26872 v -0.98185 q 0.5271,0.27388 1.03869,0.41341 0.5116,0.13436 1.01286,0.13436 0.67179,0 1.03353,-0.22738 0.36173,-0.23254 0.36173,-0.65112 0,-0.38757 -0.26355,-0.59427 -0.25838,-0.20671 -1.14205,-0.39791 l -0.33072,-0.0775 q -0.88367,-0.18603 -1.27641,-0.56844 -0.39274,-0.38757 -0.39274,-1.05936 0,-0.81648 0.57878,-1.2609 0.57877,-0.44442 1.6433,-0.44442 0.5271,0 0.99219,0.0775 0.46508,0.0775 0.85782,0.23254 z"
         id="path1223" />
      <path
         d="m 310.0699,110.13382 h 0.95084 v 8.04083 h -0.95084 z"
         id="path1225" />
      <path
         d="m 315.6406,115.26528 q -1.15238,0 -1.5968,0.26355 -0.44442,0.26355 -0.44442,0.89916 0,0.50643 0.33073,0.80615 0.3359,0.29456 0.9095,0.29456 0.79065,0 1.26607,-0.5581 0.48059,-0.56328 0.48059,-1.49345 v -0.21187 z m 1.89652,-0.39274 v 3.30211 h -0.95085 v -0.87849 q -0.32556,0.52709 -0.81132,0.78031 -0.48575,0.24804 -1.18855,0.24804 -0.88883,0 -1.41593,-0.49609 -0.52193,-0.50126 -0.52193,-1.33841 0,-0.97669 0.65112,-1.47278 0.65629,-0.49609 1.95336,-0.49609 h 1.33325 v -0.093 q 0,-0.65629 -0.43408,-1.01285 -0.42891,-0.36174 -1.20922,-0.36174 -0.4961,0 -0.96635,0.11886 -0.47025,0.11885 -0.90433,0.35657 v -0.8785 q 0.52193,-0.20154 1.01285,-0.29972 0.49093,-0.10336 0.95601,-0.10336 1.25573,0 1.87585,0.65113 0.62012,0.65112 0.62012,1.97403 z"
         id="path1227" />
      <path
         d="m 320.43615,110.7436 v 1.64331 h 1.95854 v 0.73897 h -1.95854 v 3.14192 q 0,0.70796 0.19121,0.9095 0.19637,0.20154 0.79064,0.20154 h 0.97669 v 0.79581 H 321.418 q -1.1007,0 -1.51928,-0.40824 -0.41858,-0.41341 -0.41858,-1.49861 v -3.14192 h -0.69763 v -0.73897 h 0.69763 v -1.64331 z"
         id="path1229" />
      <path
         d="m 323.64525,112.38691 h 0.95084 v 5.78774 h -0.95084 z m 0,-2.25309 h 0.95084 v 1.20406 h -0.95084 z"
         id="path1231" />
      <path
         d="m 328.82838,113.05353 q -0.76481,0 -1.20922,0.59945 -0.44442,0.59428 -0.44442,1.63297 0,1.03869 0.43925,1.63814 0.44442,0.59427 1.21439,0.59427 0.75964,0 1.20406,-0.59944 0.44441,-0.59945 0.44441,-1.63297 0,-1.02836 -0.44441,-1.6278 -0.44442,-0.60462 -1.20406,-0.60462 z m 0,-0.80615 q 1.24023,0 1.9482,0.80615 0.70796,0.80615 0.70796,2.23242 0,1.4211 -0.70796,2.23241 -0.70797,0.80615 -1.9482,0.80615 -1.2454,0 -1.95336,-0.80615 -0.7028,-0.81131 -0.7028,-2.23241 0,-1.42627 0.7028,-2.23242 0.70796,-0.80615 1.95336,-0.80615 z"
         id="path1233" />
      <path
         d="m 337.87173,114.68134 v 3.49331 h -0.95084 v -3.46231 q 0,-0.82165 -0.3204,-1.22989 -0.32039,-0.40825 -0.96118,-0.40825 -0.76997,0 -1.21439,0.49093 -0.44441,0.49092 -0.44441,1.33841 v 3.27111 h -0.95602 v -5.78774 h 0.95602 v 0.89917 q 0.34106,-0.52193 0.80098,-0.78031 0.46508,-0.25839 1.0697,-0.25839 0.99735,0 1.50894,0.62012 0.5116,0.61495 0.5116,1.81384 z"
         id="path1235" />
      <path
         d="m 342.39857,115.26528 q -1.15238,0 -1.5968,0.26355 -0.44442,0.26355 -0.44442,0.89916 0,0.50643 0.33073,0.80615 0.3359,0.29456 0.9095,0.29456 0.79065,0 1.26607,-0.5581 0.48059,-0.56328 0.48059,-1.49345 v -0.21187 z m 1.89652,-0.39274 v 3.30211 h -0.95085 v -0.87849 q -0.32556,0.52709 -0.81131,0.78031 -0.48576,0.24804 -1.18856,0.24804 -0.88883,0 -1.41593,-0.49609 -0.52193,-0.50126 -0.52193,-1.33841 0,-0.97669 0.65112,-1.47278 0.65629,-0.49609 1.95337,-0.49609 h 1.33324 v -0.093 q 0,-0.65629 -0.43408,-1.01285 -0.42891,-0.36174 -1.20922,-0.36174 -0.49609,0 -0.96635,0.11886 -0.47025,0.11885 -0.90433,0.35657 v -0.8785 q 0.52193,-0.20154 1.01285,-0.29972 0.49093,-0.10336 0.95601,-0.10336 1.25574,0 1.87585,0.65113 0.62012,0.65112 0.62012,1.97403 z"
         id="path1237" />
      <path
         d="m 346.25362,110.13382 h 0.95084 v 8.04083 h -0.95084 z"
         id="path1239" />
      <path
         d="m 355.18844,115.26528 q -1.15238,0 -1.59679,0.26355 -0.44442,0.26355 -0.44442,0.89916 0,0.50643 0.33073,0.80615 0.33589,0.29456 0.9095,0.29456 0.79065,0 1.26607,-0.5581 0.48059,-0.56328 0.48059,-1.49345 v -0.21187 z m 1.89652,-0.39274 v 3.30211 h -0.95084 v -0.87849 q -0.32556,0.52709 -0.81132,0.78031 -0.48576,0.24804 -1.18855,0.24804 -0.88884,0 -1.41593,-0.49609 -0.52193,-0.50126 -0.52193,-1.33841 0,-0.97669 0.65112,-1.47278 0.65629,-0.49609 1.95336,-0.49609 h 1.33325 v -0.093 q 0,-0.65629 -0.43408,-1.01285 -0.42892,-0.36174 -1.20923,-0.36174 -0.49609,0 -0.96634,0.11886 -0.47026,0.11885 -0.90434,0.35657 v -0.8785 q 0.52193,-0.20154 1.01286,-0.29972 0.49092,-0.10336 0.95601,-0.10336 1.25573,0 1.87585,0.65113 0.62011,0.65112 0.62011,1.97403 z"
         id="path1241" />
      <path
         d="m 363.2086,112.60912 v 0.88883 q -0.40307,-0.22221 -0.81132,-0.33073 -0.40307,-0.11369 -0.81648,-0.11369 -0.92501,0 -1.4366,0.58911 -0.5116,0.58395 -0.5116,1.64331 0,1.05936 0.5116,1.64847 0.51159,0.58394 1.4366,0.58394 0.41341,0 0.81648,-0.10852 0.40825,-0.11368 0.81132,-0.33589 v 0.87849 q -0.39791,0.18604 -0.82682,0.27906 -0.42374,0.093 -0.90433,0.093 -1.30741,0 -2.07739,-0.82165 -0.76998,-0.82165 -0.76998,-2.21691 0,-1.41593 0.77515,-2.22725 0.78031,-0.81132 2.13423,-0.81132 0.43925,0 0.85782,0.093 0.41858,0.0879 0.81132,0.26872 z"
         id="path1243" />
      <path
         d="m 369.02735,112.60912 v 0.88883 q -0.40307,-0.22221 -0.81132,-0.33073 -0.40307,-0.11369 -0.81648,-0.11369 -0.92501,0 -1.4366,0.58911 -0.5116,0.58395 -0.5116,1.64331 0,1.05936 0.5116,1.64847 0.51159,0.58394 1.4366,0.58394 0.41341,0 0.81648,-0.10852 0.40825,-0.11368 0.81132,-0.33589 v 0.87849 q -0.39791,0.18604 -0.82682,0.27906 -0.42375,0.093 -0.90433,0.093 -1.30741,0 -2.07739,-0.82165 -0.76998,-0.82165 -0.76998,-2.21691 0,-1.41593 0.77515,-2.22725 0.78031,-0.81132 2.13423,-0.81132 0.43925,0 0.85782,0.093 0.41858,0.0879 0.81132,0.26872 z"
         id="path1245" />
      <path
         d="m 375.63158,115.04307 v 0.46509 h -4.37181 q 0.062,0.98185 0.58911,1.49861 0.53226,0.51159 1.47794,0.51159 0.54776,0 1.05936,-0.13435 0.51676,-0.13436 1.02319,-0.40308 v 0.89917 q -0.5116,0.21704 -1.04903,0.33073 -0.53743,0.11368 -1.09037,0.11368 -1.38492,0 -2.19624,-0.80615 -0.80615,-0.80615 -0.80615,-2.18074 0,-1.42109 0.76481,-2.25308 0.76998,-0.83716 2.07222,-0.83716 1.16788,0 1.84484,0.75448 0.68213,0.7493 0.68213,2.04121 z m -0.95085,-0.27905 q -0.0103,-0.78031 -0.43924,-1.2454 -0.42375,-0.46509 -1.12655,-0.46509 -0.79581,0 -1.2764,0.44959 -0.47542,0.44958 -0.54777,1.26607 z"
         id="path1247" />
      <path
         d="m 377.1922,110.13382 h 0.95084 v 8.04083 h -0.95084 z"
         id="path1249" />
      <path
         d="m 385.08316,115.04307 v 0.46509 h -4.37181 q 0.062,0.98185 0.58911,1.49861 0.53226,0.51159 1.47794,0.51159 0.54777,0 1.05936,-0.13435 0.51677,-0.13436 1.02319,-0.40308 v 0.89917 q -0.51159,0.21704 -1.04902,0.33073 -0.53744,0.11368 -1.09037,0.11368 -1.38493,0 -2.19625,-0.80615 -0.80614,-0.80615 -0.80614,-2.18074 0,-1.42109 0.7648,-2.25308 0.76998,-0.83716 2.07222,-0.83716 1.16789,0 1.84485,0.75448 0.68212,0.7493 0.68212,2.04121 z m -0.95084,-0.27905 q -0.0103,-0.78031 -0.43925,-1.2454 -0.42375,-0.46509 -1.12654,-0.46509 -0.79582,0 -1.27641,0.44959 -0.47542,0.44958 -0.54776,1.26607 z"
         id="path1251" />
      <path
         d="m 389.99758,113.27574 q -0.1602,-0.093 -0.3514,-0.13436 -0.18603,-0.0465 -0.41341,-0.0465 -0.80615,0 -1.24023,0.5271 -0.42891,0.52193 -0.42891,1.50378 v 3.0489 h -0.95601 v -5.78774 h 0.95601 v 0.89917 q 0.29972,-0.5271 0.78031,-0.78031 0.48059,-0.25839 1.16788,-0.25839 0.0982,0 0.21704,0.0155 0.11886,0.0103 0.26355,0.0362 z"
         id="path1253" />
      <path
         d="m 393.62526,115.26528 q -1.15239,0 -1.5968,0.26355 -0.44442,0.26355 -0.44442,0.89916 0,0.50643 0.33073,0.80615 0.3359,0.29456 0.9095,0.29456 0.79065,0 1.26607,-0.5581 0.48059,-0.56328 0.48059,-1.49345 v -0.21187 z m 1.89651,-0.39274 v 3.30211 h -0.95084 v -0.87849 q -0.32556,0.52709 -0.81132,0.78031 -0.48575,0.24804 -1.18855,0.24804 -0.88883,0 -1.41593,-0.49609 -0.52193,-0.50126 -0.52193,-1.33841 0,-0.97669 0.65112,-1.47278 0.65629,-0.49609 1.95336,-0.49609 h 1.33325 v -0.093 q 0,-0.65629 -0.43408,-1.01285 -0.42891,-0.36174 -1.20922,-0.36174 -0.4961,0 -0.96635,0.11886 -0.47025,0.11885 -0.90434,0.35657 v -0.8785 q 0.52194,-0.20154 1.01286,-0.29972 0.49092,-0.10336 0.95601,-0.10336 1.25573,0 1.87585,0.65113 0.62011,0.65112 0.62011,1.97403 z"
         id="path1255" />
      <path
         d="m 398.42081,110.7436 v 1.64331 h 1.95853 v 0.73897 h -1.95853 v 3.14192 q 0,0.70796 0.1912,0.9095 0.19637,0.20154 0.79065,0.20154 h 0.97668 v 0.79581 h -0.97668 q -1.10071,0 -1.51928,-0.40824 -0.41858,-0.41341 -0.41858,-1.49861 v -3.14192 h -0.69763 v -0.73897 h 0.69763 v -1.64331 z"
         id="path1257" />
      <path
         d="m 401.62991,112.38691 h 0.95084 v 5.78774 h -0.95084 z m 0,-2.25309 h 0.95084 v 1.20406 h -0.95084 z"
         id="path1259" />
      <path
         d="m 406.81304,113.05353 q -0.76481,0 -1.20923,0.59945 -0.44441,0.59428 -0.44441,1.63297 0,1.03869 0.43925,1.63814 0.44441,0.59427 1.21439,0.59427 0.75964,0 1.20406,-0.59944 0.44441,-0.59945 0.44441,-1.63297 0,-1.02836 -0.44441,-1.6278 -0.44442,-0.60462 -1.20406,-0.60462 z m 0,-0.80615 q 1.24023,0 1.94819,0.80615 0.70797,0.80615 0.70797,2.23242 0,1.4211 -0.70797,2.23241 -0.70796,0.80615 -1.94819,0.80615 -1.2454,0 -1.95336,-0.80615 -0.7028,-0.81131 -0.7028,-2.23241 0,-1.42627 0.7028,-2.23242 0.70796,-0.80615 1.95336,-0.80615 z"
         id="path1261" />
      <path
         d="m 415.85639,114.68134 v 3.49331 h -0.95085 v -3.46231 q 0,-0.82165 -0.32039,-1.22989 -0.32039,-0.40825 -0.96118,-0.40825 -0.76998,0 -1.21439,0.49093 -0.44442,0.49092 -0.44442,1.33841 v 3.27111 h -0.95601 v -5.78774 h 0.95601 v 0.89917 q 0.34107,-0.52193 0.80099,-0.78031 0.46508,-0.25839 1.06969,-0.25839 0.99736,0 1.50895,0.62012 0.5116,0.61495 0.5116,1.81384 z"
         id="path1263" />
      <path
         d="m 284.72269,124.71687 -1.41593,3.83954 h 2.83702 z m -0.58911,-1.02836 h 1.18338 l 2.94038,7.71527 h -1.0852 l -0.7028,-1.9792 h -3.47781 l -0.7028,1.9792 h -1.1007 z"
         id="path1265" />
      <path
         d="m 294.1536,127.91046 v 3.49332 h -0.95084 v -3.46231 q 0,-0.82166 -0.32039,-1.2299 -0.32039,-0.40824 -0.96118,-0.40824 -0.76998,0 -1.21439,0.49092 -0.44442,0.49093 -0.44442,1.33842 v 3.27111 h -0.95601 v -5.78775 h 0.95601 v 0.89917 q 0.34106,-0.52193 0.80098,-0.78031 0.46509,-0.25838 1.0697,-0.25838 0.99735,0 1.50895,0.62011 0.51159,0.61495 0.51159,1.81384 z"
         id="path1267" />
      <path
         d="m 299.85866,128.44273 q 0,-1.03353 -0.42891,-1.60197 -0.42374,-0.56844 -1.19372,-0.56844 -0.76481,0 -1.19372,0.56844 -0.42375,0.56844 -0.42375,1.60197 0,1.02835 0.42375,1.59679 0.42891,0.56844 1.19372,0.56844 0.76998,0 1.19372,-0.56844 0.42891,-0.56844 0.42891,-1.59679 z m 0.95085,2.24275 q 0,1.47794 -0.65629,2.19624 -0.65629,0.72347 -2.01021,0.72347 -0.50126,0 -0.94567,-0.0775 -0.44442,-0.0724 -0.863,-0.22737 v -0.92501 q 0.41858,0.22738 0.82682,0.3359 0.40825,0.10852 0.83199,0.10852 0.93534,0 1.40043,-0.49093 0.46508,-0.48576 0.46508,-1.47277 v -0.47026 q -0.29455,0.5116 -0.75447,0.76481 -0.45992,0.25322 -1.1007,0.25322 -1.06453,0 -1.71566,-0.81132 -0.65112,-0.81132 -0.65112,-2.14973 0,-1.34359 0.65112,-2.1549 0.65113,-0.81132 1.71566,-0.81132 0.64078,0 1.1007,0.25321 0.45992,0.25322 0.75447,0.76481 v -0.8785 h 0.95085 z"
         id="path1269" />
      <path
         d="m 302.66985,129.11969 v -3.50366 h 0.95085 v 3.46748 q 0,0.82165 0.32039,1.23507 0.32039,0.40824 0.96118,0.40824 0.76998,0 1.21439,-0.49093 0.44958,-0.49092 0.44958,-1.33841 v -3.28145 h 0.95085 v 5.78775 h -0.95085 v -0.88884 q -0.34623,0.5271 -0.80615,0.78548 -0.45475,0.25322 -1.05936,0.25322 -0.99735,0 -1.51411,-0.62012 -0.51677,-0.62011 -0.51677,-1.81383 z m 2.39262,-3.64318 z"
         id="path1271" />
      <path
         d="m 309.47562,123.36295 h 0.95084 v 8.04083 h -0.95084 z"
         id="path1273" />
      <path
         d="m 315.04632,128.4944 q -1.15238,0 -1.5968,0.26355 -0.44441,0.26355 -0.44441,0.89917 0,0.50643 0.33073,0.80615 0.33589,0.29455 0.9095,0.29455 0.79064,0 1.26607,-0.5581 0.48059,-0.56327 0.48059,-1.49344 v -0.21188 z m 1.89652,-0.39274 v 3.30212 H 315.992 v -0.8785 q -0.32556,0.5271 -0.81132,0.78031 -0.48576,0.24805 -1.18856,0.24805 -0.88883,0 -1.41593,-0.49609 -0.52193,-0.50126 -0.52193,-1.33842 0,-0.97668 0.65112,-1.47277 0.65629,-0.4961 1.95337,-0.4961 h 1.33325 v -0.093 q 0,-0.65629 -0.43409,-1.01286 -0.42891,-0.36173 -1.20922,-0.36173 -0.49609,0 -0.96635,0.11885 -0.47025,0.11886 -0.90433,0.35657 v -0.8785 q 0.52193,-0.20153 1.01285,-0.29972 0.49093,-0.10335 0.95602,-0.10335 1.25573,0 1.87584,0.65112 0.62012,0.65112 0.62012,1.97403 z"
         id="path1275" />
      <path
         d="m 322.25516,126.50487 q -0.1602,-0.093 -0.3514,-0.13436 -0.18603,-0.0465 -0.41341,-0.0465 -0.80615,0 -1.24023,0.5271 -0.42891,0.52193 -0.42891,1.50378 v 3.0489 h -0.95601 v -5.78775 h 0.95601 v 0.89917 q 0.29972,-0.5271 0.78031,-0.78031 0.48059,-0.25838 1.16788,-0.25838 0.0982,0 0.21704,0.0155 0.11886,0.0103 0.26355,0.0362 z"
         id="path1277" />
      <path
         d="m 329.24696,128.4944 q -1.15238,0 -1.5968,0.26355 -0.44441,0.26355 -0.44441,0.89917 0,0.50643 0.33073,0.80615 0.33589,0.29455 0.9095,0.29455 0.79064,0 1.26607,-0.5581 0.48059,-0.56327 0.48059,-1.49344 v -0.21188 z m 1.89652,-0.39274 v 3.30212 h -0.95084 v -0.8785 q -0.32557,0.5271 -0.81132,0.78031 -0.48576,0.24805 -1.18856,0.24805 -0.88883,0 -1.41593,-0.49609 -0.52193,-0.50126 -0.52193,-1.33842 0,-0.97668 0.65112,-1.47277 0.65629,-0.4961 1.95337,-0.4961 h 1.33325 v -0.093 q 0,-0.65629 -0.43409,-1.01286 -0.42891,-0.36173 -1.20922,-0.36173 -0.49609,0 -0.96635,0.11885 -0.47025,0.11886 -0.90433,0.35657 v -0.8785 q 0.52193,-0.20153 1.01285,-0.29972 0.49093,-0.10335 0.95601,-0.10335 1.25574,0 1.87585,0.65112 0.62012,0.65112 0.62012,1.97403 z"
         id="path1279" />
      <path
         d="m 337.26712,125.83824 v 0.88883 q -0.40308,-0.2222 -0.81132,-0.33072 -0.40308,-0.11369 -0.81649,-0.11369 -0.925,0 -1.4366,0.58911 -0.51159,0.58394 -0.51159,1.6433 0,1.05937 0.51159,1.64848 0.5116,0.58394 1.4366,0.58394 0.41341,0 0.81649,-0.10852 0.40824,-0.11369 0.81132,-0.3359 v 0.8785 q -0.39791,0.18603 -0.82682,0.27905 -0.42375,0.093 -0.90434,0.093 -1.30741,0 -2.07739,-0.82165 -0.76997,-0.82166 -0.76997,-2.21692 0,-1.41593 0.77514,-2.22724 0.78031,-0.81132 2.13423,-0.81132 0.43925,0 0.85783,0.093 0.41858,0.0879 0.81132,0.26871 z"
         id="path1281" />
      <path
         d="m 343.08586,125.83824 v 0.88883 q -0.40307,-0.2222 -0.81131,-0.33072 -0.40308,-0.11369 -0.81649,-0.11369 -0.925,0 -1.4366,0.58911 -0.51159,0.58394 -0.51159,1.6433 0,1.05937 0.51159,1.64848 0.5116,0.58394 1.4366,0.58394 0.41341,0 0.81649,-0.10852 0.40824,-0.11369 0.81131,-0.3359 v 0.8785 q -0.3979,0.18603 -0.82682,0.27905 -0.42374,0.093 -0.90433,0.093 -1.30741,0 -2.07739,-0.82165 -0.76997,-0.82166 -0.76997,-2.21692 0,-1.41593 0.77514,-2.22724 0.78031,-0.81132 2.13423,-0.81132 0.43925,0 0.85783,0.093 0.41857,0.0879 0.81131,0.26871 z"
         id="path1283" />
      <path
         d="m 349.69009,128.27219 v 0.46509 h -4.37181 q 0.062,0.98185 0.5891,1.49861 0.53227,0.5116 1.47795,0.5116 0.54776,0 1.05936,-0.13436 0.51676,-0.13436 1.02319,-0.40308 v 0.89917 q -0.5116,0.21704 -1.04903,0.33073 -0.53743,0.11369 -1.09037,0.11369 -1.38492,0 -2.19624,-0.80615 -0.80615,-0.80615 -0.80615,-2.18074 0,-1.4211 0.76481,-2.25309 0.76998,-0.83715 2.07222,-0.83715 1.16788,0 1.84484,0.75447 0.68213,0.74931 0.68213,2.04121 z m -0.95085,-0.27905 q -0.0103,-0.78031 -0.43924,-1.2454 -0.42375,-0.46508 -1.12655,-0.46508 -0.79581,0 -1.2764,0.44958 -0.47542,0.44959 -0.54777,1.26607 z"
         id="path1285" />
      <path
         d="m 351.25071,123.36295 h 0.95084 v 8.04083 h -0.95084 z"
         id="path1287" />
      <path
         d="m 359.14168,128.27219 v 0.46509 h -4.37181 q 0.062,0.98185 0.58911,1.49861 0.53226,0.5116 1.47794,0.5116 0.54777,0 1.05936,-0.13436 0.51676,-0.13436 1.02319,-0.40308 v 0.89917 q -0.51159,0.21704 -1.04903,0.33073 -0.53743,0.11369 -1.09037,0.11369 -1.38492,0 -2.19624,-0.80615 -0.80615,-0.80615 -0.80615,-2.18074 0,-1.4211 0.76481,-2.25309 0.76998,-0.83715 2.07222,-0.83715 1.16788,0 1.84484,0.75447 0.68213,0.74931 0.68213,2.04121 z m -0.95084,-0.27905 q -0.0103,-0.78031 -0.43925,-1.2454 -0.42375,-0.46508 -1.12654,-0.46508 -0.79582,0 -1.27641,0.44958 -0.47542,0.44959 -0.54777,1.26607 z"
         id="path1289" />
      <path
         d="m 364.05609,126.50487 q -0.1602,-0.093 -0.3514,-0.13436 -0.18603,-0.0465 -0.41341,-0.0465 -0.80615,0 -1.24023,0.5271 -0.42891,0.52193 -0.42891,1.50378 v 3.0489 h -0.95601 v -5.78775 h 0.95601 v 0.89917 q 0.29972,-0.5271 0.78031,-0.78031 0.48059,-0.25838 1.16788,-0.25838 0.0982,0 0.21704,0.0155 0.11886,0.0103 0.26355,0.0362 z"
         id="path1291" />
      <path
         d="m 367.68377,128.4944 q -1.15239,0 -1.5968,0.26355 -0.44442,0.26355 -0.44442,0.89917 0,0.50643 0.33073,0.80615 0.3359,0.29455 0.9095,0.29455 0.79065,0 1.26607,-0.5581 0.48059,-0.56327 0.48059,-1.49344 v -0.21188 z m 1.89651,-0.39274 v 3.30212 h -0.95084 v -0.8785 q -0.32556,0.5271 -0.81132,0.78031 -0.48575,0.24805 -1.18855,0.24805 -0.88883,0 -1.41593,-0.49609 -0.52193,-0.50126 -0.52193,-1.33842 0,-0.97668 0.65112,-1.47277 0.65629,-0.4961 1.95336,-0.4961 h 1.33325 v -0.093 q 0,-0.65629 -0.43408,-1.01286 -0.42891,-0.36173 -1.20922,-0.36173 -0.4961,0 -0.96635,0.11885 -0.47025,0.11886 -0.90434,0.35657 v -0.8785 q 0.52194,-0.20153 1.01286,-0.29972 0.49092,-0.10335 0.95601,-0.10335 1.25573,0 1.87585,0.65112 0.62011,0.65112 0.62011,1.97403 z"
         id="path1293" />
      <path
         d="m 372.47933,123.97273 v 1.6433 h 1.95853 v 0.73898 h -1.95853 v 3.14191 q 0,0.70797 0.1912,0.9095 0.19637,0.20154 0.79064,0.20154 h 0.97669 v 0.79582 h -0.97669 q -1.1007,0 -1.51928,-0.40825 -0.41858,-0.41341 -0.41858,-1.49861 v -3.14191 h -0.69762 v -0.73898 h 0.69762 v -1.6433 z"
         id="path1295" />
      <path
         d="m 375.68842,125.61603 h 0.95085 v 5.78775 h -0.95085 z m 0,-2.25308 h 0.95085 v 1.20406 h -0.95085 z"
         id="path1297" />
      <path
         d="m 380.87155,126.28266 q -0.76481,0 -1.20923,0.59944 -0.44441,0.59428 -0.44441,1.63297 0,1.0387 0.43925,1.63814 0.44441,0.59428 1.21439,0.59428 0.75964,0 1.20406,-0.59945 0.44441,-0.59944 0.44441,-1.63297 0,-1.02835 -0.44441,-1.6278 -0.44442,-0.60461 -1.20406,-0.60461 z m 0,-0.80615 q 1.24023,0 1.94819,0.80615 0.70797,0.80615 0.70797,2.23241 0,1.4211 -0.70797,2.23242 -0.70796,0.80615 -1.94819,0.80615 -1.2454,0 -1.95336,-0.80615 -0.7028,-0.81132 -0.7028,-2.23242 0,-1.42626 0.7028,-2.23241 0.70796,-0.80615 1.95336,-0.80615 z"
         id="path1299" />
      <path
         d="m 389.9149,127.91046 v 3.49332 h -0.95085 v -3.46231 q 0,-0.82166 -0.32039,-1.2299 -0.32039,-0.40824 -0.96118,-0.40824 -0.76998,0 -1.21439,0.49092 -0.44442,0.49093 -0.44442,1.33842 v 3.27111 h -0.95601 v -5.78775 h 0.95601 v 0.89917 q 0.34107,-0.52193 0.80099,-0.78031 0.46508,-0.25838 1.06969,-0.25838 0.99736,0 1.50895,0.62011 0.5116,0.61495 0.5116,1.81384 z"
         id="path1301" />
    </g>
    <g
       id="path13573"
       transform="matrix(0.35737492,0,0,0.35737492,132.37611,78.316403)">
      <path
         style="color:#000000;fill:#000000;-inkscape-stroke:none"
         d="m 249.14453,115.31836 v 0.5 h 26.94922 v -0.5 z"
         id="path977" />
      <g
         id="g967">
        <g
           id="path969">
          <path
             style="color:#000000;fill:#000000;fill-rule:evenodd;stroke-width:0.4pt;-inkscape-stroke:none"
             d="m 271.09353,115.56852 -2,2 7,-2 -7,-2 z"
             id="path973" />
          <path
             style="color:#000000;fill:#000000;fill-rule:evenodd;-inkscape-stroke:none"
             d="m 268.17773,113.0293 2.53907,2.53906 -2.53907,2.53906 8.88672,-2.53906 z m 1.82813,1.07617 5.11914,1.46289 -5.11523,1.46094 1.46093,-1.46094 -0.18945,-0.1875 z"
             id="path975" />
        </g>
      </g>
    </g>
    <g
       id="path13575"
       transform="matrix(0.35737492,0,0,0.35737492,132.37611,78.316403)">
      <path
         style="color:#000000;fill:#000000;-inkscape-stroke:none"
         d="m 249.14453,128.08398 v 0.5 h 26.94922 v -0.5 z"
         id="path991" />
      <g
         id="g981">
        <g
           id="path983">
          <path
             style="color:#000000;fill:#000000;fill-rule:evenodd;stroke-width:0.4pt;-inkscape-stroke:none"
             d="m 271.09353,128.33375 -2,2 7,-2 -7,-2 z"
             id="path987" />
          <path
             style="color:#000000;fill:#000000;fill-rule:evenodd;-inkscape-stroke:none"
             d="m 268.17773,125.79492 2.53907,2.53906 -2.53907,2.53907 8.88672,-2.53907 z m 1.83204,1.07813 5.11523,1.46093 -5.11719,1.46094 1.46289,-1.46094 -0.18945,-0.18945 z"
             id="path989" />
        </g>
      </g>
    </g>
  </g>
</svg>
