<?xml version="1.0" encoding="UTF-8" standalone="no"?>
<!-- Created with Inkscape (http://www.inkscape.org/) -->

<svg
   version="1.1"
   id="svg840"
   xml:space="preserve"
   width="608.51941"
   height="539.00671"
   viewBox="0 0 608.51941 539.00671"
   sodipodi:docname="block_diagram.svg"
   inkscape:version="1.1.2 (0a00cf5339, 2022-02-04)"
   xmlns:inkscape="http://www.inkscape.org/namespaces/inkscape"
   xmlns:sodipodi="http://sodipodi.sourceforge.net/DTD/sodipodi-0.dtd"
   xmlns="http://www.w3.org/2000/svg"
   xmlns:svg="http://www.w3.org/2000/svg"><defs
     id="defs844"><clipPath
       clipPathUnits="userSpaceOnUse"
       id="clipPath854"><path
         d="M 0,0.028 H 611.971 V 791.999 H 0 Z"
         clip-rule="evenodd"
         id="path852" /></clipPath></defs><sodipodi:namedview
     id="namedview842"
     pagecolor="#ffffff"
     bordercolor="#666666"
     borderopacity="1.0"
     inkscape:pageshadow="2"
     inkscape:pageopacity="0.0"
     inkscape:pagecheckerboard="true"
     showgrid="false"
     inkscape:snap-page="true"
     inkscape:zoom="1.5481353"
     inkscape:cx="246.10252"
     inkscape:cy="276.46162"
     inkscape:window-width="2560"
     inkscape:window-height="1371"
     inkscape:window-x="0"
     inkscape:window-y="32"
     inkscape:window-maximized="1"
     inkscape:current-layer="g846" /><g
     id="g846"
     inkscape:groupmode="layer"
     inkscape:label="block_diagram"
     transform="matrix(1.3333333,0,0,-1.3333333,-118.69238,807.72735)"><rect
       style="fill:#ffffff;stroke:none;stroke-width:0.792475;stroke-linecap:round;stroke-dasharray:3.1699, 3.1699"
       id="rect1411"
       width="455.59708"
       height="403.46255"
       x="89.415527"
       y="-605.39929"
       transform="scale(1,-1)" /><path
       d="M 302.854,439.654 H 190.346 V 592.668 H 415.361 V 439.654 Z"
       style="fill:#ffffff;fill-opacity:1;fill-rule:evenodd;stroke:none"
       id="path858" /><g
       id="g860"><path
         d="M 302.854,439.654 H 190.346 V 592.668 H 415.361 V 439.654 Z"
         style="fill:none;stroke:#000000;stroke-width:0.75;stroke-linecap:butt;stroke-linejoin:round;stroke-miterlimit:10;stroke-dasharray:none;stroke-opacity:1"
         id="path862" /></g><g
       id="g864"><text
         transform="matrix(1,0,0,-1,197.405,572.797)"
         style="font-variant:normal;font-weight:normal;font-size:18px;font-family:'Liberation Sans';-inkscape-font-specification:LiberationSans;writing-mode:lr-tb;fill:#000000;fill-opacity:1;fill-rule:nonzero;stroke:none"
         id="text868"><tspan
           x="0 11.988 15.984 30.978001 40.986 44.891998 54.900002 59.886002 69.893997"
           y="0"
           sodipodi:role="line"
           id="tspan866">Simulator</tspan></text></g><path
       d="M 302.825,214.668 H 190.318 V 421.654 H 415.332 V 214.668 Z"
       style="fill:#ffffff;fill-opacity:1;fill-rule:evenodd;stroke:none"
       id="path870" /><g
       id="g872"><path
         d="M 302.825,214.668 H 190.318 V 421.654 H 415.332 V 214.668 Z"
         style="fill:none;stroke:#000000;stroke-width:0.75;stroke-linecap:butt;stroke-linejoin:round;stroke-miterlimit:10;stroke-dasharray:none;stroke-opacity:1"
         id="path874" /></g><g
       id="g876"><text
         transform="matrix(1,0,0,-1,197.405,401.811)"
         style="font-variant:normal;font-weight:normal;font-size:18px;font-family:'Liberation Sans';-inkscape-font-specification:LiberationSans;writing-mode:lr-tb;fill:#000000;fill-opacity:1;fill-rule:nonzero;stroke:none"
         id="text880"><tspan
           x="0 11.988 16.974001 26.982 31.968 41.976002 46.962002 56.970001 65.970001 75.977997 85.877998 100.872 104.868 113.868"
           y="0"
           sodipodi:role="line"
           id="tspan878">State dynamics</tspan></text></g><path
       d="M 311.811,232.696 H 226.29 V 385.682 H 397.304 V 232.696 Z"
       style="fill:#808080;fill-opacity:1;fill-rule:evenodd;stroke:none"
       id="path882" /><g
       id="g884"><path
         d="M 311.811,232.696 H 226.29 V 385.682 H 397.304 V 232.696 Z"
         style="fill:none;stroke:#3465a4;stroke-width:0.75;stroke-linecap:butt;stroke-linejoin:round;stroke-miterlimit:10;stroke-dasharray:none;stroke-opacity:1"
         id="path886" /></g><g
       id="g888"><text
         transform="matrix(1,0,0,-1,233.405,365.811)"
         style="font-variant:normal;font-weight:normal;font-size:18px;font-family:'Liberation Sans';-inkscape-font-specification:LiberationSans;writing-mode:lr-tb;fill:#000000;fill-opacity:1;fill-rule:nonzero;stroke:none"
         id="text892"><tspan
           x="0 11.988 20.988001 29.988001 34.973999 44.981998 59.976002 64.961998 74.970001 83.970001 93.870003 103.878 118.872 122.868 131.75999"
           y="0"
           sodipodi:role="line"
           id="tspan890">System dynamics</tspan></text></g><path
       d="M 329.811,322.696 H 271.304 V 349.71 H 388.318 V 322.696 Z"
       style="fill:#b2b2b2;fill-opacity:1;fill-rule:evenodd;stroke:none"
       id="path894" /><g
       id="g896"><path
         d="M 329.811,322.696 H 271.304 V 349.71 H 388.318 V 322.696 Z"
         style="fill:none;stroke:#3465a4;stroke-width:0.75;stroke-linecap:butt;stroke-linejoin:round;stroke-miterlimit:10;stroke-dasharray:none;stroke-opacity:1"
         id="path898" /></g><g
       id="g900"><text
         transform="matrix(1,0,0,-1,298.913,330.009)"
         style="font-variant:normal;font-weight:normal;font-size:18px;font-family:'Liberation Sans';-inkscape-font-specification:LiberationSans;writing-mode:lr-tb;fill:#000000;fill-opacity:1;fill-rule:nonzero;stroke:none"
         id="text904"><tspan
           x="0 12.996 22.896 32.903999 42.804001 52.812"
           y="0"
           sodipodi:role="line"
           id="tspan902">Canopy</tspan></text></g><path
       d="M 329.811,286.696 H 271.304 V 313.71 H 388.318 V 286.696 Z"
       style="fill:#b2b2b2;fill-opacity:1;fill-rule:evenodd;stroke:none"
       id="path906" /><g
       id="g908"><path
         d="M 329.811,286.696 H 271.304 V 313.71 H 388.318 V 286.696 Z"
         style="fill:none;stroke:#3465a4;stroke-width:0.75;stroke-linecap:butt;stroke-linejoin:round;stroke-miterlimit:10;stroke-dasharray:none;stroke-opacity:1"
         id="path910" /></g><g
       id="g912"><text
         transform="matrix(1,0,0,-1,308.409,294.009)"
         style="font-variant:normal;font-weight:normal;font-size:18px;font-family:'Liberation Sans';-inkscape-font-specification:LiberationSans;writing-mode:lr-tb;fill:#000000;fill-opacity:1;fill-rule:nonzero;stroke:none"
         id="text916"><tspan
           x="0 10.008 13.914 23.922001 33.93"
           y="0"
           sodipodi:role="line"
           id="tspan914">Lines</tspan></text></g><path
       d="M 329.811,250.696 H 271.304 V 277.71 H 388.318 V 250.696 Z"
       style="fill:#b2b2b2;fill-opacity:1;fill-rule:evenodd;stroke:none"
       id="path918" /><g
       id="g920"><path
         d="M 329.811,250.696 H 271.304 V 277.71 H 388.318 V 250.696 Z"
         style="fill:none;stroke:#3465a4;stroke-width:0.75;stroke-linecap:butt;stroke-linejoin:round;stroke-miterlimit:10;stroke-dasharray:none;stroke-opacity:1"
         id="path922" /></g><g
       id="g924"><text
         transform="matrix(1,0,0,-1,297.411,258.009)"
         style="font-variant:normal;font-weight:normal;font-size:18px;font-family:'Liberation Sans';-inkscape-font-specification:LiberationSans;writing-mode:lr-tb;fill:#000000;fill-opacity:1;fill-rule:nonzero;stroke:none"
         id="text928"><tspan
           x="0 11.988 21.996 30.996 34.902 44.91 54.917999"
           y="0"
           sodipodi:role="line"
           id="tspan926">Payload</tspan></text></g><path
       d="m 311.839,493.654 h -85.493 v 27.014 h 170.986 v -27.014 z"
       style="fill:#b2b2b2;fill-opacity:1;fill-rule:evenodd;stroke:none"
       id="path930" /><g
       id="g932"><path
         d="m 311.839,493.654 h -85.493 v 27.014 h 170.986 v -27.014 z"
         style="fill:none;stroke:#3465a4;stroke-width:0.75;stroke-linecap:butt;stroke-linejoin:round;stroke-miterlimit:10;stroke-dasharray:none;stroke-opacity:1"
         id="path934" /></g><g
       id="g936"><text
         transform="matrix(1,0,0,-1,254.013,500.91)"
         style="font-variant:normal;font-weight:normal;font-size:18px;font-family:'Liberation Sans';-inkscape-font-specification:LiberationSans;writing-mode:lr-tb;fill:#000000;fill-opacity:1;fill-rule:nonzero;stroke:none"
         id="text940"><tspan
           x="0 13.986 17.982 21.888 31.896 41.796001 47.790001 52.866001 61.866001 71.765999 81.774002 86.760002 92.753998 102.762 106.758"
           y="0"
           sodipodi:role="line"
           id="tspan938">Glider controls</tspan></text></g><path
       d="m 311.839,457.682 h -85.493 v 27.014 h 170.986 v -27.014 z"
       style="fill:#b2b2b2;fill-opacity:1;fill-rule:evenodd;stroke:none"
       id="path942" /><g
       id="g944"><path
         d="m 311.839,457.682 h -85.493 v 27.014 h 170.986 v -27.014 z"
         style="fill:none;stroke:#3465a4;stroke-width:0.75;stroke-linecap:butt;stroke-linejoin:round;stroke-miterlimit:10;stroke-dasharray:none;stroke-opacity:1"
         id="path946" /></g><g
       id="g948"><text
         transform="matrix(1,0,0,-1,265.89,464.91)"
         style="font-variant:normal;font-weight:normal;font-size:18px;font-family:'Liberation Sans';-inkscape-font-specification:LiberationSans;writing-mode:lr-tb;fill:#000000;fill-opacity:1;fill-rule:nonzero;stroke:none"
         id="text952"><tspan
           x="0 13.986 17.982 21.978001 31.878 41.886002 47.880001 52.866001 61.866001 66.851997 76.860001 81.846001"
           y="0"
           sodipodi:role="line"
           id="tspan950">Glider state</tspan></text></g><path
       d="m 311.839,529.682 h -85.493 v 27.014 h 170.986 v -27.014 z"
       style="fill:#b2b2b2;fill-opacity:1;fill-rule:evenodd;stroke:none"
       id="path954" /><g
       id="g956"><path
         d="m 311.839,529.682 h -85.493 v 27.014 h 170.986 v -27.014 z"
         style="fill:none;stroke:#3465a4;stroke-width:0.75;stroke-linecap:butt;stroke-linejoin:round;stroke-miterlimit:10;stroke-dasharray:none;stroke-opacity:1"
         id="path958" /></g><g
       id="g960"><text
         transform="matrix(1,0,0,-1,261.411,536.91)"
         style="font-variant:normal;font-weight:normal;font-size:18px;font-family:'Liberation Sans';-inkscape-font-specification:LiberationSans;writing-mode:lr-tb;fill:#000000;fill-opacity:1;fill-rule:nonzero;stroke:none"
         id="text964"><tspan
           x="0 11.988 21.996 30.996 34.992001 40.986 50.886002 60.894001 75.888 85.788002 95.795998"
           y="0"
           sodipodi:role="line"
           id="tspan962">Environment</tspan></text></g><g
       id="g966"><path
         d="m 190.346,516.161 h -27.014 v -198 h 11.707"
         style="fill:none;stroke:#000000;stroke-width:1.50233;stroke-linecap:butt;stroke-linejoin:round;stroke-miterlimit:10;stroke-dasharray:none;stroke-opacity:1"
         id="path968" /></g><path
       d="m 174.501,322.101 15.817,-3.94 -15.817,-3.969 z"
       style="fill:#000000;fill-opacity:1;fill-rule:evenodd;stroke:none"
       id="path970" /><g
       id="g972"><path
         d="m 415.332,318.161 h 27.014 v 198 h -11.707"
         style="fill:none;stroke:#000000;stroke-width:1.50233;stroke-linecap:butt;stroke-linejoin:round;stroke-miterlimit:10;stroke-dasharray:none;stroke-opacity:1"
         id="path974" /></g><path
       d="m 431.178,512.192 -15.817,3.969 15.817,3.94 z"
       style="fill:#000000;fill-opacity:1;fill-rule:evenodd;stroke:none"
       id="path976" /><g
       id="g978"><text
         transform="matrix(1,0,0,-1,471.288,431.206)"
         style="font-variant:normal;font-weight:normal;font-size:18px;font-family:'Liberation Sans';-inkscape-font-specification:LiberationSans;writing-mode:lr-tb;fill:#000000;fill-opacity:1;fill-rule:nonzero;stroke:none"
         id="text982"><tspan
           x="0 11.988 17.063999 27.072001 32.057999"
           y="0"
           sodipodi:role="line"
           id="tspan980">State</tspan></text></g><g
       id="g984"><text
         transform="matrix(1,0,0,-1,449.405,411.109)"
         style="font-variant:normal;font-weight:normal;font-size:18px;font-family:'Liberation Sans';-inkscape-font-specification:LiberationSans;writing-mode:lr-tb;fill:#000000;fill-opacity:1;fill-rule:nonzero;stroke:none"
         id="text988"><tspan
           x="0 10.008 20.016001 25.92 29.916 38.916 48.924 53.91 57.905998 66.905998 76.806"
           y="0"
           sodipodi:role="line"
           id="tspan986">derivatives</tspan></text></g><g
       id="g990"><text
         transform="matrix(1,0,0,-1,98.391,431.206)"
         style="font-variant:normal;font-weight:normal;font-size:18px;font-family:'Liberation Sans';-inkscape-font-specification:LiberationSans;writing-mode:lr-tb;fill:#000000;fill-opacity:1;fill-rule:nonzero;stroke:none"
         id="text994"><tspan
           x="0 14.994 25.002001 34.902 44.91 48.905998"
           y="0"
           sodipodi:role="line"
           id="tspan992">Model </tspan></text></g><g
       id="g996"><text
         transform="matrix(1,0,0,-1,98.901,411.109)"
         style="font-variant:normal;font-weight:normal;font-size:18px;font-family:'Liberation Sans';-inkscape-font-specification:LiberationSans;writing-mode:lr-tb;fill:#000000;fill-opacity:1;fill-rule:nonzero;stroke:none"
         id="text1000"><tspan
           x="0 3.9960001 13.896 23.903999 33.804001 38.880001"
           y="0"
           sodipodi:role="line"
           id="tspan998">inputs</tspan></text></g></g></svg>
