<?xml version="1.0" encoding="UTF-8" standalone="no"?>
<svg
   xmlns:dc="http://purl.org/dc/elements/1.1/"
   xmlns:cc="http://creativecommons.org/ns#"
   xmlns:rdf="http://www.w3.org/1999/02/22-rdf-syntax-ns#"
   xmlns:svg="http://www.w3.org/2000/svg"
   xmlns="http://www.w3.org/2000/svg"
   xmlns:sodipodi="http://sodipodi.sourceforge.net/DTD/sodipodi-0.dtd"
   xmlns:inkscape="http://www.inkscape.org/namespaces/inkscape"
   height="128.35439mm"
   version="1.1"
   viewBox="0 0 152.14486 128.35438"
   width="152.14487mm"
   id="svg1345"
   sodipodi:docname="foil2.svg"
   inkscape:version="1.0rc1 (09960d6f05, 2020-04-09)">
  <metadata
     id="metadata1349">
    <rdf:RDF>
      <cc:Work
         rdf:about="">
        <dc:format>image/svg+xml</dc:format>
        <dc:type
           rdf:resource="http://purl.org/dc/dcmitype/StillImage" />
        <dc:title></dc:title>
      </cc:Work>
    </rdf:RDF>
  </metadata>
  <sodipodi:namedview
     scale-x="1"
     lock-margins="true"
     inkscape:document-units="mm"
     fit-margin-bottom="0"
     fit-margin-right="0"
     fit-margin-top="0"
     fit-margin-left="0"
     units="mm"
     inkscape:pagecheckerboard="true"
     inkscape:document-rotation="0"
     pagecolor="#ffffff"
     bordercolor="#666666"
     borderopacity="1"
     objecttolerance="10"
     gridtolerance="10"
     guidetolerance="10"
     inkscape:pageopacity="0"
     inkscape:pageshadow="2"
     inkscape:window-width="2560"
     inkscape:window-height="1376"
     id="namedview1347"
     showgrid="false"
     showguides="true"
     inkscape:guide-bbox="true"
     inkscape:zoom="2"
     inkscape:cx="223.70566"
     inkscape:cy="233.43548"
     inkscape:window-x="0"
     inkscape:window-y="27"
     inkscape:window-maximized="1"
     inkscape:current-layer="svg1345">
    <inkscape:grid
       type="axonomgrid"
       id="grid1564"
       originx="-158.76177"
       originy="-143.71455" />
  </sodipodi:namedview>
  <defs
     id="defs1120">
    <style
       type="text/css"
       id="style1118">
*{stroke-linecap:butt;stroke-linejoin:round;}
  </style>
    <marker
       inkscape:isstock="true"
       style="overflow:visible"
       id="marker3439"
       refX="0"
       refY="0"
       orient="auto"
       inkscape:stockid="Arrow1Lend">
      <path
         transform="matrix(-0.8,0,0,-0.8,-10,0)"
         style="fill:#000000;fill-opacity:1;fill-rule:evenodd;stroke:#000000;stroke-width:1pt;stroke-opacity:1"
         d="M 0,0 5,-5 -12.5,0 5,5 Z"
         id="path3437"
         inkscape:connector-curvature="0" />
    </marker>
    <marker
       inkscape:isstock="true"
       style="overflow:visible"
       id="marker3449"
       refX="0"
       refY="0"
       orient="auto"
       inkscape:stockid="Arrow1Lend">
      <path
         transform="matrix(-0.8,0,0,-0.8,-10,0)"
         style="fill:#000000;fill-opacity:1;fill-rule:evenodd;stroke:#000000;stroke-width:1pt;stroke-opacity:1"
         d="M 0,0 5,-5 -12.5,0 5,5 Z"
         id="path3447"
         inkscape:connector-curvature="0" />
    </marker>
    <marker
       inkscape:isstock="true"
       style="overflow:visible"
       id="marker3459"
       refX="0"
       refY="0"
       orient="auto"
       inkscape:stockid="Arrow1Lend">
      <path
         transform="matrix(-0.8,0,0,-0.8,-10,0)"
         style="fill:#000000;fill-opacity:1;fill-rule:evenodd;stroke:#000000;stroke-width:1pt;stroke-opacity:1"
         d="M 0,0 5,-5 -12.5,0 5,5 Z"
         id="path3457"
         inkscape:connector-curvature="0" />
    </marker>
  </defs>
  <g
     id="axes_1"
     transform="matrix(0.79840067,0,0,0.79816832,-118.00035,-118.93841)"
     style="stroke-width:1.25269">
    <path
       transform="translate(0,-37.470436)"
       id="path1335"
       clip-path="url(#pac98bb5641)"
       style="display:inline;fill-opacity:0.25;stroke-width:1.25269"
       d="m 288.88423,346.42681 c -3.26006,0.39917 -6.50639,1.00112 -9.80418,0.84314 -3.10329,0.0726 -6.20798,-0.27964 -9.27634,-0.70827 -9.89213,-1.50766 -19.42954,-4.72555 -28.70791,-8.39514 -16.95016,-6.8514 -33.19047,-15.37556 -48.82397,-24.83124 -10.50103,-6.44232 -20.83293,-13.2686 -30.16376,-21.34186 -4.29133,-3.76201 -8.45312,-7.81822 -11.44048,-12.71699 -0.91923,-1.67122 -1.75606,-3.37429 -2.10921,-5.26431 -0.41997,-1.39899 -0.16017,-2.9282 -0.10377,-4.35699 0.53009,-1.17292 0.83467,-2.53901 1.49851,-3.59736 5.80875,-3.35369 11.61751,-6.70737 17.42626,-10.06106 7.21677,1.04846 13.94563,4.03483 20.58262,6.91975 17.45591,8.01165 34.27074,17.33439 50.9681,26.80362 16.60986,9.54902 33.12974,19.29774 48.99126,30.05702 5.49157,3.83135 11.07996,7.65002 15.76374,12.4684 1.14503,1.19373 2.06344,2.54236 2.76142,4.04166 -5.8541,3.37988 -11.70819,6.75975 -17.56229,10.13963 z"
       inkscape:connector-curvature="0" />
    <g
       id="g1343"
       style="display:inline;stroke-width:1.25269">
      <path
         inkscape:connector-curvature="0"
         d="m 306.44653,270.28582 c -5.90353,2.92285 -11.92837,5.72113 -17.3273,9.5303 -0.13835,0.11661 -0.73712,0.56753 -0.23538,0.60916"
         style="fill:none;stroke:#ff0000;stroke-width:0.31317;stroke-linecap:square"
         clip-path="url(#pac98bb5641)"
         id="path1128" />
      <path
         inkscape:connector-curvature="0"
         d="m 305.27649,262.09531 c -7.5697,3.86698 -15.24731,7.61336 -22.3075,12.37498 -0.12086,0.10405 -1.1152,0.7625 -0.43317,0.75448"
         style="fill:none;stroke:#ff0000;stroke-width:0.31317;stroke-linecap:square"
         clip-path="url(#pac98bb5641)"
         id="path1131" />
      <path
         inkscape:connector-curvature="0"
         d="m 303.37982,254.08051 c -8.81665,4.6535 -17.72111,9.19733 -26.09543,14.62496 -0.14142,0.11617 -1.30976,0.83325 -0.57781,0.77429"
         style="fill:none;stroke:#ff0000;stroke-width:0.31317;stroke-linecap:square"
         clip-path="url(#pac98bb5641)"
         id="path1134" />
      <path
         inkscape:connector-curvature="0"
         d="m 300.89846,246.21587 c -9.94105,5.43143 -19.96618,10.74223 -29.55749,16.78018 -0.11666,0.0832 -0.97986,0.65205 -0.29852,0.45626"
         style="fill:none;stroke:#ff0000;stroke-width:0.31317;stroke-linecap:square"
         clip-path="url(#pac98bb5641)"
         id="path1137" />
      <path
         inkscape:connector-curvature="0"
         d="m 297.90793,238.51532 c -10.89252,6.14782 -21.84722,12.19656 -32.54614,18.67798 -0.29664,0.19278 -0.28017,0.23765 0.036,0.0913"
         style="fill:none;stroke:#ff0000;stroke-width:0.31317;stroke-linecap:square"
         clip-path="url(#pac98bb5641)"
         id="path1140" />
      <path
         inkscape:connector-curvature="0"
         d="m 294.46116,231.00666 c -11.63232,6.73879 -23.3696,13.60882 -34.97482,20.2028 0.0716,-0.0471 0.14514,-0.091 0.2179,-0.1362"
         style="fill:none;stroke:#ff0000;stroke-width:0.31317;stroke-linecap:square"
         clip-path="url(#pac98bb5641)"
         id="path1143" />
      <path
         inkscape:connector-curvature="0"
         d="m 290.60172,223.72351 c -11.99265,7.1638 -23.92582,14.44461 -36.20247,21.11606 -0.14591,0.0816 -1.10277,0.55064 -0.46882,0.0562"
         style="fill:none;stroke:#ff0000;stroke-width:0.31317;stroke-linecap:square"
         clip-path="url(#pac98bb5641)"
         id="path1146" />
      <path
         inkscape:connector-curvature="0"
         d="m 286.36891,216.70207 c -11.97663,7.39837 -23.9127,14.89654 -36.34543,21.51489 -0.67502,0.26168 -1.49416,0.94197 -2.13871,0.83982 0.0412,-0.093 0.11369,-0.16648 0.1812,-0.2406"
         style="fill:none;stroke:#ff0000;stroke-width:0.31317;stroke-linecap:square"
         clip-path="url(#pac98bb5641)"
         id="path1149" />
      <path
         inkscape:connector-curvature="0"
         d="m 281.80018,209.97928 c -11.27606,7.2065 -22.54782,14.45926 -34.33521,20.81177 -1.7895,0.85702 -3.4907,2.0436 -5.42684,2.51155 -0.19651,-0.0734 0.0143,-0.30977 0.0749,-0.4098"
         style="fill:none;stroke:#ff0000;stroke-width:0.31317;stroke-linecap:square"
         clip-path="url(#pac98bb5641)"
         id="path1152" />
      <path
         inkscape:connector-curvature="0"
         d="m 276.93224,203.5919 c -10.65486,7.04229 -21.34434,14.07308 -32.54031,20.235 -2.66623,1.33749 -5.23399,2.98789 -8.09862,3.85666 -0.40573,0.11204 -0.37456,-0.29339 -0.21038,-0.50763"
         style="fill:none;stroke:#ff0000;stroke-width:0.31317;stroke-linecap:square"
         clip-path="url(#pac98bb5641)"
         id="path1155" />
      <path
         inkscape:connector-curvature="0"
         d="m 271.80166,197.57573 c -10.36041,7.07429 -20.79408,14.08561 -31.75633,20.20314 -3.0913,1.5917 -6.11304,3.41288 -9.4257,4.50449 -0.43717,0.16863 -0.94286,-0.0423 -0.6248,-0.57058"
         style="fill:none;stroke:#ff0000;stroke-width:0.31317;stroke-linecap:square"
         clip-path="url(#pac98bb5641)"
         id="path1158" />
      <path
         inkscape:connector-curvature="0"
         d="m 266.44511,191.96518 c -10.12369,7.13188 -20.35728,14.1555 -31.14592,20.25346 -3.43579,1.79392 -6.82382,3.78389 -10.52216,4.98725 -0.50507,0.15246 -1.21397,0.0586 -0.90566,-0.66056"
         style="fill:none;stroke:#ff0000;stroke-width:0.31317;stroke-linecap:square"
         clip-path="url(#pac98bb5641)"
         id="path1161" />
      <path
         inkscape:connector-curvature="0"
         d="m 260.89947,186.79282 c -9.9075,7.18965 -19.95769,14.23483 -30.59381,20.31499 -3.66621,1.9499 -7.32027,4.03351 -11.28164,5.32215 -0.57306,0.19135 -1.58146,0.18209 -1.28585,-0.7177"
         style="fill:none;stroke:#ff0000;stroke-width:0.31317;stroke-linecap:square"
         clip-path="url(#pac98bb5641)"
         id="path1164" />
      <path
         inkscape:connector-curvature="0"
         d="m 255.2018,182.08909 c -9.75935,7.28415 -19.69343,14.3924 -30.25674,20.47502 -3.79851,2.04027 -7.61329,4.16173 -11.73354,5.47976 -0.66667,0.19753 -1.80942,0.23831 -1.58617,-0.79578"
         style="fill:none;stroke:#ff0000;stroke-width:0.31317;stroke-linecap:square"
         clip-path="url(#pac98bb5641)"
         id="path1167" />
      <path
         inkscape:connector-curvature="0"
         d="m 249.38923,177.88202 c -9.52494,7.30374 -19.25535,14.40089 -29.63844,20.4466 -3.95446,2.16155 -7.96059,4.34705 -12.27247,5.70556 -0.75287,0.22499 -2.06029,0.31907 -1.9122,-0.85042"
         style="fill:none;stroke:#ff0000;stroke-width:0.31317;stroke-linecap:square"
         clip-path="url(#pac98bb5641)"
         id="path1170" />
      <path
         inkscape:connector-curvature="0"
         d="m 243.49883,174.19701 c -9.29872,7.31633 -18.83496,14.39414 -29.04337,20.40111 -4.06055,2.24687 -8.20118,4.46797 -12.64623,5.85042 -0.82182,0.25582 -2.29731,0.351 -2.21658,-0.90254"
         style="fill:none;stroke:#ff0000;stroke-width:0.31317;stroke-linecap:square"
         clip-path="url(#pac98bb5641)"
         id="path1173" />
      <path
         inkscape:connector-curvature="0"
         d="m 237.5674,171.05668 c -9.07484,7.3127 -18.41354,14.36519 -28.45009,20.31594 -4.11399,2.30988 -8.34113,4.53051 -12.86157,5.92977 -0.91895,0.2525 -2.49056,0.42698 -2.5123,-0.94385"
         style="fill:none;stroke:#ff0000;stroke-width:0.31317;stroke-linecap:square"
         clip-path="url(#pac98bb5641)"
         id="path1176" />
      <path
         inkscape:connector-curvature="0"
         d="m 231.63132,168.48067 c -8.83099,7.27756 -17.95101,14.27423 -27.7864,20.1511 -4.19015,2.37396 -8.51677,4.6314 -13.1467,6.01143 -0.97703,0.25023 -2.5357,0.38553 -2.64382,-1.00354"
         style="fill:none;stroke:#ff0000;stroke-width:0.31317;stroke-linecap:square"
         clip-path="url(#pac98bb5641)"
         id="path1179" />
      <path
         inkscape:connector-curvature="0"
         d="m 225.72622,166.48554 c -8.60005,7.23466 -17.51189,14.17213 -27.15953,19.96531 -4.20908,2.39536 -8.57139,4.65454 -13.24105,5.99875 -1.0215,0.25053 -2.57616,0.34234 -2.76082,-1.0444"
         style="fill:none;stroke:#ff0000;stroke-width:0.31317;stroke-linecap:square"
         clip-path="url(#pac98bb5641)"
         id="path1182" />
      <path
         inkscape:connector-curvature="0"
         d="m 219.88679,165.08473 c -8.38242,7.18301 -17.09536,14.05928 -26.57022,19.75557 -4.16997,2.37386 -8.50418,4.59594 -13.14168,5.89121 -1.0565,0.24912 -2.60256,0.30671 -2.8623,-1.06713"
         style="fill:none;stroke:#ff0000;stroke-width:0.31317;stroke-linecap:square"
         clip-path="url(#pac98bb5641)"
         id="path1185" />
      <path
         inkscape:connector-curvature="0"
         d="m 214.14644,164.28848 c -8.13593,7.09132 -16.62037,13.86511 -25.88215,19.43909 -4.11286,2.34134 -8.39783,4.5193 -12.98046,5.76707 -1.06927,0.25124 -2.62853,0.2737 -2.9436,-1.06899"
         style="fill:none;stroke:#ff0000;stroke-width:0.31317;stroke-linecap:square"
         clip-path="url(#pac98bb5641)"
         id="path1188" />
      <path
         inkscape:connector-curvature="0"
         d="m 208.53697,164.10387 c -7.86119,6.95648 -16.08555,13.58678 -25.09289,19.01161 -4.03619,2.29741 -8.24941,4.42244 -12.7527,5.6247 -1.08411,0.24661 -2.6212,0.25867 -3.00347,-1.05236"
         style="fill:none;stroke:#ff0000;stroke-width:0.31317;stroke-linecap:square"
         clip-path="url(#pac98bb5641)"
         id="path1191" />
      <path
         inkscape:connector-curvature="0"
         d="m 203.08818,164.53489 c -7.59847,6.80746 -15.5677,13.29096 -24.33342,18.54717 -3.89889,2.20384 -7.96934,4.24017 -12.31695,5.38243 -1.08686,0.24095 -2.59526,0.25255 -3.03689,-1.01622"
         style="fill:none;stroke:#ff0000;stroke-width:0.31317;stroke-linecap:square"
         clip-path="url(#pac98bb5641)"
         id="path1194" />
      <path
         inkscape:connector-curvature="0"
         d="m 197.82736,165.58258 c -7.34224,6.64706 -15.06393,12.97013 -23.59621,18.03919 -3.74732,2.07314 -7.64319,4.03745 -11.8208,5.06254 -1.04544,0.21773 -2.41681,0.1677 -2.88596,-0.98761"
         style="fill:none;stroke:#ff0000;stroke-width:0.31317;stroke-linecap:square"
         clip-path="url(#pac98bb5641)"
         id="path1197" />
      <path
         inkscape:connector-curvature="0"
         d="m 192.77863,167.24533 c -7.00614,6.39692 -14.39418,12.47095 -22.57904,17.30884 -3.56553,1.95575 -7.26811,3.80908 -11.23544,4.7793 -1.01761,0.21203 -2.35251,0.17282 -2.85659,-0.91634"
         style="fill:none;stroke:#ff0000;stroke-width:0.31317;stroke-linecap:square"
         clip-path="url(#pac98bb5641)"
         id="path1200" />
      <path
         inkscape:connector-curvature="0"
         d="m 187.96201,169.51934 c -6.70252,6.14804 -13.77855,11.99453 -21.66597,16.56898 -3.37758,1.7949 -6.86255,3.57403 -10.62489,4.3826 -0.90175,0.14174 -1.99613,0.0151 -2.46587,-0.88476"
         style="fill:none;stroke:#ff0000;stroke-width:0.31317;stroke-linecap:square"
         clip-path="url(#pac98bb5641)"
         id="path1203" />
      <path
         inkscape:connector-curvature="0"
         d="m 183.39186,172.39944 c -6.38419,5.86595 -13.13091,11.45544 -20.70321,15.73058 -3.06076,1.55657 -6.1889,3.17986 -9.5847,3.83719 -0.81157,0.1186 -1.7705,-0.0296 -2.22215,-0.79836"
         style="fill:none;stroke:#ff0000;stroke-width:0.31317;stroke-linecap:square"
         clip-path="url(#pac98bb5641)"
         id="path1206" />
      <path
         inkscape:connector-curvature="0"
         d="m 179.07427,175.88064 c -5.99676,5.50747 -12.34158,10.76334 -19.51147,14.68092 -2.77273,1.32034 -5.57125,2.86429 -8.65176,3.27241 -0.63301,0.0418 -1.32958,-0.16194 -1.69258,-0.71629"
         style="fill:none;stroke:#ff0000;stroke-width:0.31317;stroke-linecap:square"
         clip-path="url(#pac98bb5641)"
         id="path1209" />
      <path
         inkscape:connector-curvature="0"
         d="m 175.00151,179.96126 c -5.51363,5.03848 -11.34377,9.87276 -17.98916,13.35171 -2.35252,1.06946 -4.71169,2.38977 -7.32036,2.64909 -0.51276,-5.9e-4 -1.05015,-0.17282 -1.36353,-0.60099"
         style="fill:none;stroke:#ff0000;stroke-width:0.31317;stroke-linecap:square"
         clip-path="url(#pac98bb5641)"
         id="path1212" />
      <path
         inkscape:connector-curvature="0"
         d="m 171.13865,184.65079 c -5.02039,4.54132 -10.32469,8.94942 -16.47744,11.87304 -1.78529,0.71165 -3.59215,1.83784 -5.57435,1.67419 -0.26507,-0.0663 -0.51401,-0.20546 -0.68896,-0.4181"
         style="fill:none;stroke:#ff0000;stroke-width:0.31317;stroke-linecap:square"
         clip-path="url(#pac98bb5641)"
         id="path1215" />
      <path
         inkscape:connector-curvature="0"
         d="m 167.37939,189.99537 c -4.69242,4.18359 -9.72181,8.33897 -15.78446,10.3213 -0.57225,0.14757 -1.3162,0.30146 -1.77822,-0.18198"
         style="fill:none;stroke:#ff0000;stroke-width:0.31317;stroke-linecap:square"
         clip-path="url(#pac98bb5641)"
         id="path1218" />
    </g>
    <g
       id="g1406"
       style="display:inline;stroke-width:1.25269">
      <path
         inkscape:connector-curvature="0"
         d="m 306.44653,270.28582 c -4.49524,3.34098 -9.03035,6.74096 -14.12134,9.12963 -1.10418,0.43772 -2.23929,0.95551 -3.44112,1.01038"
         style="fill:none;stroke:#0000ff;stroke-width:0.31317;stroke-linecap:square"
         clip-path="url(#pac98bb5641)"
         id="path1221" />
      <path
         inkscape:connector-curvature="0"
         d="m 305.27649,262.09531 c -5.83994,4.14567 -11.72237,8.31888 -18.15195,11.51153 -1.47658,0.65125 -2.98045,1.37961 -4.58891,1.61849"
         style="fill:none;stroke:#0000ff;stroke-width:0.31317;stroke-linecap:square"
         clip-path="url(#pac98bb5641)"
         id="path1224" />
      <path
         inkscape:connector-curvature="0"
         d="m 303.37982,254.08051 c -6.97908,4.7075 -13.98685,9.43286 -21.48095,13.29233 -1.68554,0.79337 -3.37562,1.65872 -5.19223,2.10711"
         style="fill:none;stroke:#0000ff;stroke-width:0.31317;stroke-linecap:square"
         clip-path="url(#pac98bb5641)"
         id="path1227" />
      <path
         inkscape:connector-curvature="0"
         d="m 300.89846,246.21587 c -8.31058,5.29803 -16.61158,10.65439 -25.35965,15.21117 -1.4741,0.7222 -2.94146,1.49049 -4.49626,2.02624"
         style="fill:none;stroke:#0000ff;stroke-width:0.31317;stroke-linecap:square"
         clip-path="url(#pac98bb5641)"
         id="path1230" />
      <path
         inkscape:connector-curvature="0"
         d="m 297.90793,238.51532 c -10.28353,6.178 -20.50108,12.49209 -31.11806,18.08863 -0.46042,0.23416 -0.92034,0.4703 -1.39197,0.68131"
         style="fill:none;stroke:#0000ff;stroke-width:0.31317;stroke-linecap:square"
         clip-path="url(#pac98bb5641)"
         id="path1233" />
      <path
         inkscape:connector-curvature="0"
         d="m 294.46116,231.00666 c -11.60693,6.65125 -23.24759,13.24701 -34.75673,20.06676"
         style="fill:none;stroke:#0000ff;stroke-width:0.31317;stroke-linecap:square"
         clip-path="url(#pac98bb5641)"
         id="path1236" />
      <path
         inkscape:connector-curvature="0"
         d="m 290.60172,223.72351 c -10.93454,5.91766 -21.91927,11.77381 -32.47931,18.34647 -1.41494,0.91352 -2.85117,1.80421 -4.19187,2.82562"
         style="fill:none;stroke:#0000ff;stroke-width:0.31317;stroke-linecap:square"
         clip-path="url(#pac98bb5641)"
         id="path1239" />
      <path
         inkscape:connector-curvature="0"
         d="m 286.36891,216.70207 c -10.43457,5.2869 -20.86581,10.62807 -30.83262,16.76466 -2.56109,1.66814 -5.19251,3.30054 -7.47042,5.34966"
         style="fill:none;stroke:#0000ff;stroke-width:0.31317;stroke-linecap:square"
         clip-path="url(#pac98bb5641)"
         id="path1242" />
      <path
         inkscape:connector-curvature="0"
         d="m 281.80018,209.97928 c -10.36332,4.90957 -20.68111,9.97969 -30.48858,15.93919 -3.2145,2.09309 -6.54757,4.1741 -9.19855,6.97421"
         style="fill:none;stroke:#0000ff;stroke-width:0.31317;stroke-linecap:square"
         clip-path="url(#pac98bb5641)"
         id="path1245" />
      <path
         inkscape:connector-curvature="0"
         d="m 276.93224,203.5919 c -10.39909,4.60624 -20.72114,9.46863 -30.4902,15.31364 -3.62683,2.31164 -7.30757,4.71914 -10.16306,7.97494 -0.07,0.0952 -0.13696,0.19288 -0.1957,0.29547"
         style="fill:none;stroke:#0000ff;stroke-width:0.31317;stroke-linecap:square"
         clip-path="url(#pac98bb5641)"
         id="path1248" />
      <path
         inkscape:connector-curvature="0"
         d="m 271.80166,197.57573 c -10.50046,4.35258 -20.90504,9.04187 -30.70521,14.82567 -3.9292,2.45927 -7.88458,5.12346 -10.79793,8.78268 -0.11255,0.16945 -0.22171,0.34218 -0.30397,0.52877"
         style="fill:none;stroke:#0000ff;stroke-width:0.31317;stroke-linecap:square"
         clip-path="url(#pac98bb5641)"
         id="path1251" />
      <path
         inkscape:connector-curvature="0"
         d="m 266.44511,191.96518 c -10.53321,4.08776 -20.95594,8.58502 -30.74751,14.2513 -4.22224,2.56455 -8.42894,5.46046 -11.39278,9.47927 -0.1693,0.26921 -0.33351,0.54626 -0.43386,0.84969"
         style="fill:none;stroke:#0000ff;stroke-width:0.31317;stroke-linecap:square"
         clip-path="url(#pac98bb5641)"
         id="path1254" />
      <path
         inkscape:connector-curvature="0"
         d="m 260.89947,186.79282 c -10.50208,3.81885 -20.88182,8.112 -30.62613,13.61253 -4.53302,2.66199 -9.04443,5.76872 -12.03108,10.18213 -0.21149,0.35233 -0.40648,0.7234 -0.50511,1.12489"
         style="fill:none;stroke:#0000ff;stroke-width:0.31317;stroke-linecap:square"
         clip-path="url(#pac98bb5641)"
         id="path1257" />
      <path
         inkscape:connector-curvature="0"
         d="m 255.2018,182.08909 c -10.54521,3.60399 -20.96428,7.73569 -30.72867,13.14008 -4.72404,2.71216 -9.42991,5.96612 -12.33894,10.68185 -0.22159,0.42236 -0.43477,0.86134 -0.5092,1.33708"
         style="fill:none;stroke:#0000ff;stroke-width:0.31317;stroke-linecap:square"
         clip-path="url(#pac98bb5641)"
         id="path1260" />
      <path
         inkscape:connector-curvature="0"
         d="m 249.38923,177.88202 c -10.45414,3.36654 -20.78236,7.29517 -30.46567,12.51183 -4.98468,2.76114 -9.99082,6.15828 -12.84911,11.23097 -0.24385,0.4888 -0.4614,1.00928 -0.50899,1.55876"
         style="fill:none;stroke:#0000ff;stroke-width:0.31317;stroke-linecap:square"
         clip-path="url(#pac98bb5641)"
         id="path1263" />
      <path
         inkscape:connector-curvature="0"
         d="m 243.49883,174.19701 c -10.4073,3.17003 -20.69127,6.93099 -30.33284,12.00707 -5.13816,2.77092 -10.34229,6.25134 -13.08899,11.578 -0.25256,0.55499 -0.47242,1.14735 -0.48425,1.76397"
         style="fill:none;stroke:#0000ff;stroke-width:0.31317;stroke-linecap:square"
         clip-path="url(#pac98bb5641)"
         id="path1266" />
      <path
         inkscape:connector-curvature="0"
         d="m 237.5674,171.05668 c -10.31779,2.98496 -20.51577,6.58014 -30.08425,11.49657 -5.2703,2.76558 -10.66343,6.29641 -13.29751,11.84529 -0.24965,0.62145 -0.47612,1.28069 -0.44101,1.95978"
         style="fill:none;stroke:#0000ff;stroke-width:0.31317;stroke-linecap:square"
         clip-path="url(#pac98bb5641)"
         id="path1269" />
      <path
         inkscape:connector-curvature="0"
         d="m 231.63132,168.48067 c -10.28478,2.84161 -20.45467,6.31007 -29.99534,11.12671 -5.21022,2.68999 -10.56771,6.14954 -13.09514,11.66509 -0.30604,0.74466 -0.56898,1.55168 -0.48666,2.36719"
         style="fill:none;stroke:#0000ff;stroke-width:0.31317;stroke-linecap:square"
         clip-path="url(#pac98bb5641)"
         id="path1272" />
      <path
         inkscape:connector-curvature="0"
         d="m 225.72622,166.48554 c -10.2014,2.70944 -20.29727,6.04482 -29.76631,10.74905 -5.20208,2.63447 -10.59891,6.06312 -12.97976,11.63756 -0.297,0.80289 -0.55481,1.6694 -0.41625,2.5329"
         style="fill:none;stroke:#0000ff;stroke-width:0.31317;stroke-linecap:square"
         clip-path="url(#pac98bb5641)"
         id="path1275" />
      <path
         inkscape:connector-curvature="0"
         d="m 219.88679,165.08473 c -10.07996,2.58914 -20.06194,5.79874 -29.42783,10.37816 -5.07791,2.53454 -10.38649,5.81552 -12.6983,11.25676 -0.35712,0.92519 -0.65788,1.94948 -0.44763,2.94529"
         style="fill:none;stroke:#0000ff;stroke-width:0.31317;stroke-linecap:square"
         clip-path="url(#pac98bb5641)"
         id="path1278" />
      <path
         inkscape:connector-curvature="0"
         d="m 214.14644,164.28848 c -9.95987,2.49206 -19.8295,5.59473 -29.08947,10.07219 -4.96156,2.4544 -10.19699,5.63544 -12.35947,11.0061 -0.34374,0.96786 -0.62876,2.03674 -0.35754,3.05881"
         style="fill:none;stroke:#0000ff;stroke-width:0.31317;stroke-linecap:square"
         clip-path="url(#pac98bb5641)"
         id="path1281" />
      <path
         inkscape:connector-curvature="0"
         d="m 208.53697,164.10387 c -9.83702,2.41687 -19.59329,5.42726 -28.73916,9.82719 -4.72514,2.33504 -9.75021,5.34084 -11.78368,10.47562 -0.37696,1.03085 -0.66743,2.20098 -0.32599,3.28135"
         style="fill:none;stroke:#0000ff;stroke-width:0.31317;stroke-linecap:square"
         clip-path="url(#pac98bb5641)"
         id="path1284" />
      <path
         inkscape:connector-curvature="0"
         d="m 203.08818,164.53489 c -9.6568,2.34713 -19.24148,5.264 -28.22144,9.56783 -4.51183,2.22832 -9.35206,5.08518 -11.23427,10.02775 -0.36518,1.04738 -0.62878,2.24081 -0.23094,3.31785"
         style="fill:none;stroke:#0000ff;stroke-width:0.31317;stroke-linecap:square"
         clip-path="url(#pac98bb5641)"
         id="path1287" />
      <path
         inkscape:connector-curvature="0"
         d="m 197.82736,165.58258 c -9.46339,2.29359 -18.86384,5.12901 -27.65879,9.35662 -4.2639,2.11768 -8.88441,4.84395 -10.54966,9.58475 -0.32247,1.00974 -0.52569,2.16313 -0.0947,3.17283"
         style="fill:none;stroke:#0000ff;stroke-width:0.31317;stroke-linecap:square"
         clip-path="url(#pac98bb5641)"
         id="path1290" />
      <path
         inkscape:connector-curvature="0"
         d="m 192.77863,167.24533 c -9.19858,2.23981 -18.34277,4.98758 -26.88743,9.11364 -3.98663,1.99751 -8.35266,4.57004 -9.8107,9.06509 -0.28187,0.96198 -0.42535,2.0595 0.027,2.9934"
         style="fill:none;stroke:#0000ff;stroke-width:0.31317;stroke-linecap:square"
         clip-path="url(#pac98bb5641)"
         id="path1293" />
      <path
         inkscape:connector-curvature="0"
         d="m 187.96201,169.51934 c -8.88394,2.19162 -17.72448,4.84809 -25.96835,8.86996 -3.68636,1.87784 -7.78215,4.31589 -8.958,8.56999 -0.20866,0.85694 -0.26952,1.82825 0.1694,2.6269"
         style="fill:none;stroke:#0000ff;stroke-width:0.31317;stroke-linecap:square"
         clip-path="url(#pac98bb5641)"
         id="path1296" />
      <path
         inkscape:connector-curvature="0"
         d="m 183.39186,172.39944 c -8.47106,2.13128 -16.91118,4.67543 -24.75911,8.56258 -3.35202,1.72975 -7.12033,4.01655 -8.03103,7.96295 -0.13233,0.74854 -0.13374,1.57759 0.2801,2.24413"
         style="fill:none;stroke:#0000ff;stroke-width:0.31317;stroke-linecap:square"
         clip-path="url(#pac98bb5641)"
         id="path1299" />
      <path
         inkscape:connector-curvature="0"
         d="m 179.07427,175.88064 c -8.01585,2.07499 -16.01978,4.50009 -23.41984,8.27033 -2.94185,1.5728 -6.32218,3.73492 -6.80516,7.33188 -0.0364,0.56364 0.0399,1.16118 0.3693,1.63506"
         style="fill:none;stroke:#0000ff;stroke-width:0.31317;stroke-linecap:square"
         clip-path="url(#pac98bb5641)"
         id="path1302" />
      <path
         inkscape:connector-curvature="0"
         d="m 175.00151,179.96126 c -7.39865,1.98396 -14.80947,4.24073 -21.60556,7.8339 -2.42339,1.35521 -5.24055,3.27745 -5.44335,6.31297 -0.004,0.44048 0.10358,0.89842 0.37562,1.25282"
         style="fill:none;stroke:#0000ff;stroke-width:0.31317;stroke-linecap:square"
         clip-path="url(#pac98bb5641)"
         id="path1305" />
      <path
         inkscape:connector-curvature="0"
         d="m 171.13865,184.65079 c -6.56647,1.83693 -13.17563,3.85512 -19.15968,7.18683 -1.85997,1.12289 -4.09895,2.82144 -3.90111,5.24865 0.0496,0.25218 0.15115,0.49744 0.3195,0.69394"
         style="fill:none;stroke:#0000ff;stroke-width:0.31317;stroke-linecap:square"
         clip-path="url(#pac98bb5641)"
         id="path1308" />
      <path
         inkscape:connector-curvature="0"
         d="m 167.37939,189.99537 c -5.27703,1.55393 -10.63416,3.17428 -15.38897,6.00349 -1.23429,0.81409 -3.1972,2.51263 -2.17297,4.13594"
         style="fill:none;stroke:#0000ff;stroke-width:0.31317;stroke-linecap:square"
         clip-path="url(#pac98bb5641)"
         id="path1311" />
    </g>
    <path
       id="path1314"
       clip-path="url(#pac98bb5641)"
       style="fill:none;stroke:#000000;stroke-width:0.33144;stroke-miterlimit:4;stroke-dasharray:1.22632, 0.530302;stroke-dashoffset:0"
       d="m 288.88423,280.42542 c -3.19061,-2.6508 -6.5299,-5.13618 -9.36929,-8.17769 -7.70557,-7.59726 -14.74325,-15.83456 -22.17022,-23.699 -12.04715,-12.95394 -24.73883,-25.38534 -38.77906,-36.18391 -7.48215,-5.71265 -15.32299,-10.98897 -23.66217,-15.37444 -5.38759,-2.83044 -10.99108,-5.27414 -16.81239,-7.06744 -4.50097,-1.34113 -9.14432,-2.31377 -13.85339,-2.42787 -2.88496,-0.0655 -5.81045,0.22823 -8.56737,1.0984 -1.86093,0.65503 -3.68055,1.54624 -5.09445,2.93407 -0.9472,0.95578 -1.69242,2.03322 -2.05271,3.34251 -0.35663,0.94239 -0.1537,2.08114 -0.0442,3.04466 0.44604,0.74008 0.89207,1.48017 1.33811,2.22026"
       inkscape:connector-curvature="0" />
    <path
       id="path1317"
       clip-path="url(#pac98bb5641)"
       style="fill:none;stroke:#008000;stroke-width:0.33144;stroke-miterlimit:4;stroke-dasharray:1.22632, 0.530302;stroke-dashoffset:0"
       d="m 293.27481,277.89052 c -3.21728,-3.70536 -6.34002,-7.48709 -9.26276,-11.4304 -9.50596,-12.6839 -19.05819,-25.3802 -29.87098,-36.99547 -6.56347,-7.14167 -13.53839,-13.91576 -20.96177,-20.1611 -5.75106,-4.82882 -11.77454,-9.34648 -18.1309,-13.3485 -5.36478,-3.40141 -10.98181,-6.41208 -16.83163,-8.88971 -4.56051,-1.86743 -9.25008,-3.45386 -14.09714,-4.3838 -3.28201,-0.67431 -6.63696,-0.99162 -9.98878,-0.94888 -2.62,0.071 -5.25196,0.37581 -7.77378,1.12133 -1.7411,0.43911 -3.42202,1.19732 -4.98681,2.06199 -1.53685,0.91983 -2.9589,1.9801 -4.13621,3.33977 -0.98076,1.01447 -1.69017,2.31214 -2.32927,3.55575 -0.44783,1.44551 -1.0393,2.87248 -0.75236,4.41282 0.0184,0.45859 0.0368,0.91717 0.0552,1.37576"
       inkscape:connector-curvature="0" />
    <path
       id="path1320"
       clip-path="url(#pac98bb5641)"
       style="fill:none;stroke:#000000;stroke-width:0.33144;stroke-miterlimit:4;stroke-dasharray:1.22632, 0.530302;stroke-dashoffset:0"
       d="m 306.44653,270.28582 c -0.61854,-4.12427 -1.019,-8.28983 -2.14672,-12.31769 -0.89957,-4.25103 -2.31011,-8.37063 -3.68568,-12.48439 -1.56868,-4.14343 -3.18661,-8.26601 -5.13087,-12.25047 -1.65948,-3.61845 -3.57862,-7.11898 -5.53032,-10.58597 -2.27681,-3.89922 -4.69121,-7.7103 -7.29227,-11.40182 -2.86966,-4.05201 -5.91261,-7.98772 -9.19395,-11.71728 -2.53247,-2.97881 -5.26537,-5.79121 -8.05545,-8.52727 -3.02235,-2.92561 -6.19302,-5.68224 -9.47832,-8.30824 -3.50325,-2.7181 -7.12735,-5.28684 -10.93827,-7.55988 -2.71385,-1.67201 -5.56191,-3.14055 -8.43596,-4.51385 -3.10767,-1.42073 -6.27224,-2.69373 -9.5407,-3.69696 -2.58183,-0.8305 -5.24969,-1.42702 -7.90918,-1.94518 -2.998,-0.47009 -6.00441,-0.84196 -9.04428,-0.82268 -2.53437,-0.0866 -5.08108,0.20446 -7.5926,0.50347 -2.68682,0.49957 -5.36922,1.01592 -7.92694,2.00598 -2.48611,0.76941 -4.81608,1.99238 -7.11458,3.19074 -2.38896,1.45696 -4.752,2.9502 -6.8511,4.8128 -2.2232,1.74426 -4.15732,3.83755 -6.07718,5.90035 -2.38956,2.76275 -4.57245,5.68294 -6.61686,8.70863 -0.16864,0.23975 -0.33727,0.47951 -0.50591,0.71926"
       inkscape:connector-curvature="0" />
    <path
       transform="translate(0,-37.470436)"
       id="path1323"
       clip-path="url(#pac98bb5641)"
       style="fill:none;stroke:#008000;stroke-width:0.33144;stroke-miterlimit:4;stroke-dasharray:1.22632, 0.530302;stroke-dashoffset:0"
       d="m 293.27481,343.89191 c -2.83754,0.0638 -5.67649,0.15766 -8.48936,-0.30203 -6.07177,-0.7734 -11.9633,-2.58506 -17.71836,-4.62491 -14.2815,-5.20276 -27.91032,-12.02107 -41.30622,-19.16207 -16.61357,-8.97097 -32.91041,-18.59038 -48.36953,-29.44643 -6.6331,-4.79949 -13.30007,-9.71108 -18.77724,-15.84116 -1.78396,-2.1273 -3.54962,-4.40654 -4.25129,-7.13938 -0.52746,-1.19162 -0.10829,-2.51527 -0.15515,-3.77449"
       inkscape:connector-curvature="0" />
    <path
       transform="translate(0,-37.470436)"
       id="path1326"
       clip-path="url(#pac98bb5641)"
       style="fill:none;stroke:#ff0000;stroke-width:0.33144;stroke-miterlimit:4;stroke-dasharray:1.22632, 0.530302;stroke-dashoffset:0"
       d="M 302.05596,338.82211 C 255.70024,312.05863 209.34453,285.29513 162.98881,258.53166"
       inkscape:connector-curvature="0" />
    <path
       transform="translate(-34.824342,20.10584)"
       id="path1329"
       clip-path="url(#pac98bb5641)"
       style="fill:none;stroke:#008000;stroke-width:0.33144;stroke-miterlimit:4;stroke-dasharray:1.22632, 0.530302;stroke-dashoffset:0"
       d="m 373.02449,231.84702 c -1.51021,-4.73644 -3.14514,-9.42815 -5.01406,-14.03594 -2.39274,-5.77719 -5.05127,-11.44816 -8.02683,-16.94878 -3.31347,-6.11555 -6.95017,-12.05555 -10.95067,-17.74652 -3.62556,-5.24487 -7.60706,-10.23714 -11.76818,-15.06544 -3.22561,-3.62866 -6.58104,-7.1327 -10.07803,-10.50081 -3.64348,-3.41361 -7.43335,-6.66486 -11.3823,-9.72153 -3.73009,-2.8093 -7.59309,-5.4367 -11.6059,-7.82772 -3.71088,-2.15344 -7.53861,-4.10424 -11.49867,-5.76156 -3.49222,-1.42537 -7.06921,-2.66983 -10.74728,-3.52832 -2.69145,-0.70744 -5.46787,-1.11837 -8.23004,-1.41791 -2.78276,-0.23502 -5.56621,-0.31593 -8.35115,-0.0661 -2.27296,0.1403 -4.53527,0.59574 -6.7518,1.09572 -2.46856,0.69837 -4.89859,1.49754 -7.17913,2.68801 -1.98284,0.89902 -3.78114,2.18297 -5.567,3.41276 -2.01471,1.63694 -3.96666,3.33872 -5.61342,5.35569 -1.58787,1.74128 -2.87089,3.75445 -4.13491,5.73459 -0.72259,1.34779 -1.44518,2.69559 -2.16777,4.04338"
       inkscape:connector-curvature="0" />
    <path
       transform="translate(-34.824342,20.10584)"
       id="path1332"
       clip-path="url(#pac98bb5641)"
       style="fill:none;stroke:#ff0000;stroke-width:0.33144;stroke-miterlimit:4;stroke-dasharray:1.22632, 0.530302;stroke-dashoffset:0"
       d="m 373.02449,231.84702 c -1.51021,-4.73644 -3.14514,-9.42815 -5.01406,-14.03594 -2.39274,-5.77719 -5.05127,-11.44816 -8.02683,-16.94878 -3.31347,-6.11555 -6.95017,-12.05555 -10.95067,-17.74652 -3.62556,-5.24487 -7.60706,-10.23714 -11.76818,-15.06544 -3.22561,-3.62866 -6.58104,-7.1327 -10.07803,-10.50081 -3.64348,-3.41361 -7.43335,-6.66486 -11.3823,-9.72153 -3.73009,-2.8093 -7.59309,-5.4367 -11.6059,-7.82772 -3.71088,-2.15344 -7.53861,-4.10424 -11.49867,-5.76156 -3.49222,-1.42537 -7.06921,-2.66983 -10.74728,-3.52832 -2.69145,-0.70744 -5.46787,-1.11837 -8.23004,-1.41791 -2.78276,-0.23502 -5.56621,-0.31593 -8.35115,-0.0661 -2.27296,0.1403 -4.53527,0.59574 -6.7518,1.09572 -2.46856,0.69837 -4.89859,1.49754 -7.17913,2.68801 -1.98284,0.89902 -3.78114,2.18297 -5.567,3.41276 -2.01471,1.63694 -3.96666,3.33872 -5.61342,5.35569 -1.58787,1.74128 -2.87089,3.75445 -4.13491,5.73459 -0.72259,1.34779 -1.44518,2.69559 -2.16777,4.04338"
       inkscape:connector-curvature="0" />
  </g>
  <g
     id="g4831"
     inkscape:label="axes"
     transform="matrix(0.32350523,0,0,0.32341288,-92.291786,35.393303)"
     style="stroke-width:0.817981;stroke-linecap:butt;stroke-linejoin:round;stroke-miterlimit:4;stroke-dasharray:none">
    <path
       inkscape:connector-curvature="0"
       id="path4328"
       d="m 331.40822,205.51184 -12.2744,7.08661 12.2744,7.08662 12.2743,-7.08662 z"
       style="fill:#4d4d4d;stroke:#000000;stroke-width:0.817981;stroke-linecap:butt;stroke-linejoin:round;stroke-miterlimit:4;stroke-dasharray:none;stroke-opacity:1" />
    <path
       inkscape:connector-curvature="0"
       id="path4330"
       d="m 319.13382,212.59845 v 14.17323 l 12.2744,7.08662 v -14.17323 z"
       style="fill:#b3b3b3;stroke:#000000;stroke-width:0.817981;stroke-linecap:butt;stroke-linejoin:round;stroke-miterlimit:4;stroke-dasharray:none;stroke-opacity:1" />
    <path
       inkscape:connector-curvature="0"
       id="path4332"
       d="m 331.40822,219.68507 v 14.17323 l 12.2743,-7.08662 v -14.17323 z"
       style="fill:#808080;stroke:#000000;stroke-width:0.817981;stroke-linecap:butt;stroke-linejoin:round;stroke-miterlimit:4;stroke-dasharray:none;stroke-opacity:1" />
    <path
       inkscape:connector-curvature="0"
       id="path3161"
       d="m 343.68242,212.59839 -49.09748,28.34647"
       style="fill:none;stroke:#000000;stroke-width:0.817981;stroke-linecap:butt;stroke-linejoin:miter;stroke-miterlimit:4;stroke-dasharray:none;stroke-opacity:1;marker-end:url(#marker3439)" />
    <path
       inkscape:connector-curvature="0"
       id="path3163"
       d="m 343.68252,212.59845 v 62.36218"
       style="fill:none;stroke:#000000;stroke-width:0.817981;stroke-linecap:butt;stroke-linejoin:miter;stroke-miterlimit:4;stroke-dasharray:none;stroke-opacity:1;marker-end:url(#marker3449)" />
    <path
       inkscape:connector-curvature="0"
       id="path3165"
       d="m 343.68242,212.59839 -49.0975,-28.34642"
       style="fill:none;stroke:#000000;stroke-width:0.817981;stroke-linecap:butt;stroke-linejoin:miter;stroke-miterlimit:4;stroke-dasharray:none;stroke-opacity:1;marker-end:url(#marker3459)" />
    <text
       id="text4354"
       y="247.94768"
       x="285.12344"
       style="font-size:12px;line-height:1.25;font-family:sans-serif;-inkscape-font-specification:sans-serif;letter-spacing:0px;word-spacing:0px;stroke-width:0.817981;stroke-miterlimit:4;stroke-dasharray:none"
       xml:space="preserve"><tspan
         style="stroke-width:0.817981;stroke-miterlimit:4;stroke-dasharray:none"
         y="247.94768"
         x="285.12344"
         id="tspan4352"
         sodipodi:role="line">x</tspan></text>
    <text
       id="text4358"
       y="184.7661"
       x="285.30161"
       style="font-size:12px;line-height:1.25;font-family:sans-serif;-inkscape-font-specification:sans-serif;letter-spacing:0px;word-spacing:0px;stroke-width:0.817981;stroke-miterlimit:4;stroke-dasharray:none"
       xml:space="preserve"><tspan
         style="stroke-width:0.817981;stroke-miterlimit:4;stroke-dasharray:none"
         y="184.7661"
         x="285.30161"
         id="tspan4356"
         sodipodi:role="line">y</tspan></text>
    <text
       id="text4362"
       y="287.43777"
       x="340.19113"
       style="font-size:12px;line-height:1.25;font-family:sans-serif;-inkscape-font-specification:sans-serif;letter-spacing:0px;word-spacing:0px;stroke-width:0.817981;stroke-miterlimit:4;stroke-dasharray:none"
       xml:space="preserve"><tspan
         style="stroke-width:0.817981;stroke-miterlimit:4;stroke-dasharray:none"
         y="287.43777"
         x="340.19113"
         id="tspan4360"
         sodipodi:role="line">z</tspan></text>
  </g>
  <defs
     id="defs1343">
    <clipPath
       id="pac98bb5641">
      <rect
         height="410.39999"
         width="410.39999"
         x="10.8"
         y="10.8"
         id="rect1340" />
    </clipPath>
  </defs>
</svg>
