<?xml version="1.0" encoding="utf-8" standalone="no"?>
<!DOCTYPE svg PUBLIC "-//W3C//DTD SVG 1.1//EN"
  "http://www.w3.org/Graphics/SVG/1.1/DTD/svg11.dtd">
<svg xmlns:xlink="http://www.w3.org/1999/xlink" width="432pt" height="432pt" viewBox="0 0 432 432" xmlns="http://www.w3.org/2000/svg" version="1.1">
 <metadata>
  <rdf:RDF xmlns:dc="http://purl.org/dc/elements/1.1/" xmlns:cc="http://creativecommons.org/ns#" xmlns:rdf="http://www.w3.org/1999/02/22-rdf-syntax-ns#">
   <cc:Work>
    <dc:type rdf:resource="http://purl.org/dc/dcmitype/StillImage"/>
    <dc:date>2022-03-21T14:39:46.927752</dc:date>
    <dc:format>image/svg+xml</dc:format>
    <dc:creator>
     <cc:Agent>
      <dc:title>Matplotlib v3.5.1, https://matplotlib.org/</dc:title>
     </cc:Agent>
    </dc:creator>
   </cc:Work>
  </rdf:RDF>
 </metadata>
 <defs>
  <style type="text/css">*{stroke-linejoin: round; stroke-linecap: butt}</style>
 </defs>
 <g id="figure_1">
  <g id="patch_1">
   <path d="M 0 432 
L 432 432 
L 432 0 
L 0 0 
z
" style="fill: #ffffff"/>
  </g>
  <g id="axes_1">
   <g id="patch_2">
    <path d="M 62.3 188.48 
L 231.485 188.48 
L 231.485 28.32 
L 62.3 28.32 
z
" style="fill: #ffffff"/>
   </g>
   <g id="matplotlib.axis_1">
    <g id="xtick_1">
     <g id="line2d_1">
      <path d="M 62.3 188.48 
L 62.3 28.32 
" clip-path="url(#pf455e43048)" style="fill: none; stroke-dasharray: 2.96,1.28; stroke-dashoffset: 0; stroke: #d3d3d3; stroke-width: 0.8"/>
     </g>
     <g id="line2d_2">
      <defs>
       <path id="m9182272120" d="M 0 0 
L 0 3.5 
" style="stroke: #000000; stroke-width: 0.8"/>
      </defs>
      <g>
       <use xlink:href="#m9182272120" x="62.3" y="188.48" style="stroke: #000000; stroke-width: 0.8"/>
      </g>
     </g>
    </g>
    <g id="xtick_2">
     <g id="line2d_3">
      <path d="M 110.638571 188.48 
L 110.638571 28.32 
" clip-path="url(#pf455e43048)" style="fill: none; stroke-dasharray: 2.96,1.28; stroke-dashoffset: 0; stroke: #d3d3d3; stroke-width: 0.8"/>
     </g>
     <g id="line2d_4">
      <g>
       <use xlink:href="#m9182272120" x="110.638571" y="188.48" style="stroke: #000000; stroke-width: 0.8"/>
      </g>
     </g>
    </g>
    <g id="xtick_3">
     <g id="line2d_5">
      <path d="M 158.977143 188.48 
L 158.977143 28.32 
" clip-path="url(#pf455e43048)" style="fill: none; stroke-dasharray: 2.96,1.28; stroke-dashoffset: 0; stroke: #d3d3d3; stroke-width: 0.8"/>
     </g>
     <g id="line2d_6">
      <g>
       <use xlink:href="#m9182272120" x="158.977143" y="188.48" style="stroke: #000000; stroke-width: 0.8"/>
      </g>
     </g>
    </g>
    <g id="xtick_4">
     <g id="line2d_7">
      <path d="M 207.315714 188.48 
L 207.315714 28.32 
" clip-path="url(#pf455e43048)" style="fill: none; stroke-dasharray: 2.96,1.28; stroke-dashoffset: 0; stroke: #d3d3d3; stroke-width: 0.8"/>
     </g>
     <g id="line2d_8">
      <g>
       <use xlink:href="#m9182272120" x="207.315714" y="188.48" style="stroke: #000000; stroke-width: 0.8"/>
      </g>
     </g>
    </g>
   </g>
   <g id="matplotlib.axis_2">
    <g id="ytick_1">
     <g id="line2d_9">
      <path d="M 62.3 179.328 
L 231.485 179.328 
" clip-path="url(#pf455e43048)" style="fill: none; stroke-dasharray: 2.96,1.28; stroke-dashoffset: 0; stroke: #d3d3d3; stroke-width: 0.8"/>
     </g>
     <g id="line2d_10">
      <defs>
       <path id="m755b45a17f" d="M 0 0 
L -3.5 0 
" style="stroke: #000000; stroke-width: 0.8"/>
      </defs>
      <g>
       <use xlink:href="#m755b45a17f" x="62.3" y="179.328" style="stroke: #000000; stroke-width: 0.8"/>
      </g>
     </g>
     <g id="text_1">
      <!-- −0.25 -->
      <g transform="translate(24.654688 183.127219)scale(0.1 -0.1)">
       <defs>
        <path id="DejaVuSans-2212" d="M 678 2272 
L 4684 2272 
L 4684 1741 
L 678 1741 
L 678 2272 
z
" transform="scale(0.015625)"/>
        <path id="DejaVuSans-30" d="M 2034 4250 
Q 1547 4250 1301 3770 
Q 1056 3291 1056 2328 
Q 1056 1369 1301 889 
Q 1547 409 2034 409 
Q 2525 409 2770 889 
Q 3016 1369 3016 2328 
Q 3016 3291 2770 3770 
Q 2525 4250 2034 4250 
z
M 2034 4750 
Q 2819 4750 3233 4129 
Q 3647 3509 3647 2328 
Q 3647 1150 3233 529 
Q 2819 -91 2034 -91 
Q 1250 -91 836 529 
Q 422 1150 422 2328 
Q 422 3509 836 4129 
Q 1250 4750 2034 4750 
z
" transform="scale(0.015625)"/>
        <path id="DejaVuSans-2e" d="M 684 794 
L 1344 794 
L 1344 0 
L 684 0 
L 684 794 
z
" transform="scale(0.015625)"/>
        <path id="DejaVuSans-32" d="M 1228 531 
L 3431 531 
L 3431 0 
L 469 0 
L 469 531 
Q 828 903 1448 1529 
Q 2069 2156 2228 2338 
Q 2531 2678 2651 2914 
Q 2772 3150 2772 3378 
Q 2772 3750 2511 3984 
Q 2250 4219 1831 4219 
Q 1534 4219 1204 4116 
Q 875 4013 500 3803 
L 500 4441 
Q 881 4594 1212 4672 
Q 1544 4750 1819 4750 
Q 2544 4750 2975 4387 
Q 3406 4025 3406 3419 
Q 3406 3131 3298 2873 
Q 3191 2616 2906 2266 
Q 2828 2175 2409 1742 
Q 1991 1309 1228 531 
z
" transform="scale(0.015625)"/>
        <path id="DejaVuSans-35" d="M 691 4666 
L 3169 4666 
L 3169 4134 
L 1269 4134 
L 1269 2991 
Q 1406 3038 1543 3061 
Q 1681 3084 1819 3084 
Q 2600 3084 3056 2656 
Q 3513 2228 3513 1497 
Q 3513 744 3044 326 
Q 2575 -91 1722 -91 
Q 1428 -91 1123 -41 
Q 819 9 494 109 
L 494 744 
Q 775 591 1075 516 
Q 1375 441 1709 441 
Q 2250 441 2565 725 
Q 2881 1009 2881 1497 
Q 2881 1984 2565 2268 
Q 2250 2553 1709 2553 
Q 1456 2553 1204 2497 
Q 953 2441 691 2322 
L 691 4666 
z
" transform="scale(0.015625)"/>
       </defs>
       <use xlink:href="#DejaVuSans-2212"/>
       <use xlink:href="#DejaVuSans-30" x="83.789062"/>
       <use xlink:href="#DejaVuSans-2e" x="147.412109"/>
       <use xlink:href="#DejaVuSans-32" x="179.199219"/>
       <use xlink:href="#DejaVuSans-35" x="242.822266"/>
      </g>
     </g>
    </g>
    <g id="ytick_2">
     <g id="line2d_11">
      <path d="M 62.3 156.448 
L 231.485 156.448 
" clip-path="url(#pf455e43048)" style="fill: none; stroke-dasharray: 2.96,1.28; stroke-dashoffset: 0; stroke: #d3d3d3; stroke-width: 0.8"/>
     </g>
     <g id="line2d_12">
      <g>
       <use xlink:href="#m755b45a17f" x="62.3" y="156.448" style="stroke: #000000; stroke-width: 0.8"/>
      </g>
     </g>
     <g id="text_2">
      <!-- 0.00 -->
      <g transform="translate(33.034375 160.247219)scale(0.1 -0.1)">
       <use xlink:href="#DejaVuSans-30"/>
       <use xlink:href="#DejaVuSans-2e" x="63.623047"/>
       <use xlink:href="#DejaVuSans-30" x="95.410156"/>
       <use xlink:href="#DejaVuSans-30" x="159.033203"/>
      </g>
     </g>
    </g>
    <g id="ytick_3">
     <g id="line2d_13">
      <path d="M 62.3 133.568 
L 231.485 133.568 
" clip-path="url(#pf455e43048)" style="fill: none; stroke-dasharray: 2.96,1.28; stroke-dashoffset: 0; stroke: #d3d3d3; stroke-width: 0.8"/>
     </g>
     <g id="line2d_14">
      <g>
       <use xlink:href="#m755b45a17f" x="62.3" y="133.568" style="stroke: #000000; stroke-width: 0.8"/>
      </g>
     </g>
     <g id="text_3">
      <!-- 0.25 -->
      <g transform="translate(33.034375 137.367219)scale(0.1 -0.1)">
       <use xlink:href="#DejaVuSans-30"/>
       <use xlink:href="#DejaVuSans-2e" x="63.623047"/>
       <use xlink:href="#DejaVuSans-32" x="95.410156"/>
       <use xlink:href="#DejaVuSans-35" x="159.033203"/>
      </g>
     </g>
    </g>
    <g id="ytick_4">
     <g id="line2d_15">
      <path d="M 62.3 110.688 
L 231.485 110.688 
" clip-path="url(#pf455e43048)" style="fill: none; stroke-dasharray: 2.96,1.28; stroke-dashoffset: 0; stroke: #d3d3d3; stroke-width: 0.8"/>
     </g>
     <g id="line2d_16">
      <g>
       <use xlink:href="#m755b45a17f" x="62.3" y="110.688" style="stroke: #000000; stroke-width: 0.8"/>
      </g>
     </g>
     <g id="text_4">
      <!-- 0.50 -->
      <g transform="translate(33.034375 114.487219)scale(0.1 -0.1)">
       <use xlink:href="#DejaVuSans-30"/>
       <use xlink:href="#DejaVuSans-2e" x="63.623047"/>
       <use xlink:href="#DejaVuSans-35" x="95.410156"/>
       <use xlink:href="#DejaVuSans-30" x="159.033203"/>
      </g>
     </g>
    </g>
    <g id="ytick_5">
     <g id="line2d_17">
      <path d="M 62.3 87.808 
L 231.485 87.808 
" clip-path="url(#pf455e43048)" style="fill: none; stroke-dasharray: 2.96,1.28; stroke-dashoffset: 0; stroke: #d3d3d3; stroke-width: 0.8"/>
     </g>
     <g id="line2d_18">
      <g>
       <use xlink:href="#m755b45a17f" x="62.3" y="87.808" style="stroke: #000000; stroke-width: 0.8"/>
      </g>
     </g>
     <g id="text_5">
      <!-- 0.75 -->
      <g transform="translate(33.034375 91.607219)scale(0.1 -0.1)">
       <defs>
        <path id="DejaVuSans-37" d="M 525 4666 
L 3525 4666 
L 3525 4397 
L 1831 0 
L 1172 0 
L 2766 4134 
L 525 4134 
L 525 4666 
z
" transform="scale(0.015625)"/>
       </defs>
       <use xlink:href="#DejaVuSans-30"/>
       <use xlink:href="#DejaVuSans-2e" x="63.623047"/>
       <use xlink:href="#DejaVuSans-37" x="95.410156"/>
       <use xlink:href="#DejaVuSans-35" x="159.033203"/>
      </g>
     </g>
    </g>
    <g id="ytick_6">
     <g id="line2d_19">
      <path d="M 62.3 64.928 
L 231.485 64.928 
" clip-path="url(#pf455e43048)" style="fill: none; stroke-dasharray: 2.96,1.28; stroke-dashoffset: 0; stroke: #d3d3d3; stroke-width: 0.8"/>
     </g>
     <g id="line2d_20">
      <g>
       <use xlink:href="#m755b45a17f" x="62.3" y="64.928" style="stroke: #000000; stroke-width: 0.8"/>
      </g>
     </g>
     <g id="text_6">
      <!-- 1.00 -->
      <g transform="translate(33.034375 68.727219)scale(0.1 -0.1)">
       <defs>
        <path id="DejaVuSans-31" d="M 794 531 
L 1825 531 
L 1825 4091 
L 703 3866 
L 703 4441 
L 1819 4666 
L 2450 4666 
L 2450 531 
L 3481 531 
L 3481 0 
L 794 0 
L 794 531 
z
" transform="scale(0.015625)"/>
       </defs>
       <use xlink:href="#DejaVuSans-31"/>
       <use xlink:href="#DejaVuSans-2e" x="63.623047"/>
       <use xlink:href="#DejaVuSans-30" x="95.410156"/>
       <use xlink:href="#DejaVuSans-30" x="159.033203"/>
      </g>
     </g>
    </g>
    <g id="ytick_7">
     <g id="line2d_21">
      <path d="M 62.3 42.048 
L 231.485 42.048 
" clip-path="url(#pf455e43048)" style="fill: none; stroke-dasharray: 2.96,1.28; stroke-dashoffset: 0; stroke: #d3d3d3; stroke-width: 0.8"/>
     </g>
     <g id="line2d_22">
      <g>
       <use xlink:href="#m755b45a17f" x="62.3" y="42.048" style="stroke: #000000; stroke-width: 0.8"/>
      </g>
     </g>
     <g id="text_7">
      <!-- 1.25 -->
      <g transform="translate(33.034375 45.847219)scale(0.1 -0.1)">
       <use xlink:href="#DejaVuSans-31"/>
       <use xlink:href="#DejaVuSans-2e" x="63.623047"/>
       <use xlink:href="#DejaVuSans-32" x="95.410156"/>
       <use xlink:href="#DejaVuSans-35" x="159.033203"/>
      </g>
     </g>
    </g>
    <g id="text_8">
     <!-- CL -->
     <g transform="translate(18.575 114.677344)rotate(-90)scale(0.1 -0.1)">
      <defs>
       <path id="DejaVuSans-43" d="M 4122 4306 
L 4122 3641 
Q 3803 3938 3442 4084 
Q 3081 4231 2675 4231 
Q 1875 4231 1450 3742 
Q 1025 3253 1025 2328 
Q 1025 1406 1450 917 
Q 1875 428 2675 428 
Q 3081 428 3442 575 
Q 3803 722 4122 1019 
L 4122 359 
Q 3791 134 3420 21 
Q 3050 -91 2638 -91 
Q 1578 -91 968 557 
Q 359 1206 359 2328 
Q 359 3453 968 4101 
Q 1578 4750 2638 4750 
Q 3056 4750 3426 4639 
Q 3797 4528 4122 4306 
z
" transform="scale(0.015625)"/>
       <path id="DejaVuSans-4c" d="M 628 4666 
L 1259 4666 
L 1259 531 
L 3531 531 
L 3531 0 
L 628 0 
L 628 4666 
z
" transform="scale(0.015625)"/>
      </defs>
      <use xlink:href="#DejaVuSans-43"/>
      <use xlink:href="#DejaVuSans-4c" x="69.824219"/>
     </g>
    </g>
   </g>
   <g id="line2d_23">
    <path d="M 84.584081 178.270029 
L 87.242703 175.695571 
L 89.852986 173.320627 
L 92.511607 170.993274 
L 95.12189 168.398682 
L 97.780511 165.929472 
L 100.390794 163.183872 
L 103.049416 160.861094 
L 105.708037 158.292128 
L 108.31832 155.34976 
L 110.976941 152.62887 
L 113.587224 149.884186 
L 116.245846 147.321626 
L 118.856129 144.71056 
L 121.51475 141.846899 
L 124.125033 139.189158 
L 126.783654 136.738253 
L 129.393937 134.11895 
L 132.052559 131.37335 
L 134.662841 129.17687 
L 137.321463 126.472454 
L 139.931746 123.870541 
L 142.590367 121.226528 
L 145.20065 119.013574 
L 147.859271 116.59287 
L 150.421216 114.18864 
L 153.079837 111.864947 
L 155.69012 109.187987 
L 158.39708 106.748979 
L 160.959024 104.743776 
L 163.617646 102.366086 
L 166.227929 100.095475 
L 168.88655 98.061901 
L 171.496833 95.786714 
L 174.107116 93.729344 
L 176.66906 91.541101 
L 179.279343 88.935526 
L 181.937964 87.133498 
L 184.596586 85.467834 
L 187.206869 83.345485 
L 189.86549 81.779578 
L 192.427434 80.506534 
L 195.134394 79.196883 
L 197.696339 84.440064 
L 200.306621 85.163987 
L 202.916904 84.200282 
L 205.672203 84.131642 
L 208.282486 83.007776 
L 210.892769 83.342739 
L 213.503051 82.17952 
L 216.113334 82.506246 
" clip-path="url(#pf455e43048)" style="fill: none; stroke: #000000; stroke-width: 0.75; stroke-linecap: square"/>
   </g>
   <g id="line2d_24">
    <path d="M 81.635429 182.934596 
L 84.052357 179.98809 
L 86.469286 177.043645 
L 88.886214 174.103642 
L 91.303143 171.166814 
L 93.720071 168.234632 
L 96.137 165.307657 
L 98.553929 162.385531 
L 100.970857 159.469758 
L 103.387786 156.560847 
L 105.804714 153.658437 
L 108.221643 150.764002 
L 110.638571 147.878067 
L 113.0555 145.000255 
L 115.472429 142.132014 
L 117.889357 139.272941 
L 120.306286 136.423578 
L 122.723214 133.585365 
L 125.140143 130.756995 
L 127.557071 127.941669 
L 129.974 125.137256 
L 132.390929 122.345124 
L 134.807857 119.565765 
L 137.224786 116.800574 
L 139.641714 114.048301 
L 142.058643 111.310245 
L 144.475571 108.586175 
L 146.8925 105.877258 
L 149.309429 103.183277 
L 151.726357 100.505479 
L 154.143286 97.843537 
L 156.560214 95.197904 
L 158.977143 92.569019 
L 161.394071 89.956574 
L 163.811 87.361733 
L 166.227929 84.785261 
L 168.644857 82.225417 
L 171.061786 79.684963 
L 173.478714 77.163017 
L 175.895643 74.659486 
L 178.312571 72.175659 
L 180.7295 69.710803 
L 183.146429 67.265738 
L 185.563357 64.839958 
L 187.980286 62.434706 
L 190.397214 60.050323 
L 192.814143 57.685914 
L 195.231071 55.342439 
L 197.648 53.019621 
L 200.064929 50.717785 
L 202.481857 48.437828 
L 204.898786 46.178605 
L 207.315714 43.94101 
L 209.732643 41.725657 
L 212.149571 39.531658 
L 214.5665 37.359941 
L 216.983429 35.209596 
" clip-path="url(#pf455e43048)" style="fill: none; stroke-dasharray: 2.775,1.2; stroke-dashoffset: 0; stroke: #0000ff; stroke-width: 0.75"/>
   </g>
   <g id="line2d_25">
    <path d="M 81.635429 183.077391 
L 84.052357 180.141521 
L 86.469286 177.206749 
L 88.886214 174.274174 
L 91.303143 171.344436 
L 93.720071 168.41845 
L 96.137 165.497132 
L 98.553929 162.581304 
L 100.970857 159.6717 
L 103.387786 156.769327 
L 105.804714 153.874824 
L 108.221643 150.989107 
L 110.638571 148.112908 
L 113.0555 145.247142 
L 115.472429 142.392541 
L 117.889357 139.549839 
L 120.306286 136.719857 
L 122.723214 133.903329 
L 125.140143 131.101078 
L 127.557071 128.313745 
L 129.974 125.542245 
L 132.390929 122.787036 
L 134.807857 120.049123 
L 137.224786 117.329057 
L 139.641714 114.62757 
L 142.058643 111.945302 
L 144.475571 109.283076 
L 146.8925 106.641443 
L 149.309429 104.021134 
L 151.726357 101.422698 
L 154.143286 98.846868 
L 156.560214 96.294284 
L 158.977143 93.765586 
L 161.394071 91.261324 
L 163.811 88.782047 
L 166.227929 86.328488 
L 168.644857 83.901103 
L 171.061786 81.500625 
L 173.478714 79.12742 
L 175.895643 76.782128 
L 178.312571 74.465299 
L 180.7295 72.177482 
L 183.146429 69.919135 
L 185.563357 67.690806 
L 187.980286 65.492953 
L 190.397214 63.326034 
L 192.814143 61.190598 
L 195.231071 59.087102 
L 197.648 57.016004 
L 200.064929 54.97758 
L 202.481857 52.972559 
L 204.898786 51.001036 
L 207.315714 49.063649 
L 209.732643 47.160765 
L 212.149571 45.292659 
L 214.5665 43.459788 
L 216.983429 41.662426 
" clip-path="url(#pf455e43048)" style="fill: none; stroke-dasharray: 3.7,1.6; stroke-dashoffset: 0; stroke: #008000"/>
   </g>
   <g id="line2d_26">
    <path d="M 86.469286 178.097263 
L 88.886214 175.003727 
L 91.303143 171.907942 
L 93.720071 168.81911 
L 96.137 165.737074 
L 98.553929 162.667909 
L 100.970857 159.611243 
L 103.387786 156.573315 
L 105.804714 153.55321 
L 108.221643 150.554802 
L 110.638571 147.580214 
L 113.0555 144.630221 
L 115.472429 141.706388 
L 117.889357 138.81157 
L 120.306286 135.948679 
L 122.723214 133.109463 
L 125.140143 130.302171 
L 127.557071 127.528253 
L 129.974 124.783346 
L 132.390929 122.068422 
L 134.807857 119.384257 
L 137.224786 116.733723 
L 139.641714 114.113418 
L 142.058643 111.51782 
L 144.475571 108.958185 
L 146.8925 106.430185 
L 149.309429 103.929172 
L 151.726357 101.458671 
L 154.143286 99.024987 
L 156.560214 96.623735 
L 158.977143 94.253126 
L 161.394071 91.919668 
L 163.811 89.629774 
L 166.227929 87.378356 
L 168.644857 85.170772 
L 171.061786 83.010344 
L 173.478714 80.904017 
L 175.895643 78.861175 
L 178.312571 76.880845 
L 180.7295 74.964527 
L 183.146429 73.128782 
L 185.563357 71.387008 
L 187.980286 69.745919 
L 190.397214 68.210266 
L 192.814143 66.785661 
L 195.231071 65.505211 
L 197.648 64.380903 
L 200.064929 63.407921 
L 202.481857 62.631041 
L 204.898786 62.055082 
L 207.315714 61.734379 
L 209.732643 61.718851 
L 212.149571 61.869175 
L 214.5665 62.410249 
L 216.983429 63.324158 
" clip-path="url(#pf455e43048)" style="fill: none; stroke-dasharray: 3.7,1.6; stroke-dashoffset: 0; stroke: #ff0000"/>
   </g>
   <g id="patch_3">
    <path d="M 62.3 188.48 
L 62.3 28.32 
" style="fill: none; stroke: #000000; stroke-width: 0.8; stroke-linejoin: miter; stroke-linecap: square"/>
   </g>
   <g id="patch_4">
    <path d="M 231.485 188.48 
L 231.485 28.32 
" style="fill: none; stroke: #000000; stroke-width: 0.8; stroke-linejoin: miter; stroke-linecap: square"/>
   </g>
   <g id="patch_5">
    <path d="M 62.3 188.48 
L 231.485 188.48 
" style="fill: none; stroke: #000000; stroke-width: 0.8; stroke-linejoin: miter; stroke-linecap: square"/>
   </g>
   <g id="patch_6">
    <path d="M 62.3 28.32 
L 231.485 28.32 
" style="fill: none; stroke: #000000; stroke-width: 0.8; stroke-linejoin: miter; stroke-linecap: square"/>
   </g>
   <g id="text_9">
    <!-- $\beta$=0° -->
    <g transform="translate(131.1725 22.32)scale(0.12 -0.12)">
     <defs>
      <path id="DejaVuSans-Oblique-3b2" d="M 872 216 
L 572 -1331 
L -6 -1331 
L 928 3478 
Q 1206 4903 2538 4903 
Q 3888 4903 3659 3700 
Q 3503 2844 2894 2531 
Q 3713 2250 3553 1416 
Q 3272 -69 1759 -66 
Q 1097 -63 872 216 
z
M 1019 966 
Q 1259 422 1875 425 
Q 2775 425 2966 1406 
Q 3138 2288 1675 2219 
L 1778 2750 
Q 2909 2731 3106 3750 
Q 3241 4438 2509 4434 
Q 1691 4434 1503 3459 
L 1019 966 
z
" transform="scale(0.015625)"/>
      <path id="DejaVuSans-3d" d="M 678 2906 
L 4684 2906 
L 4684 2381 
L 678 2381 
L 678 2906 
z
M 678 1631 
L 4684 1631 
L 4684 1100 
L 678 1100 
L 678 1631 
z
" transform="scale(0.015625)"/>
      <path id="DejaVuSans-b0" d="M 1600 4347 
Q 1350 4347 1178 4173 
Q 1006 4000 1006 3750 
Q 1006 3503 1178 3333 
Q 1350 3163 1600 3163 
Q 1850 3163 2022 3333 
Q 2194 3503 2194 3750 
Q 2194 3997 2020 4172 
Q 1847 4347 1600 4347 
z
M 1600 4750 
Q 1800 4750 1984 4673 
Q 2169 4597 2303 4453 
Q 2447 4313 2519 4134 
Q 2591 3956 2591 3750 
Q 2591 3338 2302 3052 
Q 2013 2766 1594 2766 
Q 1172 2766 890 3047 
Q 609 3328 609 3750 
Q 609 4169 896 4459 
Q 1184 4750 1600 4750 
z
" transform="scale(0.015625)"/>
     </defs>
     <use xlink:href="#DejaVuSans-Oblique-3b2" transform="translate(0 0.390625)"/>
     <use xlink:href="#DejaVuSans-3d" transform="translate(63.818359 0.390625)"/>
     <use xlink:href="#DejaVuSans-30" transform="translate(147.607422 0.390625)"/>
     <use xlink:href="#DejaVuSans-b0" transform="translate(211.230469 0.390625)"/>
    </g>
   </g>
   <g id="legend_1">
    <g id="patch_7">
     <path d="M 69.3 95.0325 
L 133.839063 95.0325 
Q 135.839063 95.0325 135.839063 93.0325 
L 135.839063 35.32 
Q 135.839063 33.32 133.839063 33.32 
L 69.3 33.32 
Q 67.3 33.32 67.3 35.32 
L 67.3 93.0325 
Q 67.3 95.0325 69.3 95.0325 
z
" style="fill: #ffffff; opacity: 0.8; stroke: #cccccc; stroke-linejoin: miter"/>
    </g>
    <g id="line2d_27">
     <path d="M 71.3 41.418438 
L 81.3 41.418438 
L 91.3 41.418438 
" style="fill: none; stroke: #000000; stroke-width: 0.75; stroke-linecap: square"/>
    </g>
    <g id="text_10">
     <!-- Tunnel -->
     <g transform="translate(99.3 44.918438)scale(0.1 -0.1)">
      <defs>
       <path id="DejaVuSans-54" d="M -19 4666 
L 3928 4666 
L 3928 4134 
L 2272 4134 
L 2272 0 
L 1638 0 
L 1638 4134 
L -19 4134 
L -19 4666 
z
" transform="scale(0.015625)"/>
       <path id="DejaVuSans-75" d="M 544 1381 
L 544 3500 
L 1119 3500 
L 1119 1403 
Q 1119 906 1312 657 
Q 1506 409 1894 409 
Q 2359 409 2629 706 
Q 2900 1003 2900 1516 
L 2900 3500 
L 3475 3500 
L 3475 0 
L 2900 0 
L 2900 538 
Q 2691 219 2414 64 
Q 2138 -91 1772 -91 
Q 1169 -91 856 284 
Q 544 659 544 1381 
z
M 1991 3584 
L 1991 3584 
z
" transform="scale(0.015625)"/>
       <path id="DejaVuSans-6e" d="M 3513 2113 
L 3513 0 
L 2938 0 
L 2938 2094 
Q 2938 2591 2744 2837 
Q 2550 3084 2163 3084 
Q 1697 3084 1428 2787 
Q 1159 2491 1159 1978 
L 1159 0 
L 581 0 
L 581 3500 
L 1159 3500 
L 1159 2956 
Q 1366 3272 1645 3428 
Q 1925 3584 2291 3584 
Q 2894 3584 3203 3211 
Q 3513 2838 3513 2113 
z
" transform="scale(0.015625)"/>
       <path id="DejaVuSans-65" d="M 3597 1894 
L 3597 1613 
L 953 1613 
Q 991 1019 1311 708 
Q 1631 397 2203 397 
Q 2534 397 2845 478 
Q 3156 559 3463 722 
L 3463 178 
Q 3153 47 2828 -22 
Q 2503 -91 2169 -91 
Q 1331 -91 842 396 
Q 353 884 353 1716 
Q 353 2575 817 3079 
Q 1281 3584 2069 3584 
Q 2775 3584 3186 3129 
Q 3597 2675 3597 1894 
z
M 3022 2063 
Q 3016 2534 2758 2815 
Q 2500 3097 2075 3097 
Q 1594 3097 1305 2825 
Q 1016 2553 972 2059 
L 3022 2063 
z
" transform="scale(0.015625)"/>
       <path id="DejaVuSans-6c" d="M 603 4863 
L 1178 4863 
L 1178 0 
L 603 0 
L 603 4863 
z
" transform="scale(0.015625)"/>
      </defs>
      <use xlink:href="#DejaVuSans-54"/>
      <use xlink:href="#DejaVuSans-75" x="45.958984"/>
      <use xlink:href="#DejaVuSans-6e" x="109.337891"/>
      <use xlink:href="#DejaVuSans-6e" x="172.716797"/>
      <use xlink:href="#DejaVuSans-65" x="236.095703"/>
      <use xlink:href="#DejaVuSans-6c" x="297.619141"/>
     </g>
    </g>
    <g id="line2d_28">
     <path d="M 71.3 56.096563 
L 81.3 56.096563 
L 91.3 56.096563 
" style="fill: none; stroke-dasharray: 2.775,1.2; stroke-dashoffset: 0; stroke: #0000ff; stroke-width: 0.75"/>
    </g>
    <g id="text_11">
     <!-- AVL -->
     <g transform="translate(99.3 59.596563)scale(0.1 -0.1)">
      <defs>
       <path id="DejaVuSans-41" d="M 2188 4044 
L 1331 1722 
L 3047 1722 
L 2188 4044 
z
M 1831 4666 
L 2547 4666 
L 4325 0 
L 3669 0 
L 3244 1197 
L 1141 1197 
L 716 0 
L 50 0 
L 1831 4666 
z
" transform="scale(0.015625)"/>
       <path id="DejaVuSans-56" d="M 1831 0 
L 50 4666 
L 709 4666 
L 2188 738 
L 3669 4666 
L 4325 4666 
L 2547 0 
L 1831 0 
z
" transform="scale(0.015625)"/>
      </defs>
      <use xlink:href="#DejaVuSans-41"/>
      <use xlink:href="#DejaVuSans-56" x="62.033203"/>
      <use xlink:href="#DejaVuSans-4c" x="130.441406"/>
     </g>
    </g>
    <g id="line2d_29">
     <path d="M 71.3 70.774688 
L 81.3 70.774688 
L 91.3 70.774688 
" style="fill: none; stroke-dasharray: 3.7,1.6; stroke-dashoffset: 0; stroke: #008000"/>
    </g>
    <g id="text_12">
     <!-- XFLR5 -->
     <g transform="translate(99.3 74.274688)scale(0.1 -0.1)">
      <defs>
       <path id="DejaVuSans-58" d="M 403 4666 
L 1081 4666 
L 2241 2931 
L 3406 4666 
L 4084 4666 
L 2584 2425 
L 4184 0 
L 3506 0 
L 2194 1984 
L 872 0 
L 191 0 
L 1856 2491 
L 403 4666 
z
" transform="scale(0.015625)"/>
       <path id="DejaVuSans-46" d="M 628 4666 
L 3309 4666 
L 3309 4134 
L 1259 4134 
L 1259 2759 
L 3109 2759 
L 3109 2228 
L 1259 2228 
L 1259 0 
L 628 0 
L 628 4666 
z
" transform="scale(0.015625)"/>
       <path id="DejaVuSans-52" d="M 2841 2188 
Q 3044 2119 3236 1894 
Q 3428 1669 3622 1275 
L 4263 0 
L 3584 0 
L 2988 1197 
Q 2756 1666 2539 1819 
Q 2322 1972 1947 1972 
L 1259 1972 
L 1259 0 
L 628 0 
L 628 4666 
L 2053 4666 
Q 2853 4666 3247 4331 
Q 3641 3997 3641 3322 
Q 3641 2881 3436 2590 
Q 3231 2300 2841 2188 
z
M 1259 4147 
L 1259 2491 
L 2053 2491 
Q 2509 2491 2742 2702 
Q 2975 2913 2975 3322 
Q 2975 3731 2742 3939 
Q 2509 4147 2053 4147 
L 1259 4147 
z
" transform="scale(0.015625)"/>
      </defs>
      <use xlink:href="#DejaVuSans-58"/>
      <use xlink:href="#DejaVuSans-46" x="68.505859"/>
      <use xlink:href="#DejaVuSans-4c" x="126.025391"/>
      <use xlink:href="#DejaVuSans-52" x="181.738281"/>
      <use xlink:href="#DejaVuSans-35" x="251.220703"/>
     </g>
    </g>
    <g id="line2d_30">
     <path d="M 71.3 85.452813 
L 81.3 85.452813 
L 91.3 85.452813 
" style="fill: none; stroke-dasharray: 3.7,1.6; stroke-dashoffset: 0; stroke: #ff0000"/>
    </g>
    <g id="text_13">
     <!-- NLLT -->
     <g transform="translate(99.3 88.952813)scale(0.1 -0.1)">
      <defs>
       <path id="DejaVuSans-4e" d="M 628 4666 
L 1478 4666 
L 3547 763 
L 3547 4666 
L 4159 4666 
L 4159 0 
L 3309 0 
L 1241 3903 
L 1241 0 
L 628 0 
L 628 4666 
z
" transform="scale(0.015625)"/>
      </defs>
      <use xlink:href="#DejaVuSans-4e"/>
      <use xlink:href="#DejaVuSans-4c" x="74.804688"/>
      <use xlink:href="#DejaVuSans-4c" x="130.517578"/>
      <use xlink:href="#DejaVuSans-54" x="172.480469"/>
     </g>
    </g>
   </g>
  </g>
  <g id="axes_2">
   <g id="patch_8">
    <path d="M 252.015 188.48 
L 421.2 188.48 
L 421.2 28.32 
L 252.015 28.32 
z
" style="fill: #ffffff"/>
   </g>
   <g id="matplotlib.axis_3">
    <g id="xtick_5">
     <g id="line2d_31">
      <path d="M 252.015 188.48 
L 252.015 28.32 
" clip-path="url(#p5c9171a303)" style="fill: none; stroke-dasharray: 2.96,1.28; stroke-dashoffset: 0; stroke: #d3d3d3; stroke-width: 0.8"/>
     </g>
     <g id="line2d_32">
      <g>
       <use xlink:href="#m9182272120" x="252.015" y="188.48" style="stroke: #000000; stroke-width: 0.8"/>
      </g>
     </g>
    </g>
    <g id="xtick_6">
     <g id="line2d_33">
      <path d="M 300.353571 188.48 
L 300.353571 28.32 
" clip-path="url(#p5c9171a303)" style="fill: none; stroke-dasharray: 2.96,1.28; stroke-dashoffset: 0; stroke: #d3d3d3; stroke-width: 0.8"/>
     </g>
     <g id="line2d_34">
      <g>
       <use xlink:href="#m9182272120" x="300.353571" y="188.48" style="stroke: #000000; stroke-width: 0.8"/>
      </g>
     </g>
    </g>
    <g id="xtick_7">
     <g id="line2d_35">
      <path d="M 348.692143 188.48 
L 348.692143 28.32 
" clip-path="url(#p5c9171a303)" style="fill: none; stroke-dasharray: 2.96,1.28; stroke-dashoffset: 0; stroke: #d3d3d3; stroke-width: 0.8"/>
     </g>
     <g id="line2d_36">
      <g>
       <use xlink:href="#m9182272120" x="348.692143" y="188.48" style="stroke: #000000; stroke-width: 0.8"/>
      </g>
     </g>
    </g>
    <g id="xtick_8">
     <g id="line2d_37">
      <path d="M 397.030714 188.48 
L 397.030714 28.32 
" clip-path="url(#p5c9171a303)" style="fill: none; stroke-dasharray: 2.96,1.28; stroke-dashoffset: 0; stroke: #d3d3d3; stroke-width: 0.8"/>
     </g>
     <g id="line2d_38">
      <g>
       <use xlink:href="#m9182272120" x="397.030714" y="188.48" style="stroke: #000000; stroke-width: 0.8"/>
      </g>
     </g>
    </g>
   </g>
   <g id="matplotlib.axis_4">
    <g id="ytick_8">
     <g id="line2d_39">
      <path d="M 252.015 179.328 
L 421.2 179.328 
" clip-path="url(#p5c9171a303)" style="fill: none; stroke-dasharray: 2.96,1.28; stroke-dashoffset: 0; stroke: #d3d3d3; stroke-width: 0.8"/>
     </g>
     <g id="line2d_40">
      <g>
       <use xlink:href="#m755b45a17f" x="252.015" y="179.328" style="stroke: #000000; stroke-width: 0.8"/>
      </g>
     </g>
    </g>
    <g id="ytick_9">
     <g id="line2d_41">
      <path d="M 252.015 156.448 
L 421.2 156.448 
" clip-path="url(#p5c9171a303)" style="fill: none; stroke-dasharray: 2.96,1.28; stroke-dashoffset: 0; stroke: #d3d3d3; stroke-width: 0.8"/>
     </g>
     <g id="line2d_42">
      <g>
       <use xlink:href="#m755b45a17f" x="252.015" y="156.448" style="stroke: #000000; stroke-width: 0.8"/>
      </g>
     </g>
    </g>
    <g id="ytick_10">
     <g id="line2d_43">
      <path d="M 252.015 133.568 
L 421.2 133.568 
" clip-path="url(#p5c9171a303)" style="fill: none; stroke-dasharray: 2.96,1.28; stroke-dashoffset: 0; stroke: #d3d3d3; stroke-width: 0.8"/>
     </g>
     <g id="line2d_44">
      <g>
       <use xlink:href="#m755b45a17f" x="252.015" y="133.568" style="stroke: #000000; stroke-width: 0.8"/>
      </g>
     </g>
    </g>
    <g id="ytick_11">
     <g id="line2d_45">
      <path d="M 252.015 110.688 
L 421.2 110.688 
" clip-path="url(#p5c9171a303)" style="fill: none; stroke-dasharray: 2.96,1.28; stroke-dashoffset: 0; stroke: #d3d3d3; stroke-width: 0.8"/>
     </g>
     <g id="line2d_46">
      <g>
       <use xlink:href="#m755b45a17f" x="252.015" y="110.688" style="stroke: #000000; stroke-width: 0.8"/>
      </g>
     </g>
    </g>
    <g id="ytick_12">
     <g id="line2d_47">
      <path d="M 252.015 87.808 
L 421.2 87.808 
" clip-path="url(#p5c9171a303)" style="fill: none; stroke-dasharray: 2.96,1.28; stroke-dashoffset: 0; stroke: #d3d3d3; stroke-width: 0.8"/>
     </g>
     <g id="line2d_48">
      <g>
       <use xlink:href="#m755b45a17f" x="252.015" y="87.808" style="stroke: #000000; stroke-width: 0.8"/>
      </g>
     </g>
    </g>
    <g id="ytick_13">
     <g id="line2d_49">
      <path d="M 252.015 64.928 
L 421.2 64.928 
" clip-path="url(#p5c9171a303)" style="fill: none; stroke-dasharray: 2.96,1.28; stroke-dashoffset: 0; stroke: #d3d3d3; stroke-width: 0.8"/>
     </g>
     <g id="line2d_50">
      <g>
       <use xlink:href="#m755b45a17f" x="252.015" y="64.928" style="stroke: #000000; stroke-width: 0.8"/>
      </g>
     </g>
    </g>
    <g id="ytick_14">
     <g id="line2d_51">
      <path d="M 252.015 42.048 
L 421.2 42.048 
" clip-path="url(#p5c9171a303)" style="fill: none; stroke-dasharray: 2.96,1.28; stroke-dashoffset: 0; stroke: #d3d3d3; stroke-width: 0.8"/>
     </g>
     <g id="line2d_52">
      <g>
       <use xlink:href="#m755b45a17f" x="252.015" y="42.048" style="stroke: #000000; stroke-width: 0.8"/>
      </g>
     </g>
    </g>
   </g>
   <g id="line2d_53">
    <path d="M 274.34742 178.149222 
L 276.957703 175.588493 
L 279.616324 173.143994 
L 282.226607 170.672954 
L 284.83689 168.078362 
L 287.495511 165.638438 
L 290.105794 163.031034 
L 292.764416 160.624058 
L 295.423037 158.081632 
L 298.03332 155.32871 
L 300.691941 152.78537 
L 303.302224 150.059904 
L 305.960846 147.379283 
L 308.571129 144.93936 
L 311.22975 142.098579 
L 313.840033 139.408806 
L 316.450316 136.916717 
L 319.108937 134.376122 
L 321.767559 131.657978 
L 324.377841 129.554848 
L 326.988124 126.905344 
L 329.646746 124.378477 
L 332.257029 122.147219 
L 334.91565 119.529747 
L 337.525933 116.997389 
L 340.136216 114.639834 
L 342.794837 112.286854 
L 345.453459 109.708736 
L 348.015403 107.607437 
L 350.674024 105.505222 
L 353.284307 102.890496 
L 355.89459 100.465216 
L 358.504873 98.396864 
L 361.115156 96.116186 
L 363.773777 93.737581 
L 366.335721 92.318106 
L 368.994343 90.356832 
L 371.652964 88.649984 
L 374.214909 86.839718 
L 376.921869 84.727437 
L 379.58049 83.037062 
L 382.142434 81.44736 
L 384.752717 84.342138 
L 387.411339 82.989472 
L 389.973283 82.138336 
L 392.631904 81.415328 
L 395.290526 80.793907 
L 397.900809 80.550464 
L 400.462753 80.192621 
L 403.121374 83.817728 
L 405.828334 83.740851 
" clip-path="url(#p5c9171a303)" style="fill: none; stroke: #000000; stroke-width: 0.75; stroke-linecap: square"/>
   </g>
   <g id="line2d_54">
    <path d="M 271.350429 182.6785 
L 273.767357 179.751413 
L 276.184286 176.827211 
L 278.601214 173.90647 
L 281.018143 170.989831 
L 283.435071 168.076934 
L 285.852 165.169246 
L 288.268929 162.266406 
L 290.685857 159.370797 
L 293.102786 156.481139 
L 295.519714 153.597983 
L 297.936643 150.722789 
L 300.353571 147.856102 
L 302.7705 144.997548 
L 305.187429 142.147661 
L 307.604357 139.307867 
L 310.021286 136.477818 
L 312.438214 133.658019 
L 314.855143 130.848987 
L 317.272071 128.051232 
L 319.689 125.266171 
L 322.105929 122.492545 
L 324.522857 119.732612 
L 326.939786 116.985115 
L 329.356714 114.250552 
L 331.773643 111.531228 
L 334.190571 108.825005 
L 336.6075 106.133952 
L 339.024429 103.458756 
L 341.441357 100.798074 
L 343.858286 98.154175 
L 346.275214 95.52585 
L 348.692143 92.914144 
L 351.109071 90.319054 
L 353.526 87.741765 
L 355.942929 85.181797 
L 358.359857 82.639559 
L 360.776786 80.11584 
L 363.193714 77.609967 
L 365.610643 75.123222 
L 368.027571 72.65553 
L 370.4445 70.207067 
L 372.861429 67.7782 
L 375.278357 65.368882 
L 377.695286 62.980126 
L 380.112214 60.610772 
L 382.529143 58.262316 
L 384.946071 55.93396 
L 387.363 53.626303 
L 389.779929 51.339955 
L 392.196857 49.074371 
L 394.613786 46.830724 
L 397.030714 44.608198 
L 399.447643 42.406793 
L 401.864571 40.227114 
L 404.2815 38.069773 
L 406.698429 35.933854 
" clip-path="url(#p5c9171a303)" style="fill: none; stroke-dasharray: 2.775,1.2; stroke-dashoffset: 0; stroke: #0000ff; stroke-width: 0.75"/>
   </g>
   <g id="line2d_55">
    <path d="M 271.350429 183.095329 
L 273.767357 180.176756 
L 276.184286 177.259282 
L 278.601214 174.343912 
L 281.018143 171.431288 
L 283.435071 168.522417 
L 285.852 165.618121 
L 288.268929 162.719225 
L 290.685857 159.826552 
L 293.102786 156.940927 
L 295.519714 154.063172 
L 297.936643 151.194111 
L 300.353571 148.334477 
L 302.7705 145.485094 
L 305.187429 142.646876 
L 307.604357 139.820372 
L 310.021286 137.006589 
L 312.438214 134.206077 
L 314.855143 131.419751 
L 317.272071 128.648251 
L 319.689 125.892309 
L 322.105929 123.152749 
L 324.522857 120.430212 
L 326.939786 117.72543 
L 329.356714 115.039044 
L 331.773643 112.371876 
L 334.190571 109.724477 
L 336.6075 107.097487 
L 339.024429 104.49173 
L 341.441357 101.907754 
L 343.858286 99.346201 
L 346.275214 96.807711 
L 348.692143 94.292924 
L 351.109071 91.80239 
L 353.526 89.33675 
L 355.942929 86.896552 
L 358.359857 84.482529 
L 360.776786 82.095047 
L 363.193714 79.734746 
L 365.610643 77.402176 
L 368.027571 75.097885 
L 370.4445 72.822332 
L 372.861429 70.576157 
L 375.278357 68.359817 
L 377.695286 66.173679 
L 380.112214 64.018383 
L 382.529143 61.894295 
L 384.946071 59.801965 
L 387.363 57.74185 
L 389.779929 55.714224 
L 392.196857 53.719729 
L 394.613786 51.758638 
L 397.030714 49.83141 
L 399.447643 47.93841 
L 401.864571 46.080005 
L 404.2815 44.256652 
L 406.698429 42.468626 
" clip-path="url(#p5c9171a303)" style="fill: none; stroke-dasharray: 3.7,1.6; stroke-dashoffset: 0; stroke: #008000"/>
   </g>
   <g id="line2d_56">
    <path d="M 276.184286 178.393459 
L 278.601214 175.338981 
L 281.018143 172.285122 
L 283.435071 169.236007 
L 285.852 166.192056 
L 288.268929 163.157458 
L 290.685857 160.136681 
L 293.102786 157.129808 
L 295.519714 154.140021 
L 297.936643 151.169772 
L 300.353571 148.221841 
L 302.7705 145.297587 
L 305.187429 142.398424 
L 307.604357 139.522081 
L 310.021286 136.675793 
L 312.438214 133.858923 
L 314.855143 131.06965 
L 317.272071 128.306297 
L 319.689 125.576927 
L 322.105929 122.880127 
L 324.522857 120.206694 
L 326.939786 117.566474 
L 329.356714 114.959073 
L 331.773643 112.383469 
L 334.190571 109.8347 
L 336.6075 107.320678 
L 339.024429 104.840017 
L 341.441357 102.390132 
L 343.858286 99.975074 
L 346.275214 97.594704 
L 348.692143 95.256844 
L 351.109071 92.954056 
L 353.526 90.692764 
L 355.942929 88.479018 
L 358.359857 86.315018 
L 360.776786 84.203319 
L 363.193714 82.151371 
L 365.610643 80.159521 
L 368.027571 78.243068 
L 370.4445 76.413514 
L 372.861429 74.656921 
L 375.278357 72.999393 
L 377.695286 71.451518 
L 380.112214 70.027023 
L 382.529143 68.730583 
L 384.946071 67.580298 
L 387.363 66.604215 
L 389.779929 65.794895 
L 392.196857 65.19401 
L 394.613786 64.805552 
L 397.030714 64.674209 
L 399.447643 64.862893 
L 401.864571 65.173229 
L 404.2815 65.914149 
L 406.698429 67.145747 
" clip-path="url(#p5c9171a303)" style="fill: none; stroke-dasharray: 3.7,1.6; stroke-dashoffset: 0; stroke: #ff0000"/>
   </g>
   <g id="patch_9">
    <path d="M 252.015 188.48 
L 252.015 28.32 
" style="fill: none; stroke: #000000; stroke-width: 0.8; stroke-linejoin: miter; stroke-linecap: square"/>
   </g>
   <g id="patch_10">
    <path d="M 421.2 188.48 
L 421.2 28.32 
" style="fill: none; stroke: #000000; stroke-width: 0.8; stroke-linejoin: miter; stroke-linecap: square"/>
   </g>
   <g id="patch_11">
    <path d="M 252.015 188.48 
L 421.2 188.48 
" style="fill: none; stroke: #000000; stroke-width: 0.8; stroke-linejoin: miter; stroke-linecap: square"/>
   </g>
   <g id="patch_12">
    <path d="M 252.015 28.32 
L 421.2 28.32 
" style="fill: none; stroke: #000000; stroke-width: 0.8; stroke-linejoin: miter; stroke-linecap: square"/>
   </g>
   <g id="text_14">
    <!-- $\beta$=5° -->
    <g transform="translate(320.8875 22.32)scale(0.12 -0.12)">
     <use xlink:href="#DejaVuSans-Oblique-3b2" transform="translate(0 0.390625)"/>
     <use xlink:href="#DejaVuSans-3d" transform="translate(63.818359 0.390625)"/>
     <use xlink:href="#DejaVuSans-35" transform="translate(147.607422 0.390625)"/>
     <use xlink:href="#DejaVuSans-b0" transform="translate(211.230469 0.390625)"/>
    </g>
   </g>
  </g>
  <g id="axes_3">
   <g id="patch_13">
    <path d="M 62.3 387.16 
L 231.485 387.16 
L 231.485 227 
L 62.3 227 
z
" style="fill: #ffffff"/>
   </g>
   <g id="matplotlib.axis_5">
    <g id="xtick_9">
     <g id="line2d_57">
      <path d="M 62.3 387.16 
L 62.3 227 
" clip-path="url(#pf30838fe65)" style="fill: none; stroke-dasharray: 2.96,1.28; stroke-dashoffset: 0; stroke: #d3d3d3; stroke-width: 0.8"/>
     </g>
     <g id="line2d_58">
      <g>
       <use xlink:href="#m9182272120" x="62.3" y="387.16" style="stroke: #000000; stroke-width: 0.8"/>
      </g>
     </g>
     <g id="text_15">
      <!-- −10 -->
      <g transform="translate(51.747656 401.758437)scale(0.1 -0.1)">
       <use xlink:href="#DejaVuSans-2212"/>
       <use xlink:href="#DejaVuSans-31" x="83.789062"/>
       <use xlink:href="#DejaVuSans-30" x="147.412109"/>
      </g>
     </g>
    </g>
    <g id="xtick_10">
     <g id="line2d_59">
      <path d="M 110.638571 387.16 
L 110.638571 227 
" clip-path="url(#pf30838fe65)" style="fill: none; stroke-dasharray: 2.96,1.28; stroke-dashoffset: 0; stroke: #d3d3d3; stroke-width: 0.8"/>
     </g>
     <g id="line2d_60">
      <g>
       <use xlink:href="#m9182272120" x="110.638571" y="387.16" style="stroke: #000000; stroke-width: 0.8"/>
      </g>
     </g>
     <g id="text_16">
      <!-- 0 -->
      <g transform="translate(107.457321 401.758437)scale(0.1 -0.1)">
       <use xlink:href="#DejaVuSans-30"/>
      </g>
     </g>
    </g>
    <g id="xtick_11">
     <g id="line2d_61">
      <path d="M 158.977143 387.16 
L 158.977143 227 
" clip-path="url(#pf30838fe65)" style="fill: none; stroke-dasharray: 2.96,1.28; stroke-dashoffset: 0; stroke: #d3d3d3; stroke-width: 0.8"/>
     </g>
     <g id="line2d_62">
      <g>
       <use xlink:href="#m9182272120" x="158.977143" y="387.16" style="stroke: #000000; stroke-width: 0.8"/>
      </g>
     </g>
     <g id="text_17">
      <!-- 10 -->
      <g transform="translate(152.614643 401.758437)scale(0.1 -0.1)">
       <use xlink:href="#DejaVuSans-31"/>
       <use xlink:href="#DejaVuSans-30" x="63.623047"/>
      </g>
     </g>
    </g>
    <g id="xtick_12">
     <g id="line2d_63">
      <path d="M 207.315714 387.16 
L 207.315714 227 
" clip-path="url(#pf30838fe65)" style="fill: none; stroke-dasharray: 2.96,1.28; stroke-dashoffset: 0; stroke: #d3d3d3; stroke-width: 0.8"/>
     </g>
     <g id="line2d_64">
      <g>
       <use xlink:href="#m9182272120" x="207.315714" y="387.16" style="stroke: #000000; stroke-width: 0.8"/>
      </g>
     </g>
     <g id="text_18">
      <!-- 20 -->
      <g transform="translate(200.953214 401.758437)scale(0.1 -0.1)">
       <use xlink:href="#DejaVuSans-32"/>
       <use xlink:href="#DejaVuSans-30" x="63.623047"/>
      </g>
     </g>
    </g>
    <g id="text_19">
     <!-- $\alpha$ [deg] -->
     <g transform="translate(128.6425 415.438125)scale(0.1 -0.1)">
      <defs>
       <path id="DejaVuSans-Oblique-3b1" d="M 2619 1628 
L 2622 2350 
Q 2625 3088 2069 3091 
Q 1653 3094 1394 2747 
Q 1069 2319 959 1747 
Q 825 1059 994 731 
Q 1169 397 1547 397 
Q 1966 397 2319 1063 
L 2619 1628 
z
M 2166 3578 
Q 3141 3594 3128 2584 
Q 3128 2584 3616 3500 
L 4128 3500 
L 3119 1603 
L 3109 919 
Q 3109 766 3194 638 
Q 3291 488 3391 488 
L 3669 488 
L 3575 0 
L 3228 0 
Q 2934 0 2722 263 
Q 2622 394 2619 669 
Q 2416 334 2066 50 
Q 1900 -81 1453 -78 
Q 722 -72 456 397 
Q 184 884 353 1747 
Q 534 2675 1009 3097 
Q 1544 3569 2166 3578 
z
" transform="scale(0.015625)"/>
       <path id="DejaVuSans-20" transform="scale(0.015625)"/>
       <path id="DejaVuSans-5b" d="M 550 4863 
L 1875 4863 
L 1875 4416 
L 1125 4416 
L 1125 -397 
L 1875 -397 
L 1875 -844 
L 550 -844 
L 550 4863 
z
" transform="scale(0.015625)"/>
       <path id="DejaVuSans-64" d="M 2906 2969 
L 2906 4863 
L 3481 4863 
L 3481 0 
L 2906 0 
L 2906 525 
Q 2725 213 2448 61 
Q 2172 -91 1784 -91 
Q 1150 -91 751 415 
Q 353 922 353 1747 
Q 353 2572 751 3078 
Q 1150 3584 1784 3584 
Q 2172 3584 2448 3432 
Q 2725 3281 2906 2969 
z
M 947 1747 
Q 947 1113 1208 752 
Q 1469 391 1925 391 
Q 2381 391 2643 752 
Q 2906 1113 2906 1747 
Q 2906 2381 2643 2742 
Q 2381 3103 1925 3103 
Q 1469 3103 1208 2742 
Q 947 2381 947 1747 
z
" transform="scale(0.015625)"/>
       <path id="DejaVuSans-67" d="M 2906 1791 
Q 2906 2416 2648 2759 
Q 2391 3103 1925 3103 
Q 1463 3103 1205 2759 
Q 947 2416 947 1791 
Q 947 1169 1205 825 
Q 1463 481 1925 481 
Q 2391 481 2648 825 
Q 2906 1169 2906 1791 
z
M 3481 434 
Q 3481 -459 3084 -895 
Q 2688 -1331 1869 -1331 
Q 1566 -1331 1297 -1286 
Q 1028 -1241 775 -1147 
L 775 -588 
Q 1028 -725 1275 -790 
Q 1522 -856 1778 -856 
Q 2344 -856 2625 -561 
Q 2906 -266 2906 331 
L 2906 616 
Q 2728 306 2450 153 
Q 2172 0 1784 0 
Q 1141 0 747 490 
Q 353 981 353 1791 
Q 353 2603 747 3093 
Q 1141 3584 1784 3584 
Q 2172 3584 2450 3431 
Q 2728 3278 2906 2969 
L 2906 3500 
L 3481 3500 
L 3481 434 
z
" transform="scale(0.015625)"/>
       <path id="DejaVuSans-5d" d="M 1947 4863 
L 1947 -844 
L 622 -844 
L 622 -397 
L 1369 -397 
L 1369 4416 
L 622 4416 
L 622 4863 
L 1947 4863 
z
" transform="scale(0.015625)"/>
      </defs>
      <use xlink:href="#DejaVuSans-Oblique-3b1" transform="translate(0 0.015625)"/>
      <use xlink:href="#DejaVuSans-20" transform="translate(65.917969 0.015625)"/>
      <use xlink:href="#DejaVuSans-5b" transform="translate(97.705078 0.015625)"/>
      <use xlink:href="#DejaVuSans-64" transform="translate(136.71875 0.015625)"/>
      <use xlink:href="#DejaVuSans-65" transform="translate(200.195312 0.015625)"/>
      <use xlink:href="#DejaVuSans-67" transform="translate(261.71875 0.015625)"/>
      <use xlink:href="#DejaVuSans-5d" transform="translate(325.195312 0.015625)"/>
     </g>
    </g>
   </g>
   <g id="matplotlib.axis_6">
    <g id="ytick_15">
     <g id="line2d_65">
      <path d="M 62.3 378.008 
L 231.485 378.008 
" clip-path="url(#pf30838fe65)" style="fill: none; stroke-dasharray: 2.96,1.28; stroke-dashoffset: 0; stroke: #d3d3d3; stroke-width: 0.8"/>
     </g>
     <g id="line2d_66">
      <g>
       <use xlink:href="#m755b45a17f" x="62.3" y="378.008" style="stroke: #000000; stroke-width: 0.8"/>
      </g>
     </g>
     <g id="text_20">
      <!-- −0.25 -->
      <g transform="translate(24.654688 381.807219)scale(0.1 -0.1)">
       <use xlink:href="#DejaVuSans-2212"/>
       <use xlink:href="#DejaVuSans-30" x="83.789062"/>
       <use xlink:href="#DejaVuSans-2e" x="147.412109"/>
       <use xlink:href="#DejaVuSans-32" x="179.199219"/>
       <use xlink:href="#DejaVuSans-35" x="242.822266"/>
      </g>
     </g>
    </g>
    <g id="ytick_16">
     <g id="line2d_67">
      <path d="M 62.3 355.128 
L 231.485 355.128 
" clip-path="url(#pf30838fe65)" style="fill: none; stroke-dasharray: 2.96,1.28; stroke-dashoffset: 0; stroke: #d3d3d3; stroke-width: 0.8"/>
     </g>
     <g id="line2d_68">
      <g>
       <use xlink:href="#m755b45a17f" x="62.3" y="355.128" style="stroke: #000000; stroke-width: 0.8"/>
      </g>
     </g>
     <g id="text_21">
      <!-- 0.00 -->
      <g transform="translate(33.034375 358.927219)scale(0.1 -0.1)">
       <use xlink:href="#DejaVuSans-30"/>
       <use xlink:href="#DejaVuSans-2e" x="63.623047"/>
       <use xlink:href="#DejaVuSans-30" x="95.410156"/>
       <use xlink:href="#DejaVuSans-30" x="159.033203"/>
      </g>
     </g>
    </g>
    <g id="ytick_17">
     <g id="line2d_69">
      <path d="M 62.3 332.248 
L 231.485 332.248 
" clip-path="url(#pf30838fe65)" style="fill: none; stroke-dasharray: 2.96,1.28; stroke-dashoffset: 0; stroke: #d3d3d3; stroke-width: 0.8"/>
     </g>
     <g id="line2d_70">
      <g>
       <use xlink:href="#m755b45a17f" x="62.3" y="332.248" style="stroke: #000000; stroke-width: 0.8"/>
      </g>
     </g>
     <g id="text_22">
      <!-- 0.25 -->
      <g transform="translate(33.034375 336.047219)scale(0.1 -0.1)">
       <use xlink:href="#DejaVuSans-30"/>
       <use xlink:href="#DejaVuSans-2e" x="63.623047"/>
       <use xlink:href="#DejaVuSans-32" x="95.410156"/>
       <use xlink:href="#DejaVuSans-35" x="159.033203"/>
      </g>
     </g>
    </g>
    <g id="ytick_18">
     <g id="line2d_71">
      <path d="M 62.3 309.368 
L 231.485 309.368 
" clip-path="url(#pf30838fe65)" style="fill: none; stroke-dasharray: 2.96,1.28; stroke-dashoffset: 0; stroke: #d3d3d3; stroke-width: 0.8"/>
     </g>
     <g id="line2d_72">
      <g>
       <use xlink:href="#m755b45a17f" x="62.3" y="309.368" style="stroke: #000000; stroke-width: 0.8"/>
      </g>
     </g>
     <g id="text_23">
      <!-- 0.50 -->
      <g transform="translate(33.034375 313.167219)scale(0.1 -0.1)">
       <use xlink:href="#DejaVuSans-30"/>
       <use xlink:href="#DejaVuSans-2e" x="63.623047"/>
       <use xlink:href="#DejaVuSans-35" x="95.410156"/>
       <use xlink:href="#DejaVuSans-30" x="159.033203"/>
      </g>
     </g>
    </g>
    <g id="ytick_19">
     <g id="line2d_73">
      <path d="M 62.3 286.488 
L 231.485 286.488 
" clip-path="url(#pf30838fe65)" style="fill: none; stroke-dasharray: 2.96,1.28; stroke-dashoffset: 0; stroke: #d3d3d3; stroke-width: 0.8"/>
     </g>
     <g id="line2d_74">
      <g>
       <use xlink:href="#m755b45a17f" x="62.3" y="286.488" style="stroke: #000000; stroke-width: 0.8"/>
      </g>
     </g>
     <g id="text_24">
      <!-- 0.75 -->
      <g transform="translate(33.034375 290.287219)scale(0.1 -0.1)">
       <use xlink:href="#DejaVuSans-30"/>
       <use xlink:href="#DejaVuSans-2e" x="63.623047"/>
       <use xlink:href="#DejaVuSans-37" x="95.410156"/>
       <use xlink:href="#DejaVuSans-35" x="159.033203"/>
      </g>
     </g>
    </g>
    <g id="ytick_20">
     <g id="line2d_75">
      <path d="M 62.3 263.608 
L 231.485 263.608 
" clip-path="url(#pf30838fe65)" style="fill: none; stroke-dasharray: 2.96,1.28; stroke-dashoffset: 0; stroke: #d3d3d3; stroke-width: 0.8"/>
     </g>
     <g id="line2d_76">
      <g>
       <use xlink:href="#m755b45a17f" x="62.3" y="263.608" style="stroke: #000000; stroke-width: 0.8"/>
      </g>
     </g>
     <g id="text_25">
      <!-- 1.00 -->
      <g transform="translate(33.034375 267.407219)scale(0.1 -0.1)">
       <use xlink:href="#DejaVuSans-31"/>
       <use xlink:href="#DejaVuSans-2e" x="63.623047"/>
       <use xlink:href="#DejaVuSans-30" x="95.410156"/>
       <use xlink:href="#DejaVuSans-30" x="159.033203"/>
      </g>
     </g>
    </g>
    <g id="ytick_21">
     <g id="line2d_77">
      <path d="M 62.3 240.728 
L 231.485 240.728 
" clip-path="url(#pf30838fe65)" style="fill: none; stroke-dasharray: 2.96,1.28; stroke-dashoffset: 0; stroke: #d3d3d3; stroke-width: 0.8"/>
     </g>
     <g id="line2d_78">
      <g>
       <use xlink:href="#m755b45a17f" x="62.3" y="240.728" style="stroke: #000000; stroke-width: 0.8"/>
      </g>
     </g>
     <g id="text_26">
      <!-- 1.25 -->
      <g transform="translate(33.034375 244.527219)scale(0.1 -0.1)">
       <use xlink:href="#DejaVuSans-31"/>
       <use xlink:href="#DejaVuSans-2e" x="63.623047"/>
       <use xlink:href="#DejaVuSans-32" x="95.410156"/>
       <use xlink:href="#DejaVuSans-35" x="159.033203"/>
      </g>
     </g>
    </g>
    <g id="text_27">
     <!-- CL -->
     <g transform="translate(18.575 313.357344)rotate(-90)scale(0.1 -0.1)">
      <use xlink:href="#DejaVuSans-43"/>
      <use xlink:href="#DejaVuSans-4c" x="69.824219"/>
     </g>
    </g>
   </g>
   <g id="line2d_79">
    <path d="M 84.63242 376.939962 
L 87.242703 374.396621 
L 89.852986 371.925581 
L 92.511607 369.276077 
L 95.170229 366.753786 
L 97.780511 364.312032 
L 100.390794 361.728422 
L 103.049416 359.534688 
L 105.708037 356.693907 
L 108.31832 354.272288 
L 110.928603 351.78569 
L 113.587224 349.167302 
L 116.245846 346.673382 
L 118.856129 344.292947 
L 121.466411 341.515315 
L 124.125033 339.058003 
L 126.735316 336.362739 
L 129.393937 333.936544 
L 132.052559 331.60736 
L 134.662841 329.045715 
L 137.321463 326.821779 
L 139.931746 324.304064 
L 142.542029 321.99959 
L 145.152311 319.560582 
L 147.810933 317.239635 
L 150.469554 315.244499 
L 153.079837 312.785357 
L 155.69012 310.646534 
L 158.300403 308.230406 
L 160.910686 305.678829 
L 163.569307 303.841107 
L 166.227929 301.7032 
L 168.838211 299.822464 
L 171.448494 297.534464 
L 174.010439 295.725114 
L 176.717399 293.989894 
L 179.279343 292.144851 
L 181.937964 290.380346 
L 184.548247 288.857453 
L 187.15853 287.372083 
L 189.768813 285.75767 
L 192.379096 285.700013 
L 195.086056 285.425453 
L 197.744677 284.529472 
L 200.306621 283.324154 
L 202.868566 281.54592 
L 205.623864 281.048051 
L 208.185809 279.975437 
L 210.84443 279.577325 
L 213.503051 284.394022 
L 216.064996 284.457171 
" clip-path="url(#pf30838fe65)" style="fill: none; stroke: #000000; stroke-width: 0.75; stroke-linecap: square"/>
   </g>
   <g id="line2d_80">
    <path d="M 81.635429 380.599362 
L 84.052357 377.730352 
L 86.469286 374.864247 
L 88.886214 372.001608 
L 91.303143 369.142935 
L 93.720071 366.288013 
L 96.137 363.438199 
L 98.553929 360.593205 
L 100.970857 357.754508 
L 103.387786 354.922668 
L 105.804714 352.097329 
L 108.221643 349.279056 
L 110.638571 346.469293 
L 113.0555 343.667683 
L 115.472429 340.874764 
L 117.889357 338.09108 
L 120.306286 335.317198 
L 122.723214 332.553595 
L 125.140143 329.800822 
L 127.557071 327.059455 
L 129.974 324.32899 
L 132.390929 321.611038 
L 134.807857 318.904995 
L 137.224786 316.212503 
L 139.641714 313.532989 
L 142.058643 310.867032 
L 144.475571 308.215232 
L 146.8925 305.576944 
L 149.309429 302.954812 
L 151.726357 300.34712 
L 154.143286 297.755628 
L 156.560214 295.178861 
L 158.977143 292.619232 
L 161.394071 290.076131 
L 163.811 287.549431 
L 166.227929 285.040126 
L 168.644857 282.548992 
L 171.061786 280.074668 
L 173.478714 277.61847 
L 175.895643 275.181013 
L 178.312571 272.762485 
L 180.7295 270.361714 
L 183.146429 267.981329 
L 185.563357 265.619485 
L 187.980286 263.276786 
L 190.397214 260.95473 
L 192.814143 258.651925 
L 195.231071 256.369872 
L 197.648 254.108049 
L 200.064929 251.866794 
L 202.481857 249.645858 
L 204.898786 247.445567 
L 207.315714 245.266855 
L 209.732643 243.109413 
L 212.149571 240.972451 
L 214.5665 238.857128 
L 216.983429 236.763211 
" clip-path="url(#pf30838fe65)" style="fill: none; stroke-dasharray: 2.775,1.2; stroke-dashoffset: 0; stroke: #0000ff; stroke-width: 0.75"/>
   </g>
   <g id="line2d_81">
    <path d="M 81.635429 381.827313 
L 84.052357 378.960083 
L 86.469286 376.093859 
L 88.886214 373.229558 
L 91.303143 370.36791 
L 93.720071 367.509741 
L 96.137 364.656056 
L 98.553929 361.807496 
L 100.970857 358.964976 
L 103.387786 356.129229 
L 105.804714 353.301169 
L 108.221643 350.481438 
L 110.638571 347.67095 
L 113.0555 344.87053 
L 115.472429 342.080817 
L 117.889357 339.302636 
L 120.306286 336.536719 
L 122.723214 333.783797 
L 125.140143 331.044695 
L 127.557071 328.320145 
L 129.974 325.610787 
L 132.390929 322.917353 
L 134.807857 320.240576 
L 137.224786 317.581188 
L 139.641714 314.939829 
L 142.058643 312.31714 
L 144.475571 309.713946 
L 146.8925 307.130702 
L 149.309429 304.568142 
L 151.726357 302.026998 
L 154.143286 299.507727 
L 156.560214 297.011061 
L 158.977143 294.537642 
L 161.394071 292.088017 
L 163.811 289.662737 
L 166.227929 287.262442 
L 168.644857 284.887681 
L 171.061786 282.539095 
L 173.478714 280.21705 
L 175.895643 277.922277 
L 178.312571 275.655144 
L 180.7295 273.41629 
L 183.146429 271.206265 
L 185.563357 269.025343 
L 187.980286 266.874257 
L 190.397214 264.753281 
L 192.814143 262.663056 
L 195.231071 260.603856 
L 197.648 258.576322 
L 200.064929 256.580728 
L 202.481857 254.617624 
L 204.898786 252.687284 
L 207.315714 250.790258 
L 209.732643 248.926728 
L 212.149571 247.097334 
L 214.5665 245.302261 
L 216.983429 243.541965 
" clip-path="url(#pf30838fe65)" style="fill: none; stroke-dasharray: 3.7,1.6; stroke-dashoffset: 0; stroke: #008000"/>
   </g>
   <g id="line2d_82">
    <path d="M 86.469286 377.846172 
L 88.886214 374.916353 
L 91.303143 371.977896 
L 93.720071 369.043422 
L 96.137 366.109149 
L 98.553929 363.182537 
L 100.970857 360.261483 
L 103.387786 357.352552 
L 105.804714 354.457073 
L 108.221643 351.574198 
L 110.638571 348.708974 
L 113.0555 345.864874 
L 115.472429 343.038437 
L 117.889357 340.235993 
L 120.306286 337.455166 
L 122.723214 334.701643 
L 125.140143 331.971928 
L 127.557071 329.267735 
L 129.974 326.594888 
L 132.390929 323.952359 
L 134.807857 321.334957 
L 137.224786 318.750608 
L 139.641714 316.200321 
L 142.058643 313.68089 
L 144.475571 311.195713 
L 146.8925 308.747681 
L 149.309429 306.337709 
L 151.726357 303.969011 
L 154.143286 301.64176 
L 156.560214 299.36218 
L 158.977143 297.1303 
L 161.394071 294.957552 
L 163.811 292.845658 
L 166.227929 290.809614 
L 168.644857 288.864818 
L 171.061786 287.024952 
L 173.478714 285.253917 
L 175.895643 283.496189 
L 178.312571 281.752957 
L 180.7295 280.068913 
L 183.146429 278.467314 
L 185.563357 276.984638 
L 187.980286 275.645208 
L 190.397214 274.55438 
L 192.814143 273.840944 
L 195.231071 272.901644 
L 197.648 271.973657 
L 200.064929 271.228344 
L 202.481857 271.067606 
" clip-path="url(#pf30838fe65)" style="fill: none; stroke-dasharray: 3.7,1.6; stroke-dashoffset: 0; stroke: #ff0000"/>
   </g>
   <g id="patch_14">
    <path d="M 62.3 387.16 
L 62.3 227 
" style="fill: none; stroke: #000000; stroke-width: 0.8; stroke-linejoin: miter; stroke-linecap: square"/>
   </g>
   <g id="patch_15">
    <path d="M 231.485 387.16 
L 231.485 227 
" style="fill: none; stroke: #000000; stroke-width: 0.8; stroke-linejoin: miter; stroke-linecap: square"/>
   </g>
   <g id="patch_16">
    <path d="M 62.3 387.16 
L 231.485 387.16 
" style="fill: none; stroke: #000000; stroke-width: 0.8; stroke-linejoin: miter; stroke-linecap: square"/>
   </g>
   <g id="patch_17">
    <path d="M 62.3 227 
L 231.485 227 
" style="fill: none; stroke: #000000; stroke-width: 0.8; stroke-linejoin: miter; stroke-linecap: square"/>
   </g>
   <g id="text_28">
    <!-- $\beta$=10° -->
    <g transform="translate(127.3925 221)scale(0.12 -0.12)">
     <use xlink:href="#DejaVuSans-Oblique-3b2" transform="translate(0 0.390625)"/>
     <use xlink:href="#DejaVuSans-3d" transform="translate(63.818359 0.390625)"/>
     <use xlink:href="#DejaVuSans-31" transform="translate(147.607422 0.390625)"/>
     <use xlink:href="#DejaVuSans-30" transform="translate(211.230469 0.390625)"/>
     <use xlink:href="#DejaVuSans-b0" transform="translate(274.853516 0.390625)"/>
    </g>
   </g>
  </g>
  <g id="axes_4">
   <g id="patch_18">
    <path d="M 252.015 387.16 
L 421.2 387.16 
L 421.2 227 
L 252.015 227 
z
" style="fill: #ffffff"/>
   </g>
   <g id="matplotlib.axis_7">
    <g id="xtick_13">
     <g id="line2d_83">
      <path d="M 252.015 387.16 
L 252.015 227 
" clip-path="url(#p2714f74646)" style="fill: none; stroke-dasharray: 2.96,1.28; stroke-dashoffset: 0; stroke: #d3d3d3; stroke-width: 0.8"/>
     </g>
     <g id="line2d_84">
      <g>
       <use xlink:href="#m9182272120" x="252.015" y="387.16" style="stroke: #000000; stroke-width: 0.8"/>
      </g>
     </g>
     <g id="text_29">
      <!-- −10 -->
      <g transform="translate(241.462656 401.758437)scale(0.1 -0.1)">
       <use xlink:href="#DejaVuSans-2212"/>
       <use xlink:href="#DejaVuSans-31" x="83.789062"/>
       <use xlink:href="#DejaVuSans-30" x="147.412109"/>
      </g>
     </g>
    </g>
    <g id="xtick_14">
     <g id="line2d_85">
      <path d="M 300.353571 387.16 
L 300.353571 227 
" clip-path="url(#p2714f74646)" style="fill: none; stroke-dasharray: 2.96,1.28; stroke-dashoffset: 0; stroke: #d3d3d3; stroke-width: 0.8"/>
     </g>
     <g id="line2d_86">
      <g>
       <use xlink:href="#m9182272120" x="300.353571" y="387.16" style="stroke: #000000; stroke-width: 0.8"/>
      </g>
     </g>
     <g id="text_30">
      <!-- 0 -->
      <g transform="translate(297.172321 401.758437)scale(0.1 -0.1)">
       <use xlink:href="#DejaVuSans-30"/>
      </g>
     </g>
    </g>
    <g id="xtick_15">
     <g id="line2d_87">
      <path d="M 348.692143 387.16 
L 348.692143 227 
" clip-path="url(#p2714f74646)" style="fill: none; stroke-dasharray: 2.96,1.28; stroke-dashoffset: 0; stroke: #d3d3d3; stroke-width: 0.8"/>
     </g>
     <g id="line2d_88">
      <g>
       <use xlink:href="#m9182272120" x="348.692143" y="387.16" style="stroke: #000000; stroke-width: 0.8"/>
      </g>
     </g>
     <g id="text_31">
      <!-- 10 -->
      <g transform="translate(342.329643 401.758437)scale(0.1 -0.1)">
       <use xlink:href="#DejaVuSans-31"/>
       <use xlink:href="#DejaVuSans-30" x="63.623047"/>
      </g>
     </g>
    </g>
    <g id="xtick_16">
     <g id="line2d_89">
      <path d="M 397.030714 387.16 
L 397.030714 227 
" clip-path="url(#p2714f74646)" style="fill: none; stroke-dasharray: 2.96,1.28; stroke-dashoffset: 0; stroke: #d3d3d3; stroke-width: 0.8"/>
     </g>
     <g id="line2d_90">
      <g>
       <use xlink:href="#m9182272120" x="397.030714" y="387.16" style="stroke: #000000; stroke-width: 0.8"/>
      </g>
     </g>
     <g id="text_32">
      <!-- 20 -->
      <g transform="translate(390.668214 401.758437)scale(0.1 -0.1)">
       <use xlink:href="#DejaVuSans-32"/>
       <use xlink:href="#DejaVuSans-30" x="63.623047"/>
      </g>
     </g>
    </g>
    <g id="text_33">
     <!-- $\alpha$ [deg] -->
     <g transform="translate(318.3575 415.438125)scale(0.1 -0.1)">
      <use xlink:href="#DejaVuSans-Oblique-3b1" transform="translate(0 0.015625)"/>
      <use xlink:href="#DejaVuSans-20" transform="translate(65.917969 0.015625)"/>
      <use xlink:href="#DejaVuSans-5b" transform="translate(97.705078 0.015625)"/>
      <use xlink:href="#DejaVuSans-64" transform="translate(136.71875 0.015625)"/>
      <use xlink:href="#DejaVuSans-65" transform="translate(200.195312 0.015625)"/>
      <use xlink:href="#DejaVuSans-67" transform="translate(261.71875 0.015625)"/>
      <use xlink:href="#DejaVuSans-5d" transform="translate(325.195312 0.015625)"/>
     </g>
    </g>
   </g>
   <g id="matplotlib.axis_8">
    <g id="ytick_22">
     <g id="line2d_91">
      <path d="M 252.015 378.008 
L 421.2 378.008 
" clip-path="url(#p2714f74646)" style="fill: none; stroke-dasharray: 2.96,1.28; stroke-dashoffset: 0; stroke: #d3d3d3; stroke-width: 0.8"/>
     </g>
     <g id="line2d_92">
      <g>
       <use xlink:href="#m755b45a17f" x="252.015" y="378.008" style="stroke: #000000; stroke-width: 0.8"/>
      </g>
     </g>
    </g>
    <g id="ytick_23">
     <g id="line2d_93">
      <path d="M 252.015 355.128 
L 421.2 355.128 
" clip-path="url(#p2714f74646)" style="fill: none; stroke-dasharray: 2.96,1.28; stroke-dashoffset: 0; stroke: #d3d3d3; stroke-width: 0.8"/>
     </g>
     <g id="line2d_94">
      <g>
       <use xlink:href="#m755b45a17f" x="252.015" y="355.128" style="stroke: #000000; stroke-width: 0.8"/>
      </g>
     </g>
    </g>
    <g id="ytick_24">
     <g id="line2d_95">
      <path d="M 252.015 332.248 
L 421.2 332.248 
" clip-path="url(#p2714f74646)" style="fill: none; stroke-dasharray: 2.96,1.28; stroke-dashoffset: 0; stroke: #d3d3d3; stroke-width: 0.8"/>
     </g>
     <g id="line2d_96">
      <g>
       <use xlink:href="#m755b45a17f" x="252.015" y="332.248" style="stroke: #000000; stroke-width: 0.8"/>
      </g>
     </g>
    </g>
    <g id="ytick_25">
     <g id="line2d_97">
      <path d="M 252.015 309.368 
L 421.2 309.368 
" clip-path="url(#p2714f74646)" style="fill: none; stroke-dasharray: 2.96,1.28; stroke-dashoffset: 0; stroke: #d3d3d3; stroke-width: 0.8"/>
     </g>
     <g id="line2d_98">
      <g>
       <use xlink:href="#m755b45a17f" x="252.015" y="309.368" style="stroke: #000000; stroke-width: 0.8"/>
      </g>
     </g>
    </g>
    <g id="ytick_26">
     <g id="line2d_99">
      <path d="M 252.015 286.488 
L 421.2 286.488 
" clip-path="url(#p2714f74646)" style="fill: none; stroke-dasharray: 2.96,1.28; stroke-dashoffset: 0; stroke: #d3d3d3; stroke-width: 0.8"/>
     </g>
     <g id="line2d_100">
      <g>
       <use xlink:href="#m755b45a17f" x="252.015" y="286.488" style="stroke: #000000; stroke-width: 0.8"/>
      </g>
     </g>
    </g>
    <g id="ytick_27">
     <g id="line2d_101">
      <path d="M 252.015 263.608 
L 421.2 263.608 
" clip-path="url(#p2714f74646)" style="fill: none; stroke-dasharray: 2.96,1.28; stroke-dashoffset: 0; stroke: #d3d3d3; stroke-width: 0.8"/>
     </g>
     <g id="line2d_102">
      <g>
       <use xlink:href="#m755b45a17f" x="252.015" y="263.608" style="stroke: #000000; stroke-width: 0.8"/>
      </g>
     </g>
    </g>
    <g id="ytick_28">
     <g id="line2d_103">
      <path d="M 252.015 240.728 
L 421.2 240.728 
" clip-path="url(#p2714f74646)" style="fill: none; stroke-dasharray: 2.96,1.28; stroke-dashoffset: 0; stroke: #d3d3d3; stroke-width: 0.8"/>
     </g>
     <g id="line2d_104">
      <g>
       <use xlink:href="#m755b45a17f" x="252.015" y="240.728" style="stroke: #000000; stroke-width: 0.8"/>
      </g>
     </g>
    </g>
   </g>
   <g id="line2d_105">
    <path d="M 274.299081 376.140077 
L 276.957703 373.86855 
L 279.616324 371.866093 
L 282.226607 369.600058 
L 284.83689 367.157389 
L 287.495511 364.801664 
L 290.154133 362.503597 
L 292.764416 359.95751 
L 295.423037 357.627411 
L 298.03332 355.208538 
L 300.691941 352.871117 
L 303.302224 350.557491 
L 305.960846 347.996762 
L 308.571129 345.782893 
L 311.181411 343.121491 
L 313.840033 341.233434 
L 316.450316 338.486918 
L 319.108937 336.543034 
L 321.71922 334.227578 
L 324.377841 332.559168 
L 326.988124 330.178733 
L 329.646746 327.866938 
L 332.257029 325.916646 
L 334.91565 323.755859 
L 337.525933 321.008429 
L 340.136216 318.974854 
L 342.794837 317.128896 
L 345.40512 314.585555 
L 348.063741 312.66089 
L 350.625686 310.414074 
L 353.235969 308.698074 
L 355.942929 306.447597 
L 358.553211 304.420429 
L 361.163494 302.473798 
L 363.822116 300.788 
L 366.432399 298.808422 
L 369.042681 297.711098 
L 371.701303 295.395642 
L 374.263247 293.572563 
L 376.87353 292.111904 
L 379.532151 290.576198 
L 382.142434 288.88857 
L 384.801056 287.594477 
L 387.459677 286.480678 
L 389.973283 287.062746 
L 392.631904 285.257971 
L 395.290526 284.601773 
L 397.900809 282.878451 
L 400.55943 281.68503 
L 403.169713 280.92633 
L 405.779996 281.279597 
" clip-path="url(#p2714f74646)" style="fill: none; stroke: #000000; stroke-width: 0.75; stroke-linecap: square"/>
   </g>
   <g id="line2d_106">
    <path d="M 271.350429 379.358793 
L 273.767357 376.585225 
L 276.184286 373.814399 
L 278.601214 371.04599 
L 281.018143 368.282471 
L 283.435071 365.522471 
L 285.852 362.766693 
L 288.268929 360.016576 
L 290.685857 357.271792 
L 293.102786 354.533887 
L 295.519714 351.802434 
L 297.936643 349.078053 
L 300.353571 346.360384 
L 302.7705 343.651815 
L 305.187429 340.952003 
L 307.604357 338.260576 
L 310.021286 335.578986 
L 312.438214 332.906892 
L 314.855143 330.244848 
L 317.272071 327.594311 
L 319.689 324.953932 
L 322.105929 322.32619 
L 324.522857 319.709727 
L 326.939786 317.106798 
L 329.356714 314.515442 
L 331.773643 311.93772 
L 334.190571 309.373523 
L 336.6075 306.823145 
L 339.024429 304.287313 
L 341.441357 301.766265 
L 343.858286 299.259837 
L 346.275214 296.768518 
L 348.692143 294.293689 
L 351.109071 291.834012 
L 353.526 289.391017 
L 355.942929 286.964985 
L 358.359857 284.554743 
L 360.776786 282.16272 
L 363.193714 279.78737 
L 365.610643 277.430213 
L 368.027571 275.09078 
L 370.4445 272.769707 
L 372.861429 270.467408 
L 375.278357 268.1834 
L 377.695286 265.917443 
L 380.112214 263.671431 
L 382.529143 261.444761 
L 384.946071 259.237292 
L 387.363 257.049652 
L 389.779929 254.881611 
L 392.196857 252.733827 
L 394.613786 250.606051 
L 397.030714 248.497799 
L 399.447643 246.410824 
L 401.864571 244.344046 
L 404.2815 242.298117 
L 406.698429 240.272165 
" clip-path="url(#p2714f74646)" style="fill: none; stroke-dasharray: 2.775,1.2; stroke-dashoffset: 0; stroke: #0000ff; stroke-width: 0.75"/>
   </g>
   <g id="line2d_107">
    <path d="M 271.350429 381.907576 
L 273.767357 379.124269 
L 276.184286 376.341787 
L 278.601214 373.56086 
L 281.018143 370.782404 
L 283.435071 368.007244 
L 285.852 365.236018 
L 288.268929 362.469734 
L 290.685857 359.709125 
L 293.102786 356.954922 
L 295.519714 354.207949 
L 297.936643 351.468939 
L 300.353571 348.738714 
L 302.7705 346.018099 
L 305.187429 343.307643 
L 307.604357 340.608352 
L 310.021286 337.920684 
L 312.438214 335.245646 
L 314.855143 332.583695 
L 317.272071 329.935747 
L 319.689 327.302442 
L 322.105929 324.684421 
L 324.522857 322.082508 
L 326.939786 319.497251 
L 329.356714 316.929291 
L 331.773643 314.379452 
L 334.190571 311.848284 
L 336.6075 309.336426 
L 339.024429 306.844519 
L 341.441357 304.373296 
L 343.858286 301.923214 
L 346.275214 299.494914 
L 348.692143 297.089036 
L 351.109071 294.706221 
L 353.526 292.346927 
L 355.942929 290.011795 
L 358.359857 287.701281 
L 360.776786 285.416118 
L 363.193714 283.156672 
L 365.610643 280.923584 
L 368.027571 278.717311 
L 370.4445 276.538312 
L 372.861429 274.387226 
L 375.278357 272.264419 
L 377.695286 270.17035 
L 380.112214 268.105659 
L 382.529143 266.07062 
L 384.946071 264.065692 
L 387.363 262.091422 
L 389.779929 260.148178 
L 392.196857 258.236325 
L 394.613786 256.356321 
L 397.030714 254.508532 
L 399.447643 252.693416 
L 401.864571 250.911247 
L 404.2815 249.162392 
L 406.698429 247.447307 
" clip-path="url(#p2714f74646)" style="fill: none; stroke-dasharray: 3.7,1.6; stroke-dashoffset: 0; stroke: #008000"/>
   </g>
   <g id="line2d_108">
    <path d="M 276.184286 378.84021 
L 278.601214 376.094233 
L 281.018143 373.344607 
L 283.435071 370.590083 
L 285.852 367.83252 
L 288.268929 365.079701 
L 290.685857 362.328785 
L 293.102786 359.583555 
L 295.519714 356.846954 
L 297.936643 354.121575 
L 300.353571 351.410871 
L 302.7705 348.713296 
L 305.187429 346.030894 
L 307.604357 343.370005 
L 310.021286 340.729 
L 312.438214 338.111995 
L 314.855143 335.519267 
L 317.272071 332.955465 
L 319.689 330.418574 
L 322.105929 327.914524 
L 324.522857 325.444036 
L 326.939786 323.012917 
L 329.356714 320.620639 
L 331.773643 318.272627 
L 334.190571 315.979749 
L 336.6075 313.763338 
L 339.024429 311.668426 
L 341.441357 309.649183 
L 343.858286 307.553854 
L 346.275214 305.43086 
L 348.692143 303.319274 
L 351.109071 301.236668 
L 353.526 299.208064 
L 355.942929 297.24176 
L 358.359857 295.349158 
L 360.776786 293.553401 
" clip-path="url(#p2714f74646)" style="fill: none; stroke-dasharray: 3.7,1.6; stroke-dashoffset: 0; stroke: #ff0000"/>
   </g>
   <g id="patch_19">
    <path d="M 252.015 387.16 
L 252.015 227 
" style="fill: none; stroke: #000000; stroke-width: 0.8; stroke-linejoin: miter; stroke-linecap: square"/>
   </g>
   <g id="patch_20">
    <path d="M 421.2 387.16 
L 421.2 227 
" style="fill: none; stroke: #000000; stroke-width: 0.8; stroke-linejoin: miter; stroke-linecap: square"/>
   </g>
   <g id="patch_21">
    <path d="M 252.015 387.16 
L 421.2 387.16 
" style="fill: none; stroke: #000000; stroke-width: 0.8; stroke-linejoin: miter; stroke-linecap: square"/>
   </g>
   <g id="patch_22">
    <path d="M 252.015 227 
L 421.2 227 
" style="fill: none; stroke: #000000; stroke-width: 0.8; stroke-linejoin: miter; stroke-linecap: square"/>
   </g>
   <g id="text_34">
    <!-- $\beta$=15° -->
    <g transform="translate(317.1075 221)scale(0.12 -0.12)">
     <use xlink:href="#DejaVuSans-Oblique-3b2" transform="translate(0 0.390625)"/>
     <use xlink:href="#DejaVuSans-3d" transform="translate(63.818359 0.390625)"/>
     <use xlink:href="#DejaVuSans-31" transform="translate(147.607422 0.390625)"/>
     <use xlink:href="#DejaVuSans-35" transform="translate(211.230469 0.390625)"/>
     <use xlink:href="#DejaVuSans-b0" transform="translate(274.853516 0.390625)"/>
    </g>
   </g>
  </g>
 </g>
 <defs>
  <clipPath id="pf455e43048">
   <rect x="62.3" y="28.32" width="169.185" height="160.16"/>
  </clipPath>
  <clipPath id="p5c9171a303">
   <rect x="252.015" y="28.32" width="169.185" height="160.16"/>
  </clipPath>
  <clipPath id="pf30838fe65">
   <rect x="62.3" y="227" width="169.185" height="160.16"/>
  </clipPath>
  <clipPath id="p2714f74646">
   <rect x="252.015" y="227" width="169.185" height="160.16"/>
  </clipPath>
 </defs>
</svg>
