<?xml version="1.0" encoding="utf-8" standalone="no"?>
<!DOCTYPE svg PUBLIC "-//W3C//DTD SVG 1.1//EN"
  "http://www.w3.org/Graphics/SVG/1.1/DTD/svg11.dtd">
<svg xmlns:xlink="http://www.w3.org/1999/xlink" width="432pt" height="432pt" viewBox="0 0 432 432" xmlns="http://www.w3.org/2000/svg" version="1.1">
 <metadata>
  <rdf:RDF xmlns:dc="http://purl.org/dc/elements/1.1/" xmlns:cc="http://creativecommons.org/ns#" xmlns:rdf="http://www.w3.org/1999/02/22-rdf-syntax-ns#">
   <cc:Work>
    <dc:type rdf:resource="http://purl.org/dc/dcmitype/StillImage"/>
    <dc:date>2022-03-21T14:39:48.073169</dc:date>
    <dc:format>image/svg+xml</dc:format>
    <dc:creator>
     <cc:Agent>
      <dc:title>Matplotlib v3.5.1, https://matplotlib.org/</dc:title>
     </cc:Agent>
    </dc:creator>
   </cc:Work>
  </rdf:RDF>
 </metadata>
 <defs>
  <style type="text/css">*{stroke-linejoin: round; stroke-linecap: butt}</style>
 </defs>
 <g id="figure_1">
  <g id="patch_1">
   <path d="M 0 432 
L 432 432 
L 432 0 
L 0 0 
z
" style="fill: #ffffff"/>
  </g>
  <g id="axes_1">
   <g id="patch_2">
    <path d="M 62.39 188.48 
L 231.53 188.48 
L 231.53 28.32 
L 62.39 28.32 
z
" style="fill: #ffffff"/>
   </g>
   <g id="matplotlib.axis_1">
    <g id="xtick_1">
     <g id="line2d_1">
      <path d="M 62.39 188.48 
L 62.39 28.32 
" clip-path="url(#p9f61f8b057)" style="fill: none; stroke-dasharray: 2.96,1.28; stroke-dashoffset: 0; stroke: #d3d3d3; stroke-width: 0.8"/>
     </g>
     <g id="line2d_2">
      <defs>
       <path id="m1b3e0b2016" d="M 0 0 
L 0 3.5 
" style="stroke: #000000; stroke-width: 0.8"/>
      </defs>
      <g>
       <use xlink:href="#m1b3e0b2016" x="62.39" y="188.48" style="stroke: #000000; stroke-width: 0.8"/>
      </g>
     </g>
    </g>
    <g id="xtick_2">
     <g id="line2d_3">
      <path d="M 110.715714 188.48 
L 110.715714 28.32 
" clip-path="url(#p9f61f8b057)" style="fill: none; stroke-dasharray: 2.96,1.28; stroke-dashoffset: 0; stroke: #d3d3d3; stroke-width: 0.8"/>
     </g>
     <g id="line2d_4">
      <g>
       <use xlink:href="#m1b3e0b2016" x="110.715714" y="188.48" style="stroke: #000000; stroke-width: 0.8"/>
      </g>
     </g>
    </g>
    <g id="xtick_3">
     <g id="line2d_5">
      <path d="M 159.041429 188.48 
L 159.041429 28.32 
" clip-path="url(#p9f61f8b057)" style="fill: none; stroke-dasharray: 2.96,1.28; stroke-dashoffset: 0; stroke: #d3d3d3; stroke-width: 0.8"/>
     </g>
     <g id="line2d_6">
      <g>
       <use xlink:href="#m1b3e0b2016" x="159.041429" y="188.48" style="stroke: #000000; stroke-width: 0.8"/>
      </g>
     </g>
    </g>
    <g id="xtick_4">
     <g id="line2d_7">
      <path d="M 207.367143 188.48 
L 207.367143 28.32 
" clip-path="url(#p9f61f8b057)" style="fill: none; stroke-dasharray: 2.96,1.28; stroke-dashoffset: 0; stroke: #d3d3d3; stroke-width: 0.8"/>
     </g>
     <g id="line2d_8">
      <g>
       <use xlink:href="#m1b3e0b2016" x="207.367143" y="188.48" style="stroke: #000000; stroke-width: 0.8"/>
      </g>
     </g>
    </g>
   </g>
   <g id="matplotlib.axis_2">
    <g id="ytick_1">
     <g id="line2d_9">
      <path d="M 62.39 181.942857 
L 231.53 181.942857 
" clip-path="url(#p9f61f8b057)" style="fill: none; stroke-dasharray: 2.96,1.28; stroke-dashoffset: 0; stroke: #d3d3d3; stroke-width: 0.8"/>
     </g>
     <g id="line2d_10">
      <defs>
       <path id="md5b796ff5a" d="M 0 0 
L -3.5 0 
" style="stroke: #000000; stroke-width: 0.8"/>
      </defs>
      <g>
       <use xlink:href="#md5b796ff5a" x="62.39" y="181.942857" style="stroke: #000000; stroke-width: 0.8"/>
      </g>
     </g>
     <g id="text_1">
      <!-- −0.20 -->
      <g transform="translate(24.744687 185.742076)scale(0.1 -0.1)">
       <defs>
        <path id="DejaVuSans-2212" d="M 678 2272 
L 4684 2272 
L 4684 1741 
L 678 1741 
L 678 2272 
z
" transform="scale(0.015625)"/>
        <path id="DejaVuSans-30" d="M 2034 4250 
Q 1547 4250 1301 3770 
Q 1056 3291 1056 2328 
Q 1056 1369 1301 889 
Q 1547 409 2034 409 
Q 2525 409 2770 889 
Q 3016 1369 3016 2328 
Q 3016 3291 2770 3770 
Q 2525 4250 2034 4250 
z
M 2034 4750 
Q 2819 4750 3233 4129 
Q 3647 3509 3647 2328 
Q 3647 1150 3233 529 
Q 2819 -91 2034 -91 
Q 1250 -91 836 529 
Q 422 1150 422 2328 
Q 422 3509 836 4129 
Q 1250 4750 2034 4750 
z
" transform="scale(0.015625)"/>
        <path id="DejaVuSans-2e" d="M 684 794 
L 1344 794 
L 1344 0 
L 684 0 
L 684 794 
z
" transform="scale(0.015625)"/>
        <path id="DejaVuSans-32" d="M 1228 531 
L 3431 531 
L 3431 0 
L 469 0 
L 469 531 
Q 828 903 1448 1529 
Q 2069 2156 2228 2338 
Q 2531 2678 2651 2914 
Q 2772 3150 2772 3378 
Q 2772 3750 2511 3984 
Q 2250 4219 1831 4219 
Q 1534 4219 1204 4116 
Q 875 4013 500 3803 
L 500 4441 
Q 881 4594 1212 4672 
Q 1544 4750 1819 4750 
Q 2544 4750 2975 4387 
Q 3406 4025 3406 3419 
Q 3406 3131 3298 2873 
Q 3191 2616 2906 2266 
Q 2828 2175 2409 1742 
Q 1991 1309 1228 531 
z
" transform="scale(0.015625)"/>
       </defs>
       <use xlink:href="#DejaVuSans-2212"/>
       <use xlink:href="#DejaVuSans-30" x="83.789062"/>
       <use xlink:href="#DejaVuSans-2e" x="147.412109"/>
       <use xlink:href="#DejaVuSans-32" x="179.199219"/>
       <use xlink:href="#DejaVuSans-30" x="242.822266"/>
      </g>
     </g>
    </g>
    <g id="ytick_2">
     <g id="line2d_11">
      <path d="M 62.39 149.257143 
L 231.53 149.257143 
" clip-path="url(#p9f61f8b057)" style="fill: none; stroke-dasharray: 2.96,1.28; stroke-dashoffset: 0; stroke: #d3d3d3; stroke-width: 0.8"/>
     </g>
     <g id="line2d_12">
      <g>
       <use xlink:href="#md5b796ff5a" x="62.39" y="149.257143" style="stroke: #000000; stroke-width: 0.8"/>
      </g>
     </g>
     <g id="text_2">
      <!-- −0.15 -->
      <g transform="translate(24.744687 153.056362)scale(0.1 -0.1)">
       <defs>
        <path id="DejaVuSans-31" d="M 794 531 
L 1825 531 
L 1825 4091 
L 703 3866 
L 703 4441 
L 1819 4666 
L 2450 4666 
L 2450 531 
L 3481 531 
L 3481 0 
L 794 0 
L 794 531 
z
" transform="scale(0.015625)"/>
        <path id="DejaVuSans-35" d="M 691 4666 
L 3169 4666 
L 3169 4134 
L 1269 4134 
L 1269 2991 
Q 1406 3038 1543 3061 
Q 1681 3084 1819 3084 
Q 2600 3084 3056 2656 
Q 3513 2228 3513 1497 
Q 3513 744 3044 326 
Q 2575 -91 1722 -91 
Q 1428 -91 1123 -41 
Q 819 9 494 109 
L 494 744 
Q 775 591 1075 516 
Q 1375 441 1709 441 
Q 2250 441 2565 725 
Q 2881 1009 2881 1497 
Q 2881 1984 2565 2268 
Q 2250 2553 1709 2553 
Q 1456 2553 1204 2497 
Q 953 2441 691 2322 
L 691 4666 
z
" transform="scale(0.015625)"/>
       </defs>
       <use xlink:href="#DejaVuSans-2212"/>
       <use xlink:href="#DejaVuSans-30" x="83.789062"/>
       <use xlink:href="#DejaVuSans-2e" x="147.412109"/>
       <use xlink:href="#DejaVuSans-31" x="179.199219"/>
       <use xlink:href="#DejaVuSans-35" x="242.822266"/>
      </g>
     </g>
    </g>
    <g id="ytick_3">
     <g id="line2d_13">
      <path d="M 62.39 116.571429 
L 231.53 116.571429 
" clip-path="url(#p9f61f8b057)" style="fill: none; stroke-dasharray: 2.96,1.28; stroke-dashoffset: 0; stroke: #d3d3d3; stroke-width: 0.8"/>
     </g>
     <g id="line2d_14">
      <g>
       <use xlink:href="#md5b796ff5a" x="62.39" y="116.571429" style="stroke: #000000; stroke-width: 0.8"/>
      </g>
     </g>
     <g id="text_3">
      <!-- −0.10 -->
      <g transform="translate(24.744687 120.370647)scale(0.1 -0.1)">
       <use xlink:href="#DejaVuSans-2212"/>
       <use xlink:href="#DejaVuSans-30" x="83.789062"/>
       <use xlink:href="#DejaVuSans-2e" x="147.412109"/>
       <use xlink:href="#DejaVuSans-31" x="179.199219"/>
       <use xlink:href="#DejaVuSans-30" x="242.822266"/>
      </g>
     </g>
    </g>
    <g id="ytick_4">
     <g id="line2d_15">
      <path d="M 62.39 83.885714 
L 231.53 83.885714 
" clip-path="url(#p9f61f8b057)" style="fill: none; stroke-dasharray: 2.96,1.28; stroke-dashoffset: 0; stroke: #d3d3d3; stroke-width: 0.8"/>
     </g>
     <g id="line2d_16">
      <g>
       <use xlink:href="#md5b796ff5a" x="62.39" y="83.885714" style="stroke: #000000; stroke-width: 0.8"/>
      </g>
     </g>
     <g id="text_4">
      <!-- −0.05 -->
      <g transform="translate(24.744687 87.684933)scale(0.1 -0.1)">
       <use xlink:href="#DejaVuSans-2212"/>
       <use xlink:href="#DejaVuSans-30" x="83.789062"/>
       <use xlink:href="#DejaVuSans-2e" x="147.412109"/>
       <use xlink:href="#DejaVuSans-30" x="179.199219"/>
       <use xlink:href="#DejaVuSans-35" x="242.822266"/>
      </g>
     </g>
    </g>
    <g id="ytick_5">
     <g id="line2d_17">
      <path d="M 62.39 51.2 
L 231.53 51.2 
" clip-path="url(#p9f61f8b057)" style="fill: none; stroke-dasharray: 2.96,1.28; stroke-dashoffset: 0; stroke: #d3d3d3; stroke-width: 0.8"/>
     </g>
     <g id="line2d_18">
      <g>
       <use xlink:href="#md5b796ff5a" x="62.39" y="51.2" style="stroke: #000000; stroke-width: 0.8"/>
      </g>
     </g>
     <g id="text_5">
      <!-- 0.00 -->
      <g transform="translate(33.124375 54.999219)scale(0.1 -0.1)">
       <use xlink:href="#DejaVuSans-30"/>
       <use xlink:href="#DejaVuSans-2e" x="63.623047"/>
       <use xlink:href="#DejaVuSans-30" x="95.410156"/>
       <use xlink:href="#DejaVuSans-30" x="159.033203"/>
      </g>
     </g>
    </g>
    <g id="text_6">
     <!-- Cl -->
     <g transform="translate(18.665 113.280469)rotate(-90)scale(0.1 -0.1)">
      <defs>
       <path id="DejaVuSans-43" d="M 4122 4306 
L 4122 3641 
Q 3803 3938 3442 4084 
Q 3081 4231 2675 4231 
Q 1875 4231 1450 3742 
Q 1025 3253 1025 2328 
Q 1025 1406 1450 917 
Q 1875 428 2675 428 
Q 3081 428 3442 575 
Q 3803 722 4122 1019 
L 4122 359 
Q 3791 134 3420 21 
Q 3050 -91 2638 -91 
Q 1578 -91 968 557 
Q 359 1206 359 2328 
Q 359 3453 968 4101 
Q 1578 4750 2638 4750 
Q 3056 4750 3426 4639 
Q 3797 4528 4122 4306 
z
" transform="scale(0.015625)"/>
       <path id="DejaVuSans-6c" d="M 603 4863 
L 1178 4863 
L 1178 0 
L 603 0 
L 603 4863 
z
" transform="scale(0.015625)"/>
      </defs>
      <use xlink:href="#DejaVuSans-43"/>
      <use xlink:href="#DejaVuSans-6c" x="69.824219"/>
     </g>
    </g>
   </g>
   <g id="line2d_19">
    <path d="M 84.668154 49.343451 
L 87.326069 49.951406 
L 89.935657 49.879497 
L 92.593571 49.265006 
L 95.20316 49.624549 
L 97.861074 49.526491 
L 100.470663 49.317303 
L 103.128577 49.748754 
L 105.786491 49.742217 
L 108.39608 50.461303 
L 111.053994 50.324023 
L 113.663583 49.559177 
L 116.321497 49.96448 
L 118.931086 49.87296 
L 121.589 49.905646 
L 124.198589 49.957943 
L 126.856503 50.480914 
L 129.466091 50.003703 
L 132.124006 49.676846 
L 134.733594 49.663771 
L 137.391509 49.840274 
L 140.001097 49.166949 
L 142.659011 49.32384 
L 145.2686 49.382674 
L 147.926514 49.467657 
L 150.487777 49.820663 
L 153.145691 49.46112 
L 155.75528 49.23232 
L 158.46152 49.408823 
L 161.022783 49.3696 
L 163.680697 49.343451 
L 166.290286 49.121189 
L 168.9482 49.173486 
L 171.557789 49.114651 
L 174.167377 48.4544 
L 176.72864 48.140617 
L 179.338229 47.656869 
L 181.996143 48.160229 
L 184.654057 47.852983 
L 187.263646 47.885669 
L 189.92156 47.545737 
L 192.482823 46.525943 
L 195.189063 47.696091 
L 197.750326 47.460754 
L 200.359914 47.781074 
L 202.969503 47.114286 
L 205.724069 47.349623 
L 208.333657 47.192731 
L 210.943246 46.950857 
L 213.552834 47.833371 
L 216.162423 49.702994 
" clip-path="url(#p9f61f8b057)" style="fill: none; stroke: #000000; stroke-width: 0.75; stroke-linecap: square"/>
   </g>
   <g id="line2d_20">
    <path d="M 81.720286 51.2 
L 84.136571 51.2 
L 86.552857 51.2 
L 88.969143 51.2 
L 91.385429 51.2 
L 93.801714 51.2 
L 96.218 51.2 
L 98.634286 51.2 
L 101.050571 51.2 
L 103.466857 51.2 
L 105.883143 51.2 
L 108.299429 51.2 
L 110.715714 51.2 
L 113.132 51.2 
L 115.548286 51.2 
L 117.964571 51.2 
L 120.380857 51.2 
L 122.797143 51.2 
L 125.213429 51.2 
L 127.629714 51.2 
L 130.046 51.2 
L 132.462286 51.2 
L 134.878571 51.2 
L 137.294857 51.2 
L 139.711143 51.2 
L 142.127429 51.2 
L 144.543714 51.2 
L 146.96 51.2 
L 149.376286 51.2 
L 151.792571 51.2 
L 154.208857 51.2 
L 156.625143 51.2 
L 159.041429 51.2 
L 161.457714 51.2 
L 163.874 51.2 
L 166.290286 51.2 
L 168.706571 51.2 
L 171.122857 51.2 
L 173.539143 51.2 
L 175.955429 51.2 
L 178.371714 51.2 
L 180.788 51.2 
L 183.204286 51.2 
L 185.620571 51.2 
L 188.036857 51.2 
L 190.453143 51.2 
L 192.869429 51.2 
L 195.285714 51.2 
L 197.702 51.2 
L 200.118286 51.2 
L 202.534571 51.2 
L 204.950857 51.2 
L 207.367143 51.2 
L 209.783429 51.2 
L 212.199714 51.2 
L 214.616 51.2 
L 217.032286 51.2 
" clip-path="url(#p9f61f8b057)" style="fill: none; stroke-dasharray: 2.775,1.2; stroke-dashoffset: 0; stroke: #0000ff; stroke-width: 0.75"/>
   </g>
   <g id="line2d_21">
    <path d="M 86.552857 51.2 
L 88.969143 51.2 
L 91.385429 51.2 
L 93.801714 51.2 
L 96.218 51.2 
L 98.634286 51.2 
L 101.050571 51.2 
L 103.466857 51.2 
L 105.883143 51.2 
L 108.299429 51.2 
L 110.715714 51.2 
L 113.132 51.2 
L 115.548286 51.2 
L 117.964571 51.2 
L 120.380857 51.2 
L 122.797143 51.2 
L 125.213429 51.2 
L 127.629714 51.2 
L 130.046 51.2 
L 132.462286 51.2 
L 134.878571 51.2 
L 137.294857 51.2 
L 139.711143 51.2 
L 142.127429 51.2 
L 144.543714 51.2 
L 146.96 51.2 
L 149.376286 51.2 
L 151.792571 51.2 
L 154.208857 51.2 
L 156.625143 51.2 
L 159.041429 51.2 
L 161.457714 51.2 
L 163.874 51.2 
L 166.290286 51.2 
L 168.706571 51.2 
L 171.122857 51.2 
L 173.539143 51.2 
L 175.955429 51.2 
L 178.371714 51.2 
L 180.788 51.2 
L 183.204286 51.2 
L 185.620571 51.2 
L 188.036857 51.2 
L 190.453143 51.2 
L 192.869429 51.2 
L 195.285714 51.2 
L 197.702 51.2 
L 200.118286 51.2 
L 202.534571 51.2 
L 204.950857 51.2 
L 207.367143 51.2 
L 209.783429 51.2 
L 212.199714 51.2 
L 214.616 51.2 
L 217.032286 51.2 
" clip-path="url(#p9f61f8b057)" style="fill: none; stroke-dasharray: 3.7,1.6; stroke-dashoffset: 0; stroke: #ff0000"/>
   </g>
   <g id="patch_3">
    <path d="M 62.39 188.48 
L 62.39 28.32 
" style="fill: none; stroke: #000000; stroke-width: 0.8; stroke-linejoin: miter; stroke-linecap: square"/>
   </g>
   <g id="patch_4">
    <path d="M 231.53 188.48 
L 231.53 28.32 
" style="fill: none; stroke: #000000; stroke-width: 0.8; stroke-linejoin: miter; stroke-linecap: square"/>
   </g>
   <g id="patch_5">
    <path d="M 62.39 188.48 
L 231.53 188.48 
" style="fill: none; stroke: #000000; stroke-width: 0.8; stroke-linejoin: miter; stroke-linecap: square"/>
   </g>
   <g id="patch_6">
    <path d="M 62.39 28.32 
L 231.53 28.32 
" style="fill: none; stroke: #000000; stroke-width: 0.8; stroke-linejoin: miter; stroke-linecap: square"/>
   </g>
   <g id="text_7">
    <!-- $\beta$=0° -->
    <g transform="translate(131.24 22.32)scale(0.12 -0.12)">
     <defs>
      <path id="DejaVuSans-Oblique-3b2" d="M 872 216 
L 572 -1331 
L -6 -1331 
L 928 3478 
Q 1206 4903 2538 4903 
Q 3888 4903 3659 3700 
Q 3503 2844 2894 2531 
Q 3713 2250 3553 1416 
Q 3272 -69 1759 -66 
Q 1097 -63 872 216 
z
M 1019 966 
Q 1259 422 1875 425 
Q 2775 425 2966 1406 
Q 3138 2288 1675 2219 
L 1778 2750 
Q 2909 2731 3106 3750 
Q 3241 4438 2509 4434 
Q 1691 4434 1503 3459 
L 1019 966 
z
" transform="scale(0.015625)"/>
      <path id="DejaVuSans-3d" d="M 678 2906 
L 4684 2906 
L 4684 2381 
L 678 2381 
L 678 2906 
z
M 678 1631 
L 4684 1631 
L 4684 1100 
L 678 1100 
L 678 1631 
z
" transform="scale(0.015625)"/>
      <path id="DejaVuSans-b0" d="M 1600 4347 
Q 1350 4347 1178 4173 
Q 1006 4000 1006 3750 
Q 1006 3503 1178 3333 
Q 1350 3163 1600 3163 
Q 1850 3163 2022 3333 
Q 2194 3503 2194 3750 
Q 2194 3997 2020 4172 
Q 1847 4347 1600 4347 
z
M 1600 4750 
Q 1800 4750 1984 4673 
Q 2169 4597 2303 4453 
Q 2447 4313 2519 4134 
Q 2591 3956 2591 3750 
Q 2591 3338 2302 3052 
Q 2013 2766 1594 2766 
Q 1172 2766 890 3047 
Q 609 3328 609 3750 
Q 609 4169 896 4459 
Q 1184 4750 1600 4750 
z
" transform="scale(0.015625)"/>
     </defs>
     <use xlink:href="#DejaVuSans-Oblique-3b2" transform="translate(0 0.390625)"/>
     <use xlink:href="#DejaVuSans-3d" transform="translate(63.818359 0.390625)"/>
     <use xlink:href="#DejaVuSans-30" transform="translate(147.607422 0.390625)"/>
     <use xlink:href="#DejaVuSans-b0" transform="translate(211.230469 0.390625)"/>
    </g>
   </g>
   <g id="legend_1">
    <g id="patch_7">
     <path d="M 69.39 183.48 
L 133.929062 183.48 
Q 135.929062 183.48 135.929062 181.48 
L 135.929062 138.445625 
Q 135.929062 136.445625 133.929062 136.445625 
L 69.39 136.445625 
Q 67.39 136.445625 67.39 138.445625 
L 67.39 181.48 
Q 67.39 183.48 69.39 183.48 
z
" style="fill: #ffffff; opacity: 0.8; stroke: #cccccc; stroke-linejoin: miter"/>
    </g>
    <g id="line2d_22">
     <path d="M 71.39 144.544062 
L 81.39 144.544062 
L 91.39 144.544062 
" style="fill: none; stroke: #000000; stroke-width: 0.75; stroke-linecap: square"/>
    </g>
    <g id="text_8">
     <!-- Tunnel -->
     <g transform="translate(99.39 148.044062)scale(0.1 -0.1)">
      <defs>
       <path id="DejaVuSans-54" d="M -19 4666 
L 3928 4666 
L 3928 4134 
L 2272 4134 
L 2272 0 
L 1638 0 
L 1638 4134 
L -19 4134 
L -19 4666 
z
" transform="scale(0.015625)"/>
       <path id="DejaVuSans-75" d="M 544 1381 
L 544 3500 
L 1119 3500 
L 1119 1403 
Q 1119 906 1312 657 
Q 1506 409 1894 409 
Q 2359 409 2629 706 
Q 2900 1003 2900 1516 
L 2900 3500 
L 3475 3500 
L 3475 0 
L 2900 0 
L 2900 538 
Q 2691 219 2414 64 
Q 2138 -91 1772 -91 
Q 1169 -91 856 284 
Q 544 659 544 1381 
z
M 1991 3584 
L 1991 3584 
z
" transform="scale(0.015625)"/>
       <path id="DejaVuSans-6e" d="M 3513 2113 
L 3513 0 
L 2938 0 
L 2938 2094 
Q 2938 2591 2744 2837 
Q 2550 3084 2163 3084 
Q 1697 3084 1428 2787 
Q 1159 2491 1159 1978 
L 1159 0 
L 581 0 
L 581 3500 
L 1159 3500 
L 1159 2956 
Q 1366 3272 1645 3428 
Q 1925 3584 2291 3584 
Q 2894 3584 3203 3211 
Q 3513 2838 3513 2113 
z
" transform="scale(0.015625)"/>
       <path id="DejaVuSans-65" d="M 3597 1894 
L 3597 1613 
L 953 1613 
Q 991 1019 1311 708 
Q 1631 397 2203 397 
Q 2534 397 2845 478 
Q 3156 559 3463 722 
L 3463 178 
Q 3153 47 2828 -22 
Q 2503 -91 2169 -91 
Q 1331 -91 842 396 
Q 353 884 353 1716 
Q 353 2575 817 3079 
Q 1281 3584 2069 3584 
Q 2775 3584 3186 3129 
Q 3597 2675 3597 1894 
z
M 3022 2063 
Q 3016 2534 2758 2815 
Q 2500 3097 2075 3097 
Q 1594 3097 1305 2825 
Q 1016 2553 972 2059 
L 3022 2063 
z
" transform="scale(0.015625)"/>
      </defs>
      <use xlink:href="#DejaVuSans-54"/>
      <use xlink:href="#DejaVuSans-75" x="45.958984"/>
      <use xlink:href="#DejaVuSans-6e" x="109.337891"/>
      <use xlink:href="#DejaVuSans-6e" x="172.716797"/>
      <use xlink:href="#DejaVuSans-65" x="236.095703"/>
      <use xlink:href="#DejaVuSans-6c" x="297.619141"/>
     </g>
    </g>
    <g id="line2d_23">
     <path d="M 71.39 159.222188 
L 81.39 159.222188 
L 91.39 159.222188 
" style="fill: none; stroke-dasharray: 2.775,1.2; stroke-dashoffset: 0; stroke: #0000ff; stroke-width: 0.75"/>
    </g>
    <g id="text_9">
     <!-- AVL -->
     <g transform="translate(99.39 162.722188)scale(0.1 -0.1)">
      <defs>
       <path id="DejaVuSans-41" d="M 2188 4044 
L 1331 1722 
L 3047 1722 
L 2188 4044 
z
M 1831 4666 
L 2547 4666 
L 4325 0 
L 3669 0 
L 3244 1197 
L 1141 1197 
L 716 0 
L 50 0 
L 1831 4666 
z
" transform="scale(0.015625)"/>
       <path id="DejaVuSans-56" d="M 1831 0 
L 50 4666 
L 709 4666 
L 2188 738 
L 3669 4666 
L 4325 4666 
L 2547 0 
L 1831 0 
z
" transform="scale(0.015625)"/>
       <path id="DejaVuSans-4c" d="M 628 4666 
L 1259 4666 
L 1259 531 
L 3531 531 
L 3531 0 
L 628 0 
L 628 4666 
z
" transform="scale(0.015625)"/>
      </defs>
      <use xlink:href="#DejaVuSans-41"/>
      <use xlink:href="#DejaVuSans-56" x="62.033203"/>
      <use xlink:href="#DejaVuSans-4c" x="130.441406"/>
     </g>
    </g>
    <g id="line2d_24">
     <path d="M 71.39 173.900312 
L 81.39 173.900312 
L 91.39 173.900312 
" style="fill: none; stroke-dasharray: 3.7,1.6; stroke-dashoffset: 0; stroke: #ff0000"/>
    </g>
    <g id="text_10">
     <!-- NLLT -->
     <g transform="translate(99.39 177.400312)scale(0.1 -0.1)">
      <defs>
       <path id="DejaVuSans-4e" d="M 628 4666 
L 1478 4666 
L 3547 763 
L 3547 4666 
L 4159 4666 
L 4159 0 
L 3309 0 
L 1241 3903 
L 1241 0 
L 628 0 
L 628 4666 
z
" transform="scale(0.015625)"/>
      </defs>
      <use xlink:href="#DejaVuSans-4e"/>
      <use xlink:href="#DejaVuSans-4c" x="74.804688"/>
      <use xlink:href="#DejaVuSans-4c" x="130.517578"/>
      <use xlink:href="#DejaVuSans-54" x="172.480469"/>
     </g>
    </g>
   </g>
  </g>
  <g id="axes_2">
   <g id="patch_8">
    <path d="M 252.06 188.48 
L 421.2 188.48 
L 421.2 28.32 
L 252.06 28.32 
z
" style="fill: #ffffff"/>
   </g>
   <g id="matplotlib.axis_3">
    <g id="xtick_5">
     <g id="line2d_25">
      <path d="M 252.06 188.48 
L 252.06 28.32 
" clip-path="url(#p19347fec12)" style="fill: none; stroke-dasharray: 2.96,1.28; stroke-dashoffset: 0; stroke: #d3d3d3; stroke-width: 0.8"/>
     </g>
     <g id="line2d_26">
      <g>
       <use xlink:href="#m1b3e0b2016" x="252.06" y="188.48" style="stroke: #000000; stroke-width: 0.8"/>
      </g>
     </g>
    </g>
    <g id="xtick_6">
     <g id="line2d_27">
      <path d="M 300.385714 188.48 
L 300.385714 28.32 
" clip-path="url(#p19347fec12)" style="fill: none; stroke-dasharray: 2.96,1.28; stroke-dashoffset: 0; stroke: #d3d3d3; stroke-width: 0.8"/>
     </g>
     <g id="line2d_28">
      <g>
       <use xlink:href="#m1b3e0b2016" x="300.385714" y="188.48" style="stroke: #000000; stroke-width: 0.8"/>
      </g>
     </g>
    </g>
    <g id="xtick_7">
     <g id="line2d_29">
      <path d="M 348.711429 188.48 
L 348.711429 28.32 
" clip-path="url(#p19347fec12)" style="fill: none; stroke-dasharray: 2.96,1.28; stroke-dashoffset: 0; stroke: #d3d3d3; stroke-width: 0.8"/>
     </g>
     <g id="line2d_30">
      <g>
       <use xlink:href="#m1b3e0b2016" x="348.711429" y="188.48" style="stroke: #000000; stroke-width: 0.8"/>
      </g>
     </g>
    </g>
    <g id="xtick_8">
     <g id="line2d_31">
      <path d="M 397.037143 188.48 
L 397.037143 28.32 
" clip-path="url(#p19347fec12)" style="fill: none; stroke-dasharray: 2.96,1.28; stroke-dashoffset: 0; stroke: #d3d3d3; stroke-width: 0.8"/>
     </g>
     <g id="line2d_32">
      <g>
       <use xlink:href="#m1b3e0b2016" x="397.037143" y="188.48" style="stroke: #000000; stroke-width: 0.8"/>
      </g>
     </g>
    </g>
   </g>
   <g id="matplotlib.axis_4">
    <g id="ytick_6">
     <g id="line2d_33">
      <path d="M 252.06 181.942857 
L 421.2 181.942857 
" clip-path="url(#p19347fec12)" style="fill: none; stroke-dasharray: 2.96,1.28; stroke-dashoffset: 0; stroke: #d3d3d3; stroke-width: 0.8"/>
     </g>
     <g id="line2d_34">
      <g>
       <use xlink:href="#md5b796ff5a" x="252.06" y="181.942857" style="stroke: #000000; stroke-width: 0.8"/>
      </g>
     </g>
    </g>
    <g id="ytick_7">
     <g id="line2d_35">
      <path d="M 252.06 149.257143 
L 421.2 149.257143 
" clip-path="url(#p19347fec12)" style="fill: none; stroke-dasharray: 2.96,1.28; stroke-dashoffset: 0; stroke: #d3d3d3; stroke-width: 0.8"/>
     </g>
     <g id="line2d_36">
      <g>
       <use xlink:href="#md5b796ff5a" x="252.06" y="149.257143" style="stroke: #000000; stroke-width: 0.8"/>
      </g>
     </g>
    </g>
    <g id="ytick_8">
     <g id="line2d_37">
      <path d="M 252.06 116.571429 
L 421.2 116.571429 
" clip-path="url(#p19347fec12)" style="fill: none; stroke-dasharray: 2.96,1.28; stroke-dashoffset: 0; stroke: #d3d3d3; stroke-width: 0.8"/>
     </g>
     <g id="line2d_38">
      <g>
       <use xlink:href="#md5b796ff5a" x="252.06" y="116.571429" style="stroke: #000000; stroke-width: 0.8"/>
      </g>
     </g>
    </g>
    <g id="ytick_9">
     <g id="line2d_39">
      <path d="M 252.06 83.885714 
L 421.2 83.885714 
" clip-path="url(#p19347fec12)" style="fill: none; stroke-dasharray: 2.96,1.28; stroke-dashoffset: 0; stroke: #d3d3d3; stroke-width: 0.8"/>
     </g>
     <g id="line2d_40">
      <g>
       <use xlink:href="#md5b796ff5a" x="252.06" y="83.885714" style="stroke: #000000; stroke-width: 0.8"/>
      </g>
     </g>
    </g>
    <g id="ytick_10">
     <g id="line2d_41">
      <path d="M 252.06 51.2 
L 421.2 51.2 
" clip-path="url(#p19347fec12)" style="fill: none; stroke-dasharray: 2.96,1.28; stroke-dashoffset: 0; stroke: #d3d3d3; stroke-width: 0.8"/>
     </g>
     <g id="line2d_42">
      <g>
       <use xlink:href="#md5b796ff5a" x="252.06" y="51.2" style="stroke: #000000; stroke-width: 0.8"/>
      </g>
     </g>
    </g>
   </g>
   <g id="line2d_43">
    <path d="M 274.38648 83.042423 
L 276.996069 83.669989 
L 279.653983 84.441371 
L 282.263571 84.964343 
L 284.87316 84.918583 
L 287.531074 85.631131 
L 290.140663 85.716114 
L 292.798577 86.467886 
L 295.456491 86.121417 
L 298.06608 87.219657 
L 300.723994 87.036617 
L 303.333583 87.605349 
L 305.991497 87.729554 
L 308.601086 87.370011 
L 311.259 88.134857 
L 313.868589 87.94528 
L 316.478177 87.585737 
L 319.136091 88.049874 
L 321.794006 88.154469 
L 324.403594 89.036983 
L 327.013183 88.958537 
L 329.671097 88.762423 
L 332.280686 88.952 
L 334.9386 88.880091 
L 337.548189 89.324617 
L 340.157777 89.95872 
L 342.815691 89.631863 
L 345.473606 89.814903 
L 348.034869 89.50112 
L 350.692783 90.390171 
L 353.302371 90.592823 
L 355.91196 91.083109 
L 358.521549 91.246537 
L 361.131137 91.9264 
L 363.789051 91.174629 
L 366.350314 91.521097 
L 369.008229 91.455726 
L 371.666143 90.573211 
L 374.227406 90.985051 
L 376.933646 91.481874 
L 379.59156 90.775863 
L 382.152823 90.298651 
L 384.762411 88.919314 
L 387.420326 88.154469 
L 389.981589 87.958354 
L 392.639503 87.572663 
L 395.297417 87.847223 
L 397.907006 87.010469 
L 400.468269 86.807817 
L 403.126183 88.762423 
L 405.832423 91.749897 
" clip-path="url(#p19347fec12)" style="fill: none; stroke: #000000; stroke-width: 0.75; stroke-linecap: square"/>
   </g>
   <g id="line2d_44">
    <path d="M 271.390286 64.993371 
L 273.806571 65.6144 
L 276.222857 66.235429 
L 278.639143 66.856457 
L 281.055429 67.477486 
L 283.471714 68.091977 
L 285.888 68.706469 
L 288.304286 69.32096 
L 290.720571 69.935451 
L 293.136857 70.543406 
L 295.553143 71.15136 
L 297.969429 71.765851 
L 300.385714 72.367269 
L 302.802 72.975223 
L 305.218286 73.57664 
L 307.634571 74.178057 
L 310.050857 74.779474 
L 312.467143 75.380891 
L 314.883429 75.975771 
L 317.299714 76.570651 
L 319.716 77.158994 
L 322.132286 77.753874 
L 324.548571 78.342217 
L 326.964857 78.93056 
L 329.381143 79.512366 
L 331.797429 80.094171 
L 334.213714 80.675977 
L 336.63 81.251246 
L 339.046286 81.826514 
L 341.462571 82.401783 
L 343.878857 82.970514 
L 346.295143 83.539246 
L 348.711429 84.107977 
L 351.127714 84.670171 
L 353.544 85.232366 
L 355.960286 85.788023 
L 358.376571 86.34368 
L 360.792857 86.899337 
L 363.209143 87.448457 
L 365.625429 87.997577 
L 368.041714 88.54016 
L 370.458 89.082743 
L 372.874286 89.618789 
L 375.290571 90.154834 
L 377.706857 90.69088 
L 380.123143 91.220389 
L 382.539429 91.749897 
L 384.955714 92.272869 
L 387.372 92.789303 
L 389.788286 93.312274 
L 392.204571 93.822171 
L 394.620857 94.332069 
L 397.037143 94.841966 
L 399.453429 95.345326 
L 401.869714 95.848686 
L 404.286 96.345509 
L 406.702286 96.842331 
" clip-path="url(#p19347fec12)" style="fill: none; stroke-dasharray: 2.775,1.2; stroke-dashoffset: 0; stroke: #0000ff; stroke-width: 0.75"/>
   </g>
   <g id="line2d_45">
    <path d="M 276.222857 76.897846 
L 278.639143 77.244234 
L 281.055429 77.580656 
L 283.471714 77.897723 
L 285.888 78.20641 
L 288.304286 78.499551 
L 290.720571 78.780969 
L 293.136857 79.047469 
L 295.553143 79.30659 
L 297.969429 79.554625 
L 300.385714 79.793683 
L 302.802 80.023633 
L 305.218286 80.243502 
L 307.634571 80.457635 
L 310.050857 80.66898 
L 312.467143 80.870287 
L 314.883429 81.06555 
L 317.299714 81.265158 
L 319.716 81.453327 
L 322.132286 81.634755 
L 324.548571 81.817772 
L 326.964857 81.99752 
L 329.381143 82.1683 
L 331.797429 82.338589 
L 334.213714 82.499476 
L 336.63 82.646865 
L 339.046286 82.799531 
L 341.462571 82.935909 
L 343.878857 83.060438 
L 346.295143 83.178939 
L 348.711429 83.270775 
L 351.127714 83.355064 
L 353.544 83.424438 
L 355.960286 83.467545 
L 358.376571 83.476347 
L 360.792857 83.462534 
L 363.209143 83.416623 
L 365.625429 83.330018 
L 368.041714 83.202685 
L 370.458 83.003264 
L 372.874286 82.793311 
L 375.290571 82.502238 
L 377.706857 82.136126 
L 380.123143 81.681606 
L 382.539429 81.150563 
L 384.955714 80.499249 
L 387.372 79.736521 
L 389.788286 78.881198 
L 392.204571 77.967498 
L 394.620857 77.019156 
L 397.037143 76.121806 
L 399.453429 75.445164 
L 401.869714 74.72236 
L 404.286 74.176704 
L 406.702286 73.939164 
" clip-path="url(#p19347fec12)" style="fill: none; stroke-dasharray: 3.7,1.6; stroke-dashoffset: 0; stroke: #ff0000"/>
   </g>
   <g id="patch_9">
    <path d="M 252.06 188.48 
L 252.06 28.32 
" style="fill: none; stroke: #000000; stroke-width: 0.8; stroke-linejoin: miter; stroke-linecap: square"/>
   </g>
   <g id="patch_10">
    <path d="M 421.2 188.48 
L 421.2 28.32 
" style="fill: none; stroke: #000000; stroke-width: 0.8; stroke-linejoin: miter; stroke-linecap: square"/>
   </g>
   <g id="patch_11">
    <path d="M 252.06 188.48 
L 421.2 188.48 
" style="fill: none; stroke: #000000; stroke-width: 0.8; stroke-linejoin: miter; stroke-linecap: square"/>
   </g>
   <g id="patch_12">
    <path d="M 252.06 28.32 
L 421.2 28.32 
" style="fill: none; stroke: #000000; stroke-width: 0.8; stroke-linejoin: miter; stroke-linecap: square"/>
   </g>
   <g id="text_11">
    <!-- $\beta$=5° -->
    <g transform="translate(320.91 22.32)scale(0.12 -0.12)">
     <use xlink:href="#DejaVuSans-Oblique-3b2" transform="translate(0 0.390625)"/>
     <use xlink:href="#DejaVuSans-3d" transform="translate(63.818359 0.390625)"/>
     <use xlink:href="#DejaVuSans-35" transform="translate(147.607422 0.390625)"/>
     <use xlink:href="#DejaVuSans-b0" transform="translate(211.230469 0.390625)"/>
    </g>
   </g>
  </g>
  <g id="axes_3">
   <g id="patch_13">
    <path d="M 62.39 387.16 
L 231.53 387.16 
L 231.53 227 
L 62.39 227 
z
" style="fill: #ffffff"/>
   </g>
   <g id="matplotlib.axis_5">
    <g id="xtick_9">
     <g id="line2d_46">
      <path d="M 62.39 387.16 
L 62.39 227 
" clip-path="url(#p67f94ef40c)" style="fill: none; stroke-dasharray: 2.96,1.28; stroke-dashoffset: 0; stroke: #d3d3d3; stroke-width: 0.8"/>
     </g>
     <g id="line2d_47">
      <g>
       <use xlink:href="#m1b3e0b2016" x="62.39" y="387.16" style="stroke: #000000; stroke-width: 0.8"/>
      </g>
     </g>
     <g id="text_12">
      <!-- −10 -->
      <g transform="translate(51.837656 401.758437)scale(0.1 -0.1)">
       <use xlink:href="#DejaVuSans-2212"/>
       <use xlink:href="#DejaVuSans-31" x="83.789062"/>
       <use xlink:href="#DejaVuSans-30" x="147.412109"/>
      </g>
     </g>
    </g>
    <g id="xtick_10">
     <g id="line2d_48">
      <path d="M 110.715714 387.16 
L 110.715714 227 
" clip-path="url(#p67f94ef40c)" style="fill: none; stroke-dasharray: 2.96,1.28; stroke-dashoffset: 0; stroke: #d3d3d3; stroke-width: 0.8"/>
     </g>
     <g id="line2d_49">
      <g>
       <use xlink:href="#m1b3e0b2016" x="110.715714" y="387.16" style="stroke: #000000; stroke-width: 0.8"/>
      </g>
     </g>
     <g id="text_13">
      <!-- 0 -->
      <g transform="translate(107.534464 401.758437)scale(0.1 -0.1)">
       <use xlink:href="#DejaVuSans-30"/>
      </g>
     </g>
    </g>
    <g id="xtick_11">
     <g id="line2d_50">
      <path d="M 159.041429 387.16 
L 159.041429 227 
" clip-path="url(#p67f94ef40c)" style="fill: none; stroke-dasharray: 2.96,1.28; stroke-dashoffset: 0; stroke: #d3d3d3; stroke-width: 0.8"/>
     </g>
     <g id="line2d_51">
      <g>
       <use xlink:href="#m1b3e0b2016" x="159.041429" y="387.16" style="stroke: #000000; stroke-width: 0.8"/>
      </g>
     </g>
     <g id="text_14">
      <!-- 10 -->
      <g transform="translate(152.678929 401.758437)scale(0.1 -0.1)">
       <use xlink:href="#DejaVuSans-31"/>
       <use xlink:href="#DejaVuSans-30" x="63.623047"/>
      </g>
     </g>
    </g>
    <g id="xtick_12">
     <g id="line2d_52">
      <path d="M 207.367143 387.16 
L 207.367143 227 
" clip-path="url(#p67f94ef40c)" style="fill: none; stroke-dasharray: 2.96,1.28; stroke-dashoffset: 0; stroke: #d3d3d3; stroke-width: 0.8"/>
     </g>
     <g id="line2d_53">
      <g>
       <use xlink:href="#m1b3e0b2016" x="207.367143" y="387.16" style="stroke: #000000; stroke-width: 0.8"/>
      </g>
     </g>
     <g id="text_15">
      <!-- 20 -->
      <g transform="translate(201.004643 401.758437)scale(0.1 -0.1)">
       <use xlink:href="#DejaVuSans-32"/>
       <use xlink:href="#DejaVuSans-30" x="63.623047"/>
      </g>
     </g>
    </g>
    <g id="text_16">
     <!-- $\alpha$ [deg] -->
     <g transform="translate(128.71 415.438125)scale(0.1 -0.1)">
      <defs>
       <path id="DejaVuSans-Oblique-3b1" d="M 2619 1628 
L 2622 2350 
Q 2625 3088 2069 3091 
Q 1653 3094 1394 2747 
Q 1069 2319 959 1747 
Q 825 1059 994 731 
Q 1169 397 1547 397 
Q 1966 397 2319 1063 
L 2619 1628 
z
M 2166 3578 
Q 3141 3594 3128 2584 
Q 3128 2584 3616 3500 
L 4128 3500 
L 3119 1603 
L 3109 919 
Q 3109 766 3194 638 
Q 3291 488 3391 488 
L 3669 488 
L 3575 0 
L 3228 0 
Q 2934 0 2722 263 
Q 2622 394 2619 669 
Q 2416 334 2066 50 
Q 1900 -81 1453 -78 
Q 722 -72 456 397 
Q 184 884 353 1747 
Q 534 2675 1009 3097 
Q 1544 3569 2166 3578 
z
" transform="scale(0.015625)"/>
       <path id="DejaVuSans-20" transform="scale(0.015625)"/>
       <path id="DejaVuSans-5b" d="M 550 4863 
L 1875 4863 
L 1875 4416 
L 1125 4416 
L 1125 -397 
L 1875 -397 
L 1875 -844 
L 550 -844 
L 550 4863 
z
" transform="scale(0.015625)"/>
       <path id="DejaVuSans-64" d="M 2906 2969 
L 2906 4863 
L 3481 4863 
L 3481 0 
L 2906 0 
L 2906 525 
Q 2725 213 2448 61 
Q 2172 -91 1784 -91 
Q 1150 -91 751 415 
Q 353 922 353 1747 
Q 353 2572 751 3078 
Q 1150 3584 1784 3584 
Q 2172 3584 2448 3432 
Q 2725 3281 2906 2969 
z
M 947 1747 
Q 947 1113 1208 752 
Q 1469 391 1925 391 
Q 2381 391 2643 752 
Q 2906 1113 2906 1747 
Q 2906 2381 2643 2742 
Q 2381 3103 1925 3103 
Q 1469 3103 1208 2742 
Q 947 2381 947 1747 
z
" transform="scale(0.015625)"/>
       <path id="DejaVuSans-67" d="M 2906 1791 
Q 2906 2416 2648 2759 
Q 2391 3103 1925 3103 
Q 1463 3103 1205 2759 
Q 947 2416 947 1791 
Q 947 1169 1205 825 
Q 1463 481 1925 481 
Q 2391 481 2648 825 
Q 2906 1169 2906 1791 
z
M 3481 434 
Q 3481 -459 3084 -895 
Q 2688 -1331 1869 -1331 
Q 1566 -1331 1297 -1286 
Q 1028 -1241 775 -1147 
L 775 -588 
Q 1028 -725 1275 -790 
Q 1522 -856 1778 -856 
Q 2344 -856 2625 -561 
Q 2906 -266 2906 331 
L 2906 616 
Q 2728 306 2450 153 
Q 2172 0 1784 0 
Q 1141 0 747 490 
Q 353 981 353 1791 
Q 353 2603 747 3093 
Q 1141 3584 1784 3584 
Q 2172 3584 2450 3431 
Q 2728 3278 2906 2969 
L 2906 3500 
L 3481 3500 
L 3481 434 
z
" transform="scale(0.015625)"/>
       <path id="DejaVuSans-5d" d="M 1947 4863 
L 1947 -844 
L 622 -844 
L 622 -397 
L 1369 -397 
L 1369 4416 
L 622 4416 
L 622 4863 
L 1947 4863 
z
" transform="scale(0.015625)"/>
      </defs>
      <use xlink:href="#DejaVuSans-Oblique-3b1" transform="translate(0 0.015625)"/>
      <use xlink:href="#DejaVuSans-20" transform="translate(65.917969 0.015625)"/>
      <use xlink:href="#DejaVuSans-5b" transform="translate(97.705078 0.015625)"/>
      <use xlink:href="#DejaVuSans-64" transform="translate(136.71875 0.015625)"/>
      <use xlink:href="#DejaVuSans-65" transform="translate(200.195312 0.015625)"/>
      <use xlink:href="#DejaVuSans-67" transform="translate(261.71875 0.015625)"/>
      <use xlink:href="#DejaVuSans-5d" transform="translate(325.195312 0.015625)"/>
     </g>
    </g>
   </g>
   <g id="matplotlib.axis_6">
    <g id="ytick_11">
     <g id="line2d_54">
      <path d="M 62.39 380.622857 
L 231.53 380.622857 
" clip-path="url(#p67f94ef40c)" style="fill: none; stroke-dasharray: 2.96,1.28; stroke-dashoffset: 0; stroke: #d3d3d3; stroke-width: 0.8"/>
     </g>
     <g id="line2d_55">
      <g>
       <use xlink:href="#md5b796ff5a" x="62.39" y="380.622857" style="stroke: #000000; stroke-width: 0.8"/>
      </g>
     </g>
     <g id="text_17">
      <!-- −0.20 -->
      <g transform="translate(24.744687 384.422076)scale(0.1 -0.1)">
       <use xlink:href="#DejaVuSans-2212"/>
       <use xlink:href="#DejaVuSans-30" x="83.789062"/>
       <use xlink:href="#DejaVuSans-2e" x="147.412109"/>
       <use xlink:href="#DejaVuSans-32" x="179.199219"/>
       <use xlink:href="#DejaVuSans-30" x="242.822266"/>
      </g>
     </g>
    </g>
    <g id="ytick_12">
     <g id="line2d_56">
      <path d="M 62.39 347.937143 
L 231.53 347.937143 
" clip-path="url(#p67f94ef40c)" style="fill: none; stroke-dasharray: 2.96,1.28; stroke-dashoffset: 0; stroke: #d3d3d3; stroke-width: 0.8"/>
     </g>
     <g id="line2d_57">
      <g>
       <use xlink:href="#md5b796ff5a" x="62.39" y="347.937143" style="stroke: #000000; stroke-width: 0.8"/>
      </g>
     </g>
     <g id="text_18">
      <!-- −0.15 -->
      <g transform="translate(24.744687 351.736362)scale(0.1 -0.1)">
       <use xlink:href="#DejaVuSans-2212"/>
       <use xlink:href="#DejaVuSans-30" x="83.789062"/>
       <use xlink:href="#DejaVuSans-2e" x="147.412109"/>
       <use xlink:href="#DejaVuSans-31" x="179.199219"/>
       <use xlink:href="#DejaVuSans-35" x="242.822266"/>
      </g>
     </g>
    </g>
    <g id="ytick_13">
     <g id="line2d_58">
      <path d="M 62.39 315.251429 
L 231.53 315.251429 
" clip-path="url(#p67f94ef40c)" style="fill: none; stroke-dasharray: 2.96,1.28; stroke-dashoffset: 0; stroke: #d3d3d3; stroke-width: 0.8"/>
     </g>
     <g id="line2d_59">
      <g>
       <use xlink:href="#md5b796ff5a" x="62.39" y="315.251429" style="stroke: #000000; stroke-width: 0.8"/>
      </g>
     </g>
     <g id="text_19">
      <!-- −0.10 -->
      <g transform="translate(24.744687 319.050647)scale(0.1 -0.1)">
       <use xlink:href="#DejaVuSans-2212"/>
       <use xlink:href="#DejaVuSans-30" x="83.789062"/>
       <use xlink:href="#DejaVuSans-2e" x="147.412109"/>
       <use xlink:href="#DejaVuSans-31" x="179.199219"/>
       <use xlink:href="#DejaVuSans-30" x="242.822266"/>
      </g>
     </g>
    </g>
    <g id="ytick_14">
     <g id="line2d_60">
      <path d="M 62.39 282.565714 
L 231.53 282.565714 
" clip-path="url(#p67f94ef40c)" style="fill: none; stroke-dasharray: 2.96,1.28; stroke-dashoffset: 0; stroke: #d3d3d3; stroke-width: 0.8"/>
     </g>
     <g id="line2d_61">
      <g>
       <use xlink:href="#md5b796ff5a" x="62.39" y="282.565714" style="stroke: #000000; stroke-width: 0.8"/>
      </g>
     </g>
     <g id="text_20">
      <!-- −0.05 -->
      <g transform="translate(24.744687 286.364933)scale(0.1 -0.1)">
       <use xlink:href="#DejaVuSans-2212"/>
       <use xlink:href="#DejaVuSans-30" x="83.789062"/>
       <use xlink:href="#DejaVuSans-2e" x="147.412109"/>
       <use xlink:href="#DejaVuSans-30" x="179.199219"/>
       <use xlink:href="#DejaVuSans-35" x="242.822266"/>
      </g>
     </g>
    </g>
    <g id="ytick_15">
     <g id="line2d_62">
      <path d="M 62.39 249.88 
L 231.53 249.88 
" clip-path="url(#p67f94ef40c)" style="fill: none; stroke-dasharray: 2.96,1.28; stroke-dashoffset: 0; stroke: #d3d3d3; stroke-width: 0.8"/>
     </g>
     <g id="line2d_63">
      <g>
       <use xlink:href="#md5b796ff5a" x="62.39" y="249.88" style="stroke: #000000; stroke-width: 0.8"/>
      </g>
     </g>
     <g id="text_21">
      <!-- 0.00 -->
      <g transform="translate(33.124375 253.679219)scale(0.1 -0.1)">
       <use xlink:href="#DejaVuSans-30"/>
       <use xlink:href="#DejaVuSans-2e" x="63.623047"/>
       <use xlink:href="#DejaVuSans-30" x="95.410156"/>
       <use xlink:href="#DejaVuSans-30" x="159.033203"/>
      </g>
     </g>
    </g>
    <g id="text_22">
     <!-- Cl -->
     <g transform="translate(18.665 311.960469)rotate(-90)scale(0.1 -0.1)">
      <use xlink:href="#DejaVuSans-43"/>
      <use xlink:href="#DejaVuSans-6c" x="69.824219"/>
     </g>
    </g>
   </g>
   <g id="line2d_64">
    <path d="M 84.71648 315.022629 
L 87.326069 316.258149 
L 89.935657 317.349851 
L 92.593571 317.480594 
L 95.251486 318.454629 
L 97.861074 318.193143 
L 100.470663 319.173714 
L 103.128577 319.762057 
L 105.786491 320.239269 
L 108.39608 320.389623 
L 111.005669 320.951817 
L 113.663583 321.049874 
L 116.321497 322.945646 
L 118.931086 323.089463 
L 121.540674 323.96544 
L 124.198589 323.945829 
L 126.808177 324.978697 
L 129.466091 325.416686 
L 132.124006 325.835063 
L 134.733594 326.737189 
L 137.391509 326.135771 
L 140.001097 326.397257 
L 142.610686 326.48224 
L 145.220274 326.946377 
L 147.878189 327.240549 
L 150.536103 326.835246 
L 153.145691 326.403794 
L 155.75528 326.292663 
L 158.364869 326.599909 
L 160.974457 325.305554 
L 163.632371 324.403429 
L 166.290286 323.377097 
L 168.899874 321.899703 
L 171.509463 322.056594 
L 174.070726 322.010834 
L 176.776966 320.448457 
L 179.338229 319.670537 
L 181.996143 319.422126 
L 184.605731 317.657097 
L 187.21532 316.885714 
L 189.824909 315.120686 
L 192.434497 309.819063 
L 195.140737 311.963246 
L 197.798651 304.249417 
L 200.359914 305.831406 
L 202.921177 300.523246 
L 205.675743 299.235429 
L 208.237006 295.352366 
L 210.89492 293.463131 
L 213.552834 301.837211 
L 216.114097 300.281371 
" clip-path="url(#p67f94ef40c)" style="fill: none; stroke: #000000; stroke-width: 0.75; stroke-linecap: square"/>
   </g>
   <g id="line2d_65">
    <path d="M 81.720286 277.048366 
L 84.136571 278.277349 
L 86.552857 279.499794 
L 88.969143 280.715703 
L 91.385429 281.931611 
L 93.801714 283.14752 
L 96.218 284.363429 
L 98.634286 285.5728 
L 101.050571 286.775634 
L 103.466857 287.978469 
L 105.883143 289.181303 
L 108.299429 290.3776 
L 110.715714 291.573897 
L 113.132 292.770194 
L 115.548286 293.953417 
L 117.964571 295.143177 
L 120.380857 296.3264 
L 122.797143 297.503086 
L 125.213429 298.673234 
L 127.629714 299.84992 
L 130.046 301.013531 
L 132.462286 302.177143 
L 134.878571 303.334217 
L 137.294857 304.491291 
L 139.711143 305.641829 
L 142.127429 306.792366 
L 144.543714 307.929829 
L 146.96 309.073829 
L 149.376286 310.204754 
L 151.792571 311.33568 
L 154.208857 312.460069 
L 156.625143 313.57792 
L 159.041429 314.689234 
L 161.457714 315.800549 
L 163.874 316.905326 
L 166.290286 318.003566 
L 168.706571 319.101806 
L 171.122857 320.186971 
L 173.539143 321.272137 
L 175.955429 322.350766 
L 178.371714 323.422857 
L 180.788 324.494949 
L 183.204286 325.553966 
L 185.620571 326.606446 
L 188.036857 327.658926 
L 190.453143 328.704869 
L 192.869429 329.744274 
L 195.285714 330.770606 
L 197.702 331.796937 
L 200.118286 332.816731 
L 202.534571 333.829989 
L 204.950857 334.836709 
L 207.367143 335.836891 
L 209.783429 336.830537 
L 212.199714 337.817646 
L 214.616 338.798217 
L 217.032286 339.772251 
" clip-path="url(#p67f94ef40c)" style="fill: none; stroke-dasharray: 2.775,1.2; stroke-dashoffset: 0; stroke: #0000ff; stroke-width: 0.75"/>
   </g>
   <g id="line2d_66">
    <path d="M 86.552857 299.44416 
L 88.969143 300.181481 
L 91.385429 300.884817 
L 93.801714 301.572328 
L 96.218 302.221911 
L 98.634286 302.858679 
L 101.050571 303.475201 
L 103.466857 304.056758 
L 105.883143 304.617039 
L 108.299429 305.157592 
L 110.715714 305.679627 
L 113.132 306.176273 
L 115.548286 306.653893 
L 117.964571 307.104289 
L 120.380857 307.542143 
L 122.797143 307.959772 
L 125.213429 308.346268 
L 127.629714 308.719297 
L 130.046 309.071432 
L 132.462286 309.390047 
L 134.878571 309.68713 
L 137.294857 309.952691 
L 139.711143 310.19755 
L 142.127429 310.401667 
L 144.543714 310.580926 
L 146.96 310.701731 
L 149.376286 310.800354 
L 151.792571 310.829647 
L 154.208857 310.813832 
L 156.625143 310.719491 
L 159.041429 310.563392 
L 161.457714 310.298821 
L 163.874 309.904872 
L 166.290286 309.327732 
L 168.706571 308.49788 
L 171.122857 307.279616 
L 173.539143 305.879575 
L 175.955429 304.782229 
L 178.371714 304.057871 
L 180.788 303.510099 
L 183.204286 303.086133 
L 185.620571 302.658277 
L 188.036857 302.177689 
L 190.453143 301.460038 
L 192.869429 300.154771 
L 195.285714 299.382771 
L 197.702 298.957167 
L 200.118286 298.735801 
L 202.534571 298.857567 
" clip-path="url(#p67f94ef40c)" style="fill: none; stroke-dasharray: 3.7,1.6; stroke-dashoffset: 0; stroke: #ff0000"/>
   </g>
   <g id="patch_14">
    <path d="M 62.39 387.16 
L 62.39 227 
" style="fill: none; stroke: #000000; stroke-width: 0.8; stroke-linejoin: miter; stroke-linecap: square"/>
   </g>
   <g id="patch_15">
    <path d="M 231.53 387.16 
L 231.53 227 
" style="fill: none; stroke: #000000; stroke-width: 0.8; stroke-linejoin: miter; stroke-linecap: square"/>
   </g>
   <g id="patch_16">
    <path d="M 62.39 387.16 
L 231.53 387.16 
" style="fill: none; stroke: #000000; stroke-width: 0.8; stroke-linejoin: miter; stroke-linecap: square"/>
   </g>
   <g id="patch_17">
    <path d="M 62.39 227 
L 231.53 227 
" style="fill: none; stroke: #000000; stroke-width: 0.8; stroke-linejoin: miter; stroke-linecap: square"/>
   </g>
   <g id="text_23">
    <!-- $\beta$=10° -->
    <g transform="translate(127.46 221)scale(0.12 -0.12)">
     <use xlink:href="#DejaVuSans-Oblique-3b2" transform="translate(0 0.390625)"/>
     <use xlink:href="#DejaVuSans-3d" transform="translate(63.818359 0.390625)"/>
     <use xlink:href="#DejaVuSans-31" transform="translate(147.607422 0.390625)"/>
     <use xlink:href="#DejaVuSans-30" transform="translate(211.230469 0.390625)"/>
     <use xlink:href="#DejaVuSans-b0" transform="translate(274.853516 0.390625)"/>
    </g>
   </g>
  </g>
  <g id="axes_4">
   <g id="patch_18">
    <path d="M 252.06 387.16 
L 421.2 387.16 
L 421.2 227 
L 252.06 227 
z
" style="fill: #ffffff"/>
   </g>
   <g id="matplotlib.axis_7">
    <g id="xtick_13">
     <g id="line2d_67">
      <path d="M 252.06 387.16 
L 252.06 227 
" clip-path="url(#p3f81329534)" style="fill: none; stroke-dasharray: 2.96,1.28; stroke-dashoffset: 0; stroke: #d3d3d3; stroke-width: 0.8"/>
     </g>
     <g id="line2d_68">
      <g>
       <use xlink:href="#m1b3e0b2016" x="252.06" y="387.16" style="stroke: #000000; stroke-width: 0.8"/>
      </g>
     </g>
     <g id="text_24">
      <!-- −10 -->
      <g transform="translate(241.507656 401.758437)scale(0.1 -0.1)">
       <use xlink:href="#DejaVuSans-2212"/>
       <use xlink:href="#DejaVuSans-31" x="83.789062"/>
       <use xlink:href="#DejaVuSans-30" x="147.412109"/>
      </g>
     </g>
    </g>
    <g id="xtick_14">
     <g id="line2d_69">
      <path d="M 300.385714 387.16 
L 300.385714 227 
" clip-path="url(#p3f81329534)" style="fill: none; stroke-dasharray: 2.96,1.28; stroke-dashoffset: 0; stroke: #d3d3d3; stroke-width: 0.8"/>
     </g>
     <g id="line2d_70">
      <g>
       <use xlink:href="#m1b3e0b2016" x="300.385714" y="387.16" style="stroke: #000000; stroke-width: 0.8"/>
      </g>
     </g>
     <g id="text_25">
      <!-- 0 -->
      <g transform="translate(297.204464 401.758437)scale(0.1 -0.1)">
       <use xlink:href="#DejaVuSans-30"/>
      </g>
     </g>
    </g>
    <g id="xtick_15">
     <g id="line2d_71">
      <path d="M 348.711429 387.16 
L 348.711429 227 
" clip-path="url(#p3f81329534)" style="fill: none; stroke-dasharray: 2.96,1.28; stroke-dashoffset: 0; stroke: #d3d3d3; stroke-width: 0.8"/>
     </g>
     <g id="line2d_72">
      <g>
       <use xlink:href="#m1b3e0b2016" x="348.711429" y="387.16" style="stroke: #000000; stroke-width: 0.8"/>
      </g>
     </g>
     <g id="text_26">
      <!-- 10 -->
      <g transform="translate(342.348929 401.758437)scale(0.1 -0.1)">
       <use xlink:href="#DejaVuSans-31"/>
       <use xlink:href="#DejaVuSans-30" x="63.623047"/>
      </g>
     </g>
    </g>
    <g id="xtick_16">
     <g id="line2d_73">
      <path d="M 397.037143 387.16 
L 397.037143 227 
" clip-path="url(#p3f81329534)" style="fill: none; stroke-dasharray: 2.96,1.28; stroke-dashoffset: 0; stroke: #d3d3d3; stroke-width: 0.8"/>
     </g>
     <g id="line2d_74">
      <g>
       <use xlink:href="#m1b3e0b2016" x="397.037143" y="387.16" style="stroke: #000000; stroke-width: 0.8"/>
      </g>
     </g>
     <g id="text_27">
      <!-- 20 -->
      <g transform="translate(390.674643 401.758437)scale(0.1 -0.1)">
       <use xlink:href="#DejaVuSans-32"/>
       <use xlink:href="#DejaVuSans-30" x="63.623047"/>
      </g>
     </g>
    </g>
    <g id="text_28">
     <!-- $\alpha$ [deg] -->
     <g transform="translate(318.38 415.438125)scale(0.1 -0.1)">
      <use xlink:href="#DejaVuSans-Oblique-3b1" transform="translate(0 0.015625)"/>
      <use xlink:href="#DejaVuSans-20" transform="translate(65.917969 0.015625)"/>
      <use xlink:href="#DejaVuSans-5b" transform="translate(97.705078 0.015625)"/>
      <use xlink:href="#DejaVuSans-64" transform="translate(136.71875 0.015625)"/>
      <use xlink:href="#DejaVuSans-65" transform="translate(200.195312 0.015625)"/>
      <use xlink:href="#DejaVuSans-67" transform="translate(261.71875 0.015625)"/>
      <use xlink:href="#DejaVuSans-5d" transform="translate(325.195312 0.015625)"/>
     </g>
    </g>
   </g>
   <g id="matplotlib.axis_8">
    <g id="ytick_16">
     <g id="line2d_75">
      <path d="M 252.06 380.622857 
L 421.2 380.622857 
" clip-path="url(#p3f81329534)" style="fill: none; stroke-dasharray: 2.96,1.28; stroke-dashoffset: 0; stroke: #d3d3d3; stroke-width: 0.8"/>
     </g>
     <g id="line2d_76">
      <g>
       <use xlink:href="#md5b796ff5a" x="252.06" y="380.622857" style="stroke: #000000; stroke-width: 0.8"/>
      </g>
     </g>
    </g>
    <g id="ytick_17">
     <g id="line2d_77">
      <path d="M 252.06 347.937143 
L 421.2 347.937143 
" clip-path="url(#p3f81329534)" style="fill: none; stroke-dasharray: 2.96,1.28; stroke-dashoffset: 0; stroke: #d3d3d3; stroke-width: 0.8"/>
     </g>
     <g id="line2d_78">
      <g>
       <use xlink:href="#md5b796ff5a" x="252.06" y="347.937143" style="stroke: #000000; stroke-width: 0.8"/>
      </g>
     </g>
    </g>
    <g id="ytick_18">
     <g id="line2d_79">
      <path d="M 252.06 315.251429 
L 421.2 315.251429 
" clip-path="url(#p3f81329534)" style="fill: none; stroke-dasharray: 2.96,1.28; stroke-dashoffset: 0; stroke: #d3d3d3; stroke-width: 0.8"/>
     </g>
     <g id="line2d_80">
      <g>
       <use xlink:href="#md5b796ff5a" x="252.06" y="315.251429" style="stroke: #000000; stroke-width: 0.8"/>
      </g>
     </g>
    </g>
    <g id="ytick_19">
     <g id="line2d_81">
      <path d="M 252.06 282.565714 
L 421.2 282.565714 
" clip-path="url(#p3f81329534)" style="fill: none; stroke-dasharray: 2.96,1.28; stroke-dashoffset: 0; stroke: #d3d3d3; stroke-width: 0.8"/>
     </g>
     <g id="line2d_82">
      <g>
       <use xlink:href="#md5b796ff5a" x="252.06" y="282.565714" style="stroke: #000000; stroke-width: 0.8"/>
      </g>
     </g>
    </g>
    <g id="ytick_20">
     <g id="line2d_83">
      <path d="M 252.06 249.88 
L 421.2 249.88 
" clip-path="url(#p3f81329534)" style="fill: none; stroke-dasharray: 2.96,1.28; stroke-dashoffset: 0; stroke: #d3d3d3; stroke-width: 0.8"/>
     </g>
     <g id="line2d_84">
      <g>
       <use xlink:href="#md5b796ff5a" x="252.06" y="249.88" style="stroke: #000000; stroke-width: 0.8"/>
      </g>
     </g>
    </g>
   </g>
   <g id="line2d_85">
    <path d="M 274.338154 347.453394 
L 276.996069 349.551817 
L 279.653983 351.199177 
L 282.263571 352.1536 
L 284.87316 353.094949 
L 287.531074 353.454491 
L 290.188989 354.552731 
L 292.798577 355.925531 
L 295.456491 355.8144 
L 298.06608 356.945326 
L 300.723994 357.108754 
L 303.333583 357.500983 
L 305.991497 358.128549 
L 308.601086 356.919177 
L 311.210674 356.86688 
L 313.868589 352.643886 
L 316.478177 353.532937 
L 319.136091 351.166491 
L 321.74568 350.852709 
L 324.403594 349.368777 
L 327.013183 349.721783 
L 329.671097 349.257646 
L 332.280686 348.394743 
L 334.9386 348.800046 
L 337.548189 349.054994 
L 340.157777 345.341897 
L 342.815691 340.066423 
L 345.42528 341.569966 
L 348.083194 340.765897 
L 350.644457 340.275611 
L 353.254046 340.020663 
L 355.960286 338.144503 
L 358.569874 337.5104 
L 361.179463 336.954743 
L 363.837377 334.209143 
L 366.446966 335.568869 
L 369.056554 334.849783 
L 371.714469 334.470629 
L 374.275731 333.816914 
L 376.88532 332.79712 
L 379.543234 330.384914 
L 382.152823 328.711406 
L 384.810737 326.305737 
L 387.468651 321.710126 
L 389.981589 319.356754 
L 392.639503 315.68288 
L 395.297417 316.879177 
L 397.907006 308.858103 
L 400.56492 306.8512 
L 403.174509 301.503817 
L 405.784097 299.058926 
" clip-path="url(#p3f81329534)" style="fill: none; stroke: #000000; stroke-width: 0.75; stroke-linecap: square"/>
   </g>
   <g id="line2d_86">
    <path d="M 271.390286 289.59968 
L 273.806571 291.390857 
L 276.222857 293.175497 
L 278.639143 294.960137 
L 281.055429 296.73824 
L 283.471714 298.516343 
L 285.888 300.287909 
L 288.304286 302.052937 
L 290.720571 303.817966 
L 293.136857 305.582994 
L 295.553143 307.334949 
L 297.969429 309.086903 
L 300.385714 310.83232 
L 302.802 312.577737 
L 305.218286 314.316617 
L 307.634571 316.04896 
L 310.050857 317.774766 
L 312.467143 319.500571 
L 314.883429 321.213303 
L 317.299714 322.926034 
L 319.716 324.632229 
L 322.132286 326.331886 
L 324.548571 328.031543 
L 326.964857 329.718126 
L 329.381143 331.398171 
L 331.797429 333.078217 
L 334.213714 334.745189 
L 336.63 336.41216 
L 339.046286 338.066057 
L 341.462571 339.719954 
L 343.878857 341.360777 
L 346.295143 343.0016 
L 348.711429 344.629349 
L 351.127714 346.25056 
L 353.544 347.865234 
L 355.960286 349.473371 
L 358.376571 351.074971 
L 360.792857 352.663497 
L 363.209143 354.252023 
L 365.625429 355.827474 
L 368.041714 357.396389 
L 370.458 358.958766 
L 372.874286 360.508069 
L 375.290571 362.050834 
L 377.706857 363.587063 
L 380.123143 365.110217 
L 382.539429 366.626834 
L 384.955714 368.136914 
L 387.372 369.640457 
L 389.788286 371.130926 
L 392.204571 372.60832 
L 394.620857 374.079177 
L 397.037143 375.543497 
L 399.453429 376.994743 
L 401.869714 378.439451 
L 404.286 379.871086 
L 406.702286 381.296183 
" clip-path="url(#p3f81329534)" style="fill: none; stroke-dasharray: 2.775,1.2; stroke-dashoffset: 0; stroke: #0000ff; stroke-width: 0.75"/>
   </g>
   <g id="line2d_87">
    <path d="M 276.222857 320.046781 
L 278.639143 321.114388 
L 281.055429 322.152885 
L 283.471714 323.171775 
L 285.888 324.132012 
L 288.304286 325.055741 
L 290.720571 325.939747 
L 293.136857 326.775409 
L 295.553143 327.568952 
L 297.969429 328.305718 
L 300.385714 328.994286 
L 302.802 329.630952 
L 305.218286 330.199539 
L 307.634571 330.683461 
L 310.050857 331.122686 
L 312.467143 331.484674 
L 314.883429 331.741699 
L 317.299714 331.902167 
L 319.716 331.982961 
L 322.132286 331.943083 
L 324.548571 331.798739 
L 326.964857 331.527513 
L 329.381143 331.152207 
L 331.797429 330.691362 
L 334.213714 330.172397 
L 336.63 329.610519 
L 339.046286 329.00134 
L 341.462571 328.258378 
L 343.878857 327.595836 
L 346.295143 327.053115 
L 348.711429 326.538285 
L 351.127714 326.004188 
L 353.544 325.432969 
L 355.960286 324.837666 
L 358.376571 324.249302 
L 360.792857 323.656325 
" clip-path="url(#p3f81329534)" style="fill: none; stroke-dasharray: 3.7,1.6; stroke-dashoffset: 0; stroke: #ff0000"/>
   </g>
   <g id="patch_19">
    <path d="M 252.06 387.16 
L 252.06 227 
" style="fill: none; stroke: #000000; stroke-width: 0.8; stroke-linejoin: miter; stroke-linecap: square"/>
   </g>
   <g id="patch_20">
    <path d="M 421.2 387.16 
L 421.2 227 
" style="fill: none; stroke: #000000; stroke-width: 0.8; stroke-linejoin: miter; stroke-linecap: square"/>
   </g>
   <g id="patch_21">
    <path d="M 252.06 387.16 
L 421.2 387.16 
" style="fill: none; stroke: #000000; stroke-width: 0.8; stroke-linejoin: miter; stroke-linecap: square"/>
   </g>
   <g id="patch_22">
    <path d="M 252.06 227 
L 421.2 227 
" style="fill: none; stroke: #000000; stroke-width: 0.8; stroke-linejoin: miter; stroke-linecap: square"/>
   </g>
   <g id="text_29">
    <!-- $\beta$=15° -->
    <g transform="translate(317.13 221)scale(0.12 -0.12)">
     <use xlink:href="#DejaVuSans-Oblique-3b2" transform="translate(0 0.390625)"/>
     <use xlink:href="#DejaVuSans-3d" transform="translate(63.818359 0.390625)"/>
     <use xlink:href="#DejaVuSans-31" transform="translate(147.607422 0.390625)"/>
     <use xlink:href="#DejaVuSans-35" transform="translate(211.230469 0.390625)"/>
     <use xlink:href="#DejaVuSans-b0" transform="translate(274.853516 0.390625)"/>
    </g>
   </g>
  </g>
 </g>
 <defs>
  <clipPath id="p9f61f8b057">
   <rect x="62.39" y="28.32" width="169.14" height="160.16"/>
  </clipPath>
  <clipPath id="p19347fec12">
   <rect x="252.06" y="28.32" width="169.14" height="160.16"/>
  </clipPath>
  <clipPath id="p67f94ef40c">
   <rect x="62.39" y="227" width="169.14" height="160.16"/>
  </clipPath>
  <clipPath id="p3f81329534">
   <rect x="252.06" y="227" width="169.14" height="160.16"/>
  </clipPath>
 </defs>
</svg>
