<?xml version="1.0" encoding="utf-8" standalone="no"?>
<!DOCTYPE svg PUBLIC "-//W3C//DTD SVG 1.1//EN"
  "http://www.w3.org/Graphics/SVG/1.1/DTD/svg11.dtd">
<svg xmlns:xlink="http://www.w3.org/1999/xlink" width="432pt" height="432pt" viewBox="0 0 432 432" xmlns="http://www.w3.org/2000/svg" version="1.1">
 <metadata>
  <rdf:RDF xmlns:dc="http://purl.org/dc/elements/1.1/" xmlns:cc="http://creativecommons.org/ns#" xmlns:rdf="http://www.w3.org/1999/02/22-rdf-syntax-ns#">
   <cc:Work>
    <dc:type rdf:resource="http://purl.org/dc/dcmitype/StillImage"/>
    <dc:date>2022-03-21T14:39:20.357006</dc:date>
    <dc:format>image/svg+xml</dc:format>
    <dc:creator>
     <cc:Agent>
      <dc:title>Matplotlib v3.5.1, https://matplotlib.org/</dc:title>
     </cc:Agent>
    </dc:creator>
   </cc:Work>
  </rdf:RDF>
 </metadata>
 <defs>
  <style type="text/css">*{stroke-linejoin: round; stroke-linecap: butt}</style>
 </defs>
 <g id="figure_1">
  <g id="patch_1">
   <path d="M 0 432 
L 432 432 
L 432 0 
L 0 0 
z
" style="fill: #ffffff"/>
  </g>
  <g id="axes_1">
   <g id="patch_2">
    <path d="M 54.02 188.48 
L 230.86 188.48 
L 230.86 26.88 
L 54.02 26.88 
z
" style="fill: #ffffff"/>
   </g>
   <g id="matplotlib.axis_1">
    <g id="xtick_1">
     <g id="line2d_1">
      <path d="M 90.428235 188.48 
L 90.428235 26.88 
" clip-path="url(#p03ccf8df89)" style="fill: none; stroke-dasharray: 2.96,1.28; stroke-dashoffset: 0; stroke: #d3d3d3; stroke-width: 0.8"/>
     </g>
     <g id="line2d_2">
      <defs>
       <path id="mc670e8477d" d="M 0 0 
L 0 3.5 
" style="stroke: #000000; stroke-width: 0.8"/>
      </defs>
      <g>
       <use xlink:href="#mc670e8477d" x="90.428235" y="188.48" style="stroke: #000000; stroke-width: 0.8"/>
      </g>
     </g>
    </g>
    <g id="xtick_2">
     <g id="line2d_3">
      <path d="M 142.44 188.48 
L 142.44 26.88 
" clip-path="url(#p03ccf8df89)" style="fill: none; stroke-dasharray: 2.96,1.28; stroke-dashoffset: 0; stroke: #d3d3d3; stroke-width: 0.8"/>
     </g>
     <g id="line2d_4">
      <g>
       <use xlink:href="#mc670e8477d" x="142.44" y="188.48" style="stroke: #000000; stroke-width: 0.8"/>
      </g>
     </g>
    </g>
    <g id="xtick_3">
     <g id="line2d_5">
      <path d="M 194.451765 188.48 
L 194.451765 26.88 
" clip-path="url(#p03ccf8df89)" style="fill: none; stroke-dasharray: 2.96,1.28; stroke-dashoffset: 0; stroke: #d3d3d3; stroke-width: 0.8"/>
     </g>
     <g id="line2d_6">
      <g>
       <use xlink:href="#mc670e8477d" x="194.451765" y="188.48" style="stroke: #000000; stroke-width: 0.8"/>
      </g>
     </g>
    </g>
   </g>
   <g id="matplotlib.axis_2">
    <g id="ytick_1">
     <g id="line2d_7">
      <path d="M 54.02 179.974737 
L 230.86 179.974737 
" clip-path="url(#p03ccf8df89)" style="fill: none; stroke-dasharray: 2.96,1.28; stroke-dashoffset: 0; stroke: #d3d3d3; stroke-width: 0.8"/>
     </g>
     <g id="line2d_8">
      <defs>
       <path id="m73e05d0164" d="M 0 0 
L -3.5 0 
" style="stroke: #000000; stroke-width: 0.8"/>
      </defs>
      <g>
       <use xlink:href="#m73e05d0164" x="54.02" y="179.974737" style="stroke: #000000; stroke-width: 0.8"/>
      </g>
     </g>
     <g id="text_1">
      <!-- 0.000 -->
      <g transform="translate(18.391875 183.773956)scale(0.1 -0.1)">
       <defs>
        <path id="DejaVuSans-30" d="M 2034 4250 
Q 1547 4250 1301 3770 
Q 1056 3291 1056 2328 
Q 1056 1369 1301 889 
Q 1547 409 2034 409 
Q 2525 409 2770 889 
Q 3016 1369 3016 2328 
Q 3016 3291 2770 3770 
Q 2525 4250 2034 4250 
z
M 2034 4750 
Q 2819 4750 3233 4129 
Q 3647 3509 3647 2328 
Q 3647 1150 3233 529 
Q 2819 -91 2034 -91 
Q 1250 -91 836 529 
Q 422 1150 422 2328 
Q 422 3509 836 4129 
Q 1250 4750 2034 4750 
z
" transform="scale(0.015625)"/>
        <path id="DejaVuSans-2e" d="M 684 794 
L 1344 794 
L 1344 0 
L 684 0 
L 684 794 
z
" transform="scale(0.015625)"/>
       </defs>
       <use xlink:href="#DejaVuSans-30"/>
       <use xlink:href="#DejaVuSans-2e" x="63.623047"/>
       <use xlink:href="#DejaVuSans-30" x="95.410156"/>
       <use xlink:href="#DejaVuSans-30" x="159.033203"/>
       <use xlink:href="#DejaVuSans-30" x="222.65625"/>
      </g>
     </g>
    </g>
    <g id="ytick_2">
     <g id="line2d_9">
      <path d="M 54.02 158.711579 
L 230.86 158.711579 
" clip-path="url(#p03ccf8df89)" style="fill: none; stroke-dasharray: 2.96,1.28; stroke-dashoffset: 0; stroke: #d3d3d3; stroke-width: 0.8"/>
     </g>
     <g id="line2d_10">
      <g>
       <use xlink:href="#m73e05d0164" x="54.02" y="158.711579" style="stroke: #000000; stroke-width: 0.8"/>
      </g>
     </g>
     <g id="text_2">
      <!-- 0.025 -->
      <g transform="translate(18.391875 162.510798)scale(0.1 -0.1)">
       <defs>
        <path id="DejaVuSans-32" d="M 1228 531 
L 3431 531 
L 3431 0 
L 469 0 
L 469 531 
Q 828 903 1448 1529 
Q 2069 2156 2228 2338 
Q 2531 2678 2651 2914 
Q 2772 3150 2772 3378 
Q 2772 3750 2511 3984 
Q 2250 4219 1831 4219 
Q 1534 4219 1204 4116 
Q 875 4013 500 3803 
L 500 4441 
Q 881 4594 1212 4672 
Q 1544 4750 1819 4750 
Q 2544 4750 2975 4387 
Q 3406 4025 3406 3419 
Q 3406 3131 3298 2873 
Q 3191 2616 2906 2266 
Q 2828 2175 2409 1742 
Q 1991 1309 1228 531 
z
" transform="scale(0.015625)"/>
        <path id="DejaVuSans-35" d="M 691 4666 
L 3169 4666 
L 3169 4134 
L 1269 4134 
L 1269 2991 
Q 1406 3038 1543 3061 
Q 1681 3084 1819 3084 
Q 2600 3084 3056 2656 
Q 3513 2228 3513 1497 
Q 3513 744 3044 326 
Q 2575 -91 1722 -91 
Q 1428 -91 1123 -41 
Q 819 9 494 109 
L 494 744 
Q 775 591 1075 516 
Q 1375 441 1709 441 
Q 2250 441 2565 725 
Q 2881 1009 2881 1497 
Q 2881 1984 2565 2268 
Q 2250 2553 1709 2553 
Q 1456 2553 1204 2497 
Q 953 2441 691 2322 
L 691 4666 
z
" transform="scale(0.015625)"/>
       </defs>
       <use xlink:href="#DejaVuSans-30"/>
       <use xlink:href="#DejaVuSans-2e" x="63.623047"/>
       <use xlink:href="#DejaVuSans-30" x="95.410156"/>
       <use xlink:href="#DejaVuSans-32" x="159.033203"/>
       <use xlink:href="#DejaVuSans-35" x="222.65625"/>
      </g>
     </g>
    </g>
    <g id="ytick_3">
     <g id="line2d_11">
      <path d="M 54.02 137.448421 
L 230.86 137.448421 
" clip-path="url(#p03ccf8df89)" style="fill: none; stroke-dasharray: 2.96,1.28; stroke-dashoffset: 0; stroke: #d3d3d3; stroke-width: 0.8"/>
     </g>
     <g id="line2d_12">
      <g>
       <use xlink:href="#m73e05d0164" x="54.02" y="137.448421" style="stroke: #000000; stroke-width: 0.8"/>
      </g>
     </g>
     <g id="text_3">
      <!-- 0.050 -->
      <g transform="translate(18.391875 141.24764)scale(0.1 -0.1)">
       <use xlink:href="#DejaVuSans-30"/>
       <use xlink:href="#DejaVuSans-2e" x="63.623047"/>
       <use xlink:href="#DejaVuSans-30" x="95.410156"/>
       <use xlink:href="#DejaVuSans-35" x="159.033203"/>
       <use xlink:href="#DejaVuSans-30" x="222.65625"/>
      </g>
     </g>
    </g>
    <g id="ytick_4">
     <g id="line2d_13">
      <path d="M 54.02 116.185263 
L 230.86 116.185263 
" clip-path="url(#p03ccf8df89)" style="fill: none; stroke-dasharray: 2.96,1.28; stroke-dashoffset: 0; stroke: #d3d3d3; stroke-width: 0.8"/>
     </g>
     <g id="line2d_14">
      <g>
       <use xlink:href="#m73e05d0164" x="54.02" y="116.185263" style="stroke: #000000; stroke-width: 0.8"/>
      </g>
     </g>
     <g id="text_4">
      <!-- 0.075 -->
      <g transform="translate(18.391875 119.984482)scale(0.1 -0.1)">
       <defs>
        <path id="DejaVuSans-37" d="M 525 4666 
L 3525 4666 
L 3525 4397 
L 1831 0 
L 1172 0 
L 2766 4134 
L 525 4134 
L 525 4666 
z
" transform="scale(0.015625)"/>
       </defs>
       <use xlink:href="#DejaVuSans-30"/>
       <use xlink:href="#DejaVuSans-2e" x="63.623047"/>
       <use xlink:href="#DejaVuSans-30" x="95.410156"/>
       <use xlink:href="#DejaVuSans-37" x="159.033203"/>
       <use xlink:href="#DejaVuSans-35" x="222.65625"/>
      </g>
     </g>
    </g>
    <g id="ytick_5">
     <g id="line2d_15">
      <path d="M 54.02 94.922105 
L 230.86 94.922105 
" clip-path="url(#p03ccf8df89)" style="fill: none; stroke-dasharray: 2.96,1.28; stroke-dashoffset: 0; stroke: #d3d3d3; stroke-width: 0.8"/>
     </g>
     <g id="line2d_16">
      <g>
       <use xlink:href="#m73e05d0164" x="54.02" y="94.922105" style="stroke: #000000; stroke-width: 0.8"/>
      </g>
     </g>
     <g id="text_5">
      <!-- 0.100 -->
      <g transform="translate(18.391875 98.721324)scale(0.1 -0.1)">
       <defs>
        <path id="DejaVuSans-31" d="M 794 531 
L 1825 531 
L 1825 4091 
L 703 3866 
L 703 4441 
L 1819 4666 
L 2450 4666 
L 2450 531 
L 3481 531 
L 3481 0 
L 794 0 
L 794 531 
z
" transform="scale(0.015625)"/>
       </defs>
       <use xlink:href="#DejaVuSans-30"/>
       <use xlink:href="#DejaVuSans-2e" x="63.623047"/>
       <use xlink:href="#DejaVuSans-31" x="95.410156"/>
       <use xlink:href="#DejaVuSans-30" x="159.033203"/>
       <use xlink:href="#DejaVuSans-30" x="222.65625"/>
      </g>
     </g>
    </g>
    <g id="ytick_6">
     <g id="line2d_17">
      <path d="M 54.02 73.658947 
L 230.86 73.658947 
" clip-path="url(#p03ccf8df89)" style="fill: none; stroke-dasharray: 2.96,1.28; stroke-dashoffset: 0; stroke: #d3d3d3; stroke-width: 0.8"/>
     </g>
     <g id="line2d_18">
      <g>
       <use xlink:href="#m73e05d0164" x="54.02" y="73.658947" style="stroke: #000000; stroke-width: 0.8"/>
      </g>
     </g>
     <g id="text_6">
      <!-- 0.125 -->
      <g transform="translate(18.391875 77.458166)scale(0.1 -0.1)">
       <use xlink:href="#DejaVuSans-30"/>
       <use xlink:href="#DejaVuSans-2e" x="63.623047"/>
       <use xlink:href="#DejaVuSans-31" x="95.410156"/>
       <use xlink:href="#DejaVuSans-32" x="159.033203"/>
       <use xlink:href="#DejaVuSans-35" x="222.65625"/>
      </g>
     </g>
    </g>
    <g id="ytick_7">
     <g id="line2d_19">
      <path d="M 54.02 52.395789 
L 230.86 52.395789 
" clip-path="url(#p03ccf8df89)" style="fill: none; stroke-dasharray: 2.96,1.28; stroke-dashoffset: 0; stroke: #d3d3d3; stroke-width: 0.8"/>
     </g>
     <g id="line2d_20">
      <g>
       <use xlink:href="#m73e05d0164" x="54.02" y="52.395789" style="stroke: #000000; stroke-width: 0.8"/>
      </g>
     </g>
     <g id="text_7">
      <!-- 0.150 -->
      <g transform="translate(18.391875 56.195008)scale(0.1 -0.1)">
       <use xlink:href="#DejaVuSans-30"/>
       <use xlink:href="#DejaVuSans-2e" x="63.623047"/>
       <use xlink:href="#DejaVuSans-31" x="95.410156"/>
       <use xlink:href="#DejaVuSans-35" x="159.033203"/>
       <use xlink:href="#DejaVuSans-30" x="222.65625"/>
      </g>
     </g>
    </g>
    <g id="ytick_8">
     <g id="line2d_21">
      <path d="M 54.02 31.132632 
L 230.86 31.132632 
" clip-path="url(#p03ccf8df89)" style="fill: none; stroke-dasharray: 2.96,1.28; stroke-dashoffset: 0; stroke: #d3d3d3; stroke-width: 0.8"/>
     </g>
     <g id="line2d_22">
      <g>
       <use xlink:href="#m73e05d0164" x="54.02" y="31.132632" style="stroke: #000000; stroke-width: 0.8"/>
      </g>
     </g>
     <g id="text_8">
      <!-- 0.175 -->
      <g transform="translate(18.391875 34.93185)scale(0.1 -0.1)">
       <use xlink:href="#DejaVuSans-30"/>
       <use xlink:href="#DejaVuSans-2e" x="63.623047"/>
       <use xlink:href="#DejaVuSans-31" x="95.410156"/>
       <use xlink:href="#DejaVuSans-37" x="159.033203"/>
       <use xlink:href="#DejaVuSans-35" x="222.65625"/>
      </g>
     </g>
    </g>
    <g id="text_9">
     <!-- CD -->
     <g transform="translate(12.312187 115.021406)rotate(-90)scale(0.1 -0.1)">
      <defs>
       <path id="DejaVuSans-43" d="M 4122 4306 
L 4122 3641 
Q 3803 3938 3442 4084 
Q 3081 4231 2675 4231 
Q 1875 4231 1450 3742 
Q 1025 3253 1025 2328 
Q 1025 1406 1450 917 
Q 1875 428 2675 428 
Q 3081 428 3442 575 
Q 3803 722 4122 1019 
L 4122 359 
Q 3791 134 3420 21 
Q 3050 -91 2638 -91 
Q 1578 -91 968 557 
Q 359 1206 359 2328 
Q 359 3453 968 4101 
Q 1578 4750 2638 4750 
Q 3056 4750 3426 4639 
Q 3797 4528 4122 4306 
z
" transform="scale(0.015625)"/>
       <path id="DejaVuSans-44" d="M 1259 4147 
L 1259 519 
L 2022 519 
Q 2988 519 3436 956 
Q 3884 1394 3884 2338 
Q 3884 3275 3436 3711 
Q 2988 4147 2022 4147 
L 1259 4147 
z
M 628 4666 
L 1925 4666 
Q 3281 4666 3915 4102 
Q 4550 3538 4550 2338 
Q 4550 1131 3912 565 
Q 3275 0 1925 0 
L 628 0 
L 628 4666 
z
" transform="scale(0.015625)"/>
      </defs>
      <use xlink:href="#DejaVuSans-43"/>
      <use xlink:href="#DejaVuSans-44" x="69.824219"/>
     </g>
    </g>
   </g>
   <g id="line2d_23">
    <path d="M 64.422353 145.800589 
L 69.623529 148.062989 
L 74.824706 149.627958 
L 80.025882 152.213558 
L 85.227059 153.787032 
L 90.428235 155.309474 
L 95.629412 156.500211 
L 100.830588 158.175747 
L 106.031765 159.638653 
L 111.232941 159.528084 
L 116.434118 161.875537 
L 121.635294 162.130695 
L 126.836471 162.751579 
L 132.037647 163.151326 
L 137.238824 163.984842 
L 142.44 164.163453 
L 147.641176 163.704168 
L 152.842353 164.010358 
L 158.043529 163.2704 
L 163.244706 162.419874 
L 168.445882 162.224253 
L 173.647059 160.710316 
L 178.848235 159.545095 
L 184.049412 158.609516 
L 189.250588 156.874442 
L 194.451765 156.057937 
L 199.652941 154.373895 
L 204.854118 152.630316 
L 210.055294 151.175916 
L 215.256471 149.236716 
L 220.457647 147.654737 
" clip-path="url(#p03ccf8df89)" style="fill: none; stroke: #000000; stroke-width: 0.75; stroke-linecap: square"/>
   </g>
   <g id="line2d_24">
    <path d="M 64.422353 167.767647 
L 69.623529 169.181263 
L 74.824706 170.517345 
L 80.025882 171.766765 
L 85.227059 172.941267 
L 90.428235 174.014653 
L 95.629412 175.009364 
L 100.830588 175.90046 
L 106.031765 176.690729 
L 111.232941 177.386663 
L 116.434118 177.974092 
L 121.635294 178.45791 
L 126.836471 178.836863 
L 132.037647 179.107402 
L 137.238824 179.268729 
L 142.44 179.328337 
L 147.641176 179.268729 
L 152.842353 179.107402 
L 158.043529 178.836863 
L 163.244706 178.45791 
L 168.445882 177.974092 
L 173.647059 177.386663 
L 178.848235 176.690729 
L 184.049412 175.90046 
L 189.250588 175.009364 
L 194.451765 174.01613 
L 199.652941 172.941267 
L 204.854118 171.766765 
L 210.055294 170.517345 
L 215.256471 169.181263 
L 220.457647 167.767647 
" clip-path="url(#p03ccf8df89)" style="fill: none; stroke-dasharray: 2.775,1.2; stroke-dashoffset: 0; stroke: #0000ff; stroke-width: 0.75"/>
   </g>
   <g id="line2d_25">
    <path d="M 64.422353 155.139279 
L 69.623529 156.751709 
L 74.824706 158.311832 
L 80.025882 159.806857 
L 85.227059 161.216909 
L 90.428235 162.532326 
L 95.629412 163.746612 
L 100.830588 164.836642 
L 106.031765 165.801494 
L 111.232941 166.645114 
L 116.434118 167.364911 
L 121.635294 167.956407 
L 126.836471 168.417903 
L 132.037647 168.749572 
L 137.238824 168.948755 
L 142.44 169.014112 
L 147.641176 168.948755 
L 152.842353 168.749572 
L 158.043529 168.417903 
L 163.244706 167.956407 
L 168.445882 167.364911 
L 173.647059 166.645114 
L 178.848235 165.801494 
L 184.049412 164.836642 
L 189.250588 163.746612 
L 194.451765 162.532326 
L 199.652941 161.216909 
L 204.854118 159.806857 
L 210.055294 158.311832 
L 215.256471 156.751709 
L 220.457647 155.139279 
" clip-path="url(#p03ccf8df89)" style="fill: none; stroke-dasharray: 3.7,1.6; stroke-dashoffset: 0; stroke: #ff0000"/>
   </g>
   <g id="patch_3">
    <path d="M 54.02 188.48 
L 54.02 26.88 
" style="fill: none; stroke: #000000; stroke-width: 0.8; stroke-linejoin: miter; stroke-linecap: square"/>
   </g>
   <g id="patch_4">
    <path d="M 230.86 188.48 
L 230.86 26.88 
" style="fill: none; stroke: #000000; stroke-width: 0.8; stroke-linejoin: miter; stroke-linecap: square"/>
   </g>
   <g id="patch_5">
    <path d="M 54.02 188.48 
L 230.86 188.48 
" style="fill: none; stroke: #000000; stroke-width: 0.8; stroke-linejoin: miter; stroke-linecap: square"/>
   </g>
   <g id="patch_6">
    <path d="M 54.02 26.88 
L 230.86 26.88 
" style="fill: none; stroke: #000000; stroke-width: 0.8; stroke-linejoin: miter; stroke-linecap: square"/>
   </g>
   <g id="text_10">
    <!-- $\alpha$=0° -->
    <g transform="translate(126.6 20.88)scale(0.12 -0.12)">
     <defs>
      <path id="DejaVuSans-Oblique-3b1" d="M 2619 1628 
L 2622 2350 
Q 2625 3088 2069 3091 
Q 1653 3094 1394 2747 
Q 1069 2319 959 1747 
Q 825 1059 994 731 
Q 1169 397 1547 397 
Q 1966 397 2319 1063 
L 2619 1628 
z
M 2166 3578 
Q 3141 3594 3128 2584 
Q 3128 2584 3616 3500 
L 4128 3500 
L 3119 1603 
L 3109 919 
Q 3109 766 3194 638 
Q 3291 488 3391 488 
L 3669 488 
L 3575 0 
L 3228 0 
Q 2934 0 2722 263 
Q 2622 394 2619 669 
Q 2416 334 2066 50 
Q 1900 -81 1453 -78 
Q 722 -72 456 397 
Q 184 884 353 1747 
Q 534 2675 1009 3097 
Q 1544 3569 2166 3578 
z
" transform="scale(0.015625)"/>
      <path id="DejaVuSans-3d" d="M 678 2906 
L 4684 2906 
L 4684 2381 
L 678 2381 
L 678 2906 
z
M 678 1631 
L 4684 1631 
L 4684 1100 
L 678 1100 
L 678 1631 
z
" transform="scale(0.015625)"/>
      <path id="DejaVuSans-b0" d="M 1600 4347 
Q 1350 4347 1178 4173 
Q 1006 4000 1006 3750 
Q 1006 3503 1178 3333 
Q 1350 3163 1600 3163 
Q 1850 3163 2022 3333 
Q 2194 3503 2194 3750 
Q 2194 3997 2020 4172 
Q 1847 4347 1600 4347 
z
M 1600 4750 
Q 1800 4750 1984 4673 
Q 2169 4597 2303 4453 
Q 2447 4313 2519 4134 
Q 2591 3956 2591 3750 
Q 2591 3338 2302 3052 
Q 2013 2766 1594 2766 
Q 1172 2766 890 3047 
Q 609 3328 609 3750 
Q 609 4169 896 4459 
Q 1184 4750 1600 4750 
z
" transform="scale(0.015625)"/>
     </defs>
     <use xlink:href="#DejaVuSans-Oblique-3b1" transform="translate(0 0.78125)"/>
     <use xlink:href="#DejaVuSans-3d" transform="translate(65.917969 0.78125)"/>
     <use xlink:href="#DejaVuSans-30" transform="translate(149.707031 0.78125)"/>
     <use xlink:href="#DejaVuSans-b0" transform="translate(213.330078 0.78125)"/>
    </g>
   </g>
   <g id="legend_1">
    <g id="patch_7">
     <path d="M 61.02 78.914375 
L 125.559062 78.914375 
Q 127.559062 78.914375 127.559062 76.914375 
L 127.559062 33.88 
Q 127.559062 31.88 125.559062 31.88 
L 61.02 31.88 
Q 59.02 31.88 59.02 33.88 
L 59.02 76.914375 
Q 59.02 78.914375 61.02 78.914375 
z
" style="fill: #ffffff; opacity: 0.8; stroke: #cccccc; stroke-linejoin: miter"/>
    </g>
    <g id="line2d_26">
     <path d="M 63.02 39.978437 
L 73.02 39.978437 
L 83.02 39.978437 
" style="fill: none; stroke: #000000; stroke-width: 0.75; stroke-linecap: square"/>
    </g>
    <g id="text_11">
     <!-- Tunnel -->
     <g transform="translate(91.02 43.478437)scale(0.1 -0.1)">
      <defs>
       <path id="DejaVuSans-54" d="M -19 4666 
L 3928 4666 
L 3928 4134 
L 2272 4134 
L 2272 0 
L 1638 0 
L 1638 4134 
L -19 4134 
L -19 4666 
z
" transform="scale(0.015625)"/>
       <path id="DejaVuSans-75" d="M 544 1381 
L 544 3500 
L 1119 3500 
L 1119 1403 
Q 1119 906 1312 657 
Q 1506 409 1894 409 
Q 2359 409 2629 706 
Q 2900 1003 2900 1516 
L 2900 3500 
L 3475 3500 
L 3475 0 
L 2900 0 
L 2900 538 
Q 2691 219 2414 64 
Q 2138 -91 1772 -91 
Q 1169 -91 856 284 
Q 544 659 544 1381 
z
M 1991 3584 
L 1991 3584 
z
" transform="scale(0.015625)"/>
       <path id="DejaVuSans-6e" d="M 3513 2113 
L 3513 0 
L 2938 0 
L 2938 2094 
Q 2938 2591 2744 2837 
Q 2550 3084 2163 3084 
Q 1697 3084 1428 2787 
Q 1159 2491 1159 1978 
L 1159 0 
L 581 0 
L 581 3500 
L 1159 3500 
L 1159 2956 
Q 1366 3272 1645 3428 
Q 1925 3584 2291 3584 
Q 2894 3584 3203 3211 
Q 3513 2838 3513 2113 
z
" transform="scale(0.015625)"/>
       <path id="DejaVuSans-65" d="M 3597 1894 
L 3597 1613 
L 953 1613 
Q 991 1019 1311 708 
Q 1631 397 2203 397 
Q 2534 397 2845 478 
Q 3156 559 3463 722 
L 3463 178 
Q 3153 47 2828 -22 
Q 2503 -91 2169 -91 
Q 1331 -91 842 396 
Q 353 884 353 1716 
Q 353 2575 817 3079 
Q 1281 3584 2069 3584 
Q 2775 3584 3186 3129 
Q 3597 2675 3597 1894 
z
M 3022 2063 
Q 3016 2534 2758 2815 
Q 2500 3097 2075 3097 
Q 1594 3097 1305 2825 
Q 1016 2553 972 2059 
L 3022 2063 
z
" transform="scale(0.015625)"/>
       <path id="DejaVuSans-6c" d="M 603 4863 
L 1178 4863 
L 1178 0 
L 603 0 
L 603 4863 
z
" transform="scale(0.015625)"/>
      </defs>
      <use xlink:href="#DejaVuSans-54"/>
      <use xlink:href="#DejaVuSans-75" x="45.958984"/>
      <use xlink:href="#DejaVuSans-6e" x="109.337891"/>
      <use xlink:href="#DejaVuSans-6e" x="172.716797"/>
      <use xlink:href="#DejaVuSans-65" x="236.095703"/>
      <use xlink:href="#DejaVuSans-6c" x="297.619141"/>
     </g>
    </g>
    <g id="line2d_27">
     <path d="M 63.02 54.656563 
L 73.02 54.656563 
L 83.02 54.656563 
" style="fill: none; stroke-dasharray: 2.775,1.2; stroke-dashoffset: 0; stroke: #0000ff; stroke-width: 0.75"/>
    </g>
    <g id="text_12">
     <!-- AVL -->
     <g transform="translate(91.02 58.156563)scale(0.1 -0.1)">
      <defs>
       <path id="DejaVuSans-41" d="M 2188 4044 
L 1331 1722 
L 3047 1722 
L 2188 4044 
z
M 1831 4666 
L 2547 4666 
L 4325 0 
L 3669 0 
L 3244 1197 
L 1141 1197 
L 716 0 
L 50 0 
L 1831 4666 
z
" transform="scale(0.015625)"/>
       <path id="DejaVuSans-56" d="M 1831 0 
L 50 4666 
L 709 4666 
L 2188 738 
L 3669 4666 
L 4325 4666 
L 2547 0 
L 1831 0 
z
" transform="scale(0.015625)"/>
       <path id="DejaVuSans-4c" d="M 628 4666 
L 1259 4666 
L 1259 531 
L 3531 531 
L 3531 0 
L 628 0 
L 628 4666 
z
" transform="scale(0.015625)"/>
      </defs>
      <use xlink:href="#DejaVuSans-41"/>
      <use xlink:href="#DejaVuSans-56" x="62.033203"/>
      <use xlink:href="#DejaVuSans-4c" x="130.441406"/>
     </g>
    </g>
    <g id="line2d_28">
     <path d="M 63.02 69.334687 
L 73.02 69.334687 
L 83.02 69.334687 
" style="fill: none; stroke-dasharray: 3.7,1.6; stroke-dashoffset: 0; stroke: #ff0000"/>
    </g>
    <g id="text_13">
     <!-- NLLT -->
     <g transform="translate(91.02 72.834687)scale(0.1 -0.1)">
      <defs>
       <path id="DejaVuSans-4e" d="M 628 4666 
L 1478 4666 
L 3547 763 
L 3547 4666 
L 4159 4666 
L 4159 0 
L 3309 0 
L 1241 3903 
L 1241 0 
L 628 0 
L 628 4666 
z
" transform="scale(0.015625)"/>
      </defs>
      <use xlink:href="#DejaVuSans-4e"/>
      <use xlink:href="#DejaVuSans-4c" x="74.804688"/>
      <use xlink:href="#DejaVuSans-4c" x="130.517578"/>
      <use xlink:href="#DejaVuSans-54" x="172.480469"/>
     </g>
    </g>
   </g>
  </g>
  <g id="axes_2">
   <g id="patch_8">
    <path d="M 244.36 188.48 
L 421.2 188.48 
L 421.2 26.88 
L 244.36 26.88 
z
" style="fill: #ffffff"/>
   </g>
   <g id="matplotlib.axis_3">
    <g id="xtick_4">
     <g id="line2d_29">
      <path d="M 280.768235 188.48 
L 280.768235 26.88 
" clip-path="url(#p01a58a1f0e)" style="fill: none; stroke-dasharray: 2.96,1.28; stroke-dashoffset: 0; stroke: #d3d3d3; stroke-width: 0.8"/>
     </g>
     <g id="line2d_30">
      <g>
       <use xlink:href="#mc670e8477d" x="280.768235" y="188.48" style="stroke: #000000; stroke-width: 0.8"/>
      </g>
     </g>
    </g>
    <g id="xtick_5">
     <g id="line2d_31">
      <path d="M 332.78 188.48 
L 332.78 26.88 
" clip-path="url(#p01a58a1f0e)" style="fill: none; stroke-dasharray: 2.96,1.28; stroke-dashoffset: 0; stroke: #d3d3d3; stroke-width: 0.8"/>
     </g>
     <g id="line2d_32">
      <g>
       <use xlink:href="#mc670e8477d" x="332.78" y="188.48" style="stroke: #000000; stroke-width: 0.8"/>
      </g>
     </g>
    </g>
    <g id="xtick_6">
     <g id="line2d_33">
      <path d="M 384.791765 188.48 
L 384.791765 26.88 
" clip-path="url(#p01a58a1f0e)" style="fill: none; stroke-dasharray: 2.96,1.28; stroke-dashoffset: 0; stroke: #d3d3d3; stroke-width: 0.8"/>
     </g>
     <g id="line2d_34">
      <g>
       <use xlink:href="#mc670e8477d" x="384.791765" y="188.48" style="stroke: #000000; stroke-width: 0.8"/>
      </g>
     </g>
    </g>
   </g>
   <g id="matplotlib.axis_4">
    <g id="ytick_9">
     <g id="line2d_35">
      <path d="M 244.36 179.974737 
L 421.2 179.974737 
" clip-path="url(#p01a58a1f0e)" style="fill: none; stroke-dasharray: 2.96,1.28; stroke-dashoffset: 0; stroke: #d3d3d3; stroke-width: 0.8"/>
     </g>
     <g id="line2d_36">
      <g>
       <use xlink:href="#m73e05d0164" x="244.36" y="179.974737" style="stroke: #000000; stroke-width: 0.8"/>
      </g>
     </g>
    </g>
    <g id="ytick_10">
     <g id="line2d_37">
      <path d="M 244.36 158.711579 
L 421.2 158.711579 
" clip-path="url(#p01a58a1f0e)" style="fill: none; stroke-dasharray: 2.96,1.28; stroke-dashoffset: 0; stroke: #d3d3d3; stroke-width: 0.8"/>
     </g>
     <g id="line2d_38">
      <g>
       <use xlink:href="#m73e05d0164" x="244.36" y="158.711579" style="stroke: #000000; stroke-width: 0.8"/>
      </g>
     </g>
    </g>
    <g id="ytick_11">
     <g id="line2d_39">
      <path d="M 244.36 137.448421 
L 421.2 137.448421 
" clip-path="url(#p01a58a1f0e)" style="fill: none; stroke-dasharray: 2.96,1.28; stroke-dashoffset: 0; stroke: #d3d3d3; stroke-width: 0.8"/>
     </g>
     <g id="line2d_40">
      <g>
       <use xlink:href="#m73e05d0164" x="244.36" y="137.448421" style="stroke: #000000; stroke-width: 0.8"/>
      </g>
     </g>
    </g>
    <g id="ytick_12">
     <g id="line2d_41">
      <path d="M 244.36 116.185263 
L 421.2 116.185263 
" clip-path="url(#p01a58a1f0e)" style="fill: none; stroke-dasharray: 2.96,1.28; stroke-dashoffset: 0; stroke: #d3d3d3; stroke-width: 0.8"/>
     </g>
     <g id="line2d_42">
      <g>
       <use xlink:href="#m73e05d0164" x="244.36" y="116.185263" style="stroke: #000000; stroke-width: 0.8"/>
      </g>
     </g>
    </g>
    <g id="ytick_13">
     <g id="line2d_43">
      <path d="M 244.36 94.922105 
L 421.2 94.922105 
" clip-path="url(#p01a58a1f0e)" style="fill: none; stroke-dasharray: 2.96,1.28; stroke-dashoffset: 0; stroke: #d3d3d3; stroke-width: 0.8"/>
     </g>
     <g id="line2d_44">
      <g>
       <use xlink:href="#m73e05d0164" x="244.36" y="94.922105" style="stroke: #000000; stroke-width: 0.8"/>
      </g>
     </g>
    </g>
    <g id="ytick_14">
     <g id="line2d_45">
      <path d="M 244.36 73.658947 
L 421.2 73.658947 
" clip-path="url(#p01a58a1f0e)" style="fill: none; stroke-dasharray: 2.96,1.28; stroke-dashoffset: 0; stroke: #d3d3d3; stroke-width: 0.8"/>
     </g>
     <g id="line2d_46">
      <g>
       <use xlink:href="#m73e05d0164" x="244.36" y="73.658947" style="stroke: #000000; stroke-width: 0.8"/>
      </g>
     </g>
    </g>
    <g id="ytick_15">
     <g id="line2d_47">
      <path d="M 244.36 52.395789 
L 421.2 52.395789 
" clip-path="url(#p01a58a1f0e)" style="fill: none; stroke-dasharray: 2.96,1.28; stroke-dashoffset: 0; stroke: #d3d3d3; stroke-width: 0.8"/>
     </g>
     <g id="line2d_48">
      <g>
       <use xlink:href="#m73e05d0164" x="244.36" y="52.395789" style="stroke: #000000; stroke-width: 0.8"/>
      </g>
     </g>
    </g>
    <g id="ytick_16">
     <g id="line2d_49">
      <path d="M 244.36 31.132632 
L 421.2 31.132632 
" clip-path="url(#p01a58a1f0e)" style="fill: none; stroke-dasharray: 2.96,1.28; stroke-dashoffset: 0; stroke: #d3d3d3; stroke-width: 0.8"/>
     </g>
     <g id="line2d_50">
      <g>
       <use xlink:href="#m73e05d0164" x="244.36" y="31.132632" style="stroke: #000000; stroke-width: 0.8"/>
      </g>
     </g>
    </g>
   </g>
   <g id="line2d_51">
    <path d="M 254.762353 135.789895 
L 259.963529 137.125221 
L 265.164706 146.038737 
L 270.365882 149.2112 
L 275.567059 150.384926 
L 280.768235 152.085979 
L 285.969412 153.838063 
L 291.170588 154.637558 
L 296.371765 155.819789 
L 301.572941 156.746863 
L 306.774118 157.393263 
L 311.975294 157.733474 
L 317.176471 158.541474 
L 322.377647 158.864674 
L 327.578824 158.796632 
L 332.78 159.162358 
L 337.981176 158.898695 
L 343.182353 158.881684 
L 348.383529 159.034779 
L 353.584706 158.116211 
L 358.785882 157.342232 
L 363.987059 157.367747 
L 369.188235 155.981389 
L 374.389412 155.649684 
L 379.590588 153.770021 
L 384.791765 152.579284 
L 389.992941 150.716632 
L 395.194118 148.913516 
L 400.395294 146.404463 
L 405.596471 143.980463 
L 410.797647 141.496926 
" clip-path="url(#p01a58a1f0e)" style="fill: none; stroke: #000000; stroke-width: 0.75; stroke-linecap: square"/>
   </g>
   <g id="line2d_52">
    <path d="M 254.762353 162.001605 
L 259.963529 163.20833 
L 265.164706 164.354337 
L 270.365882 165.428849 
L 275.567059 166.42656 
L 280.768235 167.359232 
L 285.969412 168.203913 
L 291.170588 168.964032 
L 296.371765 169.650842 
L 301.572941 170.24476 
L 306.774118 170.74968 
L 311.975294 171.163699 
L 317.176471 171.491967 
L 322.377647 171.723982 
L 327.578824 171.858955 
L 332.78 171.903611 
L 337.981176 171.859103 
L 343.182353 171.724279 
L 348.383529 171.491967 
L 353.584706 171.164293 
L 358.785882 170.750419 
L 363.987059 170.245497 
L 369.188235 169.650842 
L 374.389412 168.964032 
L 379.590588 168.203913 
L 384.791765 167.359232 
L 389.992941 166.42656 
L 395.194118 165.429574 
L 400.395294 164.355059 
L 405.596471 163.211107 
L 410.797647 161.993421 
" clip-path="url(#p01a58a1f0e)" style="fill: none; stroke-dasharray: 2.775,1.2; stroke-dashoffset: 0; stroke: #0000ff; stroke-width: 0.75"/>
   </g>
   <g id="line2d_53">
    <path d="M 254.762353 149.387722 
L 259.963529 150.872438 
L 265.164706 152.236804 
L 270.365882 153.515472 
L 275.567059 154.721753 
L 280.768235 155.855084 
L 285.969412 156.904372 
L 291.170588 157.859118 
L 296.371765 158.712221 
L 301.572941 159.455148 
L 306.774118 160.089065 
L 311.975294 160.609659 
L 317.176471 161.016715 
L 322.377647 161.307172 
L 327.578824 161.481636 
L 332.78 161.540044 
L 337.981176 161.481636 
L 343.182353 161.307172 
L 348.383529 161.016715 
L 353.584706 160.609659 
L 358.785882 160.089065 
L 363.987059 159.455148 
L 369.188235 158.712221 
L 374.389412 157.859118 
L 379.590588 156.904372 
L 384.791765 155.855084 
L 389.992941 154.721753 
L 395.194118 153.515472 
L 400.395294 152.236804 
L 405.596471 150.872438 
L 410.797647 149.387722 
" clip-path="url(#p01a58a1f0e)" style="fill: none; stroke-dasharray: 3.7,1.6; stroke-dashoffset: 0; stroke: #ff0000"/>
   </g>
   <g id="patch_9">
    <path d="M 244.36 188.48 
L 244.36 26.88 
" style="fill: none; stroke: #000000; stroke-width: 0.8; stroke-linejoin: miter; stroke-linecap: square"/>
   </g>
   <g id="patch_10">
    <path d="M 421.2 188.48 
L 421.2 26.88 
" style="fill: none; stroke: #000000; stroke-width: 0.8; stroke-linejoin: miter; stroke-linecap: square"/>
   </g>
   <g id="patch_11">
    <path d="M 244.36 188.48 
L 421.2 188.48 
" style="fill: none; stroke: #000000; stroke-width: 0.8; stroke-linejoin: miter; stroke-linecap: square"/>
   </g>
   <g id="patch_12">
    <path d="M 244.36 26.88 
L 421.2 26.88 
" style="fill: none; stroke: #000000; stroke-width: 0.8; stroke-linejoin: miter; stroke-linecap: square"/>
   </g>
   <g id="text_14">
    <!-- $\alpha$=5° -->
    <g transform="translate(316.94 20.88)scale(0.12 -0.12)">
     <use xlink:href="#DejaVuSans-Oblique-3b1" transform="translate(0 0.78125)"/>
     <use xlink:href="#DejaVuSans-3d" transform="translate(65.917969 0.78125)"/>
     <use xlink:href="#DejaVuSans-35" transform="translate(149.707031 0.78125)"/>
     <use xlink:href="#DejaVuSans-b0" transform="translate(213.330078 0.78125)"/>
    </g>
   </g>
  </g>
  <g id="axes_3">
   <g id="patch_13">
    <path d="M 54.02 387.16 
L 230.86 387.16 
L 230.86 225.56 
L 54.02 225.56 
z
" style="fill: #ffffff"/>
   </g>
   <g id="matplotlib.axis_5">
    <g id="xtick_7">
     <g id="line2d_54">
      <path d="M 90.428235 387.16 
L 90.428235 225.56 
" clip-path="url(#pc3c4348d74)" style="fill: none; stroke-dasharray: 2.96,1.28; stroke-dashoffset: 0; stroke: #d3d3d3; stroke-width: 0.8"/>
     </g>
     <g id="line2d_55">
      <g>
       <use xlink:href="#mc670e8477d" x="90.428235" y="387.16" style="stroke: #000000; stroke-width: 0.8"/>
      </g>
     </g>
     <g id="text_15">
      <!-- −10 -->
      <g transform="translate(79.875892 401.758437)scale(0.1 -0.1)">
       <defs>
        <path id="DejaVuSans-2212" d="M 678 2272 
L 4684 2272 
L 4684 1741 
L 678 1741 
L 678 2272 
z
" transform="scale(0.015625)"/>
       </defs>
       <use xlink:href="#DejaVuSans-2212"/>
       <use xlink:href="#DejaVuSans-31" x="83.789062"/>
       <use xlink:href="#DejaVuSans-30" x="147.412109"/>
      </g>
     </g>
    </g>
    <g id="xtick_8">
     <g id="line2d_56">
      <path d="M 142.44 387.16 
L 142.44 225.56 
" clip-path="url(#pc3c4348d74)" style="fill: none; stroke-dasharray: 2.96,1.28; stroke-dashoffset: 0; stroke: #d3d3d3; stroke-width: 0.8"/>
     </g>
     <g id="line2d_57">
      <g>
       <use xlink:href="#mc670e8477d" x="142.44" y="387.16" style="stroke: #000000; stroke-width: 0.8"/>
      </g>
     </g>
     <g id="text_16">
      <!-- 0 -->
      <g transform="translate(139.25875 401.758437)scale(0.1 -0.1)">
       <use xlink:href="#DejaVuSans-30"/>
      </g>
     </g>
    </g>
    <g id="xtick_9">
     <g id="line2d_58">
      <path d="M 194.451765 387.16 
L 194.451765 225.56 
" clip-path="url(#pc3c4348d74)" style="fill: none; stroke-dasharray: 2.96,1.28; stroke-dashoffset: 0; stroke: #d3d3d3; stroke-width: 0.8"/>
     </g>
     <g id="line2d_59">
      <g>
       <use xlink:href="#mc670e8477d" x="194.451765" y="387.16" style="stroke: #000000; stroke-width: 0.8"/>
      </g>
     </g>
     <g id="text_17">
      <!-- 10 -->
      <g transform="translate(188.089265 401.758437)scale(0.1 -0.1)">
       <use xlink:href="#DejaVuSans-31"/>
       <use xlink:href="#DejaVuSans-30" x="63.623047"/>
      </g>
     </g>
    </g>
    <g id="text_18">
     <!-- $\beta$ [deg] -->
     <g transform="translate(124.29 415.538125)scale(0.1 -0.1)">
      <defs>
       <path id="DejaVuSans-Oblique-3b2" d="M 872 216 
L 572 -1331 
L -6 -1331 
L 928 3478 
Q 1206 4903 2538 4903 
Q 3888 4903 3659 3700 
Q 3503 2844 2894 2531 
Q 3713 2250 3553 1416 
Q 3272 -69 1759 -66 
Q 1097 -63 872 216 
z
M 1019 966 
Q 1259 422 1875 425 
Q 2775 425 2966 1406 
Q 3138 2288 1675 2219 
L 1778 2750 
Q 2909 2731 3106 3750 
Q 3241 4438 2509 4434 
Q 1691 4434 1503 3459 
L 1019 966 
z
" transform="scale(0.015625)"/>
       <path id="DejaVuSans-20" transform="scale(0.015625)"/>
       <path id="DejaVuSans-5b" d="M 550 4863 
L 1875 4863 
L 1875 4416 
L 1125 4416 
L 1125 -397 
L 1875 -397 
L 1875 -844 
L 550 -844 
L 550 4863 
z
" transform="scale(0.015625)"/>
       <path id="DejaVuSans-64" d="M 2906 2969 
L 2906 4863 
L 3481 4863 
L 3481 0 
L 2906 0 
L 2906 525 
Q 2725 213 2448 61 
Q 2172 -91 1784 -91 
Q 1150 -91 751 415 
Q 353 922 353 1747 
Q 353 2572 751 3078 
Q 1150 3584 1784 3584 
Q 2172 3584 2448 3432 
Q 2725 3281 2906 2969 
z
M 947 1747 
Q 947 1113 1208 752 
Q 1469 391 1925 391 
Q 2381 391 2643 752 
Q 2906 1113 2906 1747 
Q 2906 2381 2643 2742 
Q 2381 3103 1925 3103 
Q 1469 3103 1208 2742 
Q 947 2381 947 1747 
z
" transform="scale(0.015625)"/>
       <path id="DejaVuSans-67" d="M 2906 1791 
Q 2906 2416 2648 2759 
Q 2391 3103 1925 3103 
Q 1463 3103 1205 2759 
Q 947 2416 947 1791 
Q 947 1169 1205 825 
Q 1463 481 1925 481 
Q 2391 481 2648 825 
Q 2906 1169 2906 1791 
z
M 3481 434 
Q 3481 -459 3084 -895 
Q 2688 -1331 1869 -1331 
Q 1566 -1331 1297 -1286 
Q 1028 -1241 775 -1147 
L 775 -588 
Q 1028 -725 1275 -790 
Q 1522 -856 1778 -856 
Q 2344 -856 2625 -561 
Q 2906 -266 2906 331 
L 2906 616 
Q 2728 306 2450 153 
Q 2172 0 1784 0 
Q 1141 0 747 490 
Q 353 981 353 1791 
Q 353 2603 747 3093 
Q 1141 3584 1784 3584 
Q 2172 3584 2450 3431 
Q 2728 3278 2906 2969 
L 2906 3500 
L 3481 3500 
L 3481 434 
z
" transform="scale(0.015625)"/>
       <path id="DejaVuSans-5d" d="M 1947 4863 
L 1947 -844 
L 622 -844 
L 622 -397 
L 1369 -397 
L 1369 4416 
L 622 4416 
L 622 4863 
L 1947 4863 
z
" transform="scale(0.015625)"/>
      </defs>
      <use xlink:href="#DejaVuSans-Oblique-3b2" transform="translate(0 0.390625)"/>
      <use xlink:href="#DejaVuSans-20" transform="translate(63.818359 0.390625)"/>
      <use xlink:href="#DejaVuSans-5b" transform="translate(95.605469 0.390625)"/>
      <use xlink:href="#DejaVuSans-64" transform="translate(134.619141 0.390625)"/>
      <use xlink:href="#DejaVuSans-65" transform="translate(198.095703 0.390625)"/>
      <use xlink:href="#DejaVuSans-67" transform="translate(259.619141 0.390625)"/>
      <use xlink:href="#DejaVuSans-5d" transform="translate(323.095703 0.390625)"/>
     </g>
    </g>
   </g>
   <g id="matplotlib.axis_6">
    <g id="ytick_17">
     <g id="line2d_60">
      <path d="M 54.02 378.654737 
L 230.86 378.654737 
" clip-path="url(#pc3c4348d74)" style="fill: none; stroke-dasharray: 2.96,1.28; stroke-dashoffset: 0; stroke: #d3d3d3; stroke-width: 0.8"/>
     </g>
     <g id="line2d_61">
      <g>
       <use xlink:href="#m73e05d0164" x="54.02" y="378.654737" style="stroke: #000000; stroke-width: 0.8"/>
      </g>
     </g>
     <g id="text_19">
      <!-- 0.000 -->
      <g transform="translate(18.391875 382.453956)scale(0.1 -0.1)">
       <use xlink:href="#DejaVuSans-30"/>
       <use xlink:href="#DejaVuSans-2e" x="63.623047"/>
       <use xlink:href="#DejaVuSans-30" x="95.410156"/>
       <use xlink:href="#DejaVuSans-30" x="159.033203"/>
       <use xlink:href="#DejaVuSans-30" x="222.65625"/>
      </g>
     </g>
    </g>
    <g id="ytick_18">
     <g id="line2d_62">
      <path d="M 54.02 357.391579 
L 230.86 357.391579 
" clip-path="url(#pc3c4348d74)" style="fill: none; stroke-dasharray: 2.96,1.28; stroke-dashoffset: 0; stroke: #d3d3d3; stroke-width: 0.8"/>
     </g>
     <g id="line2d_63">
      <g>
       <use xlink:href="#m73e05d0164" x="54.02" y="357.391579" style="stroke: #000000; stroke-width: 0.8"/>
      </g>
     </g>
     <g id="text_20">
      <!-- 0.025 -->
      <g transform="translate(18.391875 361.190798)scale(0.1 -0.1)">
       <use xlink:href="#DejaVuSans-30"/>
       <use xlink:href="#DejaVuSans-2e" x="63.623047"/>
       <use xlink:href="#DejaVuSans-30" x="95.410156"/>
       <use xlink:href="#DejaVuSans-32" x="159.033203"/>
       <use xlink:href="#DejaVuSans-35" x="222.65625"/>
      </g>
     </g>
    </g>
    <g id="ytick_19">
     <g id="line2d_64">
      <path d="M 54.02 336.128421 
L 230.86 336.128421 
" clip-path="url(#pc3c4348d74)" style="fill: none; stroke-dasharray: 2.96,1.28; stroke-dashoffset: 0; stroke: #d3d3d3; stroke-width: 0.8"/>
     </g>
     <g id="line2d_65">
      <g>
       <use xlink:href="#m73e05d0164" x="54.02" y="336.128421" style="stroke: #000000; stroke-width: 0.8"/>
      </g>
     </g>
     <g id="text_21">
      <!-- 0.050 -->
      <g transform="translate(18.391875 339.92764)scale(0.1 -0.1)">
       <use xlink:href="#DejaVuSans-30"/>
       <use xlink:href="#DejaVuSans-2e" x="63.623047"/>
       <use xlink:href="#DejaVuSans-30" x="95.410156"/>
       <use xlink:href="#DejaVuSans-35" x="159.033203"/>
       <use xlink:href="#DejaVuSans-30" x="222.65625"/>
      </g>
     </g>
    </g>
    <g id="ytick_20">
     <g id="line2d_66">
      <path d="M 54.02 314.865263 
L 230.86 314.865263 
" clip-path="url(#pc3c4348d74)" style="fill: none; stroke-dasharray: 2.96,1.28; stroke-dashoffset: 0; stroke: #d3d3d3; stroke-width: 0.8"/>
     </g>
     <g id="line2d_67">
      <g>
       <use xlink:href="#m73e05d0164" x="54.02" y="314.865263" style="stroke: #000000; stroke-width: 0.8"/>
      </g>
     </g>
     <g id="text_22">
      <!-- 0.075 -->
      <g transform="translate(18.391875 318.664482)scale(0.1 -0.1)">
       <use xlink:href="#DejaVuSans-30"/>
       <use xlink:href="#DejaVuSans-2e" x="63.623047"/>
       <use xlink:href="#DejaVuSans-30" x="95.410156"/>
       <use xlink:href="#DejaVuSans-37" x="159.033203"/>
       <use xlink:href="#DejaVuSans-35" x="222.65625"/>
      </g>
     </g>
    </g>
    <g id="ytick_21">
     <g id="line2d_68">
      <path d="M 54.02 293.602105 
L 230.86 293.602105 
" clip-path="url(#pc3c4348d74)" style="fill: none; stroke-dasharray: 2.96,1.28; stroke-dashoffset: 0; stroke: #d3d3d3; stroke-width: 0.8"/>
     </g>
     <g id="line2d_69">
      <g>
       <use xlink:href="#m73e05d0164" x="54.02" y="293.602105" style="stroke: #000000; stroke-width: 0.8"/>
      </g>
     </g>
     <g id="text_23">
      <!-- 0.100 -->
      <g transform="translate(18.391875 297.401324)scale(0.1 -0.1)">
       <use xlink:href="#DejaVuSans-30"/>
       <use xlink:href="#DejaVuSans-2e" x="63.623047"/>
       <use xlink:href="#DejaVuSans-31" x="95.410156"/>
       <use xlink:href="#DejaVuSans-30" x="159.033203"/>
       <use xlink:href="#DejaVuSans-30" x="222.65625"/>
      </g>
     </g>
    </g>
    <g id="ytick_22">
     <g id="line2d_70">
      <path d="M 54.02 272.338947 
L 230.86 272.338947 
" clip-path="url(#pc3c4348d74)" style="fill: none; stroke-dasharray: 2.96,1.28; stroke-dashoffset: 0; stroke: #d3d3d3; stroke-width: 0.8"/>
     </g>
     <g id="line2d_71">
      <g>
       <use xlink:href="#m73e05d0164" x="54.02" y="272.338947" style="stroke: #000000; stroke-width: 0.8"/>
      </g>
     </g>
     <g id="text_24">
      <!-- 0.125 -->
      <g transform="translate(18.391875 276.138166)scale(0.1 -0.1)">
       <use xlink:href="#DejaVuSans-30"/>
       <use xlink:href="#DejaVuSans-2e" x="63.623047"/>
       <use xlink:href="#DejaVuSans-31" x="95.410156"/>
       <use xlink:href="#DejaVuSans-32" x="159.033203"/>
       <use xlink:href="#DejaVuSans-35" x="222.65625"/>
      </g>
     </g>
    </g>
    <g id="ytick_23">
     <g id="line2d_72">
      <path d="M 54.02 251.075789 
L 230.86 251.075789 
" clip-path="url(#pc3c4348d74)" style="fill: none; stroke-dasharray: 2.96,1.28; stroke-dashoffset: 0; stroke: #d3d3d3; stroke-width: 0.8"/>
     </g>
     <g id="line2d_73">
      <g>
       <use xlink:href="#m73e05d0164" x="54.02" y="251.075789" style="stroke: #000000; stroke-width: 0.8"/>
      </g>
     </g>
     <g id="text_25">
      <!-- 0.150 -->
      <g transform="translate(18.391875 254.875008)scale(0.1 -0.1)">
       <use xlink:href="#DejaVuSans-30"/>
       <use xlink:href="#DejaVuSans-2e" x="63.623047"/>
       <use xlink:href="#DejaVuSans-31" x="95.410156"/>
       <use xlink:href="#DejaVuSans-35" x="159.033203"/>
       <use xlink:href="#DejaVuSans-30" x="222.65625"/>
      </g>
     </g>
    </g>
    <g id="ytick_24">
     <g id="line2d_74">
      <path d="M 54.02 229.812632 
L 230.86 229.812632 
" clip-path="url(#pc3c4348d74)" style="fill: none; stroke-dasharray: 2.96,1.28; stroke-dashoffset: 0; stroke: #d3d3d3; stroke-width: 0.8"/>
     </g>
     <g id="line2d_75">
      <g>
       <use xlink:href="#m73e05d0164" x="54.02" y="229.812632" style="stroke: #000000; stroke-width: 0.8"/>
      </g>
     </g>
     <g id="text_26">
      <!-- 0.175 -->
      <g transform="translate(18.391875 233.61185)scale(0.1 -0.1)">
       <use xlink:href="#DejaVuSans-30"/>
       <use xlink:href="#DejaVuSans-2e" x="63.623047"/>
       <use xlink:href="#DejaVuSans-31" x="95.410156"/>
       <use xlink:href="#DejaVuSans-37" x="159.033203"/>
       <use xlink:href="#DejaVuSans-35" x="222.65625"/>
      </g>
     </g>
    </g>
    <g id="text_27">
     <!-- CD -->
     <g transform="translate(12.312187 313.701406)rotate(-90)scale(0.1 -0.1)">
      <use xlink:href="#DejaVuSans-43"/>
      <use xlink:href="#DejaVuSans-44" x="69.824219"/>
     </g>
    </g>
   </g>
   <g id="line2d_76">
    <path d="M 64.422353 316.115537 
L 69.623529 319.509137 
L 74.824706 321.916126 
L 80.025882 325.182147 
L 85.227059 327.376505 
L 90.428235 335.048253 
L 95.629412 337.599832 
L 100.830588 338.552421 
L 106.031765 339.675116 
L 111.232941 340.287495 
L 116.434118 340.721263 
L 121.635294 341.410189 
L 126.836471 341.435705 
L 132.037647 342.022568 
L 137.238824 341.563284 
L 142.44 342.269221 
L 147.641176 342.133137 
L 152.842353 342.422316 
L 158.043529 341.512253 
L 163.244706 340.789305 
L 168.445882 340.406568 
L 173.647059 340.534147 
L 178.848235 339.0032 
L 184.049412 338.688505 
L 189.250588 336.298526 
L 194.451765 333.058021 
L 199.652941 330.821137 
L 204.854118 325.003537 
L 210.055294 323.200421 
L 215.256471 320.733895 
L 220.457647 317.731537 
" clip-path="url(#pc3c4348d74)" style="fill: none; stroke: #000000; stroke-width: 0.75; stroke-linecap: square"/>
   </g>
   <g id="line2d_77">
    <path d="M 64.422353 348.262198 
L 69.623529 349.169494 
L 74.824706 350.020416 
L 80.025882 350.827893 
L 85.227059 351.58469 
L 90.428235 352.277059 
L 95.629412 352.909843 
L 100.830588 353.486841 
L 106.031765 354.004134 
L 111.232941 354.450399 
L 116.434118 354.831899 
L 121.635294 355.143705 
L 126.836471 355.387143 
L 132.037647 355.564892 
L 137.238824 355.663891 
L 142.44 355.705325 
L 147.641176 355.663891 
L 152.842353 355.566665 
L 158.043529 355.387143 
L 163.244706 355.144298 
L 168.445882 354.83264 
L 173.647059 354.451288 
L 178.848235 353.997287 
L 184.049412 353.486841 
L 189.250588 352.909843 
L 194.451765 352.278536 
L 199.652941 351.58469 
L 204.854118 350.829661 
L 210.055294 350.023768 
L 215.256471 349.170928 
L 220.457647 348.263625 
" clip-path="url(#pc3c4348d74)" style="fill: none; stroke-dasharray: 2.775,1.2; stroke-dashoffset: 0; stroke: #0000ff; stroke-width: 0.75"/>
   </g>
   <g id="line2d_78">
    <path d="M 64.422353 331.535816 
L 69.623529 333.242964 
L 74.824706 335.191855 
L 80.025882 337.348382 
L 85.227059 338.595166 
L 90.428235 339.534318 
L 95.629412 340.333852 
L 100.830588 341.053881 
L 106.031765 341.700056 
L 111.232941 342.267494 
L 116.434118 342.758036 
L 121.635294 343.166196 
L 126.836471 343.484835 
L 132.037647 343.714837 
L 137.238824 343.853492 
L 142.44 343.900701 
L 147.641176 343.853492 
L 152.842353 343.714837 
L 158.043529 343.484835 
L 163.244706 343.166196 
L 168.445882 342.758036 
L 173.647059 342.267494 
L 178.848235 341.700056 
L 184.049412 341.053881 
L 189.250588 340.333852 
L 194.451765 339.534318 
L 199.652941 338.595166 
L 204.854118 337.348382 
L 210.055294 335.191855 
L 215.256471 333.242964 
L 220.457647 331.535816 
" clip-path="url(#pc3c4348d74)" style="fill: none; stroke-dasharray: 3.7,1.6; stroke-dashoffset: 0; stroke: #ff0000"/>
   </g>
   <g id="patch_14">
    <path d="M 54.02 387.16 
L 54.02 225.56 
" style="fill: none; stroke: #000000; stroke-width: 0.8; stroke-linejoin: miter; stroke-linecap: square"/>
   </g>
   <g id="patch_15">
    <path d="M 230.86 387.16 
L 230.86 225.56 
" style="fill: none; stroke: #000000; stroke-width: 0.8; stroke-linejoin: miter; stroke-linecap: square"/>
   </g>
   <g id="patch_16">
    <path d="M 54.02 387.16 
L 230.86 387.16 
" style="fill: none; stroke: #000000; stroke-width: 0.8; stroke-linejoin: miter; stroke-linecap: square"/>
   </g>
   <g id="patch_17">
    <path d="M 54.02 225.56 
L 230.86 225.56 
" style="fill: none; stroke: #000000; stroke-width: 0.8; stroke-linejoin: miter; stroke-linecap: square"/>
   </g>
   <g id="text_28">
    <!-- $\alpha$=10° -->
    <g transform="translate(122.82 219.56)scale(0.12 -0.12)">
     <use xlink:href="#DejaVuSans-Oblique-3b1" transform="translate(0 0.78125)"/>
     <use xlink:href="#DejaVuSans-3d" transform="translate(65.917969 0.78125)"/>
     <use xlink:href="#DejaVuSans-31" transform="translate(149.707031 0.78125)"/>
     <use xlink:href="#DejaVuSans-30" transform="translate(213.330078 0.78125)"/>
     <use xlink:href="#DejaVuSans-b0" transform="translate(276.953125 0.78125)"/>
    </g>
   </g>
  </g>
  <g id="axes_4">
   <g id="patch_18">
    <path d="M 244.36 387.16 
L 421.2 387.16 
L 421.2 225.56 
L 244.36 225.56 
z
" style="fill: #ffffff"/>
   </g>
   <g id="matplotlib.axis_7">
    <g id="xtick_10">
     <g id="line2d_79">
      <path d="M 280.768235 387.16 
L 280.768235 225.56 
" clip-path="url(#pf7006f6d43)" style="fill: none; stroke-dasharray: 2.96,1.28; stroke-dashoffset: 0; stroke: #d3d3d3; stroke-width: 0.8"/>
     </g>
     <g id="line2d_80">
      <g>
       <use xlink:href="#mc670e8477d" x="280.768235" y="387.16" style="stroke: #000000; stroke-width: 0.8"/>
      </g>
     </g>
     <g id="text_29">
      <!-- −10 -->
      <g transform="translate(270.215892 401.758437)scale(0.1 -0.1)">
       <use xlink:href="#DejaVuSans-2212"/>
       <use xlink:href="#DejaVuSans-31" x="83.789062"/>
       <use xlink:href="#DejaVuSans-30" x="147.412109"/>
      </g>
     </g>
    </g>
    <g id="xtick_11">
     <g id="line2d_81">
      <path d="M 332.78 387.16 
L 332.78 225.56 
" clip-path="url(#pf7006f6d43)" style="fill: none; stroke-dasharray: 2.96,1.28; stroke-dashoffset: 0; stroke: #d3d3d3; stroke-width: 0.8"/>
     </g>
     <g id="line2d_82">
      <g>
       <use xlink:href="#mc670e8477d" x="332.78" y="387.16" style="stroke: #000000; stroke-width: 0.8"/>
      </g>
     </g>
     <g id="text_30">
      <!-- 0 -->
      <g transform="translate(329.59875 401.758437)scale(0.1 -0.1)">
       <use xlink:href="#DejaVuSans-30"/>
      </g>
     </g>
    </g>
    <g id="xtick_12">
     <g id="line2d_83">
      <path d="M 384.791765 387.16 
L 384.791765 225.56 
" clip-path="url(#pf7006f6d43)" style="fill: none; stroke-dasharray: 2.96,1.28; stroke-dashoffset: 0; stroke: #d3d3d3; stroke-width: 0.8"/>
     </g>
     <g id="line2d_84">
      <g>
       <use xlink:href="#mc670e8477d" x="384.791765" y="387.16" style="stroke: #000000; stroke-width: 0.8"/>
      </g>
     </g>
     <g id="text_31">
      <!-- 10 -->
      <g transform="translate(378.429265 401.758437)scale(0.1 -0.1)">
       <use xlink:href="#DejaVuSans-31"/>
       <use xlink:href="#DejaVuSans-30" x="63.623047"/>
      </g>
     </g>
    </g>
    <g id="text_32">
     <!-- $\beta$ [deg] -->
     <g transform="translate(314.63 415.538125)scale(0.1 -0.1)">
      <use xlink:href="#DejaVuSans-Oblique-3b2" transform="translate(0 0.390625)"/>
      <use xlink:href="#DejaVuSans-20" transform="translate(63.818359 0.390625)"/>
      <use xlink:href="#DejaVuSans-5b" transform="translate(95.605469 0.390625)"/>
      <use xlink:href="#DejaVuSans-64" transform="translate(134.619141 0.390625)"/>
      <use xlink:href="#DejaVuSans-65" transform="translate(198.095703 0.390625)"/>
      <use xlink:href="#DejaVuSans-67" transform="translate(259.619141 0.390625)"/>
      <use xlink:href="#DejaVuSans-5d" transform="translate(323.095703 0.390625)"/>
     </g>
    </g>
   </g>
   <g id="matplotlib.axis_8">
    <g id="ytick_25">
     <g id="line2d_85">
      <path d="M 244.36 378.654737 
L 421.2 378.654737 
" clip-path="url(#pf7006f6d43)" style="fill: none; stroke-dasharray: 2.96,1.28; stroke-dashoffset: 0; stroke: #d3d3d3; stroke-width: 0.8"/>
     </g>
     <g id="line2d_86">
      <g>
       <use xlink:href="#m73e05d0164" x="244.36" y="378.654737" style="stroke: #000000; stroke-width: 0.8"/>
      </g>
     </g>
    </g>
    <g id="ytick_26">
     <g id="line2d_87">
      <path d="M 244.36 357.391579 
L 421.2 357.391579 
" clip-path="url(#pf7006f6d43)" style="fill: none; stroke-dasharray: 2.96,1.28; stroke-dashoffset: 0; stroke: #d3d3d3; stroke-width: 0.8"/>
     </g>
     <g id="line2d_88">
      <g>
       <use xlink:href="#m73e05d0164" x="244.36" y="357.391579" style="stroke: #000000; stroke-width: 0.8"/>
      </g>
     </g>
    </g>
    <g id="ytick_27">
     <g id="line2d_89">
      <path d="M 244.36 336.128421 
L 421.2 336.128421 
" clip-path="url(#pf7006f6d43)" style="fill: none; stroke-dasharray: 2.96,1.28; stroke-dashoffset: 0; stroke: #d3d3d3; stroke-width: 0.8"/>
     </g>
     <g id="line2d_90">
      <g>
       <use xlink:href="#m73e05d0164" x="244.36" y="336.128421" style="stroke: #000000; stroke-width: 0.8"/>
      </g>
     </g>
    </g>
    <g id="ytick_28">
     <g id="line2d_91">
      <path d="M 244.36 314.865263 
L 421.2 314.865263 
" clip-path="url(#pf7006f6d43)" style="fill: none; stroke-dasharray: 2.96,1.28; stroke-dashoffset: 0; stroke: #d3d3d3; stroke-width: 0.8"/>
     </g>
     <g id="line2d_92">
      <g>
       <use xlink:href="#m73e05d0164" x="244.36" y="314.865263" style="stroke: #000000; stroke-width: 0.8"/>
      </g>
     </g>
    </g>
    <g id="ytick_29">
     <g id="line2d_93">
      <path d="M 244.36 293.602105 
L 421.2 293.602105 
" clip-path="url(#pf7006f6d43)" style="fill: none; stroke-dasharray: 2.96,1.28; stroke-dashoffset: 0; stroke: #d3d3d3; stroke-width: 0.8"/>
     </g>
     <g id="line2d_94">
      <g>
       <use xlink:href="#m73e05d0164" x="244.36" y="293.602105" style="stroke: #000000; stroke-width: 0.8"/>
      </g>
     </g>
    </g>
    <g id="ytick_30">
     <g id="line2d_95">
      <path d="M 244.36 272.338947 
L 421.2 272.338947 
" clip-path="url(#pf7006f6d43)" style="fill: none; stroke-dasharray: 2.96,1.28; stroke-dashoffset: 0; stroke: #d3d3d3; stroke-width: 0.8"/>
     </g>
     <g id="line2d_96">
      <g>
       <use xlink:href="#m73e05d0164" x="244.36" y="272.338947" style="stroke: #000000; stroke-width: 0.8"/>
      </g>
     </g>
    </g>
    <g id="ytick_31">
     <g id="line2d_97">
      <path d="M 244.36 251.075789 
L 421.2 251.075789 
" clip-path="url(#pf7006f6d43)" style="fill: none; stroke-dasharray: 2.96,1.28; stroke-dashoffset: 0; stroke: #d3d3d3; stroke-width: 0.8"/>
     </g>
     <g id="line2d_98">
      <g>
       <use xlink:href="#m73e05d0164" x="244.36" y="251.075789" style="stroke: #000000; stroke-width: 0.8"/>
      </g>
     </g>
    </g>
    <g id="ytick_32">
     <g id="line2d_99">
      <path d="M 244.36 229.812632 
L 421.2 229.812632 
" clip-path="url(#pf7006f6d43)" style="fill: none; stroke-dasharray: 2.96,1.28; stroke-dashoffset: 0; stroke: #d3d3d3; stroke-width: 0.8"/>
     </g>
     <g id="line2d_100">
      <g>
       <use xlink:href="#m73e05d0164" x="244.36" y="229.812632" style="stroke: #000000; stroke-width: 0.8"/>
      </g>
     </g>
    </g>
   </g>
   <g id="line2d_101">
    <path d="M 254.762353 281.269474 
L 259.963529 284.203789 
L 265.164706 287.095579 
L 270.365882 291.1696 
L 275.567059 292.930189 
L 280.768235 294.478147 
L 285.969412 300.151158 
L 291.170588 305.883705 
L 296.371765 314.941811 
L 301.572941 317.561432 
L 306.774118 317.425347 
L 311.975294 317.535916 
L 317.176471 317.969684 
L 322.377647 319.143411 
L 327.578824 319.551663 
L 332.78 319.602695 
L 337.981176 319.415579 
L 343.182353 318.658611 
L 348.383529 317.850611 
L 353.584706 317.076632 
L 358.785882 316.727916 
L 363.987059 316.523789 
L 369.188235 309.498442 
L 374.389412 299.385684 
L 379.590588 304.208168 
L 384.791765 301.971284 
L 389.992941 299.190063 
L 395.194118 290.599747 
L 400.395294 286.678821 
L 405.596471 285.581642 
L 410.797647 284.578021 
" clip-path="url(#pf7006f6d43)" style="fill: none; stroke: #000000; stroke-width: 0.75; stroke-linecap: square"/>
   </g>
   <g id="line2d_102">
    <path d="M 254.762353 331.765143 
L 259.963529 332.298962 
L 265.164706 332.804661 
L 270.365882 333.286889 
L 275.567059 333.732939 
L 280.768235 334.143452 
L 285.969412 334.529166 
L 291.170588 334.876127 
L 296.371765 335.178191 
L 301.572941 335.447292 
L 306.774118 335.680047 
L 311.975294 335.869775 
L 317.176471 336.013586 
L 322.377647 336.117743 
L 327.578824 336.181398 
L 332.78 336.206244 
L 337.981176 336.181546 
L 343.182353 336.117743 
L 348.383529 336.013586 
L 353.584706 335.870368 
L 358.785882 335.680788 
L 363.987059 335.447292 
L 369.188235 335.178191 
L 374.389412 334.869175 
L 379.590588 334.529166 
L 384.791765 334.14562 
L 389.992941 333.736723 
L 395.194118 333.289042 
L 400.395294 332.806805 
L 405.596471 332.301098 
L 410.797647 331.761535 
" clip-path="url(#pf7006f6d43)" style="fill: none; stroke-dasharray: 2.775,1.2; stroke-dashoffset: 0; stroke: #0000ff; stroke-width: 0.75"/>
   </g>
   <g id="line2d_103">
    <path d="M 259.963529 308.727782 
L 265.164706 310.776107 
L 270.365882 313.325668 
L 275.567059 314.421805 
L 280.768235 315.31752 
L 285.969412 316.35606 
L 291.170588 317.992181 
L 296.371765 319.461843 
L 301.572941 320.096831 
L 306.774118 320.467669 
L 311.975294 320.740632 
L 317.176471 320.94388 
L 322.377647 321.087777 
L 327.578824 321.166732 
L 332.78 321.198052 
L 337.981176 321.166732 
L 343.182353 321.087777 
L 348.383529 320.94388 
L 353.584706 320.740632 
L 358.785882 320.467669 
L 363.987059 320.096831 
L 369.188235 319.461843 
L 374.389412 317.992181 
L 379.590588 316.35606 
L 384.791765 315.31752 
L 389.992941 314.421805 
L 395.194118 313.325668 
L 400.395294 310.776107 
L 405.596471 308.727782 
" clip-path="url(#pf7006f6d43)" style="fill: none; stroke-dasharray: 3.7,1.6; stroke-dashoffset: 0; stroke: #ff0000"/>
   </g>
   <g id="patch_19">
    <path d="M 244.36 387.16 
L 244.36 225.56 
" style="fill: none; stroke: #000000; stroke-width: 0.8; stroke-linejoin: miter; stroke-linecap: square"/>
   </g>
   <g id="patch_20">
    <path d="M 421.2 387.16 
L 421.2 225.56 
" style="fill: none; stroke: #000000; stroke-width: 0.8; stroke-linejoin: miter; stroke-linecap: square"/>
   </g>
   <g id="patch_21">
    <path d="M 244.36 387.16 
L 421.2 387.16 
" style="fill: none; stroke: #000000; stroke-width: 0.8; stroke-linejoin: miter; stroke-linecap: square"/>
   </g>
   <g id="patch_22">
    <path d="M 244.36 225.56 
L 421.2 225.56 
" style="fill: none; stroke: #000000; stroke-width: 0.8; stroke-linejoin: miter; stroke-linecap: square"/>
   </g>
   <g id="text_33">
    <!-- $\alpha$=15° -->
    <g transform="translate(313.16 219.56)scale(0.12 -0.12)">
     <use xlink:href="#DejaVuSans-Oblique-3b1" transform="translate(0 0.78125)"/>
     <use xlink:href="#DejaVuSans-3d" transform="translate(65.917969 0.78125)"/>
     <use xlink:href="#DejaVuSans-31" transform="translate(149.707031 0.78125)"/>
     <use xlink:href="#DejaVuSans-35" transform="translate(213.330078 0.78125)"/>
     <use xlink:href="#DejaVuSans-b0" transform="translate(276.953125 0.78125)"/>
    </g>
   </g>
  </g>
 </g>
 <defs>
  <clipPath id="p03ccf8df89">
   <rect x="54.02" y="26.88" width="176.84" height="161.6"/>
  </clipPath>
  <clipPath id="p01a58a1f0e">
   <rect x="244.36" y="26.88" width="176.84" height="161.6"/>
  </clipPath>
  <clipPath id="pc3c4348d74">
   <rect x="54.02" y="225.56" width="176.84" height="161.6"/>
  </clipPath>
  <clipPath id="pf7006f6d43">
   <rect x="244.36" y="225.56" width="176.84" height="161.6"/>
  </clipPath>
 </defs>
</svg>
