<?xml version="1.0" encoding="utf-8" standalone="no"?>
<!DOCTYPE svg PUBLIC "-//W3C//DTD SVG 1.1//EN"
  "http://www.w3.org/Graphics/SVG/1.1/DTD/svg11.dtd">
<svg xmlns:xlink="http://www.w3.org/1999/xlink" width="432pt" height="432pt" viewBox="0 0 432 432" xmlns="http://www.w3.org/2000/svg" version="1.1">
 <metadata>
  <rdf:RDF xmlns:dc="http://purl.org/dc/elements/1.1/" xmlns:cc="http://creativecommons.org/ns#" xmlns:rdf="http://www.w3.org/1999/02/22-rdf-syntax-ns#">
   <cc:Work>
    <dc:type rdf:resource="http://purl.org/dc/dcmitype/StillImage"/>
    <dc:date>2022-03-21T14:39:20.157571</dc:date>
    <dc:format>image/svg+xml</dc:format>
    <dc:creator>
     <cc:Agent>
      <dc:title>Matplotlib v3.5.1, https://matplotlib.org/</dc:title>
     </cc:Agent>
    </dc:creator>
   </cc:Work>
  </rdf:RDF>
 </metadata>
 <defs>
  <style type="text/css">*{stroke-linejoin: round; stroke-linecap: butt}</style>
 </defs>
 <g id="figure_1">
  <g id="patch_1">
   <path d="M 0 432 
L 432 432 
L 432 0 
L 0 0 
z
" style="fill: #ffffff"/>
  </g>
  <g id="axes_1">
   <g id="patch_2">
    <path d="M 54.02 188.48 
L 227.345 188.48 
L 227.345 28.32 
L 54.02 28.32 
z
" style="fill: #ffffff"/>
   </g>
   <g id="matplotlib.axis_1">
    <g id="xtick_1">
     <g id="line2d_1">
      <path d="M 54.02 188.48 
L 54.02 28.32 
" clip-path="url(#p4982fb9eea)" style="fill: none; stroke-dasharray: 2.96,1.28; stroke-dashoffset: 0; stroke: #d3d3d3; stroke-width: 0.8"/>
     </g>
     <g id="line2d_2">
      <defs>
       <path id="m3fd42e3434" d="M 0 0 
L 0 3.5 
" style="stroke: #000000; stroke-width: 0.8"/>
      </defs>
      <g>
       <use xlink:href="#m3fd42e3434" x="54.02" y="188.48" style="stroke: #000000; stroke-width: 0.8"/>
      </g>
     </g>
    </g>
    <g id="xtick_2">
     <g id="line2d_3">
      <path d="M 103.541429 188.48 
L 103.541429 28.32 
" clip-path="url(#p4982fb9eea)" style="fill: none; stroke-dasharray: 2.96,1.28; stroke-dashoffset: 0; stroke: #d3d3d3; stroke-width: 0.8"/>
     </g>
     <g id="line2d_4">
      <g>
       <use xlink:href="#m3fd42e3434" x="103.541429" y="188.48" style="stroke: #000000; stroke-width: 0.8"/>
      </g>
     </g>
    </g>
    <g id="xtick_3">
     <g id="line2d_5">
      <path d="M 153.062857 188.48 
L 153.062857 28.32 
" clip-path="url(#p4982fb9eea)" style="fill: none; stroke-dasharray: 2.96,1.28; stroke-dashoffset: 0; stroke: #d3d3d3; stroke-width: 0.8"/>
     </g>
     <g id="line2d_6">
      <g>
       <use xlink:href="#m3fd42e3434" x="153.062857" y="188.48" style="stroke: #000000; stroke-width: 0.8"/>
      </g>
     </g>
    </g>
    <g id="xtick_4">
     <g id="line2d_7">
      <path d="M 202.584286 188.48 
L 202.584286 28.32 
" clip-path="url(#p4982fb9eea)" style="fill: none; stroke-dasharray: 2.96,1.28; stroke-dashoffset: 0; stroke: #d3d3d3; stroke-width: 0.8"/>
     </g>
     <g id="line2d_8">
      <g>
       <use xlink:href="#m3fd42e3434" x="202.584286" y="188.48" style="stroke: #000000; stroke-width: 0.8"/>
      </g>
     </g>
    </g>
   </g>
   <g id="matplotlib.axis_2">
    <g id="ytick_1">
     <g id="line2d_9">
      <path d="M 54.02 165.6 
L 227.345 165.6 
" clip-path="url(#p4982fb9eea)" style="fill: none; stroke-dasharray: 2.96,1.28; stroke-dashoffset: 0; stroke: #d3d3d3; stroke-width: 0.8"/>
     </g>
     <g id="line2d_10">
      <defs>
       <path id="m49513981ad" d="M 0 0 
L -3.5 0 
" style="stroke: #000000; stroke-width: 0.8"/>
      </defs>
      <g>
       <use xlink:href="#m49513981ad" x="54.02" y="165.6" style="stroke: #000000; stroke-width: 0.8"/>
      </g>
     </g>
     <g id="text_1">
      <!-- 0.00 -->
      <g transform="translate(24.754375 169.399219)scale(0.1 -0.1)">
       <defs>
        <path id="DejaVuSans-30" d="M 2034 4250 
Q 1547 4250 1301 3770 
Q 1056 3291 1056 2328 
Q 1056 1369 1301 889 
Q 1547 409 2034 409 
Q 2525 409 2770 889 
Q 3016 1369 3016 2328 
Q 3016 3291 2770 3770 
Q 2525 4250 2034 4250 
z
M 2034 4750 
Q 2819 4750 3233 4129 
Q 3647 3509 3647 2328 
Q 3647 1150 3233 529 
Q 2819 -91 2034 -91 
Q 1250 -91 836 529 
Q 422 1150 422 2328 
Q 422 3509 836 4129 
Q 1250 4750 2034 4750 
z
" transform="scale(0.015625)"/>
        <path id="DejaVuSans-2e" d="M 684 794 
L 1344 794 
L 1344 0 
L 684 0 
L 684 794 
z
" transform="scale(0.015625)"/>
       </defs>
       <use xlink:href="#DejaVuSans-30"/>
       <use xlink:href="#DejaVuSans-2e" x="63.623047"/>
       <use xlink:href="#DejaVuSans-30" x="95.410156"/>
       <use xlink:href="#DejaVuSans-30" x="159.033203"/>
      </g>
     </g>
    </g>
    <g id="ytick_2">
     <g id="line2d_11">
      <path d="M 54.02 137 
L 227.345 137 
" clip-path="url(#p4982fb9eea)" style="fill: none; stroke-dasharray: 2.96,1.28; stroke-dashoffset: 0; stroke: #d3d3d3; stroke-width: 0.8"/>
     </g>
     <g id="line2d_12">
      <g>
       <use xlink:href="#m49513981ad" x="54.02" y="137" style="stroke: #000000; stroke-width: 0.8"/>
      </g>
     </g>
     <g id="text_2">
      <!-- 0.05 -->
      <g transform="translate(24.754375 140.799219)scale(0.1 -0.1)">
       <defs>
        <path id="DejaVuSans-35" d="M 691 4666 
L 3169 4666 
L 3169 4134 
L 1269 4134 
L 1269 2991 
Q 1406 3038 1543 3061 
Q 1681 3084 1819 3084 
Q 2600 3084 3056 2656 
Q 3513 2228 3513 1497 
Q 3513 744 3044 326 
Q 2575 -91 1722 -91 
Q 1428 -91 1123 -41 
Q 819 9 494 109 
L 494 744 
Q 775 591 1075 516 
Q 1375 441 1709 441 
Q 2250 441 2565 725 
Q 2881 1009 2881 1497 
Q 2881 1984 2565 2268 
Q 2250 2553 1709 2553 
Q 1456 2553 1204 2497 
Q 953 2441 691 2322 
L 691 4666 
z
" transform="scale(0.015625)"/>
       </defs>
       <use xlink:href="#DejaVuSans-30"/>
       <use xlink:href="#DejaVuSans-2e" x="63.623047"/>
       <use xlink:href="#DejaVuSans-30" x="95.410156"/>
       <use xlink:href="#DejaVuSans-35" x="159.033203"/>
      </g>
     </g>
    </g>
    <g id="ytick_3">
     <g id="line2d_13">
      <path d="M 54.02 108.4 
L 227.345 108.4 
" clip-path="url(#p4982fb9eea)" style="fill: none; stroke-dasharray: 2.96,1.28; stroke-dashoffset: 0; stroke: #d3d3d3; stroke-width: 0.8"/>
     </g>
     <g id="line2d_14">
      <g>
       <use xlink:href="#m49513981ad" x="54.02" y="108.4" style="stroke: #000000; stroke-width: 0.8"/>
      </g>
     </g>
     <g id="text_3">
      <!-- 0.10 -->
      <g transform="translate(24.754375 112.199219)scale(0.1 -0.1)">
       <defs>
        <path id="DejaVuSans-31" d="M 794 531 
L 1825 531 
L 1825 4091 
L 703 3866 
L 703 4441 
L 1819 4666 
L 2450 4666 
L 2450 531 
L 3481 531 
L 3481 0 
L 794 0 
L 794 531 
z
" transform="scale(0.015625)"/>
       </defs>
       <use xlink:href="#DejaVuSans-30"/>
       <use xlink:href="#DejaVuSans-2e" x="63.623047"/>
       <use xlink:href="#DejaVuSans-31" x="95.410156"/>
       <use xlink:href="#DejaVuSans-30" x="159.033203"/>
      </g>
     </g>
    </g>
    <g id="ytick_4">
     <g id="line2d_15">
      <path d="M 54.02 79.8 
L 227.345 79.8 
" clip-path="url(#p4982fb9eea)" style="fill: none; stroke-dasharray: 2.96,1.28; stroke-dashoffset: 0; stroke: #d3d3d3; stroke-width: 0.8"/>
     </g>
     <g id="line2d_16">
      <g>
       <use xlink:href="#m49513981ad" x="54.02" y="79.8" style="stroke: #000000; stroke-width: 0.8"/>
      </g>
     </g>
     <g id="text_4">
      <!-- 0.15 -->
      <g transform="translate(24.754375 83.599219)scale(0.1 -0.1)">
       <use xlink:href="#DejaVuSans-30"/>
       <use xlink:href="#DejaVuSans-2e" x="63.623047"/>
       <use xlink:href="#DejaVuSans-31" x="95.410156"/>
       <use xlink:href="#DejaVuSans-35" x="159.033203"/>
      </g>
     </g>
    </g>
    <g id="ytick_5">
     <g id="line2d_17">
      <path d="M 54.02 51.2 
L 227.345 51.2 
" clip-path="url(#p4982fb9eea)" style="fill: none; stroke-dasharray: 2.96,1.28; stroke-dashoffset: 0; stroke: #d3d3d3; stroke-width: 0.8"/>
     </g>
     <g id="line2d_18">
      <g>
       <use xlink:href="#m49513981ad" x="54.02" y="51.2" style="stroke: #000000; stroke-width: 0.8"/>
      </g>
     </g>
     <g id="text_5">
      <!-- 0.20 -->
      <g transform="translate(24.754375 54.999219)scale(0.1 -0.1)">
       <defs>
        <path id="DejaVuSans-32" d="M 1228 531 
L 3431 531 
L 3431 0 
L 469 0 
L 469 531 
Q 828 903 1448 1529 
Q 2069 2156 2228 2338 
Q 2531 2678 2651 2914 
Q 2772 3150 2772 3378 
Q 2772 3750 2511 3984 
Q 2250 4219 1831 4219 
Q 1534 4219 1204 4116 
Q 875 4013 500 3803 
L 500 4441 
Q 881 4594 1212 4672 
Q 1544 4750 1819 4750 
Q 2544 4750 2975 4387 
Q 3406 4025 3406 3419 
Q 3406 3131 3298 2873 
Q 3191 2616 2906 2266 
Q 2828 2175 2409 1742 
Q 1991 1309 1228 531 
z
" transform="scale(0.015625)"/>
       </defs>
       <use xlink:href="#DejaVuSans-30"/>
       <use xlink:href="#DejaVuSans-2e" x="63.623047"/>
       <use xlink:href="#DejaVuSans-32" x="95.410156"/>
       <use xlink:href="#DejaVuSans-30" x="159.033203"/>
      </g>
     </g>
    </g>
    <g id="text_6">
     <!-- Cn -->
     <g transform="translate(18.674687 115.060156)rotate(-90)scale(0.1 -0.1)">
      <defs>
       <path id="DejaVuSans-43" d="M 4122 4306 
L 4122 3641 
Q 3803 3938 3442 4084 
Q 3081 4231 2675 4231 
Q 1875 4231 1450 3742 
Q 1025 3253 1025 2328 
Q 1025 1406 1450 917 
Q 1875 428 2675 428 
Q 3081 428 3442 575 
Q 3803 722 4122 1019 
L 4122 359 
Q 3791 134 3420 21 
Q 3050 -91 2638 -91 
Q 1578 -91 968 557 
Q 359 1206 359 2328 
Q 359 3453 968 4101 
Q 1578 4750 2638 4750 
Q 3056 4750 3426 4639 
Q 3797 4528 4122 4306 
z
" transform="scale(0.015625)"/>
       <path id="DejaVuSans-6e" d="M 3513 2113 
L 3513 0 
L 2938 0 
L 2938 2094 
Q 2938 2591 2744 2837 
Q 2550 3084 2163 3084 
Q 1697 3084 1428 2787 
Q 1159 2491 1159 1978 
L 1159 0 
L 581 0 
L 581 3500 
L 1159 3500 
L 1159 2956 
Q 1366 3272 1645 3428 
Q 1925 3584 2291 3584 
Q 2894 3584 3203 3211 
Q 3513 2838 3513 2113 
z
" transform="scale(0.015625)"/>
      </defs>
      <use xlink:href="#DejaVuSans-43"/>
      <use xlink:href="#DejaVuSans-6e" x="69.824219"/>
     </g>
    </g>
   </g>
   <g id="line2d_19">
    <path d="M 76.849379 165.07376 
L 79.573057 165.17672 
L 82.247214 165.36548 
L 84.970893 165.52564 
L 87.64505 165.60572 
L 90.368729 165.77732 
L 93.042886 165.90316 
L 95.766564 165.92032 
L 98.490243 166.0576 
L 101.1644 165.96036 
L 103.888079 165.99468 
L 106.562236 166.2578 
L 109.285914 166.33788 
L 111.960071 166.40652 
L 114.68375 166.4866 
L 117.357907 166.4866 
L 120.081586 166.42368 
L 122.755743 166.58384 
L 125.479421 166.73256 
L 128.153579 166.81264 
L 130.877257 166.75544 
L 133.551414 166.95564 
L 136.275093 167.08148 
L 138.94925 166.99568 
L 141.672929 167.01856 
L 144.297564 166.9442 
L 147.021243 166.99568 
L 149.6954 167.0872 
L 152.4686 167.23592 
L 155.093236 167.1158 
L 157.816914 167.15584 
L 160.491071 167.25308 
L 163.21475 167.05288 
L 165.888907 167.16156 
L 168.563064 167.47616 
L 171.1877 167.62488 
L 173.861857 167.69352 
L 176.585536 167.41324 
L 179.309214 167.52764 
L 181.983371 167.33888 
L 184.70705 167.29884 
L 187.331686 167.745 
L 190.104886 167.29884 
L 192.729521 167.27596 
L 195.403679 165.31972 
L 198.077836 168.01384 
L 200.900557 165.78304 
L 203.574714 164.742 
L 206.248871 166.10336 
L 208.923029 165.17672 
L 211.597186 158.98196 
" clip-path="url(#p4982fb9eea)" style="fill: none; stroke: #000000; stroke-width: 0.75; stroke-linecap: square"/>
   </g>
   <g id="line2d_20">
    <path d="M 73.828571 165.6 
L 76.304643 165.6 
L 78.780714 165.6 
L 81.256786 165.6 
L 83.732857 165.6 
L 86.208929 165.6 
L 88.685 165.6 
L 91.161071 165.6 
L 93.637143 165.6 
L 96.113214 165.6 
L 98.589286 165.6 
L 101.065357 165.6 
L 103.541429 165.6 
L 106.0175 165.6 
L 108.493571 165.6 
L 110.969643 165.6 
L 113.445714 165.6 
L 115.921786 165.6 
L 118.397857 165.6 
L 120.873929 165.6 
L 123.35 165.6 
L 125.826071 165.6 
L 128.302143 165.6 
L 130.778214 165.6 
L 133.254286 165.6 
L 135.730357 165.6 
L 138.206429 165.6 
L 140.6825 165.6 
L 143.158571 165.6 
L 145.634643 165.6 
L 148.110714 165.6 
L 150.586786 165.6 
L 153.062857 165.6 
L 155.538929 165.6 
L 158.015 165.6 
L 160.491071 165.6 
L 162.967143 165.6 
L 165.443214 165.6 
L 167.919286 165.6 
L 170.395357 165.6 
L 172.871429 165.6 
L 175.3475 165.6 
L 177.823571 165.6 
L 180.299643 165.6 
L 182.775714 165.6 
L 185.251786 165.6 
L 187.727857 165.6 
L 190.203929 165.6 
L 192.68 165.6 
L 195.156071 165.6 
L 197.632143 165.6 
L 200.108214 165.6 
L 202.584286 165.6 
L 205.060357 165.6 
L 207.536429 165.6 
L 210.0125 165.6 
L 212.488571 165.6 
" clip-path="url(#p4982fb9eea)" style="fill: none; stroke-dasharray: 2.775,1.2; stroke-dashoffset: 0; stroke: #0000ff; stroke-width: 0.75"/>
   </g>
   <g id="line2d_21">
    <path d="M 78.780714 165.6 
L 81.256786 165.6 
L 83.732857 165.6 
L 86.208929 165.6 
L 88.685 165.6 
L 91.161071 165.6 
L 93.637143 165.6 
L 96.113214 165.6 
L 98.589286 165.6 
L 101.065357 165.6 
L 103.541429 165.6 
L 106.0175 165.6 
L 108.493571 165.6 
L 110.969643 165.6 
L 113.445714 165.6 
L 115.921786 165.6 
L 118.397857 165.6 
L 120.873929 165.6 
L 123.35 165.6 
L 125.826071 165.6 
L 128.302143 165.6 
L 130.778214 165.6 
L 133.254286 165.6 
L 135.730357 165.6 
L 138.206429 165.6 
L 140.6825 165.6 
L 143.158571 165.6 
L 145.634643 165.6 
L 148.110714 165.6 
L 150.586786 165.6 
L 153.062857 165.6 
L 155.538929 165.6 
L 158.015 165.6 
L 160.491071 165.6 
L 162.967143 165.6 
L 165.443214 165.6 
L 167.919286 165.6 
L 170.395357 165.6 
L 172.871429 165.6 
L 175.3475 165.6 
L 177.823571 165.6 
L 180.299643 165.6 
L 182.775714 165.6 
L 185.251786 165.6 
L 187.727857 165.6 
L 190.203929 165.6 
L 192.68 165.6 
L 195.156071 165.6 
L 197.632143 165.6 
L 200.108214 165.6 
L 202.584286 165.6 
L 205.060357 165.6 
L 207.536429 165.6 
L 210.0125 165.6 
L 212.488571 165.6 
" clip-path="url(#p4982fb9eea)" style="fill: none; stroke-dasharray: 3.7,1.6; stroke-dashoffset: 0; stroke: #ff0000"/>
   </g>
   <g id="patch_3">
    <path d="M 54.02 188.48 
L 54.02 28.32 
" style="fill: none; stroke: #000000; stroke-width: 0.8; stroke-linejoin: miter; stroke-linecap: square"/>
   </g>
   <g id="patch_4">
    <path d="M 227.345 188.48 
L 227.345 28.32 
" style="fill: none; stroke: #000000; stroke-width: 0.8; stroke-linejoin: miter; stroke-linecap: square"/>
   </g>
   <g id="patch_5">
    <path d="M 54.02 188.48 
L 227.345 188.48 
" style="fill: none; stroke: #000000; stroke-width: 0.8; stroke-linejoin: miter; stroke-linecap: square"/>
   </g>
   <g id="patch_6">
    <path d="M 54.02 28.32 
L 227.345 28.32 
" style="fill: none; stroke: #000000; stroke-width: 0.8; stroke-linejoin: miter; stroke-linecap: square"/>
   </g>
   <g id="text_7">
    <!-- $\beta$=0° -->
    <g transform="translate(124.9625 22.32)scale(0.12 -0.12)">
     <defs>
      <path id="DejaVuSans-Oblique-3b2" d="M 872 216 
L 572 -1331 
L -6 -1331 
L 928 3478 
Q 1206 4903 2538 4903 
Q 3888 4903 3659 3700 
Q 3503 2844 2894 2531 
Q 3713 2250 3553 1416 
Q 3272 -69 1759 -66 
Q 1097 -63 872 216 
z
M 1019 966 
Q 1259 422 1875 425 
Q 2775 425 2966 1406 
Q 3138 2288 1675 2219 
L 1778 2750 
Q 2909 2731 3106 3750 
Q 3241 4438 2509 4434 
Q 1691 4434 1503 3459 
L 1019 966 
z
" transform="scale(0.015625)"/>
      <path id="DejaVuSans-3d" d="M 678 2906 
L 4684 2906 
L 4684 2381 
L 678 2381 
L 678 2906 
z
M 678 1631 
L 4684 1631 
L 4684 1100 
L 678 1100 
L 678 1631 
z
" transform="scale(0.015625)"/>
      <path id="DejaVuSans-b0" d="M 1600 4347 
Q 1350 4347 1178 4173 
Q 1006 4000 1006 3750 
Q 1006 3503 1178 3333 
Q 1350 3163 1600 3163 
Q 1850 3163 2022 3333 
Q 2194 3503 2194 3750 
Q 2194 3997 2020 4172 
Q 1847 4347 1600 4347 
z
M 1600 4750 
Q 1800 4750 1984 4673 
Q 2169 4597 2303 4453 
Q 2447 4313 2519 4134 
Q 2591 3956 2591 3750 
Q 2591 3338 2302 3052 
Q 2013 2766 1594 2766 
Q 1172 2766 890 3047 
Q 609 3328 609 3750 
Q 609 4169 896 4459 
Q 1184 4750 1600 4750 
z
" transform="scale(0.015625)"/>
     </defs>
     <use xlink:href="#DejaVuSans-Oblique-3b2" transform="translate(0 0.390625)"/>
     <use xlink:href="#DejaVuSans-3d" transform="translate(63.818359 0.390625)"/>
     <use xlink:href="#DejaVuSans-30" transform="translate(147.607422 0.390625)"/>
     <use xlink:href="#DejaVuSans-b0" transform="translate(211.230469 0.390625)"/>
    </g>
   </g>
   <g id="legend_1">
    <g id="patch_7">
     <path d="M 61.02 80.354375 
L 125.559062 80.354375 
Q 127.559062 80.354375 127.559062 78.354375 
L 127.559062 35.32 
Q 127.559062 33.32 125.559062 33.32 
L 61.02 33.32 
Q 59.02 33.32 59.02 35.32 
L 59.02 78.354375 
Q 59.02 80.354375 61.02 80.354375 
z
" style="fill: #ffffff; opacity: 0.8; stroke: #cccccc; stroke-linejoin: miter"/>
    </g>
    <g id="line2d_22">
     <path d="M 63.02 41.418437 
L 73.02 41.418437 
L 83.02 41.418437 
" style="fill: none; stroke: #000000; stroke-width: 0.75; stroke-linecap: square"/>
    </g>
    <g id="text_8">
     <!-- Tunnel -->
     <g transform="translate(91.02 44.918437)scale(0.1 -0.1)">
      <defs>
       <path id="DejaVuSans-54" d="M -19 4666 
L 3928 4666 
L 3928 4134 
L 2272 4134 
L 2272 0 
L 1638 0 
L 1638 4134 
L -19 4134 
L -19 4666 
z
" transform="scale(0.015625)"/>
       <path id="DejaVuSans-75" d="M 544 1381 
L 544 3500 
L 1119 3500 
L 1119 1403 
Q 1119 906 1312 657 
Q 1506 409 1894 409 
Q 2359 409 2629 706 
Q 2900 1003 2900 1516 
L 2900 3500 
L 3475 3500 
L 3475 0 
L 2900 0 
L 2900 538 
Q 2691 219 2414 64 
Q 2138 -91 1772 -91 
Q 1169 -91 856 284 
Q 544 659 544 1381 
z
M 1991 3584 
L 1991 3584 
z
" transform="scale(0.015625)"/>
       <path id="DejaVuSans-65" d="M 3597 1894 
L 3597 1613 
L 953 1613 
Q 991 1019 1311 708 
Q 1631 397 2203 397 
Q 2534 397 2845 478 
Q 3156 559 3463 722 
L 3463 178 
Q 3153 47 2828 -22 
Q 2503 -91 2169 -91 
Q 1331 -91 842 396 
Q 353 884 353 1716 
Q 353 2575 817 3079 
Q 1281 3584 2069 3584 
Q 2775 3584 3186 3129 
Q 3597 2675 3597 1894 
z
M 3022 2063 
Q 3016 2534 2758 2815 
Q 2500 3097 2075 3097 
Q 1594 3097 1305 2825 
Q 1016 2553 972 2059 
L 3022 2063 
z
" transform="scale(0.015625)"/>
       <path id="DejaVuSans-6c" d="M 603 4863 
L 1178 4863 
L 1178 0 
L 603 0 
L 603 4863 
z
" transform="scale(0.015625)"/>
      </defs>
      <use xlink:href="#DejaVuSans-54"/>
      <use xlink:href="#DejaVuSans-75" x="45.958984"/>
      <use xlink:href="#DejaVuSans-6e" x="109.337891"/>
      <use xlink:href="#DejaVuSans-6e" x="172.716797"/>
      <use xlink:href="#DejaVuSans-65" x="236.095703"/>
      <use xlink:href="#DejaVuSans-6c" x="297.619141"/>
     </g>
    </g>
    <g id="line2d_23">
     <path d="M 63.02 56.096563 
L 73.02 56.096563 
L 83.02 56.096563 
" style="fill: none; stroke-dasharray: 2.775,1.2; stroke-dashoffset: 0; stroke: #0000ff; stroke-width: 0.75"/>
    </g>
    <g id="text_9">
     <!-- AVL -->
     <g transform="translate(91.02 59.596563)scale(0.1 -0.1)">
      <defs>
       <path id="DejaVuSans-41" d="M 2188 4044 
L 1331 1722 
L 3047 1722 
L 2188 4044 
z
M 1831 4666 
L 2547 4666 
L 4325 0 
L 3669 0 
L 3244 1197 
L 1141 1197 
L 716 0 
L 50 0 
L 1831 4666 
z
" transform="scale(0.015625)"/>
       <path id="DejaVuSans-56" d="M 1831 0 
L 50 4666 
L 709 4666 
L 2188 738 
L 3669 4666 
L 4325 4666 
L 2547 0 
L 1831 0 
z
" transform="scale(0.015625)"/>
       <path id="DejaVuSans-4c" d="M 628 4666 
L 1259 4666 
L 1259 531 
L 3531 531 
L 3531 0 
L 628 0 
L 628 4666 
z
" transform="scale(0.015625)"/>
      </defs>
      <use xlink:href="#DejaVuSans-41"/>
      <use xlink:href="#DejaVuSans-56" x="62.033203"/>
      <use xlink:href="#DejaVuSans-4c" x="130.441406"/>
     </g>
    </g>
    <g id="line2d_24">
     <path d="M 63.02 70.774687 
L 73.02 70.774687 
L 83.02 70.774687 
" style="fill: none; stroke-dasharray: 3.7,1.6; stroke-dashoffset: 0; stroke: #ff0000"/>
    </g>
    <g id="text_10">
     <!-- NLLT -->
     <g transform="translate(91.02 74.274687)scale(0.1 -0.1)">
      <defs>
       <path id="DejaVuSans-4e" d="M 628 4666 
L 1478 4666 
L 3547 763 
L 3547 4666 
L 4159 4666 
L 4159 0 
L 3309 0 
L 1241 3903 
L 1241 0 
L 628 0 
L 628 4666 
z
" transform="scale(0.015625)"/>
      </defs>
      <use xlink:href="#DejaVuSans-4e"/>
      <use xlink:href="#DejaVuSans-4c" x="74.804688"/>
      <use xlink:href="#DejaVuSans-4c" x="130.517578"/>
      <use xlink:href="#DejaVuSans-54" x="172.480469"/>
     </g>
    </g>
   </g>
  </g>
  <g id="axes_2">
   <g id="patch_8">
    <path d="M 247.875 188.48 
L 421.2 188.48 
L 421.2 28.32 
L 247.875 28.32 
z
" style="fill: #ffffff"/>
   </g>
   <g id="matplotlib.axis_3">
    <g id="xtick_5">
     <g id="line2d_25">
      <path d="M 247.875 188.48 
L 247.875 28.32 
" clip-path="url(#p071408fb33)" style="fill: none; stroke-dasharray: 2.96,1.28; stroke-dashoffset: 0; stroke: #d3d3d3; stroke-width: 0.8"/>
     </g>
     <g id="line2d_26">
      <g>
       <use xlink:href="#m3fd42e3434" x="247.875" y="188.48" style="stroke: #000000; stroke-width: 0.8"/>
      </g>
     </g>
    </g>
    <g id="xtick_6">
     <g id="line2d_27">
      <path d="M 297.396429 188.48 
L 297.396429 28.32 
" clip-path="url(#p071408fb33)" style="fill: none; stroke-dasharray: 2.96,1.28; stroke-dashoffset: 0; stroke: #d3d3d3; stroke-width: 0.8"/>
     </g>
     <g id="line2d_28">
      <g>
       <use xlink:href="#m3fd42e3434" x="297.396429" y="188.48" style="stroke: #000000; stroke-width: 0.8"/>
      </g>
     </g>
    </g>
    <g id="xtick_7">
     <g id="line2d_29">
      <path d="M 346.917857 188.48 
L 346.917857 28.32 
" clip-path="url(#p071408fb33)" style="fill: none; stroke-dasharray: 2.96,1.28; stroke-dashoffset: 0; stroke: #d3d3d3; stroke-width: 0.8"/>
     </g>
     <g id="line2d_30">
      <g>
       <use xlink:href="#m3fd42e3434" x="346.917857" y="188.48" style="stroke: #000000; stroke-width: 0.8"/>
      </g>
     </g>
    </g>
    <g id="xtick_8">
     <g id="line2d_31">
      <path d="M 396.439286 188.48 
L 396.439286 28.32 
" clip-path="url(#p071408fb33)" style="fill: none; stroke-dasharray: 2.96,1.28; stroke-dashoffset: 0; stroke: #d3d3d3; stroke-width: 0.8"/>
     </g>
     <g id="line2d_32">
      <g>
       <use xlink:href="#m3fd42e3434" x="396.439286" y="188.48" style="stroke: #000000; stroke-width: 0.8"/>
      </g>
     </g>
    </g>
   </g>
   <g id="matplotlib.axis_4">
    <g id="ytick_6">
     <g id="line2d_33">
      <path d="M 247.875 165.6 
L 421.2 165.6 
" clip-path="url(#p071408fb33)" style="fill: none; stroke-dasharray: 2.96,1.28; stroke-dashoffset: 0; stroke: #d3d3d3; stroke-width: 0.8"/>
     </g>
     <g id="line2d_34">
      <g>
       <use xlink:href="#m49513981ad" x="247.875" y="165.6" style="stroke: #000000; stroke-width: 0.8"/>
      </g>
     </g>
    </g>
    <g id="ytick_7">
     <g id="line2d_35">
      <path d="M 247.875 137 
L 421.2 137 
" clip-path="url(#p071408fb33)" style="fill: none; stroke-dasharray: 2.96,1.28; stroke-dashoffset: 0; stroke: #d3d3d3; stroke-width: 0.8"/>
     </g>
     <g id="line2d_36">
      <g>
       <use xlink:href="#m49513981ad" x="247.875" y="137" style="stroke: #000000; stroke-width: 0.8"/>
      </g>
     </g>
    </g>
    <g id="ytick_8">
     <g id="line2d_37">
      <path d="M 247.875 108.4 
L 421.2 108.4 
" clip-path="url(#p071408fb33)" style="fill: none; stroke-dasharray: 2.96,1.28; stroke-dashoffset: 0; stroke: #d3d3d3; stroke-width: 0.8"/>
     </g>
     <g id="line2d_38">
      <g>
       <use xlink:href="#m49513981ad" x="247.875" y="108.4" style="stroke: #000000; stroke-width: 0.8"/>
      </g>
     </g>
    </g>
    <g id="ytick_9">
     <g id="line2d_39">
      <path d="M 247.875 79.8 
L 421.2 79.8 
" clip-path="url(#p071408fb33)" style="fill: none; stroke-dasharray: 2.96,1.28; stroke-dashoffset: 0; stroke: #d3d3d3; stroke-width: 0.8"/>
     </g>
     <g id="line2d_40">
      <g>
       <use xlink:href="#m49513981ad" x="247.875" y="79.8" style="stroke: #000000; stroke-width: 0.8"/>
      </g>
     </g>
    </g>
    <g id="ytick_10">
     <g id="line2d_41">
      <path d="M 247.875 51.2 
L 421.2 51.2 
" clip-path="url(#p071408fb33)" style="fill: none; stroke-dasharray: 2.96,1.28; stroke-dashoffset: 0; stroke: #d3d3d3; stroke-width: 0.8"/>
     </g>
     <g id="line2d_42">
      <g>
       <use xlink:href="#m49513981ad" x="247.875" y="51.2" style="stroke: #000000; stroke-width: 0.8"/>
      </g>
     </g>
    </g>
   </g>
   <g id="line2d_43">
    <path d="M 270.7539 167.01284 
L 273.428057 166.0862 
L 276.151736 165.30828 
L 278.825893 164.46172 
L 281.50005 163.8554 
L 284.223729 163.03172 
L 286.897886 162.38536 
L 289.621564 161.44728 
L 292.345243 160.7952 
L 295.0194 159.72556 
L 297.743079 159.10208 
L 300.417236 158.09536 
L 303.140914 157.31744 
L 305.815071 156.61388 
L 308.53875 155.46988 
L 311.212907 154.78348 
L 313.887064 154.16572 
L 316.610743 153.26196 
L 319.334421 152.34104 
L 322.008579 151.30572 
L 324.682736 150.65364 
L 327.406414 149.94436 
L 330.080571 149.155 
L 332.80425 148.33132 
L 335.478407 147.4676 
L 338.152564 146.5238 
L 340.876243 146.0376 
L 343.599921 144.99656 
L 346.224557 144.45316 
L 348.948236 143.41784 
L 351.622393 142.50836 
L 354.29655 141.576 
L 356.970707 140.84956 
L 359.644864 139.88288 
L 362.368543 139.49964 
L 364.993179 138.99628 
L 367.716857 138.716 
L 370.440536 138.58444 
L 373.065171 137.66352 
L 375.838371 136.9142 
L 378.56205 136.63392 
L 381.186686 136.6282 
L 383.860843 144.02988 
L 386.584521 144.3216 
L 389.209157 144.97368 
L 391.932836 145.88316 
L 394.656514 146.5524 
L 397.330671 148.07392 
L 399.955307 148.03388 
L 402.678986 144.90504 
L 405.452186 131.2514 
" clip-path="url(#p071408fb33)" style="fill: none; stroke: #000000; stroke-width: 0.75; stroke-linecap: square"/>
   </g>
   <g id="line2d_44">
    <path d="M 267.683571 170.462 
L 270.159643 169.5468 
L 272.635714 168.6316 
L 275.111786 167.72212 
L 277.587857 166.80692 
L 280.063929 165.89172 
L 282.54 164.97652 
L 285.016071 164.06132 
L 287.492143 163.14612 
L 289.968214 162.23092 
L 292.444286 161.31572 
L 294.920357 160.40052 
L 297.396429 159.49104 
L 299.8725 158.57584 
L 302.348571 157.66636 
L 304.824643 156.75116 
L 307.300714 155.84168 
L 309.776786 154.9322 
L 312.252857 154.02272 
L 314.728929 153.11324 
L 317.205 152.20376 
L 319.681071 151.3 
L 322.157143 150.39052 
L 324.633214 149.48676 
L 327.109286 148.583 
L 329.585357 147.67924 
L 332.061429 146.7812 
L 334.5375 145.88316 
L 337.013571 144.98512 
L 339.489643 144.08708 
L 341.965714 143.19476 
L 344.441786 142.30244 
L 346.917857 141.41012 
L 349.393929 140.52352 
L 351.87 139.6312 
L 354.346071 138.75032 
L 356.822143 137.86372 
L 359.298214 136.98284 
L 361.774286 136.10196 
L 364.250357 135.2268 
L 366.726429 134.35164 
L 369.2025 133.4822 
L 371.678571 132.61276 
L 374.154643 131.74332 
L 376.630714 130.8796 
L 379.106786 130.01588 
L 381.582857 129.15788 
L 384.058929 128.3056 
L 386.535 127.4476 
L 389.011071 126.60104 
L 391.487143 125.74876 
L 393.963214 124.90792 
L 396.439286 124.06708 
L 398.915357 123.22624 
L 401.391429 122.39112 
L 403.8675 121.56172 
L 406.343571 120.73232 
" clip-path="url(#p071408fb33)" style="fill: none; stroke-dasharray: 2.775,1.2; stroke-dashoffset: 0; stroke: #0000ff; stroke-width: 0.75"/>
   </g>
   <g id="line2d_45">
    <path d="M 272.635714 168.978276 
L 275.111786 167.952769 
L 277.587857 166.924005 
L 280.063929 165.892293 
L 282.54 164.854842 
L 285.016071 163.811925 
L 287.492143 162.762513 
L 289.968214 161.713432 
L 292.444286 160.664018 
L 294.920357 159.614859 
L 297.396429 158.570639 
L 299.8725 157.528041 
L 302.348571 156.490739 
L 304.824643 155.458027 
L 307.300714 154.427194 
L 309.776786 153.405196 
L 312.252857 152.387951 
L 314.728929 151.372111 
L 317.205 150.367363 
L 319.681071 149.369034 
L 322.157143 148.374242 
L 324.633214 147.390513 
L 327.109286 146.416779 
L 329.585357 145.44851 
L 332.061429 144.490794 
L 334.5375 143.548733 
L 337.013571 142.613984 
L 339.489643 141.697895 
L 341.965714 140.798611 
L 344.441786 139.911781 
L 346.917857 139.054392 
L 349.393929 138.220757 
L 351.87 137.408706 
L 354.346071 136.628791 
L 356.822143 135.890443 
L 359.298214 135.192857 
L 361.774286 134.54442 
L 364.250357 133.964485 
L 366.726429 133.453079 
L 369.2025 133.059847 
L 371.678571 132.725203 
L 374.154643 132.512371 
L 376.630714 132.437769 
L 379.106786 132.535192 
L 381.582857 132.810391 
L 384.058929 133.316501 
L 386.535 134.118369 
L 389.011071 135.178286 
L 391.487143 136.573035 
L 393.963214 138.311699 
L 396.439286 140.420935 
L 398.915357 143.608093 
L 401.391429 145.899351 
L 403.8675 149.041411 
L 406.343571 153.617142 
" clip-path="url(#p071408fb33)" style="fill: none; stroke-dasharray: 3.7,1.6; stroke-dashoffset: 0; stroke: #ff0000"/>
   </g>
   <g id="patch_9">
    <path d="M 247.875 188.48 
L 247.875 28.32 
" style="fill: none; stroke: #000000; stroke-width: 0.8; stroke-linejoin: miter; stroke-linecap: square"/>
   </g>
   <g id="patch_10">
    <path d="M 421.2 188.48 
L 421.2 28.32 
" style="fill: none; stroke: #000000; stroke-width: 0.8; stroke-linejoin: miter; stroke-linecap: square"/>
   </g>
   <g id="patch_11">
    <path d="M 247.875 188.48 
L 421.2 188.48 
" style="fill: none; stroke: #000000; stroke-width: 0.8; stroke-linejoin: miter; stroke-linecap: square"/>
   </g>
   <g id="patch_12">
    <path d="M 247.875 28.32 
L 421.2 28.32 
" style="fill: none; stroke: #000000; stroke-width: 0.8; stroke-linejoin: miter; stroke-linecap: square"/>
   </g>
   <g id="text_11">
    <!-- $\beta$=5° -->
    <g transform="translate(318.8175 22.32)scale(0.12 -0.12)">
     <use xlink:href="#DejaVuSans-Oblique-3b2" transform="translate(0 0.390625)"/>
     <use xlink:href="#DejaVuSans-3d" transform="translate(63.818359 0.390625)"/>
     <use xlink:href="#DejaVuSans-35" transform="translate(147.607422 0.390625)"/>
     <use xlink:href="#DejaVuSans-b0" transform="translate(211.230469 0.390625)"/>
    </g>
   </g>
  </g>
  <g id="axes_3">
   <g id="patch_13">
    <path d="M 54.02 387.16 
L 227.345 387.16 
L 227.345 227 
L 54.02 227 
z
" style="fill: #ffffff"/>
   </g>
   <g id="matplotlib.axis_5">
    <g id="xtick_9">
     <g id="line2d_46">
      <path d="M 54.02 387.16 
L 54.02 227 
" clip-path="url(#pbaae036b24)" style="fill: none; stroke-dasharray: 2.96,1.28; stroke-dashoffset: 0; stroke: #d3d3d3; stroke-width: 0.8"/>
     </g>
     <g id="line2d_47">
      <g>
       <use xlink:href="#m3fd42e3434" x="54.02" y="387.16" style="stroke: #000000; stroke-width: 0.8"/>
      </g>
     </g>
     <g id="text_12">
      <!-- −10 -->
      <g transform="translate(43.467656 401.758437)scale(0.1 -0.1)">
       <defs>
        <path id="DejaVuSans-2212" d="M 678 2272 
L 4684 2272 
L 4684 1741 
L 678 1741 
L 678 2272 
z
" transform="scale(0.015625)"/>
       </defs>
       <use xlink:href="#DejaVuSans-2212"/>
       <use xlink:href="#DejaVuSans-31" x="83.789062"/>
       <use xlink:href="#DejaVuSans-30" x="147.412109"/>
      </g>
     </g>
    </g>
    <g id="xtick_10">
     <g id="line2d_48">
      <path d="M 103.541429 387.16 
L 103.541429 227 
" clip-path="url(#pbaae036b24)" style="fill: none; stroke-dasharray: 2.96,1.28; stroke-dashoffset: 0; stroke: #d3d3d3; stroke-width: 0.8"/>
     </g>
     <g id="line2d_49">
      <g>
       <use xlink:href="#m3fd42e3434" x="103.541429" y="387.16" style="stroke: #000000; stroke-width: 0.8"/>
      </g>
     </g>
     <g id="text_13">
      <!-- 0 -->
      <g transform="translate(100.360179 401.758437)scale(0.1 -0.1)">
       <use xlink:href="#DejaVuSans-30"/>
      </g>
     </g>
    </g>
    <g id="xtick_11">
     <g id="line2d_50">
      <path d="M 153.062857 387.16 
L 153.062857 227 
" clip-path="url(#pbaae036b24)" style="fill: none; stroke-dasharray: 2.96,1.28; stroke-dashoffset: 0; stroke: #d3d3d3; stroke-width: 0.8"/>
     </g>
     <g id="line2d_51">
      <g>
       <use xlink:href="#m3fd42e3434" x="153.062857" y="387.16" style="stroke: #000000; stroke-width: 0.8"/>
      </g>
     </g>
     <g id="text_14">
      <!-- 10 -->
      <g transform="translate(146.700357 401.758437)scale(0.1 -0.1)">
       <use xlink:href="#DejaVuSans-31"/>
       <use xlink:href="#DejaVuSans-30" x="63.623047"/>
      </g>
     </g>
    </g>
    <g id="xtick_12">
     <g id="line2d_52">
      <path d="M 202.584286 387.16 
L 202.584286 227 
" clip-path="url(#pbaae036b24)" style="fill: none; stroke-dasharray: 2.96,1.28; stroke-dashoffset: 0; stroke: #d3d3d3; stroke-width: 0.8"/>
     </g>
     <g id="line2d_53">
      <g>
       <use xlink:href="#m3fd42e3434" x="202.584286" y="387.16" style="stroke: #000000; stroke-width: 0.8"/>
      </g>
     </g>
     <g id="text_15">
      <!-- 20 -->
      <g transform="translate(196.221786 401.758437)scale(0.1 -0.1)">
       <use xlink:href="#DejaVuSans-32"/>
       <use xlink:href="#DejaVuSans-30" x="63.623047"/>
      </g>
     </g>
    </g>
    <g id="text_16">
     <!-- $\alpha$ [deg] -->
     <g transform="translate(122.4325 415.438125)scale(0.1 -0.1)">
      <defs>
       <path id="DejaVuSans-Oblique-3b1" d="M 2619 1628 
L 2622 2350 
Q 2625 3088 2069 3091 
Q 1653 3094 1394 2747 
Q 1069 2319 959 1747 
Q 825 1059 994 731 
Q 1169 397 1547 397 
Q 1966 397 2319 1063 
L 2619 1628 
z
M 2166 3578 
Q 3141 3594 3128 2584 
Q 3128 2584 3616 3500 
L 4128 3500 
L 3119 1603 
L 3109 919 
Q 3109 766 3194 638 
Q 3291 488 3391 488 
L 3669 488 
L 3575 0 
L 3228 0 
Q 2934 0 2722 263 
Q 2622 394 2619 669 
Q 2416 334 2066 50 
Q 1900 -81 1453 -78 
Q 722 -72 456 397 
Q 184 884 353 1747 
Q 534 2675 1009 3097 
Q 1544 3569 2166 3578 
z
" transform="scale(0.015625)"/>
       <path id="DejaVuSans-20" transform="scale(0.015625)"/>
       <path id="DejaVuSans-5b" d="M 550 4863 
L 1875 4863 
L 1875 4416 
L 1125 4416 
L 1125 -397 
L 1875 -397 
L 1875 -844 
L 550 -844 
L 550 4863 
z
" transform="scale(0.015625)"/>
       <path id="DejaVuSans-64" d="M 2906 2969 
L 2906 4863 
L 3481 4863 
L 3481 0 
L 2906 0 
L 2906 525 
Q 2725 213 2448 61 
Q 2172 -91 1784 -91 
Q 1150 -91 751 415 
Q 353 922 353 1747 
Q 353 2572 751 3078 
Q 1150 3584 1784 3584 
Q 2172 3584 2448 3432 
Q 2725 3281 2906 2969 
z
M 947 1747 
Q 947 1113 1208 752 
Q 1469 391 1925 391 
Q 2381 391 2643 752 
Q 2906 1113 2906 1747 
Q 2906 2381 2643 2742 
Q 2381 3103 1925 3103 
Q 1469 3103 1208 2742 
Q 947 2381 947 1747 
z
" transform="scale(0.015625)"/>
       <path id="DejaVuSans-67" d="M 2906 1791 
Q 2906 2416 2648 2759 
Q 2391 3103 1925 3103 
Q 1463 3103 1205 2759 
Q 947 2416 947 1791 
Q 947 1169 1205 825 
Q 1463 481 1925 481 
Q 2391 481 2648 825 
Q 2906 1169 2906 1791 
z
M 3481 434 
Q 3481 -459 3084 -895 
Q 2688 -1331 1869 -1331 
Q 1566 -1331 1297 -1286 
Q 1028 -1241 775 -1147 
L 775 -588 
Q 1028 -725 1275 -790 
Q 1522 -856 1778 -856 
Q 2344 -856 2625 -561 
Q 2906 -266 2906 331 
L 2906 616 
Q 2728 306 2450 153 
Q 2172 0 1784 0 
Q 1141 0 747 490 
Q 353 981 353 1791 
Q 353 2603 747 3093 
Q 1141 3584 1784 3584 
Q 2172 3584 2450 3431 
Q 2728 3278 2906 2969 
L 2906 3500 
L 3481 3500 
L 3481 434 
z
" transform="scale(0.015625)"/>
       <path id="DejaVuSans-5d" d="M 1947 4863 
L 1947 -844 
L 622 -844 
L 622 -397 
L 1369 -397 
L 1369 4416 
L 622 4416 
L 622 4863 
L 1947 4863 
z
" transform="scale(0.015625)"/>
      </defs>
      <use xlink:href="#DejaVuSans-Oblique-3b1" transform="translate(0 0.015625)"/>
      <use xlink:href="#DejaVuSans-20" transform="translate(65.917969 0.015625)"/>
      <use xlink:href="#DejaVuSans-5b" transform="translate(97.705078 0.015625)"/>
      <use xlink:href="#DejaVuSans-64" transform="translate(136.71875 0.015625)"/>
      <use xlink:href="#DejaVuSans-65" transform="translate(200.195312 0.015625)"/>
      <use xlink:href="#DejaVuSans-67" transform="translate(261.71875 0.015625)"/>
      <use xlink:href="#DejaVuSans-5d" transform="translate(325.195312 0.015625)"/>
     </g>
    </g>
   </g>
   <g id="matplotlib.axis_6">
    <g id="ytick_11">
     <g id="line2d_54">
      <path d="M 54.02 364.28 
L 227.345 364.28 
" clip-path="url(#pbaae036b24)" style="fill: none; stroke-dasharray: 2.96,1.28; stroke-dashoffset: 0; stroke: #d3d3d3; stroke-width: 0.8"/>
     </g>
     <g id="line2d_55">
      <g>
       <use xlink:href="#m49513981ad" x="54.02" y="364.28" style="stroke: #000000; stroke-width: 0.8"/>
      </g>
     </g>
     <g id="text_17">
      <!-- 0.00 -->
      <g transform="translate(24.754375 368.079219)scale(0.1 -0.1)">
       <use xlink:href="#DejaVuSans-30"/>
       <use xlink:href="#DejaVuSans-2e" x="63.623047"/>
       <use xlink:href="#DejaVuSans-30" x="95.410156"/>
       <use xlink:href="#DejaVuSans-30" x="159.033203"/>
      </g>
     </g>
    </g>
    <g id="ytick_12">
     <g id="line2d_56">
      <path d="M 54.02 335.68 
L 227.345 335.68 
" clip-path="url(#pbaae036b24)" style="fill: none; stroke-dasharray: 2.96,1.28; stroke-dashoffset: 0; stroke: #d3d3d3; stroke-width: 0.8"/>
     </g>
     <g id="line2d_57">
      <g>
       <use xlink:href="#m49513981ad" x="54.02" y="335.68" style="stroke: #000000; stroke-width: 0.8"/>
      </g>
     </g>
     <g id="text_18">
      <!-- 0.05 -->
      <g transform="translate(24.754375 339.479219)scale(0.1 -0.1)">
       <use xlink:href="#DejaVuSans-30"/>
       <use xlink:href="#DejaVuSans-2e" x="63.623047"/>
       <use xlink:href="#DejaVuSans-30" x="95.410156"/>
       <use xlink:href="#DejaVuSans-35" x="159.033203"/>
      </g>
     </g>
    </g>
    <g id="ytick_13">
     <g id="line2d_58">
      <path d="M 54.02 307.08 
L 227.345 307.08 
" clip-path="url(#pbaae036b24)" style="fill: none; stroke-dasharray: 2.96,1.28; stroke-dashoffset: 0; stroke: #d3d3d3; stroke-width: 0.8"/>
     </g>
     <g id="line2d_59">
      <g>
       <use xlink:href="#m49513981ad" x="54.02" y="307.08" style="stroke: #000000; stroke-width: 0.8"/>
      </g>
     </g>
     <g id="text_19">
      <!-- 0.10 -->
      <g transform="translate(24.754375 310.879219)scale(0.1 -0.1)">
       <use xlink:href="#DejaVuSans-30"/>
       <use xlink:href="#DejaVuSans-2e" x="63.623047"/>
       <use xlink:href="#DejaVuSans-31" x="95.410156"/>
       <use xlink:href="#DejaVuSans-30" x="159.033203"/>
      </g>
     </g>
    </g>
    <g id="ytick_14">
     <g id="line2d_60">
      <path d="M 54.02 278.48 
L 227.345 278.48 
" clip-path="url(#pbaae036b24)" style="fill: none; stroke-dasharray: 2.96,1.28; stroke-dashoffset: 0; stroke: #d3d3d3; stroke-width: 0.8"/>
     </g>
     <g id="line2d_61">
      <g>
       <use xlink:href="#m49513981ad" x="54.02" y="278.48" style="stroke: #000000; stroke-width: 0.8"/>
      </g>
     </g>
     <g id="text_20">
      <!-- 0.15 -->
      <g transform="translate(24.754375 282.279219)scale(0.1 -0.1)">
       <use xlink:href="#DejaVuSans-30"/>
       <use xlink:href="#DejaVuSans-2e" x="63.623047"/>
       <use xlink:href="#DejaVuSans-31" x="95.410156"/>
       <use xlink:href="#DejaVuSans-35" x="159.033203"/>
      </g>
     </g>
    </g>
    <g id="ytick_15">
     <g id="line2d_62">
      <path d="M 54.02 249.88 
L 227.345 249.88 
" clip-path="url(#pbaae036b24)" style="fill: none; stroke-dasharray: 2.96,1.28; stroke-dashoffset: 0; stroke: #d3d3d3; stroke-width: 0.8"/>
     </g>
     <g id="line2d_63">
      <g>
       <use xlink:href="#m49513981ad" x="54.02" y="249.88" style="stroke: #000000; stroke-width: 0.8"/>
      </g>
     </g>
     <g id="text_21">
      <!-- 0.20 -->
      <g transform="translate(24.754375 253.679219)scale(0.1 -0.1)">
       <use xlink:href="#DejaVuSans-30"/>
       <use xlink:href="#DejaVuSans-2e" x="63.623047"/>
       <use xlink:href="#DejaVuSans-32" x="95.410156"/>
       <use xlink:href="#DejaVuSans-30" x="159.033203"/>
      </g>
     </g>
    </g>
    <g id="text_22">
     <!-- Cn -->
     <g transform="translate(18.674687 313.740156)rotate(-90)scale(0.1 -0.1)">
      <use xlink:href="#DejaVuSans-43"/>
      <use xlink:href="#DejaVuSans-6e" x="69.824219"/>
     </g>
    </g>
   </g>
   <g id="line2d_64">
    <path d="M 76.8989 367.38024 
L 79.573057 365.71572 
L 82.247214 363.88532 
L 84.970893 362.3352 
L 87.694571 360.6764 
L 90.368729 359.17204 
L 93.042886 357.54184 
L 95.766564 356.07752 
L 98.490243 354.25284 
L 101.1644 352.60548 
L 103.838557 350.94668 
L 106.562236 349.31076 
L 109.285914 347.24012 
L 111.960071 345.70716 
L 114.634229 343.76236 
L 117.357907 342.34952 
L 120.032064 340.45048 
L 122.755743 338.826 
L 125.479421 337.05852 
L 128.153579 335.17664 
L 130.877257 333.9068 
L 133.551414 332.23656 
L 136.225571 330.77796 
L 138.899729 329.07912 
L 141.623407 327.48896 
L 144.347086 326.20768 
L 147.021243 324.90924 
L 149.6954 323.8682 
L 152.369557 323.42204 
L 155.043714 323.47924 
L 157.767393 323.05596 
L 160.491071 322.66128 
L 163.165229 322.42676 
L 165.839386 321.59164 
L 168.464021 320.85948 
L 171.237221 321.25416 
L 173.861857 320.81944 
L 176.585536 320.53916 
L 179.259693 320.88808 
L 181.93385 321.18552 
L 184.608007 323.60508 
L 187.282164 333.89536 
L 190.055364 332.38528 
L 192.779043 340.03292 
L 195.403679 339.67256 
L 198.028314 343.36768 
L 200.851036 344.35724 
L 203.475671 347.84644 
L 206.19935 350.54628 
L 208.923029 352.85144 
L 211.547664 355.15088 
" clip-path="url(#pbaae036b24)" style="fill: none; stroke: #000000; stroke-width: 0.75; stroke-linecap: square"/>
   </g>
   <g id="line2d_65">
    <path d="M 73.828571 373.85528 
L 76.304643 372.0592 
L 78.780714 370.2574 
L 81.256786 368.4556 
L 83.732857 366.6538 
L 86.208929 364.852 
L 88.685 363.0502 
L 91.161071 361.2484 
L 93.637143 359.4466 
L 96.113214 357.6448 
L 98.589286 355.843 
L 101.065357 354.04692 
L 103.541429 352.24512 
L 106.0175 350.44904 
L 108.493571 348.64724 
L 110.969643 346.85116 
L 113.445714 345.0608 
L 115.921786 343.26472 
L 118.397857 341.47436 
L 120.873929 339.684 
L 123.35 337.89364 
L 125.826071 336.109 
L 128.302143 334.32436 
L 130.778214 332.54544 
L 133.254286 330.76652 
L 135.730357 328.9876 
L 138.206429 327.2144 
L 140.6825 325.4412 
L 143.158571 323.67372 
L 145.634643 321.91196 
L 148.110714 320.1502 
L 150.586786 318.38844 
L 153.062857 316.6324 
L 155.538929 314.88208 
L 158.015 313.13748 
L 160.491071 311.39288 
L 162.967143 309.654 
L 165.443214 307.91512 
L 167.919286 306.18768 
L 170.395357 304.46024 
L 172.871429 302.73852 
L 175.3475 301.0168 
L 177.823571 299.30652 
L 180.299643 297.59624 
L 182.775714 295.8974 
L 185.251786 294.19856 
L 187.727857 292.50544 
L 190.203929 290.81804 
L 192.68 289.13636 
L 195.156071 287.4604 
L 197.632143 285.79016 
L 200.108214 284.13136 
L 202.584286 282.47256 
L 205.060357 280.81948 
L 207.536429 279.17784 
L 210.0125 277.5362 
L 212.488571 275.906 
" clip-path="url(#pbaae036b24)" style="fill: none; stroke-dasharray: 2.775,1.2; stroke-dashoffset: 0; stroke: #0000ff; stroke-width: 0.75"/>
   </g>
   <g id="line2d_66">
    <path d="M 78.780714 371.307687 
L 81.256786 369.326784 
L 83.732857 367.329064 
L 86.208929 365.326451 
L 88.685 363.312842 
L 91.161071 361.294582 
L 93.637143 359.267499 
L 96.113214 357.240378 
L 98.589286 355.215326 
L 101.065357 353.186548 
L 103.541429 351.159117 
L 106.0175 349.139096 
L 108.493571 347.12274 
L 110.969643 345.11503 
L 113.445714 343.110315 
L 115.921786 341.119928 
L 118.397857 339.142175 
L 120.873929 337.172593 
L 123.35 335.22139 
L 125.826071 333.28987 
L 128.302143 331.374485 
L 130.778214 329.482605 
L 133.254286 327.615107 
L 135.730357 325.781436 
L 138.206429 323.977259 
L 140.6825 322.21723 
L 143.158571 320.500655 
L 145.634643 318.849208 
L 148.110714 317.254502 
L 150.586786 315.749138 
L 153.062857 314.314566 
L 155.538929 313.033037 
L 158.015 311.93198 
L 160.491071 311.064385 
L 162.967143 310.616287 
L 165.443214 310.784603 
L 167.919286 311.291794 
L 170.395357 311.479068 
L 172.871429 311.297051 
L 175.3475 311.028243 
L 177.823571 310.749559 
L 180.299643 310.657679 
L 182.775714 310.905263 
L 185.251786 312.08716 
L 187.727857 315.310352 
L 190.203929 316.90251 
L 192.68 317.877675 
L 195.156071 318.927727 
L 197.632143 321.650643 
" clip-path="url(#pbaae036b24)" style="fill: none; stroke-dasharray: 3.7,1.6; stroke-dashoffset: 0; stroke: #ff0000"/>
   </g>
   <g id="patch_14">
    <path d="M 54.02 387.16 
L 54.02 227 
" style="fill: none; stroke: #000000; stroke-width: 0.8; stroke-linejoin: miter; stroke-linecap: square"/>
   </g>
   <g id="patch_15">
    <path d="M 227.345 387.16 
L 227.345 227 
" style="fill: none; stroke: #000000; stroke-width: 0.8; stroke-linejoin: miter; stroke-linecap: square"/>
   </g>
   <g id="patch_16">
    <path d="M 54.02 387.16 
L 227.345 387.16 
" style="fill: none; stroke: #000000; stroke-width: 0.8; stroke-linejoin: miter; stroke-linecap: square"/>
   </g>
   <g id="patch_17">
    <path d="M 54.02 227 
L 227.345 227 
" style="fill: none; stroke: #000000; stroke-width: 0.8; stroke-linejoin: miter; stroke-linecap: square"/>
   </g>
   <g id="text_23">
    <!-- $\beta$=10° -->
    <g transform="translate(121.1825 221)scale(0.12 -0.12)">
     <use xlink:href="#DejaVuSans-Oblique-3b2" transform="translate(0 0.390625)"/>
     <use xlink:href="#DejaVuSans-3d" transform="translate(63.818359 0.390625)"/>
     <use xlink:href="#DejaVuSans-31" transform="translate(147.607422 0.390625)"/>
     <use xlink:href="#DejaVuSans-30" transform="translate(211.230469 0.390625)"/>
     <use xlink:href="#DejaVuSans-b0" transform="translate(274.853516 0.390625)"/>
    </g>
   </g>
  </g>
  <g id="axes_4">
   <g id="patch_18">
    <path d="M 247.875 387.16 
L 421.2 387.16 
L 421.2 227 
L 247.875 227 
z
" style="fill: #ffffff"/>
   </g>
   <g id="matplotlib.axis_7">
    <g id="xtick_13">
     <g id="line2d_67">
      <path d="M 247.875 387.16 
L 247.875 227 
" clip-path="url(#p2ae2b1aef0)" style="fill: none; stroke-dasharray: 2.96,1.28; stroke-dashoffset: 0; stroke: #d3d3d3; stroke-width: 0.8"/>
     </g>
     <g id="line2d_68">
      <g>
       <use xlink:href="#m3fd42e3434" x="247.875" y="387.16" style="stroke: #000000; stroke-width: 0.8"/>
      </g>
     </g>
     <g id="text_24">
      <!-- −10 -->
      <g transform="translate(237.322656 401.758437)scale(0.1 -0.1)">
       <use xlink:href="#DejaVuSans-2212"/>
       <use xlink:href="#DejaVuSans-31" x="83.789062"/>
       <use xlink:href="#DejaVuSans-30" x="147.412109"/>
      </g>
     </g>
    </g>
    <g id="xtick_14">
     <g id="line2d_69">
      <path d="M 297.396429 387.16 
L 297.396429 227 
" clip-path="url(#p2ae2b1aef0)" style="fill: none; stroke-dasharray: 2.96,1.28; stroke-dashoffset: 0; stroke: #d3d3d3; stroke-width: 0.8"/>
     </g>
     <g id="line2d_70">
      <g>
       <use xlink:href="#m3fd42e3434" x="297.396429" y="387.16" style="stroke: #000000; stroke-width: 0.8"/>
      </g>
     </g>
     <g id="text_25">
      <!-- 0 -->
      <g transform="translate(294.215179 401.758437)scale(0.1 -0.1)">
       <use xlink:href="#DejaVuSans-30"/>
      </g>
     </g>
    </g>
    <g id="xtick_15">
     <g id="line2d_71">
      <path d="M 346.917857 387.16 
L 346.917857 227 
" clip-path="url(#p2ae2b1aef0)" style="fill: none; stroke-dasharray: 2.96,1.28; stroke-dashoffset: 0; stroke: #d3d3d3; stroke-width: 0.8"/>
     </g>
     <g id="line2d_72">
      <g>
       <use xlink:href="#m3fd42e3434" x="346.917857" y="387.16" style="stroke: #000000; stroke-width: 0.8"/>
      </g>
     </g>
     <g id="text_26">
      <!-- 10 -->
      <g transform="translate(340.555357 401.758437)scale(0.1 -0.1)">
       <use xlink:href="#DejaVuSans-31"/>
       <use xlink:href="#DejaVuSans-30" x="63.623047"/>
      </g>
     </g>
    </g>
    <g id="xtick_16">
     <g id="line2d_73">
      <path d="M 396.439286 387.16 
L 396.439286 227 
" clip-path="url(#p2ae2b1aef0)" style="fill: none; stroke-dasharray: 2.96,1.28; stroke-dashoffset: 0; stroke: #d3d3d3; stroke-width: 0.8"/>
     </g>
     <g id="line2d_74">
      <g>
       <use xlink:href="#m3fd42e3434" x="396.439286" y="387.16" style="stroke: #000000; stroke-width: 0.8"/>
      </g>
     </g>
     <g id="text_27">
      <!-- 20 -->
      <g transform="translate(390.076786 401.758437)scale(0.1 -0.1)">
       <use xlink:href="#DejaVuSans-32"/>
       <use xlink:href="#DejaVuSans-30" x="63.623047"/>
      </g>
     </g>
    </g>
    <g id="text_28">
     <!-- $\alpha$ [deg] -->
     <g transform="translate(316.2875 415.438125)scale(0.1 -0.1)">
      <use xlink:href="#DejaVuSans-Oblique-3b1" transform="translate(0 0.015625)"/>
      <use xlink:href="#DejaVuSans-20" transform="translate(65.917969 0.015625)"/>
      <use xlink:href="#DejaVuSans-5b" transform="translate(97.705078 0.015625)"/>
      <use xlink:href="#DejaVuSans-64" transform="translate(136.71875 0.015625)"/>
      <use xlink:href="#DejaVuSans-65" transform="translate(200.195312 0.015625)"/>
      <use xlink:href="#DejaVuSans-67" transform="translate(261.71875 0.015625)"/>
      <use xlink:href="#DejaVuSans-5d" transform="translate(325.195312 0.015625)"/>
     </g>
    </g>
   </g>
   <g id="matplotlib.axis_8">
    <g id="ytick_16">
     <g id="line2d_75">
      <path d="M 247.875 364.28 
L 421.2 364.28 
" clip-path="url(#p2ae2b1aef0)" style="fill: none; stroke-dasharray: 2.96,1.28; stroke-dashoffset: 0; stroke: #d3d3d3; stroke-width: 0.8"/>
     </g>
     <g id="line2d_76">
      <g>
       <use xlink:href="#m49513981ad" x="247.875" y="364.28" style="stroke: #000000; stroke-width: 0.8"/>
      </g>
     </g>
    </g>
    <g id="ytick_17">
     <g id="line2d_77">
      <path d="M 247.875 335.68 
L 421.2 335.68 
" clip-path="url(#p2ae2b1aef0)" style="fill: none; stroke-dasharray: 2.96,1.28; stroke-dashoffset: 0; stroke: #d3d3d3; stroke-width: 0.8"/>
     </g>
     <g id="line2d_78">
      <g>
       <use xlink:href="#m49513981ad" x="247.875" y="335.68" style="stroke: #000000; stroke-width: 0.8"/>
      </g>
     </g>
    </g>
    <g id="ytick_18">
     <g id="line2d_79">
      <path d="M 247.875 307.08 
L 421.2 307.08 
" clip-path="url(#p2ae2b1aef0)" style="fill: none; stroke-dasharray: 2.96,1.28; stroke-dashoffset: 0; stroke: #d3d3d3; stroke-width: 0.8"/>
     </g>
     <g id="line2d_80">
      <g>
       <use xlink:href="#m49513981ad" x="247.875" y="307.08" style="stroke: #000000; stroke-width: 0.8"/>
      </g>
     </g>
    </g>
    <g id="ytick_19">
     <g id="line2d_81">
      <path d="M 247.875 278.48 
L 421.2 278.48 
" clip-path="url(#p2ae2b1aef0)" style="fill: none; stroke-dasharray: 2.96,1.28; stroke-dashoffset: 0; stroke: #d3d3d3; stroke-width: 0.8"/>
     </g>
     <g id="line2d_82">
      <g>
       <use xlink:href="#m49513981ad" x="247.875" y="278.48" style="stroke: #000000; stroke-width: 0.8"/>
      </g>
     </g>
    </g>
    <g id="ytick_20">
     <g id="line2d_83">
      <path d="M 247.875 249.88 
L 421.2 249.88 
" clip-path="url(#p2ae2b1aef0)" style="fill: none; stroke-dasharray: 2.96,1.28; stroke-dashoffset: 0; stroke: #d3d3d3; stroke-width: 0.8"/>
     </g>
     <g id="line2d_84">
      <g>
       <use xlink:href="#m49513981ad" x="247.875" y="249.88" style="stroke: #000000; stroke-width: 0.8"/>
      </g>
     </g>
    </g>
   </g>
   <g id="line2d_85">
    <path d="M 270.704379 362.28372 
L 273.428057 361.69456 
L 276.151736 360.44188 
L 278.825893 359.34364 
L 281.50005 357.63336 
L 284.223729 355.75148 
L 286.947407 353.57216 
L 289.621564 351.03248 
L 292.345243 348.95612 
L 295.0194 346.6052 
L 297.743079 344.38012 
L 300.417236 342.18936 
L 303.140914 339.684 
L 305.815071 337.96228 
L 308.489229 335.78868 
L 311.212907 337.15576 
L 313.887064 334.31292 
L 316.610743 334.63324 
L 319.2849 333.17464 
L 322.008579 332.12216 
L 324.682736 330.16592 
L 327.406414 328.89036 
L 330.080571 327.49468 
L 332.80425 325.79012 
L 335.478407 323.81672 
L 338.152564 325.65856 
L 340.876243 328.11816 
L 343.5504 325.86448 
L 346.274079 324.25716 
L 348.898714 322.953 
L 351.572871 323.10744 
L 354.346071 322.1236 
L 357.020229 321.07112 
L 359.694386 320.1216 
L 362.418064 319.89852 
L 365.092221 318.26832 
L 367.766379 318.0624 
L 370.490057 317.36456 
L 373.114693 317.64484 
L 375.78885 317.9766 
L 378.512529 318.46852 
L 381.186686 320.41904 
L 383.910364 327.71204 
L 386.634043 329.96572 
L 389.209157 331.77324 
L 391.932836 336.13188 
L 394.656514 334.23284 
L 397.330671 341.38284 
L 400.05435 344.19136 
L 402.728507 348.31548 
L 405.402664 351.87332 
" clip-path="url(#p2ae2b1aef0)" style="fill: none; stroke: #000000; stroke-width: 0.75; stroke-linecap: square"/>
   </g>
   <g id="line2d_86">
    <path d="M 267.683571 378.28256 
L 270.159643 375.65136 
L 272.635714 373.01444 
L 275.111786 370.38324 
L 277.587857 367.75204 
L 280.063929 365.11512 
L 282.54 362.48392 
L 285.016071 359.847 
L 287.492143 357.2158 
L 289.968214 354.57888 
L 292.444286 351.94768 
L 294.920357 349.31648 
L 297.396429 346.68528 
L 299.8725 344.0598 
L 302.348571 341.4286 
L 304.824643 338.80312 
L 307.300714 336.18336 
L 309.776786 333.55788 
L 312.252857 330.93812 
L 314.728929 328.32408 
L 317.205 325.71004 
L 319.681071 323.096 
L 322.157143 320.48768 
L 324.633214 317.88508 
L 327.109286 315.28248 
L 329.585357 312.6856 
L 332.061429 310.09444 
L 334.5375 307.50328 
L 337.013571 304.91784 
L 339.489643 302.33812 
L 341.965714 299.76412 
L 344.441786 297.19012 
L 346.917857 294.62756 
L 349.393929 292.065 
L 351.87 289.51388 
L 354.346071 286.96276 
L 356.822143 284.41736 
L 359.298214 281.8834 
L 361.774286 279.34944 
L 364.250357 276.82692 
L 366.726429 274.31012 
L 369.2025 271.79904 
L 371.678571 269.29368 
L 374.154643 266.79976 
L 376.630714 264.30584 
L 379.106786 261.82908 
L 381.582857 259.35232 
L 384.058929 256.887 
L 386.535 254.4274 
L 389.011071 251.97924 
L 391.487143 249.5368 
L 393.963214 247.1058 
L 396.439286 244.68624 
L 398.915357 242.2724 
L 401.391429 239.86428 
L 403.8675 237.4676 
L 406.343571 235.08236 
" clip-path="url(#p2ae2b1aef0)" style="fill: none; stroke-dasharray: 2.775,1.2; stroke-dashoffset: 0; stroke: #0000ff; stroke-width: 0.75"/>
   </g>
   <g id="line2d_87">
    <path d="M 272.635714 375.305617 
L 275.111786 372.526774 
L 277.587857 369.72703 
L 280.063929 366.904331 
L 282.54 364.063584 
L 285.016071 361.20846 
L 287.492143 358.34813 
L 289.968214 355.487509 
L 292.444286 352.627468 
L 294.920357 349.776125 
L 297.396429 346.936228 
L 299.8725 344.105928 
L 302.348571 341.295772 
L 304.824643 338.513683 
L 307.300714 335.750615 
L 309.776786 333.032402 
L 312.252857 330.366914 
L 314.728929 327.766412 
L 317.205 325.223063 
L 319.681071 322.77499 
L 322.157143 320.4191 
L 324.633214 318.181131 
L 327.109286 316.051625 
L 329.585357 314.059734 
L 332.061429 312.2172 
L 334.5375 310.635574 
L 337.013571 309.687289 
L 339.489643 309.276933 
L 341.965714 308.311849 
L 344.441786 306.967691 
L 346.917857 305.508327 
L 349.393929 304.069397 
L 351.87 302.687108 
L 354.346071 301.431904 
L 356.822143 300.297906 
L 359.298214 299.388238 
" clip-path="url(#p2ae2b1aef0)" style="fill: none; stroke-dasharray: 3.7,1.6; stroke-dashoffset: 0; stroke: #ff0000"/>
   </g>
   <g id="patch_19">
    <path d="M 247.875 387.16 
L 247.875 227 
" style="fill: none; stroke: #000000; stroke-width: 0.8; stroke-linejoin: miter; stroke-linecap: square"/>
   </g>
   <g id="patch_20">
    <path d="M 421.2 387.16 
L 421.2 227 
" style="fill: none; stroke: #000000; stroke-width: 0.8; stroke-linejoin: miter; stroke-linecap: square"/>
   </g>
   <g id="patch_21">
    <path d="M 247.875 387.16 
L 421.2 387.16 
" style="fill: none; stroke: #000000; stroke-width: 0.8; stroke-linejoin: miter; stroke-linecap: square"/>
   </g>
   <g id="patch_22">
    <path d="M 247.875 227 
L 421.2 227 
" style="fill: none; stroke: #000000; stroke-width: 0.8; stroke-linejoin: miter; stroke-linecap: square"/>
   </g>
   <g id="text_29">
    <!-- $\beta$=15° -->
    <g transform="translate(315.0375 221)scale(0.12 -0.12)">
     <use xlink:href="#DejaVuSans-Oblique-3b2" transform="translate(0 0.390625)"/>
     <use xlink:href="#DejaVuSans-3d" transform="translate(63.818359 0.390625)"/>
     <use xlink:href="#DejaVuSans-31" transform="translate(147.607422 0.390625)"/>
     <use xlink:href="#DejaVuSans-35" transform="translate(211.230469 0.390625)"/>
     <use xlink:href="#DejaVuSans-b0" transform="translate(274.853516 0.390625)"/>
    </g>
   </g>
  </g>
 </g>
 <defs>
  <clipPath id="p4982fb9eea">
   <rect x="54.02" y="28.32" width="173.325" height="160.16"/>
  </clipPath>
  <clipPath id="p071408fb33">
   <rect x="247.875" y="28.32" width="173.325" height="160.16"/>
  </clipPath>
  <clipPath id="pbaae036b24">
   <rect x="54.02" y="227" width="173.325" height="160.16"/>
  </clipPath>
  <clipPath id="p2ae2b1aef0">
   <rect x="247.875" y="227" width="173.325" height="160.16"/>
  </clipPath>
 </defs>
</svg>
