<?xml version="1.0" encoding="UTF-8" standalone="no"?>
<svg
   xmlns:dc="http://purl.org/dc/elements/1.1/"
   xmlns:cc="http://creativecommons.org/ns#"
   xmlns:rdf="http://www.w3.org/1999/02/22-rdf-syntax-ns#"
   xmlns:svg="http://www.w3.org/2000/svg"
   xmlns="http://www.w3.org/2000/svg"
   xmlns:xlink="http://www.w3.org/1999/xlink"
   xmlns:sodipodi="http://sodipodi.sourceforge.net/DTD/sodipodi-0.dtd"
   xmlns:inkscape="http://www.inkscape.org/namespaces/inkscape"
   sodipodi:docname="paraglider_diagram.svg"
   inkscape:version="1.0 (4035a4fb49, 2020-05-01)"
   width="164.48511mm"
   height="189.4684mm"
   viewBox="0 0 164.48511 189.4684"
   version="1.1"
   id="svg8">
  <defs
     id="defs2">
    <g
       id="g2862">
      <symbol
         id="symbol4072"
         overflow="visible">
        <path
           id="path473"
           d=""
           style="stroke:none" />
      </symbol>
      <symbol
         id="symbol3379"
         overflow="visible">
        <path
           id="path2780"
           d="M 1.59375,-0.78125 C 1.5,-0.390625 1.46875,-0.3125 0.6875,-0.3125 c -0.171875,0 -0.265625,0 -0.265625,0.203125 C 0.421875,0 0.515625,0 0.6875,0 H 4.25 C 5.828125,0 7,-1.171875 7,-2.15625 7,-2.875 6.421875,-3.453125 5.453125,-3.5625 6.484375,-3.75 7.53125,-4.484375 7.53125,-5.4375 c 0,-0.734375 -0.65625,-1.375 -1.84375,-1.375 H 2.328125 c -0.1875,0 -0.28125,0 -0.28125,0.203125 0,0.109375 0.09375,0.109375 0.28125,0.109375 0.015625,0 0.203125,0 0.375,0.015625 0.171875,0.03125 0.265625,0.03125 0.265625,0.171875 0,0.03125 -0.015625,0.0625 -0.03125,0.1875 z m 1.5,-2.875 0.625,-2.46875 C 3.8125,-6.46875 3.828125,-6.5 4.25,-6.5 h 1.296875 c 0.875,0 1.078125,0.59375 1.078125,1.03125 0,0.875 -0.859375,1.8125 -2.0625,1.8125 z m -0.4375,3.34375 c -0.140625,0 -0.15625,0 -0.21875,0 -0.109375,-0.015625 -0.140625,-0.03125 -0.140625,-0.109375 0,-0.03125 0,-0.046875 0.0625,-0.21875 l 0.6875,-2.78125 h 1.875 c 0.953125,0 1.15625,0.734375 1.15625,1.15625 C 6.078125,-1.28125 5.1875,-0.3125 4,-0.3125 Z m 0,0"
           style="stroke:none" />
      </symbol>
      <symbol
         id="symbol4059"
         overflow="visible">
        <path
           id="path642"
           d="M 3.015625,-3.15625 H 4.71875 c 1.40625,0 2.796875,-1.03125 2.796875,-2.140625 0,-0.78125 -0.65625,-1.515625 -1.96875,-1.515625 h -3.21875 c -0.1875,0 -0.296875,0 -0.296875,0.1875 0,0.125 0.078125,0.125 0.28125,0.125 0.125,0 0.3125,0.015625 0.421875,0.015625 0.171875,0.03125 0.21875,0.046875 0.21875,0.171875 0,0.03125 0,0.0625 -0.03125,0.1875 l -1.34375,5.34375 c -0.09375,0.390625 -0.109375,0.46875 -0.90625,0.46875 -0.15625,0 -0.265625,0 -0.265625,0.1875 C 0.40625,0 0.515625,0 0.546875,0 0.828125,0 1.53125,-0.03125 1.8125,-0.03125 c 0.21875,0 0.4375,0.015625 0.640625,0.015625 0.21875,0 0.4375,0.015625 0.640625,0.015625 0.078125,0 0.203125,0 0.203125,-0.203125 0,-0.109375 -0.09375,-0.109375 -0.28125,-0.109375 -0.359375,0 -0.640625,0 -0.640625,-0.171875 0,-0.0625 0.015625,-0.109375 0.03125,-0.171875 z M 3.734375,-6.125 C 3.828125,-6.46875 3.84375,-6.5 4.28125,-6.5 h 0.953125 c 0.828125,0 1.359375,0.265625 1.359375,0.953125 0,0.390625 -0.203125,1.25 -0.59375,1.609375 -0.5,0.453125 -1.09375,0.53125 -1.53125,0.53125 H 3.0625 Z m 0,0"
           style="stroke:none" />
      </symbol>
      <symbol
         id="symbol8168"
         overflow="visible">
        <path
           id="path380"
           d="m 3.734375,-6.125 c 0.0625,-0.234375 0.09375,-0.328125 0.28125,-0.359375 C 4.109375,-6.5 4.421875,-6.5 4.625,-6.5 c 0.703125,0 1.8125,0 1.8125,0.984375 0,0.34375 -0.15625,1.03125 -0.546875,1.421875 -0.265625,0.25 -0.78125,0.578125 -1.6875,0.578125 H 3.09375 Z m 1.4375,2.734375 c 1.015625,-0.21875 2.1875,-0.921875 2.1875,-1.921875 0,-0.859375 -0.890625,-1.5 -2.203125,-1.5 H 2.328125 c -0.203125,0 -0.296875,0 -0.296875,0.203125 C 2.03125,-6.5 2.125,-6.5 2.3125,-6.5 c 0.015625,0 0.203125,0 0.375,0.015625 0.1875,0.03125 0.265625,0.03125 0.265625,0.171875 0,0.03125 0,0.0625 -0.03125,0.1875 l -1.34375,5.34375 C 1.484375,-0.390625 1.46875,-0.3125 0.671875,-0.3125 0.5,-0.3125 0.40625,-0.3125 0.40625,-0.109375 0.40625,0 0.53125,0 0.546875,0 c 0.28125,0 0.984375,-0.03125 1.25,-0.03125 0.28125,0 1,0.03125 1.28125,0.03125 0.078125,0 0.1875,0 0.1875,-0.203125 0,-0.109375 -0.078125,-0.109375 -0.28125,-0.109375 -0.359375,0 -0.640625,0 -0.640625,-0.171875 0,-0.0625 0.015625,-0.109375 0.03125,-0.171875 l 0.65625,-2.640625 h 1.1875 c 0.90625,0 1.078125,0.5625 1.078125,0.90625 0,0.140625 -0.078125,0.453125 -0.140625,0.6875 C 5.09375,-1.421875 5,-1.0625 5,-0.859375 5,0.21875 6.203125,0.21875 6.328125,0.21875 c 0.84375,0 1.203125,-1 1.203125,-1.140625 0,-0.125 -0.109375,-0.125 -0.125,-0.125 -0.09375,0 -0.109375,0.0625 -0.125,0.140625 C 7.03125,-0.171875 6.59375,0 6.375,0 6.046875,0 5.96875,-0.21875 5.96875,-0.609375 c 0,-0.3125 0.0625,-0.8125 0.109375,-1.140625 0.015625,-0.140625 0.03125,-0.328125 0.03125,-0.46875 0,-0.765625 -0.671875,-1.078125 -0.9375,-1.171875 z m 0,0"
           style="stroke:none" />
      </symbol>
      <symbol
         id="symbol5679"
         overflow="visible">
        <path
           id="path4874"
           d="M 3.734375,-6.03125 C 3.8125,-6.390625 3.84375,-6.5 4.78125,-6.5 c 0.296875,0 0.375,0 0.375,-0.1875 0,-0.125 -0.109375,-0.125 -0.15625,-0.125 -0.328125,0 -1.140625,0.03125 -1.46875,0.03125 -0.296875,0 -1.03125,-0.03125 -1.328125,-0.03125 -0.0625,0 -0.1875,0 -0.1875,0.203125 0,0.109375 0.09375,0.109375 0.28125,0.109375 0.015625,0 0.203125,0 0.375,0.015625 0.171875,0.03125 0.265625,0.03125 0.265625,0.171875 0,0.03125 0,0.0625 -0.03125,0.1875 L 1.5625,-0.78125 c -0.09375,0.390625 -0.109375,0.46875 -0.90625,0.46875 -0.171875,0 -0.265625,0 -0.265625,0.203125 C 0.390625,0 0.484375,0 0.65625,0 h 4.625 C 5.515625,0 5.515625,0 5.578125,-0.171875 L 6.375,-2.328125 c 0.03125,-0.109375 0.03125,-0.125 0.03125,-0.140625 0,-0.03125 -0.03125,-0.109375 -0.109375,-0.109375 -0.09375,0 -0.109375,0.0625 -0.171875,0.21875 -0.34375,0.90625 -0.78125,2.046875 -2.5,2.046875 H 2.6875 c -0.140625,0 -0.171875,0 -0.21875,0 -0.109375,-0.015625 -0.140625,-0.03125 -0.140625,-0.109375 0,-0.03125 0,-0.046875 0.046875,-0.21875 z m 0,0"
           style="stroke:none" />
      </symbol>
    </g>
    <g
       id="g7771">
      <symbol
         id="symbol963"
         overflow="visible">
        <path
           id="path5616"
           d=""
           style="stroke:none;" />
      </symbol>
      <symbol
         id="symbol6736"
         overflow="visible">
        <path
           id="path461"
           d="M 7.578125 -6.921875 C 7.578125 -6.953125 7.5625 -7.03125 7.46875 -7.03125 C 7.4375 -7.03125 7.421875 -7.015625 7.3125 -6.90625 L 6.625 -6.140625 C 6.53125 -6.28125 6.078125 -7.03125 4.96875 -7.03125 C 2.734375 -7.03125 0.5 -4.828125 0.5 -2.515625 C 0.5 -0.875 1.671875 0.21875 3.203125 0.21875 C 4.0625 0.21875 4.828125 -0.171875 5.359375 -0.640625 C 6.28125 -1.453125 6.453125 -2.359375 6.453125 -2.390625 C 6.453125 -2.5 6.34375 -2.5 6.328125 -2.5 C 6.265625 -2.5 6.21875 -2.46875 6.203125 -2.390625 C 6.109375 -2.109375 5.875 -1.390625 5.1875 -0.8125 C 4.5 -0.265625 3.875 -0.09375 3.359375 -0.09375 C 2.46875 -0.09375 1.40625 -0.609375 1.40625 -2.15625 C 1.40625 -2.734375 1.609375 -4.34375 2.609375 -5.515625 C 3.21875 -6.21875 4.15625 -6.71875 5.046875 -6.71875 C 6.0625 -6.71875 6.65625 -5.953125 6.65625 -4.796875 C 6.65625 -4.390625 6.625 -4.390625 6.625 -4.28125 C 6.625 -4.1875 6.734375 -4.1875 6.765625 -4.1875 C 6.890625 -4.1875 6.890625 -4.203125 6.953125 -4.390625 Z M 7.578125 -6.921875 "
           style="stroke:none;" />
      </symbol>
    </g>
  </defs>
  <sodipodi:namedview
     inkscape:snap-nodes="true"
     inkscape:snap-smooth-nodes="true"
     inkscape:snap-to-guides="true"
     inkscape:window-maximized="1"
     inkscape:window-y="27"
     inkscape:window-x="0"
     inkscape:window-height="1376"
     inkscape:window-width="2560"
     inkscape:guide-bbox="true"
     showguides="true"
     showgrid="false"
     inkscape:document-rotation="0"
     inkscape:current-layer="layer1"
     inkscape:document-units="mm"
     inkscape:cy="502.50126"
     inkscape:cx="212.77467"
     inkscape:zoom="1.0139088"
     inkscape:pageshadow="2"
     inkscape:pageopacity="0.0"
     borderopacity="1.0"
     bordercolor="#666666"
     pagecolor="#ffffff"
     id="base">
    <inkscape:grid
       originy="-12.989536"
       originx="-143.89925"
       id="grid925"
       type="xygrid" />
  </sodipodi:namedview>
  <metadata
     id="metadata5">
    <rdf:RDF>
      <cc:Work
         rdf:about="">
        <dc:format>image/svg+xml</dc:format>
        <dc:type
           rdf:resource="http://purl.org/dc/dcmitype/StillImage" />
        <dc:title />
      </cc:Work>
    </rdf:RDF>
  </metadata>
  <g
     transform="translate(-143.89926,-12.989538)"
     id="layer1"
     inkscape:groupmode="layer"
     inkscape:label="Layer 1">
    <g
       inkscape:label="body"
       id="g1341">
      <g
         inkscape:label="lines"
         style="display:inline"
         id="g1065">
        <path
           style="fill:none;stroke:#808080;stroke-width:0.264583px;stroke-linecap:butt;stroke-linejoin:miter;stroke-opacity:1"
           d="m 144.27461,47.646419 2.91473,3.793472 -1.28412,-7.445882"
           id="path1482" />
        <path
           style="fill:none;stroke:#808080;stroke-width:0.264583px;stroke-linecap:butt;stroke-linejoin:miter;stroke-opacity:1"
           d="m 148.14893,40.480812 4.10913,4.085197 -1.28412,-7.445882"
           id="path1484"
           sodipodi:nodetypes="ccc" />
        <path
           style="fill:none;stroke:#808080;stroke-width:0.264583px;stroke-linecap:butt;stroke-linejoin:miter;stroke-opacity:1"
           d="m 154.3485,33.925268 5.08573,4.158528 -1.19341,-7.174258"
           id="path1486"
           sodipodi:nodetypes="ccc" />
        <path
           style="fill:none;stroke:#808080;stroke-width:0.264583px;stroke-linecap:butt;stroke-linejoin:miter;stroke-opacity:1"
           d="m 162.61914,28.086237 c 0,0 4.07346,5.969901 4.16418,5.517195 0.0907,-0.452705 0.66836,-8.134756 0.66836,-8.134756"
           id="path1488"
           sodipodi:nodetypes="csc" />
        <path
           style="fill:none;stroke:#808080;stroke-width:0.264583px;stroke-linecap:butt;stroke-linejoin:miter;stroke-opacity:1"
           d="m 184.35688,18.983467 3.74395,6.290247 2.58774,-7.951807"
           id="path1492"
           sodipodi:nodetypes="ccc" />
        <path
           style="fill:none;stroke:#808080;stroke-width:0.264583px;stroke-linecap:butt;stroke-linejoin:miter;stroke-opacity:1"
           d="m 197.3156,15.932611 4.39216,6.443815 2.49846,-7.547538"
           id="path1494"
           sodipodi:nodetypes="ccc" />
        <path
           style="fill:none;stroke:#808080;stroke-width:0.264583px;stroke-linecap:butt;stroke-linejoin:miter;stroke-opacity:1"
           d="m 211.32864,14.024039 3.89534,7.446984 3.42712,-7.939655"
           id="path1496" />
        <path
           style="fill:none;stroke:#808080;stroke-width:0.264583px;stroke-linecap:butt;stroke-linejoin:miter;stroke-opacity:1"
           d="m 201.70776,22.376424 6.98021,14.691519 6.53601,-15.59692"
           id="path1498"
           sodipodi:nodetypes="ccc" />
        <path
           style="fill:none;stroke:#808080;stroke-width:0.264583px;stroke-linecap:butt;stroke-linejoin:miter;stroke-opacity:1"
           d="m 188.10083,25.27371 -2.6331,16.787932 -8.70625,-13.166313"
           id="path1500"
           sodipodi:nodetypes="ccc" />
        <path
           style="fill:none;stroke:#808080;stroke-width:0.264583px;stroke-linecap:butt;stroke-linejoin:miter;stroke-opacity:1"
           d="m 172.70666,23.070155 4.05507,5.825178 1.59059,-7.991348"
           id="path1490"
           sodipodi:nodetypes="ccc" />
        <path
           style="fill:none;stroke:#808080;stroke-width:0.264583px;stroke-linecap:butt;stroke-linejoin:miter;stroke-opacity:1"
           d="m 166.78332,33.603428 -0.10945,18.189516 -7.23965,-13.709152"
           id="path1502"
           sodipodi:nodetypes="ccc" />
        <path
           style="fill:none;stroke:#808080;stroke-width:0.264583px;stroke-linecap:butt;stroke-linejoin:miter;stroke-opacity:1"
           d="m 152.25806,44.566009 14.41582,7.226935"
           id="path1504"
           sodipodi:nodetypes="cc" />
        <path
           style="fill:none;stroke:#808080;stroke-width:0.264583px;stroke-linecap:butt;stroke-linejoin:miter;stroke-opacity:1"
           d="M 147.18934,51.439891 208.82509,153.82107"
           id="path1506"
           sodipodi:nodetypes="cc" />
        <path
           style="fill:none;stroke:#808080;stroke-width:0.264583px;stroke-linecap:butt;stroke-linejoin:miter;stroke-opacity:1"
           d="m 166.67387,51.79294 42.15122,102.02813"
           id="path1508"
           sodipodi:nodetypes="cc" />
        <path
           style="fill:none;stroke:#808080;stroke-width:0.264583px;stroke-linecap:butt;stroke-linejoin:miter;stroke-opacity:1"
           d="m 185.46773,42.06164 23.35736,111.75943"
           id="path1510"
           sodipodi:nodetypes="cc" />
        <path
           style="fill:none;stroke:#808080;stroke-width:0.264583px;stroke-linecap:butt;stroke-linejoin:miter;stroke-opacity:1"
           d="m 208.68797,37.067939 0.13711,116.753131"
           id="path1512"
           sodipodi:nodetypes="cc" />
        <path
           id="path1516"
           d="m 308.009,47.646419 -2.91473,3.793472 1.28412,-7.445882"
           style="fill:none;stroke:#808080;stroke-width:0.264583px;stroke-linecap:butt;stroke-linejoin:miter;stroke-opacity:1" />
        <path
           sodipodi:nodetypes="ccc"
           id="path1518"
           d="m 304.13469,40.480812 -4.10914,4.085197 1.28412,-7.445882"
           style="fill:none;stroke:#808080;stroke-width:0.264583px;stroke-linecap:butt;stroke-linejoin:miter;stroke-opacity:1" />
        <path
           sodipodi:nodetypes="ccc"
           id="path1520"
           d="m 297.93512,33.925268 -5.08574,4.158528 1.19341,-7.174258"
           style="fill:none;stroke:#808080;stroke-width:0.264583px;stroke-linecap:butt;stroke-linejoin:miter;stroke-opacity:1" />
        <path
           sodipodi:nodetypes="csc"
           id="path1522"
           d="m 289.66447,28.086237 c 0,0 -4.07346,5.969901 -4.16417,5.517195 -0.0908,-0.452705 -0.66836,-8.134756 -0.66836,-8.134756"
           style="fill:none;stroke:#808080;stroke-width:0.264583px;stroke-linecap:butt;stroke-linejoin:miter;stroke-opacity:1" />
        <path
           sodipodi:nodetypes="ccc"
           id="path1524"
           d="m 279.57695,23.070155 -4.05506,5.825178 -1.59059,-7.991348"
           style="fill:none;stroke:#808080;stroke-width:0.264583px;stroke-linecap:butt;stroke-linejoin:miter;stroke-opacity:1" />
        <path
           sodipodi:nodetypes="ccc"
           id="path1526"
           d="m 267.92674,18.983467 -3.74395,6.290247 -2.58773,-7.951807"
           style="fill:none;stroke:#808080;stroke-width:0.264583px;stroke-linecap:butt;stroke-linejoin:miter;stroke-opacity:1" />
        <path
           sodipodi:nodetypes="ccc"
           id="path1528"
           d="m 254.96802,15.932611 -4.39216,6.443815 -2.49846,-7.547538"
           style="fill:none;stroke:#808080;stroke-width:0.264583px;stroke-linecap:butt;stroke-linejoin:miter;stroke-opacity:1" />
        <path
           id="path1530"
           d="m 240.95498,14.024039 -3.89534,7.446984 -3.42712,-7.939655"
           style="fill:none;stroke:#808080;stroke-width:0.264583px;stroke-linecap:butt;stroke-linejoin:miter;stroke-opacity:1" />
        <path
           sodipodi:nodetypes="ccc"
           id="path1532"
           d="m 250.57586,22.376424 -6.98021,14.691519 -6.53601,-15.59692"
           style="fill:none;stroke:#808080;stroke-width:0.264583px;stroke-linecap:butt;stroke-linejoin:miter;stroke-opacity:1" />
        <path
           sodipodi:nodetypes="ccc"
           id="path1534"
           d="m 264.18279,25.27371 2.6331,16.787932 8.70625,-13.166313"
           style="fill:none;stroke:#808080;stroke-width:0.264583px;stroke-linecap:butt;stroke-linejoin:miter;stroke-opacity:1" />
        <path
           sodipodi:nodetypes="ccc"
           id="path1536"
           d="m 285.5003,33.603428 0.1095,18.189516 7.23964,-13.709152"
           style="fill:none;stroke:#808080;stroke-width:0.264583px;stroke-linecap:butt;stroke-linejoin:miter;stroke-opacity:1" />
        <path
           sodipodi:nodetypes="cc"
           id="path1538"
           d="m 300.02555,44.566009 -14.41581,7.226935"
           style="fill:none;stroke:#808080;stroke-width:0.264583px;stroke-linecap:butt;stroke-linejoin:miter;stroke-opacity:1" />
        <path
           sodipodi:nodetypes="cc"
           id="path1540"
           d="M 305.09427,51.439891 243.45853,153.82107"
           style="fill:none;stroke:#808080;stroke-width:0.264583px;stroke-linecap:butt;stroke-linejoin:miter;stroke-opacity:1" />
        <path
           sodipodi:nodetypes="cc"
           id="path1542"
           d="M 285.60974,51.79294 243.45853,153.82107"
           style="fill:none;stroke:#808080;stroke-width:0.264583px;stroke-linecap:butt;stroke-linejoin:miter;stroke-opacity:1" />
        <path
           sodipodi:nodetypes="cc"
           id="path1544"
           d="M 266.81589,42.06164 243.45853,153.82107"
           style="fill:none;stroke:#808080;stroke-width:0.264583px;stroke-linecap:butt;stroke-linejoin:miter;stroke-opacity:1" />
        <path
           sodipodi:nodetypes="cc"
           id="path1546"
           d="M 243.59565,37.067939 243.45854,153.82107"
           style="fill:none;stroke:#808080;stroke-width:0.264583px;stroke-linecap:butt;stroke-linejoin:miter;stroke-opacity:1" />
        <path
           id="path1552"
           d="m 208.82508,153.82107 5.9868,12.6478"
           style="fill:none;stroke:#808080;stroke-width:0.264583px;stroke-linecap:butt;stroke-linejoin:miter;stroke-opacity:1" />
        <path
           style="fill:none;stroke:#808080;stroke-width:0.264583px;stroke-linecap:butt;stroke-linejoin:miter;stroke-opacity:1"
           d="m 243.45854,153.82107 -5.9868,12.6478"
           id="path1554" />
      </g>
      <g
         style="display:inline"
         id="g980"
         inkscape:label="cg_B">
        <g
           style="fill:#000000;fill-opacity:1;stroke-width:2"
           id="g1998"
           transform="matrix(0.5,0,0,0.5,177.85186,110.07711)">
          <use
             xlink:href="#symbol3379"
             x="91.925003"
             y="81.962997"
             id="use1996"
             width="100%"
             height="100%"
             style="stroke-width:2" />
        </g>
        <g
           inkscape:label="cg"
           style="display:inline;stroke-width:6.70489"
           id="use968"
           transform="matrix(0,0.14913599,-0.14915486,0,243.39349,103.02276)">
          <path
             d="m 290.25129,115.6684 a 11.684521,11.684521 0 0 1 -11.68452,11.68452 11.684521,11.684521 0 0 1 -11.68452,-11.68452 11.684521,11.684521 0 0 1 11.68452,-11.68452 11.684521,11.684521 0 0 1 11.68452,11.68452 z"
             style="fill:none;stroke:#000000;stroke-width:1.774;stroke-linecap:round;stroke-linejoin:round;stroke-miterlimit:4;stroke-dasharray:none;stroke-dashoffset:0;stop-color:#000000"
             id="path1372" />
          <path
             d="m 278.56677,103.98388 v 11.67371 h 11.66543 a 11.684521,11.684521 0 0 0 -11.66543,-11.67371 z"
             style="fill:#000000;stroke:none;stroke-width:1.774;stroke-linecap:round;stroke-linejoin:round;stroke-miterlimit:4;stroke-dasharray:none;stroke-dashoffset:0;stop-color:#000000"
             id="path1374" />
          <path
             id="path1376"
             style="fill:#000000;stroke:none;stroke-width:1.774;stroke-linecap:round;stroke-linejoin:round;stroke-miterlimit:4;stroke-dasharray:none;stroke-dashoffset:0;stop-color:#000000"
             d="M 278.54768,127.34211 V 115.6684 h -11.66543 a 11.684521,11.684521 0 0 0 11.66543,11.67371 z" />
        </g>
      </g>
      <g
         style="display:inline"
         inkscape:label="canopy"
         id="g1364">
        <g
           id="g990"
           inkscape:label="cg_C">
          <g
             style="stroke-width:2"
             inkscape:label=""
             transform="matrix(0.5,0,0,0.5,178.15895,-1.2108273)"
             id="g1957">
            <g
               style="stroke-width:2"
               id="g1608">
              <g
                 id="g4724"
                 style="fill:#000000;fill-opacity:1;stroke-width:2">
                <use
                   style="stroke-width:2"
                   height="100%"
                   width="100%"
                   id="use1791"
                   y="81.962997"
                   x="91.925003"
                   xlink:href="#symbol6736" />
              </g>
            </g>
          </g>
          <g
             transform="matrix(0,0.14913599,-0.14915486,0,243.39349,-8.152545)"
             id="g959"
             style="display:inline;stroke-width:6.70489"
             inkscape:label="cg">
            <path
               id="path953"
               style="fill:none;stroke:#000000;stroke-width:1.774;stroke-linecap:round;stroke-linejoin:round;stroke-miterlimit:4;stroke-dasharray:none;stroke-dashoffset:0;stop-color:#000000"
               d="m 290.25129,115.6684 a 11.684521,11.684521 0 0 1 -11.68452,11.68452 11.684521,11.684521 0 0 1 -11.68452,-11.68452 11.684521,11.684521 0 0 1 11.68452,-11.68452 11.684521,11.684521 0 0 1 11.68452,11.68452 z" />
            <path
               id="path955"
               style="fill:#000000;stroke:none;stroke-width:1.774;stroke-linecap:round;stroke-linejoin:round;stroke-miterlimit:4;stroke-dasharray:none;stroke-dashoffset:0;stop-color:#000000"
               d="m 278.56677,103.98388 v 11.67371 h 11.66543 a 11.684521,11.684521 0 0 0 -11.66543,-11.67371 z" />
            <path
               d="M 278.54768,127.34211 V 115.6684 h -11.66543 a 11.684521,11.684521 0 0 0 11.66543,11.67371 z"
               style="fill:#000000;stroke:none;stroke-width:1.774;stroke-linecap:round;stroke-linejoin:round;stroke-miterlimit:4;stroke-dasharray:none;stroke-dashoffset:0;stop-color:#000000"
               id="path957" />
          </g>
        </g>
        <path
           sodipodi:nodetypes="csssssssssssssssc"
           d="m 144.27461,47.646423 c 0.43783,-1.239193 0.98313,-2.457404 1.63062,-3.65241 0.64748,-1.195008 1.39715,-2.366814 2.2437,-3.513199 0.84655,-1.146386 1.78999,-2.267353 2.82501,-3.360683 1.03503,-1.093329 2.16165,-2.15902 3.37456,-3.194859 1.21291,-1.035838 2.51212,-2.041821 3.89232,-3.015732 1.38021,-0.973912 2.84141,-1.915753 4.37832,-2.823301 1.53691,-0.907551 3.14952,-1.780811 4.83254,-2.617563 1.68302,-0.836753 3.43644,-1.636999 5.25498,-2.398519 1.81854,-0.761521 3.70219,-1.484317 5.64566,-2.166172 1.94347,-0.681854 3.94676,-1.322765 6.00456,-1.920518 2.05781,-0.59775 4.17013,-1.152343 6.33169,-1.661558 2.16155,-0.509213 4.37233,-0.973053 6.62703,-1.389294 2.25471,-0.416242 4.55335,-0.784889 6.89062,-1.103725 2.33727,-0.318834 4.71318,-0.587856 7.12242,-0.804849 2.40925,-0.216992 4.85183,-0.381955 7.32246,-0.492671 2.47063,-0.110717 4.9693,-0.167188 7.49071,-0.167188"
           style="fill:none;stroke:#000000;stroke-width:0.750001;stroke-linecap:round;stroke-linejoin:round;stroke-miterlimit:4;stroke-dasharray:none;stroke-dashoffset:0;stop-color:#000000"
           id="path1480" />
        <path
           id="path1514"
           style="fill:none;stroke:#000000;stroke-width:0.750001;stroke-linecap:round;stroke-linejoin:round;stroke-miterlimit:4;stroke-dasharray:none;stroke-dashoffset:0;stop-color:#000000"
           d="m 308.009,47.646423 c -0.43782,-1.239193 -0.98312,-2.457404 -1.63061,-3.65241 -0.64748,-1.195008 -1.39716,-2.366814 -2.2437,-3.513199 -0.84655,-1.146386 -1.78999,-2.267353 -2.82502,-3.360683 -1.03502,-1.093329 -2.16164,-2.15902 -3.37455,-3.194859 -1.21292,-1.035838 -2.51213,-2.041821 -3.89233,-3.015732 -1.3802,-0.973912 -2.84142,-1.915753 -4.37832,-2.823301 -1.5369,-0.907551 -3.14952,-1.780811 -4.83253,-2.617563 -1.68303,-0.836753 -3.43644,-1.636999 -5.25499,-2.398519 -1.81853,-0.761521 -3.70218,-1.484317 -5.64565,-2.166172 -1.94347,-0.681854 -3.94675,-1.322765 -6.00456,-1.920518 -2.05781,-0.59775 -4.17013,-1.152343 -6.33168,-1.661558 -2.16156,-0.509213 -4.37233,-0.973053 -6.62704,-1.389294 -2.25471,-0.416242 -4.55335,-0.784889 -6.89062,-1.103725 -2.33727,-0.318834 -4.71318,-0.587856 -7.12242,-0.804849 -2.40925,-0.216992 -4.85183,-0.381955 -7.32246,-0.492671 -2.47062,-0.110717 -4.96929,-0.167188 -7.49071,-0.167188"
           sodipodi:nodetypes="csssssssssssssssc" />
      </g>
    </g>
    <g
       style="display:inline"
       inkscape:label="risers"
       id="g1398">
      <path
         id="path1556"
         d="m 214.81188,166.46887 h 22.65986"
         style="fill:none;stroke:#808080;stroke-width:0.265;stroke-linecap:butt;stroke-linejoin:miter;stroke-miterlimit:4;stroke-dasharray:2.12, 0.265;stroke-dashoffset:0;stroke-opacity:1" />
      <path
         id="path1558"
         d="m 214.81188,166.46887 3.90184,13.03902"
         style="fill:none;stroke:#808080;stroke-width:0.264583px;stroke-linecap:butt;stroke-linejoin:miter;stroke-opacity:1" />
      <path
         id="path1560"
         d="m 237.47174,166.46887 -3.90183,13.03902"
         style="fill:none;stroke:#808080;stroke-width:0.264583px;stroke-linecap:butt;stroke-linejoin:miter;stroke-opacity:1" />
      <circle
         r="0.5"
         cy="166.51065"
         cx="237.46278"
         id="circle2057"
         style="fill:#000000;stroke:none;stroke-width:0.264582;stroke-linecap:round;stroke-linejoin:round;stroke-miterlimit:4;stroke-dasharray:none;stroke-dashoffset:0;stop-color:#000000" />
      <circle
         style="fill:#000000;stroke:none;stroke-width:0.264582;stroke-linecap:round;stroke-linejoin:round;stroke-miterlimit:4;stroke-dasharray:none;stroke-dashoffset:0;stop-color:#000000"
         id="circle2059"
         cx="214.75301"
         cy="166.51065"
         r="0.5" />
      <g
         id="g995"
         inkscape:label="R">
        <g
           transform="matrix(0.5,0,0,0.5,170.27716,130.62538)"
           id="g206"
           style="fill:#000000;fill-opacity:1;stroke-width:2">
          <use
             style="stroke-width:2"
             height="100%"
             width="100%"
             id="use904"
             y="81.962997"
             x="107.76055"
             xlink:href="#symbol8168" />
        </g>
        <circle
           r="1"
           cy="166.46887"
           cx="226.14182"
           id="path1817"
           style="display:inline;fill:#000000;stroke:none;stroke-width:0.264582;stroke-linecap:round;stroke-linejoin:round;stroke-miterlimit:4;stroke-dasharray:none;stroke-dashoffset:0;stop-color:#000000" />
      </g>
    </g>
    <g
       style="display:inline"
       inkscape:label="payload"
       id="g1259">
      <path
         id="path1550"
         style="display:inline;fill:none;stroke:#808080;stroke-width:0.131811;stroke-linecap:round;stroke-linejoin:round;stroke-miterlimit:4;stroke-dasharray:none;stroke-dashoffset:0;stop-color:#000000"
         inkscape:transform-center-x="7.4288761e-06"
         inkscape:transform-center-y="1.2044703"
         d="m 191.40749,154.95855 c -3.65477,0 -5.98193,-1.37679 -5.98193,-4.34613 0,-2.96934 2.28489,-7.03217 2.28489,-7.03217 h 7.39407 c 0,0 2.28489,4.06283 2.28489,7.03217 0,2.96934 -2.32715,4.34613 -5.98192,4.34613 z"
         sodipodi:nodetypes="zzcczz"
         transform="matrix(2.0092033,0,0,2.0053837,-158.43476,-108.42558)"
         inkscape:label="harness" />
      <g
         id="g975"
         inkscape:label="cg_P">
        <g
           transform="matrix(0.5,0,0,0.5,174.17144,156.14734)"
           id="g6"
           style="fill:#000000;fill-opacity:1;stroke-width:2">
          <use
             style="stroke-width:2"
             height="100%"
             width="100%"
             id="use7790"
             y="81.962997"
             x="99.979759"
             xlink:href="#symbol4059" />
        </g>
        <g
           transform="matrix(0,0.14913599,-0.14915486,0,243.39349,149.05843)"
           id="use970"
           style="display:inline;stroke-width:6.70489"
           inkscape:label="cg">
          <path
             id="path1380"
             style="fill:none;stroke:#000000;stroke-width:1.774;stroke-linecap:round;stroke-linejoin:round;stroke-miterlimit:4;stroke-dasharray:none;stroke-dashoffset:0;stop-color:#000000"
             d="m 290.25129,115.6684 a 11.684521,11.684521 0 0 1 -11.68452,11.68452 11.684521,11.684521 0 0 1 -11.68452,-11.68452 11.684521,11.684521 0 0 1 11.68452,-11.68452 11.684521,11.684521 0 0 1 11.68452,11.68452 z" />
          <path
             id="path1382"
             style="fill:#000000;stroke:none;stroke-width:1.774;stroke-linecap:round;stroke-linejoin:round;stroke-miterlimit:4;stroke-dasharray:none;stroke-dashoffset:0;stop-color:#000000"
             d="m 278.56677,103.98388 v 11.67371 h 11.66543 a 11.684521,11.684521 0 0 0 -11.66543,-11.67371 z" />
          <path
             d="M 278.54768,127.34211 V 115.6684 h -11.66543 a 11.684521,11.684521 0 0 0 11.66543,11.67371 z"
             style="fill:#000000;stroke:none;stroke-width:1.774;stroke-linecap:round;stroke-linejoin:round;stroke-miterlimit:4;stroke-dasharray:none;stroke-dashoffset:0;stop-color:#000000"
             id="path1384" />
        </g>
      </g>
    </g>
  </g>
</svg>
