<?xml version="1.0" encoding="utf-8" standalone="no"?>
<!DOCTYPE svg PUBLIC "-//W3C//DTD SVG 1.1//EN"
  "http://www.w3.org/Graphics/SVG/1.1/DTD/svg11.dtd">
<svg xmlns:xlink="http://www.w3.org/1999/xlink" width="432pt" height="432pt" viewBox="0 0 432 432" xmlns="http://www.w3.org/2000/svg" version="1.1">
 <metadata>
  <rdf:RDF xmlns:dc="http://purl.org/dc/elements/1.1/" xmlns:cc="http://creativecommons.org/ns#" xmlns:rdf="http://www.w3.org/1999/02/22-rdf-syntax-ns#">
   <cc:Work>
    <dc:type rdf:resource="http://purl.org/dc/dcmitype/StillImage"/>
    <dc:date>2022-03-21T14:38:52.384786</dc:date>
    <dc:format>image/svg+xml</dc:format>
    <dc:creator>
     <cc:Agent>
      <dc:title>Matplotlib v3.5.1, https://matplotlib.org/</dc:title>
     </cc:Agent>
    </dc:creator>
   </cc:Work>
  </rdf:RDF>
 </metadata>
 <defs>
  <style type="text/css">*{stroke-linejoin: round; stroke-linecap: butt}</style>
 </defs>
 <g id="figure_1">
  <g id="patch_1">
   <path d="M 0 432 
L 432 432 
L 432 0 
L 0 0 
z
" style="fill: #ffffff"/>
  </g>
  <g id="axes_1">
   <g id="patch_2">
    <path d="M 56.09 188.48 
L 231.895 188.48 
L 231.895 26.88 
L 56.09 26.88 
z
" style="fill: #ffffff"/>
   </g>
   <g id="matplotlib.axis_1">
    <g id="xtick_1">
     <g id="line2d_1">
      <path d="M 92.285147 188.48 
L 92.285147 26.88 
" clip-path="url(#pdba7c10da7)" style="fill: none; stroke-dasharray: 2.96,1.28; stroke-dashoffset: 0; stroke: #d3d3d3; stroke-width: 0.8"/>
     </g>
     <g id="line2d_2">
      <defs>
       <path id="md5d1de9bd0" d="M 0 0 
L 0 3.5 
" style="stroke: #000000; stroke-width: 0.8"/>
      </defs>
      <g>
       <use xlink:href="#md5d1de9bd0" x="92.285147" y="188.48" style="stroke: #000000; stroke-width: 0.8"/>
      </g>
     </g>
    </g>
    <g id="xtick_2">
     <g id="line2d_3">
      <path d="M 143.9925 188.48 
L 143.9925 26.88 
" clip-path="url(#pdba7c10da7)" style="fill: none; stroke-dasharray: 2.96,1.28; stroke-dashoffset: 0; stroke: #d3d3d3; stroke-width: 0.8"/>
     </g>
     <g id="line2d_4">
      <g>
       <use xlink:href="#md5d1de9bd0" x="143.9925" y="188.48" style="stroke: #000000; stroke-width: 0.8"/>
      </g>
     </g>
    </g>
    <g id="xtick_3">
     <g id="line2d_5">
      <path d="M 195.699853 188.48 
L 195.699853 26.88 
" clip-path="url(#pdba7c10da7)" style="fill: none; stroke-dasharray: 2.96,1.28; stroke-dashoffset: 0; stroke: #d3d3d3; stroke-width: 0.8"/>
     </g>
     <g id="line2d_6">
      <g>
       <use xlink:href="#md5d1de9bd0" x="195.699853" y="188.48" style="stroke: #000000; stroke-width: 0.8"/>
      </g>
     </g>
    </g>
   </g>
   <g id="matplotlib.axis_2">
    <g id="ytick_1">
     <g id="line2d_7">
      <path d="M 56.09 177.94087 
L 231.895 177.94087 
" clip-path="url(#pdba7c10da7)" style="fill: none; stroke-dasharray: 2.96,1.28; stroke-dashoffset: 0; stroke: #d3d3d3; stroke-width: 0.8"/>
     </g>
     <g id="line2d_8">
      <defs>
       <path id="m49e666aa50" d="M 0 0 
L -3.5 0 
" style="stroke: #000000; stroke-width: 0.8"/>
      </defs>
      <g>
       <use xlink:href="#m49e666aa50" x="56.09" y="177.94087" style="stroke: #000000; stroke-width: 0.8"/>
      </g>
     </g>
     <g id="text_1">
      <!-- −0.2 -->
      <g transform="translate(24.807188 181.740088)scale(0.1 -0.1)">
       <defs>
        <path id="DejaVuSans-2212" d="M 678 2272 
L 4684 2272 
L 4684 1741 
L 678 1741 
L 678 2272 
z
" transform="scale(0.015625)"/>
        <path id="DejaVuSans-30" d="M 2034 4250 
Q 1547 4250 1301 3770 
Q 1056 3291 1056 2328 
Q 1056 1369 1301 889 
Q 1547 409 2034 409 
Q 2525 409 2770 889 
Q 3016 1369 3016 2328 
Q 3016 3291 2770 3770 
Q 2525 4250 2034 4250 
z
M 2034 4750 
Q 2819 4750 3233 4129 
Q 3647 3509 3647 2328 
Q 3647 1150 3233 529 
Q 2819 -91 2034 -91 
Q 1250 -91 836 529 
Q 422 1150 422 2328 
Q 422 3509 836 4129 
Q 1250 4750 2034 4750 
z
" transform="scale(0.015625)"/>
        <path id="DejaVuSans-2e" d="M 684 794 
L 1344 794 
L 1344 0 
L 684 0 
L 684 794 
z
" transform="scale(0.015625)"/>
        <path id="DejaVuSans-32" d="M 1228 531 
L 3431 531 
L 3431 0 
L 469 0 
L 469 531 
Q 828 903 1448 1529 
Q 2069 2156 2228 2338 
Q 2531 2678 2651 2914 
Q 2772 3150 2772 3378 
Q 2772 3750 2511 3984 
Q 2250 4219 1831 4219 
Q 1534 4219 1204 4116 
Q 875 4013 500 3803 
L 500 4441 
Q 881 4594 1212 4672 
Q 1544 4750 1819 4750 
Q 2544 4750 2975 4387 
Q 3406 4025 3406 3419 
Q 3406 3131 3298 2873 
Q 3191 2616 2906 2266 
Q 2828 2175 2409 1742 
Q 1991 1309 1228 531 
z
" transform="scale(0.015625)"/>
       </defs>
       <use xlink:href="#DejaVuSans-2212"/>
       <use xlink:href="#DejaVuSans-30" x="83.789062"/>
       <use xlink:href="#DejaVuSans-2e" x="147.412109"/>
       <use xlink:href="#DejaVuSans-32" x="179.199219"/>
      </g>
     </g>
    </g>
    <g id="ytick_2">
     <g id="line2d_9">
      <path d="M 56.09 142.810435 
L 231.895 142.810435 
" clip-path="url(#pdba7c10da7)" style="fill: none; stroke-dasharray: 2.96,1.28; stroke-dashoffset: 0; stroke: #d3d3d3; stroke-width: 0.8"/>
     </g>
     <g id="line2d_10">
      <g>
       <use xlink:href="#m49e666aa50" x="56.09" y="142.810435" style="stroke: #000000; stroke-width: 0.8"/>
      </g>
     </g>
     <g id="text_2">
      <!-- −0.1 -->
      <g transform="translate(24.807188 146.609654)scale(0.1 -0.1)">
       <defs>
        <path id="DejaVuSans-31" d="M 794 531 
L 1825 531 
L 1825 4091 
L 703 3866 
L 703 4441 
L 1819 4666 
L 2450 4666 
L 2450 531 
L 3481 531 
L 3481 0 
L 794 0 
L 794 531 
z
" transform="scale(0.015625)"/>
       </defs>
       <use xlink:href="#DejaVuSans-2212"/>
       <use xlink:href="#DejaVuSans-30" x="83.789062"/>
       <use xlink:href="#DejaVuSans-2e" x="147.412109"/>
       <use xlink:href="#DejaVuSans-31" x="179.199219"/>
      </g>
     </g>
    </g>
    <g id="ytick_3">
     <g id="line2d_11">
      <path d="M 56.09 107.68 
L 231.895 107.68 
" clip-path="url(#pdba7c10da7)" style="fill: none; stroke-dasharray: 2.96,1.28; stroke-dashoffset: 0; stroke: #d3d3d3; stroke-width: 0.8"/>
     </g>
     <g id="line2d_12">
      <g>
       <use xlink:href="#m49e666aa50" x="56.09" y="107.68" style="stroke: #000000; stroke-width: 0.8"/>
      </g>
     </g>
     <g id="text_3">
      <!-- 0.0 -->
      <g transform="translate(33.186875 111.479219)scale(0.1 -0.1)">
       <use xlink:href="#DejaVuSans-30"/>
       <use xlink:href="#DejaVuSans-2e" x="63.623047"/>
       <use xlink:href="#DejaVuSans-30" x="95.410156"/>
      </g>
     </g>
    </g>
    <g id="ytick_4">
     <g id="line2d_13">
      <path d="M 56.09 72.549565 
L 231.895 72.549565 
" clip-path="url(#pdba7c10da7)" style="fill: none; stroke-dasharray: 2.96,1.28; stroke-dashoffset: 0; stroke: #d3d3d3; stroke-width: 0.8"/>
     </g>
     <g id="line2d_14">
      <g>
       <use xlink:href="#m49e666aa50" x="56.09" y="72.549565" style="stroke: #000000; stroke-width: 0.8"/>
      </g>
     </g>
     <g id="text_4">
      <!-- 0.1 -->
      <g transform="translate(33.186875 76.348784)scale(0.1 -0.1)">
       <use xlink:href="#DejaVuSans-30"/>
       <use xlink:href="#DejaVuSans-2e" x="63.623047"/>
       <use xlink:href="#DejaVuSans-31" x="95.410156"/>
      </g>
     </g>
    </g>
    <g id="ytick_5">
     <g id="line2d_15">
      <path d="M 56.09 37.41913 
L 231.895 37.41913 
" clip-path="url(#pdba7c10da7)" style="fill: none; stroke-dasharray: 2.96,1.28; stroke-dashoffset: 0; stroke: #d3d3d3; stroke-width: 0.8"/>
     </g>
     <g id="line2d_16">
      <g>
       <use xlink:href="#m49e666aa50" x="56.09" y="37.41913" style="stroke: #000000; stroke-width: 0.8"/>
      </g>
     </g>
     <g id="text_5">
      <!-- 0.2 -->
      <g transform="translate(33.186875 41.218349)scale(0.1 -0.1)">
       <use xlink:href="#DejaVuSans-30"/>
       <use xlink:href="#DejaVuSans-2e" x="63.623047"/>
       <use xlink:href="#DejaVuSans-32" x="95.410156"/>
      </g>
     </g>
    </g>
    <g id="text_6">
     <!-- CY -->
     <g transform="translate(18.7275 114.137812)rotate(-90)scale(0.1 -0.1)">
      <defs>
       <path id="DejaVuSans-43" d="M 4122 4306 
L 4122 3641 
Q 3803 3938 3442 4084 
Q 3081 4231 2675 4231 
Q 1875 4231 1450 3742 
Q 1025 3253 1025 2328 
Q 1025 1406 1450 917 
Q 1875 428 2675 428 
Q 3081 428 3442 575 
Q 3803 722 4122 1019 
L 4122 359 
Q 3791 134 3420 21 
Q 3050 -91 2638 -91 
Q 1578 -91 968 557 
Q 359 1206 359 2328 
Q 359 3453 968 4101 
Q 1578 4750 2638 4750 
Q 3056 4750 3426 4639 
Q 3797 4528 4122 4306 
z
" transform="scale(0.015625)"/>
       <path id="DejaVuSans-59" d="M -13 4666 
L 666 4666 
L 1959 2747 
L 3244 4666 
L 3922 4666 
L 2272 2222 
L 2272 0 
L 1638 0 
L 1638 2222 
L -13 4666 
z
" transform="scale(0.015625)"/>
      </defs>
      <use xlink:href="#DejaVuSans-43"/>
      <use xlink:href="#DejaVuSans-59" x="68.074219"/>
     </g>
    </g>
   </g>
   <g id="line2d_17">
    <path d="M 66.431471 37.643965 
L 71.602206 41.336174 
L 76.772941 45.762609 
L 81.943676 50.333078 
L 87.114412 54.650609 
L 92.285147 59.087583 
L 97.455882 63.352417 
L 102.626618 67.975583 
L 107.797353 72.553078 
L 112.968088 77.014643 
L 118.138824 81.606191 
L 123.309559 86.078296 
L 128.480294 91.098435 
L 133.651029 95.693496 
L 138.821765 100.481774 
L 143.9925 105.435165 
L 149.163235 110.167235 
L 154.333971 115.050365 
L 159.504706 119.687583 
L 164.675441 124.356417 
L 169.846176 128.944452 
L 175.016912 133.620313 
L 180.187647 137.983513 
L 185.358382 142.525878 
L 190.529118 147.31767 
L 195.699853 151.716 
L 200.870588 156.462122 
L 206.041324 160.986922 
L 211.212059 165.715478 
L 216.382794 170.257843 
L 221.553529 174.090574 
" clip-path="url(#pdba7c10da7)" style="fill: none; stroke: #000000; stroke-width: 0.75; stroke-linecap: square"/>
   </g>
   <g id="line2d_18">
    <path d="M 66.431471 49.282869 
L 71.602206 52.943939 
L 76.772941 56.652534 
L 81.943676 60.403453 
L 87.114412 64.196878 
L 92.285147 68.025458 
L 97.455882 71.892297 
L 102.626618 75.789732 
L 107.797353 79.711654 
L 112.968088 83.66257 
L 118.138824 87.633827 
L 123.309559 91.619433 
L 128.480294 95.624284 
L 133.651029 99.635707 
L 138.821765 103.655015 
L 143.9925 107.68 
L 149.163235 111.704985 
L 154.333971 115.724293 
L 159.504706 119.735716 
L 164.675441 123.740567 
L 169.846176 127.726173 
L 175.016912 131.69743 
L 180.187647 135.648346 
L 185.358382 139.570268 
L 190.529118 143.467703 
L 195.699853 147.331082 
L 200.870588 151.163122 
L 206.041324 154.956547 
L 211.212059 158.707466 
L 216.382794 162.416061 
L 221.553529 166.077131 
" clip-path="url(#pdba7c10da7)" style="fill: none; stroke-dasharray: 2.775,1.2; stroke-dashoffset: 0; stroke: #0000ff; stroke-width: 0.75"/>
   </g>
   <g id="line2d_19">
    <path d="M 66.431471 42.821213 
L 71.602206 46.46695 
L 76.772941 50.275984 
L 81.943676 54.250423 
L 87.114412 58.341415 
L 92.285147 62.54503 
L 97.455882 66.839189 
L 102.626618 71.209641 
L 107.797353 75.64195 
L 112.968088 80.128801 
L 118.138824 84.657529 
L 123.309559 89.22234 
L 128.480294 93.813065 
L 133.651029 98.426052 
L 138.821765 103.049128 
L 143.9925 107.68 
L 149.163235 112.310872 
L 154.333971 116.933948 
L 159.504706 121.546935 
L 164.675441 126.13766 
L 169.846176 130.702471 
L 175.016912 135.231199 
L 180.187647 139.71805 
L 185.358382 144.150359 
L 190.529118 148.520811 
L 195.699853 152.81497 
L 200.870588 157.018585 
L 206.041324 161.109577 
L 211.212059 165.084016 
L 216.382794 168.89305 
L 221.553529 172.538787 
" clip-path="url(#pdba7c10da7)" style="fill: none; stroke-dasharray: 3.7,1.6; stroke-dashoffset: 0; stroke: #ff0000"/>
   </g>
   <g id="patch_3">
    <path d="M 56.09 188.48 
L 56.09 26.88 
" style="fill: none; stroke: #000000; stroke-width: 0.8; stroke-linejoin: miter; stroke-linecap: square"/>
   </g>
   <g id="patch_4">
    <path d="M 231.895 188.48 
L 231.895 26.88 
" style="fill: none; stroke: #000000; stroke-width: 0.8; stroke-linejoin: miter; stroke-linecap: square"/>
   </g>
   <g id="patch_5">
    <path d="M 56.09 188.48 
L 231.895 188.48 
" style="fill: none; stroke: #000000; stroke-width: 0.8; stroke-linejoin: miter; stroke-linecap: square"/>
   </g>
   <g id="patch_6">
    <path d="M 56.09 26.88 
L 231.895 26.88 
" style="fill: none; stroke: #000000; stroke-width: 0.8; stroke-linejoin: miter; stroke-linecap: square"/>
   </g>
   <g id="text_7">
    <!-- $\alpha$=0° -->
    <g transform="translate(128.1525 20.88)scale(0.12 -0.12)">
     <defs>
      <path id="DejaVuSans-Oblique-3b1" d="M 2619 1628 
L 2622 2350 
Q 2625 3088 2069 3091 
Q 1653 3094 1394 2747 
Q 1069 2319 959 1747 
Q 825 1059 994 731 
Q 1169 397 1547 397 
Q 1966 397 2319 1063 
L 2619 1628 
z
M 2166 3578 
Q 3141 3594 3128 2584 
Q 3128 2584 3616 3500 
L 4128 3500 
L 3119 1603 
L 3109 919 
Q 3109 766 3194 638 
Q 3291 488 3391 488 
L 3669 488 
L 3575 0 
L 3228 0 
Q 2934 0 2722 263 
Q 2622 394 2619 669 
Q 2416 334 2066 50 
Q 1900 -81 1453 -78 
Q 722 -72 456 397 
Q 184 884 353 1747 
Q 534 2675 1009 3097 
Q 1544 3569 2166 3578 
z
" transform="scale(0.015625)"/>
      <path id="DejaVuSans-3d" d="M 678 2906 
L 4684 2906 
L 4684 2381 
L 678 2381 
L 678 2906 
z
M 678 1631 
L 4684 1631 
L 4684 1100 
L 678 1100 
L 678 1631 
z
" transform="scale(0.015625)"/>
      <path id="DejaVuSans-b0" d="M 1600 4347 
Q 1350 4347 1178 4173 
Q 1006 4000 1006 3750 
Q 1006 3503 1178 3333 
Q 1350 3163 1600 3163 
Q 1850 3163 2022 3333 
Q 2194 3503 2194 3750 
Q 2194 3997 2020 4172 
Q 1847 4347 1600 4347 
z
M 1600 4750 
Q 1800 4750 1984 4673 
Q 2169 4597 2303 4453 
Q 2447 4313 2519 4134 
Q 2591 3956 2591 3750 
Q 2591 3338 2302 3052 
Q 2013 2766 1594 2766 
Q 1172 2766 890 3047 
Q 609 3328 609 3750 
Q 609 4169 896 4459 
Q 1184 4750 1600 4750 
z
" transform="scale(0.015625)"/>
     </defs>
     <use xlink:href="#DejaVuSans-Oblique-3b1" transform="translate(0 0.78125)"/>
     <use xlink:href="#DejaVuSans-3d" transform="translate(65.917969 0.78125)"/>
     <use xlink:href="#DejaVuSans-30" transform="translate(149.707031 0.78125)"/>
     <use xlink:href="#DejaVuSans-b0" transform="translate(213.330078 0.78125)"/>
    </g>
   </g>
   <g id="legend_1">
    <g id="patch_7">
     <path d="M 63.09 183.48 
L 127.629063 183.48 
Q 129.629063 183.48 129.629063 181.48 
L 129.629063 138.445625 
Q 129.629063 136.445625 127.629063 136.445625 
L 63.09 136.445625 
Q 61.09 136.445625 61.09 138.445625 
L 61.09 181.48 
Q 61.09 183.48 63.09 183.48 
z
" style="fill: #ffffff; opacity: 0.8; stroke: #cccccc; stroke-linejoin: miter"/>
    </g>
    <g id="line2d_20">
     <path d="M 65.09 144.544062 
L 75.09 144.544062 
L 85.09 144.544062 
" style="fill: none; stroke: #000000; stroke-width: 0.75; stroke-linecap: square"/>
    </g>
    <g id="text_8">
     <!-- Tunnel -->
     <g transform="translate(93.09 148.044062)scale(0.1 -0.1)">
      <defs>
       <path id="DejaVuSans-54" d="M -19 4666 
L 3928 4666 
L 3928 4134 
L 2272 4134 
L 2272 0 
L 1638 0 
L 1638 4134 
L -19 4134 
L -19 4666 
z
" transform="scale(0.015625)"/>
       <path id="DejaVuSans-75" d="M 544 1381 
L 544 3500 
L 1119 3500 
L 1119 1403 
Q 1119 906 1312 657 
Q 1506 409 1894 409 
Q 2359 409 2629 706 
Q 2900 1003 2900 1516 
L 2900 3500 
L 3475 3500 
L 3475 0 
L 2900 0 
L 2900 538 
Q 2691 219 2414 64 
Q 2138 -91 1772 -91 
Q 1169 -91 856 284 
Q 544 659 544 1381 
z
M 1991 3584 
L 1991 3584 
z
" transform="scale(0.015625)"/>
       <path id="DejaVuSans-6e" d="M 3513 2113 
L 3513 0 
L 2938 0 
L 2938 2094 
Q 2938 2591 2744 2837 
Q 2550 3084 2163 3084 
Q 1697 3084 1428 2787 
Q 1159 2491 1159 1978 
L 1159 0 
L 581 0 
L 581 3500 
L 1159 3500 
L 1159 2956 
Q 1366 3272 1645 3428 
Q 1925 3584 2291 3584 
Q 2894 3584 3203 3211 
Q 3513 2838 3513 2113 
z
" transform="scale(0.015625)"/>
       <path id="DejaVuSans-65" d="M 3597 1894 
L 3597 1613 
L 953 1613 
Q 991 1019 1311 708 
Q 1631 397 2203 397 
Q 2534 397 2845 478 
Q 3156 559 3463 722 
L 3463 178 
Q 3153 47 2828 -22 
Q 2503 -91 2169 -91 
Q 1331 -91 842 396 
Q 353 884 353 1716 
Q 353 2575 817 3079 
Q 1281 3584 2069 3584 
Q 2775 3584 3186 3129 
Q 3597 2675 3597 1894 
z
M 3022 2063 
Q 3016 2534 2758 2815 
Q 2500 3097 2075 3097 
Q 1594 3097 1305 2825 
Q 1016 2553 972 2059 
L 3022 2063 
z
" transform="scale(0.015625)"/>
       <path id="DejaVuSans-6c" d="M 603 4863 
L 1178 4863 
L 1178 0 
L 603 0 
L 603 4863 
z
" transform="scale(0.015625)"/>
      </defs>
      <use xlink:href="#DejaVuSans-54"/>
      <use xlink:href="#DejaVuSans-75" x="45.958984"/>
      <use xlink:href="#DejaVuSans-6e" x="109.337891"/>
      <use xlink:href="#DejaVuSans-6e" x="172.716797"/>
      <use xlink:href="#DejaVuSans-65" x="236.095703"/>
      <use xlink:href="#DejaVuSans-6c" x="297.619141"/>
     </g>
    </g>
    <g id="line2d_21">
     <path d="M 65.09 159.222188 
L 75.09 159.222188 
L 85.09 159.222188 
" style="fill: none; stroke-dasharray: 2.775,1.2; stroke-dashoffset: 0; stroke: #0000ff; stroke-width: 0.75"/>
    </g>
    <g id="text_9">
     <!-- AVL -->
     <g transform="translate(93.09 162.722188)scale(0.1 -0.1)">
      <defs>
       <path id="DejaVuSans-41" d="M 2188 4044 
L 1331 1722 
L 3047 1722 
L 2188 4044 
z
M 1831 4666 
L 2547 4666 
L 4325 0 
L 3669 0 
L 3244 1197 
L 1141 1197 
L 716 0 
L 50 0 
L 1831 4666 
z
" transform="scale(0.015625)"/>
       <path id="DejaVuSans-56" d="M 1831 0 
L 50 4666 
L 709 4666 
L 2188 738 
L 3669 4666 
L 4325 4666 
L 2547 0 
L 1831 0 
z
" transform="scale(0.015625)"/>
       <path id="DejaVuSans-4c" d="M 628 4666 
L 1259 4666 
L 1259 531 
L 3531 531 
L 3531 0 
L 628 0 
L 628 4666 
z
" transform="scale(0.015625)"/>
      </defs>
      <use xlink:href="#DejaVuSans-41"/>
      <use xlink:href="#DejaVuSans-56" x="62.033203"/>
      <use xlink:href="#DejaVuSans-4c" x="130.441406"/>
     </g>
    </g>
    <g id="line2d_22">
     <path d="M 65.09 173.900312 
L 75.09 173.900312 
L 85.09 173.900312 
" style="fill: none; stroke-dasharray: 3.7,1.6; stroke-dashoffset: 0; stroke: #ff0000"/>
    </g>
    <g id="text_10">
     <!-- NLLT -->
     <g transform="translate(93.09 177.400312)scale(0.1 -0.1)">
      <defs>
       <path id="DejaVuSans-4e" d="M 628 4666 
L 1478 4666 
L 3547 763 
L 3547 4666 
L 4159 4666 
L 4159 0 
L 3309 0 
L 1241 3903 
L 1241 0 
L 628 0 
L 628 4666 
z
" transform="scale(0.015625)"/>
      </defs>
      <use xlink:href="#DejaVuSans-4e"/>
      <use xlink:href="#DejaVuSans-4c" x="74.804688"/>
      <use xlink:href="#DejaVuSans-4c" x="130.517578"/>
      <use xlink:href="#DejaVuSans-54" x="172.480469"/>
     </g>
    </g>
   </g>
  </g>
  <g id="axes_2">
   <g id="patch_8">
    <path d="M 245.395 188.48 
L 421.2 188.48 
L 421.2 26.88 
L 245.395 26.88 
z
" style="fill: #ffffff"/>
   </g>
   <g id="matplotlib.axis_3">
    <g id="xtick_4">
     <g id="line2d_23">
      <path d="M 281.590147 188.48 
L 281.590147 26.88 
" clip-path="url(#p38d8f76b27)" style="fill: none; stroke-dasharray: 2.96,1.28; stroke-dashoffset: 0; stroke: #d3d3d3; stroke-width: 0.8"/>
     </g>
     <g id="line2d_24">
      <g>
       <use xlink:href="#md5d1de9bd0" x="281.590147" y="188.48" style="stroke: #000000; stroke-width: 0.8"/>
      </g>
     </g>
    </g>
    <g id="xtick_5">
     <g id="line2d_25">
      <path d="M 333.2975 188.48 
L 333.2975 26.88 
" clip-path="url(#p38d8f76b27)" style="fill: none; stroke-dasharray: 2.96,1.28; stroke-dashoffset: 0; stroke: #d3d3d3; stroke-width: 0.8"/>
     </g>
     <g id="line2d_26">
      <g>
       <use xlink:href="#md5d1de9bd0" x="333.2975" y="188.48" style="stroke: #000000; stroke-width: 0.8"/>
      </g>
     </g>
    </g>
    <g id="xtick_6">
     <g id="line2d_27">
      <path d="M 385.004853 188.48 
L 385.004853 26.88 
" clip-path="url(#p38d8f76b27)" style="fill: none; stroke-dasharray: 2.96,1.28; stroke-dashoffset: 0; stroke: #d3d3d3; stroke-width: 0.8"/>
     </g>
     <g id="line2d_28">
      <g>
       <use xlink:href="#md5d1de9bd0" x="385.004853" y="188.48" style="stroke: #000000; stroke-width: 0.8"/>
      </g>
     </g>
    </g>
   </g>
   <g id="matplotlib.axis_4">
    <g id="ytick_6">
     <g id="line2d_29">
      <path d="M 245.395 177.94087 
L 421.2 177.94087 
" clip-path="url(#p38d8f76b27)" style="fill: none; stroke-dasharray: 2.96,1.28; stroke-dashoffset: 0; stroke: #d3d3d3; stroke-width: 0.8"/>
     </g>
     <g id="line2d_30">
      <g>
       <use xlink:href="#m49e666aa50" x="245.395" y="177.94087" style="stroke: #000000; stroke-width: 0.8"/>
      </g>
     </g>
    </g>
    <g id="ytick_7">
     <g id="line2d_31">
      <path d="M 245.395 142.810435 
L 421.2 142.810435 
" clip-path="url(#p38d8f76b27)" style="fill: none; stroke-dasharray: 2.96,1.28; stroke-dashoffset: 0; stroke: #d3d3d3; stroke-width: 0.8"/>
     </g>
     <g id="line2d_32">
      <g>
       <use xlink:href="#m49e666aa50" x="245.395" y="142.810435" style="stroke: #000000; stroke-width: 0.8"/>
      </g>
     </g>
    </g>
    <g id="ytick_8">
     <g id="line2d_33">
      <path d="M 245.395 107.68 
L 421.2 107.68 
" clip-path="url(#p38d8f76b27)" style="fill: none; stroke-dasharray: 2.96,1.28; stroke-dashoffset: 0; stroke: #d3d3d3; stroke-width: 0.8"/>
     </g>
     <g id="line2d_34">
      <g>
       <use xlink:href="#m49e666aa50" x="245.395" y="107.68" style="stroke: #000000; stroke-width: 0.8"/>
      </g>
     </g>
    </g>
    <g id="ytick_9">
     <g id="line2d_35">
      <path d="M 245.395 72.549565 
L 421.2 72.549565 
" clip-path="url(#p38d8f76b27)" style="fill: none; stroke-dasharray: 2.96,1.28; stroke-dashoffset: 0; stroke: #d3d3d3; stroke-width: 0.8"/>
     </g>
     <g id="line2d_36">
      <g>
       <use xlink:href="#m49e666aa50" x="245.395" y="72.549565" style="stroke: #000000; stroke-width: 0.8"/>
      </g>
     </g>
    </g>
    <g id="ytick_10">
     <g id="line2d_37">
      <path d="M 245.395 37.41913 
L 421.2 37.41913 
" clip-path="url(#p38d8f76b27)" style="fill: none; stroke-dasharray: 2.96,1.28; stroke-dashoffset: 0; stroke: #d3d3d3; stroke-width: 0.8"/>
     </g>
     <g id="line2d_38">
      <g>
       <use xlink:href="#m49e666aa50" x="245.395" y="37.41913" style="stroke: #000000; stroke-width: 0.8"/>
      </g>
     </g>
    </g>
   </g>
   <g id="line2d_39">
    <path d="M 255.736471 45.144313 
L 260.907206 48.299026 
L 266.077941 48.899757 
L 271.248676 51.73127 
L 276.419412 55.648313 
L 281.590147 60.004487 
L 286.760882 64.483617 
L 291.931618 68.924104 
L 297.102353 73.712383 
L 302.273088 78.528765 
L 307.443824 83.173009 
L 312.614559 87.92967 
L 317.785294 92.380696 
L 322.956029 97.081148 
L 328.126765 101.690261 
L 333.2975 106.10967 
L 338.468235 110.666087 
L 343.638971 115.341948 
L 348.809706 119.891339 
L 353.980441 124.458296 
L 359.151176 128.993635 
L 364.321912 133.57113 
L 369.492647 138.138087 
L 374.663382 142.936904 
L 379.834118 147.676 
L 385.004853 152.207826 
L 390.175588 156.416452 
L 395.346324 160.698852 
L 400.517059 163.22473 
L 405.687794 164.693183 
L 410.858529 167.11367 
" clip-path="url(#p38d8f76b27)" style="fill: none; stroke: #000000; stroke-width: 0.75; stroke-linecap: square"/>
   </g>
   <g id="line2d_40">
    <path d="M 255.736471 52.586923 
L 260.907206 56.050018 
L 266.077941 59.558534 
L 271.248676 63.104033 
L 276.419412 66.684687 
L 281.590147 70.300931 
L 286.760882 73.948753 
L 291.931618 77.625606 
L 297.102353 81.32518 
L 302.273088 85.049999 
L 307.443824 88.790614 
L 312.614559 92.548521 
L 317.785294 96.32151 
L 322.956029 100.100752 
L 328.126765 103.88763 
L 333.2975 107.68 
L 338.468235 111.468857 
L 343.638971 115.255737 
L 348.809706 119.03849 
L 353.980441 122.807974 
L 359.151176 126.569413 
L 364.321912 130.310033 
L 369.492647 134.03482 
L 374.663382 137.734394 
L 379.834118 141.411247 
L 385.004853 145.059069 
L 390.175588 148.675313 
L 395.346324 152.256031 
L 400.517059 155.801535 
L 405.687794 159.306647 
L 410.858529 162.772172 
" clip-path="url(#p38d8f76b27)" style="fill: none; stroke-dasharray: 2.775,1.2; stroke-dashoffset: 0; stroke: #0000ff; stroke-width: 0.75"/>
   </g>
   <g id="line2d_41">
    <path d="M 255.736471 44.630555 
L 260.907206 47.705619 
L 266.077941 51.220774 
L 271.248676 54.999718 
L 276.419412 58.987602 
L 281.590147 63.128671 
L 286.760882 67.383022 
L 291.931618 71.71239 
L 297.102353 76.115441 
L 302.273088 80.565076 
L 307.443824 85.046508 
L 312.614559 89.550383 
L 317.785294 94.074293 
L 322.956029 98.603224 
L 328.126765 103.141504 
L 333.2975 107.68 
L 338.468235 112.218496 
L 343.638971 116.756776 
L 348.809706 121.285707 
L 353.980441 125.809617 
L 359.151176 130.313492 
L 364.321912 134.794924 
L 369.492647 139.244559 
L 374.663382 143.64761 
L 379.834118 147.976978 
L 385.004853 152.231329 
L 390.175588 156.372398 
L 395.346324 160.360282 
L 400.517059 164.139226 
L 405.687794 167.654381 
L 410.858529 170.729445 
" clip-path="url(#p38d8f76b27)" style="fill: none; stroke-dasharray: 3.7,1.6; stroke-dashoffset: 0; stroke: #ff0000"/>
   </g>
   <g id="patch_9">
    <path d="M 245.395 188.48 
L 245.395 26.88 
" style="fill: none; stroke: #000000; stroke-width: 0.8; stroke-linejoin: miter; stroke-linecap: square"/>
   </g>
   <g id="patch_10">
    <path d="M 421.2 188.48 
L 421.2 26.88 
" style="fill: none; stroke: #000000; stroke-width: 0.8; stroke-linejoin: miter; stroke-linecap: square"/>
   </g>
   <g id="patch_11">
    <path d="M 245.395 188.48 
L 421.2 188.48 
" style="fill: none; stroke: #000000; stroke-width: 0.8; stroke-linejoin: miter; stroke-linecap: square"/>
   </g>
   <g id="patch_12">
    <path d="M 245.395 26.88 
L 421.2 26.88 
" style="fill: none; stroke: #000000; stroke-width: 0.8; stroke-linejoin: miter; stroke-linecap: square"/>
   </g>
   <g id="text_11">
    <!-- $\alpha$=5° -->
    <g transform="translate(317.4575 20.88)scale(0.12 -0.12)">
     <defs>
      <path id="DejaVuSans-35" d="M 691 4666 
L 3169 4666 
L 3169 4134 
L 1269 4134 
L 1269 2991 
Q 1406 3038 1543 3061 
Q 1681 3084 1819 3084 
Q 2600 3084 3056 2656 
Q 3513 2228 3513 1497 
Q 3513 744 3044 326 
Q 2575 -91 1722 -91 
Q 1428 -91 1123 -41 
Q 819 9 494 109 
L 494 744 
Q 775 591 1075 516 
Q 1375 441 1709 441 
Q 2250 441 2565 725 
Q 2881 1009 2881 1497 
Q 2881 1984 2565 2268 
Q 2250 2553 1709 2553 
Q 1456 2553 1204 2497 
Q 953 2441 691 2322 
L 691 4666 
z
" transform="scale(0.015625)"/>
     </defs>
     <use xlink:href="#DejaVuSans-Oblique-3b1" transform="translate(0 0.78125)"/>
     <use xlink:href="#DejaVuSans-3d" transform="translate(65.917969 0.78125)"/>
     <use xlink:href="#DejaVuSans-35" transform="translate(149.707031 0.78125)"/>
     <use xlink:href="#DejaVuSans-b0" transform="translate(213.330078 0.78125)"/>
    </g>
   </g>
  </g>
  <g id="axes_3">
   <g id="patch_13">
    <path d="M 56.09 387.16 
L 231.895 387.16 
L 231.895 225.56 
L 56.09 225.56 
z
" style="fill: #ffffff"/>
   </g>
   <g id="matplotlib.axis_5">
    <g id="xtick_7">
     <g id="line2d_42">
      <path d="M 92.285147 387.16 
L 92.285147 225.56 
" clip-path="url(#p5ac54cb221)" style="fill: none; stroke-dasharray: 2.96,1.28; stroke-dashoffset: 0; stroke: #d3d3d3; stroke-width: 0.8"/>
     </g>
     <g id="line2d_43">
      <g>
       <use xlink:href="#md5d1de9bd0" x="92.285147" y="387.16" style="stroke: #000000; stroke-width: 0.8"/>
      </g>
     </g>
     <g id="text_12">
      <!-- −10 -->
      <g transform="translate(81.732803 401.758437)scale(0.1 -0.1)">
       <use xlink:href="#DejaVuSans-2212"/>
       <use xlink:href="#DejaVuSans-31" x="83.789062"/>
       <use xlink:href="#DejaVuSans-30" x="147.412109"/>
      </g>
     </g>
    </g>
    <g id="xtick_8">
     <g id="line2d_44">
      <path d="M 143.9925 387.16 
L 143.9925 225.56 
" clip-path="url(#p5ac54cb221)" style="fill: none; stroke-dasharray: 2.96,1.28; stroke-dashoffset: 0; stroke: #d3d3d3; stroke-width: 0.8"/>
     </g>
     <g id="line2d_45">
      <g>
       <use xlink:href="#md5d1de9bd0" x="143.9925" y="387.16" style="stroke: #000000; stroke-width: 0.8"/>
      </g>
     </g>
     <g id="text_13">
      <!-- 0 -->
      <g transform="translate(140.81125 401.758437)scale(0.1 -0.1)">
       <use xlink:href="#DejaVuSans-30"/>
      </g>
     </g>
    </g>
    <g id="xtick_9">
     <g id="line2d_46">
      <path d="M 195.699853 387.16 
L 195.699853 225.56 
" clip-path="url(#p5ac54cb221)" style="fill: none; stroke-dasharray: 2.96,1.28; stroke-dashoffset: 0; stroke: #d3d3d3; stroke-width: 0.8"/>
     </g>
     <g id="line2d_47">
      <g>
       <use xlink:href="#md5d1de9bd0" x="195.699853" y="387.16" style="stroke: #000000; stroke-width: 0.8"/>
      </g>
     </g>
     <g id="text_14">
      <!-- 10 -->
      <g transform="translate(189.337353 401.758437)scale(0.1 -0.1)">
       <use xlink:href="#DejaVuSans-31"/>
       <use xlink:href="#DejaVuSans-30" x="63.623047"/>
      </g>
     </g>
    </g>
    <g id="text_15">
     <!-- $\beta$ [deg] -->
     <g transform="translate(125.8425 415.538125)scale(0.1 -0.1)">
      <defs>
       <path id="DejaVuSans-Oblique-3b2" d="M 872 216 
L 572 -1331 
L -6 -1331 
L 928 3478 
Q 1206 4903 2538 4903 
Q 3888 4903 3659 3700 
Q 3503 2844 2894 2531 
Q 3713 2250 3553 1416 
Q 3272 -69 1759 -66 
Q 1097 -63 872 216 
z
M 1019 966 
Q 1259 422 1875 425 
Q 2775 425 2966 1406 
Q 3138 2288 1675 2219 
L 1778 2750 
Q 2909 2731 3106 3750 
Q 3241 4438 2509 4434 
Q 1691 4434 1503 3459 
L 1019 966 
z
" transform="scale(0.015625)"/>
       <path id="DejaVuSans-20" transform="scale(0.015625)"/>
       <path id="DejaVuSans-5b" d="M 550 4863 
L 1875 4863 
L 1875 4416 
L 1125 4416 
L 1125 -397 
L 1875 -397 
L 1875 -844 
L 550 -844 
L 550 4863 
z
" transform="scale(0.015625)"/>
       <path id="DejaVuSans-64" d="M 2906 2969 
L 2906 4863 
L 3481 4863 
L 3481 0 
L 2906 0 
L 2906 525 
Q 2725 213 2448 61 
Q 2172 -91 1784 -91 
Q 1150 -91 751 415 
Q 353 922 353 1747 
Q 353 2572 751 3078 
Q 1150 3584 1784 3584 
Q 2172 3584 2448 3432 
Q 2725 3281 2906 2969 
z
M 947 1747 
Q 947 1113 1208 752 
Q 1469 391 1925 391 
Q 2381 391 2643 752 
Q 2906 1113 2906 1747 
Q 2906 2381 2643 2742 
Q 2381 3103 1925 3103 
Q 1469 3103 1208 2742 
Q 947 2381 947 1747 
z
" transform="scale(0.015625)"/>
       <path id="DejaVuSans-67" d="M 2906 1791 
Q 2906 2416 2648 2759 
Q 2391 3103 1925 3103 
Q 1463 3103 1205 2759 
Q 947 2416 947 1791 
Q 947 1169 1205 825 
Q 1463 481 1925 481 
Q 2391 481 2648 825 
Q 2906 1169 2906 1791 
z
M 3481 434 
Q 3481 -459 3084 -895 
Q 2688 -1331 1869 -1331 
Q 1566 -1331 1297 -1286 
Q 1028 -1241 775 -1147 
L 775 -588 
Q 1028 -725 1275 -790 
Q 1522 -856 1778 -856 
Q 2344 -856 2625 -561 
Q 2906 -266 2906 331 
L 2906 616 
Q 2728 306 2450 153 
Q 2172 0 1784 0 
Q 1141 0 747 490 
Q 353 981 353 1791 
Q 353 2603 747 3093 
Q 1141 3584 1784 3584 
Q 2172 3584 2450 3431 
Q 2728 3278 2906 2969 
L 2906 3500 
L 3481 3500 
L 3481 434 
z
" transform="scale(0.015625)"/>
       <path id="DejaVuSans-5d" d="M 1947 4863 
L 1947 -844 
L 622 -844 
L 622 -397 
L 1369 -397 
L 1369 4416 
L 622 4416 
L 622 4863 
L 1947 4863 
z
" transform="scale(0.015625)"/>
      </defs>
      <use xlink:href="#DejaVuSans-Oblique-3b2" transform="translate(0 0.390625)"/>
      <use xlink:href="#DejaVuSans-20" transform="translate(63.818359 0.390625)"/>
      <use xlink:href="#DejaVuSans-5b" transform="translate(95.605469 0.390625)"/>
      <use xlink:href="#DejaVuSans-64" transform="translate(134.619141 0.390625)"/>
      <use xlink:href="#DejaVuSans-65" transform="translate(198.095703 0.390625)"/>
      <use xlink:href="#DejaVuSans-67" transform="translate(259.619141 0.390625)"/>
      <use xlink:href="#DejaVuSans-5d" transform="translate(323.095703 0.390625)"/>
     </g>
    </g>
   </g>
   <g id="matplotlib.axis_6">
    <g id="ytick_11">
     <g id="line2d_48">
      <path d="M 56.09 376.62087 
L 231.895 376.62087 
" clip-path="url(#p5ac54cb221)" style="fill: none; stroke-dasharray: 2.96,1.28; stroke-dashoffset: 0; stroke: #d3d3d3; stroke-width: 0.8"/>
     </g>
     <g id="line2d_49">
      <g>
       <use xlink:href="#m49e666aa50" x="56.09" y="376.62087" style="stroke: #000000; stroke-width: 0.8"/>
      </g>
     </g>
     <g id="text_16">
      <!-- −0.2 -->
      <g transform="translate(24.807188 380.420088)scale(0.1 -0.1)">
       <use xlink:href="#DejaVuSans-2212"/>
       <use xlink:href="#DejaVuSans-30" x="83.789062"/>
       <use xlink:href="#DejaVuSans-2e" x="147.412109"/>
       <use xlink:href="#DejaVuSans-32" x="179.199219"/>
      </g>
     </g>
    </g>
    <g id="ytick_12">
     <g id="line2d_50">
      <path d="M 56.09 341.490435 
L 231.895 341.490435 
" clip-path="url(#p5ac54cb221)" style="fill: none; stroke-dasharray: 2.96,1.28; stroke-dashoffset: 0; stroke: #d3d3d3; stroke-width: 0.8"/>
     </g>
     <g id="line2d_51">
      <g>
       <use xlink:href="#m49e666aa50" x="56.09" y="341.490435" style="stroke: #000000; stroke-width: 0.8"/>
      </g>
     </g>
     <g id="text_17">
      <!-- −0.1 -->
      <g transform="translate(24.807188 345.289654)scale(0.1 -0.1)">
       <use xlink:href="#DejaVuSans-2212"/>
       <use xlink:href="#DejaVuSans-30" x="83.789062"/>
       <use xlink:href="#DejaVuSans-2e" x="147.412109"/>
       <use xlink:href="#DejaVuSans-31" x="179.199219"/>
      </g>
     </g>
    </g>
    <g id="ytick_13">
     <g id="line2d_52">
      <path d="M 56.09 306.36 
L 231.895 306.36 
" clip-path="url(#p5ac54cb221)" style="fill: none; stroke-dasharray: 2.96,1.28; stroke-dashoffset: 0; stroke: #d3d3d3; stroke-width: 0.8"/>
     </g>
     <g id="line2d_53">
      <g>
       <use xlink:href="#m49e666aa50" x="56.09" y="306.36" style="stroke: #000000; stroke-width: 0.8"/>
      </g>
     </g>
     <g id="text_18">
      <!-- 0.0 -->
      <g transform="translate(33.186875 310.159219)scale(0.1 -0.1)">
       <use xlink:href="#DejaVuSans-30"/>
       <use xlink:href="#DejaVuSans-2e" x="63.623047"/>
       <use xlink:href="#DejaVuSans-30" x="95.410156"/>
      </g>
     </g>
    </g>
    <g id="ytick_14">
     <g id="line2d_54">
      <path d="M 56.09 271.229565 
L 231.895 271.229565 
" clip-path="url(#p5ac54cb221)" style="fill: none; stroke-dasharray: 2.96,1.28; stroke-dashoffset: 0; stroke: #d3d3d3; stroke-width: 0.8"/>
     </g>
     <g id="line2d_55">
      <g>
       <use xlink:href="#m49e666aa50" x="56.09" y="271.229565" style="stroke: #000000; stroke-width: 0.8"/>
      </g>
     </g>
     <g id="text_19">
      <!-- 0.1 -->
      <g transform="translate(33.186875 275.028784)scale(0.1 -0.1)">
       <use xlink:href="#DejaVuSans-30"/>
       <use xlink:href="#DejaVuSans-2e" x="63.623047"/>
       <use xlink:href="#DejaVuSans-31" x="95.410156"/>
      </g>
     </g>
    </g>
    <g id="ytick_15">
     <g id="line2d_56">
      <path d="M 56.09 236.09913 
L 231.895 236.09913 
" clip-path="url(#p5ac54cb221)" style="fill: none; stroke-dasharray: 2.96,1.28; stroke-dashoffset: 0; stroke: #d3d3d3; stroke-width: 0.8"/>
     </g>
     <g id="line2d_57">
      <g>
       <use xlink:href="#m49e666aa50" x="56.09" y="236.09913" style="stroke: #000000; stroke-width: 0.8"/>
      </g>
     </g>
     <g id="text_20">
      <!-- 0.2 -->
      <g transform="translate(33.186875 239.898349)scale(0.1 -0.1)">
       <use xlink:href="#DejaVuSans-30"/>
       <use xlink:href="#DejaVuSans-2e" x="63.623047"/>
       <use xlink:href="#DejaVuSans-32" x="95.410156"/>
      </g>
     </g>
    </g>
    <g id="text_21">
     <!-- CY -->
     <g transform="translate(18.7275 312.817812)rotate(-90)scale(0.1 -0.1)">
      <use xlink:href="#DejaVuSans-43"/>
      <use xlink:href="#DejaVuSans-59" x="68.074219"/>
     </g>
    </g>
   </g>
   <g id="line2d_58">
    <path d="M 66.431471 253.330609 
L 71.602206 255.642191 
L 76.772941 257.391687 
L 81.943676 260.448035 
L 87.114412 263.321704 
L 92.285147 264.639096 
L 97.455882 267.498713 
L 102.626618 271.261183 
L 107.797353 275.29767 
L 112.968088 279.162017 
L 118.138824 283.374157 
L 123.309559 288.155409 
L 128.480294 292.536174 
L 133.651029 296.973148 
L 138.821765 301.536591 
L 143.9925 306.015722 
L 149.163235 310.266504 
L 154.333971 314.584035 
L 159.504706 319.189635 
L 164.675441 323.4896 
L 169.846176 328.063583 
L 175.016912 332.187896 
L 180.187647 336.0944 
L 185.358382 340.197635 
L 190.529118 343.443687 
L 195.699853 345.758783 
L 200.870588 348.442748 
L 206.041324 349.31047 
L 211.212059 351.853913 
L 216.382794 354.576522 
L 221.553529 356.800278 
" clip-path="url(#p5ac54cb221)" style="fill: none; stroke: #000000; stroke-width: 0.75; stroke-linecap: square"/>
   </g>
   <g id="line2d_59">
    <path d="M 66.431471 255.743772 
L 71.602206 258.939939 
L 76.772941 262.172796 
L 81.943676 265.438964 
L 87.114412 268.737175 
L 92.285147 272.062939 
L 97.455882 275.417384 
L 102.626618 278.79478 
L 107.797353 282.193547 
L 112.968088 285.608836 
L 118.138824 289.041962 
L 123.309559 292.487723 
L 128.480294 295.947733 
L 133.651029 299.413095 
L 138.821765 302.88569 
L 143.9925 306.36 
L 149.163235 309.83431 
L 154.333971 313.303415 
L 159.504706 316.772267 
L 164.675441 320.228773 
L 169.846176 323.674539 
L 175.016912 327.10767 
L 180.187647 330.526105 
L 185.358382 333.92522 
L 190.529118 337.302616 
L 195.699853 340.653601 
L 200.870588 343.982825 
L 206.041324 347.2776 
L 211.212059 350.543919 
L 216.382794 353.780209 
L 221.553529 356.976386 
" clip-path="url(#p5ac54cb221)" style="fill: none; stroke-dasharray: 2.775,1.2; stroke-dashoffset: 0; stroke: #0000ff; stroke-width: 0.75"/>
   </g>
   <g id="line2d_60">
    <path d="M 66.431471 253.018992 
L 71.602206 255.43387 
L 76.772941 257.584334 
L 81.943676 259.331568 
L 87.114412 262.018813 
L 92.285147 265.259523 
L 97.455882 268.839744 
L 102.626618 272.648588 
L 107.797353 276.616005 
L 112.968088 280.698617 
L 118.138824 284.869698 
L 123.309559 289.103028 
L 128.480294 293.379429 
L 133.651029 297.691146 
L 138.821765 302.020335 
L 143.9925 306.36 
L 149.163235 310.699665 
L 154.333971 315.028854 
L 159.504706 319.340571 
L 164.675441 323.616972 
L 169.846176 327.850302 
L 175.016912 332.021383 
L 180.187647 336.103995 
L 185.358382 340.071412 
L 190.529118 343.880256 
L 195.699853 347.460477 
L 200.870588 350.701187 
L 206.041324 353.388432 
L 211.212059 355.135666 
L 216.382794 357.28613 
L 221.553529 359.701008 
" clip-path="url(#p5ac54cb221)" style="fill: none; stroke-dasharray: 3.7,1.6; stroke-dashoffset: 0; stroke: #ff0000"/>
   </g>
   <g id="patch_14">
    <path d="M 56.09 387.16 
L 56.09 225.56 
" style="fill: none; stroke: #000000; stroke-width: 0.8; stroke-linejoin: miter; stroke-linecap: square"/>
   </g>
   <g id="patch_15">
    <path d="M 231.895 387.16 
L 231.895 225.56 
" style="fill: none; stroke: #000000; stroke-width: 0.8; stroke-linejoin: miter; stroke-linecap: square"/>
   </g>
   <g id="patch_16">
    <path d="M 56.09 387.16 
L 231.895 387.16 
" style="fill: none; stroke: #000000; stroke-width: 0.8; stroke-linejoin: miter; stroke-linecap: square"/>
   </g>
   <g id="patch_17">
    <path d="M 56.09 225.56 
L 231.895 225.56 
" style="fill: none; stroke: #000000; stroke-width: 0.8; stroke-linejoin: miter; stroke-linecap: square"/>
   </g>
   <g id="text_22">
    <!-- $\alpha$=10° -->
    <g transform="translate(124.3725 219.56)scale(0.12 -0.12)">
     <use xlink:href="#DejaVuSans-Oblique-3b1" transform="translate(0 0.78125)"/>
     <use xlink:href="#DejaVuSans-3d" transform="translate(65.917969 0.78125)"/>
     <use xlink:href="#DejaVuSans-31" transform="translate(149.707031 0.78125)"/>
     <use xlink:href="#DejaVuSans-30" transform="translate(213.330078 0.78125)"/>
     <use xlink:href="#DejaVuSans-b0" transform="translate(276.953125 0.78125)"/>
    </g>
   </g>
  </g>
  <g id="axes_4">
   <g id="patch_18">
    <path d="M 245.395 387.16 
L 421.2 387.16 
L 421.2 225.56 
L 245.395 225.56 
z
" style="fill: #ffffff"/>
   </g>
   <g id="matplotlib.axis_7">
    <g id="xtick_10">
     <g id="line2d_61">
      <path d="M 281.590147 387.16 
L 281.590147 225.56 
" clip-path="url(#peb467d3097)" style="fill: none; stroke-dasharray: 2.96,1.28; stroke-dashoffset: 0; stroke: #d3d3d3; stroke-width: 0.8"/>
     </g>
     <g id="line2d_62">
      <g>
       <use xlink:href="#md5d1de9bd0" x="281.590147" y="387.16" style="stroke: #000000; stroke-width: 0.8"/>
      </g>
     </g>
     <g id="text_23">
      <!-- −10 -->
      <g transform="translate(271.037803 401.758437)scale(0.1 -0.1)">
       <use xlink:href="#DejaVuSans-2212"/>
       <use xlink:href="#DejaVuSans-31" x="83.789062"/>
       <use xlink:href="#DejaVuSans-30" x="147.412109"/>
      </g>
     </g>
    </g>
    <g id="xtick_11">
     <g id="line2d_63">
      <path d="M 333.2975 387.16 
L 333.2975 225.56 
" clip-path="url(#peb467d3097)" style="fill: none; stroke-dasharray: 2.96,1.28; stroke-dashoffset: 0; stroke: #d3d3d3; stroke-width: 0.8"/>
     </g>
     <g id="line2d_64">
      <g>
       <use xlink:href="#md5d1de9bd0" x="333.2975" y="387.16" style="stroke: #000000; stroke-width: 0.8"/>
      </g>
     </g>
     <g id="text_24">
      <!-- 0 -->
      <g transform="translate(330.11625 401.758437)scale(0.1 -0.1)">
       <use xlink:href="#DejaVuSans-30"/>
      </g>
     </g>
    </g>
    <g id="xtick_12">
     <g id="line2d_65">
      <path d="M 385.004853 387.16 
L 385.004853 225.56 
" clip-path="url(#peb467d3097)" style="fill: none; stroke-dasharray: 2.96,1.28; stroke-dashoffset: 0; stroke: #d3d3d3; stroke-width: 0.8"/>
     </g>
     <g id="line2d_66">
      <g>
       <use xlink:href="#md5d1de9bd0" x="385.004853" y="387.16" style="stroke: #000000; stroke-width: 0.8"/>
      </g>
     </g>
     <g id="text_25">
      <!-- 10 -->
      <g transform="translate(378.642353 401.758437)scale(0.1 -0.1)">
       <use xlink:href="#DejaVuSans-31"/>
       <use xlink:href="#DejaVuSans-30" x="63.623047"/>
      </g>
     </g>
    </g>
    <g id="text_26">
     <!-- $\beta$ [deg] -->
     <g transform="translate(315.1475 415.538125)scale(0.1 -0.1)">
      <use xlink:href="#DejaVuSans-Oblique-3b2" transform="translate(0 0.390625)"/>
      <use xlink:href="#DejaVuSans-20" transform="translate(63.818359 0.390625)"/>
      <use xlink:href="#DejaVuSans-5b" transform="translate(95.605469 0.390625)"/>
      <use xlink:href="#DejaVuSans-64" transform="translate(134.619141 0.390625)"/>
      <use xlink:href="#DejaVuSans-65" transform="translate(198.095703 0.390625)"/>
      <use xlink:href="#DejaVuSans-67" transform="translate(259.619141 0.390625)"/>
      <use xlink:href="#DejaVuSans-5d" transform="translate(323.095703 0.390625)"/>
     </g>
    </g>
   </g>
   <g id="matplotlib.axis_8">
    <g id="ytick_16">
     <g id="line2d_67">
      <path d="M 245.395 376.62087 
L 421.2 376.62087 
" clip-path="url(#peb467d3097)" style="fill: none; stroke-dasharray: 2.96,1.28; stroke-dashoffset: 0; stroke: #d3d3d3; stroke-width: 0.8"/>
     </g>
     <g id="line2d_68">
      <g>
       <use xlink:href="#m49e666aa50" x="245.395" y="376.62087" style="stroke: #000000; stroke-width: 0.8"/>
      </g>
     </g>
    </g>
    <g id="ytick_17">
     <g id="line2d_69">
      <path d="M 245.395 341.490435 
L 421.2 341.490435 
" clip-path="url(#peb467d3097)" style="fill: none; stroke-dasharray: 2.96,1.28; stroke-dashoffset: 0; stroke: #d3d3d3; stroke-width: 0.8"/>
     </g>
     <g id="line2d_70">
      <g>
       <use xlink:href="#m49e666aa50" x="245.395" y="341.490435" style="stroke: #000000; stroke-width: 0.8"/>
      </g>
     </g>
    </g>
    <g id="ytick_18">
     <g id="line2d_71">
      <path d="M 245.395 306.36 
L 421.2 306.36 
" clip-path="url(#peb467d3097)" style="fill: none; stroke-dasharray: 2.96,1.28; stroke-dashoffset: 0; stroke: #d3d3d3; stroke-width: 0.8"/>
     </g>
     <g id="line2d_72">
      <g>
       <use xlink:href="#m49e666aa50" x="245.395" y="306.36" style="stroke: #000000; stroke-width: 0.8"/>
      </g>
     </g>
    </g>
    <g id="ytick_19">
     <g id="line2d_73">
      <path d="M 245.395 271.229565 
L 421.2 271.229565 
" clip-path="url(#peb467d3097)" style="fill: none; stroke-dasharray: 2.96,1.28; stroke-dashoffset: 0; stroke: #d3d3d3; stroke-width: 0.8"/>
     </g>
     <g id="line2d_74">
      <g>
       <use xlink:href="#m49e666aa50" x="245.395" y="271.229565" style="stroke: #000000; stroke-width: 0.8"/>
      </g>
     </g>
    </g>
    <g id="ytick_20">
     <g id="line2d_75">
      <path d="M 245.395 236.09913 
L 421.2 236.09913 
" clip-path="url(#peb467d3097)" style="fill: none; stroke-dasharray: 2.96,1.28; stroke-dashoffset: 0; stroke: #d3d3d3; stroke-width: 0.8"/>
     </g>
     <g id="line2d_76">
      <g>
       <use xlink:href="#m49e666aa50" x="245.395" y="236.09913" style="stroke: #000000; stroke-width: 0.8"/>
      </g>
     </g>
    </g>
   </g>
   <g id="line2d_77">
    <path d="M 255.736471 274.826922 
L 260.907206 276.850435 
L 266.077941 278.557774 
L 271.248676 280.265113 
L 276.419412 281.744104 
L 281.590147 282.274574 
L 286.760882 282.264035 
L 291.931618 282.330783 
L 297.102353 282.299165 
L 302.273088 284.853148 
L 307.443824 288.355652 
L 312.614559 291.938957 
L 317.785294 295.402817 
L 322.956029 299.372557 
L 328.126765 302.702922 
L 333.2975 306.4408 
L 338.468235 310.28407 
L 343.638971 313.853322 
L 348.809706 317.728209 
L 353.980441 321.430957 
L 359.151176 324.98967 
L 364.321912 328.341113 
L 369.492647 330.238157 
L 374.663382 330.585948 
L 379.834118 333.189113 
L 385.004853 335.181009 
L 390.175588 336.807548 
L 395.346324 334.625948 
L 400.517059 335.181009 
L 405.687794 336.396522 
L 410.858529 337.994957 
" clip-path="url(#peb467d3097)" style="fill: none; stroke: #000000; stroke-width: 0.75; stroke-linecap: square"/>
   </g>
   <g id="line2d_78">
    <path d="M 255.736471 261.079254 
L 260.907206 263.961197 
L 266.077941 266.868283 
L 271.248676 269.801919 
L 276.419412 272.757917 
L 281.590147 275.741567 
L 286.760882 278.743271 
L 291.931618 281.762429 
L 297.102353 284.801224 
L 302.273088 287.853833 
L 307.443824 290.91541 
L 312.614559 293.991724 
L 317.785294 297.077715 
L 322.956029 300.168147 
L 328.126765 303.261562 
L 333.2975 306.36 
L 338.468235 309.454925 
L 343.638971 312.551853 
L 348.809706 315.642285 
L 353.980441 318.724771 
L 359.151176 321.801091 
L 364.321912 324.866167 
L 369.492647 327.918776 
L 374.663382 330.95362 
L 379.834118 333.976729 
L 385.004853 336.978591 
L 390.175588 339.958808 
L 395.346324 342.918271 
L 400.517059 345.851922 
L 405.687794 348.759023 
L 410.858529 351.63671 
" clip-path="url(#peb467d3097)" style="fill: none; stroke-dasharray: 2.775,1.2; stroke-dashoffset: 0; stroke: #0000ff; stroke-width: 0.75"/>
   </g>
   <g id="line2d_79">
    <path d="M 260.907206 269.366649 
L 266.077941 270.784102 
L 271.248676 271.488447 
L 276.419412 273.626705 
L 281.590147 276.206789 
L 286.760882 278.772838 
L 291.931618 280.642868 
L 297.102353 282.508934 
L 302.273088 285.192089 
L 307.443824 288.31712 
L 312.614559 291.693314 
L 317.785294 295.228744 
L 322.956029 298.880585 
L 328.126765 302.603981 
L 333.2975 306.36 
L 338.468235 310.116019 
L 343.638971 313.839415 
L 348.809706 317.491256 
L 353.980441 321.026686 
L 359.151176 324.40288 
L 364.321912 327.527911 
L 369.492647 330.211066 
L 374.663382 332.077132 
L 379.834118 333.947162 
L 385.004853 336.513211 
L 390.175588 339.093295 
L 395.346324 341.231553 
L 400.517059 341.935898 
L 405.687794 343.353351 
" clip-path="url(#peb467d3097)" style="fill: none; stroke-dasharray: 3.7,1.6; stroke-dashoffset: 0; stroke: #ff0000"/>
   </g>
   <g id="patch_19">
    <path d="M 245.395 387.16 
L 245.395 225.56 
" style="fill: none; stroke: #000000; stroke-width: 0.8; stroke-linejoin: miter; stroke-linecap: square"/>
   </g>
   <g id="patch_20">
    <path d="M 421.2 387.16 
L 421.2 225.56 
" style="fill: none; stroke: #000000; stroke-width: 0.8; stroke-linejoin: miter; stroke-linecap: square"/>
   </g>
   <g id="patch_21">
    <path d="M 245.395 387.16 
L 421.2 387.16 
" style="fill: none; stroke: #000000; stroke-width: 0.8; stroke-linejoin: miter; stroke-linecap: square"/>
   </g>
   <g id="patch_22">
    <path d="M 245.395 225.56 
L 421.2 225.56 
" style="fill: none; stroke: #000000; stroke-width: 0.8; stroke-linejoin: miter; stroke-linecap: square"/>
   </g>
   <g id="text_27">
    <!-- $\alpha$=15° -->
    <g transform="translate(313.6775 219.56)scale(0.12 -0.12)">
     <use xlink:href="#DejaVuSans-Oblique-3b1" transform="translate(0 0.78125)"/>
     <use xlink:href="#DejaVuSans-3d" transform="translate(65.917969 0.78125)"/>
     <use xlink:href="#DejaVuSans-31" transform="translate(149.707031 0.78125)"/>
     <use xlink:href="#DejaVuSans-35" transform="translate(213.330078 0.78125)"/>
     <use xlink:href="#DejaVuSans-b0" transform="translate(276.953125 0.78125)"/>
    </g>
   </g>
  </g>
 </g>
 <defs>
  <clipPath id="pdba7c10da7">
   <rect x="56.09" y="26.88" width="175.805" height="161.6"/>
  </clipPath>
  <clipPath id="p38d8f76b27">
   <rect x="245.395" y="26.88" width="175.805" height="161.6"/>
  </clipPath>
  <clipPath id="p5ac54cb221">
   <rect x="56.09" y="225.56" width="175.805" height="161.6"/>
  </clipPath>
  <clipPath id="peb467d3097">
   <rect x="245.395" y="225.56" width="175.805" height="161.6"/>
  </clipPath>
 </defs>
</svg>
